<?xml version="1.0" encoding="UTF-8" standalone="no"?><svg xmlns="http://www.w3.org/2000/svg" xmlns:xlink="http://www.w3.org/1999/xlink" contentStyleType="text/css" height="606px" preserveAspectRatio="none" style="width:1054px;height:606px;background:#FFFFFF;" version="1.1" viewBox="0 0 1054 606" width="1054px" zoomAndPan="magnify"><defs/><g><!--class RegisterVehicleCheckupUI--><g id="elem_RegisterVehicleCheckupUI"><rect codeLine="11" fill="#F1F1F1" height="48" id="RegisterVehicleCheckupUI" rx="2.5" ry="2.5" style="stroke:#181818;stroke-width:0.5;" width="199" x="7" y="33.5"/><ellipse cx="22" cy="49.5" fill="#ADD1B2" rx="11" ry="11" style="stroke:#181818;stroke-width:1.0;"/><path d="M24.7656,45.375 Q24.9219,45.1563 25.1094,45.0469 Q25.2969,44.9375 25.5156,44.9375 Q25.8906,44.9375 26.125,45.2031 Q26.3594,45.4531 26.3594,46.0625 L26.3594,47.5156 Q26.3594,48.125 26.125,48.3906 Q25.8906,48.6563 25.5156,48.6563 Q25.1719,48.6563 24.9688,48.4531 Q24.7656,48.2656 24.6563,47.75 Q24.6094,47.3906 24.4219,47.2031 Q24.0938,46.8281 23.4844,46.6094 Q22.875,46.3906 22.25,46.3906 Q21.4844,46.3906 20.8438,46.7188 Q20.2188,47.0469 19.7188,47.7969 Q19.2344,48.5469 19.2344,49.5781 L19.2344,50.6719 Q19.2344,51.9063 20.125,52.7344 Q21.0156,53.5469 22.6094,53.5469 Q23.5469,53.5469 24.2031,53.2969 Q24.5938,53.1406 25.0156,52.7031 Q25.2813,52.4375 25.4219,52.3594 Q25.5781,52.2813 25.7813,52.2813 Q26.1094,52.2813 26.3594,52.5469 Q26.625,52.7969 26.625,53.1406 Q26.625,53.4844 26.2813,53.8906 Q25.7813,54.4688 24.9844,54.7969 Q23.9063,55.25 22.6094,55.25 Q21.0938,55.25 19.8906,54.625 Q18.9063,54.125 18.2188,53.0625 Q17.5313,51.9844 17.5313,50.7031 L17.5313,49.5469 Q17.5313,48.2188 18.1406,47.0781 Q18.7656,45.9219 19.8594,45.3125 Q20.9531,44.6875 22.1875,44.6875 Q22.9219,44.6875 23.5625,44.8594 Q24.2188,45.0156 24.7656,45.375 Z " fill="#000000"/><text fill="#000000" font-family="sans-serif" font-size="14" lengthAdjust="spacing" textLength="167" x="36" y="55.2285">RegisterVehicleCheckupUI</text><line style="stroke:#181818;stroke-width:0.5;" x1="8" x2="205" y1="65.5" y2="65.5"/><line style="stroke:#181818;stroke-width:0.5;" x1="8" x2="205" y1="73.5" y2="73.5"/></g><!--class RegisterVehicleCheckupController--><g id="elem_RegisterVehicleCheckupController"><rect codeLine="15" fill="#F1F1F1" height="83.2188" id="RegisterVehicleCheckupController" rx="2.5" ry="2.5" style="stroke:#181818;stroke-width:0.5;" width="351" x="241" y="16"/><ellipse cx="303.75" cy="32" fill="#ADD1B2" rx="11" ry="11" style="stroke:#181818;stroke-width:1.0;"/><path d="M306.5156,27.875 Q306.6719,27.6563 306.8594,27.5469 Q307.0469,27.4375 307.2656,27.4375 Q307.6406,27.4375 307.875,27.7031 Q308.1094,27.9531 308.1094,28.5625 L308.1094,30.0156 Q308.1094,30.625 307.875,30.8906 Q307.6406,31.1563 307.2656,31.1563 Q306.9219,31.1563 306.7188,30.9531 Q306.5156,30.7656 306.4063,30.25 Q306.3594,29.8906 306.1719,29.7031 Q305.8438,29.3281 305.2344,29.1094 Q304.625,28.8906 304,28.8906 Q303.2344,28.8906 302.5938,29.2188 Q301.9688,29.5469 301.4688,30.2969 Q300.9844,31.0469 300.9844,32.0781 L300.9844,33.1719 Q300.9844,34.4063 301.875,35.2344 Q302.7656,36.0469 304.3594,36.0469 Q305.2969,36.0469 305.9531,35.7969 Q306.3438,35.6406 306.7656,35.2031 Q307.0313,34.9375 307.1719,34.8594 Q307.3281,34.7813 307.5313,34.7813 Q307.8594,34.7813 308.1094,35.0469 Q308.375,35.2969 308.375,35.6406 Q308.375,35.9844 308.0313,36.3906 Q307.5313,36.9688 306.7344,37.2969 Q305.6563,37.75 304.3594,37.75 Q302.8438,37.75 301.6406,37.125 Q300.6563,36.625 299.9688,35.5625 Q299.2813,34.4844 299.2813,33.2031 L299.2813,32.0469 Q299.2813,30.7188 299.8906,29.5781 Q300.5156,28.4219 301.6094,27.8125 Q302.7031,27.1875 303.9375,27.1875 Q304.6719,27.1875 305.3125,27.3594 Q305.9688,27.5156 306.5156,27.875 Z " fill="#000000"/><text fill="#000000" font-family="sans-serif" font-size="14" lengthAdjust="spacing" textLength="217" x="324.25" y="37.7285">RegisterVehicleCheckupController</text><line style="stroke:#181818;stroke-width:0.5;" x1="242" x2="591" y1="48" y2="48"/><line style="stroke:#181818;stroke-width:0.5;" x1="242" x2="591" y1="56" y2="56"/><text fill="#000000" font-family="sans-serif" font-size="14" lengthAdjust="spacing" textLength="339" x="247" y="74.5332">+CreateVehicleCheckupController(VehicleRepository)</text><text fill="#000000" font-family="sans-serif" font-size="14" lengthAdjust="spacing" textLength="212" x="247" y="92.1426">+registerVehicleCheckup(vehicle)</text></g><!--class Repositories--><g id="elem_Repositories"><rect codeLine="20" fill="#F1F1F1" height="100.8281" id="Repositories" rx="2.5" ry="2.5" style="stroke:#181818;stroke-width:0.5;" width="255" x="696" y="7"/><ellipse cx="779.75" cy="23" fill="#ADD1B2" rx="11" ry="11" style="stroke:#181818;stroke-width:1.0;"/><path d="M782.5156,18.875 Q782.6719,18.6563 782.8594,18.5469 Q783.0469,18.4375 783.2656,18.4375 Q783.6406,18.4375 783.875,18.7031 Q784.1094,18.9531 784.1094,19.5625 L784.1094,21.0156 Q784.1094,21.625 783.875,21.8906 Q783.6406,22.1563 783.2656,22.1563 Q782.9219,22.1563 782.7188,21.9531 Q782.5156,21.7656 782.4063,21.25 Q782.3594,20.8906 782.1719,20.7031 Q781.8438,20.3281 781.2344,20.1094 Q780.625,19.8906 780,19.8906 Q779.2344,19.8906 778.5938,20.2188 Q777.9688,20.5469 777.4688,21.2969 Q776.9844,22.0469 776.9844,23.0781 L776.9844,24.1719 Q776.9844,25.4063 777.875,26.2344 Q778.7656,27.0469 780.3594,27.0469 Q781.2969,27.0469 781.9531,26.7969 Q782.3438,26.6406 782.7656,26.2031 Q783.0313,25.9375 783.1719,25.8594 Q783.3281,25.7813 783.5313,25.7813 Q783.8594,25.7813 784.1094,26.0469 Q784.375,26.2969 784.375,26.6406 Q784.375,26.9844 784.0313,27.3906 Q783.5313,27.9688 782.7344,28.2969 Q781.6563,28.75 780.3594,28.75 Q778.8438,28.75 777.6406,28.125 Q776.6563,27.625 775.9688,26.5625 Q775.2813,25.4844 775.2813,24.2031 L775.2813,23.0469 Q775.2813,21.7188 775.8906,20.5781 Q776.5156,19.4219 777.6094,18.8125 Q778.7031,18.1875 779.9375,18.1875 Q780.6719,18.1875 781.3125,18.3594 Q781.9688,18.5156 782.5156,18.875 Z " fill="#000000"/><text fill="#000000" font-family="sans-serif" font-size="14" lengthAdjust="spacing" textLength="79" x="800.25" y="28.7285">Repositories</text><line style="stroke:#181818;stroke-width:0.5;" x1="697" x2="950" y1="39" y2="39"/><line style="stroke:#181818;stroke-width:0.5;" x1="697" x2="950" y1="47" y2="47"/><text fill="#000000" font-family="sans-serif" font-size="14" lengthAdjust="spacing" textLength="181" x="702" y="65.5332">-Repositories(): Repositories</text><text fill="#000000" font-family="sans-serif" font-size="14" lengthAdjust="spacing" textLength="182" x="702" y="83.1426">+getInstance() : Repositories</text><text fill="#000000" font-family="sans-serif" font-size="14" lengthAdjust="spacing" textLength="243" x="702" y="100.752">+getVehicleRepository() : Repositories</text></g><!--class VehicleRepository--><g id="elem_VehicleRepository"><rect codeLine="27" fill="#F1F1F1" height="65.6094" id="VehicleRepository" rx="2.5" ry="2.5" style="stroke:#181818;stroke-width:0.5;" width="146" x="565.5" y="248"/><ellipse cx="580.5" cy="264" fill="#ADD1B2" rx="11" ry="11" style="stroke:#181818;stroke-width:1.0;"/><path d="M583.2656,259.875 Q583.4219,259.6563 583.6094,259.5469 Q583.7969,259.4375 584.0156,259.4375 Q584.3906,259.4375 584.625,259.7031 Q584.8594,259.9531 584.8594,260.5625 L584.8594,262.0156 Q584.8594,262.625 584.625,262.8906 Q584.3906,263.1563 584.0156,263.1563 Q583.6719,263.1563 583.4688,262.9531 Q583.2656,262.7656 583.1563,262.25 Q583.1094,261.8906 582.9219,261.7031 Q582.5938,261.3281 581.9844,261.1094 Q581.375,260.8906 580.75,260.8906 Q579.9844,260.8906 579.3438,261.2188 Q578.7188,261.5469 578.2188,262.2969 Q577.7344,263.0469 577.7344,264.0781 L577.7344,265.1719 Q577.7344,266.4063 578.625,267.2344 Q579.5156,268.0469 581.1094,268.0469 Q582.0469,268.0469 582.7031,267.7969 Q583.0938,267.6406 583.5156,267.2031 Q583.7813,266.9375 583.9219,266.8594 Q584.0781,266.7813 584.2813,266.7813 Q584.6094,266.7813 584.8594,267.0469 Q585.125,267.2969 585.125,267.6406 Q585.125,267.9844 584.7813,268.3906 Q584.2813,268.9688 583.4844,269.2969 Q582.4063,269.75 581.1094,269.75 Q579.5938,269.75 578.3906,269.125 Q577.4063,268.625 576.7188,267.5625 Q576.0313,266.4844 576.0313,265.2031 L576.0313,264.0469 Q576.0313,262.7188 576.6406,261.5781 Q577.2656,260.4219 578.3594,259.8125 Q579.4531,259.1875 580.6875,259.1875 Q581.4219,259.1875 582.0625,259.3594 Q582.7188,259.5156 583.2656,259.875 Z " fill="#000000"/><text fill="#000000" font-family="sans-serif" font-size="14" lengthAdjust="spacing" textLength="114" x="594.5" y="269.7285">VehicleRepository</text><line style="stroke:#181818;stroke-width:0.5;" x1="566.5" x2="710.5" y1="280" y2="280"/><line style="stroke:#181818;stroke-width:0.5;" x1="566.5" x2="710.5" y1="288" y2="288"/><text fill="#000000" font-family="sans-serif" font-size="14" lengthAdjust="spacing" textLength="66" x="571.5" y="306.5332">+register()</text></g><!--class Vehicle--><g id="elem_Vehicle"><rect codeLine="31" fill="#F1F1F1" height="83.2188" id="Vehicle" rx="2.5" ry="2.5" style="stroke:#181818;stroke-width:0.5;" width="101" x="588" y="516"/><ellipse cx="613.35" cy="532" fill="#ADD1B2" rx="11" ry="11" style="stroke:#181818;stroke-width:1.0;"/><path d="M616.1156,527.875 Q616.2719,527.6563 616.4594,527.5469 Q616.6469,527.4375 616.8656,527.4375 Q617.2406,527.4375 617.475,527.7031 Q617.7094,527.9531 617.7094,528.5625 L617.7094,530.0156 Q617.7094,530.625 617.475,530.8906 Q617.2406,531.1563 616.8656,531.1563 Q616.5219,531.1563 616.3188,530.9531 Q616.1156,530.7656 616.0063,530.25 Q615.9594,529.8906 615.7719,529.7031 Q615.4438,529.3281 614.8344,529.1094 Q614.225,528.8906 613.6,528.8906 Q612.8344,528.8906 612.1938,529.2188 Q611.5688,529.5469 611.0688,530.2969 Q610.5844,531.0469 610.5844,532.0781 L610.5844,533.1719 Q610.5844,534.4063 611.475,535.2344 Q612.3656,536.0469 613.9594,536.0469 Q614.8969,536.0469 615.5531,535.7969 Q615.9438,535.6406 616.3656,535.2031 Q616.6313,534.9375 616.7719,534.8594 Q616.9281,534.7813 617.1313,534.7813 Q617.4594,534.7813 617.7094,535.0469 Q617.975,535.2969 617.975,535.6406 Q617.975,535.9844 617.6313,536.3906 Q617.1313,536.9688 616.3344,537.2969 Q615.2563,537.75 613.9594,537.75 Q612.4438,537.75 611.2406,537.125 Q610.2563,536.625 609.5688,535.5625 Q608.8813,534.4844 608.8813,533.2031 L608.8813,532.0469 Q608.8813,530.7188 609.4906,529.5781 Q610.1156,528.4219 611.2094,527.8125 Q612.3031,527.1875 613.5375,527.1875 Q614.2719,527.1875 614.9125,527.3594 Q615.5688,527.5156 616.1156,527.875 Z " fill="#000000"/><text fill="#000000" font-family="sans-serif" font-size="14" lengthAdjust="spacing" textLength="46" x="629.65" y="537.7285">Vehicle</text><line style="stroke:#181818;stroke-width:0.5;" x1="589" x2="688" y1="548" y2="548"/><text fill="#000000" font-family="sans-serif" font-size="14" lengthAdjust="spacing" textLength="89" x="594" y="566.5332">-name : String</text><line style="stroke:#181818;stroke-width:0.5;" x1="589" x2="688" y1="573.6094" y2="573.6094"/><text fill="#000000" font-family="sans-serif" font-size="14" lengthAdjust="spacing" textLength="64" x="594" y="592.1426">+Vehicle()</text></g><!--class FM--><g id="elem_FM"><rect codeLine="36" fill="#F1F1F1" height="48" id="FM" rx="2.5" ry="2.5" style="stroke:#181818;stroke-width:0.5;" width="52" x="724.5" y="533.5"/><ellipse cx="739.5" cy="549.5" fill="#ADD1B2" rx="11" ry="11" style="stroke:#181818;stroke-width:1.0;"/><path d="M742.2656,545.375 Q742.4219,545.1563 742.6094,545.0469 Q742.7969,544.9375 743.0156,544.9375 Q743.3906,544.9375 743.625,545.2031 Q743.8594,545.4531 743.8594,546.0625 L743.8594,547.5156 Q743.8594,548.125 743.625,548.3906 Q743.3906,548.6563 743.0156,548.6563 Q742.6719,548.6563 742.4688,548.4531 Q742.2656,548.2656 742.1563,547.75 Q742.1094,547.3906 741.9219,547.2031 Q741.5938,546.8281 740.9844,546.6094 Q740.375,546.3906 739.75,546.3906 Q738.9844,546.3906 738.3438,546.7188 Q737.7188,547.0469 737.2188,547.7969 Q736.7344,548.5469 736.7344,549.5781 L736.7344,550.6719 Q736.7344,551.9063 737.625,552.7344 Q738.5156,553.5469 740.1094,553.5469 Q741.0469,553.5469 741.7031,553.2969 Q742.0938,553.1406 742.5156,552.7031 Q742.7813,552.4375 742.9219,552.3594 Q743.0781,552.2813 743.2813,552.2813 Q743.6094,552.2813 743.8594,552.5469 Q744.125,552.7969 744.125,553.1406 Q744.125,553.4844 743.7813,553.8906 Q743.2813,554.4688 742.4844,554.7969 Q741.4063,555.25 740.1094,555.25 Q738.5938,555.25 737.3906,554.625 Q736.4063,554.125 735.7188,553.0625 Q735.0313,551.9844 735.0313,550.7031 L735.0313,549.5469 Q735.0313,548.2188 735.6406,547.0781 Q736.2656,545.9219 737.3594,545.3125 Q738.4531,544.6875 739.6875,544.6875 Q740.4219,544.6875 741.0625,544.8594 Q741.7188,545.0156 742.2656,545.375 Z " fill="#000000"/><text fill="#000000" font-family="sans-serif" font-size="14" lengthAdjust="spacing" textLength="20" x="753.5" y="555.2285">FM</text><line style="stroke:#181818;stroke-width:0.5;" x1="725.5" x2="775.5" y1="565.5" y2="565.5"/><line style="stroke:#181818;stroke-width:0.5;" x1="725.5" x2="775.5" y1="573.5" y2="573.5"/></g><!--link RegisterVehicleCheckupUI to RegisterVehicleCheckupController--><g id="link_RegisterVehicleCheckupUI_RegisterVehicleCheckupController"><path codeLine="39" d="M206.4,57.5 C208.6,57.5 209.83,57.5 209.83,57.5 C209.83,57.5 220.84,57.5 235.67,57.5 " fill="none" id="RegisterVehicleCheckupUI-to-RegisterVehicleCheckupController" style="stroke:#181818;stroke-width:1.0;stroke-dasharray:7.0,7.0;"/><polygon fill="#181818" points="240.84,57.5,231.84,53.5,235.84,57.5,231.84,61.5,240.84,57.5" style="stroke:#181818;stroke-width:1.0;"/></g><!--link RegisterVehicleCheckupController to Repositories--><g id="link_RegisterVehicleCheckupController_Repositories"><path codeLine="40" d="M592.06,57.5 C625.14,57.5 659.23,57.5 690.73,57.5 " fill="none" id="RegisterVehicleCheckupController-to-Repositories" style="stroke:#181818;stroke-width:1.0;stroke-dasharray:7.0,7.0;"/><polygon fill="#181818" points="695.77,57.5,686.77,53.5,690.77,57.5,686.77,61.5,695.77,57.5" style="stroke:#181818;stroke-width:1.0;"/><text fill="#000000" font-family="sans-serif" font-size="13" lengthAdjust="spacing" textLength="67" x="610.5" y="50.9951">repositories</text></g><!--link Repositories to VehicleRepository--><g id="link_Repositories_VehicleRepository"><path codeLine="41" d="M781.98,108.21 C747.55,149.44 699.41,207.07 668.59,243.97 " fill="none" id="Repositories-to-VehicleRepository" style="stroke:#181818;stroke-width:1.0;"/><polygon fill="#181818" points="665.29,247.92,674.1325,243.5829,668.4979,244.0847,667.9961,238.4502,665.29,247.92" style="stroke:#181818;stroke-width:1.0;"/><text fill="#000000" font-family="sans-serif" font-size="13" lengthAdjust="spacing" textLength="7" x="663.0936" y="237.0189">1</text></g><!--link Repositories to Repositories--><g id="link_Repositories_Repositories"><path codeLine="42" d="M951.23,43.65 C971.86,45.66 986,50.27 986,57.5 C986,64.11 974.18,68.53 956.4,70.77 " fill="none" id="Repositories-to-Repositories" style="stroke:#181818;stroke-width:1.0;"/><polygon fill="#181818" points="951.23,71.35,960.6195,74.3228,956.1989,70.7931,959.7285,66.3725,951.23,71.35" style="stroke:#181818;stroke-width:1.0;"/><text fill="#000000" font-family="sans-serif" font-size="13" lengthAdjust="spacing" textLength="49" x="992" y="62.9951">instance</text></g><!--link Repositories to Vehicle--><g id="link_Repositories_Vehicle"><path codeLine="43" d="M820.57,108.07 C818.65,140.54 816.5,177 816.5,177 C816.5,177 816.5,177 816.5,455 C816.5,455 706.5,516 706.5,516 C706.5,516 701.29,519.1 693.75,523.59 " fill="none" id="Repositories-to-Vehicle" style="stroke:#181818;stroke-width:1.0;"/><polygon fill="#181818" points="689.34,526.22,699.1183,525.0435,693.6338,523.6581,695.0192,518.1735,689.34,526.22" style="stroke:#181818;stroke-width:1.0;"/><text fill="#000000" font-family="sans-serif" font-size="13" lengthAdjust="spacing" textLength="7" x="812.706" y="129.4706">1</text><text fill="#000000" font-family="sans-serif" font-size="13" lengthAdjust="spacing" textLength="5" x="696.8409" y="518.2007">*</text></g><!--link VehicleRepository to Vehicle--><g id="link_VehicleRepository_Vehicle"><path codeLine="45" d="M638.5,314.03 C638.5,362.53 638.5,454.84 638.5,510.51 " fill="none" id="VehicleRepository-to-Vehicle" style="stroke:#181818;stroke-width:1.0;"/><polygon fill="#181818" points="638.5,515.78,642.5,506.78,638.5,510.78,634.5,506.78,638.5,515.78" style="stroke:#181818;stroke-width:1.0;"/><text fill="#000000" font-family="sans-serif" font-size="13" lengthAdjust="spacing" textLength="5" x="633.0859" y="505.0512">*</text></g><!--reverse link Vehicle to FM--><g id="link_Vehicle_FM"><path codeLine="46" d="M694.45,557.5 C703.8,557.5 713.17,557.5 713.17,557.5 C713.17,557.5 717.99,557.5 724.17,557.5 " fill="none" id="Vehicle-backto-FM" style="stroke:#181818;stroke-width:1.0;"/><polygon fill="#181818" points="689.31,557.5,698.31,561.5,694.31,557.5,698.31,553.5,689.31,557.5" style="stroke:#181818;stroke-width:1.0;"/><text fill="#000000" font-family="sans-serif" font-size="13" lengthAdjust="spacing" textLength="5" x="697.1399" y="553.8299">*</text><text fill="#000000" font-family="sans-serif" font-size="13" lengthAdjust="spacing" textLength="7" x="709.5261" y="552.9902">1</text></g><!--link RegisterVehicleCheckupController to Vehicle--><g id="link_RegisterVehicleCheckupController_Vehicle"><path codeLine="47" d="M431.64,99.28 C444.37,133.56 460.5,177 460.5,177 C460.5,177 460.5,177 460.5,455 C460.5,455 531.31,495.38 583.6,525.2 " fill="none" id="RegisterVehicleCheckupController-to-Vehicle" style="stroke:#181818;stroke-width:1.0;stroke-dasharray:7.0,7.0;"/><polygon fill="#181818" points="587.97,527.69,582.1263,519.7621,583.6244,525.217,578.1695,526.7151,587.97,527.69" style="stroke:#181818;stroke-width:1.0;"/><text fill="#000000" font-family="sans-serif" font-size="13" lengthAdjust="spacing" textLength="43" x="461.5" y="358.4951">Vehicle</text></g><!--link RegisterVehicleCheckupController to VehicleRepository--><g id="link_RegisterVehicleCheckupController_VehicleRepository"><path codeLine="48" d="M457.22,99.13 C498.81,140.63 562.77,204.44 602.55,244.13 " fill="none" id="RegisterVehicleCheckupController-to-VehicleRepository" style="stroke:#181818;stroke-width:1.0;stroke-dasharray:7.0,7.0;"/><polygon fill="#181818" points="606.32,247.89,602.7845,238.6976,602.7845,244.3545,597.1276,244.3545,606.32,247.89" style="stroke:#181818;stroke-width:1.0;"/><text fill="#000000" font-family="sans-serif" font-size="13" lengthAdjust="spacing" textLength="105" x="545.5" y="183.4951">VehicleRepository</text><text fill="#000000" font-family="sans-serif" font-size="13" lengthAdjust="spacing" textLength="7" x="591.961" y="236.9827">1</text></g><!--SRC=[bP8nRy8m48Lt_ueJ2qcZHEtA4Ab2Gc9W0RMxQux4mjYHVRHA4V-z9WII45BQRFPzx_pkNiPkAtN1BT_1pcWZScjs26Jto9fAmSMMPxYYKY5O5CHrfjg0o_dQV4cTmOOhrwuegP7A0g4mgZmTsFXEqLWohAKIYZltIcJbnvvmBenUoM-4PyR62ZS4PC3AB2TOovCTQJHZbGQMc4b7QDynbqBXD4UntHTlymCxij-PgT5aZL9e3mm0egb5JZZ417LXYOLnaemjmqfbx_OEFiz7pnmR5xLIeeFgIOWxbq4uwPmh988CQQwTZq1W4C8GqhFNPvk5zE3QJmINSOAGNOrVyDgpvlw7cS3AXwMpiwm6sgBPeafWA1v8KdYO2tj8G98aDkskTkA7Q4tTgSLndCBePTJVm0tNwodh2BhSgLNLykdQah7-Tc-HsUAiL3VtVvhNV-ar4-_iN-A1wPishOty0000]--></g></svg>