<?xml version="1.0" encoding="UTF-8" standalone="no"?><svg xmlns="http://www.w3.org/2000/svg" xmlns:xlink="http://www.w3.org/1999/xlink" contentStyleType="text/css" height="1083px" preserveAspectRatio="none" style="width:1457px;height:1083px;background:#FFFFFF;" version="1.1" viewBox="0 0 1457 1083" width="1457px" zoomAndPan="magnify"><defs/><g><rect fill="#FFFFFF" height="899.3594" style="stroke:#181818;stroke-width:1.0;" width="10" x="74" y="92.6094"/><rect fill="#FFFFFF" height="332.125" style="stroke:#181818;stroke-width:1.0;" width="10" x="325" y="114.9609"/><rect fill="#FFFFFF" height="46.7031" style="stroke:#181818;stroke-width:1.0;" width="10" x="325" y="477.4375"/><rect fill="#FFFFFF" height="428.4766" style="stroke:#181818;stroke-width:1.0;" width="10" x="325" y="554.4922"/><rect fill="#FFFFFF" height="212.4609" style="stroke:#181818;stroke-width:1.0;" width="10" x="664" y="187.9219"/><rect fill="#FFFFFF" height="367.7734" style="stroke:#181818;stroke-width:1.0;" width="10" x="664" y="584.8438"/><rect fill="#FFFFFF" height="30.3516" style="stroke:#181818;stroke-width:1.0;" width="10" x="853.5" y="339.6797"/><rect fill="#FFFFFF" height="30.3516" style="stroke:#181818;stroke-width:1.0;" width="10" x="976" y="218.2734"/><rect fill="#FFFFFF" height="30.3516" style="stroke:#181818;stroke-width:1.0;" width="10" x="1083" y="278.9766"/><rect fill="#FFFFFF" height="30.3516" style="stroke:#181818;stroke-width:1.0;" width="10" x="1083" y="615.1953"/><rect fill="#FFFFFF" height="246.3672" style="stroke:#181818;stroke-width:1.0;" width="10" x="1210.5" y="675.8984"/><rect fill="#FFFFFF" height="128.0547" style="stroke:#181818;stroke-width:1.0;" width="10" x="1215.5" y="756.8594"/><rect fill="#FFFFFF" height="41.3516" style="stroke:#181818;stroke-width:1.0;" width="10" x="1220.5" y="800.2109"/><line style="stroke:#181818;stroke-width:0.5;stroke-dasharray:5.0,5.0;" x1="79" x2="79" y1="82.6094" y2="1000.9688"/><line style="stroke:#181818;stroke-width:0.5;stroke-dasharray:5.0,5.0;" x1="329.5" x2="329.5" y1="82.6094" y2="1000.9688"/><line style="stroke:#181818;stroke-width:0.5;stroke-dasharray:5.0,5.0;" x1="668.5" x2="668.5" y1="154.2656" y2="1000.9688"/><line style="stroke:#181818;stroke-width:0.5;stroke-dasharray:5.0,5.0;" x1="858.5" x2="858.5" y1="82.6094" y2="1000.9688"/><line style="stroke:#181818;stroke-width:0.5;stroke-dasharray:5.0,5.0;" x1="980.5" x2="980.5" y1="82.6094" y2="1000.9688"/><line style="stroke:#181818;stroke-width:0.5;stroke-dasharray:5.0,5.0;" x1="1087.5" x2="1087.5" y1="82.6094" y2="1000.9688"/><line style="stroke:#181818;stroke-width:0.5;stroke-dasharray:5.0,5.0;" x1="1215.5" x2="1215.5" y1="82.6094" y2="1000.9688"/><line style="stroke:#181818;stroke-width:0.5;stroke-dasharray:5.0,5.0;" x1="1415" x2="1415" y1="715.2031" y2="1000.9688"/><text fill="#000000" font-family="sans-serif" font-size="14" lengthAdjust="spacing" textLength="142" x="5" y="79.5332">Vehicle Fleet Manager</text><ellipse cx="79" cy="13.5" fill="#E3E3E3" rx="8" ry="8" style="stroke:#181818;stroke-width:0.5;"/><path d="M79,21.5 L79,48.5 M66,29.5 L92,29.5 M79,48.5 L66,63.5 M79,48.5 L92,63.5 " fill="none" style="stroke:#181818;stroke-width:0.5;"/><text fill="#000000" font-family="sans-serif" font-size="14" lengthAdjust="spacing" textLength="142" x="5" y="1014.502">Vehicle Fleet Manager</text><ellipse cx="79" cy="1026.0781" fill="#E3E3E3" rx="8" ry="8" style="stroke:#181818;stroke-width:0.5;"/><path d="M79,1034.0781 L79,1061.0781 M66,1042.0781 L92,1042.0781 M79,1061.0781 L66,1076.0781 M79,1061.0781 L92,1076.0781 " fill="none" style="stroke:#181818;stroke-width:0.5;"/><rect fill="#E3E3E3" height="31.6094" rx="2.5" ry="2.5" style="stroke:#181818;stroke-width:0.5;" width="181" x="239.5" y="50"/><text fill="#000000" font-family="sans-serif" font-size="14" lengthAdjust="spacing" textLength="167" x="246.5" y="71.5332">RegisterVehicleCheckupUI</text><rect fill="#E3E3E3" height="31.6094" rx="2.5" ry="2.5" style="stroke:#181818;stroke-width:0.5;" width="181" x="239.5" y="999.9688"/><text fill="#000000" font-family="sans-serif" font-size="14" lengthAdjust="spacing" textLength="167" x="246.5" y="1021.502">RegisterVehicleCheckupUI</text><rect fill="#E3E3E3" height="31.6094" rx="2.5" ry="2.5" style="stroke:#181818;stroke-width:0.5;" width="231" x="553.5" y="999.9688"/><text fill="#000000" font-family="sans-serif" font-size="14" lengthAdjust="spacing" textLength="217" x="560.5" y="1021.502">RegisterVehicleCheckupController</text><rect fill="#E3E3E3" height="31.6094" rx="2.5" ry="2.5" style="stroke:#181818;stroke-width:0.5;" width="128" x="794.5" y="50"/><text fill="#000000" font-family="sans-serif" font-size="14" lengthAdjust="spacing" textLength="114" x="801.5" y="71.5332">VehicleRepository</text><rect fill="#E3E3E3" height="31.6094" rx="2.5" ry="2.5" style="stroke:#181818;stroke-width:0.5;" width="128" x="794.5" y="999.9688"/><text fill="#000000" font-family="sans-serif" font-size="14" lengthAdjust="spacing" textLength="114" x="801.5" y="1021.502">VehicleRepository</text><rect fill="#E3E3E3" height="31.6094" rx="2.5" ry="2.5" style="stroke:#181818;stroke-width:0.5;" width="97" x="932.5" y="50"/><text fill="#000000" font-family="sans-serif" font-size="14" lengthAdjust="spacing" textLength="83" x="939.5" y="71.5332">:Repositories</text><rect fill="#E3E3E3" height="31.6094" rx="2.5" ry="2.5" style="stroke:#181818;stroke-width:0.5;" width="97" x="932.5" y="999.9688"/><text fill="#000000" font-family="sans-serif" font-size="14" lengthAdjust="spacing" textLength="83" x="939.5" y="1021.502">:Repositories</text><rect fill="#E3E3E3" height="49.2188" rx="2.5" ry="2.5" style="stroke:#181818;stroke-width:0.5;" width="97" x="1039.5" y="32.3906"/><text fill="#000000" font-family="sans-serif" font-size="14" lengthAdjust="spacing" textLength="74" x="1051" y="53.9238">repositories</text><text fill="#000000" font-family="sans-serif" font-size="14" lengthAdjust="spacing" textLength="83" x="1046.5" y="71.5332">:Repositories</text><rect fill="#E3E3E3" height="49.2188" rx="2.5" ry="2.5" style="stroke:#181818;stroke-width:0.5;" width="97" x="1039.5" y="999.9688"/><text fill="#000000" font-family="sans-serif" font-size="14" lengthAdjust="spacing" textLength="74" x="1051" y="1021.502">repositories</text><text fill="#000000" font-family="sans-serif" font-size="14" lengthAdjust="spacing" textLength="83" x="1046.5" y="1039.1113">:Repositories</text><rect fill="#E3E3E3" height="31.6094" rx="2.5" ry="2.5" style="stroke:#181818;stroke-width:0.5;" width="138" x="1146.5" y="50"/><text fill="#000000" font-family="sans-serif" font-size="14" lengthAdjust="spacing" textLength="124" x="1153.5" y="71.5332">CheckupRepository</text><rect fill="#E3E3E3" height="31.6094" rx="2.5" ry="2.5" style="stroke:#181818;stroke-width:0.5;" width="138" x="1146.5" y="999.9688"/><text fill="#000000" font-family="sans-serif" font-size="14" lengthAdjust="spacing" textLength="124" x="1153.5" y="1021.502">CheckupRepository</text><rect fill="#E3E3E3" height="31.6094" rx="2.5" ry="2.5" style="stroke:#181818;stroke-width:0.5;" width="71" x="1380" y="999.9688"/><text fill="#000000" font-family="sans-serif" font-size="14" lengthAdjust="spacing" textLength="57" x="1387" y="1021.502">CheckUp</text><rect fill="#FFFFFF" height="899.3594" style="stroke:#181818;stroke-width:1.0;" width="10" x="74" y="92.6094"/><rect fill="#FFFFFF" height="332.125" style="stroke:#181818;stroke-width:1.0;" width="10" x="325" y="114.9609"/><rect fill="#FFFFFF" height="46.7031" style="stroke:#181818;stroke-width:1.0;" width="10" x="325" y="477.4375"/><rect fill="#FFFFFF" height="428.4766" style="stroke:#181818;stroke-width:1.0;" width="10" x="325" y="554.4922"/><rect fill="#FFFFFF" height="212.4609" style="stroke:#181818;stroke-width:1.0;" width="10" x="664" y="187.9219"/><rect fill="#FFFFFF" height="367.7734" style="stroke:#181818;stroke-width:1.0;" width="10" x="664" y="584.8438"/><rect fill="#FFFFFF" height="30.3516" style="stroke:#181818;stroke-width:1.0;" width="10" x="853.5" y="339.6797"/><rect fill="#FFFFFF" height="30.3516" style="stroke:#181818;stroke-width:1.0;" width="10" x="976" y="218.2734"/><rect fill="#FFFFFF" height="30.3516" style="stroke:#181818;stroke-width:1.0;" width="10" x="1083" y="278.9766"/><rect fill="#FFFFFF" height="30.3516" style="stroke:#181818;stroke-width:1.0;" width="10" x="1083" y="615.1953"/><rect fill="#FFFFFF" height="246.3672" style="stroke:#181818;stroke-width:1.0;" width="10" x="1210.5" y="675.8984"/><rect fill="#FFFFFF" height="128.0547" style="stroke:#181818;stroke-width:1.0;" width="10" x="1215.5" y="756.8594"/><rect fill="#FFFFFF" height="41.3516" style="stroke:#181818;stroke-width:1.0;" width="10" x="1220.5" y="800.2109"/><polygon fill="#181818" points="313,110.9609,323,114.9609,313,118.9609,317,114.9609" style="stroke:#181818;stroke-width:1.0;"/><line style="stroke:#181818;stroke-width:1.0;" x1="84" x2="319" y1="114.9609" y2="114.9609"/><text fill="#000000" font-family="sans-serif" font-size="13" font-weight="bold" lengthAdjust="spacing" textLength="7" x="91" y="110.1045">1</text><text fill="#000000" font-family="sans-serif" font-size="13" lengthAdjust="spacing" textLength="185" x="102" y="110.1045">begins vehicle check-up registry</text><polygon fill="#181818" points="541.5,141.3125,551.5,145.3125,541.5,149.3125,545.5,145.3125" style="stroke:#181818;stroke-width:1.0;"/><line style="stroke:#181818;stroke-width:1.0;" x1="335" x2="547.5" y1="145.3125" y2="145.3125"/><text fill="#000000" font-family="sans-serif" font-size="13" font-weight="bold" lengthAdjust="spacing" textLength="7" x="342" y="140.4561">2</text><text fill="#000000" font-family="sans-serif" font-size="13" lengthAdjust="spacing" textLength="36" x="353" y="140.4561">create</text><rect fill="#E3E3E3" height="31.6094" rx="2.5" ry="2.5" style="stroke:#181818;stroke-width:0.5;" width="231" x="553.5" y="122.9609"/><text fill="#000000" font-family="sans-serif" font-size="14" lengthAdjust="spacing" textLength="217" x="560.5" y="144.4941">RegisterVehicleCheckupController</text><polygon fill="#181818" points="652,183.9219,662,187.9219,652,191.9219,656,187.9219" style="stroke:#181818;stroke-width:1.0;"/><line style="stroke:#181818;stroke-width:1.0;" x1="335" x2="658" y1="187.9219" y2="187.9219"/><text fill="#000000" font-family="sans-serif" font-size="13" font-weight="bold" lengthAdjust="spacing" textLength="7" x="342" y="183.0654">3</text><text fill="#000000" font-family="sans-serif" font-size="13" lengthAdjust="spacing" textLength="69" x="353" y="183.0654">getVehicle()</text><polygon fill="#181818" points="964,214.2734,974,218.2734,964,222.2734,968,218.2734" style="stroke:#181818;stroke-width:1.0;"/><line style="stroke:#181818;stroke-width:1.0;" x1="674" x2="970" y1="218.2734" y2="218.2734"/><text fill="#000000" font-family="sans-serif" font-size="13" font-weight="bold" lengthAdjust="spacing" textLength="7" x="681" y="213.417">4</text><text fill="#000000" font-family="sans-serif" font-size="13" lengthAdjust="spacing" textLength="75" x="692" y="213.417">getInstance()</text><polygon fill="#181818" points="685,244.625,675,248.625,685,252.625,681,248.625" style="stroke:#181818;stroke-width:1.0;"/><line style="stroke:#181818;stroke-width:1.0;stroke-dasharray:2.0,2.0;" x1="679" x2="980" y1="248.625" y2="248.625"/><text fill="#000000" font-family="sans-serif" font-size="13" font-weight="bold" lengthAdjust="spacing" textLength="7" x="691" y="243.7686">5</text><text fill="#000000" font-family="sans-serif" font-size="13" lengthAdjust="spacing" textLength="67" x="702" y="243.7686">repositories</text><polygon fill="#181818" points="1071,274.9766,1081,278.9766,1071,282.9766,1075,278.9766" style="stroke:#181818;stroke-width:1.0;"/><line style="stroke:#181818;stroke-width:1.0;" x1="674" x2="1077" y1="278.9766" y2="278.9766"/><text fill="#000000" font-family="sans-serif" font-size="13" font-weight="bold" lengthAdjust="spacing" textLength="7" x="681" y="274.1201">6</text><text fill="#000000" font-family="sans-serif" font-size="13" lengthAdjust="spacing" textLength="131" x="692" y="274.1201">getVehicleRepository()</text><polygon fill="#181818" points="685,305.3281,675,309.3281,685,313.3281,681,309.3281" style="stroke:#181818;stroke-width:1.0;"/><line style="stroke:#181818;stroke-width:1.0;stroke-dasharray:2.0,2.0;" x1="679" x2="1087" y1="309.3281" y2="309.3281"/><text fill="#000000" font-family="sans-serif" font-size="13" font-weight="bold" lengthAdjust="spacing" textLength="7" x="691" y="304.4717">7</text><text fill="#000000" font-family="sans-serif" font-size="13" lengthAdjust="spacing" textLength="105" x="702" y="304.4717">VehicleRepository</text><polygon fill="#181818" points="841.5,335.6797,851.5,339.6797,841.5,343.6797,845.5,339.6797" style="stroke:#181818;stroke-width:1.0;"/><line style="stroke:#181818;stroke-width:1.0;" x1="674" x2="847.5" y1="339.6797" y2="339.6797"/><text fill="#000000" font-family="sans-serif" font-size="13" font-weight="bold" lengthAdjust="spacing" textLength="7" x="681" y="334.8232">8</text><text fill="#000000" font-family="sans-serif" font-size="13" lengthAdjust="spacing" textLength="89" x="692" y="334.8232">getVehiclesList</text><polygon fill="#181818" points="685,366.0313,675,370.0313,685,374.0313,681,370.0313" style="stroke:#181818;stroke-width:1.0;"/><line style="stroke:#181818;stroke-width:1.0;stroke-dasharray:2.0,2.0;" x1="679" x2="857.5" y1="370.0313" y2="370.0313"/><text fill="#000000" font-family="sans-serif" font-size="13" font-weight="bold" lengthAdjust="spacing" textLength="7" x="691" y="365.1748">9</text><text fill="#000000" font-family="sans-serif" font-size="13" lengthAdjust="spacing" textLength="67" x="702" y="365.1748">vehiclesList</text><polygon fill="#181818" points="346,396.3828,336,400.3828,346,404.3828,342,400.3828" style="stroke:#181818;stroke-width:1.0;"/><line style="stroke:#181818;stroke-width:1.0;stroke-dasharray:2.0,2.0;" x1="340" x2="668" y1="400.3828" y2="400.3828"/><text fill="#000000" font-family="sans-serif" font-size="13" font-weight="bold" lengthAdjust="spacing" textLength="14" x="352" y="395.5264">10</text><text fill="#000000" font-family="sans-serif" font-size="13" lengthAdjust="spacing" textLength="67" x="370" y="395.5264">vehiclesList</text><polygon fill="#181818" points="95,443.0859,85,447.0859,95,451.0859,91,447.0859" style="stroke:#181818;stroke-width:1.0;"/><line style="stroke:#181818;stroke-width:1.0;stroke-dasharray:2.0,2.0;" x1="89" x2="329" y1="447.0859" y2="447.0859"/><text fill="#000000" font-family="sans-serif" font-size="13" font-weight="bold" lengthAdjust="spacing" textLength="14" x="101" y="434.0537">11</text><text fill="#000000" font-family="sans-serif" font-size="13" lengthAdjust="spacing" textLength="101" x="119" y="425.8779">shows vehicle list</text><text fill="#000000" font-family="sans-serif" font-size="13" lengthAdjust="spacing" textLength="115" x="123" y="442.2295">to register check-up</text><polygon fill="#181818" points="313,473.4375,323,477.4375,313,481.4375,317,477.4375" style="stroke:#181818;stroke-width:1.0;"/><line style="stroke:#181818;stroke-width:1.0;" x1="84" x2="319" y1="477.4375" y2="477.4375"/><text fill="#000000" font-family="sans-serif" font-size="13" font-weight="bold" lengthAdjust="spacing" textLength="14" x="91" y="472.5811">12</text><text fill="#000000" font-family="sans-serif" font-size="13" lengthAdjust="spacing" textLength="204" x="109" y="472.5811">choose vehicle to register check-up</text><polygon fill="#181818" points="95,520.1406,85,524.1406,95,528.1406,91,524.1406" style="stroke:#181818;stroke-width:1.0;"/><line style="stroke:#181818;stroke-width:1.0;stroke-dasharray:2.0,2.0;" x1="89" x2="329" y1="524.1406" y2="524.1406"/><text fill="#000000" font-family="sans-serif" font-size="13" font-weight="bold" lengthAdjust="spacing" textLength="14" x="101" y="511.1084">13</text><text fill="#000000" font-family="sans-serif" font-size="13" lengthAdjust="spacing" textLength="116" x="119" y="502.9326">requests data (date,</text><text fill="#000000" font-family="sans-serif" font-size="13" lengthAdjust="spacing" textLength="66" x="119" y="519.2842">current km)</text><polygon fill="#181818" points="313,550.4922,323,554.4922,313,558.4922,317,554.4922" style="stroke:#181818;stroke-width:1.0;"/><line style="stroke:#181818;stroke-width:1.0;" x1="84" x2="319" y1="554.4922" y2="554.4922"/><text fill="#000000" font-family="sans-serif" font-size="13" font-weight="bold" lengthAdjust="spacing" textLength="14" x="91" y="549.6357">14</text><text fill="#000000" font-family="sans-serif" font-size="13" lengthAdjust="spacing" textLength="125" x="109" y="549.6357">inputs requested data</text><polygon fill="#181818" points="652,580.8438,662,584.8438,652,588.8438,656,584.8438" style="stroke:#181818;stroke-width:1.0;"/><line style="stroke:#181818;stroke-width:1.0;" x1="335" x2="658" y1="584.8438" y2="584.8438"/><text fill="#000000" font-family="sans-serif" font-size="13" font-weight="bold" lengthAdjust="spacing" textLength="14" x="342" y="579.9873">15</text><text fill="#000000" font-family="sans-serif" font-size="13" lengthAdjust="spacing" textLength="292" x="360" y="579.9873">RegisterVehicleCheckup(vehicle, date, current km)</text><polygon fill="#181818" points="1071,611.1953,1081,615.1953,1071,619.1953,1075,615.1953" style="stroke:#181818;stroke-width:1.0;"/><line style="stroke:#181818;stroke-width:1.0;" x1="674" x2="1077" y1="615.1953" y2="615.1953"/><text fill="#000000" font-family="sans-serif" font-size="13" font-weight="bold" lengthAdjust="spacing" textLength="14" x="681" y="610.3389">16</text><text fill="#000000" font-family="sans-serif" font-size="13" lengthAdjust="spacing" textLength="139" x="699" y="610.3389">getCheckupRepository()</text><polygon fill="#181818" points="685,641.5469,675,645.5469,685,649.5469,681,645.5469" style="stroke:#181818;stroke-width:1.0;"/><line style="stroke:#181818;stroke-width:1.0;stroke-dasharray:2.0,2.0;" x1="679" x2="1087" y1="645.5469" y2="645.5469"/><text fill="#000000" font-family="sans-serif" font-size="13" font-weight="bold" lengthAdjust="spacing" textLength="14" x="691" y="640.6904">17</text><text fill="#000000" font-family="sans-serif" font-size="13" lengthAdjust="spacing" textLength="113" x="709" y="640.6904">CheckupRepository</text><polygon fill="#181818" points="1198.5,671.8984,1208.5,675.8984,1198.5,679.8984,1202.5,675.8984" style="stroke:#181818;stroke-width:1.0;"/><line style="stroke:#181818;stroke-width:1.0;" x1="674" x2="1204.5" y1="675.8984" y2="675.8984"/><text fill="#000000" font-family="sans-serif" font-size="13" font-weight="bold" lengthAdjust="spacing" textLength="14" x="681" y="671.042">18</text><text fill="#000000" font-family="sans-serif" font-size="13" lengthAdjust="spacing" textLength="292" x="699" y="671.042">RegisterVehicleCheckup(vehicle, date, current km)</text><polygon fill="#181818" points="1368,702.25,1378,706.25,1368,710.25,1372,706.25" style="stroke:#181818;stroke-width:1.0;"/><line style="stroke:#181818;stroke-width:1.0;" x1="1220.5" x2="1374" y1="706.25" y2="706.25"/><text fill="#000000" font-family="sans-serif" font-size="13" font-weight="bold" lengthAdjust="spacing" textLength="14" x="1227.5" y="701.3936">19</text><text fill="#000000" font-family="sans-serif" font-size="13" lengthAdjust="spacing" textLength="38" x="1245.5" y="701.3936">Create</text><rect fill="#E3E3E3" height="31.6094" rx="2.5" ry="2.5" style="stroke:#181818;stroke-width:0.5;" width="71" x="1380" y="683.8984"/><text fill="#000000" font-family="sans-serif" font-size="14" lengthAdjust="spacing" textLength="57" x="1387" y="705.4316">CheckUp</text><line style="stroke:#181818;stroke-width:1.0;" x1="1220.5" x2="1267.5" y1="743.8594" y2="743.8594"/><line style="stroke:#181818;stroke-width:1.0;" x1="1267.5" x2="1267.5" y1="743.8594" y2="756.8594"/><line style="stroke:#181818;stroke-width:1.0;" x1="1226.5" x2="1267.5" y1="756.8594" y2="756.8594"/><polygon fill="#181818" points="1236.5,752.8594,1226.5,756.8594,1236.5,760.8594,1232.5,756.8594" style="stroke:#181818;stroke-width:1.0;"/><text fill="#000000" font-family="sans-serif" font-size="13" font-weight="bold" lengthAdjust="spacing" textLength="14" x="1232.5" y="739.0029">20</text><text fill="#000000" font-family="sans-serif" font-size="13" lengthAdjust="spacing" textLength="133" x="1250.5" y="739.0029">addCheckUp(checkUp)</text><line style="stroke:#181818;stroke-width:1.0;" x1="1225.5" x2="1272.5" y1="787.2109" y2="787.2109"/><line style="stroke:#181818;stroke-width:1.0;" x1="1272.5" x2="1272.5" y1="787.2109" y2="800.2109"/><line style="stroke:#181818;stroke-width:1.0;" x1="1231.5" x2="1272.5" y1="800.2109" y2="800.2109"/><polygon fill="#181818" points="1241.5,796.2109,1231.5,800.2109,1241.5,804.2109,1237.5,800.2109" style="stroke:#181818;stroke-width:1.0;"/><text fill="#000000" font-family="sans-serif" font-size="13" font-weight="bold" lengthAdjust="spacing" textLength="14" x="1237.5" y="782.3545">21</text><text fill="#000000" font-family="sans-serif" font-size="13" lengthAdjust="spacing" textLength="153" x="1255.5" y="782.3545">validateCheckup(checkUp)</text><line style="stroke:#181818;stroke-width:1.0;stroke-dasharray:2.0,2.0;" x1="1230.5" x2="1272.5" y1="840.5625" y2="840.5625"/><line style="stroke:#181818;stroke-width:1.0;stroke-dasharray:2.0,2.0;" x1="1272.5" x2="1272.5" y1="840.5625" y2="853.5625"/><line style="stroke:#181818;stroke-width:1.0;stroke-dasharray:2.0,2.0;" x1="1225.5" x2="1272.5" y1="853.5625" y2="853.5625"/><polygon fill="#181818" points="1235.5,849.5625,1225.5,853.5625,1235.5,857.5625,1231.5,853.5625" style="stroke:#181818;stroke-width:1.0;"/><text fill="#000000" font-family="sans-serif" font-size="13" font-weight="bold" lengthAdjust="spacing" textLength="14" x="1237.5" y="835.7061">22</text><text fill="#000000" font-family="sans-serif" font-size="13" lengthAdjust="spacing" textLength="4" x="1255.5" y="835.7061"> </text><line style="stroke:#181818;stroke-width:1.0;stroke-dasharray:2.0,2.0;" x1="1225.5" x2="1267.5" y1="883.9141" y2="883.9141"/><line style="stroke:#181818;stroke-width:1.0;stroke-dasharray:2.0,2.0;" x1="1267.5" x2="1267.5" y1="883.9141" y2="896.9141"/><line style="stroke:#181818;stroke-width:1.0;stroke-dasharray:2.0,2.0;" x1="1220.5" x2="1267.5" y1="896.9141" y2="896.9141"/><polygon fill="#181818" points="1230.5,892.9141,1220.5,896.9141,1230.5,900.9141,1226.5,896.9141" style="stroke:#181818;stroke-width:1.0;"/><text fill="#000000" font-family="sans-serif" font-size="13" font-weight="bold" lengthAdjust="spacing" textLength="14" x="1232.5" y="879.0576">23</text><text fill="#000000" font-family="sans-serif" font-size="13" lengthAdjust="spacing" textLength="4" x="1250.5" y="879.0576"> </text><polygon fill="#181818" points="685,918.2656,675,922.2656,685,926.2656,681,922.2656" style="stroke:#181818;stroke-width:1.0;"/><line style="stroke:#181818;stroke-width:1.0;stroke-dasharray:2.0,2.0;" x1="679" x2="1214.5" y1="922.2656" y2="922.2656"/><text fill="#000000" font-family="sans-serif" font-size="13" font-weight="bold" lengthAdjust="spacing" textLength="14" x="691" y="917.4092">24</text><text fill="#000000" font-family="sans-serif" font-size="13" lengthAdjust="spacing" textLength="53" x="709" y="917.4092">CheckUp</text><polygon fill="#181818" points="346,948.6172,336,952.6172,346,956.6172,342,952.6172" style="stroke:#181818;stroke-width:1.0;"/><line style="stroke:#181818;stroke-width:1.0;stroke-dasharray:2.0,2.0;" x1="340" x2="668" y1="952.6172" y2="952.6172"/><text fill="#000000" font-family="sans-serif" font-size="13" font-weight="bold" lengthAdjust="spacing" textLength="14" x="352" y="947.7607">25</text><text fill="#000000" font-family="sans-serif" font-size="13" lengthAdjust="spacing" textLength="53" x="370" y="947.7607">CheckUp</text><polygon fill="#181818" points="95,978.9688,85,982.9688,95,986.9688,91,982.9688" style="stroke:#181818;stroke-width:1.0;"/><line style="stroke:#181818;stroke-width:1.0;stroke-dasharray:2.0,2.0;" x1="89" x2="329" y1="982.9688" y2="982.9688"/><text fill="#000000" font-family="sans-serif" font-size="13" font-weight="bold" lengthAdjust="spacing" textLength="14" x="101" y="978.1123">26</text><text fill="#000000" font-family="sans-serif" font-size="13" lengthAdjust="spacing" textLength="158" x="119" y="978.1123">displays operation success</text><!--SRC=[hPNFRk8m4CRlVefHBsLNy08zLAfO8LKgqYejd7fndO5O13jhEtHv-nqx3kIFOTbLSsXHFFERpnD_OxkJgkA6xs6lbHQ5qNi4PsfazhHISR7ZMtnrnnB1e71SRSjkW2ruhZ-bsiA6bnOPuxNJgjv_e67ilf0vmaPhzw5_CowSDd2tna8AeYrAH0TBheXlxe1RM2mPGPqKikBAmLs6MsaTcfWnBr3iwchr789NpxS4pxLoHfTbh31_orxwQJ4ymqfRIVgE8MwTzQCUJkiIROWu9xnAtnBQT3_5T3BUrHZmy-NfhPyH9G-ap5SPOxvtyi0T-XunYCzY2RD7QWGym0VjNbaunDuAZvhL5NqotnLpF2UTIDH0TW-TXq0puZtzM1BGuAyQhREGSyTXOd231fN0AUHeXP6LarfD0QJQQBFd9Roh_ef3KIWfQANtEgyDRtu9RTqtrXLmBmnwPU4hiQ6qn_3- -tSIryHT2g60BRhuOIVz4gVTDpNw2Fy4084ItpTWdvKb3uWXjyTEdOrHT28ejDyByEq_7vTHQex_LghTapzotTwSaw_j9XpKqR9_sz4x8buJdIPwqEnndNKLsXSwlPUbaKr7Y-kCL3MY3jSW7JqUSw5fhRykeZgOzB4bmi8RoXRwyspGaZZa6AUZGz6SFCiIQE_LXEj5eRN54_Gg3P83OA2qaJhmFlt5wRiIjQ49u62t7n-MWTQ4LBelQY96DEQ1pMxIbhPuUjvFOY-c45J3LT5_7GPZvuncTC8vD_bdQA0HE8rDkQWLIJV5r_Ibtvjm_mo2V2bVqSDNLPZ9ypYJav6DD9xdCMCYcl_3ulsg8r8BEl1I-dsqc_i_MjDzMhhOug_DcyN110zjuzY5ivF09OTJQwuMTnjjDAQY_Tj9bKjRbVneGLVONDPWQo7GsjiAUE_-0G00]--></g></svg>