<?xml version="1.0" encoding="UTF-8" standalone="no"?><svg xmlns="http://www.w3.org/2000/svg" xmlns:xlink="http://www.w3.org/1999/xlink" contentStyleType="text/css" height="682px" preserveAspectRatio="none" style="width:429px;height:682px;background:#FFFFFF;" version="1.1" viewBox="0 0 429 682" width="429px" zoomAndPan="magnify"><defs/><g><!--entity FM--><g id="elem_FM"><ellipse cx="40" cy="514.5" fill="#F1F1F1" rx="8" ry="8" style="stroke:#181818;stroke-width:0.5;"/><path d="M40,522.5 L40,549.5 M27,530.5 L53,530.5 M40,549.5 L27,564.5 M40,549.5 L53,564.5 " fill="none" style="stroke:#181818;stroke-width:0.5;"/><text fill="#000000" font-family="sans-serif" font-size="14" lengthAdjust="spacing" textLength="32" x="12" y="580.5332">Fleet</text><text fill="#000000" font-family="sans-serif" font-size="14" lengthAdjust="spacing" textLength="56" x="12" y="598.1426">Manager</text></g><!--entity HRM--><g id="elem_HRM"><ellipse cx="40" cy="145.5" fill="#F1F1F1" rx="8" ry="8" style="stroke:#181818;stroke-width:0.5;"/><path d="M40,153.5 L40,180.5 M27,161.5 L53,161.5 M40,180.5 L27,195.5 M40,180.5 L53,195.5 " fill="none" style="stroke:#181818;stroke-width:0.5;"/><text fill="#000000" font-family="sans-serif" font-size="14" lengthAdjust="spacing" textLength="44" x="6" y="211.5332">Human</text><text fill="#000000" font-family="sans-serif" font-size="14" lengthAdjust="spacing" textLength="68" x="6" y="229.1426">Resources</text><text fill="#000000" font-family="sans-serif" font-size="14" lengthAdjust="spacing" textLength="56" x="6" y="246.752">Manager</text></g><g id="elem_UC1"><ellipse cx="279.035" cy="26.307" fill="#F1F1F1" rx="89.535" ry="20.307" style="stroke:#181818;stroke-width:0.5;"/><text fill="#000000" font-family="sans-serif" font-size="14" lengthAdjust="spacing" textLength="137" x="210.535" y="30.0355">UC01 - Register Skills</text></g><g id="elem_UC2"><ellipse cx="278.8945" cy="104.3789" fill="#F1F1F1" rx="97.3945" ry="21.8789" style="stroke:#181818;stroke-width:0.5;"/><text fill="#000000" font-family="sans-serif" font-size="14" lengthAdjust="spacing" textLength="155" x="201.3945" y="108.1074">UC02 - Create a new job</text></g><g id="elem_UC3"><ellipse cx="278.9967" cy="193.3993" fill="#F1F1F1" rx="144.9967" ry="31.3993" style="stroke:#181818;stroke-width:0.5;"/><text fill="#000000" font-family="sans-serif" font-size="14" lengthAdjust="spacing" textLength="258" x="149.9967" y="197.1279">UC03 - Register a Collaborator with a job</text></g><g id="elem_UC4"><ellipse cx="278.9974" cy="289.5995" fill="#F1F1F1" rx="135.9974" ry="29.5995" style="stroke:#181818;stroke-width:0.5;"/><text fill="#000000" font-family="sans-serif" font-size="14" lengthAdjust="spacing" textLength="239" x="159.4974" y="293.328">UC04 - Assign a skill to a Collaborator</text></g><g id="elem_UC5"><ellipse cx="278.9133" cy="382.2827" fill="#F1F1F1" rx="129.4133" ry="28.2827" style="stroke:#181818;stroke-width:0.5;"/><text fill="#000000" font-family="sans-serif" font-size="14" lengthAdjust="spacing" textLength="225" x="166.4133" y="386.0112">UC05 - Automatic Team Generation</text></g><g id="elem_UC6"><ellipse cx="278.9506" cy="468.5901" fill="#F1F1F1" rx="100.9506" ry="22.5901" style="stroke:#181818;stroke-width:0.5;"/><text fill="#000000" font-family="sans-serif" font-size="14" lengthAdjust="spacing" textLength="163" x="197.4506" y="472.3186">UC06 - Register a Vehicle</text></g><g id="elem_UC7"><ellipse cx="279.205" cy="553.441" fill="#F1F1F1" rx="125.205" ry="27.441" style="stroke:#181818;stroke-width:0.5;"/><text fill="#000000" font-family="sans-serif" font-size="14" lengthAdjust="spacing" textLength="216" x="171.205" y="557.1695">UC07 - Register Vehicle Check-up</text></g><g id="elem_UC8"><ellipse cx="278.7518" cy="646.4504" fill="#F1F1F1" rx="140.2518" ry="30.4504" style="stroke:#181818;stroke-width:0.5;"/><text fill="#000000" font-family="sans-serif" font-size="14" lengthAdjust="spacing" textLength="248" x="154.7518" y="650.1789">UC08 - List Vehicles Needing Check-up</text></g><!--link HRM to UC1--><g id="link_HRM_UC1"><path d="M69.93,136.89 C85.66,111.31 107.38,82.79 134,64.5 C152.33,51.91 174.59,43.49 196.08,37.86 " fill="none" id="HRM-to-UC1" style="stroke:#181818;stroke-width:1.0;"/><polygon fill="#181818" points="200.94,36.63,191.2327,34.9659,196.0935,37.8595,193.1999,42.7203,200.94,36.63" style="stroke:#181818;stroke-width:1.0;"/></g><!--link HRM to UC2--><g id="link_HRM_UC2"><path d="M74.19,173.79 C91.58,164.04 113.48,152.65 134,144.5 C156.63,135.52 182.01,127.75 205.09,121.5 " fill="none" id="HRM-to-UC2" style="stroke:#181818;stroke-width:1.0;"/><polygon fill="#181818" points="209.98,120.2,200.2538,118.6504,205.1484,121.4865,202.3123,126.3811,209.98,120.2" style="stroke:#181818;stroke-width:1.0;"/></g><!--link HRM to UC3--><g id="link_HRM_UC3"><path d="M74.2,193.5 C89.29,193.5 108.31,193.5 128.63,193.5 " fill="none" id="HRM-to-UC3" style="stroke:#181818;stroke-width:1.0;"/><polygon fill="#181818" points="133.82,193.5,124.82,189.5,128.82,193.5,124.82,197.5,133.82,193.5" style="stroke:#181818;stroke-width:1.0;"/></g><!--link HRM to UC4--><g id="link_HRM_UC4"><path d="M74.34,212.83 C91.77,222.48 113.66,233.9 134,242.5 C152.53,250.34 172.85,257.69 192.23,264.15 " fill="none" id="HRM-to-UC4" style="stroke:#181818;stroke-width:1.0;"/><polygon fill="#181818" points="197.14,265.77,189.8548,259.1424,192.3937,264.1974,187.3387,266.7364,197.14,265.77" style="stroke:#181818;stroke-width:1.0;"/></g><!--link HRM to UC5--><g id="link_HRM_UC5"><path d="M66.2,250.23 C81.89,279.7 104.69,314.14 134,336.5 C147.43,346.74 163.2,354.74 179.29,360.98 " fill="none" id="HRM-to-UC5" style="stroke:#181818;stroke-width:1.0;"/><polygon fill="#181818" points="184.3,362.86,177.2775,355.9546,179.6184,361.1044,174.4685,363.4452,184.3,362.86" style="stroke:#181818;stroke-width:1.0;"/></g><!--link FM to UC6--><g id="link_FM_UC6"><path d="M68.1,538.78 C86.36,529.27 111.18,517.11 134,508.5 C156.55,499.99 181.7,492.39 204.58,486.16 " fill="none" id="FM-to-UC6" style="stroke:#181818;stroke-width:1.0;"/><polygon fill="#181818" points="209.43,484.85,199.6996,483.3273,204.6019,486.1499,201.7794,491.0522,209.43,484.85" style="stroke:#181818;stroke-width:1.0;"/></g><!--link FM to UC7--><g id="link_FM_UC7"><path d="M68.19,553.5 C88.59,553.5 118.15,553.5 148.68,553.5 " fill="none" id="FM-to-UC7" style="stroke:#181818;stroke-width:1.0;"/><polygon fill="#181818" points="153.99,553.5,144.99,549.5,148.99,553.5,144.99,557.5,153.99,553.5" style="stroke:#181818;stroke-width:1.0;"/></g><!--link FM to UC8--><g id="link_FM_UC8"><path d="M68.25,567.84 C86.57,577.19 111.4,589.31 134,598.5 C152.68,606.1 173.06,613.44 192.45,620 " fill="none" id="FM-to-UC8" style="stroke:#181818;stroke-width:1.0;"/><polygon fill="#181818" points="197.35,621.65,190.0828,615.0026,192.608,620.0646,187.5461,622.5898,197.35,621.65" style="stroke:#181818;stroke-width:1.0;"/></g><!--SRC=[NP4zRy8m48Pt_ueJ2rEayirKgOf46Ke7A9rO3dCaRXmR-Iv2_VTrK53YRg_ivpcTtXjpPTmD0zPGU-Tr6NnD8A4XrV_SK5TOq45-BK4WBUWAIshS4rpYnT-DA-2AbaafIrS1yH1CKGfSJ6iPxvH2BJx0Q6E9vEHswEBWC09asEoUdzkcHdToUsBV14sSSjlzJgc6IICJZ8xvomGos5DXM2Z0eJBMyWCyvfE4cqOk3uH2WE3e3Z_-t87J19mD1oBatbey-u3jSdSZPNphrLcYpgFwncmA5o5kTsbRI6TquZmH5wtOYAzHZ8OlYgM-awCenDewOv4OotJBRogDjjIXomHT3T4EXBmaNMNDhJDMYR6EnaVadpJ39z6bFV0_RQtYFI3BNXzrztawoBD1dW_oGcsUSTd7LH_NwWy0]--></g></svg>