<?xml version="1.0" encoding="UTF-8" standalone="no"?><svg xmlns="http://www.w3.org/2000/svg" xmlns:xlink="http://www.w3.org/1999/xlink" contentStyleType="text/css" height="369px" preserveAspectRatio="none" style="width:350px;height:369px;background:#FFFFFF;" version="1.1" viewBox="0 0 350 369" width="350px" zoomAndPan="magnify"><defs/><g><rect fill="#FFFFFF" height="218.625" style="stroke:#181818;stroke-width:1.0;" width="10" x="145" y="87.5703"/><rect fill="#FFFFFF" height="94.7031" style="stroke:#181818;stroke-width:1.0;" width="10" x="150" y="211.4922"/><rect fill="#FFFFFF" height="42.3516" style="stroke:#181818;stroke-width:1.0;" width="10" x="155" y="254.8438"/><rect fill="none" height="165.2734" style="stroke:#000000;stroke-width:1.5;" width="256.5" x="87.5" y="102.5703"/><line style="stroke:#181818;stroke-width:0.5;stroke-dasharray:5.0,5.0;" x1="149.5" x2="149.5" y1="55.2188" y2="315.1953"/><line style="stroke:#181818;stroke-width:0.5;stroke-dasharray:5.0,5.0;" x1="312" x2="312" y1="161.0313" y2="315.1953"/><rect fill="#E3E3E3" height="31.6094" rx="2.5" ry="2.5" style="stroke:#181818;stroke-width:0.5;" width="105" x="97.5" y="22.6094"/><text fill="#000000" font-family="sans-serif" font-size="14" lengthAdjust="spacing" textLength="91" x="104.5" y="44.1426">skillRepository</text><rect fill="#E3E3E3" height="31.6094" rx="2.5" ry="2.5" style="stroke:#181818;stroke-width:0.5;" width="105" x="97.5" y="314.1953"/><text fill="#000000" font-family="sans-serif" font-size="14" lengthAdjust="spacing" textLength="91" x="104.5" y="335.7285">skillRepository</text><rect fill="#E3E3E3" height="49.2188" rx="2.5" ry="2.5" style="stroke:#181818;stroke-width:0.5;" width="43" x="291" y="314.1953"/><text fill="#000000" font-family="sans-serif" font-size="14" lengthAdjust="spacing" textLength="23" x="301" y="335.7285">skill</text><text fill="#000000" font-family="sans-serif" font-size="14" lengthAdjust="spacing" textLength="29" x="298" y="353.3379">:Skill</text><rect fill="#FFFFFF" height="218.625" style="stroke:#181818;stroke-width:1.0;" width="10" x="145" y="87.5703"/><rect fill="#FFFFFF" height="94.7031" style="stroke:#181818;stroke-width:1.0;" width="10" x="150" y="211.4922"/><rect fill="#FFFFFF" height="42.3516" style="stroke:#181818;stroke-width:1.0;" width="10" x="155" y="254.8438"/><polygon fill="#181818" points="133,83.5703,143,87.5703,133,91.5703,137,87.5703" style="stroke:#181818;stroke-width:1.0;"/><line style="stroke:#181818;stroke-width:1.0;" x1="0" x2="139" y1="87.5703" y2="87.5703"/><text fill="#000000" font-family="sans-serif" font-size="13" font-weight="bold" lengthAdjust="spacing" textLength="14" x="7" y="82.7139">11</text><text fill="#000000" font-family="sans-serif" font-size="13" lengthAdjust="spacing" textLength="108" x="25" y="82.7139">registerSkill(name)</text><path d="M87.5,102.5703 L224.5,102.5703 L224.5,110.9219 L214.5,120.9219 L87.5,120.9219 L87.5,102.5703 " fill="#EEEEEE" style="stroke:#000000;stroke-width:1.5;"/><rect fill="none" height="165.2734" style="stroke:#000000;stroke-width:1.5;" width="256.5" x="87.5" y="102.5703"/><text fill="#000000" font-family="sans-serif" font-size="13" font-weight="bold" lengthAdjust="spacing" textLength="92" x="102.5" y="117.0654">Register SKills</text><polygon fill="#181818" points="279,139.2734,289,143.2734,279,147.2734,283,143.2734" style="stroke:#181818;stroke-width:1.0;"/><line style="stroke:#181818;stroke-width:1.0;" x1="155" x2="285" y1="143.2734" y2="143.2734"/><text fill="#000000" font-family="sans-serif" font-size="13" font-weight="bold" lengthAdjust="spacing" textLength="25" x="162" y="138.417">11.1</text><text fill="#000000" font-family="sans-serif" font-size="13" lengthAdjust="spacing" textLength="83" x="191" y="138.417">register(name)</text><rect fill="#E3E3E3" height="49.2188" rx="2.5" ry="2.5" style="stroke:#181818;stroke-width:0.5;" width="43" x="291" y="120.9219"/><text fill="#000000" font-family="sans-serif" font-size="14" lengthAdjust="spacing" textLength="23" x="301" y="142.4551">skill</text><text fill="#000000" font-family="sans-serif" font-size="14" lengthAdjust="spacing" textLength="29" x="298" y="160.0645">:Skill</text><line style="stroke:#181818;stroke-width:1.0;" x1="155" x2="202" y1="198.4922" y2="198.4922"/><line style="stroke:#181818;stroke-width:1.0;" x1="202" x2="202" y1="198.4922" y2="211.4922"/><line style="stroke:#181818;stroke-width:1.0;" x1="161" x2="202" y1="211.4922" y2="211.4922"/><polygon fill="#181818" points="171,207.4922,161,211.4922,171,215.4922,167,211.4922" style="stroke:#181818;stroke-width:1.0;"/><text fill="#000000" font-family="sans-serif" font-size="13" font-weight="bold" lengthAdjust="spacing" textLength="25" x="167" y="193.6357">11.2</text><text fill="#000000" font-family="sans-serif" font-size="13" lengthAdjust="spacing" textLength="81" x="196" y="193.6357">addSkill (skill)</text><line style="stroke:#181818;stroke-width:1.0;" x1="160" x2="207" y1="241.8438" y2="241.8438"/><line style="stroke:#181818;stroke-width:1.0;" x1="207" x2="207" y1="241.8438" y2="254.8438"/><line style="stroke:#181818;stroke-width:1.0;" x1="166" x2="207" y1="254.8438" y2="254.8438"/><polygon fill="#181818" points="176,250.8438,166,254.8438,176,258.8438,172,254.8438" style="stroke:#181818;stroke-width:1.0;"/><text fill="#000000" font-family="sans-serif" font-size="13" font-weight="bold" lengthAdjust="spacing" textLength="25" x="172" y="236.9873">11.3</text><text fill="#000000" font-family="sans-serif" font-size="13" lengthAdjust="spacing" textLength="98" x="201" y="236.9873">confirmSkill(skill)</text><polygon fill="#181818" points="11,293.1953,1,297.1953,11,301.1953,7,297.1953" style="stroke:#181818;stroke-width:1.0;"/><line style="stroke:#181818;stroke-width:1.0;stroke-dasharray:2.0,2.0;" x1="5" x2="144" y1="297.1953" y2="297.1953"/><text fill="#000000" font-family="sans-serif" font-size="13" font-weight="bold" lengthAdjust="spacing" textLength="14" x="17" y="292.3389">12</text><text fill="#000000" font-family="sans-serif" font-size="13" lengthAdjust="spacing" textLength="23" x="35" y="292.3389">skill</text><!--SRC=[RO_1RiCW38RlF8NLKrifax9ZDEq5TWlNNJnmAMem2CYclls0H6kMpHUG_Vt_RwURvO0H7JZFNbsZTmGvpYJIpoIWkg4XcUyJGIILaSsq1T8LjV-oRE22Ko8XIZjRPGDoXaFXfccau9FDFjuFW0da-0_ppeEixq88WNFsFBiFYj3tedijgg7a6vionKOU6HsTTkHJBr1b-ucPQWwKCj7F0SPL2lAjQ9DeerfoXEf-FZ_iL-STKV9HwnODnxRpwU6o3_shLPulDhfbzLM-9RSERK2iby_smEVMUUcwwZn0yn6QVec_0G00]--></g></svg>