<?xml version="1.0" encoding="UTF-8" standalone="no"?><svg xmlns="http://www.w3.org/2000/svg" xmlns:xlink="http://www.w3.org/1999/xlink" contentStyleType="text/css" height="656px" preserveAspectRatio="none" style="width:988px;height:656px;background:#FFFFFF;" version="1.1" viewBox="0 0 988 656" width="988px" zoomAndPan="magnify"><defs/><g><rect fill="#FFFFFF" height="472.3672" style="stroke:#181818;stroke-width:1.0;" width="10" x="87.5" y="92.6094"/><rect fill="#FFFFFF" height="30.3516" style="stroke:#181818;stroke-width:1.0;" width="10" x="363.5" y="114.9609"/><rect fill="#FFFFFF" height="30.3516" style="stroke:#181818;stroke-width:1.0;" width="10" x="363.5" y="175.6641"/><rect fill="#FFFFFF" height="319.6094" style="stroke:#181818;stroke-width:1.0;" width="10" x="363.5" y="236.3672"/><rect fill="#FFFFFF" height="258.9063" style="stroke:#181818;stroke-width:1.0;" width="10" x="516.5" y="266.7188"/><rect fill="#FFFFFF" height="30.3516" style="stroke:#181818;stroke-width:1.0;" width="10" x="654" y="297.0703"/><rect fill="#FFFFFF" height="30.3516" style="stroke:#181818;stroke-width:1.0;" width="10" x="761" y="357.7734"/><rect fill="#FFFFFF" height="76.7969" style="stroke:#181818;stroke-width:1.0;" width="10" x="872" y="418.4766"/><line style="stroke:#181818;stroke-width:0.5;stroke-dasharray:5.0,5.0;" x1="92" x2="92" y1="82.6094" y2="573.9766"/><line style="stroke:#181818;stroke-width:0.5;stroke-dasharray:5.0,5.0;" x1="368.5" x2="368.5" y1="82.6094" y2="573.9766"/><line style="stroke:#181818;stroke-width:0.5;stroke-dasharray:5.0,5.0;" x1="521.5" x2="521.5" y1="82.6094" y2="573.9766"/><line style="stroke:#181818;stroke-width:0.5;stroke-dasharray:5.0,5.0;" x1="658.5" x2="658.5" y1="82.6094" y2="573.9766"/><line style="stroke:#181818;stroke-width:0.5;stroke-dasharray:5.0,5.0;" x1="765.5" x2="765.5" y1="82.6094" y2="573.9766"/><line style="stroke:#181818;stroke-width:0.5;stroke-dasharray:5.0,5.0;" x1="876.5" x2="876.5" y1="82.6094" y2="573.9766"/><line style="stroke:#181818;stroke-width:0.5;stroke-dasharray:5.0,5.0;" x1="960.5" x2="960.5" y1="82.6094" y2="573.9766"/><text fill="#000000" font-family="sans-serif" font-size="14" lengthAdjust="spacing" textLength="169" x="5" y="79.5332">Human Resource Manager</text><ellipse cx="92.5" cy="13.5" fill="#E3E3E3" rx="8" ry="8" style="stroke:#181818;stroke-width:0.5;"/><path d="M92.5,21.5 L92.5,48.5 M79.5,29.5 L105.5,29.5 M92.5,48.5 L79.5,63.5 M92.5,48.5 L105.5,63.5 " fill="none" style="stroke:#181818;stroke-width:0.5;"/><text fill="#000000" font-family="sans-serif" font-size="14" lengthAdjust="spacing" textLength="169" x="5" y="587.5098">Human Resource Manager</text><ellipse cx="92.5" cy="599.0859" fill="#E3E3E3" rx="8" ry="8" style="stroke:#181818;stroke-width:0.5;"/><path d="M92.5,607.0859 L92.5,634.0859 M79.5,615.0859 L105.5,615.0859 M92.5,634.0859 L79.5,649.0859 M92.5,634.0859 L105.5,649.0859 " fill="none" style="stroke:#181818;stroke-width:0.5;"/><rect fill="#E3E3E3" height="31.6094" rx="2.5" ry="2.5" style="stroke:#181818;stroke-width:0.5;" width="108" x="314.5" y="50"/><text fill="#000000" font-family="sans-serif" font-size="14" lengthAdjust="spacing" textLength="94" x="321.5" y="71.5332">:RegisterSkillUI</text><rect fill="#E3E3E3" height="31.6094" rx="2.5" ry="2.5" style="stroke:#181818;stroke-width:0.5;" width="108" x="314.5" y="572.9766"/><text fill="#000000" font-family="sans-serif" font-size="14" lengthAdjust="spacing" textLength="94" x="321.5" y="594.5098">:RegisterSkillUI</text><rect fill="#E3E3E3" height="31.6094" rx="2.5" ry="2.5" style="stroke:#181818;stroke-width:0.5;" width="158" x="442.5" y="50"/><text fill="#000000" font-family="sans-serif" font-size="14" lengthAdjust="spacing" textLength="144" x="449.5" y="71.5332">:RegisterSkillController</text><rect fill="#E3E3E3" height="31.6094" rx="2.5" ry="2.5" style="stroke:#181818;stroke-width:0.5;" width="158" x="442.5" y="572.9766"/><text fill="#000000" font-family="sans-serif" font-size="14" lengthAdjust="spacing" textLength="144" x="449.5" y="594.5098">:RegisterSkillController</text><rect fill="#E3E3E3" height="31.6094" rx="2.5" ry="2.5" style="stroke:#181818;stroke-width:0.5;" width="97" x="610.5" y="50"/><text fill="#000000" font-family="sans-serif" font-size="14" lengthAdjust="spacing" textLength="83" x="617.5" y="71.5332">:Repositories</text><rect fill="#E3E3E3" height="31.6094" rx="2.5" ry="2.5" style="stroke:#181818;stroke-width:0.5;" width="97" x="610.5" y="572.9766"/><text fill="#000000" font-family="sans-serif" font-size="14" lengthAdjust="spacing" textLength="83" x="617.5" y="594.5098">:Repositories</text><rect fill="#E3E3E3" height="49.2188" rx="2.5" ry="2.5" style="stroke:#181818;stroke-width:0.5;" width="97" x="717.5" y="32.3906"/><text fill="#000000" font-family="sans-serif" font-size="14" lengthAdjust="spacing" textLength="74" x="729" y="53.9238">repositories</text><text fill="#000000" font-family="sans-serif" font-size="14" lengthAdjust="spacing" textLength="83" x="724.5" y="71.5332">:Repositories</text><rect fill="#E3E3E3" height="49.2188" rx="2.5" ry="2.5" style="stroke:#181818;stroke-width:0.5;" width="97" x="717.5" y="572.9766"/><text fill="#000000" font-family="sans-serif" font-size="14" lengthAdjust="spacing" textLength="74" x="729" y="594.5098">repositories</text><text fill="#000000" font-family="sans-serif" font-size="14" lengthAdjust="spacing" textLength="83" x="724.5" y="612.1191">:Repositories</text><rect fill="#E3E3E3" height="31.6094" rx="2.5" ry="2.5" style="stroke:#181818;stroke-width:0.5;" width="105" x="824.5" y="50"/><text fill="#000000" font-family="sans-serif" font-size="14" lengthAdjust="spacing" textLength="91" x="831.5" y="71.5332">skillRepository</text><rect fill="#E3E3E3" height="31.6094" rx="2.5" ry="2.5" style="stroke:#181818;stroke-width:0.5;" width="105" x="824.5" y="572.9766"/><text fill="#000000" font-family="sans-serif" font-size="14" lengthAdjust="spacing" textLength="91" x="831.5" y="594.5098">skillRepository</text><rect fill="#E3E3E3" height="49.2188" rx="2.5" ry="2.5" style="stroke:#181818;stroke-width:0.5;" width="43" x="939.5" y="32.3906"/><text fill="#000000" font-family="sans-serif" font-size="14" lengthAdjust="spacing" textLength="23" x="949.5" y="53.9238">skill</text><text fill="#000000" font-family="sans-serif" font-size="14" lengthAdjust="spacing" textLength="29" x="946.5" y="71.5332">:Skill</text><rect fill="#E3E3E3" height="49.2188" rx="2.5" ry="2.5" style="stroke:#181818;stroke-width:0.5;" width="43" x="939.5" y="572.9766"/><text fill="#000000" font-family="sans-serif" font-size="14" lengthAdjust="spacing" textLength="23" x="949.5" y="594.5098">skill</text><text fill="#000000" font-family="sans-serif" font-size="14" lengthAdjust="spacing" textLength="29" x="946.5" y="612.1191">:Skill</text><rect fill="#FFFFFF" height="472.3672" style="stroke:#181818;stroke-width:1.0;" width="10" x="87.5" y="92.6094"/><rect fill="#FFFFFF" height="30.3516" style="stroke:#181818;stroke-width:1.0;" width="10" x="363.5" y="114.9609"/><rect fill="#FFFFFF" height="30.3516" style="stroke:#181818;stroke-width:1.0;" width="10" x="363.5" y="175.6641"/><rect fill="#FFFFFF" height="319.6094" style="stroke:#181818;stroke-width:1.0;" width="10" x="363.5" y="236.3672"/><rect fill="#FFFFFF" height="258.9063" style="stroke:#181818;stroke-width:1.0;" width="10" x="516.5" y="266.7188"/><rect fill="#FFFFFF" height="30.3516" style="stroke:#181818;stroke-width:1.0;" width="10" x="654" y="297.0703"/><rect fill="#FFFFFF" height="30.3516" style="stroke:#181818;stroke-width:1.0;" width="10" x="761" y="357.7734"/><rect fill="#FFFFFF" height="76.7969" style="stroke:#181818;stroke-width:1.0;" width="10" x="872" y="418.4766"/><polygon fill="#181818" points="351.5,110.9609,361.5,114.9609,351.5,118.9609,355.5,114.9609" style="stroke:#181818;stroke-width:1.0;"/><line style="stroke:#181818;stroke-width:1.0;" x1="97.5" x2="357.5" y1="114.9609" y2="114.9609"/><text fill="#000000" font-family="sans-serif" font-size="13" font-weight="bold" lengthAdjust="spacing" textLength="7" x="104.5" y="110.1045">1</text><text fill="#000000" font-family="sans-serif" font-size="13" lengthAdjust="spacing" textLength="155" x="115.5" y="110.1045">asks to register a new skill</text><polygon fill="#181818" points="108.5,141.3125,98.5,145.3125,108.5,149.3125,104.5,145.3125" style="stroke:#181818;stroke-width:1.0;"/><line style="stroke:#181818;stroke-width:1.0;stroke-dasharray:2.0,2.0;" x1="102.5" x2="367.5" y1="145.3125" y2="145.3125"/><text fill="#000000" font-family="sans-serif" font-size="13" font-weight="bold" lengthAdjust="spacing" textLength="7" x="114.5" y="140.4561">2</text><text fill="#000000" font-family="sans-serif" font-size="13" lengthAdjust="spacing" textLength="106" x="125.5" y="140.4561">request skill name</text><polygon fill="#181818" points="351.5,171.6641,361.5,175.6641,351.5,179.6641,355.5,175.6641" style="stroke:#181818;stroke-width:1.0;"/><line style="stroke:#181818;stroke-width:1.0;stroke-dasharray:2.0,2.0;" x1="97.5" x2="357.5" y1="175.6641" y2="175.6641"/><text fill="#000000" font-family="sans-serif" font-size="13" font-weight="bold" lengthAdjust="spacing" textLength="7" x="104.5" y="170.8076">3</text><text fill="#000000" font-family="sans-serif" font-size="13" lengthAdjust="spacing" textLength="125" x="115.5" y="170.8076">Types requested data</text><polygon fill="#181818" points="108.5,202.0156,98.5,206.0156,108.5,210.0156,104.5,206.0156" style="stroke:#181818;stroke-width:1.0;"/><line style="stroke:#181818;stroke-width:1.0;stroke-dasharray:2.0,2.0;" x1="102.5" x2="367.5" y1="206.0156" y2="206.0156"/><text fill="#000000" font-family="sans-serif" font-size="13" font-weight="bold" lengthAdjust="spacing" textLength="7" x="114.5" y="201.1592">4</text><text fill="#000000" font-family="sans-serif" font-size="13" lengthAdjust="spacing" textLength="231" x="125.5" y="201.1592">Shows all data and request confirmation</text><polygon fill="#181818" points="351.5,232.3672,361.5,236.3672,351.5,240.3672,355.5,236.3672" style="stroke:#181818;stroke-width:1.0;"/><line style="stroke:#181818;stroke-width:1.0;stroke-dasharray:2.0,2.0;" x1="97.5" x2="357.5" y1="236.3672" y2="236.3672"/><text fill="#000000" font-family="sans-serif" font-size="13" font-weight="bold" lengthAdjust="spacing" textLength="7" x="104.5" y="231.5107">5</text><text fill="#000000" font-family="sans-serif" font-size="13" lengthAdjust="spacing" textLength="71" x="115.5" y="231.5107">Confirm skill</text><polygon fill="#181818" points="504.5,262.7188,514.5,266.7188,504.5,270.7188,508.5,266.7188" style="stroke:#181818;stroke-width:1.0;"/><line style="stroke:#181818;stroke-width:1.0;" x1="373.5" x2="510.5" y1="266.7188" y2="266.7188"/><text fill="#000000" font-family="sans-serif" font-size="13" font-weight="bold" lengthAdjust="spacing" textLength="7" x="380.5" y="261.8623">6</text><text fill="#000000" font-family="sans-serif" font-size="13" lengthAdjust="spacing" textLength="113" x="391.5" y="261.8623">RegisterSkill(name)</text><polygon fill="#181818" points="642,293.0703,652,297.0703,642,301.0703,646,297.0703" style="stroke:#181818;stroke-width:1.0;"/><line style="stroke:#181818;stroke-width:1.0;" x1="526.5" x2="648" y1="297.0703" y2="297.0703"/><text fill="#000000" font-family="sans-serif" font-size="13" font-weight="bold" lengthAdjust="spacing" textLength="7" x="533.5" y="292.2139">7</text><text fill="#000000" font-family="sans-serif" font-size="13" lengthAdjust="spacing" textLength="75" x="544.5" y="292.2139">getInstance()</text><polygon fill="#181818" points="537.5,323.4219,527.5,327.4219,537.5,331.4219,533.5,327.4219" style="stroke:#181818;stroke-width:1.0;"/><line style="stroke:#181818;stroke-width:1.0;stroke-dasharray:2.0,2.0;" x1="531.5" x2="658" y1="327.4219" y2="327.4219"/><text fill="#000000" font-family="sans-serif" font-size="13" font-weight="bold" lengthAdjust="spacing" textLength="7" x="543.5" y="322.5654">8</text><text fill="#000000" font-family="sans-serif" font-size="13" lengthAdjust="spacing" textLength="67" x="554.5" y="322.5654">repositories</text><polygon fill="#181818" points="749,353.7734,759,357.7734,749,361.7734,753,357.7734" style="stroke:#181818;stroke-width:1.0;"/><line style="stroke:#181818;stroke-width:1.0;" x1="526.5" x2="755" y1="357.7734" y2="357.7734"/><text fill="#000000" font-family="sans-serif" font-size="13" font-weight="bold" lengthAdjust="spacing" textLength="7" x="533.5" y="352.917">9</text><text fill="#000000" font-family="sans-serif" font-size="13" lengthAdjust="spacing" textLength="113" x="544.5" y="352.917">getSkillRepository()</text><polygon fill="#181818" points="537.5,384.125,527.5,388.125,537.5,392.125,533.5,388.125" style="stroke:#181818;stroke-width:1.0;"/><line style="stroke:#181818;stroke-width:1.0;stroke-dasharray:2.0,2.0;" x1="531.5" x2="765" y1="388.125" y2="388.125"/><text fill="#000000" font-family="sans-serif" font-size="13" font-weight="bold" lengthAdjust="spacing" textLength="14" x="543.5" y="383.2686">10</text><text fill="#000000" font-family="sans-serif" font-size="13" lengthAdjust="spacing" textLength="85" x="561.5" y="383.2686">skillRepository</text><polygon fill="#181818" points="860,414.4766,870,418.4766,860,422.4766,864,418.4766" style="stroke:#181818;stroke-width:1.0;"/><line style="stroke:#181818;stroke-width:1.0;" x1="526.5" x2="866" y1="418.4766" y2="418.4766"/><text fill="#000000" font-family="sans-serif" font-size="13" font-weight="bold" lengthAdjust="spacing" textLength="14" x="533.5" y="413.6201">11</text><text fill="#000000" font-family="sans-serif" font-size="13" lengthAdjust="spacing" textLength="108" x="551.5" y="413.6201">registerSkill(name)</text><rect fill="none" height="41.4453" style="stroke:#000000;stroke-width:1.5;" width="111" x="821.5" y="426.4766"/><path d="M821.5,426.4766 L883.5,426.4766 L883.5,434.4766 L873.5,444.4766 L821.5,444.4766 L821.5,426.4766 " fill="#EEEEEE" style="stroke:#000000;stroke-width:2.0;"/><text fill="#000000" font-family="sans-serif" font-size="13" font-weight="bold" lengthAdjust="spacing" textLength="17" x="834.5" y="441.9717">ref</text><text fill="#000000" font-family="sans-serif" font-size="12" lengthAdjust="spacing" textLength="73" x="840.5" y="460.9336">Register Skill</text><polygon fill="#181818" points="537.5,491.2734,527.5,495.2734,537.5,499.2734,533.5,495.2734" style="stroke:#181818;stroke-width:1.0;"/><line style="stroke:#181818;stroke-width:1.0;stroke-dasharray:2.0,2.0;" x1="531.5" x2="876" y1="495.2734" y2="495.2734"/><text fill="#000000" font-family="sans-serif" font-size="13" font-weight="bold" lengthAdjust="spacing" textLength="14" x="543.5" y="490.417">12</text><text fill="#000000" font-family="sans-serif" font-size="13" lengthAdjust="spacing" textLength="23" x="561.5" y="490.417">skill</text><polygon fill="#181818" points="384.5,521.625,374.5,525.625,384.5,529.625,380.5,525.625" style="stroke:#181818;stroke-width:1.0;"/><line style="stroke:#181818;stroke-width:1.0;stroke-dasharray:2.0,2.0;" x1="378.5" x2="520.5" y1="525.625" y2="525.625"/><text fill="#000000" font-family="sans-serif" font-size="13" font-weight="bold" lengthAdjust="spacing" textLength="14" x="390.5" y="520.7686">13</text><text fill="#000000" font-family="sans-serif" font-size="13" lengthAdjust="spacing" textLength="23" x="408.5" y="520.7686">skill</text><polygon fill="#181818" points="108.5,551.9766,98.5,555.9766,108.5,559.9766,104.5,555.9766" style="stroke:#181818;stroke-width:1.0;"/><line style="stroke:#181818;stroke-width:1.0;stroke-dasharray:2.0,2.0;" x1="102.5" x2="367.5" y1="555.9766" y2="555.9766"/><text fill="#000000" font-family="sans-serif" font-size="13" font-weight="bold" lengthAdjust="spacing" textLength="14" x="114.5" y="551.1201">14</text><text fill="#000000" font-family="sans-serif" font-size="13" lengthAdjust="spacing" textLength="158" x="132.5" y="551.1201">displays operation success</text><!--SRC=[dPJFRk8m4CRlVeeH5wXKNg27IXLxA5AHLWczzU8w4x18xAp7ASlRxzY1aB-xrVe4oSpFt_VP4pffKqadIoYjiUheR8dWNOs2sZULL2TvmDHV2WI7oajpABe5T9IPFMjpW5mMX4B8sbjJbv_eX5WUTOQGM-i_xMyXbRSE5gzrAGqaIBPs2c4d3M_W5Y09NfETOApNIbVIU5Wy9NZGvD6b9rqKxzjOzRxzMz766kziKLoHcttoDYglB6dMef5YJVlWakfWZmtqMroduyEC0J_VNlRz3WfIxjnObIOJDOoBifiA8K9A-ajwZ648k2x-0-jdjWvFN7WYy9QFex4D4WoU8UBk7Is7un9Bw2o6h9drycF7C8U_QYHFa4alOUKmHuT6uIDaIChfocjh7W6qoQqhPG4Vfl_6epeQhVXDxt5MEzdyKfRyW-WAM2g7GLay6p4XBRXjfJN6mCWIEyKPzWns8J6hMrZxIuLqGs4MRNRAvo0z8UdHdWaaYuWXIPErsfGrkUPSWjN_KBTfseTdDoihwdgEmN5txzwlGa3zd5lAEEYm8eLf4zUVuGVqMqCyxmfN3wFU5ZqrEwFgiAPsML-zXBE-ZzIelPFcv7PYw8gnOIGR5sb_52VCZ4p5UUwLHTpw7lrWlcUHNUrZwkq4qYHUz_5fzhayd62_UE3vIpAtt-rEGCHCbc6yl_c_OnXiaoPhJg0RW13Y6xu7cCPqEm8qgtE0cVbQj5EQQQeAUI6m5JRV7g1QAIJw3ZqCclW3]--></g></svg>