<?xml version="1.0" encoding="UTF-8" standalone="no"?><svg xmlns="http://www.w3.org/2000/svg" xmlns:xlink="http://www.w3.org/1999/xlink" contentStyleType="text/css" height="726px" preserveAspectRatio="none" style="width:1044px;height:726px;background:#FFFFFF;" version="1.1" viewBox="0 0 1044 726" width="1044px" zoomAndPan="magnify"><defs/><g><rect fill="#FFFFFF" height="542.9766" style="stroke:#181818;stroke-width:1.0;" width="10" x="87.5" y="92.6094"/><rect fill="#FFFFFF" height="30.3516" style="stroke:#181818;stroke-width:1.0;" width="10" x="363.5" y="114.9609"/><rect fill="#FFFFFF" height="30.3516" style="stroke:#181818;stroke-width:1.0;" width="10" x="363.5" y="175.6641"/><rect fill="#FFFFFF" height="390.2188" style="stroke:#181818;stroke-width:1.0;" width="10" x="363.5" y="236.3672"/><rect fill="#FFFFFF" height="329.5156" style="stroke:#181818;stroke-width:1.0;" width="10" x="516.5" y="266.7188"/><rect fill="#FFFFFF" height="30.3516" style="stroke:#181818;stroke-width:1.0;" width="10" x="654" y="297.0703"/><rect fill="#FFFFFF" height="30.3516" style="stroke:#181818;stroke-width:1.0;" width="10" x="761" y="357.7734"/><rect fill="#FFFFFF" height="147.4063" style="stroke:#181818;stroke-width:1.0;" width="10" x="872" y="418.4766"/><line style="stroke:#181818;stroke-width:0.5;stroke-dasharray:5.0,5.0;" x1="92" x2="92" y1="82.6094" y2="644.5859"/><line style="stroke:#181818;stroke-width:0.5;stroke-dasharray:5.0,5.0;" x1="368.5" x2="368.5" y1="82.6094" y2="644.5859"/><line style="stroke:#181818;stroke-width:0.5;stroke-dasharray:5.0,5.0;" x1="521.5" x2="521.5" y1="82.6094" y2="644.5859"/><line style="stroke:#181818;stroke-width:0.5;stroke-dasharray:5.0,5.0;" x1="658.5" x2="658.5" y1="82.6094" y2="644.5859"/><line style="stroke:#181818;stroke-width:0.5;stroke-dasharray:5.0,5.0;" x1="765.5" x2="765.5" y1="82.6094" y2="644.5859"/><line style="stroke:#181818;stroke-width:0.5;stroke-dasharray:5.0,5.0;" x1="876.5" x2="876.5" y1="82.6094" y2="644.5859"/><line style="stroke:#181818;stroke-width:0.5;stroke-dasharray:5.0,5.0;" x1="1016.5" x2="1016.5" y1="82.6094" y2="644.5859"/><text fill="#000000" font-family="sans-serif" font-size="14" lengthAdjust="spacing" textLength="169" x="5" y="79.5332">Human Resource Manager</text><ellipse cx="92.5" cy="13.5" fill="#E3E3E3" rx="8" ry="8" style="stroke:#181818;stroke-width:0.5;"/><path d="M92.5,21.5 L92.5,48.5 M79.5,29.5 L105.5,29.5 M92.5,48.5 L79.5,63.5 M92.5,48.5 L105.5,63.5 " fill="none" style="stroke:#181818;stroke-width:0.5;"/><text fill="#000000" font-family="sans-serif" font-size="14" lengthAdjust="spacing" textLength="169" x="5" y="658.1191">Human Resource Manager</text><ellipse cx="92.5" cy="669.6953" fill="#E3E3E3" rx="8" ry="8" style="stroke:#181818;stroke-width:0.5;"/><path d="M92.5,677.6953 L92.5,704.6953 M79.5,685.6953 L105.5,685.6953 M92.5,704.6953 L79.5,719.6953 M92.5,704.6953 L105.5,719.6953 " fill="none" style="stroke:#181818;stroke-width:0.5;"/><rect fill="#E3E3E3" height="31.6094" rx="2.5" ry="2.5" style="stroke:#181818;stroke-width:0.5;" width="108" x="314.5" y="50"/><text fill="#000000" font-family="sans-serif" font-size="14" lengthAdjust="spacing" textLength="94" x="321.5" y="71.5332">:RegisterSkillUI</text><rect fill="#E3E3E3" height="31.6094" rx="2.5" ry="2.5" style="stroke:#181818;stroke-width:0.5;" width="108" x="314.5" y="643.5859"/><text fill="#000000" font-family="sans-serif" font-size="14" lengthAdjust="spacing" textLength="94" x="321.5" y="665.1191">:RegisterSkillUI</text><rect fill="#E3E3E3" height="31.6094" rx="2.5" ry="2.5" style="stroke:#181818;stroke-width:0.5;" width="158" x="442.5" y="50"/><text fill="#000000" font-family="sans-serif" font-size="14" lengthAdjust="spacing" textLength="144" x="449.5" y="71.5332">:RegisterSkillController</text><rect fill="#E3E3E3" height="31.6094" rx="2.5" ry="2.5" style="stroke:#181818;stroke-width:0.5;" width="158" x="442.5" y="643.5859"/><text fill="#000000" font-family="sans-serif" font-size="14" lengthAdjust="spacing" textLength="144" x="449.5" y="665.1191">:RegisterSkillController</text><rect fill="#E3E3E3" height="31.6094" rx="2.5" ry="2.5" style="stroke:#181818;stroke-width:0.5;" width="97" x="610.5" y="50"/><text fill="#000000" font-family="sans-serif" font-size="14" lengthAdjust="spacing" textLength="83" x="617.5" y="71.5332">:Repositories</text><rect fill="#E3E3E3" height="31.6094" rx="2.5" ry="2.5" style="stroke:#181818;stroke-width:0.5;" width="97" x="610.5" y="643.5859"/><text fill="#000000" font-family="sans-serif" font-size="14" lengthAdjust="spacing" textLength="83" x="617.5" y="665.1191">:Repositories</text><rect fill="#E3E3E3" height="49.2188" rx="2.5" ry="2.5" style="stroke:#181818;stroke-width:0.5;" width="97" x="717.5" y="32.3906"/><text fill="#000000" font-family="sans-serif" font-size="14" lengthAdjust="spacing" textLength="74" x="729" y="53.9238">repositories</text><text fill="#000000" font-family="sans-serif" font-size="14" lengthAdjust="spacing" textLength="83" x="724.5" y="71.5332">:Repositories</text><rect fill="#E3E3E3" height="49.2188" rx="2.5" ry="2.5" style="stroke:#181818;stroke-width:0.5;" width="97" x="717.5" y="643.5859"/><text fill="#000000" font-family="sans-serif" font-size="14" lengthAdjust="spacing" textLength="74" x="729" y="665.1191">repositories</text><text fill="#000000" font-family="sans-serif" font-size="14" lengthAdjust="spacing" textLength="83" x="724.5" y="682.7285">:Repositories</text><rect fill="#E3E3E3" height="31.6094" rx="2.5" ry="2.5" style="stroke:#181818;stroke-width:0.5;" width="105" x="824.5" y="50"/><text fill="#000000" font-family="sans-serif" font-size="14" lengthAdjust="spacing" textLength="91" x="831.5" y="71.5332">skillRepository</text><rect fill="#E3E3E3" height="31.6094" rx="2.5" ry="2.5" style="stroke:#181818;stroke-width:0.5;" width="105" x="824.5" y="643.5859"/><text fill="#000000" font-family="sans-serif" font-size="14" lengthAdjust="spacing" textLength="91" x="831.5" y="665.1191">skillRepository</text><rect fill="#E3E3E3" height="49.2188" rx="2.5" ry="2.5" style="stroke:#181818;stroke-width:0.5;" width="43" x="995.5" y="32.3906"/><text fill="#000000" font-family="sans-serif" font-size="14" lengthAdjust="spacing" textLength="23" x="1005.5" y="53.9238">skill</text><text fill="#000000" font-family="sans-serif" font-size="14" lengthAdjust="spacing" textLength="29" x="1002.5" y="71.5332">:Skill</text><rect fill="#E3E3E3" height="49.2188" rx="2.5" ry="2.5" style="stroke:#181818;stroke-width:0.5;" width="43" x="995.5" y="643.5859"/><text fill="#000000" font-family="sans-serif" font-size="14" lengthAdjust="spacing" textLength="23" x="1005.5" y="665.1191">skill</text><text fill="#000000" font-family="sans-serif" font-size="14" lengthAdjust="spacing" textLength="29" x="1002.5" y="682.7285">:Skill</text><rect fill="#FFFFFF" height="542.9766" style="stroke:#181818;stroke-width:1.0;" width="10" x="87.5" y="92.6094"/><rect fill="#FFFFFF" height="30.3516" style="stroke:#181818;stroke-width:1.0;" width="10" x="363.5" y="114.9609"/><rect fill="#FFFFFF" height="30.3516" style="stroke:#181818;stroke-width:1.0;" width="10" x="363.5" y="175.6641"/><rect fill="#FFFFFF" height="390.2188" style="stroke:#181818;stroke-width:1.0;" width="10" x="363.5" y="236.3672"/><rect fill="#FFFFFF" height="329.5156" style="stroke:#181818;stroke-width:1.0;" width="10" x="516.5" y="266.7188"/><rect fill="#FFFFFF" height="30.3516" style="stroke:#181818;stroke-width:1.0;" width="10" x="654" y="297.0703"/><rect fill="#FFFFFF" height="30.3516" style="stroke:#181818;stroke-width:1.0;" width="10" x="761" y="357.7734"/><rect fill="#FFFFFF" height="147.4063" style="stroke:#181818;stroke-width:1.0;" width="10" x="872" y="418.4766"/><polygon fill="#181818" points="351.5,110.9609,361.5,114.9609,351.5,118.9609,355.5,114.9609" style="stroke:#181818;stroke-width:1.0;"/><line style="stroke:#181818;stroke-width:1.0;" x1="97.5" x2="357.5" y1="114.9609" y2="114.9609"/><text fill="#000000" font-family="sans-serif" font-size="13" font-weight="bold" lengthAdjust="spacing" textLength="7" x="104.5" y="110.1045">1</text><text fill="#000000" font-family="sans-serif" font-size="13" lengthAdjust="spacing" textLength="155" x="115.5" y="110.1045">asks to register a new skill</text><polygon fill="#181818" points="108.5,141.3125,98.5,145.3125,108.5,149.3125,104.5,145.3125" style="stroke:#181818;stroke-width:1.0;"/><line style="stroke:#181818;stroke-width:1.0;stroke-dasharray:2.0,2.0;" x1="102.5" x2="367.5" y1="145.3125" y2="145.3125"/><text fill="#000000" font-family="sans-serif" font-size="13" font-weight="bold" lengthAdjust="spacing" textLength="7" x="114.5" y="140.4561">2</text><text fill="#000000" font-family="sans-serif" font-size="13" lengthAdjust="spacing" textLength="106" x="125.5" y="140.4561">request skill name</text><polygon fill="#181818" points="351.5,171.6641,361.5,175.6641,351.5,179.6641,355.5,175.6641" style="stroke:#181818;stroke-width:1.0;"/><line style="stroke:#181818;stroke-width:1.0;stroke-dasharray:2.0,2.0;" x1="97.5" x2="357.5" y1="175.6641" y2="175.6641"/><text fill="#000000" font-family="sans-serif" font-size="13" font-weight="bold" lengthAdjust="spacing" textLength="7" x="104.5" y="170.8076">3</text><text fill="#000000" font-family="sans-serif" font-size="13" lengthAdjust="spacing" textLength="125" x="115.5" y="170.8076">Types requested data</text><polygon fill="#181818" points="108.5,202.0156,98.5,206.0156,108.5,210.0156,104.5,206.0156" style="stroke:#181818;stroke-width:1.0;"/><line style="stroke:#181818;stroke-width:1.0;stroke-dasharray:2.0,2.0;" x1="102.5" x2="367.5" y1="206.0156" y2="206.0156"/><text fill="#000000" font-family="sans-serif" font-size="13" font-weight="bold" lengthAdjust="spacing" textLength="7" x="114.5" y="201.1592">4</text><text fill="#000000" font-family="sans-serif" font-size="13" lengthAdjust="spacing" textLength="231" x="125.5" y="201.1592">Shows all data and request confirmation</text><polygon fill="#181818" points="351.5,232.3672,361.5,236.3672,351.5,240.3672,355.5,236.3672" style="stroke:#181818;stroke-width:1.0;"/><line style="stroke:#181818;stroke-width:1.0;stroke-dasharray:2.0,2.0;" x1="97.5" x2="357.5" y1="236.3672" y2="236.3672"/><text fill="#000000" font-family="sans-serif" font-size="13" font-weight="bold" lengthAdjust="spacing" textLength="7" x="104.5" y="231.5107">5</text><text fill="#000000" font-family="sans-serif" font-size="13" lengthAdjust="spacing" textLength="71" x="115.5" y="231.5107">Confirm skill</text><polygon fill="#181818" points="504.5,262.7188,514.5,266.7188,504.5,270.7188,508.5,266.7188" style="stroke:#181818;stroke-width:1.0;"/><line style="stroke:#181818;stroke-width:1.0;" x1="373.5" x2="510.5" y1="266.7188" y2="266.7188"/><text fill="#000000" font-family="sans-serif" font-size="13" font-weight="bold" lengthAdjust="spacing" textLength="7" x="380.5" y="261.8623">6</text><text fill="#000000" font-family="sans-serif" font-size="13" lengthAdjust="spacing" textLength="113" x="391.5" y="261.8623">RegisterSkill(name)</text><polygon fill="#181818" points="642,293.0703,652,297.0703,642,301.0703,646,297.0703" style="stroke:#181818;stroke-width:1.0;"/><line style="stroke:#181818;stroke-width:1.0;" x1="526.5" x2="648" y1="297.0703" y2="297.0703"/><text fill="#000000" font-family="sans-serif" font-size="13" font-weight="bold" lengthAdjust="spacing" textLength="7" x="533.5" y="292.2139">7</text><text fill="#000000" font-family="sans-serif" font-size="13" lengthAdjust="spacing" textLength="75" x="544.5" y="292.2139">getInstance()</text><polygon fill="#181818" points="537.5,323.4219,527.5,327.4219,537.5,331.4219,533.5,327.4219" style="stroke:#181818;stroke-width:1.0;"/><line style="stroke:#181818;stroke-width:1.0;stroke-dasharray:2.0,2.0;" x1="531.5" x2="658" y1="327.4219" y2="327.4219"/><text fill="#000000" font-family="sans-serif" font-size="13" font-weight="bold" lengthAdjust="spacing" textLength="7" x="543.5" y="322.5654">8</text><text fill="#000000" font-family="sans-serif" font-size="13" lengthAdjust="spacing" textLength="67" x="554.5" y="322.5654">repositories</text><polygon fill="#181818" points="749,353.7734,759,357.7734,749,361.7734,753,357.7734" style="stroke:#181818;stroke-width:1.0;"/><line style="stroke:#181818;stroke-width:1.0;" x1="526.5" x2="755" y1="357.7734" y2="357.7734"/><text fill="#000000" font-family="sans-serif" font-size="13" font-weight="bold" lengthAdjust="spacing" textLength="7" x="533.5" y="352.917">9</text><text fill="#000000" font-family="sans-serif" font-size="13" lengthAdjust="spacing" textLength="113" x="544.5" y="352.917">getSkillRepository()</text><polygon fill="#181818" points="537.5,384.125,527.5,388.125,537.5,392.125,533.5,388.125" style="stroke:#181818;stroke-width:1.0;"/><line style="stroke:#181818;stroke-width:1.0;stroke-dasharray:2.0,2.0;" x1="531.5" x2="765" y1="388.125" y2="388.125"/><text fill="#000000" font-family="sans-serif" font-size="13" font-weight="bold" lengthAdjust="spacing" textLength="14" x="543.5" y="383.2686">10</text><text fill="#000000" font-family="sans-serif" font-size="13" lengthAdjust="spacing" textLength="85" x="561.5" y="383.2686">skillRepository</text><polygon fill="#181818" points="860,414.4766,870,418.4766,860,422.4766,864,418.4766" style="stroke:#181818;stroke-width:1.0;"/><line style="stroke:#181818;stroke-width:1.0;" x1="526.5" x2="866" y1="418.4766" y2="418.4766"/><text fill="#000000" font-family="sans-serif" font-size="13" font-weight="bold" lengthAdjust="spacing" textLength="14" x="533.5" y="413.6201">11</text><text fill="#000000" font-family="sans-serif" font-size="13" lengthAdjust="spacing" textLength="108" x="551.5" y="413.6201">registerSkill(name)</text><polygon fill="#181818" points="1005,444.8281,1015,448.8281,1005,452.8281,1009,448.8281" style="stroke:#181818;stroke-width:1.0;"/><line style="stroke:#181818;stroke-width:1.0;" x1="882" x2="1011" y1="448.8281" y2="448.8281"/><text fill="#000000" font-family="sans-serif" font-size="13" font-weight="bold" lengthAdjust="spacing" textLength="14" x="889" y="443.9717">12</text><text fill="#000000" font-family="sans-serif" font-size="13" lengthAdjust="spacing" textLength="83" x="907" y="443.9717">register(name)</text><line style="stroke:#181818;stroke-width:1.0;" x1="882" x2="924" y1="479.1797" y2="479.1797"/><line style="stroke:#181818;stroke-width:1.0;" x1="924" x2="924" y1="479.1797" y2="492.1797"/><line style="stroke:#181818;stroke-width:1.0;" x1="883" x2="924" y1="492.1797" y2="492.1797"/><polygon fill="#181818" points="893,488.1797,883,492.1797,893,496.1797,889,492.1797" style="stroke:#181818;stroke-width:1.0;"/><text fill="#000000" font-family="sans-serif" font-size="13" font-weight="bold" lengthAdjust="spacing" textLength="14" x="889" y="474.3232">13</text><text fill="#000000" font-family="sans-serif" font-size="13" lengthAdjust="spacing" textLength="77" x="907" y="474.3232">addSkill(skill)</text><line style="stroke:#181818;stroke-width:1.0;" x1="882" x2="924" y1="522.5313" y2="522.5313"/><line style="stroke:#181818;stroke-width:1.0;" x1="924" x2="924" y1="522.5313" y2="535.5313"/><line style="stroke:#181818;stroke-width:1.0;" x1="883" x2="924" y1="535.5313" y2="535.5313"/><polygon fill="#181818" points="893,531.5313,883,535.5313,893,539.5313,889,535.5313" style="stroke:#181818;stroke-width:1.0;"/><text fill="#000000" font-family="sans-serif" font-size="13" font-weight="bold" lengthAdjust="spacing" textLength="14" x="889" y="517.6748">14</text><text fill="#000000" font-family="sans-serif" font-size="13" lengthAdjust="spacing" textLength="98" x="907" y="517.6748">confirmSkill(skill)</text><polygon fill="#181818" points="537.5,561.8828,527.5,565.8828,537.5,569.8828,533.5,565.8828" style="stroke:#181818;stroke-width:1.0;"/><line style="stroke:#181818;stroke-width:1.0;stroke-dasharray:2.0,2.0;" x1="531.5" x2="876" y1="565.8828" y2="565.8828"/><text fill="#000000" font-family="sans-serif" font-size="13" font-weight="bold" lengthAdjust="spacing" textLength="14" x="543.5" y="561.0264">15</text><text fill="#000000" font-family="sans-serif" font-size="13" lengthAdjust="spacing" textLength="23" x="561.5" y="561.0264">skill</text><polygon fill="#181818" points="384.5,592.2344,374.5,596.2344,384.5,600.2344,380.5,596.2344" style="stroke:#181818;stroke-width:1.0;"/><line style="stroke:#181818;stroke-width:1.0;stroke-dasharray:2.0,2.0;" x1="378.5" x2="520.5" y1="596.2344" y2="596.2344"/><text fill="#000000" font-family="sans-serif" font-size="13" font-weight="bold" lengthAdjust="spacing" textLength="14" x="390.5" y="591.3779">16</text><text fill="#000000" font-family="sans-serif" font-size="13" lengthAdjust="spacing" textLength="23" x="408.5" y="591.3779">skill</text><polygon fill="#181818" points="108.5,622.5859,98.5,626.5859,108.5,630.5859,104.5,626.5859" style="stroke:#181818;stroke-width:1.0;"/><line style="stroke:#181818;stroke-width:1.0;stroke-dasharray:2.0,2.0;" x1="102.5" x2="367.5" y1="626.5859" y2="626.5859"/><text fill="#000000" font-family="sans-serif" font-size="13" font-weight="bold" lengthAdjust="spacing" textLength="14" x="114.5" y="621.7295">17</text><text fill="#000000" font-family="sans-serif" font-size="13" lengthAdjust="spacing" textLength="158" x="132.5" y="621.7295">displays operation success</text><!--SRC=[dPJ1Rkem44Nt_eeH6q0gFz15fOgtA5AHdXAwwsRg362Hs7csKyhVlx4JGa82GlKAaZl7TwuzSGUbIxHOG66qaNjh2W9lAnAkVLEYFE2EKd_A2In9ZtgNTmLkZvavAhs3BUQEXC3A6rqLNsI5cEvLHh0rnd-P7u7I6mkJjwf03GavKrb9i4RD6zW9e8EtP2qOwvLK9MeFa-U4Tifvikb1vVd7Age-LlT4IwEzDNdU89URv7qWBurJx4MHYvhsmIbLeJrke5zYEnMVUWZu-_wwwLUuOEN2ZQeq6T4mBjgk5KA4bDGtUefX26WM_u752xSEpomyEF26ZwDk6n0q7I7YBXKjX-CIK-WiXYoOzVfdpJ1B_ofota667c5cQKkMjAGdoCX9gqglZ7u2K7fhR84vVEh-6qzohvNaDxt7MMMn_YMDytFHDJ2LbeApU3PYn5hejhLMDmOQ2-g8C-ers8N4hCvXRKubkJEAijXcHtuBqZEIxitH0RA961BghFKcZTugpYMq-Wjtoxhy-knkseg-Nc9mNDsxzxCGK3_dbZ8CEgn8OTh8zMVuZlnAEvvtIRFveBP5ZytEG1tMs2wBffTmrfUH6fHtqXpTJbntnTWmadKNQNyKHvePD1NdkIUBkCKb-glvlediUXzIpoUG9l6wtp_DKQVyJUc9c1Hu7Ln36f75NJ7BwWrZH_DhMQDghlbT9QVJ3KU81o9X-yCyskceEGzWRdn8sW7Eb2jpF3am9TMV9N2LbEJS8_GmW-8_]--></g></svg>