<?xml version="1.0" encoding="UTF-8" standalone="no"?><svg xmlns="http://www.w3.org/2000/svg" xmlns:xlink="http://www.w3.org/1999/xlink" contentStyleType="text/css" height="885px" preserveAspectRatio="none" style="width:1061px;height:885px;background:#FFFFFF;" version="1.1" viewBox="0 0 1061 885" width="1061px" zoomAndPan="magnify"><defs/><g><rect fill="#FFFFFF" height="702.1563" style="stroke:#181818;stroke-width:1.0;" width="10" x="87.5" y="92.6094"/><rect fill="#FFFFFF" height="30.3516" style="stroke:#181818;stroke-width:1.0;" width="10" x="363.5" y="114.9609"/><rect fill="#FFFFFF" height="30.3516" style="stroke:#181818;stroke-width:1.0;" width="10" x="363.5" y="175.6641"/><rect fill="#FFFFFF" height="549.3984" style="stroke:#181818;stroke-width:1.0;" width="10" x="363.5" y="236.3672"/><rect fill="#FFFFFF" height="446.0859" style="stroke:#181818;stroke-width:1.0;" width="10" x="518.5" y="309.3281"/><rect fill="#FFFFFF" height="30.3516" style="stroke:#181818;stroke-width:1.0;" width="10" x="656" y="339.6797"/><rect fill="#FFFFFF" height="30.3516" style="stroke:#181818;stroke-width:1.0;" width="10" x="763" y="400.3828"/><rect fill="#FFFFFF" height="263.9766" style="stroke:#181818;stroke-width:1.0;" width="10" x="877" y="461.0859"/><rect fill="#FFFFFF" height="128.0547" style="stroke:#181818;stroke-width:1.0;" width="10" x="882" y="559.6563"/><rect fill="#FFFFFF" height="41.3516" style="stroke:#181818;stroke-width:1.0;" width="10" x="887" y="603.0078"/><line style="stroke:#181818;stroke-width:0.5;stroke-dasharray:5.0,5.0;" x1="92" x2="92" y1="82.6094" y2="803.7656"/><line style="stroke:#181818;stroke-width:0.5;stroke-dasharray:5.0,5.0;" x1="368.5" x2="368.5" y1="82.6094" y2="803.7656"/><line style="stroke:#181818;stroke-width:0.5;stroke-dasharray:5.0,5.0;" x1="523.5" x2="523.5" y1="275.6719" y2="803.7656"/><line style="stroke:#181818;stroke-width:0.5;stroke-dasharray:5.0,5.0;" x1="660.5" x2="660.5" y1="82.6094" y2="803.7656"/><line style="stroke:#181818;stroke-width:0.5;stroke-dasharray:5.0,5.0;" x1="767.5" x2="767.5" y1="82.6094" y2="803.7656"/><line style="stroke:#181818;stroke-width:0.5;stroke-dasharray:5.0,5.0;" x1="881.5" x2="881.5" y1="82.6094" y2="803.7656"/><line style="stroke:#181818;stroke-width:0.5;stroke-dasharray:5.0,5.0;" x1="1033" x2="1033" y1="509.1953" y2="803.7656"/><text fill="#000000" font-family="sans-serif" font-size="14" lengthAdjust="spacing" textLength="169" x="5" y="79.5332">Human Resource Manager</text><ellipse cx="92.5" cy="13.5" fill="#E3E3E3" rx="8" ry="8" style="stroke:#181818;stroke-width:0.5;"/><path d="M92.5,21.5 L92.5,48.5 M79.5,29.5 L105.5,29.5 M92.5,48.5 L79.5,63.5 M92.5,48.5 L105.5,63.5 " fill="none" style="stroke:#181818;stroke-width:0.5;"/><text fill="#000000" font-family="sans-serif" font-size="14" lengthAdjust="spacing" textLength="169" x="5" y="817.2988">Human Resource Manager</text><ellipse cx="92.5" cy="828.875" fill="#E3E3E3" rx="8" ry="8" style="stroke:#181818;stroke-width:0.5;"/><path d="M92.5,836.875 L92.5,863.875 M79.5,844.875 L105.5,844.875 M92.5,863.875 L79.5,878.875 M92.5,863.875 L105.5,878.875 " fill="none" style="stroke:#181818;stroke-width:0.5;"/><rect fill="#E3E3E3" height="31.6094" rx="2.5" ry="2.5" style="stroke:#181818;stroke-width:0.5;" width="108" x="314.5" y="50"/><text fill="#000000" font-family="sans-serif" font-size="14" lengthAdjust="spacing" textLength="94" x="321.5" y="71.5332">:RegisterSkillUI</text><rect fill="#E3E3E3" height="31.6094" rx="2.5" ry="2.5" style="stroke:#181818;stroke-width:0.5;" width="108" x="314.5" y="802.7656"/><text fill="#000000" font-family="sans-serif" font-size="14" lengthAdjust="spacing" textLength="94" x="321.5" y="824.2988">:RegisterSkillUI</text><rect fill="#E3E3E3" height="31.6094" rx="2.5" ry="2.5" style="stroke:#181818;stroke-width:0.5;" width="158" x="444.5" y="802.7656"/><text fill="#000000" font-family="sans-serif" font-size="14" lengthAdjust="spacing" textLength="144" x="451.5" y="824.2988">:RegisterSkillController</text><rect fill="#E3E3E3" height="31.6094" rx="2.5" ry="2.5" style="stroke:#181818;stroke-width:0.5;" width="97" x="612.5" y="50"/><text fill="#000000" font-family="sans-serif" font-size="14" lengthAdjust="spacing" textLength="83" x="619.5" y="71.5332">:Repositories</text><rect fill="#E3E3E3" height="31.6094" rx="2.5" ry="2.5" style="stroke:#181818;stroke-width:0.5;" width="97" x="612.5" y="802.7656"/><text fill="#000000" font-family="sans-serif" font-size="14" lengthAdjust="spacing" textLength="83" x="619.5" y="824.2988">:Repositories</text><rect fill="#E3E3E3" height="49.2188" rx="2.5" ry="2.5" style="stroke:#181818;stroke-width:0.5;" width="97" x="719.5" y="32.3906"/><text fill="#000000" font-family="sans-serif" font-size="14" lengthAdjust="spacing" textLength="74" x="731" y="53.9238">repositories</text><text fill="#000000" font-family="sans-serif" font-size="14" lengthAdjust="spacing" textLength="83" x="726.5" y="71.5332">:Repositories</text><rect fill="#E3E3E3" height="49.2188" rx="2.5" ry="2.5" style="stroke:#181818;stroke-width:0.5;" width="97" x="719.5" y="802.7656"/><text fill="#000000" font-family="sans-serif" font-size="14" lengthAdjust="spacing" textLength="74" x="731" y="824.2988">repositories</text><text fill="#000000" font-family="sans-serif" font-size="14" lengthAdjust="spacing" textLength="83" x="726.5" y="841.9082">:Repositories</text><rect fill="#E3E3E3" height="49.2188" rx="2.5" ry="2.5" style="stroke:#181818;stroke-width:0.5;" width="111" x="826.5" y="32.3906"/><text fill="#000000" font-family="sans-serif" font-size="14" lengthAdjust="spacing" textLength="91" x="836.5" y="53.9238">skillRepository</text><text fill="#000000" font-family="sans-serif" font-size="14" lengthAdjust="spacing" textLength="97" x="833.5" y="71.5332">:SkillRepository</text><rect fill="#E3E3E3" height="49.2188" rx="2.5" ry="2.5" style="stroke:#181818;stroke-width:0.5;" width="111" x="826.5" y="802.7656"/><text fill="#000000" font-family="sans-serif" font-size="14" lengthAdjust="spacing" textLength="91" x="836.5" y="824.2988">skillRepository</text><text fill="#000000" font-family="sans-serif" font-size="14" lengthAdjust="spacing" textLength="97" x="833.5" y="841.9082">:SkillRepository</text><rect fill="#E3E3E3" height="49.2188" rx="2.5" ry="2.5" style="stroke:#181818;stroke-width:0.5;" width="43" x="1012" y="802.7656"/><text fill="#000000" font-family="sans-serif" font-size="14" lengthAdjust="spacing" textLength="23" x="1022" y="824.2988">skill</text><text fill="#000000" font-family="sans-serif" font-size="14" lengthAdjust="spacing" textLength="29" x="1019" y="841.9082">:Skill</text><rect fill="#FFFFFF" height="702.1563" style="stroke:#181818;stroke-width:1.0;" width="10" x="87.5" y="92.6094"/><rect fill="#FFFFFF" height="30.3516" style="stroke:#181818;stroke-width:1.0;" width="10" x="363.5" y="114.9609"/><rect fill="#FFFFFF" height="30.3516" style="stroke:#181818;stroke-width:1.0;" width="10" x="363.5" y="175.6641"/><rect fill="#FFFFFF" height="549.3984" style="stroke:#181818;stroke-width:1.0;" width="10" x="363.5" y="236.3672"/><rect fill="#FFFFFF" height="446.0859" style="stroke:#181818;stroke-width:1.0;" width="10" x="518.5" y="309.3281"/><rect fill="#FFFFFF" height="30.3516" style="stroke:#181818;stroke-width:1.0;" width="10" x="656" y="339.6797"/><rect fill="#FFFFFF" height="30.3516" style="stroke:#181818;stroke-width:1.0;" width="10" x="763" y="400.3828"/><rect fill="#FFFFFF" height="263.9766" style="stroke:#181818;stroke-width:1.0;" width="10" x="877" y="461.0859"/><rect fill="#FFFFFF" height="128.0547" style="stroke:#181818;stroke-width:1.0;" width="10" x="882" y="559.6563"/><rect fill="#FFFFFF" height="41.3516" style="stroke:#181818;stroke-width:1.0;" width="10" x="887" y="603.0078"/><polygon fill="#181818" points="351.5,110.9609,361.5,114.9609,351.5,118.9609,355.5,114.9609" style="stroke:#181818;stroke-width:1.0;"/><line style="stroke:#181818;stroke-width:1.0;" x1="97.5" x2="357.5" y1="114.9609" y2="114.9609"/><text fill="#000000" font-family="sans-serif" font-size="13" font-weight="bold" lengthAdjust="spacing" textLength="7" x="104.5" y="110.1045">1</text><text fill="#000000" font-family="sans-serif" font-size="13" lengthAdjust="spacing" textLength="155" x="115.5" y="110.1045">asks to register a new skill</text><polygon fill="#181818" points="108.5,141.3125,98.5,145.3125,108.5,149.3125,104.5,145.3125" style="stroke:#181818;stroke-width:1.0;"/><line style="stroke:#181818;stroke-width:1.0;stroke-dasharray:2.0,2.0;" x1="102.5" x2="367.5" y1="145.3125" y2="145.3125"/><text fill="#000000" font-family="sans-serif" font-size="13" font-weight="bold" lengthAdjust="spacing" textLength="7" x="114.5" y="140.4561">2</text><text fill="#000000" font-family="sans-serif" font-size="13" lengthAdjust="spacing" textLength="106" x="125.5" y="140.4561">request skill name</text><polygon fill="#181818" points="351.5,171.6641,361.5,175.6641,351.5,179.6641,355.5,175.6641" style="stroke:#181818;stroke-width:1.0;"/><line style="stroke:#181818;stroke-width:1.0;stroke-dasharray:2.0,2.0;" x1="97.5" x2="357.5" y1="175.6641" y2="175.6641"/><text fill="#000000" font-family="sans-serif" font-size="13" font-weight="bold" lengthAdjust="spacing" textLength="7" x="104.5" y="170.8076">3</text><text fill="#000000" font-family="sans-serif" font-size="13" lengthAdjust="spacing" textLength="125" x="115.5" y="170.8076">Types requested data</text><polygon fill="#181818" points="108.5,202.0156,98.5,206.0156,108.5,210.0156,104.5,206.0156" style="stroke:#181818;stroke-width:1.0;"/><line style="stroke:#181818;stroke-width:1.0;stroke-dasharray:2.0,2.0;" x1="102.5" x2="367.5" y1="206.0156" y2="206.0156"/><text fill="#000000" font-family="sans-serif" font-size="13" font-weight="bold" lengthAdjust="spacing" textLength="7" x="114.5" y="201.1592">4</text><text fill="#000000" font-family="sans-serif" font-size="13" lengthAdjust="spacing" textLength="231" x="125.5" y="201.1592">Shows all data and request confirmation</text><polygon fill="#181818" points="351.5,232.3672,361.5,236.3672,351.5,240.3672,355.5,236.3672" style="stroke:#181818;stroke-width:1.0;"/><line style="stroke:#181818;stroke-width:1.0;stroke-dasharray:2.0,2.0;" x1="97.5" x2="357.5" y1="236.3672" y2="236.3672"/><text fill="#000000" font-family="sans-serif" font-size="13" font-weight="bold" lengthAdjust="spacing" textLength="7" x="104.5" y="231.5107">5</text><text fill="#000000" font-family="sans-serif" font-size="13" lengthAdjust="spacing" textLength="71" x="115.5" y="231.5107">Confirm skill</text><polygon fill="#181818" points="432.5,262.7188,442.5,266.7188,432.5,270.7188,436.5,266.7188" style="stroke:#181818;stroke-width:1.0;"/><line style="stroke:#181818;stroke-width:1.0;" x1="373.5" x2="438.5" y1="266.7188" y2="266.7188"/><text fill="#000000" font-family="sans-serif" font-size="13" font-weight="bold" lengthAdjust="spacing" textLength="7" x="380.5" y="261.8623">6</text><text fill="#000000" font-family="sans-serif" font-size="13" lengthAdjust="spacing" textLength="36" x="391.5" y="261.8623">create</text><rect fill="#E3E3E3" height="31.6094" rx="2.5" ry="2.5" style="stroke:#181818;stroke-width:0.5;" width="158" x="444.5" y="244.3672"/><text fill="#000000" font-family="sans-serif" font-size="14" lengthAdjust="spacing" textLength="144" x="451.5" y="265.9004">:RegisterSkillController</text><polygon fill="#181818" points="506.5,305.3281,516.5,309.3281,506.5,313.3281,510.5,309.3281" style="stroke:#181818;stroke-width:1.0;"/><line style="stroke:#181818;stroke-width:1.0;" x1="373.5" x2="512.5" y1="309.3281" y2="309.3281"/><text fill="#000000" font-family="sans-serif" font-size="13" font-weight="bold" lengthAdjust="spacing" textLength="7" x="380.5" y="304.4717">7</text><text fill="#000000" font-family="sans-serif" font-size="13" lengthAdjust="spacing" textLength="113" x="391.5" y="304.4717">RegisterSkill(name)</text><polygon fill="#181818" points="644,335.6797,654,339.6797,644,343.6797,648,339.6797" style="stroke:#181818;stroke-width:1.0;"/><line style="stroke:#181818;stroke-width:1.0;" x1="528.5" x2="650" y1="339.6797" y2="339.6797"/><text fill="#000000" font-family="sans-serif" font-size="13" font-weight="bold" lengthAdjust="spacing" textLength="7" x="535.5" y="334.8232">8</text><text fill="#000000" font-family="sans-serif" font-size="13" lengthAdjust="spacing" textLength="75" x="546.5" y="334.8232">getInstance()</text><polygon fill="#181818" points="539.5,366.0313,529.5,370.0313,539.5,374.0313,535.5,370.0313" style="stroke:#181818;stroke-width:1.0;"/><line style="stroke:#181818;stroke-width:1.0;stroke-dasharray:2.0,2.0;" x1="533.5" x2="660" y1="370.0313" y2="370.0313"/><text fill="#000000" font-family="sans-serif" font-size="13" font-weight="bold" lengthAdjust="spacing" textLength="7" x="545.5" y="365.1748">9</text><text fill="#000000" font-family="sans-serif" font-size="13" lengthAdjust="spacing" textLength="67" x="556.5" y="365.1748">repositories</text><polygon fill="#181818" points="751,396.3828,761,400.3828,751,404.3828,755,400.3828" style="stroke:#181818;stroke-width:1.0;"/><line style="stroke:#181818;stroke-width:1.0;" x1="528.5" x2="757" y1="400.3828" y2="400.3828"/><text fill="#000000" font-family="sans-serif" font-size="13" font-weight="bold" lengthAdjust="spacing" textLength="14" x="535.5" y="395.5264">10</text><text fill="#000000" font-family="sans-serif" font-size="13" lengthAdjust="spacing" textLength="113" x="553.5" y="395.5264">getSkillRepository()</text><polygon fill="#181818" points="539.5,426.7344,529.5,430.7344,539.5,434.7344,535.5,430.7344" style="stroke:#181818;stroke-width:1.0;"/><line style="stroke:#181818;stroke-width:1.0;stroke-dasharray:2.0,2.0;" x1="533.5" x2="767" y1="430.7344" y2="430.7344"/><text fill="#000000" font-family="sans-serif" font-size="13" font-weight="bold" lengthAdjust="spacing" textLength="14" x="545.5" y="425.8779">11</text><text fill="#000000" font-family="sans-serif" font-size="13" lengthAdjust="spacing" textLength="85" x="563.5" y="425.8779">skillRepository</text><polygon fill="#181818" points="865,457.0859,875,461.0859,865,465.0859,869,461.0859" style="stroke:#181818;stroke-width:1.0;"/><line style="stroke:#181818;stroke-width:1.0;" x1="528.5" x2="871" y1="461.0859" y2="461.0859"/><text fill="#000000" font-family="sans-serif" font-size="13" font-weight="bold" lengthAdjust="spacing" textLength="14" x="535.5" y="456.2295">12</text><text fill="#000000" font-family="sans-serif" font-size="13" lengthAdjust="spacing" textLength="108" x="553.5" y="456.2295">registerSkill(name)</text><polygon fill="#181818" points="1000,487.4375,1010,491.4375,1000,495.4375,1004,491.4375" style="stroke:#181818;stroke-width:1.0;"/><line style="stroke:#181818;stroke-width:1.0;" x1="887" x2="1006" y1="491.4375" y2="491.4375"/><text fill="#000000" font-family="sans-serif" font-size="13" font-weight="bold" lengthAdjust="spacing" textLength="14" x="894" y="486.5811">13</text><text fill="#000000" font-family="sans-serif" font-size="13" lengthAdjust="spacing" textLength="83" x="912" y="486.5811">register(name)</text><rect fill="#E3E3E3" height="49.2188" rx="2.5" ry="2.5" style="stroke:#181818;stroke-width:0.5;" width="43" x="1012" y="469.0859"/><text fill="#000000" font-family="sans-serif" font-size="14" lengthAdjust="spacing" textLength="23" x="1022" y="490.6191">skill</text><text fill="#000000" font-family="sans-serif" font-size="14" lengthAdjust="spacing" textLength="29" x="1019" y="508.2285">:Skill</text><line style="stroke:#181818;stroke-width:1.0;" x1="887" x2="934" y1="546.6563" y2="546.6563"/><line style="stroke:#181818;stroke-width:1.0;" x1="934" x2="934" y1="546.6563" y2="559.6563"/><line style="stroke:#181818;stroke-width:1.0;" x1="893" x2="934" y1="559.6563" y2="559.6563"/><polygon fill="#181818" points="903,555.6563,893,559.6563,903,563.6563,899,559.6563" style="stroke:#181818;stroke-width:1.0;"/><text fill="#000000" font-family="sans-serif" font-size="13" font-weight="bold" lengthAdjust="spacing" textLength="14" x="899" y="541.7998">14</text><text fill="#000000" font-family="sans-serif" font-size="13" lengthAdjust="spacing" textLength="77" x="917" y="541.7998">addSkill(skill)</text><line style="stroke:#181818;stroke-width:1.0;" x1="892" x2="939" y1="590.0078" y2="590.0078"/><line style="stroke:#181818;stroke-width:1.0;" x1="939" x2="939" y1="590.0078" y2="603.0078"/><line style="stroke:#181818;stroke-width:1.0;" x1="898" x2="939" y1="603.0078" y2="603.0078"/><polygon fill="#181818" points="908,599.0078,898,603.0078,908,607.0078,904,603.0078" style="stroke:#181818;stroke-width:1.0;"/><text fill="#000000" font-family="sans-serif" font-size="13" font-weight="bold" lengthAdjust="spacing" textLength="14" x="904" y="585.1514">15</text><text fill="#000000" font-family="sans-serif" font-size="13" lengthAdjust="spacing" textLength="99" x="922" y="585.1514">validateSkill(skill)</text><line style="stroke:#181818;stroke-width:1.0;stroke-dasharray:2.0,2.0;" x1="897" x2="939" y1="643.3594" y2="643.3594"/><line style="stroke:#181818;stroke-width:1.0;stroke-dasharray:2.0,2.0;" x1="939" x2="939" y1="643.3594" y2="656.3594"/><line style="stroke:#181818;stroke-width:1.0;stroke-dasharray:2.0,2.0;" x1="892" x2="939" y1="656.3594" y2="656.3594"/><polygon fill="#181818" points="902,652.3594,892,656.3594,902,660.3594,898,656.3594" style="stroke:#181818;stroke-width:1.0;"/><text fill="#000000" font-family="sans-serif" font-size="13" font-weight="bold" lengthAdjust="spacing" textLength="14" x="904" y="638.5029">16</text><text fill="#000000" font-family="sans-serif" font-size="13" lengthAdjust="spacing" textLength="4" x="922" y="638.5029"> </text><line style="stroke:#181818;stroke-width:1.0;stroke-dasharray:2.0,2.0;" x1="892" x2="934" y1="686.7109" y2="686.7109"/><line style="stroke:#181818;stroke-width:1.0;stroke-dasharray:2.0,2.0;" x1="934" x2="934" y1="686.7109" y2="699.7109"/><line style="stroke:#181818;stroke-width:1.0;stroke-dasharray:2.0,2.0;" x1="887" x2="934" y1="699.7109" y2="699.7109"/><polygon fill="#181818" points="897,695.7109,887,699.7109,897,703.7109,893,699.7109" style="stroke:#181818;stroke-width:1.0;"/><text fill="#000000" font-family="sans-serif" font-size="13" font-weight="bold" lengthAdjust="spacing" textLength="14" x="899" y="681.8545">17</text><text fill="#000000" font-family="sans-serif" font-size="13" lengthAdjust="spacing" textLength="4" x="917" y="681.8545"> </text><polygon fill="#181818" points="539.5,721.0625,529.5,725.0625,539.5,729.0625,535.5,725.0625" style="stroke:#181818;stroke-width:1.0;"/><line style="stroke:#181818;stroke-width:1.0;stroke-dasharray:2.0,2.0;" x1="533.5" x2="881" y1="725.0625" y2="725.0625"/><text fill="#000000" font-family="sans-serif" font-size="13" font-weight="bold" lengthAdjust="spacing" textLength="14" x="545.5" y="720.2061">18</text><text fill="#000000" font-family="sans-serif" font-size="13" lengthAdjust="spacing" textLength="23" x="563.5" y="720.2061">skill</text><polygon fill="#181818" points="384.5,751.4141,374.5,755.4141,384.5,759.4141,380.5,755.4141" style="stroke:#181818;stroke-width:1.0;"/><line style="stroke:#181818;stroke-width:1.0;stroke-dasharray:2.0,2.0;" x1="378.5" x2="522.5" y1="755.4141" y2="755.4141"/><text fill="#000000" font-family="sans-serif" font-size="13" font-weight="bold" lengthAdjust="spacing" textLength="14" x="390.5" y="750.5576">19</text><text fill="#000000" font-family="sans-serif" font-size="13" lengthAdjust="spacing" textLength="23" x="408.5" y="750.5576">skill</text><polygon fill="#181818" points="108.5,781.7656,98.5,785.7656,108.5,789.7656,104.5,785.7656" style="stroke:#181818;stroke-width:1.0;"/><line style="stroke:#181818;stroke-width:1.0;stroke-dasharray:2.0,2.0;" x1="102.5" x2="367.5" y1="785.7656" y2="785.7656"/><text fill="#000000" font-family="sans-serif" font-size="13" font-weight="bold" lengthAdjust="spacing" textLength="14" x="114.5" y="780.9092">20</text><text fill="#000000" font-family="sans-serif" font-size="13" lengthAdjust="spacing" textLength="158" x="132.5" y="780.9092">displays operation success</text><!--SRC=[hLJ1Rk8m4BtxAqQzG57v0GwLAlPGf2Aj4dhhPUeCO97OMTifoz_ls86GaAH2rVe4zfitRzvanXsKBj5Y0ONHHkwjAGYyhKYuvgL4US0TfVwK4rYI7lKkRmFS7ZDpL7e7MymT2O6LDxegFiaACTchZ61hZFyqVmLARomyl5O5QaZ8cSfAWZLgJc0V01sy9cl1j5v9LQBsyB18QAUS9viUL9w_hoBgVVKTQ6cqjoRFpvJBJVBMWvV6ATQYo4LCSt5ALIYF2-Y6s5R4X-uJ_7vxsNGZN91ovUMWj7iJuz9a8Eg2hH521D_K5tgAzWWu7_u3ysSs0nOCF3ZmXXjK6m48ceuGwQuH3GyRA2RGEamoPwwNNsici_Id8kSTPEWHffQsP4bBUeACdBIgzChe9m2bjyOMcCE7xhvuadkj9BzqhhFAOlrB6kSVHLl0H5eAocAtn82qK6qZhIuCD1RK0cVKAR1D4hswcBKvbUGkL9J5CblmCPAEa7HlZWwGHKIJK6UDDcdqLh4leTGVg5lMuRUz6vKLTJr7usQp1TG-ZY6OlpChqs1XjnDDdduhmeaip3OmCao-8x_IZdU4fEbZBxQX7fgt7ZgSeIppSotXQxYEOI-yvVTWEd5R5TE6CQwhk1dMWM9wHSKTq855kldL-fkTC4hPrjvdlNGWJU90VD_DGQMyTJeWPWfyircByCmr08nvCSlgbB6caI-ed-SS_OMvuhcXdr14G_bwnA__433dW7R7XBYZJpS9wYOrGrtpt44pil-QlPCfL-PuSc1AghSfk4fASkuUzh0wn3y0]--></g></svg>