<?xml version="1.0" encoding="UTF-8" standalone="no"?><svg xmlns="http://www.w3.org/2000/svg" xmlns:xlink="http://www.w3.org/1999/xlink" contentStyleType="text/css" height="606px" preserveAspectRatio="none" style="width:852px;height:606px;background:#FFFFFF;" version="1.1" viewBox="0 0 852 606" width="852px" zoomAndPan="magnify"><defs/><g><!--class RegisterSkillUI--><g id="elem_RegisterSkillUI"><rect codeLine="11" fill="#F1F1F1" height="48" id="RegisterSkillUI" rx="2.5" ry="2.5" style="stroke:#181818;stroke-width:0.5;" width="122" x="7" y="33.5"/><ellipse cx="22" cy="49.5" fill="#ADD1B2" rx="11" ry="11" style="stroke:#181818;stroke-width:1.0;"/><path d="M24.7656,45.375 Q24.9219,45.1563 25.1094,45.0469 Q25.2969,44.9375 25.5156,44.9375 Q25.8906,44.9375 26.125,45.2031 Q26.3594,45.4531 26.3594,46.0625 L26.3594,47.5156 Q26.3594,48.125 26.125,48.3906 Q25.8906,48.6563 25.5156,48.6563 Q25.1719,48.6563 24.9688,48.4531 Q24.7656,48.2656 24.6563,47.75 Q24.6094,47.3906 24.4219,47.2031 Q24.0938,46.8281 23.4844,46.6094 Q22.875,46.3906 22.25,46.3906 Q21.4844,46.3906 20.8438,46.7188 Q20.2188,47.0469 19.7188,47.7969 Q19.2344,48.5469 19.2344,49.5781 L19.2344,50.6719 Q19.2344,51.9063 20.125,52.7344 Q21.0156,53.5469 22.6094,53.5469 Q23.5469,53.5469 24.2031,53.2969 Q24.5938,53.1406 25.0156,52.7031 Q25.2813,52.4375 25.4219,52.3594 Q25.5781,52.2813 25.7813,52.2813 Q26.1094,52.2813 26.3594,52.5469 Q26.625,52.7969 26.625,53.1406 Q26.625,53.4844 26.2813,53.8906 Q25.7813,54.4688 24.9844,54.7969 Q23.9063,55.25 22.6094,55.25 Q21.0938,55.25 19.8906,54.625 Q18.9063,54.125 18.2188,53.0625 Q17.5313,51.9844 17.5313,50.7031 L17.5313,49.5469 Q17.5313,48.2188 18.1406,47.0781 Q18.7656,45.9219 19.8594,45.3125 Q20.9531,44.6875 22.1875,44.6875 Q22.9219,44.6875 23.5625,44.8594 Q24.2188,45.0156 24.7656,45.375 Z " fill="#000000"/><text fill="#000000" font-family="sans-serif" font-size="14" lengthAdjust="spacing" textLength="90" x="36" y="55.2285">RegisterSkillUI</text><line style="stroke:#181818;stroke-width:0.5;" x1="8" x2="128" y1="65.5" y2="65.5"/><line style="stroke:#181818;stroke-width:0.5;" x1="8" x2="128" y1="73.5" y2="73.5"/></g><!--class RegisterSkillController--><g id="elem_RegisterSkillController"><rect codeLine="15" fill="#F1F1F1" height="83.2188" id="RegisterSkillController" rx="2.5" ry="2.5" style="stroke:#181818;stroke-width:0.5;" width="247" x="164.5" y="16"/><ellipse cx="213.75" cy="32" fill="#ADD1B2" rx="11" ry="11" style="stroke:#181818;stroke-width:1.0;"/><path d="M216.5156,27.875 Q216.6719,27.6563 216.8594,27.5469 Q217.0469,27.4375 217.2656,27.4375 Q217.6406,27.4375 217.875,27.7031 Q218.1094,27.9531 218.1094,28.5625 L218.1094,30.0156 Q218.1094,30.625 217.875,30.8906 Q217.6406,31.1563 217.2656,31.1563 Q216.9219,31.1563 216.7188,30.9531 Q216.5156,30.7656 216.4063,30.25 Q216.3594,29.8906 216.1719,29.7031 Q215.8438,29.3281 215.2344,29.1094 Q214.625,28.8906 214,28.8906 Q213.2344,28.8906 212.5938,29.2188 Q211.9688,29.5469 211.4688,30.2969 Q210.9844,31.0469 210.9844,32.0781 L210.9844,33.1719 Q210.9844,34.4063 211.875,35.2344 Q212.7656,36.0469 214.3594,36.0469 Q215.2969,36.0469 215.9531,35.7969 Q216.3438,35.6406 216.7656,35.2031 Q217.0313,34.9375 217.1719,34.8594 Q217.3281,34.7813 217.5313,34.7813 Q217.8594,34.7813 218.1094,35.0469 Q218.375,35.2969 218.375,35.6406 Q218.375,35.9844 218.0313,36.3906 Q217.5313,36.9688 216.7344,37.2969 Q215.6563,37.75 214.3594,37.75 Q212.8438,37.75 211.6406,37.125 Q210.6563,36.625 209.9688,35.5625 Q209.2813,34.4844 209.2813,33.2031 L209.2813,32.0469 Q209.2813,30.7188 209.8906,29.5781 Q210.5156,28.4219 211.6094,27.8125 Q212.7031,27.1875 213.9375,27.1875 Q214.6719,27.1875 215.3125,27.3594 Q215.9688,27.5156 216.5156,27.875 Z " fill="#000000"/><text fill="#000000" font-family="sans-serif" font-size="14" lengthAdjust="spacing" textLength="140" x="234.25" y="37.7285">RegisterSkillController</text><line style="stroke:#181818;stroke-width:0.5;" x1="165.5" x2="410.5" y1="48" y2="48"/><line style="stroke:#181818;stroke-width:0.5;" x1="165.5" x2="410.5" y1="56" y2="56"/><text fill="#000000" font-family="sans-serif" font-size="14" lengthAdjust="spacing" textLength="235" x="170.5" y="74.5332">+CreateSkillController(jobRepository)</text><text fill="#000000" font-family="sans-serif" font-size="14" lengthAdjust="spacing" textLength="126" x="170.5" y="92.1426">+registerSkill(name)</text></g><!--class Repositories--><g id="elem_Repositories"><rect codeLine="20" fill="#F1F1F1" height="100.8281" id="Repositories" rx="2.5" ry="2.5" style="stroke:#181818;stroke-width:0.5;" width="234" x="515" y="7"/><ellipse cx="588.25" cy="23" fill="#ADD1B2" rx="11" ry="11" style="stroke:#181818;stroke-width:1.0;"/><path d="M591.0156,18.875 Q591.1719,18.6563 591.3594,18.5469 Q591.5469,18.4375 591.7656,18.4375 Q592.1406,18.4375 592.375,18.7031 Q592.6094,18.9531 592.6094,19.5625 L592.6094,21.0156 Q592.6094,21.625 592.375,21.8906 Q592.1406,22.1563 591.7656,22.1563 Q591.4219,22.1563 591.2188,21.9531 Q591.0156,21.7656 590.9063,21.25 Q590.8594,20.8906 590.6719,20.7031 Q590.3438,20.3281 589.7344,20.1094 Q589.125,19.8906 588.5,19.8906 Q587.7344,19.8906 587.0938,20.2188 Q586.4688,20.5469 585.9688,21.2969 Q585.4844,22.0469 585.4844,23.0781 L585.4844,24.1719 Q585.4844,25.4063 586.375,26.2344 Q587.2656,27.0469 588.8594,27.0469 Q589.7969,27.0469 590.4531,26.7969 Q590.8438,26.6406 591.2656,26.2031 Q591.5313,25.9375 591.6719,25.8594 Q591.8281,25.7813 592.0313,25.7813 Q592.3594,25.7813 592.6094,26.0469 Q592.875,26.2969 592.875,26.6406 Q592.875,26.9844 592.5313,27.3906 Q592.0313,27.9688 591.2344,28.2969 Q590.1563,28.75 588.8594,28.75 Q587.3438,28.75 586.1406,28.125 Q585.1563,27.625 584.4688,26.5625 Q583.7813,25.4844 583.7813,24.2031 L583.7813,23.0469 Q583.7813,21.7188 584.3906,20.5781 Q585.0156,19.4219 586.1094,18.8125 Q587.2031,18.1875 588.4375,18.1875 Q589.1719,18.1875 589.8125,18.3594 Q590.4688,18.5156 591.0156,18.875 Z " fill="#000000"/><text fill="#000000" font-family="sans-serif" font-size="14" lengthAdjust="spacing" textLength="79" x="608.75" y="28.7285">Repositories</text><line style="stroke:#181818;stroke-width:0.5;" x1="516" x2="748" y1="39" y2="39"/><line style="stroke:#181818;stroke-width:0.5;" x1="516" x2="748" y1="47" y2="47"/><text fill="#000000" font-family="sans-serif" font-size="14" lengthAdjust="spacing" textLength="181" x="521" y="65.5332">-Repositories(): Repositories</text><text fill="#000000" font-family="sans-serif" font-size="14" lengthAdjust="spacing" textLength="182" x="521" y="83.1426">+getInstance() : Repositories</text><text fill="#000000" font-family="sans-serif" font-size="14" lengthAdjust="spacing" textLength="222" x="521" y="100.752">+getSkillRepository() : Repositories</text></g><!--class SkillRepository--><g id="elem_SkillRepository"><rect codeLine="27" fill="#F1F1F1" height="65.6094" id="SkillRepository" rx="2.5" ry="2.5" style="stroke:#181818;stroke-width:0.5;" width="125" x="406.5" y="248"/><ellipse cx="421.5" cy="264" fill="#ADD1B2" rx="11" ry="11" style="stroke:#181818;stroke-width:1.0;"/><path d="M424.2656,259.875 Q424.4219,259.6563 424.6094,259.5469 Q424.7969,259.4375 425.0156,259.4375 Q425.3906,259.4375 425.625,259.7031 Q425.8594,259.9531 425.8594,260.5625 L425.8594,262.0156 Q425.8594,262.625 425.625,262.8906 Q425.3906,263.1563 425.0156,263.1563 Q424.6719,263.1563 424.4688,262.9531 Q424.2656,262.7656 424.1563,262.25 Q424.1094,261.8906 423.9219,261.7031 Q423.5938,261.3281 422.9844,261.1094 Q422.375,260.8906 421.75,260.8906 Q420.9844,260.8906 420.3438,261.2188 Q419.7188,261.5469 419.2188,262.2969 Q418.7344,263.0469 418.7344,264.0781 L418.7344,265.1719 Q418.7344,266.4063 419.625,267.2344 Q420.5156,268.0469 422.1094,268.0469 Q423.0469,268.0469 423.7031,267.7969 Q424.0938,267.6406 424.5156,267.2031 Q424.7813,266.9375 424.9219,266.8594 Q425.0781,266.7813 425.2813,266.7813 Q425.6094,266.7813 425.8594,267.0469 Q426.125,267.2969 426.125,267.6406 Q426.125,267.9844 425.7813,268.3906 Q425.2813,268.9688 424.4844,269.2969 Q423.4063,269.75 422.1094,269.75 Q420.5938,269.75 419.3906,269.125 Q418.4063,268.625 417.7188,267.5625 Q417.0313,266.4844 417.0313,265.2031 L417.0313,264.0469 Q417.0313,262.7188 417.6406,261.5781 Q418.2656,260.4219 419.3594,259.8125 Q420.4531,259.1875 421.6875,259.1875 Q422.4219,259.1875 423.0625,259.3594 Q423.7188,259.5156 424.2656,259.875 Z " fill="#000000"/><text fill="#000000" font-family="sans-serif" font-size="14" lengthAdjust="spacing" textLength="93" x="435.5" y="269.7285">SkillRepository</text><line style="stroke:#181818;stroke-width:0.5;" x1="407.5" x2="530.5" y1="280" y2="280"/><line style="stroke:#181818;stroke-width:0.5;" x1="407.5" x2="530.5" y1="288" y2="288"/><text fill="#000000" font-family="sans-serif" font-size="14" lengthAdjust="spacing" textLength="66" x="412.5" y="306.5332">+register()</text></g><!--class Skill--><g id="elem_Skill"><rect codeLine="31" fill="#F1F1F1" height="83.2188" id="Skill" rx="2.5" ry="2.5" style="stroke:#181818;stroke-width:0.5;" width="101" x="418.5" y="516"/><ellipse cx="453.3" cy="532" fill="#ADD1B2" rx="11" ry="11" style="stroke:#181818;stroke-width:1.0;"/><path d="M456.0656,527.875 Q456.2219,527.6563 456.4094,527.5469 Q456.5969,527.4375 456.8156,527.4375 Q457.1906,527.4375 457.425,527.7031 Q457.6594,527.9531 457.6594,528.5625 L457.6594,530.0156 Q457.6594,530.625 457.425,530.8906 Q457.1906,531.1563 456.8156,531.1563 Q456.4719,531.1563 456.2688,530.9531 Q456.0656,530.7656 455.9563,530.25 Q455.9094,529.8906 455.7219,529.7031 Q455.3938,529.3281 454.7844,529.1094 Q454.175,528.8906 453.55,528.8906 Q452.7844,528.8906 452.1438,529.2188 Q451.5188,529.5469 451.0188,530.2969 Q450.5344,531.0469 450.5344,532.0781 L450.5344,533.1719 Q450.5344,534.4063 451.425,535.2344 Q452.3156,536.0469 453.9094,536.0469 Q454.8469,536.0469 455.5031,535.7969 Q455.8938,535.6406 456.3156,535.2031 Q456.5813,534.9375 456.7219,534.8594 Q456.8781,534.7813 457.0813,534.7813 Q457.4094,534.7813 457.6594,535.0469 Q457.925,535.2969 457.925,535.6406 Q457.925,535.9844 457.5813,536.3906 Q457.0813,536.9688 456.2844,537.2969 Q455.2063,537.75 453.9094,537.75 Q452.3938,537.75 451.1906,537.125 Q450.2063,536.625 449.5188,535.5625 Q448.8313,534.4844 448.8313,533.2031 L448.8313,532.0469 Q448.8313,530.7188 449.4406,529.5781 Q450.0656,528.4219 451.1594,527.8125 Q452.2531,527.1875 453.4875,527.1875 Q454.2219,527.1875 454.8625,527.3594 Q455.5188,527.5156 456.0656,527.875 Z " fill="#000000"/><text fill="#000000" font-family="sans-serif" font-size="14" lengthAdjust="spacing" textLength="25" x="471.7" y="537.7285">Skill</text><line style="stroke:#181818;stroke-width:0.5;" x1="419.5" x2="518.5" y1="548" y2="548"/><text fill="#000000" font-family="sans-serif" font-size="14" lengthAdjust="spacing" textLength="89" x="424.5" y="566.5332">-name : String</text><line style="stroke:#181818;stroke-width:0.5;" x1="419.5" x2="518.5" y1="573.6094" y2="573.6094"/><text fill="#000000" font-family="sans-serif" font-size="14" lengthAdjust="spacing" textLength="78" x="424.5" y="592.1426">+Skill(name)</text></g><!--class HRM--><g id="elem_HRM"><rect codeLine="36" fill="#F1F1F1" height="48" id="HRM" rx="2.5" ry="2.5" style="stroke:#181818;stroke-width:0.5;" width="62" x="555" y="533.5"/><ellipse cx="570" cy="549.5" fill="#ADD1B2" rx="11" ry="11" style="stroke:#181818;stroke-width:1.0;"/><path d="M572.7656,545.375 Q572.9219,545.1563 573.1094,545.0469 Q573.2969,544.9375 573.5156,544.9375 Q573.8906,544.9375 574.125,545.2031 Q574.3594,545.4531 574.3594,546.0625 L574.3594,547.5156 Q574.3594,548.125 574.125,548.3906 Q573.8906,548.6563 573.5156,548.6563 Q573.1719,548.6563 572.9688,548.4531 Q572.7656,548.2656 572.6563,547.75 Q572.6094,547.3906 572.4219,547.2031 Q572.0938,546.8281 571.4844,546.6094 Q570.875,546.3906 570.25,546.3906 Q569.4844,546.3906 568.8438,546.7188 Q568.2188,547.0469 567.7188,547.7969 Q567.2344,548.5469 567.2344,549.5781 L567.2344,550.6719 Q567.2344,551.9063 568.125,552.7344 Q569.0156,553.5469 570.6094,553.5469 Q571.5469,553.5469 572.2031,553.2969 Q572.5938,553.1406 573.0156,552.7031 Q573.2813,552.4375 573.4219,552.3594 Q573.5781,552.2813 573.7813,552.2813 Q574.1094,552.2813 574.3594,552.5469 Q574.625,552.7969 574.625,553.1406 Q574.625,553.4844 574.2813,553.8906 Q573.7813,554.4688 572.9844,554.7969 Q571.9063,555.25 570.6094,555.25 Q569.0938,555.25 567.8906,554.625 Q566.9063,554.125 566.2188,553.0625 Q565.5313,551.9844 565.5313,550.7031 L565.5313,549.5469 Q565.5313,548.2188 566.1406,547.0781 Q566.7656,545.9219 567.8594,545.3125 Q568.9531,544.6875 570.1875,544.6875 Q570.9219,544.6875 571.5625,544.8594 Q572.2188,545.0156 572.7656,545.375 Z " fill="#000000"/><text fill="#000000" font-family="sans-serif" font-size="14" lengthAdjust="spacing" textLength="30" x="584" y="555.2285">HRM</text><line style="stroke:#181818;stroke-width:0.5;" x1="556" x2="616" y1="565.5" y2="565.5"/><line style="stroke:#181818;stroke-width:0.5;" x1="556" x2="616" y1="573.5" y2="573.5"/></g><!--link RegisterSkillUI to RegisterSkillController--><g id="link_RegisterSkillUI_RegisterSkillController"><path codeLine="39" d="M129.22,57.5 C136.46,57.5 141.33,57.5 141.33,57.5 C141.33,57.5 148.79,57.5 158.95,57.5 " fill="none" id="RegisterSkillUI-to-RegisterSkillController" style="stroke:#181818;stroke-width:1.0;stroke-dasharray:7.0,7.0;"/><polygon fill="#181818" points="164.13,57.5,155.13,53.5,159.13,57.5,155.13,61.5,164.13,57.5" style="stroke:#181818;stroke-width:1.0;"/></g><!--link RegisterSkillController to Repositories--><g id="link_RegisterSkillController_Repositories"><path codeLine="40" d="M411.71,57.5 C443.61,57.5 477.93,57.5 509.76,57.5 " fill="none" id="RegisterSkillController-to-Repositories" style="stroke:#181818;stroke-width:1.0;stroke-dasharray:7.0,7.0;"/><polygon fill="#181818" points="514.85,57.5,505.85,53.5,509.85,57.5,505.85,61.5,514.85,57.5" style="stroke:#181818;stroke-width:1.0;"/><text fill="#000000" font-family="sans-serif" font-size="13" lengthAdjust="spacing" textLength="67" x="429.75" y="50.9951">repositories</text></g><!--link Repositories to SkillRepository--><g id="link_Repositories_SkillRepository"><path codeLine="41" d="M595.42,108.21 C565.2,149.27 523.01,206.61 495.84,243.52 " fill="none" id="Repositories-to-SkillRepository" style="stroke:#181818;stroke-width:1.0;"/><polygon fill="#181818" points="492.61,247.92,501.1601,243.0318,495.5687,243.8893,494.7111,238.2979,492.61,247.92" style="stroke:#181818;stroke-width:1.0;"/><text fill="#000000" font-family="sans-serif" font-size="13" lengthAdjust="spacing" textLength="7" x="489.7577" y="237.0189">1</text></g><!--link Repositories to Repositories--><g id="link_Repositories_Repositories"><path codeLine="42" d="M749.27,43.44 C769.75,45.31 784,50 784,57.5 C784,64.36 772.09,68.86 754.4,71.02 " fill="none" id="Repositories-to-Repositories" style="stroke:#181818;stroke-width:1.0;"/><polygon fill="#181818" points="749.27,71.56,758.6425,74.586,754.242,71.0314,757.7967,66.6309,749.27,71.56" style="stroke:#181818;stroke-width:1.0;"/><text fill="#000000" font-family="sans-serif" font-size="13" lengthAdjust="spacing" textLength="49" x="790" y="62.9951">instance</text></g><!--link Repositories to Skill--><g id="link_Repositories_Skill"><path codeLine="43" d="M630.75,108.07 C629.92,140.54 629,177 629,177 C629,177 629,177 629,455 C629,455 570.35,492.21 524.06,521.57 " fill="none" id="Repositories-to-Skill" style="stroke:#181818;stroke-width:1.0;"/><polygon fill="#181818" points="519.62,524.38,529.363,522.9399,523.843,521.703,525.0799,516.1831,519.62,524.38" style="stroke:#181818;stroke-width:1.0;"/><text fill="#000000" font-family="sans-serif" font-size="13" lengthAdjust="spacing" textLength="7" x="623.1117" y="129.4706">1</text><text fill="#000000" font-family="sans-serif" font-size="13" lengthAdjust="spacing" textLength="5" x="527.422" y="515.8454">*</text></g><!--link SkillRepository to Skill--><g id="link_SkillRepository_Skill"><path codeLine="45" d="M469,314.03 C469,362.53 469,454.84 469,510.51 " fill="none" id="SkillRepository-to-Skill" style="stroke:#181818;stroke-width:1.0;"/><polygon fill="#181818" points="469,515.78,473,506.78,469,510.78,465,506.78,469,515.78" style="stroke:#181818;stroke-width:1.0;"/><text fill="#000000" font-family="sans-serif" font-size="13" lengthAdjust="spacing" textLength="5" x="463.5859" y="505.0512">*</text></g><!--reverse link Skill to HRM--><g id="link_Skill_HRM"><path codeLine="46" d="M524.94,557.5 C535.47,557.5 547,557.5 547,557.5 C547,557.5 550.26,557.5 554.89,557.5 " fill="none" id="Skill-backto-HRM" style="stroke:#181818;stroke-width:1.0;"/><polygon fill="#181818" points="519.91,557.5,528.91,561.5,524.91,557.5,528.91,553.5,519.91,557.5" style="stroke:#181818;stroke-width:1.0;"/><text fill="#000000" font-family="sans-serif" font-size="13" lengthAdjust="spacing" textLength="5" x="527.4208" y="553.8795">*</text><text fill="#000000" font-family="sans-serif" font-size="13" lengthAdjust="spacing" textLength="7" x="539.8864" y="553.1858">1</text></g><!--link RegisterSkillController to Skill--><g id="link_RegisterSkillController_Skill"><path codeLine="47" d="M295.57,99.28 C301.93,133.56 310,177 310,177 C310,177 310,177 310,455 C310,455 367.92,491.98 413.85,521.29 " fill="none" id="RegisterSkillController-to-Skill" style="stroke:#181818;stroke-width:1.0;stroke-dasharray:7.0,7.0;"/><polygon fill="#181818" points="418.25,524.11,412.8099,515.8999,414.0335,521.4228,408.5105,522.6464,418.25,524.11" style="stroke:#181818;stroke-width:1.0;"/><text fill="#000000" font-family="sans-serif" font-size="13" lengthAdjust="spacing" textLength="23" x="311" y="358.4951">skill</text></g><!--link RegisterSkillController to SkillRepository--><g id="link_RegisterSkillController_SkillRepository"><path codeLine="48" d="M321.2,99.13 C354.97,140.46 406.84,203.93 439.29,243.65 " fill="none" id="RegisterSkillController-to-SkillRepository" style="stroke:#181818;stroke-width:1.0;stroke-dasharray:7.0,7.0;"/><polygon fill="#181818" points="442.76,247.89,440.151,238.393,439.5915,244.0221,433.9624,243.4626,442.76,247.89" style="stroke:#181818;stroke-width:1.0;"/><text fill="#000000" font-family="sans-serif" font-size="13" lengthAdjust="spacing" textLength="85" x="394" y="183.4951">skillRepository</text><text fill="#000000" font-family="sans-serif" font-size="13" lengthAdjust="spacing" textLength="7" x="429.6261" y="236.9827">1</text></g><!--SRC=[XL3BRi8m4BpxArPSI8eIjLSEI1MNSkY5g1zWmX9S76zaBwfInB_N2Q690xIvPUVXcPcwWpALjBA4aWpbUqib0jiZYXwfP7wG1MPSQmIBEKjJw271xUMMlfGfO2Ur6o9Q6UIwGgX8rysFcDu1oJA9WIhNqhbNPgisHyPLJYPJtmZFGamrxXYOmAfYpx1LJHn5HeXM0siib6EqsK5f_R4wYREu2ot9i2MjqPu40CoM5YNZ28e-QRF6YfnYidNS4ktG9JAoH7y_zszqR8KEMcT8WcCKpuF_bZA30dbbdDyrnoY6HvJspJxGBRClEw9sMMPmZH_5uXnmkx1D8U-Q-UbDST4Cc_vgtjRlxRQZlI5TFDfPFBX3cgPs4Iutzpa7jG8iIP85J5ucuueZresZwlODUOrHQ_ZK6GendYw4VV6BI0VdFyhvRm4Nce_X_gFVBNSL3kh-0000]--></g></svg>