<?xml version="1.0" encoding="UTF-8" standalone="no"?><svg xmlns="http://www.w3.org/2000/svg" xmlns:xlink="http://www.w3.org/1999/xlink" contentStyleType="text/css" height="473px" preserveAspectRatio="none" style="width:419px;height:473px;background:#FFFFFF;" version="1.1" viewBox="0 0 419 473" width="419px" zoomAndPan="magnify"><defs/><g><text fill="#000000" font-family="sans-serif" font-size="14" font-weight="bold" lengthAdjust="spacing" textLength="341" x="38" y="29.5332">System Sequence Diagram (SSD) - Main Scenario</text><rect fill="#FFFFFF" height="215.8125" style="stroke:#181818;stroke-width:1.0;" width="10" x="61" y="148.8281"/><rect fill="#FFFFFF" height="63.0547" style="stroke:#181818;stroke-width:1.0;" width="10" x="376" y="171.1797"/><rect fill="#FFFFFF" height="30.3516" style="stroke:#181818;stroke-width:1.0;" width="10" x="376" y="264.5859"/><rect fill="#FFFFFF" height="30.3516" style="stroke:#181818;stroke-width:1.0;" width="10" x="376" y="325.2891"/><line style="stroke:#181818;stroke-width:0.5;stroke-dasharray:5.0,5.0;" x1="66" x2="66" y1="138.8281" y2="373.6406"/><line style="stroke:#181818;stroke-width:0.5;stroke-dasharray:5.0,5.0;" x1="381" x2="381" y1="138.8281" y2="373.6406"/><text fill="#000000" font-family="sans-serif" font-size="14" lengthAdjust="spacing" textLength="116" x="5" y="118.1426">Human Resources</text><text fill="#000000" font-family="sans-serif" font-size="14" lengthAdjust="spacing" textLength="56" x="35" y="135.752">Manager</text><ellipse cx="66" cy="52.1094" fill="#E3E3E3" rx="8" ry="8" style="stroke:#181818;stroke-width:0.5;"/><path d="M66,60.1094 L66,87.1094 M53,68.1094 L79,68.1094 M66,87.1094 L53,102.1094 M66,87.1094 L79,102.1094 " fill="none" style="stroke:#181818;stroke-width:0.5;"/><text fill="#000000" font-family="sans-serif" font-size="14" lengthAdjust="spacing" textLength="116" x="5" y="387.1738">Human Resources</text><text fill="#000000" font-family="sans-serif" font-size="14" lengthAdjust="spacing" textLength="56" x="35" y="404.7832">Manager</text><ellipse cx="66" cy="416.3594" fill="#E3E3E3" rx="8" ry="8" style="stroke:#181818;stroke-width:0.5;"/><path d="M66,424.3594 L66,451.3594 M53,432.3594 L79,432.3594 M66,451.3594 L53,466.3594 M66,451.3594 L79,466.3594 " fill="none" style="stroke:#181818;stroke-width:0.5;"/><rect fill="#E3E3E3" height="31.6094" rx="2.5" ry="2.5" style="stroke:#181818;stroke-width:0.5;" width="64" x="349" y="106.2188"/><text fill="#000000" font-family="sans-serif" font-size="14" lengthAdjust="spacing" textLength="50" x="356" y="127.752">:System</text><rect fill="#E3E3E3" height="31.6094" rx="2.5" ry="2.5" style="stroke:#181818;stroke-width:0.5;" width="64" x="349" y="372.6406"/><text fill="#000000" font-family="sans-serif" font-size="14" lengthAdjust="spacing" textLength="50" x="356" y="394.1738">:System</text><rect fill="#FFFFFF" height="215.8125" style="stroke:#181818;stroke-width:1.0;" width="10" x="61" y="148.8281"/><rect fill="#FFFFFF" height="63.0547" style="stroke:#181818;stroke-width:1.0;" width="10" x="376" y="171.1797"/><rect fill="#FFFFFF" height="30.3516" style="stroke:#181818;stroke-width:1.0;" width="10" x="376" y="264.5859"/><rect fill="#FFFFFF" height="30.3516" style="stroke:#181818;stroke-width:1.0;" width="10" x="376" y="325.2891"/><polygon fill="#181818" points="364,167.1797,374,171.1797,364,175.1797,368,171.1797" style="stroke:#181818;stroke-width:1.0;"/><line style="stroke:#181818;stroke-width:1.0;" x1="71" x2="370" y1="171.1797" y2="171.1797"/><text fill="#000000" font-family="sans-serif" font-size="13" font-weight="bold" lengthAdjust="spacing" textLength="7" x="78" y="166.3232">1</text><text fill="#000000" font-family="sans-serif" font-size="13" lengthAdjust="spacing" textLength="154" x="89" y="166.3232">1.ask to add a collaborator</text><polygon fill="#181818" points="82,230.2344,72,234.2344,82,238.2344,78,234.2344" style="stroke:#181818;stroke-width:1.0;"/><line style="stroke:#181818;stroke-width:1.0;stroke-dasharray:2.0,2.0;" x1="76" x2="380" y1="234.2344" y2="234.2344"/><text fill="#000000" font-family="sans-serif" font-size="13" font-weight="bold" lengthAdjust="spacing" textLength="7" x="88" y="213.0264">2</text><text fill="#000000" font-family="sans-serif" font-size="13" lengthAdjust="spacing" textLength="266" x="99" y="196.6748">requests data (i.e. name, birthdate, admission</text><text fill="#000000" font-family="sans-serif" font-size="13" lengthAdjust="spacing" textLength="268" x="99" y="213.0264">date, address, contact info (mobile and email),</text><text fill="#000000" font-family="sans-serif" font-size="13" lengthAdjust="spacing" textLength="200" x="103" y="229.3779">ID doc type and respective number</text><polygon fill="#181818" points="364,260.5859,374,264.5859,364,268.5859,368,264.5859" style="stroke:#181818;stroke-width:1.0;"/><line style="stroke:#181818;stroke-width:1.0;" x1="71" x2="370" y1="264.5859" y2="264.5859"/><text fill="#000000" font-family="sans-serif" font-size="13" font-weight="bold" lengthAdjust="spacing" textLength="7" x="78" y="259.7295">3</text><text fill="#000000" font-family="sans-serif" font-size="13" lengthAdjust="spacing" textLength="122" x="89" y="259.7295">types requested data</text><polygon fill="#181818" points="82,290.9375,72,294.9375,82,298.9375,78,294.9375" style="stroke:#181818;stroke-width:1.0;"/><line style="stroke:#181818;stroke-width:1.0;stroke-dasharray:2.0,2.0;" x1="76" x2="380" y1="294.9375" y2="294.9375"/><text fill="#000000" font-family="sans-serif" font-size="13" font-weight="bold" lengthAdjust="spacing" textLength="7" x="88" y="290.0811">4</text><text fill="#000000" font-family="sans-serif" font-size="13" lengthAdjust="spacing" textLength="236" x="99" y="290.0811">shows all data and requests confirmation</text><polygon fill="#181818" points="364,321.2891,374,325.2891,364,329.2891,368,325.2891" style="stroke:#181818;stroke-width:1.0;"/><line style="stroke:#181818;stroke-width:1.0;" x1="71" x2="370" y1="325.2891" y2="325.2891"/><text fill="#000000" font-family="sans-serif" font-size="13" font-weight="bold" lengthAdjust="spacing" textLength="7" x="78" y="320.4326">5</text><text fill="#000000" font-family="sans-serif" font-size="13" lengthAdjust="spacing" textLength="78" x="89" y="320.4326">confirms data</text><polygon fill="#181818" points="82,351.6406,72,355.6406,82,359.6406,78,355.6406" style="stroke:#181818;stroke-width:1.0;"/><line style="stroke:#181818;stroke-width:1.0;stroke-dasharray:2.0,2.0;" x1="76" x2="380" y1="355.6406" y2="355.6406"/><text fill="#000000" font-family="sans-serif" font-size="13" font-weight="bold" lengthAdjust="spacing" textLength="7" x="88" y="350.7842">6</text><text fill="#000000" font-family="sans-serif" font-size="13" lengthAdjust="spacing" textLength="158" x="99" y="350.7842">displays operation success</text><!--SRC=[dP8nZnen48Nx_HLFL9m4I6afKX4fAQx9jZI3FO25FRFnU7FYtsTWMPBYaYXnDRPddh_tPBia6QXIGL7HSAvQ6AsEtDdpPg1meHFtxPePbKCZEULV6-nCKT-Id72aRDnrBJLlxQ_MkA3dRoDBOEmIdMxjoxxVlM2DLqg2Fh1GJTfrD3QLiHouUXsQLYm-ZuK4Nzbqh85jBwyaJb8N8CEdCcIzCdSEqL980qd3OZkzUk-OohjQ-awDVuvqy3NliFuuisxnOKDsGLDGZ204pPaEMibvfgcdsAoEntf8h5tjgRprlDozDKEaHbYc3MyWL7Y5GwhjxATUKYp9BAbWB_D9h6osSW1f_YII71NBeeVaoP94SA6KNrPxmPSTeWQqwp3T-E30Dqh6dEUDB_AxwE-cSDEocPtZ7Vv_tFlNq3S3vJpvd_0UYRYrOwg5cXl_PyB7iFq1xMzmCTcGwMhGWUkT0ZO6_sVs6veV]--></g></svg>