<?xml version="1.0" encoding="UTF-8" standalone="no"?><svg xmlns="http://www.w3.org/2000/svg" xmlns:xlink="http://www.w3.org/1999/xlink" contentStyleType="text/css" height="1487px" preserveAspectRatio="none" style="width:2086px;height:1487px;background:#FFFFFF;" version="1.1" viewBox="0 0 2086 1487" width="2086px" zoomAndPan="magnify"><defs/><g><rect fill="#FFFFFF" height="1294.6719" style="stroke:#181818;stroke-width:1.0;" width="10" x="49" y="92.6094"/><rect fill="#FFFFFF" height="30.3516" style="stroke:#181818;stroke-width:1.0;" width="10" x="325" y="114.9609"/><rect fill="#FFFFFF" height="30.3516" style="stroke:#181818;stroke-width:1.0;" width="10" x="325" y="175.6641"/><rect fill="#FFFFFF" height="1150.9141" style="stroke:#181818;stroke-width:1.0;" width="10" x="325" y="236.3672"/><rect fill="#FFFFFF" height="599.3281" style="stroke:#181818;stroke-width:1.0;" width="10" x="652" y="309.3281"/><rect fill="#FFFFFF" height="498.625" style="stroke:#181818;stroke-width:1.0;" width="10" x="657" y="372.6797"/><rect fill="#FFFFFF" height="385.2188" style="stroke:#181818;stroke-width:1.0;" width="10" x="652" y="971.7109"/><rect fill="#FFFFFF" height="30.3516" style="stroke:#181818;stroke-width:1.0;" width="10" x="844" y="590.1406"/><rect fill="#FFFFFF" height="30.3516" style="stroke:#181818;stroke-width:1.0;" width="10" x="951" y="650.8438"/><rect fill="#FFFFFF" height="30.3516" style="stroke:#181818;stroke-width:1.0;" width="10" x="1078" y="408.0313"/><rect fill="#FFFFFF" height="30.3516" style="stroke:#181818;stroke-width:1.0;" width="10" x="1225" y="468.7344"/><rect fill="#FFFFFF" height="30.3516" style="stroke:#181818;stroke-width:1.0;" width="10" x="1358" y="529.4375"/><rect fill="#FFFFFF" height="123.4063" style="stroke:#181818;stroke-width:1.0;" width="10" x="1504" y="711.5469"/><rect fill="#FFFFFF" height="30.3516" style="stroke:#181818;stroke-width:1.0;" width="10" x="1725" y="767.25"/><rect fill="#FFFFFF" height="266.8125" style="stroke:#181818;stroke-width:1.0;" width="10" x="1725" y="1059.7656"/><rect fill="#FFFFFF" height="128.0547" style="stroke:#181818;stroke-width:1.0;" width="10" x="1730" y="1161.1719"/><rect fill="#FFFFFF" height="41.3516" style="stroke:#181818;stroke-width:1.0;" width="10" x="1735" y="1204.5234"/><rect fill="none" height="79.0547" style="stroke:#000000;stroke-width:1.5;" width="371.5" x="1417.5" y="726.5469"/><line style="stroke:#181818;stroke-width:0.5;stroke-dasharray:5.0,5.0;" x1="54" x2="54" y1="82.6094" y2="1405.2813"/><line style="stroke:#181818;stroke-width:0.5;stroke-dasharray:5.0,5.0;" x1="329.5" x2="329.5" y1="82.6094" y2="1405.2813"/><line style="stroke:#181818;stroke-width:0.5;stroke-dasharray:5.0,5.0;" x1="656.5" x2="656.5" y1="275.6719" y2="1405.2813"/><line style="stroke:#181818;stroke-width:0.5;stroke-dasharray:5.0,5.0;" x1="848.5" x2="848.5" y1="82.6094" y2="1405.2813"/><line style="stroke:#181818;stroke-width:0.5;stroke-dasharray:5.0,5.0;" x1="955.5" x2="955.5" y1="82.6094" y2="1405.2813"/><line style="stroke:#181818;stroke-width:0.5;stroke-dasharray:5.0,5.0;" x1="1082.5" x2="1082.5" y1="82.6094" y2="1405.2813"/><line style="stroke:#181818;stroke-width:0.5;stroke-dasharray:5.0,5.0;" x1="1229.5" x2="1229.5" y1="82.6094" y2="1405.2813"/><line style="stroke:#181818;stroke-width:0.5;stroke-dasharray:5.0,5.0;" x1="1362.5" x2="1362.5" y1="82.6094" y2="1405.2813"/><line style="stroke:#181818;stroke-width:0.5;stroke-dasharray:5.0,5.0;" x1="1508.5" x2="1508.5" y1="82.6094" y2="1405.2813"/><line style="stroke:#181818;stroke-width:0.5;stroke-dasharray:5.0,5.0;" x1="1730" x2="1730" y1="82.6094" y2="1405.2813"/><line style="stroke:#181818;stroke-width:0.5;stroke-dasharray:5.0,5.0;" x1="2048" x2="2048" y1="1109.293" y2="1405.2813"/><text fill="#000000" font-family="sans-serif" font-size="14" lengthAdjust="spacing" textLength="92" x="5" y="79.5332">Fleet Manager</text><ellipse cx="54" cy="13.5" fill="#E3E3E3" rx="8" ry="8" style="stroke:#181818;stroke-width:0.5;"/><path d="M54,21.5 L54,48.5 M41,29.5 L67,29.5 M54,48.5 L41,63.5 M54,48.5 L67,63.5 " fill="none" style="stroke:#181818;stroke-width:0.5;"/><text fill="#000000" font-family="sans-serif" font-size="14" lengthAdjust="spacing" textLength="92" x="5" y="1418.8145">Fleet Manager</text><ellipse cx="54" cy="1430.3906" fill="#E3E3E3" rx="8" ry="8" style="stroke:#181818;stroke-width:0.5;"/><path d="M54,1438.3906 L54,1465.3906 M41,1446.3906 L67,1446.3906 M54,1465.3906 L41,1480.3906 M54,1465.3906 L67,1480.3906 " fill="none" style="stroke:#181818;stroke-width:0.5;"/><rect fill="#E3E3E3" height="31.6094" rx="2.5" ry="2.5" style="stroke:#181818;stroke-width:0.5;" width="129" x="265.5" y="50"/><text fill="#000000" font-family="sans-serif" font-size="14" lengthAdjust="spacing" textLength="115" x="272.5" y="71.5332">:RegisterVehicleUI</text><rect fill="#E3E3E3" height="31.6094" rx="2.5" ry="2.5" style="stroke:#181818;stroke-width:0.5;" width="129" x="265.5" y="1404.2813"/><text fill="#000000" font-family="sans-serif" font-size="14" lengthAdjust="spacing" textLength="115" x="272.5" y="1425.8145">:RegisterVehicleUI</text><rect fill="#E3E3E3" height="31.6094" rx="2.5" ry="2.5" style="stroke:#181818;stroke-width:0.5;" width="179" x="567.5" y="1404.2813"/><text fill="#000000" font-family="sans-serif" font-size="14" lengthAdjust="spacing" textLength="165" x="574.5" y="1425.8145">:RegisterVehicleController</text><rect fill="#E3E3E3" height="31.6094" rx="2.5" ry="2.5" style="stroke:#181818;stroke-width:0.5;" width="97" x="800.5" y="50"/><text fill="#000000" font-family="sans-serif" font-size="14" lengthAdjust="spacing" textLength="83" x="807.5" y="71.5332">:Repositories</text><rect fill="#E3E3E3" height="31.6094" rx="2.5" ry="2.5" style="stroke:#181818;stroke-width:0.5;" width="97" x="800.5" y="1404.2813"/><text fill="#000000" font-family="sans-serif" font-size="14" lengthAdjust="spacing" textLength="83" x="807.5" y="1425.8145">:Repositories</text><rect fill="#E3E3E3" height="49.2188" rx="2.5" ry="2.5" style="stroke:#181818;stroke-width:0.5;" width="97" x="907.5" y="32.3906"/><text fill="#000000" font-family="sans-serif" font-size="14" lengthAdjust="spacing" textLength="74" x="919" y="53.9238">repositories</text><text fill="#000000" font-family="sans-serif" font-size="14" lengthAdjust="spacing" textLength="83" x="914.5" y="71.5332">:Repositories</text><rect fill="#E3E3E3" height="49.2188" rx="2.5" ry="2.5" style="stroke:#181818;stroke-width:0.5;" width="97" x="907.5" y="1404.2813"/><text fill="#000000" font-family="sans-serif" font-size="14" lengthAdjust="spacing" textLength="74" x="919" y="1425.8145">repositories</text><text fill="#000000" font-family="sans-serif" font-size="14" lengthAdjust="spacing" textLength="83" x="914.5" y="1443.4238">:Repositories</text><rect fill="#E3E3E3" height="31.6094" rx="2.5" ry="2.5" style="stroke:#181818;stroke-width:0.5;" width="137" x="1014.5" y="50"/><text fill="#000000" font-family="sans-serif" font-size="14" lengthAdjust="spacing" textLength="123" x="1021.5" y="71.5332">:ApplicationSession</text><rect fill="#E3E3E3" height="31.6094" rx="2.5" ry="2.5" style="stroke:#181818;stroke-width:0.5;" width="137" x="1014.5" y="1404.2813"/><text fill="#000000" font-family="sans-serif" font-size="14" lengthAdjust="spacing" textLength="123" x="1021.5" y="1425.8145">:ApplicationSession</text><rect fill="#E3E3E3" height="49.2188" rx="2.5" ry="2.5" style="stroke:#181818;stroke-width:0.5;" width="137" x="1161.5" y="32.3906"/><text fill="#000000" font-family="sans-serif" font-size="14" lengthAdjust="spacing" textLength="74" x="1193" y="53.9238">appSession</text><text fill="#000000" font-family="sans-serif" font-size="14" lengthAdjust="spacing" textLength="123" x="1168.5" y="71.5332">:ApplicationSession</text><rect fill="#E3E3E3" height="49.2188" rx="2.5" ry="2.5" style="stroke:#181818;stroke-width:0.5;" width="137" x="1161.5" y="1404.2813"/><text fill="#000000" font-family="sans-serif" font-size="14" lengthAdjust="spacing" textLength="74" x="1193" y="1425.8145">appSession</text><text fill="#000000" font-family="sans-serif" font-size="14" lengthAdjust="spacing" textLength="123" x="1168.5" y="1443.4238">:ApplicationSession</text><rect fill="#E3E3E3" height="49.2188" rx="2.5" ry="2.5" style="stroke:#181818;stroke-width:0.5;" width="109" x="1308.5" y="32.3906"/><text fill="#000000" font-family="sans-serif" font-size="14" lengthAdjust="spacing" textLength="95" x="1315.5" y="53.9238">currentSession</text><text fill="#000000" font-family="sans-serif" font-size="14" lengthAdjust="spacing" textLength="83" x="1321.5" y="71.5332">:UserSession</text><rect fill="#E3E3E3" height="49.2188" rx="2.5" ry="2.5" style="stroke:#181818;stroke-width:0.5;" width="109" x="1308.5" y="1404.2813"/><text fill="#000000" font-family="sans-serif" font-size="14" lengthAdjust="spacing" textLength="95" x="1315.5" y="1425.8145">currentSession</text><text fill="#000000" font-family="sans-serif" font-size="14" lengthAdjust="spacing" textLength="83" x="1321.5" y="1443.4238">:UserSession</text><rect fill="#E3E3E3" height="49.2188" rx="2.5" ry="2.5" style="stroke:#181818;stroke-width:0.5;" width="163" x="1427.5" y="32.3906"/><text fill="#000000" font-family="sans-serif" font-size="14" lengthAdjust="spacing" textLength="149" x="1434.5" y="53.9238">organizationRepository:</text><text fill="#000000" font-family="sans-serif" font-size="14" lengthAdjust="spacing" textLength="148" x="1435" y="71.5332">OrganizationRepository</text><rect fill="#E3E3E3" height="49.2188" rx="2.5" ry="2.5" style="stroke:#181818;stroke-width:0.5;" width="163" x="1427.5" y="1404.2813"/><text fill="#000000" font-family="sans-serif" font-size="14" lengthAdjust="spacing" textLength="149" x="1434.5" y="1425.8145">organizationRepository:</text><text fill="#000000" font-family="sans-serif" font-size="14" lengthAdjust="spacing" textLength="148" x="1435" y="1443.4238">OrganizationRepository</text><rect fill="#E3E3E3" height="49.2188" rx="2.5" ry="2.5" style="stroke:#181818;stroke-width:0.5;" width="98" x="1681" y="32.3906"/><text fill="#000000" font-family="sans-serif" font-size="14" lengthAdjust="spacing" textLength="77" x="1691.5" y="53.9238">organization</text><text fill="#000000" font-family="sans-serif" font-size="14" lengthAdjust="spacing" textLength="84" x="1688" y="71.5332">:Organization</text><rect fill="#E3E3E3" height="49.2188" rx="2.5" ry="2.5" style="stroke:#181818;stroke-width:0.5;" width="98" x="1681" y="1404.2813"/><text fill="#000000" font-family="sans-serif" font-size="14" lengthAdjust="spacing" textLength="77" x="1691.5" y="1425.8145">organization</text><text fill="#000000" font-family="sans-serif" font-size="14" lengthAdjust="spacing" textLength="84" x="1688" y="1443.4238">:Organization</text><rect fill="#E3E3E3" height="49.2188" rx="2.5" ry="2.5" style="stroke:#181818;stroke-width:0.5;" width="64" x="2016" y="1404.2813"/><text fill="#000000" font-family="sans-serif" font-size="14" lengthAdjust="spacing" textLength="44" x="2024" y="1425.8145">vehicle</text><text fill="#000000" font-family="sans-serif" font-size="14" lengthAdjust="spacing" textLength="50" x="2023" y="1443.4238">:Vehicle</text><rect fill="#FFFFFF" height="1294.6719" style="stroke:#181818;stroke-width:1.0;" width="10" x="49" y="92.6094"/><rect fill="#FFFFFF" height="30.3516" style="stroke:#181818;stroke-width:1.0;" width="10" x="325" y="114.9609"/><rect fill="#FFFFFF" height="30.3516" style="stroke:#181818;stroke-width:1.0;" width="10" x="325" y="175.6641"/><rect fill="#FFFFFF" height="1150.9141" style="stroke:#181818;stroke-width:1.0;" width="10" x="325" y="236.3672"/><rect fill="#FFFFFF" height="599.3281" style="stroke:#181818;stroke-width:1.0;" width="10" x="652" y="309.3281"/><rect fill="#FFFFFF" height="498.625" style="stroke:#181818;stroke-width:1.0;" width="10" x="657" y="372.6797"/><rect fill="#FFFFFF" height="385.2188" style="stroke:#181818;stroke-width:1.0;" width="10" x="652" y="971.7109"/><rect fill="#FFFFFF" height="30.3516" style="stroke:#181818;stroke-width:1.0;" width="10" x="844" y="590.1406"/><rect fill="#FFFFFF" height="30.3516" style="stroke:#181818;stroke-width:1.0;" width="10" x="951" y="650.8438"/><rect fill="#FFFFFF" height="30.3516" style="stroke:#181818;stroke-width:1.0;" width="10" x="1078" y="408.0313"/><rect fill="#FFFFFF" height="30.3516" style="stroke:#181818;stroke-width:1.0;" width="10" x="1225" y="468.7344"/><rect fill="#FFFFFF" height="30.3516" style="stroke:#181818;stroke-width:1.0;" width="10" x="1358" y="529.4375"/><rect fill="#FFFFFF" height="123.4063" style="stroke:#181818;stroke-width:1.0;" width="10" x="1504" y="711.5469"/><rect fill="#FFFFFF" height="30.3516" style="stroke:#181818;stroke-width:1.0;" width="10" x="1725" y="767.25"/><rect fill="#FFFFFF" height="266.8125" style="stroke:#181818;stroke-width:1.0;" width="10" x="1725" y="1059.7656"/><rect fill="#FFFFFF" height="128.0547" style="stroke:#181818;stroke-width:1.0;" width="10" x="1730" y="1161.1719"/><rect fill="#FFFFFF" height="41.3516" style="stroke:#181818;stroke-width:1.0;" width="10" x="1735" y="1204.5234"/><polygon fill="#181818" points="313,110.9609,323,114.9609,313,118.9609,317,114.9609" style="stroke:#181818;stroke-width:1.0;"/><line style="stroke:#181818;stroke-width:1.0;" x1="59" x2="319" y1="114.9609" y2="114.9609"/><text fill="#000000" font-family="sans-serif" font-size="13" font-weight="bold" lengthAdjust="spacing" textLength="7" x="66" y="110.1045">1</text><text fill="#000000" font-family="sans-serif" font-size="13" lengthAdjust="spacing" textLength="160" x="77" y="110.1045">asks to register new vehicle</text><polygon fill="#181818" points="70,141.3125,60,145.3125,70,149.3125,66,145.3125" style="stroke:#181818;stroke-width:1.0;"/><line style="stroke:#181818;stroke-width:1.0;stroke-dasharray:2.0,2.0;" x1="64" x2="329" y1="145.3125" y2="145.3125"/><text fill="#000000" font-family="sans-serif" font-size="13" font-weight="bold" lengthAdjust="spacing" textLength="7" x="76" y="140.4561">2</text><text fill="#000000" font-family="sans-serif" font-size="13" lengthAdjust="spacing" textLength="167" x="87" y="140.4561">requests required information</text><polygon fill="#181818" points="313,171.6641,323,175.6641,313,179.6641,317,175.6641" style="stroke:#181818;stroke-width:1.0;"/><line style="stroke:#181818;stroke-width:1.0;stroke-dasharray:2.0,2.0;" x1="59" x2="319" y1="175.6641" y2="175.6641"/><text fill="#000000" font-family="sans-serif" font-size="13" font-weight="bold" lengthAdjust="spacing" textLength="7" x="66" y="170.8076">3</text><text fill="#000000" font-family="sans-serif" font-size="13" lengthAdjust="spacing" textLength="125" x="77" y="170.8076">Types requested data</text><polygon fill="#181818" points="70,202.0156,60,206.0156,70,210.0156,66,206.0156" style="stroke:#181818;stroke-width:1.0;"/><line style="stroke:#181818;stroke-width:1.0;stroke-dasharray:2.0,2.0;" x1="64" x2="329" y1="206.0156" y2="206.0156"/><text fill="#000000" font-family="sans-serif" font-size="13" font-weight="bold" lengthAdjust="spacing" textLength="7" x="76" y="201.1592">4</text><text fill="#000000" font-family="sans-serif" font-size="13" lengthAdjust="spacing" textLength="231" x="87" y="201.1592">Shows all data and request confirmation</text><polygon fill="#181818" points="313,232.3672,323,236.3672,313,240.3672,317,236.3672" style="stroke:#181818;stroke-width:1.0;"/><line style="stroke:#181818;stroke-width:1.0;stroke-dasharray:2.0,2.0;" x1="59" x2="319" y1="236.3672" y2="236.3672"/><text fill="#000000" font-family="sans-serif" font-size="13" font-weight="bold" lengthAdjust="spacing" textLength="7" x="66" y="231.5107">5</text><text fill="#000000" font-family="sans-serif" font-size="13" lengthAdjust="spacing" textLength="87" x="77" y="231.5107">Confirm vehicle</text><polygon fill="#181818" points="555.5,262.7188,565.5,266.7188,555.5,270.7188,559.5,266.7188" style="stroke:#181818;stroke-width:1.0;"/><line style="stroke:#181818;stroke-width:1.0;" x1="335" x2="561.5" y1="266.7188" y2="266.7188"/><text fill="#000000" font-family="sans-serif" font-size="13" font-weight="bold" lengthAdjust="spacing" textLength="7" x="342" y="261.8623">6</text><text fill="#000000" font-family="sans-serif" font-size="13" lengthAdjust="spacing" textLength="36" x="353" y="261.8623">create</text><rect fill="#E3E3E3" height="31.6094" rx="2.5" ry="2.5" style="stroke:#181818;stroke-width:0.5;" width="179" x="567.5" y="244.3672"/><text fill="#000000" font-family="sans-serif" font-size="14" lengthAdjust="spacing" textLength="165" x="574.5" y="265.9004">:RegisterVehicleController</text><polygon fill="#181818" points="640,305.3281,650,309.3281,640,313.3281,644,309.3281" style="stroke:#181818;stroke-width:1.0;"/><line style="stroke:#181818;stroke-width:1.0;" x1="335" x2="646" y1="309.3281" y2="309.3281"/><text fill="#000000" font-family="sans-serif" font-size="13" font-weight="bold" lengthAdjust="spacing" textLength="7" x="342" y="304.4717">7</text><text fill="#000000" font-family="sans-serif" font-size="13" lengthAdjust="spacing" textLength="126" x="353" y="304.4717">getUserOrganization()</text><line style="stroke:#181818;stroke-width:1.0;" x1="662" x2="709" y1="359.6797" y2="359.6797"/><line style="stroke:#181818;stroke-width:1.0;" x1="709" x2="709" y1="359.6797" y2="372.6797"/><line style="stroke:#181818;stroke-width:1.0;" x1="668" x2="709" y1="372.6797" y2="372.6797"/><polygon fill="#181818" points="678,368.6797,668,372.6797,678,376.6797,674,372.6797" style="stroke:#181818;stroke-width:1.0;"/><text fill="#000000" font-family="sans-serif" font-size="13" font-weight="bold" lengthAdjust="spacing" textLength="7" x="674" y="354.8232">8</text><text fill="#000000" font-family="sans-serif" font-size="13" lengthAdjust="spacing" textLength="157" x="685" y="354.8232">getEmployeeOrganization()</text><polygon fill="#181818" points="1066,404.0313,1076,408.0313,1066,412.0313,1070,408.0313" style="stroke:#181818;stroke-width:1.0;"/><line style="stroke:#181818;stroke-width:1.0;" x1="667" x2="1072" y1="408.0313" y2="408.0313"/><text fill="#000000" font-family="sans-serif" font-size="13" font-weight="bold" lengthAdjust="spacing" textLength="7" x="674" y="403.1748">9</text><text fill="#000000" font-family="sans-serif" font-size="13" lengthAdjust="spacing" textLength="75" x="685" y="403.1748">getInstance()</text><polygon fill="#181818" points="678,434.3828,668,438.3828,678,442.3828,674,438.3828" style="stroke:#181818;stroke-width:1.0;"/><line style="stroke:#181818;stroke-width:1.0;" x1="672" x2="1082" y1="438.3828" y2="438.3828"/><text fill="#000000" font-family="sans-serif" font-size="13" font-weight="bold" lengthAdjust="spacing" textLength="14" x="684" y="433.5264">10</text><text fill="#000000" font-family="sans-serif" font-size="13" lengthAdjust="spacing" textLength="68" x="702" y="433.5264">appSession</text><polygon fill="#181818" points="1213,464.7344,1223,468.7344,1213,472.7344,1217,468.7344" style="stroke:#181818;stroke-width:1.0;"/><line style="stroke:#181818;stroke-width:1.0;" x1="667" x2="1219" y1="468.7344" y2="468.7344"/><text fill="#000000" font-family="sans-serif" font-size="13" font-weight="bold" lengthAdjust="spacing" textLength="14" x="674" y="463.8779">11</text><text fill="#000000" font-family="sans-serif" font-size="13" lengthAdjust="spacing" textLength="115" x="692" y="463.8779">getCurrentSession()</text><polygon fill="#181818" points="678,495.0859,668,499.0859,678,503.0859,674,499.0859" style="stroke:#181818;stroke-width:1.0;"/><line style="stroke:#181818;stroke-width:1.0;stroke-dasharray:2.0,2.0;" x1="672" x2="1229" y1="499.0859" y2="499.0859"/><text fill="#000000" font-family="sans-serif" font-size="13" font-weight="bold" lengthAdjust="spacing" textLength="14" x="684" y="494.2295">12</text><text fill="#000000" font-family="sans-serif" font-size="13" lengthAdjust="spacing" textLength="87" x="702" y="494.2295">currentSession</text><polygon fill="#181818" points="1346,525.4375,1356,529.4375,1346,533.4375,1350,529.4375" style="stroke:#181818;stroke-width:1.0;"/><line style="stroke:#181818;stroke-width:1.0;" x1="667" x2="1352" y1="529.4375" y2="529.4375"/><text fill="#000000" font-family="sans-serif" font-size="13" font-weight="bold" lengthAdjust="spacing" textLength="14" x="674" y="524.5811">13</text><text fill="#000000" font-family="sans-serif" font-size="13" lengthAdjust="spacing" textLength="133" x="692" y="524.5811">email = getUserEmail()</text><polygon fill="#181818" points="678,555.7891,668,559.7891,678,563.7891,674,559.7891" style="stroke:#181818;stroke-width:1.0;"/><line style="stroke:#181818;stroke-width:1.0;stroke-dasharray:2.0,2.0;" x1="672" x2="1362" y1="559.7891" y2="559.7891"/><text fill="#000000" font-family="sans-serif" font-size="13" font-weight="bold" lengthAdjust="spacing" textLength="14" x="684" y="554.9326">14</text><text fill="#000000" font-family="sans-serif" font-size="13" lengthAdjust="spacing" textLength="31" x="702" y="554.9326">email</text><polygon fill="#181818" points="832,586.1406,842,590.1406,832,594.1406,836,590.1406" style="stroke:#181818;stroke-width:1.0;"/><line style="stroke:#181818;stroke-width:1.0;" x1="667" x2="838" y1="590.1406" y2="590.1406"/><text fill="#000000" font-family="sans-serif" font-size="13" font-weight="bold" lengthAdjust="spacing" textLength="14" x="674" y="585.2842">15</text><text fill="#000000" font-family="sans-serif" font-size="13" lengthAdjust="spacing" textLength="75" x="692" y="585.2842">getInstance()</text><polygon fill="#181818" points="678,616.4922,668,620.4922,678,624.4922,674,620.4922" style="stroke:#181818;stroke-width:1.0;"/><line style="stroke:#181818;stroke-width:1.0;stroke-dasharray:2.0,2.0;" x1="672" x2="848" y1="620.4922" y2="620.4922"/><text fill="#000000" font-family="sans-serif" font-size="13" font-weight="bold" lengthAdjust="spacing" textLength="14" x="684" y="615.6357">16</text><text fill="#000000" font-family="sans-serif" font-size="13" lengthAdjust="spacing" textLength="67" x="702" y="615.6357">repositories</text><polygon fill="#181818" points="939,646.8438,949,650.8438,939,654.8438,943,650.8438" style="stroke:#181818;stroke-width:1.0;"/><line style="stroke:#181818;stroke-width:1.0;" x1="667" x2="945" y1="650.8438" y2="650.8438"/><text fill="#000000" font-family="sans-serif" font-size="13" font-weight="bold" lengthAdjust="spacing" textLength="14" x="674" y="645.9873">17</text><text fill="#000000" font-family="sans-serif" font-size="13" lengthAdjust="spacing" textLength="192" x="692" y="645.9873">getOrganizationRepository(email)</text><polygon fill="#181818" points="678,677.1953,668,681.1953,678,685.1953,674,681.1953" style="stroke:#181818;stroke-width:1.0;"/><line style="stroke:#181818;stroke-width:1.0;stroke-dasharray:2.0,2.0;" x1="672" x2="955" y1="681.1953" y2="681.1953"/><text fill="#000000" font-family="sans-serif" font-size="13" font-weight="bold" lengthAdjust="spacing" textLength="14" x="684" y="676.3389">18</text><text fill="#000000" font-family="sans-serif" font-size="13" lengthAdjust="spacing" textLength="132" x="702" y="676.3389">organizationRepository</text><polygon fill="#181818" points="1492,707.5469,1502,711.5469,1492,715.5469,1496,711.5469" style="stroke:#181818;stroke-width:1.0;"/><line style="stroke:#181818;stroke-width:1.0;" x1="667" x2="1498" y1="711.5469" y2="711.5469"/><text fill="#000000" font-family="sans-serif" font-size="13" font-weight="bold" lengthAdjust="spacing" textLength="14" x="674" y="706.6904">19</text><text fill="#000000" font-family="sans-serif" font-size="13" lengthAdjust="spacing" textLength="237" x="692" y="706.6904">getOrganizationByEmployeeEmail(email)</text><path d="M1417.5,726.5469 L1490.5,726.5469 L1490.5,734.8984 L1480.5,744.8984 L1417.5,744.8984 L1417.5,726.5469 " fill="#EEEEEE" style="stroke:#000000;stroke-width:1.5;"/><rect fill="none" height="79.0547" style="stroke:#000000;stroke-width:1.5;" width="371.5" x="1417.5" y="726.5469"/><text fill="#000000" font-family="sans-serif" font-size="13" font-weight="bold" lengthAdjust="spacing" textLength="28" x="1432.5" y="741.042">loop</text><text fill="#000000" font-family="sans-serif" font-size="11" font-weight="bold" lengthAdjust="spacing" textLength="124" x="1505.5" y="739.9658">[for each organization]</text><polygon fill="#181818" points="1713,763.25,1723,767.25,1713,771.25,1717,767.25" style="stroke:#181818;stroke-width:1.0;"/><line style="stroke:#181818;stroke-width:1.0;" x1="1514" x2="1719" y1="767.25" y2="767.25"/><text fill="#000000" font-family="sans-serif" font-size="13" font-weight="bold" lengthAdjust="spacing" textLength="14" x="1521" y="762.3936">20</text><text fill="#000000" font-family="sans-serif" font-size="13" lengthAdjust="spacing" textLength="174" x="1539" y="762.3936">anyEmployeeHasEmail(email)</text><polygon fill="#181818" points="1525,793.6016,1515,797.6016,1525,801.6016,1521,797.6016" style="stroke:#181818;stroke-width:1.0;"/><line style="stroke:#181818;stroke-width:1.0;stroke-dasharray:2.0,2.0;" x1="1519" x2="1729" y1="797.6016" y2="797.6016"/><text fill="#000000" font-family="sans-serif" font-size="13" font-weight="bold" lengthAdjust="spacing" textLength="14" x="1531" y="792.7451">21</text><text fill="#000000" font-family="sans-serif" font-size="13" lengthAdjust="spacing" textLength="53" x="1549" y="792.7451">true/false</text><polygon fill="#181818" points="678,830.9531,668,834.9531,678,838.9531,674,834.9531" style="stroke:#181818;stroke-width:1.0;"/><line style="stroke:#181818;stroke-width:1.0;stroke-dasharray:2.0,2.0;" x1="672" x2="1508" y1="834.9531" y2="834.9531"/><text fill="#000000" font-family="sans-serif" font-size="13" font-weight="bold" lengthAdjust="spacing" textLength="14" x="684" y="830.0967">22</text><text fill="#000000" font-family="sans-serif" font-size="13" lengthAdjust="spacing" textLength="70" x="702" y="830.0967">organization</text><line style="stroke:#181818;stroke-width:1.0;stroke-dasharray:2.0,2.0;" x1="667" x2="709" y1="870.3047" y2="870.3047"/><line style="stroke:#181818;stroke-width:1.0;stroke-dasharray:2.0,2.0;" x1="709" x2="709" y1="870.3047" y2="883.3047"/><line style="stroke:#181818;stroke-width:1.0;stroke-dasharray:2.0,2.0;" x1="662" x2="709" y1="883.3047" y2="883.3047"/><polygon fill="#181818" points="672,879.3047,662,883.3047,672,887.3047,668,883.3047" style="stroke:#181818;stroke-width:1.0;"/><text fill="#000000" font-family="sans-serif" font-size="13" font-weight="bold" lengthAdjust="spacing" textLength="14" x="674" y="865.4482">23</text><text fill="#000000" font-family="sans-serif" font-size="13" lengthAdjust="spacing" textLength="70" x="692" y="865.4482">organization</text><polygon fill="#181818" points="346,904.6563,336,908.6563,346,912.6563,342,908.6563" style="stroke:#181818;stroke-width:1.0;"/><line style="stroke:#181818;stroke-width:1.0;stroke-dasharray:2.0,2.0;" x1="340" x2="656" y1="908.6563" y2="908.6563"/><text fill="#000000" font-family="sans-serif" font-size="13" font-weight="bold" lengthAdjust="spacing" textLength="14" x="352" y="903.7998">24</text><text fill="#000000" font-family="sans-serif" font-size="13" lengthAdjust="spacing" textLength="70" x="370" y="903.7998">organization</text><polygon fill="#181818" points="640,967.7109,650,971.7109,640,975.7109,644,971.7109" style="stroke:#181818;stroke-width:1.0;"/><line style="stroke:#181818;stroke-width:1.0;" x1="335" x2="646" y1="971.7109" y2="971.7109"/><text fill="#000000" font-family="sans-serif" font-size="13" font-weight="bold" lengthAdjust="spacing" textLength="14" x="342" y="950.5029">25</text><text fill="#000000" font-family="sans-serif" font-size="13" lengthAdjust="spacing" textLength="280" x="360" y="934.1514">registerVehicle(brand, model, tare, grossWeight,</text><text fill="#000000" font-family="sans-serif" font-size="13" lengthAdjust="spacing" textLength="239" x="360" y="950.5029">currentKM, registerDate, acquisitionDate,</text><text fill="#000000" font-family="sans-serif" font-size="13" lengthAdjust="spacing" textLength="230" x="360" y="966.8545">checkUpFrequency, plateNumber, type)</text><polygon fill="#181818" points="1713,1055.7656,1723,1059.7656,1713,1063.7656,1717,1059.7656" style="stroke:#181818;stroke-width:1.0;"/><line style="stroke:#181818;stroke-width:1.0;" x1="662" x2="1719" y1="1059.7656" y2="1059.7656"/><text fill="#000000" font-family="sans-serif" font-size="13" font-weight="bold" lengthAdjust="spacing" textLength="14" x="669" y="1038.5576">26</text><text fill="#000000" font-family="sans-serif" font-size="13" lengthAdjust="spacing" textLength="280" x="687" y="1022.2061">registerVehicle(brand, model, tare, grossWeight,</text><text fill="#000000" font-family="sans-serif" font-size="13" lengthAdjust="spacing" textLength="239" x="687" y="1038.5576">currentKM, registerDate, acquisitionDate,</text><text fill="#000000" font-family="sans-serif" font-size="13" lengthAdjust="spacing" textLength="230" x="687" y="1054.9092">checkUpFrequency, plateNumber, type)</text><polygon fill="#181818" points="2004,1118.8203,2014,1122.8203,2004,1126.8203,2008,1122.8203" style="stroke:#181818;stroke-width:1.0;"/><line style="stroke:#181818;stroke-width:1.0;" x1="1735" x2="2010" y1="1122.8203" y2="1122.8203"/><text fill="#000000" font-family="sans-serif" font-size="13" font-weight="bold" lengthAdjust="spacing" textLength="14" x="1742" y="1101.6123">27</text><text fill="#000000" font-family="sans-serif" font-size="13" lengthAdjust="spacing" textLength="230" x="1760" y="1085.2607">create(brand, model, tare, grossWeight,</text><text fill="#000000" font-family="sans-serif" font-size="13" lengthAdjust="spacing" textLength="239" x="1760" y="1101.6123">currentKM, registerDate, acquisitionDate,</text><text fill="#000000" font-family="sans-serif" font-size="13" lengthAdjust="spacing" textLength="230" x="1760" y="1117.9639">checkUpFrequency, plateNumber, type)</text><rect fill="#E3E3E3" height="49.2188" rx="2.5" ry="2.5" style="stroke:#181818;stroke-width:0.5;" width="64" x="2016" y="1070.6016"/><text fill="#000000" font-family="sans-serif" font-size="14" lengthAdjust="spacing" textLength="44" x="2024" y="1092.1348">vehicle</text><text fill="#000000" font-family="sans-serif" font-size="14" lengthAdjust="spacing" textLength="50" x="2023" y="1109.7441">:Vehicle</text><line style="stroke:#181818;stroke-width:1.0;" x1="1735" x2="1782" y1="1148.1719" y2="1148.1719"/><line style="stroke:#181818;stroke-width:1.0;" x1="1782" x2="1782" y1="1148.1719" y2="1161.1719"/><line style="stroke:#181818;stroke-width:1.0;" x1="1741" x2="1782" y1="1161.1719" y2="1161.1719"/><polygon fill="#181818" points="1751,1157.1719,1741,1161.1719,1751,1165.1719,1747,1161.1719" style="stroke:#181818;stroke-width:1.0;"/><text fill="#000000" font-family="sans-serif" font-size="13" font-weight="bold" lengthAdjust="spacing" textLength="14" x="1747" y="1143.3154">28</text><text fill="#000000" font-family="sans-serif" font-size="13" lengthAdjust="spacing" textLength="111" x="1765" y="1143.3154">addVehicle(vehicle)</text><line style="stroke:#181818;stroke-width:1.0;" x1="1740" x2="1787" y1="1191.5234" y2="1191.5234"/><line style="stroke:#181818;stroke-width:1.0;" x1="1787" x2="1787" y1="1191.5234" y2="1204.5234"/><line style="stroke:#181818;stroke-width:1.0;" x1="1746" x2="1787" y1="1204.5234" y2="1204.5234"/><polygon fill="#181818" points="1756,1200.5234,1746,1204.5234,1756,1208.5234,1752,1204.5234" style="stroke:#181818;stroke-width:1.0;"/><text fill="#000000" font-family="sans-serif" font-size="13" font-weight="bold" lengthAdjust="spacing" textLength="14" x="1752" y="1186.667">29</text><text fill="#000000" font-family="sans-serif" font-size="13" lengthAdjust="spacing" textLength="133" x="1770" y="1186.667">validateVehicle(vehicle)</text><line style="stroke:#181818;stroke-width:1.0;stroke-dasharray:2.0,2.0;" x1="1745" x2="1787" y1="1244.875" y2="1244.875"/><line style="stroke:#181818;stroke-width:1.0;stroke-dasharray:2.0,2.0;" x1="1787" x2="1787" y1="1244.875" y2="1257.875"/><line style="stroke:#181818;stroke-width:1.0;stroke-dasharray:2.0,2.0;" x1="1740" x2="1787" y1="1257.875" y2="1257.875"/><polygon fill="#181818" points="1750,1253.875,1740,1257.875,1750,1261.875,1746,1257.875" style="stroke:#181818;stroke-width:1.0;"/><text fill="#000000" font-family="sans-serif" font-size="13" font-weight="bold" lengthAdjust="spacing" textLength="14" x="1752" y="1240.0186">30</text><text fill="#000000" font-family="sans-serif" font-size="13" lengthAdjust="spacing" textLength="4" x="1770" y="1240.0186"> </text><line style="stroke:#181818;stroke-width:1.0;stroke-dasharray:2.0,2.0;" x1="1740" x2="1782" y1="1288.2266" y2="1288.2266"/><line style="stroke:#181818;stroke-width:1.0;stroke-dasharray:2.0,2.0;" x1="1782" x2="1782" y1="1288.2266" y2="1301.2266"/><line style="stroke:#181818;stroke-width:1.0;stroke-dasharray:2.0,2.0;" x1="1735" x2="1782" y1="1301.2266" y2="1301.2266"/><polygon fill="#181818" points="1745,1297.2266,1735,1301.2266,1745,1305.2266,1741,1301.2266" style="stroke:#181818;stroke-width:1.0;"/><text fill="#000000" font-family="sans-serif" font-size="13" font-weight="bold" lengthAdjust="spacing" textLength="14" x="1747" y="1283.3701">31</text><text fill="#000000" font-family="sans-serif" font-size="13" lengthAdjust="spacing" textLength="4" x="1765" y="1283.3701"> </text><polygon fill="#181818" points="673,1322.5781,663,1326.5781,673,1330.5781,669,1326.5781" style="stroke:#181818;stroke-width:1.0;"/><line style="stroke:#181818;stroke-width:1.0;stroke-dasharray:2.0,2.0;" x1="667" x2="1729" y1="1326.5781" y2="1326.5781"/><text fill="#000000" font-family="sans-serif" font-size="13" font-weight="bold" lengthAdjust="spacing" textLength="14" x="679" y="1321.7217">32</text><text fill="#000000" font-family="sans-serif" font-size="13" lengthAdjust="spacing" textLength="39" x="697" y="1321.7217">vehicle</text><polygon fill="#181818" points="346,1352.9297,336,1356.9297,346,1360.9297,342,1356.9297" style="stroke:#181818;stroke-width:1.0;"/><line style="stroke:#181818;stroke-width:1.0;stroke-dasharray:2.0,2.0;" x1="340" x2="656" y1="1356.9297" y2="1356.9297"/><text fill="#000000" font-family="sans-serif" font-size="13" font-weight="bold" lengthAdjust="spacing" textLength="14" x="352" y="1352.0732">33</text><text fill="#000000" font-family="sans-serif" font-size="13" lengthAdjust="spacing" textLength="39" x="370" y="1352.0732">vehicle</text><polygon fill="#181818" points="65,1383.2813,55,1387.2813,65,1391.2813,61,1387.2813" style="stroke:#181818;stroke-width:1.0;"/><line style="stroke:#181818;stroke-width:1.0;stroke-dasharray:2.0,2.0;" x1="59" x2="329" y1="1387.2813" y2="1387.2813"/><text fill="#000000" font-family="sans-serif" font-size="13" font-weight="bold" lengthAdjust="spacing" textLength="14" x="71" y="1382.4248">34</text><text fill="#000000" font-family="sans-serif" font-size="13" lengthAdjust="spacing" textLength="158" x="89" y="1382.4248">displays operation success</text><!--SRC=[rLTDRziu4BtpLn2vv0CEzcvW0tXTDmqssGPsqbu250mrjeZGf9Qaaxh8ZzyXzM4geYodbtPrIIpEl7blICwCx9DG1JDiJTTQQPuRlGRgp0Q8RLOAnf_O2XPkAu4Qu8wfbOmDRCuo_IBKYYwPj408spYjDkj7C8GSvo83kjJQFUhlX76d3JtwA04SlM4ASSqHPPPEFjmGH7E2Yu8fHu_6SrW9wy1yWLnm2VTNmUx-Qh_PL2jdj9GLxFHkVjrnABGLI4E03JRDY-r2U6N8lUrY8ey7rGMulPxSlGaoAGefE7D2gmLOYt-2vRV9xMtRaXL5PO38FLuT9xun1fJRETvRCB77OhPOJ3wtdRHPCIL-1FITvF63-fnS23ZffNvSf1Axb1ZpoxR3SxbJ58shJGjsNsQVhgRNC-BFY7Xc3iAP8BHwy0Szly3zfsEqVhBKQJoCvTvJ1I-qWjrvD3XuPiWnZHu4EKSi3pb6a7ytO9sb6NECdXXO0YQNmuXcOBaHXLSoebIefJPh9f5tUyK1pnLkcso_pZQ6bVznRTqfYGaSSmEUMJYUP9YQ_qSOo6eI7ZVoow2bDSOBQQlpThSjmDQeYEOLH-Pz82rEYro_MCgaBFF5L5O3eawr53_FRbgw_tytyYspY_3wx0ovbMQanmGDLk3y9OvlpqaxL9E5xg7np-lhQ-TTm6x5cAqBgRS0U-8S42l6zYKjG5yfYvs1GmAk1Hbg8Erv_6BD6EzvKnoJ3j712g3xYTOyfwtYESGsuFQn3MGRjksgFCIu5xZcMzRmCOKr4vB-MP-GcVyvnBgg_xt4o_M8UmWoH7aVQiqwqKpVTJfIpJZfaJ2CzCGjUqZMmI5hZRxV1r7fzdWIaZcWCymClVlZLoCrwTOzfAiCiLT9Ma17sr_RkcwKf-yGWJsZGwzagNM1OwAXA21lAUxtyKywJX0tl_IpWch8Vs9sa7zN1uulUorB5XZhl3UXICFFr7-Ku_4-d6ZxVE0-Cr0PUMz2TdsWbTmX5k_Onl9K7HWdYf5kCWrQ60vwiJeu9DbVJVipuUJHuEGomg-U32HsVcPmJ5WPRUrN4AlSZHvKLSx_lXarpXymoWYF1WvZc0Ta4bwWQGxywRxu62OGnRSZMaXS-ITy0Y4wZbsdv83U-hQ7DzTqVlaxAHY-7-4wNDGZ_TbPFG3zOj8HjP1IbcLrDgkXypHHC0TlP0pvpAJ0-HCwk8D5Ph2qzDYyAHdalHX3_hLlTP4wq_aGHdIFTzxxRd1wm1_JJ5ZStwsbke1o8gTsmpcEMoJncH6FMlWT-Hy0]--></g></svg>