<?xml version="1.0" encoding="UTF-8" standalone="no"?><svg xmlns="http://www.w3.org/2000/svg" xmlns:xlink="http://www.w3.org/1999/xlink" contentStyleType="text/css" height="1276px" preserveAspectRatio="none" style="width:1627px;height:1276px;background:#FFFFFF;" version="1.1" viewBox="0 0 1627 1276" width="1627px" zoomAndPan="magnify"><defs/><g><rect fill="#FFFFFF" height="1048.2109" style="stroke:#181818;stroke-width:1.0;" width="10" x="63" y="110.2188"/><rect fill="#FFFFFF" height="332.125" style="stroke:#181818;stroke-width:1.0;" width="10" x="316" y="132.5703"/><rect fill="#FFFFFF" height="273.1641" style="stroke:#181818;stroke-width:1.0;" width="10" x="316" y="495.0469"/><rect fill="#FFFFFF" height="359.8672" style="stroke:#181818;stroke-width:1.0;" width="10" x="316" y="798.5625"/><rect fill="#FFFFFF" height="212.4609" style="stroke:#181818;stroke-width:1.0;" width="10" x="600" y="205.5313"/><rect fill="#FFFFFF" height="212.4609" style="stroke:#181818;stroke-width:1.0;" width="10" x="600" y="525.3984"/><rect fill="#FFFFFF" height="299.1641" style="stroke:#181818;stroke-width:1.0;" width="10" x="600" y="828.9141"/><rect fill="#FFFFFF" height="30.3516" style="stroke:#181818;stroke-width:1.0;" width="10" x="732" y="235.8828"/><rect fill="#FFFFFF" height="30.3516" style="stroke:#181818;stroke-width:1.0;" width="10" x="732" y="555.75"/><rect fill="#FFFFFF" height="30.3516" style="stroke:#181818;stroke-width:1.0;" width="10" x="884" y="296.5859"/><rect fill="#FFFFFF" height="91.0547" style="stroke:#181818;stroke-width:1.0;" width="10" x="884" y="616.4531"/><rect fill="#FFFFFF" height="238.4609" style="stroke:#181818;stroke-width:1.0;" width="10" x="884" y="859.2656"/><rect fill="#FFFFFF" height="30.3516" style="stroke:#181818;stroke-width:1.0;" width="10" x="1003" y="646.8047"/><rect fill="#FFFFFF" height="30.3516" style="stroke:#181818;stroke-width:1.0;" width="10" x="1168" y="357.2891"/><rect fill="#FFFFFF" height="177.7578" style="stroke:#181818;stroke-width:1.0;" width="10" x="1168" y="889.6172"/><rect fill="#FFFFFF" height="117.0547" style="stroke:#181818;stroke-width:1.0;" width="10" x="1452" y="919.9688"/><line style="stroke:#181818;stroke-width:0.5;stroke-dasharray:5.0,5.0;" x1="68" x2="68" y1="100.2188" y2="1176.4297"/><line style="stroke:#181818;stroke-width:0.5;stroke-dasharray:5.0,5.0;" x1="320.5" x2="320.5" y1="100.2188" y2="1176.4297"/><line style="stroke:#181818;stroke-width:0.5;stroke-dasharray:5.0,5.0;" x1="604.5" x2="604.5" y1="171.875" y2="1176.4297"/><line style="stroke:#181818;stroke-width:0.5;stroke-dasharray:5.0,5.0;" x1="736.5" x2="736.5" y1="100.2188" y2="1176.4297"/><line style="stroke:#181818;stroke-width:0.5;stroke-dasharray:5.0,5.0;" x1="888.5" x2="888.5" y1="100.2188" y2="1176.4297"/><line style="stroke:#181818;stroke-width:0.5;stroke-dasharray:5.0,5.0;" x1="1007.5" x2="1007.5" y1="100.2188" y2="1176.4297"/><line style="stroke:#181818;stroke-width:0.5;stroke-dasharray:5.0,5.0;" x1="1172.5" x2="1172.5" y1="100.2188" y2="1176.4297"/><line style="stroke:#181818;stroke-width:0.5;stroke-dasharray:5.0,5.0;" x1="1457" x2="1457" y1="100.2188" y2="1176.4297"/><text fill="#000000" font-family="sans-serif" font-size="14" lengthAdjust="spacing" textLength="116" x="5" y="79.5332">Human Resources</text><text fill="#000000" font-family="sans-serif" font-size="14" lengthAdjust="spacing" textLength="100" x="17" y="97.1426">Manager (HRM)</text><ellipse cx="68" cy="13.5" fill="#E3E3E3" rx="8" ry="8" style="stroke:#181818;stroke-width:0.5;"/><path d="M68,21.5 L68,48.5 M55,29.5 L81,29.5 M68,48.5 L55,63.5 M68,48.5 L81,63.5 " fill="none" style="stroke:#181818;stroke-width:0.5;"/><text fill="#000000" font-family="sans-serif" font-size="14" lengthAdjust="spacing" textLength="116" x="5" y="1189.9629">Human Resources</text><text fill="#000000" font-family="sans-serif" font-size="14" lengthAdjust="spacing" textLength="100" x="17" y="1207.5723">Manager (HRM)</text><ellipse cx="68" cy="1219.1484" fill="#E3E3E3" rx="8" ry="8" style="stroke:#181818;stroke-width:0.5;"/><path d="M68,1227.1484 L68,1254.1484 M55,1235.1484 L81,1235.1484 M68,1254.1484 L55,1269.1484 M68,1254.1484 L81,1269.1484 " fill="none" style="stroke:#181818;stroke-width:0.5;"/><rect fill="#E3E3E3" height="31.6094" rx="2.5" ry="2.5" style="stroke:#181818;stroke-width:0.5;" width="97" x="272.5" y="67.6094"/><text fill="#000000" font-family="sans-serif" font-size="14" lengthAdjust="spacing" textLength="83" x="279.5" y="89.1426">:AssignSkillUI</text><rect fill="#E3E3E3" height="31.6094" rx="2.5" ry="2.5" style="stroke:#181818;stroke-width:0.5;" width="97" x="272.5" y="1175.4297"/><text fill="#000000" font-family="sans-serif" font-size="14" lengthAdjust="spacing" textLength="83" x="279.5" y="1196.9629">:AssignSkillUI</text><rect fill="#E3E3E3" height="31.6094" rx="2.5" ry="2.5" style="stroke:#181818;stroke-width:0.5;" width="147" x="531.5" y="1175.4297"/><text fill="#000000" font-family="sans-serif" font-size="14" lengthAdjust="spacing" textLength="133" x="538.5" y="1196.9629">:AssignSkillController</text><rect fill="#E3E3E3" height="31.6094" rx="2.5" ry="2.5" style="stroke:#181818;stroke-width:0.5;" width="97" x="688.5" y="67.6094"/><text fill="#000000" font-family="sans-serif" font-size="14" lengthAdjust="spacing" textLength="83" x="695.5" y="89.1426">:Repositories</text><rect fill="#E3E3E3" height="31.6094" rx="2.5" ry="2.5" style="stroke:#181818;stroke-width:0.5;" width="97" x="688.5" y="1175.4297"/><text fill="#000000" font-family="sans-serif" font-size="14" lengthAdjust="spacing" textLength="83" x="695.5" y="1196.9629">:Repositories</text><rect fill="#E3E3E3" height="49.2188" rx="2.5" ry="2.5" style="stroke:#181818;stroke-width:0.5;" width="97" x="840.5" y="50"/><text fill="#000000" font-family="sans-serif" font-size="14" lengthAdjust="spacing" textLength="74" x="852" y="71.5332">repositories</text><text fill="#000000" font-family="sans-serif" font-size="14" lengthAdjust="spacing" textLength="83" x="847.5" y="89.1426">:Repositories</text><rect fill="#E3E3E3" height="49.2188" rx="2.5" ry="2.5" style="stroke:#181818;stroke-width:0.5;" width="97" x="840.5" y="1175.4297"/><text fill="#000000" font-family="sans-serif" font-size="14" lengthAdjust="spacing" textLength="74" x="852" y="1196.9629">repositories</text><text fill="#000000" font-family="sans-serif" font-size="14" lengthAdjust="spacing" textLength="83" x="847.5" y="1214.5723">:Repositories</text><rect fill="#E3E3E3" height="31.6094" rx="2.5" ry="2.5" style="stroke:#181818;stroke-width:0.5;" width="107" x="954.5" y="67.6094"/><text fill="#000000" font-family="sans-serif" font-size="14" lengthAdjust="spacing" textLength="93" x="961.5" y="89.1426">SkillRepository</text><rect fill="#E3E3E3" height="31.6094" rx="2.5" ry="2.5" style="stroke:#181818;stroke-width:0.5;" width="107" x="954.5" y="1175.4297"/><text fill="#000000" font-family="sans-serif" font-size="14" lengthAdjust="spacing" textLength="93" x="961.5" y="1196.9629">SkillRepository</text><rect fill="#E3E3E3" height="31.6094" rx="2.5" ry="2.5" style="stroke:#181818;stroke-width:0.5;" width="167" x="1089.5" y="67.6094"/><text fill="#000000" font-family="sans-serif" font-size="14" lengthAdjust="spacing" textLength="153" x="1096.5" y="89.1426">CollaboratorsRepository</text><rect fill="#E3E3E3" height="31.6094" rx="2.5" ry="2.5" style="stroke:#181818;stroke-width:0.5;" width="167" x="1089.5" y="1175.4297"/><text fill="#000000" font-family="sans-serif" font-size="14" lengthAdjust="spacing" textLength="153" x="1096.5" y="1196.9629">CollaboratorsRepository</text><rect fill="#E3E3E3" height="31.6094" rx="2.5" ry="2.5" style="stroke:#181818;stroke-width:0.5;" width="92" x="1411" y="67.6094"/><text fill="#000000" font-family="sans-serif" font-size="14" lengthAdjust="spacing" textLength="78" x="1418" y="89.1426">Collaborator</text><rect fill="#E3E3E3" height="31.6094" rx="2.5" ry="2.5" style="stroke:#181818;stroke-width:0.5;" width="92" x="1411" y="1175.4297"/><text fill="#000000" font-family="sans-serif" font-size="14" lengthAdjust="spacing" textLength="78" x="1418" y="1196.9629">Collaborator</text><rect fill="#FFFFFF" height="1048.2109" style="stroke:#181818;stroke-width:1.0;" width="10" x="63" y="110.2188"/><rect fill="#FFFFFF" height="332.125" style="stroke:#181818;stroke-width:1.0;" width="10" x="316" y="132.5703"/><rect fill="#FFFFFF" height="273.1641" style="stroke:#181818;stroke-width:1.0;" width="10" x="316" y="495.0469"/><rect fill="#FFFFFF" height="359.8672" style="stroke:#181818;stroke-width:1.0;" width="10" x="316" y="798.5625"/><rect fill="#FFFFFF" height="212.4609" style="stroke:#181818;stroke-width:1.0;" width="10" x="600" y="205.5313"/><rect fill="#FFFFFF" height="212.4609" style="stroke:#181818;stroke-width:1.0;" width="10" x="600" y="525.3984"/><rect fill="#FFFFFF" height="299.1641" style="stroke:#181818;stroke-width:1.0;" width="10" x="600" y="828.9141"/><rect fill="#FFFFFF" height="30.3516" style="stroke:#181818;stroke-width:1.0;" width="10" x="732" y="235.8828"/><rect fill="#FFFFFF" height="30.3516" style="stroke:#181818;stroke-width:1.0;" width="10" x="732" y="555.75"/><rect fill="#FFFFFF" height="30.3516" style="stroke:#181818;stroke-width:1.0;" width="10" x="884" y="296.5859"/><rect fill="#FFFFFF" height="91.0547" style="stroke:#181818;stroke-width:1.0;" width="10" x="884" y="616.4531"/><rect fill="#FFFFFF" height="238.4609" style="stroke:#181818;stroke-width:1.0;" width="10" x="884" y="859.2656"/><rect fill="#FFFFFF" height="30.3516" style="stroke:#181818;stroke-width:1.0;" width="10" x="1003" y="646.8047"/><rect fill="#FFFFFF" height="30.3516" style="stroke:#181818;stroke-width:1.0;" width="10" x="1168" y="357.2891"/><rect fill="#FFFFFF" height="177.7578" style="stroke:#181818;stroke-width:1.0;" width="10" x="1168" y="889.6172"/><rect fill="#FFFFFF" height="117.0547" style="stroke:#181818;stroke-width:1.0;" width="10" x="1452" y="919.9688"/><polygon fill="#181818" points="304,128.5703,314,132.5703,304,136.5703,308,132.5703" style="stroke:#181818;stroke-width:1.0;"/><line style="stroke:#181818;stroke-width:1.0;" x1="73" x2="310" y1="132.5703" y2="132.5703"/><text fill="#000000" font-family="sans-serif" font-size="13" font-weight="bold" lengthAdjust="spacing" textLength="7" x="80" y="127.7139">1</text><text fill="#000000" font-family="sans-serif" font-size="13" lengthAdjust="spacing" textLength="203" x="91" y="127.7139">asks to add a skill to a collaborator</text><polygon fill="#181818" points="519.5,158.9219,529.5,162.9219,519.5,166.9219,523.5,162.9219" style="stroke:#181818;stroke-width:1.0;"/><line style="stroke:#181818;stroke-width:1.0;" x1="326" x2="525.5" y1="162.9219" y2="162.9219"/><text fill="#000000" font-family="sans-serif" font-size="13" font-weight="bold" lengthAdjust="spacing" textLength="7" x="333" y="158.0654">2</text><text fill="#000000" font-family="sans-serif" font-size="13" lengthAdjust="spacing" textLength="36" x="344" y="158.0654">create</text><rect fill="#E3E3E3" height="31.6094" rx="2.5" ry="2.5" style="stroke:#181818;stroke-width:0.5;" width="147" x="531.5" y="140.5703"/><text fill="#000000" font-family="sans-serif" font-size="14" lengthAdjust="spacing" textLength="133" x="538.5" y="162.1035">:AssignSkillController</text><polygon fill="#181818" points="588,201.5313,598,205.5313,588,209.5313,592,205.5313" style="stroke:#181818;stroke-width:1.0;"/><line style="stroke:#181818;stroke-width:1.0;" x1="326" x2="594" y1="205.5313" y2="205.5313"/><text fill="#000000" font-family="sans-serif" font-size="13" font-weight="bold" lengthAdjust="spacing" textLength="7" x="333" y="200.6748">3</text><text fill="#000000" font-family="sans-serif" font-size="13" lengthAdjust="spacing" textLength="102" x="344" y="200.6748">getCollaborators()</text><polygon fill="#181818" points="720,231.8828,730,235.8828,720,239.8828,724,235.8828" style="stroke:#181818;stroke-width:1.0;"/><line style="stroke:#181818;stroke-width:1.0;" x1="610" x2="726" y1="235.8828" y2="235.8828"/><text fill="#000000" font-family="sans-serif" font-size="13" font-weight="bold" lengthAdjust="spacing" textLength="7" x="617" y="231.0264">4</text><text fill="#000000" font-family="sans-serif" font-size="13" lengthAdjust="spacing" textLength="75" x="628" y="231.0264">getInstance()</text><polygon fill="#181818" points="621,262.2344,611,266.2344,621,270.2344,617,266.2344" style="stroke:#181818;stroke-width:1.0;"/><line style="stroke:#181818;stroke-width:1.0;stroke-dasharray:2.0,2.0;" x1="615" x2="736" y1="266.2344" y2="266.2344"/><text fill="#000000" font-family="sans-serif" font-size="13" font-weight="bold" lengthAdjust="spacing" textLength="7" x="627" y="261.3779">5</text><text fill="#000000" font-family="sans-serif" font-size="13" lengthAdjust="spacing" textLength="67" x="638" y="261.3779">repositories</text><polygon fill="#181818" points="872,292.5859,882,296.5859,872,300.5859,876,296.5859" style="stroke:#181818;stroke-width:1.0;"/><line style="stroke:#181818;stroke-width:1.0;" x1="610" x2="878" y1="296.5859" y2="296.5859"/><text fill="#000000" font-family="sans-serif" font-size="13" font-weight="bold" lengthAdjust="spacing" textLength="7" x="617" y="291.7295">6</text><text fill="#000000" font-family="sans-serif" font-size="13" lengthAdjust="spacing" textLength="164" x="628" y="291.7295">getCollaboratorsRepository()</text><polygon fill="#181818" points="621,322.9375,611,326.9375,621,330.9375,617,326.9375" style="stroke:#181818;stroke-width:1.0;"/><line style="stroke:#181818;stroke-width:1.0;stroke-dasharray:2.0,2.0;" x1="615" x2="888" y1="326.9375" y2="326.9375"/><text fill="#000000" font-family="sans-serif" font-size="13" font-weight="bold" lengthAdjust="spacing" textLength="7" x="627" y="322.0811">7</text><text fill="#000000" font-family="sans-serif" font-size="13" lengthAdjust="spacing" textLength="156" x="638" y="322.0811">getCollaboratorsRepository</text><polygon fill="#181818" points="1156,353.2891,1166,357.2891,1156,361.2891,1160,357.2891" style="stroke:#181818;stroke-width:1.0;"/><line style="stroke:#181818;stroke-width:1.0;" x1="610" x2="1162" y1="357.2891" y2="357.2891"/><text fill="#000000" font-family="sans-serif" font-size="13" font-weight="bold" lengthAdjust="spacing" textLength="7" x="617" y="352.4326">8</text><text fill="#000000" font-family="sans-serif" font-size="13" lengthAdjust="spacing" textLength="123" x="628" y="352.4326">getCollaboratorsList()</text><polygon fill="#181818" points="621,383.6406,611,387.6406,621,391.6406,617,387.6406" style="stroke:#181818;stroke-width:1.0;"/><line style="stroke:#181818;stroke-width:1.0;stroke-dasharray:2.0,2.0;" x1="615" x2="1172" y1="387.6406" y2="387.6406"/><text fill="#000000" font-family="sans-serif" font-size="13" font-weight="bold" lengthAdjust="spacing" textLength="7" x="627" y="382.7842">9</text><text fill="#000000" font-family="sans-serif" font-size="13" lengthAdjust="spacing" textLength="95" x="638" y="382.7842">collaboratorsList</text><polygon fill="#181818" points="337,413.9922,327,417.9922,337,421.9922,333,417.9922" style="stroke:#181818;stroke-width:1.0;"/><line style="stroke:#181818;stroke-width:1.0;stroke-dasharray:2.0,2.0;" x1="331" x2="604" y1="417.9922" y2="417.9922"/><text fill="#000000" font-family="sans-serif" font-size="13" font-weight="bold" lengthAdjust="spacing" textLength="14" x="343" y="413.1357">10</text><text fill="#000000" font-family="sans-serif" font-size="13" lengthAdjust="spacing" textLength="95" x="361" y="413.1357">collaboratorsList</text><polygon fill="#181818" points="84,460.6953,74,464.6953,84,468.6953,80,464.6953" style="stroke:#181818;stroke-width:1.0;"/><line style="stroke:#181818;stroke-width:1.0;stroke-dasharray:2.0,2.0;" x1="78" x2="320" y1="464.6953" y2="464.6953"/><text fill="#000000" font-family="sans-serif" font-size="13" font-weight="bold" lengthAdjust="spacing" textLength="14" x="90" y="451.6631">11</text><text fill="#000000" font-family="sans-serif" font-size="13" lengthAdjust="spacing" textLength="136" x="108" y="443.4873">shows collaborators list</text><text fill="#000000" font-family="sans-serif" font-size="13" lengthAdjust="spacing" textLength="91" x="112" y="459.8389">to assign skill/s</text><polygon fill="#181818" points="304,491.0469,314,495.0469,304,499.0469,308,495.0469" style="stroke:#181818;stroke-width:1.0;"/><line style="stroke:#181818;stroke-width:1.0;" x1="73" x2="310" y1="495.0469" y2="495.0469"/><text fill="#000000" font-family="sans-serif" font-size="13" font-weight="bold" lengthAdjust="spacing" textLength="14" x="80" y="490.1904">12</text><text fill="#000000" font-family="sans-serif" font-size="13" lengthAdjust="spacing" textLength="113" x="98" y="490.1904">choose collaborator</text><polygon fill="#181818" points="588,521.3984,598,525.3984,588,529.3984,592,525.3984" style="stroke:#181818;stroke-width:1.0;"/><line style="stroke:#181818;stroke-width:1.0;" x1="326" x2="594" y1="525.3984" y2="525.3984"/><text fill="#000000" font-family="sans-serif" font-size="13" font-weight="bold" lengthAdjust="spacing" textLength="14" x="333" y="520.542">13</text><text fill="#000000" font-family="sans-serif" font-size="13" lengthAdjust="spacing" textLength="156" x="351" y="520.542">getSkill (collaboratorName)</text><polygon fill="#181818" points="720,551.75,730,555.75,720,559.75,724,555.75" style="stroke:#181818;stroke-width:1.0;"/><line style="stroke:#181818;stroke-width:1.0;" x1="610" x2="726" y1="555.75" y2="555.75"/><text fill="#000000" font-family="sans-serif" font-size="13" font-weight="bold" lengthAdjust="spacing" textLength="14" x="617" y="550.8936">14</text><text fill="#000000" font-family="sans-serif" font-size="13" lengthAdjust="spacing" textLength="75" x="635" y="550.8936">getInstance()</text><polygon fill="#181818" points="621,582.1016,611,586.1016,621,590.1016,617,586.1016" style="stroke:#181818;stroke-width:1.0;"/><line style="stroke:#181818;stroke-width:1.0;stroke-dasharray:2.0,2.0;" x1="615" x2="736" y1="586.1016" y2="586.1016"/><text fill="#000000" font-family="sans-serif" font-size="13" font-weight="bold" lengthAdjust="spacing" textLength="14" x="627" y="581.2451">15</text><text fill="#000000" font-family="sans-serif" font-size="13" lengthAdjust="spacing" textLength="67" x="645" y="581.2451">repositories</text><polygon fill="#181818" points="872,612.4531,882,616.4531,872,620.4531,876,616.4531" style="stroke:#181818;stroke-width:1.0;"/><line style="stroke:#181818;stroke-width:1.0;" x1="610" x2="878" y1="616.4531" y2="616.4531"/><text fill="#000000" font-family="sans-serif" font-size="13" font-weight="bold" lengthAdjust="spacing" textLength="14" x="617" y="611.5967">16</text><text fill="#000000" font-family="sans-serif" font-size="13" lengthAdjust="spacing" textLength="113" x="635" y="611.5967">getSkillRepository()</text><polygon fill="#181818" points="991,642.8047,1001,646.8047,991,650.8047,995,646.8047" style="stroke:#181818;stroke-width:1.0;"/><line style="stroke:#181818;stroke-width:1.0;" x1="894" x2="997" y1="646.8047" y2="646.8047"/><text fill="#000000" font-family="sans-serif" font-size="13" font-weight="bold" lengthAdjust="spacing" textLength="14" x="901" y="641.9482">17</text><text fill="#000000" font-family="sans-serif" font-size="13" lengthAdjust="spacing" textLength="72" x="919" y="641.9482">getSkillList()</text><polygon fill="#181818" points="905,673.1563,895,677.1563,905,681.1563,901,677.1563" style="stroke:#181818;stroke-width:1.0;"/><line style="stroke:#181818;stroke-width:1.0;stroke-dasharray:2.0,2.0;" x1="899" x2="1007" y1="677.1563" y2="677.1563"/><text fill="#000000" font-family="sans-serif" font-size="13" font-weight="bold" lengthAdjust="spacing" textLength="14" x="911" y="672.2998">18</text><text fill="#000000" font-family="sans-serif" font-size="13" lengthAdjust="spacing" textLength="44" x="929" y="672.2998">skillList</text><polygon fill="#181818" points="621,703.5078,611,707.5078,621,711.5078,617,707.5078" style="stroke:#181818;stroke-width:1.0;"/><line style="stroke:#181818;stroke-width:1.0;stroke-dasharray:2.0,2.0;" x1="615" x2="888" y1="707.5078" y2="707.5078"/><text fill="#000000" font-family="sans-serif" font-size="13" font-weight="bold" lengthAdjust="spacing" textLength="14" x="627" y="702.6514">19</text><text fill="#000000" font-family="sans-serif" font-size="13" lengthAdjust="spacing" textLength="44" x="645" y="702.6514">skillList</text><polygon fill="#181818" points="337,733.8594,327,737.8594,337,741.8594,333,737.8594" style="stroke:#181818;stroke-width:1.0;"/><line style="stroke:#181818;stroke-width:1.0;stroke-dasharray:2.0,2.0;" x1="331" x2="604" y1="737.8594" y2="737.8594"/><text fill="#000000" font-family="sans-serif" font-size="13" font-weight="bold" lengthAdjust="spacing" textLength="14" x="343" y="733.0029">20</text><text fill="#000000" font-family="sans-serif" font-size="13" lengthAdjust="spacing" textLength="44" x="361" y="733.0029">skillList</text><polygon fill="#181818" points="84,764.2109,74,768.2109,84,772.2109,80,768.2109" style="stroke:#181818;stroke-width:1.0;"/><line style="stroke:#181818;stroke-width:1.0;stroke-dasharray:2.0,2.0;" x1="78" x2="320" y1="768.2109" y2="768.2109"/><text fill="#000000" font-family="sans-serif" font-size="13" font-weight="bold" lengthAdjust="spacing" textLength="14" x="90" y="763.3545">21</text><text fill="#000000" font-family="sans-serif" font-size="13" lengthAdjust="spacing" textLength="85" x="108" y="763.3545">show skills list</text><polygon fill="#181818" points="304,794.5625,314,798.5625,304,802.5625,308,798.5625" style="stroke:#181818;stroke-width:1.0;"/><line style="stroke:#181818;stroke-width:1.0;" x1="73" x2="310" y1="798.5625" y2="798.5625"/><text fill="#000000" font-family="sans-serif" font-size="13" font-weight="bold" lengthAdjust="spacing" textLength="14" x="80" y="793.7061">22</text><text fill="#000000" font-family="sans-serif" font-size="13" lengthAdjust="spacing" textLength="206" x="98" y="793.7061">choose one or more skills to assign</text><polygon fill="#181818" points="588,824.9141,598,828.9141,588,832.9141,592,828.9141" style="stroke:#181818;stroke-width:1.0;"/><line style="stroke:#181818;stroke-width:1.0;" x1="326" x2="594" y1="828.9141" y2="828.9141"/><text fill="#000000" font-family="sans-serif" font-size="13" font-weight="bold" lengthAdjust="spacing" textLength="14" x="333" y="824.0576">23</text><text fill="#000000" font-family="sans-serif" font-size="13" lengthAdjust="spacing" textLength="237" x="351" y="824.0576">assignSkill(collaboratorName, skillName)</text><polygon fill="#181818" points="872,855.2656,882,859.2656,872,863.2656,876,859.2656" style="stroke:#181818;stroke-width:1.0;"/><line style="stroke:#181818;stroke-width:1.0;" x1="610" x2="878" y1="859.2656" y2="859.2656"/><text fill="#000000" font-family="sans-serif" font-size="13" font-weight="bold" lengthAdjust="spacing" textLength="14" x="617" y="854.4092">24</text><text fill="#000000" font-family="sans-serif" font-size="13" lengthAdjust="spacing" textLength="237" x="635" y="854.4092">assignSkill(collaboratorName, skillName)</text><polygon fill="#181818" points="1156,885.6172,1166,889.6172,1156,893.6172,1160,889.6172" style="stroke:#181818;stroke-width:1.0;"/><line style="stroke:#181818;stroke-width:1.0;" x1="894" x2="1162" y1="889.6172" y2="889.6172"/><text fill="#000000" font-family="sans-serif" font-size="13" font-weight="bold" lengthAdjust="spacing" textLength="14" x="901" y="884.7607">25</text><text fill="#000000" font-family="sans-serif" font-size="13" lengthAdjust="spacing" textLength="237" x="919" y="884.7607">assignSkill(collaboratorName, skillName)</text><polygon fill="#181818" points="1440,915.9688,1450,919.9688,1440,923.9688,1444,919.9688" style="stroke:#181818;stroke-width:1.0;"/><line style="stroke:#181818;stroke-width:1.0;" x1="1178" x2="1446" y1="919.9688" y2="919.9688"/><text fill="#000000" font-family="sans-serif" font-size="13" font-weight="bold" lengthAdjust="spacing" textLength="14" x="1185" y="915.1123">26</text><text fill="#000000" font-family="sans-serif" font-size="13" lengthAdjust="spacing" textLength="237" x="1203" y="915.1123">assignSkill(collaboratorName, skillName)</text><line style="stroke:#181818;stroke-width:1.0;" x1="1462" x2="1504" y1="950.3203" y2="950.3203"/><line style="stroke:#181818;stroke-width:1.0;" x1="1504" x2="1504" y1="950.3203" y2="963.3203"/><line style="stroke:#181818;stroke-width:1.0;" x1="1463" x2="1504" y1="963.3203" y2="963.3203"/><polygon fill="#181818" points="1473,959.3203,1463,963.3203,1473,967.3203,1469,963.3203" style="stroke:#181818;stroke-width:1.0;"/><text fill="#000000" font-family="sans-serif" font-size="13" font-weight="bold" lengthAdjust="spacing" textLength="14" x="1469" y="945.4639">27</text><text fill="#000000" font-family="sans-serif" font-size="13" lengthAdjust="spacing" textLength="133" x="1487" y="945.4639">validateSkill(skillName)</text><line style="stroke:#181818;stroke-width:1.0;" x1="1462" x2="1504" y1="993.6719" y2="993.6719"/><line style="stroke:#181818;stroke-width:1.0;" x1="1504" x2="1504" y1="993.6719" y2="1006.6719"/><line style="stroke:#181818;stroke-width:1.0;" x1="1463" x2="1504" y1="1006.6719" y2="1006.6719"/><polygon fill="#181818" points="1473,1002.6719,1463,1006.6719,1473,1010.6719,1469,1006.6719" style="stroke:#181818;stroke-width:1.0;"/><text fill="#000000" font-family="sans-serif" font-size="13" font-weight="bold" lengthAdjust="spacing" textLength="14" x="1469" y="988.8154">28</text><text fill="#000000" font-family="sans-serif" font-size="13" lengthAdjust="spacing" textLength="128" x="1487" y="988.8154">assignSkill(skillName)</text><polygon fill="#181818" points="1189,1033.0234,1179,1037.0234,1189,1041.0234,1185,1037.0234" style="stroke:#181818;stroke-width:1.0;"/><line style="stroke:#181818;stroke-width:1.0;stroke-dasharray:2.0,2.0;" x1="1183" x2="1456" y1="1037.0234" y2="1037.0234"/><text fill="#000000" font-family="sans-serif" font-size="13" font-weight="bold" lengthAdjust="spacing" textLength="14" x="1195" y="1032.167">29</text><text fill="#000000" font-family="sans-serif" font-size="13" lengthAdjust="spacing" textLength="23" x="1213" y="1032.167">skill</text><polygon fill="#181818" points="905,1063.375,895,1067.375,905,1071.375,901,1067.375" style="stroke:#181818;stroke-width:1.0;"/><line style="stroke:#181818;stroke-width:1.0;stroke-dasharray:2.0,2.0;" x1="899" x2="1172" y1="1067.375" y2="1067.375"/><text fill="#000000" font-family="sans-serif" font-size="13" font-weight="bold" lengthAdjust="spacing" textLength="14" x="911" y="1062.5186">30</text><text fill="#000000" font-family="sans-serif" font-size="13" lengthAdjust="spacing" textLength="23" x="929" y="1062.5186">skill</text><polygon fill="#181818" points="621,1093.7266,611,1097.7266,621,1101.7266,617,1097.7266" style="stroke:#181818;stroke-width:1.0;"/><line style="stroke:#181818;stroke-width:1.0;stroke-dasharray:2.0,2.0;" x1="615" x2="888" y1="1097.7266" y2="1097.7266"/><text fill="#000000" font-family="sans-serif" font-size="13" font-weight="bold" lengthAdjust="spacing" textLength="14" x="627" y="1092.8701">31</text><text fill="#000000" font-family="sans-serif" font-size="13" lengthAdjust="spacing" textLength="23" x="645" y="1092.8701">skill</text><polygon fill="#181818" points="337,1124.0781,327,1128.0781,337,1132.0781,333,1128.0781" style="stroke:#181818;stroke-width:1.0;"/><line style="stroke:#181818;stroke-width:1.0;stroke-dasharray:2.0,2.0;" x1="331" x2="604" y1="1128.0781" y2="1128.0781"/><text fill="#000000" font-family="sans-serif" font-size="13" font-weight="bold" lengthAdjust="spacing" textLength="14" x="343" y="1123.2217">32</text><text fill="#000000" font-family="sans-serif" font-size="13" lengthAdjust="spacing" textLength="23" x="361" y="1123.2217">skill</text><polygon fill="#181818" points="79,1154.4297,69,1158.4297,79,1162.4297,75,1158.4297" style="stroke:#181818;stroke-width:1.0;"/><line style="stroke:#181818;stroke-width:1.0;stroke-dasharray:2.0,2.0;" x1="73" x2="320" y1="1158.4297" y2="1158.4297"/><text fill="#000000" font-family="sans-serif" font-size="13" font-weight="bold" lengthAdjust="spacing" textLength="14" x="85" y="1153.5732">33</text><text fill="#000000" font-family="sans-serif" font-size="13" lengthAdjust="spacing" textLength="158" x="103" y="1153.5732">displays operation success</text><!--SRC=[xLVVJzim47xtNt7YPIrQsM03iJoWiOuDK3jL_S5UU74JqreaTcKxPVtlTqveaxX9Mc1xIwHAJNBttPrztyMVVkHYGHMD8992-dCb8mP6nOpepPi5zH_fZ8tCAcIWc6-ec8Lv0psdWNpYOWOFDDIC41eRAU9eoXGXx-OyOF0WfPdAFuJwHYeuk8uZAc38j8oLppJS2-XJWK4KjAw7_VO1K0tuXs00mts-eCB0WNUfDP-9qICFmybDOZEvgJRfIc6K34Ec4jFkUDXpZ8Ti8JN7Z3ZJYStcmMh4RP5OHj55vJpknJR0e7SvBdeagMIuYPNphEZGnPJfL2gAhxJZMF6Es7NbIsfOicW4dY-yWSu5BX9uwFsemKYWGG0KjCqWkGK_XvcvRW1nXREdza8qnBIhUNY8kBvYQ5PbWWOpPWffjze5sqsWP7yAh-oLW21OoSwas3T2OqFwp84jG9TjwvQrlSgYT9vByI2_-Llk0NjPk7LXjcDALYd3g2iiQRVIIXBOBFLg-Bf2ok7NcLS0bXJJuzhKbL7PrcMLLONjP2tdky7hYjmxU5htca_rCVBuMtrjwO4mbfqU3a_vf8je428SZaHBpsISfNJza3LT3jxoq-MwFvTIioApjqXTmjDaBa4hx_UBHgomSsvThoBedbHv3Httvk4s0PsnN9gmGucKPXVkHC_XkRs_GN8_0fc92zR9ijHhoDA2Qp2TUL2FunHPRFnwLwVRjrezTKzRl1HWtSzGqTHIu4_XSKMnDTQ69oMhN80hz3lDJWfR7Vy-XNQQlwf8fvFU05pHNTMJzYr5LCqzidlK5bFwTtbKn2u9kAGX3z0z3PaBi2z2FkCzt6jt8V4dkpukUwsiGtNokYzMWUsrMBkf_cAQ1rmlGhhI81SCS-Guj7Niup5VxoPyxdbwaltAH1178Sd9ZV-bL1fjqcYJHfiqsgJH9eqsQRH9eqqQRT9eaqQRDDfajpOPX7WwdlHxi6HAMypZevEF9v-EZbkZMC0joecJBt1yufsUUwTdyFjg3FPrcxH-3dgGwWoRcL5y6jkSskIMBYaCOs5un3omTwrnlmsZg_L3k19BhgI8c33azgwV6i6rDAE5D8dnsUVEDsvWn1Ic1NTzyfqzq3WqwEhB0Byw7ap6Fphdf8SoAKQ1uy72aAx406hbmM3y5m00]--></g></svg>