<?xml version="1.0" encoding="UTF-8" standalone="no"?><svg xmlns="http://www.w3.org/2000/svg" xmlns:xlink="http://www.w3.org/1999/xlink" contentStyleType="text/css" height="346px" preserveAspectRatio="none" style="width:810px;height:346px;background:#FFFFFF;" version="1.1" viewBox="0 0 810 346" width="810px" zoomAndPan="magnify"><defs/><g><rect fill="#FFFFFF" height="231.3672" style="stroke:#181818;stroke-width:1.0;" width="10" x="274" y="69.9609"/><rect fill="#FFFFFF" height="119.3125" style="stroke:#181818;stroke-width:1.0;" width="10" x="613.5" y="135.6641"/><rect fill="none" height="178.0156" style="stroke:#000000;stroke-width:1.5;" width="619" x="185.5" y="84.9609"/><line style="stroke:#181818;stroke-width:0.5;stroke-dasharray:5.0,5.0;" x1="278.5" x2="278.5" y1="37.6094" y2="310.3281"/><line style="stroke:#181818;stroke-width:0.5;stroke-dasharray:5.0,5.0;" x1="618" x2="618" y1="134.6172" y2="310.3281"/><rect fill="#E3E3E3" height="31.6094" rx="2.5" ry="2.5" style="stroke:#181818;stroke-width:0.5;" width="167" x="195.5" y="5"/><text fill="#000000" font-family="sans-serif" font-size="14" lengthAdjust="spacing" textLength="153" x="202.5" y="26.5332">CollaboratorsRepository</text><rect fill="#E3E3E3" height="31.6094" rx="2.5" ry="2.5" style="stroke:#181818;stroke-width:0.5;" width="167" x="195.5" y="309.3281"/><text fill="#000000" font-family="sans-serif" font-size="14" lengthAdjust="spacing" textLength="153" x="202.5" y="330.8613">CollaboratorsRepository</text><rect fill="#E3E3E3" height="31.6094" rx="2.5" ry="2.5" style="stroke:#181818;stroke-width:0.5;" width="89" x="574" y="309.3281"/><text fill="#000000" font-family="sans-serif" font-size="14" lengthAdjust="spacing" textLength="75" x="581" y="330.8613">Colaborator</text><rect fill="#FFFFFF" height="231.3672" style="stroke:#181818;stroke-width:1.0;" width="10" x="274" y="69.9609"/><rect fill="#FFFFFF" height="119.3125" style="stroke:#181818;stroke-width:1.0;" width="10" x="613.5" y="135.6641"/><polygon fill="#181818" points="262,65.9609,272,69.9609,262,73.9609,266,69.9609" style="stroke:#181818;stroke-width:1.0;"/><line style="stroke:#181818;stroke-width:1.0;" x1="0" x2="268" y1="69.9609" y2="69.9609"/><text fill="#000000" font-family="sans-serif" font-size="13" font-weight="bold" lengthAdjust="spacing" textLength="14" x="7" y="65.1045">25</text><text fill="#000000" font-family="sans-serif" font-size="13" lengthAdjust="spacing" textLength="237" x="25" y="65.1045">assignSkill(collaboratorName, skillName)</text><path d="M185.5,84.9609 L309.5,84.9609 L309.5,93.3125 L299.5,103.3125 L185.5,103.3125 L185.5,84.9609 " fill="#EEEEEE" style="stroke:#000000;stroke-width:1.5;"/><rect fill="none" height="178.0156" style="stroke:#000000;stroke-width:1.5;" width="619" x="185.5" y="84.9609"/><text fill="#000000" font-family="sans-serif" font-size="13" font-weight="bold" lengthAdjust="spacing" textLength="79" x="200.5" y="99.4561">Assign Skills</text><polygon fill="#181818" points="562,121.6641,572,125.6641,562,129.6641,566,125.6641" style="stroke:#181818;stroke-width:1.0;"/><line style="stroke:#181818;stroke-width:1.0;" x1="284" x2="568" y1="125.6641" y2="125.6641"/><text fill="#000000" font-family="sans-serif" font-size="13" font-weight="bold" lengthAdjust="spacing" textLength="25" x="291" y="120.8076">25.1</text><text fill="#000000" font-family="sans-serif" font-size="13" lengthAdjust="spacing" textLength="237" x="320" y="120.8076">assignSkill(collaboratorName, skillName)</text><rect fill="#E3E3E3" height="31.6094" rx="2.5" ry="2.5" style="stroke:#181818;stroke-width:0.5;" width="89" x="574" y="103.3125"/><text fill="#000000" font-family="sans-serif" font-size="14" lengthAdjust="spacing" textLength="75" x="581" y="124.8457">Colaborator</text><line style="stroke:#181818;stroke-width:1.0;" x1="623.5" x2="665.5" y1="168.2734" y2="168.2734"/><line style="stroke:#181818;stroke-width:1.0;" x1="665.5" x2="665.5" y1="168.2734" y2="181.2734"/><line style="stroke:#181818;stroke-width:1.0;" x1="624.5" x2="665.5" y1="181.2734" y2="181.2734"/><polygon fill="#181818" points="634.5,177.2734,624.5,181.2734,634.5,185.2734,630.5,181.2734" style="stroke:#181818;stroke-width:1.0;"/><text fill="#000000" font-family="sans-serif" font-size="13" font-weight="bold" lengthAdjust="spacing" textLength="25" x="630.5" y="163.417">25.2</text><text fill="#000000" font-family="sans-serif" font-size="13" lengthAdjust="spacing" textLength="133" x="659.5" y="163.417">validateSkill(skillName)</text><line style="stroke:#181818;stroke-width:1.0;" x1="623.5" x2="665.5" y1="211.625" y2="211.625"/><line style="stroke:#181818;stroke-width:1.0;" x1="665.5" x2="665.5" y1="211.625" y2="224.625"/><line style="stroke:#181818;stroke-width:1.0;" x1="624.5" x2="665.5" y1="224.625" y2="224.625"/><polygon fill="#181818" points="634.5,220.625,624.5,224.625,634.5,228.625,630.5,224.625" style="stroke:#181818;stroke-width:1.0;"/><text fill="#000000" font-family="sans-serif" font-size="13" font-weight="bold" lengthAdjust="spacing" textLength="25" x="630.5" y="206.7686">25.3</text><text fill="#000000" font-family="sans-serif" font-size="13" lengthAdjust="spacing" textLength="128" x="659.5" y="206.7686">assignSkill(skillName)</text><polygon fill="#181818" points="295,250.9766,285,254.9766,295,258.9766,291,254.9766" style="stroke:#181818;stroke-width:1.0;"/><line style="stroke:#181818;stroke-width:1.0;stroke-dasharray:2.0,2.0;" x1="289" x2="617.5" y1="254.9766" y2="254.9766"/><text fill="#000000" font-family="sans-serif" font-size="13" font-weight="bold" lengthAdjust="spacing" textLength="25" x="301" y="250.1201">25.4</text><text fill="#000000" font-family="sans-serif" font-size="13" lengthAdjust="spacing" textLength="23" x="330" y="250.1201">skill</text><polygon fill="#181818" points="11,288.3281,1,292.3281,11,296.3281,7,292.3281" style="stroke:#181818;stroke-width:1.0;"/><line style="stroke:#181818;stroke-width:1.0;stroke-dasharray:2.0,2.0;" x1="5" x2="273" y1="292.3281" y2="292.3281"/><text fill="#000000" font-family="sans-serif" font-size="13" font-weight="bold" lengthAdjust="spacing" textLength="14" x="17" y="287.4717">26</text><text fill="#000000" font-family="sans-serif" font-size="13" lengthAdjust="spacing" textLength="23" x="35" y="287.4717">skill</text><!--SRC=[bL7DJiCm3BxdAQoTOA988C5XGaY8EmVs15vgigZvKvmExUr9WzYwjX7WasL_VvQvqovWH0lMEo_tqLk257iIVDe4b1qgsgQZ8OWa4pfbnW3UO-i_jLFmWOP9Y3nEMkg0Bi7grHk3Enyn-SZl53pht1rNW0oLtKpW1pCZ2O5zygwtEufm_o2Qvvhc9bDPAxVjj35NSWHwGqitmCDyQAydchTt0cNI1qnKpGkvLFHzW9TY0iM5HLaCLI729Ezw_O-OW-vYiaNNgTK63cXqcxdVLkFx_yA7owGp-YMt_fUiKxWdqr8jBLzMKEJQSyRnhnxF8azDywjZhYy0]--></g></svg>