<?xml version="1.0" encoding="UTF-8" standalone="no"?><svg xmlns="http://www.w3.org/2000/svg" xmlns:xlink="http://www.w3.org/1999/xlink" contentStyleType="text/css" height="346px" preserveAspectRatio="none" style="width:817px;height:346px;background:#FFFFFF;" version="1.1" viewBox="0 0 817 346" width="817px" zoomAndPan="magnify"><defs/><g><rect fill="#FFFFFF" height="231.3672" style="stroke:#181818;stroke-width:1.0;" width="10" x="281" y="69.9609"/><rect fill="#FFFFFF" height="119.3125" style="stroke:#181818;stroke-width:1.0;" width="10" x="620.5" y="135.6641"/><rect fill="none" height="208.3672" style="stroke:#000000;stroke-width:1.5;" width="808.5" x="3" y="84.9609"/><line style="stroke:#181818;stroke-width:0.5;stroke-dasharray:5.0,5.0;" x1="286" x2="286" y1="37.6094" y2="310.3281"/><line style="stroke:#181818;stroke-width:0.5;stroke-dasharray:5.0,5.0;" x1="625" x2="625" y1="134.6172" y2="310.3281"/><rect fill="#E3E3E3" height="31.6094" rx="2.5" ry="2.5" style="stroke:#181818;stroke-width:0.5;" width="160" x="206" y="5"/><text fill="#000000" font-family="sans-serif" font-size="14" lengthAdjust="spacing" textLength="146" x="213" y="26.5332">CollaboratorRepository</text><rect fill="#E3E3E3" height="31.6094" rx="2.5" ry="2.5" style="stroke:#181818;stroke-width:0.5;" width="160" x="206" y="309.3281"/><text fill="#000000" font-family="sans-serif" font-size="14" lengthAdjust="spacing" textLength="146" x="213" y="330.8613">CollaboratorRepository</text><rect fill="#E3E3E3" height="31.6094" rx="2.5" ry="2.5" style="stroke:#181818;stroke-width:0.5;" width="89" x="581" y="309.3281"/><text fill="#000000" font-family="sans-serif" font-size="14" lengthAdjust="spacing" textLength="75" x="588" y="330.8613">Colaborator</text><rect fill="#FFFFFF" height="231.3672" style="stroke:#181818;stroke-width:1.0;" width="10" x="281" y="69.9609"/><rect fill="#FFFFFF" height="119.3125" style="stroke:#181818;stroke-width:1.0;" width="10" x="620.5" y="135.6641"/><polygon fill="#181818" points="269,65.9609,279,69.9609,269,73.9609,273,69.9609" style="stroke:#181818;stroke-width:1.0;"/><line style="stroke:#181818;stroke-width:1.0;" x1="0" x2="275" y1="69.9609" y2="69.9609"/><text fill="#000000" font-family="sans-serif" font-size="13" font-weight="bold" lengthAdjust="spacing" textLength="14" x="7" y="65.1045">25</text><text fill="#000000" font-family="sans-serif" font-size="13" lengthAdjust="spacing" textLength="237" x="25" y="65.1045">assignSkill(collaboratorName, skillName)</text><path d="M3,84.9609 L127,84.9609 L127,93.3125 L117,103.3125 L3,103.3125 L3,84.9609 " fill="#EEEEEE" style="stroke:#000000;stroke-width:1.5;"/><rect fill="none" height="208.3672" style="stroke:#000000;stroke-width:1.5;" width="808.5" x="3" y="84.9609"/><text fill="#000000" font-family="sans-serif" font-size="13" font-weight="bold" lengthAdjust="spacing" textLength="79" x="18" y="99.4561">Assign Skills</text><polygon fill="#181818" points="569,121.6641,579,125.6641,569,129.6641,573,125.6641" style="stroke:#181818;stroke-width:1.0;"/><line style="stroke:#181818;stroke-width:1.0;" x1="291" x2="575" y1="125.6641" y2="125.6641"/><text fill="#000000" font-family="sans-serif" font-size="13" font-weight="bold" lengthAdjust="spacing" textLength="25" x="298" y="120.8076">25.1</text><text fill="#000000" font-family="sans-serif" font-size="13" lengthAdjust="spacing" textLength="237" x="327" y="120.8076">assignSkill(collaboratorName, skillName)</text><rect fill="#E3E3E3" height="31.6094" rx="2.5" ry="2.5" style="stroke:#181818;stroke-width:0.5;" width="89" x="581" y="103.3125"/><text fill="#000000" font-family="sans-serif" font-size="14" lengthAdjust="spacing" textLength="75" x="588" y="124.8457">Colaborator</text><line style="stroke:#181818;stroke-width:1.0;" x1="630.5" x2="672.5" y1="168.2734" y2="168.2734"/><line style="stroke:#181818;stroke-width:1.0;" x1="672.5" x2="672.5" y1="168.2734" y2="181.2734"/><line style="stroke:#181818;stroke-width:1.0;" x1="631.5" x2="672.5" y1="181.2734" y2="181.2734"/><polygon fill="#181818" points="641.5,177.2734,631.5,181.2734,641.5,185.2734,637.5,181.2734" style="stroke:#181818;stroke-width:1.0;"/><text fill="#000000" font-family="sans-serif" font-size="13" font-weight="bold" lengthAdjust="spacing" textLength="25" x="637.5" y="163.417">25.2</text><text fill="#000000" font-family="sans-serif" font-size="13" lengthAdjust="spacing" textLength="133" x="666.5" y="163.417">validateSkill(skillName)</text><line style="stroke:#181818;stroke-width:1.0;" x1="630.5" x2="672.5" y1="211.625" y2="211.625"/><line style="stroke:#181818;stroke-width:1.0;" x1="672.5" x2="672.5" y1="211.625" y2="224.625"/><line style="stroke:#181818;stroke-width:1.0;" x1="631.5" x2="672.5" y1="224.625" y2="224.625"/><polygon fill="#181818" points="641.5,220.625,631.5,224.625,641.5,228.625,637.5,224.625" style="stroke:#181818;stroke-width:1.0;"/><text fill="#000000" font-family="sans-serif" font-size="13" font-weight="bold" lengthAdjust="spacing" textLength="25" x="637.5" y="206.7686">25.3</text><text fill="#000000" font-family="sans-serif" font-size="13" lengthAdjust="spacing" textLength="128" x="666.5" y="206.7686">assignSkill(skillName)</text><polygon fill="#181818" points="302,250.9766,292,254.9766,302,258.9766,298,254.9766" style="stroke:#181818;stroke-width:1.0;"/><line style="stroke:#181818;stroke-width:1.0;stroke-dasharray:2.0,2.0;" x1="296" x2="624.5" y1="254.9766" y2="254.9766"/><text fill="#000000" font-family="sans-serif" font-size="13" font-weight="bold" lengthAdjust="spacing" textLength="25" x="308" y="250.1201">25.4</text><text fill="#000000" font-family="sans-serif" font-size="13" lengthAdjust="spacing" textLength="23" x="337" y="250.1201">skill</text><polygon fill="#181818" points="11,281.3281,1,285.3281,11,289.3281,7,285.3281" style="stroke:#181818;stroke-width:1.0;"/><line style="stroke:#181818;stroke-width:1.0;stroke-dasharray:2.0,2.0;" x1="5" x2="280" y1="285.3281" y2="285.3281"/><text fill="#000000" font-family="sans-serif" font-size="13" font-weight="bold" lengthAdjust="spacing" textLength="14" x="17" y="280.4717">26</text><text fill="#000000" font-family="sans-serif" font-size="13" lengthAdjust="spacing" textLength="23" x="35" y="280.4717">skill</text><!--SRC=[bP7BJWCn34Nt-GghAwWO991WKI4an9u5_G8tOz9eaZXACaNzUv8WodGUFBooR1_VQpbssdaCQC6oOxaFR0bIw4d4KyUZx53HDXqDGI2Pq2ap78XxRFbTEmLlQ289aSj9I-tH9LWzip6uuu29mojvZZednnLWXFdM1FyQcJ12O9_OzNP70MxlHFEui7AJoQYLstRQc0ivc7b1IrSGIxsabwELrpS2PT87JBJa5dAemBs7fwe1LIIAsYWnpy78x7hz3vDbxQolMT6nr0OEQ7IRsK-fuVL_uU7SwGG_PnUVajTKzAHPewMV3nk-v_uRVMYQtsHAb55oRSu-0000]--></g></svg>