<?xml version="1.0" encoding="UTF-8" standalone="no"?><svg xmlns="http://www.w3.org/2000/svg" xmlns:xlink="http://www.w3.org/1999/xlink" contentStyleType="text/css" height="1695px" preserveAspectRatio="none" style="width:2087px;height:1695px;background:#FFFFFF;" version="1.1" viewBox="0 0 2087 1695" width="2087px" zoomAndPan="magnify"><defs/><g><rect fill="#FFFFFF" height="1467.4297" style="stroke:#181818;stroke-width:1.0;" width="10" x="63" y="110.2188"/><rect fill="#FFFFFF" height="779.6953" style="stroke:#181818;stroke-width:1.0;" width="10" x="316" y="132.5703"/><rect fill="#FFFFFF" height="273.1641" style="stroke:#181818;stroke-width:1.0;" width="10" x="316" y="942.6172"/><rect fill="#FFFFFF" height="331.5156" style="stroke:#181818;stroke-width:1.0;" width="10" x="316" y="1246.1328"/><rect fill="#FFFFFF" height="660.0313" style="stroke:#181818;stroke-width:1.0;" width="10" x="553" y="205.5313"/><rect fill="#FFFFFF" height="498.625" style="stroke:#181818;stroke-width:1.0;" width="10" x="558" y="268.8828"/><rect fill="#FFFFFF" height="212.4609" style="stroke:#181818;stroke-width:1.0;" width="10" x="553" y="972.9688"/><rect fill="#FFFFFF" height="270.8125" style="stroke:#181818;stroke-width:1.0;" width="10" x="553" y="1276.4844"/><rect fill="#FFFFFF" height="30.3516" style="stroke:#181818;stroke-width:1.0;" width="10" x="745" y="486.3438"/><rect fill="#FFFFFF" height="30.3516" style="stroke:#181818;stroke-width:1.0;" width="10" x="745" y="1003.3203"/><rect fill="#FFFFFF" height="30.3516" style="stroke:#181818;stroke-width:1.0;" width="10" x="852" y="547.0469"/><rect fill="#FFFFFF" height="30.3516" style="stroke:#181818;stroke-width:1.0;" width="10" x="852" y="1064.0234"/><rect fill="#FFFFFF" height="30.3516" style="stroke:#181818;stroke-width:1.0;" width="10" x="979" y="304.2344"/><rect fill="#FFFFFF" height="30.3516" style="stroke:#181818;stroke-width:1.0;" width="10" x="1126" y="364.9375"/><rect fill="#FFFFFF" height="30.3516" style="stroke:#181818;stroke-width:1.0;" width="10" x="1259" y="425.6406"/><rect fill="#FFFFFF" height="123.4063" style="stroke:#181818;stroke-width:1.0;" width="10" x="1405" y="607.75"/><rect fill="#FFFFFF" height="30.3516" style="stroke:#181818;stroke-width:1.0;" width="10" x="1626" y="663.4531"/><rect fill="#FFFFFF" height="30.3516" style="stroke:#181818;stroke-width:1.0;" width="10" x="1626" y="804.8594"/><rect fill="#FFFFFF" height="210.1094" style="stroke:#181818;stroke-width:1.0;" width="10" x="1626" y="1306.8359"/><rect fill="#FFFFFF" height="30.3516" style="stroke:#181818;stroke-width:1.0;" width="10" x="1740.5" y="1124.7266"/><rect fill="#FFFFFF" height="149.4063" style="stroke:#181818;stroke-width:1.0;" width="10" x="1854" y="1337.1875"/><rect fill="none" height="79.0547" style="stroke:#000000;stroke-width:1.5;" width="371.5" x="1318.5" y="622.75"/><rect fill="none" height="105.0547" style="stroke:#000000;stroke-width:1.5;" width="280" x="1801" y="1352.1875"/><line style="stroke:#181818;stroke-width:0.5;stroke-dasharray:5.0,5.0;" x1="68" x2="68" y1="100.2188" y2="1595.6484"/><line style="stroke:#181818;stroke-width:0.5;stroke-dasharray:5.0,5.0;" x1="320.5" x2="320.5" y1="100.2188" y2="1595.6484"/><line style="stroke:#181818;stroke-width:0.5;stroke-dasharray:5.0,5.0;" x1="557.5" x2="557.5" y1="171.875" y2="1595.6484"/><line style="stroke:#181818;stroke-width:0.5;stroke-dasharray:5.0,5.0;" x1="749.5" x2="749.5" y1="100.2188" y2="1595.6484"/><line style="stroke:#181818;stroke-width:0.5;stroke-dasharray:5.0,5.0;" x1="856.5" x2="856.5" y1="100.2188" y2="1595.6484"/><line style="stroke:#181818;stroke-width:0.5;stroke-dasharray:5.0,5.0;" x1="983.5" x2="983.5" y1="100.2188" y2="1595.6484"/><line style="stroke:#181818;stroke-width:0.5;stroke-dasharray:5.0,5.0;" x1="1130.5" x2="1130.5" y1="100.2188" y2="1595.6484"/><line style="stroke:#181818;stroke-width:0.5;stroke-dasharray:5.0,5.0;" x1="1263.5" x2="1263.5" y1="100.2188" y2="1595.6484"/><line style="stroke:#181818;stroke-width:0.5;stroke-dasharray:5.0,5.0;" x1="1409.5" x2="1409.5" y1="100.2188" y2="1595.6484"/><line style="stroke:#181818;stroke-width:0.5;stroke-dasharray:5.0,5.0;" x1="1631" x2="1631" y1="100.2188" y2="1595.6484"/><line style="stroke:#181818;stroke-width:0.5;stroke-dasharray:5.0,5.0;" x1="1745" x2="1745" y1="100.2188" y2="1595.6484"/><line style="stroke:#181818;stroke-width:0.5;stroke-dasharray:5.0,5.0;" x1="1859" x2="1859" y1="100.2188" y2="1595.6484"/><text fill="#000000" font-family="sans-serif" font-size="14" lengthAdjust="spacing" textLength="116" x="5" y="79.5332">Human Resources</text><text fill="#000000" font-family="sans-serif" font-size="14" lengthAdjust="spacing" textLength="100" x="17" y="97.1426">Manager (HRM)</text><ellipse cx="68" cy="13.5" fill="#E3E3E3" rx="8" ry="8" style="stroke:#181818;stroke-width:0.5;"/><path d="M68,21.5 L68,48.5 M55,29.5 L81,29.5 M68,48.5 L55,63.5 M68,48.5 L81,63.5 " fill="none" style="stroke:#181818;stroke-width:0.5;"/><text fill="#000000" font-family="sans-serif" font-size="14" lengthAdjust="spacing" textLength="116" x="5" y="1609.1816">Human Resources</text><text fill="#000000" font-family="sans-serif" font-size="14" lengthAdjust="spacing" textLength="100" x="17" y="1626.791">Manager (HRM)</text><ellipse cx="68" cy="1638.3672" fill="#E3E3E3" rx="8" ry="8" style="stroke:#181818;stroke-width:0.5;"/><path d="M68,1646.3672 L68,1673.3672 M55,1654.3672 L81,1654.3672 M68,1673.3672 L55,1688.3672 M68,1673.3672 L81,1688.3672 " fill="none" style="stroke:#181818;stroke-width:0.5;"/><rect fill="#E3E3E3" height="31.6094" rx="2.5" ry="2.5" style="stroke:#181818;stroke-width:0.5;" width="97" x="272.5" y="67.6094"/><text fill="#000000" font-family="sans-serif" font-size="14" lengthAdjust="spacing" textLength="83" x="279.5" y="89.1426">:AssignSkillUI</text><rect fill="#E3E3E3" height="31.6094" rx="2.5" ry="2.5" style="stroke:#181818;stroke-width:0.5;" width="97" x="272.5" y="1594.6484"/><text fill="#000000" font-family="sans-serif" font-size="14" lengthAdjust="spacing" textLength="83" x="279.5" y="1616.1816">:AssignSkillUI</text><rect fill="#E3E3E3" height="31.6094" rx="2.5" ry="2.5" style="stroke:#181818;stroke-width:0.5;" width="147" x="484.5" y="1594.6484"/><text fill="#000000" font-family="sans-serif" font-size="14" lengthAdjust="spacing" textLength="133" x="491.5" y="1616.1816">:AssignSkillController</text><rect fill="#E3E3E3" height="31.6094" rx="2.5" ry="2.5" style="stroke:#181818;stroke-width:0.5;" width="97" x="701.5" y="67.6094"/><text fill="#000000" font-family="sans-serif" font-size="14" lengthAdjust="spacing" textLength="83" x="708.5" y="89.1426">:Repositories</text><rect fill="#E3E3E3" height="31.6094" rx="2.5" ry="2.5" style="stroke:#181818;stroke-width:0.5;" width="97" x="701.5" y="1594.6484"/><text fill="#000000" font-family="sans-serif" font-size="14" lengthAdjust="spacing" textLength="83" x="708.5" y="1616.1816">:Repositories</text><rect fill="#E3E3E3" height="49.2188" rx="2.5" ry="2.5" style="stroke:#181818;stroke-width:0.5;" width="97" x="808.5" y="50"/><text fill="#000000" font-family="sans-serif" font-size="14" lengthAdjust="spacing" textLength="74" x="820" y="71.5332">repositories</text><text fill="#000000" font-family="sans-serif" font-size="14" lengthAdjust="spacing" textLength="83" x="815.5" y="89.1426">:Repositories</text><rect fill="#E3E3E3" height="49.2188" rx="2.5" ry="2.5" style="stroke:#181818;stroke-width:0.5;" width="97" x="808.5" y="1594.6484"/><text fill="#000000" font-family="sans-serif" font-size="14" lengthAdjust="spacing" textLength="74" x="820" y="1616.1816">repositories</text><text fill="#000000" font-family="sans-serif" font-size="14" lengthAdjust="spacing" textLength="83" x="815.5" y="1633.791">:Repositories</text><rect fill="#E3E3E3" height="31.6094" rx="2.5" ry="2.5" style="stroke:#181818;stroke-width:0.5;" width="137" x="915.5" y="67.6094"/><text fill="#000000" font-family="sans-serif" font-size="14" lengthAdjust="spacing" textLength="123" x="922.5" y="89.1426">:ApplicationSession</text><rect fill="#E3E3E3" height="31.6094" rx="2.5" ry="2.5" style="stroke:#181818;stroke-width:0.5;" width="137" x="915.5" y="1594.6484"/><text fill="#000000" font-family="sans-serif" font-size="14" lengthAdjust="spacing" textLength="123" x="922.5" y="1616.1816">:ApplicationSession</text><rect fill="#E3E3E3" height="49.2188" rx="2.5" ry="2.5" style="stroke:#181818;stroke-width:0.5;" width="137" x="1062.5" y="50"/><text fill="#000000" font-family="sans-serif" font-size="14" lengthAdjust="spacing" textLength="74" x="1094" y="71.5332">appSession</text><text fill="#000000" font-family="sans-serif" font-size="14" lengthAdjust="spacing" textLength="123" x="1069.5" y="89.1426">:ApplicationSession</text><rect fill="#E3E3E3" height="49.2188" rx="2.5" ry="2.5" style="stroke:#181818;stroke-width:0.5;" width="137" x="1062.5" y="1594.6484"/><text fill="#000000" font-family="sans-serif" font-size="14" lengthAdjust="spacing" textLength="74" x="1094" y="1616.1816">appSession</text><text fill="#000000" font-family="sans-serif" font-size="14" lengthAdjust="spacing" textLength="123" x="1069.5" y="1633.791">:ApplicationSession</text><rect fill="#E3E3E3" height="49.2188" rx="2.5" ry="2.5" style="stroke:#181818;stroke-width:0.5;" width="109" x="1209.5" y="50"/><text fill="#000000" font-family="sans-serif" font-size="14" lengthAdjust="spacing" textLength="95" x="1216.5" y="71.5332">currentSession</text><text fill="#000000" font-family="sans-serif" font-size="14" lengthAdjust="spacing" textLength="83" x="1222.5" y="89.1426">:UserSession</text><rect fill="#E3E3E3" height="49.2188" rx="2.5" ry="2.5" style="stroke:#181818;stroke-width:0.5;" width="109" x="1209.5" y="1594.6484"/><text fill="#000000" font-family="sans-serif" font-size="14" lengthAdjust="spacing" textLength="95" x="1216.5" y="1616.1816">currentSession</text><text fill="#000000" font-family="sans-serif" font-size="14" lengthAdjust="spacing" textLength="83" x="1222.5" y="1633.791">:UserSession</text><rect fill="#E3E3E3" height="49.2188" rx="2.5" ry="2.5" style="stroke:#181818;stroke-width:0.5;" width="163" x="1328.5" y="50"/><text fill="#000000" font-family="sans-serif" font-size="14" lengthAdjust="spacing" textLength="149" x="1335.5" y="71.5332">organizationRepository:</text><text fill="#000000" font-family="sans-serif" font-size="14" lengthAdjust="spacing" textLength="148" x="1336" y="89.1426">OrganizationRepository</text><rect fill="#E3E3E3" height="49.2188" rx="2.5" ry="2.5" style="stroke:#181818;stroke-width:0.5;" width="163" x="1328.5" y="1594.6484"/><text fill="#000000" font-family="sans-serif" font-size="14" lengthAdjust="spacing" textLength="149" x="1335.5" y="1616.1816">organizationRepository:</text><text fill="#000000" font-family="sans-serif" font-size="14" lengthAdjust="spacing" textLength="148" x="1336" y="1633.791">OrganizationRepository</text><rect fill="#E3E3E3" height="49.2188" rx="2.5" ry="2.5" style="stroke:#181818;stroke-width:0.5;" width="98" x="1582" y="50"/><text fill="#000000" font-family="sans-serif" font-size="14" lengthAdjust="spacing" textLength="77" x="1592.5" y="71.5332">organization</text><text fill="#000000" font-family="sans-serif" font-size="14" lengthAdjust="spacing" textLength="84" x="1589" y="89.1426">:Organization</text><rect fill="#E3E3E3" height="49.2188" rx="2.5" ry="2.5" style="stroke:#181818;stroke-width:0.5;" width="98" x="1582" y="1594.6484"/><text fill="#000000" font-family="sans-serif" font-size="14" lengthAdjust="spacing" textLength="77" x="1592.5" y="1616.1816">organization</text><text fill="#000000" font-family="sans-serif" font-size="14" lengthAdjust="spacing" textLength="84" x="1589" y="1633.791">:Organization</text><rect fill="#E3E3E3" height="49.2188" rx="2.5" ry="2.5" style="stroke:#181818;stroke-width:0.5;" width="111" x="1690" y="50"/><text fill="#000000" font-family="sans-serif" font-size="14" lengthAdjust="spacing" textLength="91" x="1700" y="71.5332">skillRepository</text><text fill="#000000" font-family="sans-serif" font-size="14" lengthAdjust="spacing" textLength="97" x="1697" y="89.1426">:SkillRepository</text><rect fill="#E3E3E3" height="49.2188" rx="2.5" ry="2.5" style="stroke:#181818;stroke-width:0.5;" width="111" x="1690" y="1594.6484"/><text fill="#000000" font-family="sans-serif" font-size="14" lengthAdjust="spacing" textLength="91" x="1700" y="1616.1816">skillRepository</text><text fill="#000000" font-family="sans-serif" font-size="14" lengthAdjust="spacing" textLength="97" x="1697" y="1633.791">:SkillRepository</text><rect fill="#E3E3E3" height="49.2188" rx="2.5" ry="2.5" style="stroke:#181818;stroke-width:0.5;" width="96" x="1811" y="50"/><text fill="#000000" font-family="sans-serif" font-size="14" lengthAdjust="spacing" textLength="75" x="1821.5" y="71.5332">collaborator</text><text fill="#000000" font-family="sans-serif" font-size="14" lengthAdjust="spacing" textLength="82" x="1818" y="89.1426">:Collaborator</text><rect fill="#E3E3E3" height="49.2188" rx="2.5" ry="2.5" style="stroke:#181818;stroke-width:0.5;" width="96" x="1811" y="1594.6484"/><text fill="#000000" font-family="sans-serif" font-size="14" lengthAdjust="spacing" textLength="75" x="1821.5" y="1616.1816">collaborator</text><text fill="#000000" font-family="sans-serif" font-size="14" lengthAdjust="spacing" textLength="82" x="1818" y="1633.791">:Collaborator</text><rect fill="#FFFFFF" height="1467.4297" style="stroke:#181818;stroke-width:1.0;" width="10" x="63" y="110.2188"/><rect fill="#FFFFFF" height="779.6953" style="stroke:#181818;stroke-width:1.0;" width="10" x="316" y="132.5703"/><rect fill="#FFFFFF" height="273.1641" style="stroke:#181818;stroke-width:1.0;" width="10" x="316" y="942.6172"/><rect fill="#FFFFFF" height="331.5156" style="stroke:#181818;stroke-width:1.0;" width="10" x="316" y="1246.1328"/><rect fill="#FFFFFF" height="660.0313" style="stroke:#181818;stroke-width:1.0;" width="10" x="553" y="205.5313"/><rect fill="#FFFFFF" height="498.625" style="stroke:#181818;stroke-width:1.0;" width="10" x="558" y="268.8828"/><rect fill="#FFFFFF" height="212.4609" style="stroke:#181818;stroke-width:1.0;" width="10" x="553" y="972.9688"/><rect fill="#FFFFFF" height="270.8125" style="stroke:#181818;stroke-width:1.0;" width="10" x="553" y="1276.4844"/><rect fill="#FFFFFF" height="30.3516" style="stroke:#181818;stroke-width:1.0;" width="10" x="745" y="486.3438"/><rect fill="#FFFFFF" height="30.3516" style="stroke:#181818;stroke-width:1.0;" width="10" x="745" y="1003.3203"/><rect fill="#FFFFFF" height="30.3516" style="stroke:#181818;stroke-width:1.0;" width="10" x="852" y="547.0469"/><rect fill="#FFFFFF" height="30.3516" style="stroke:#181818;stroke-width:1.0;" width="10" x="852" y="1064.0234"/><rect fill="#FFFFFF" height="30.3516" style="stroke:#181818;stroke-width:1.0;" width="10" x="979" y="304.2344"/><rect fill="#FFFFFF" height="30.3516" style="stroke:#181818;stroke-width:1.0;" width="10" x="1126" y="364.9375"/><rect fill="#FFFFFF" height="30.3516" style="stroke:#181818;stroke-width:1.0;" width="10" x="1259" y="425.6406"/><rect fill="#FFFFFF" height="123.4063" style="stroke:#181818;stroke-width:1.0;" width="10" x="1405" y="607.75"/><rect fill="#FFFFFF" height="30.3516" style="stroke:#181818;stroke-width:1.0;" width="10" x="1626" y="663.4531"/><rect fill="#FFFFFF" height="30.3516" style="stroke:#181818;stroke-width:1.0;" width="10" x="1626" y="804.8594"/><rect fill="#FFFFFF" height="210.1094" style="stroke:#181818;stroke-width:1.0;" width="10" x="1626" y="1306.8359"/><rect fill="#FFFFFF" height="30.3516" style="stroke:#181818;stroke-width:1.0;" width="10" x="1740.5" y="1124.7266"/><rect fill="#FFFFFF" height="149.4063" style="stroke:#181818;stroke-width:1.0;" width="10" x="1854" y="1337.1875"/><polygon fill="#181818" points="304,128.5703,314,132.5703,304,136.5703,308,132.5703" style="stroke:#181818;stroke-width:1.0;"/><line style="stroke:#181818;stroke-width:1.0;" x1="73" x2="310" y1="132.5703" y2="132.5703"/><text fill="#000000" font-family="sans-serif" font-size="13" font-weight="bold" lengthAdjust="spacing" textLength="7" x="80" y="127.7139">1</text><text fill="#000000" font-family="sans-serif" font-size="13" lengthAdjust="spacing" textLength="203" x="91" y="127.7139">asks to add a skill to a collaborator</text><polygon fill="#181818" points="472.5,158.9219,482.5,162.9219,472.5,166.9219,476.5,162.9219" style="stroke:#181818;stroke-width:1.0;"/><line style="stroke:#181818;stroke-width:1.0;" x1="326" x2="478.5" y1="162.9219" y2="162.9219"/><text fill="#000000" font-family="sans-serif" font-size="13" font-weight="bold" lengthAdjust="spacing" textLength="7" x="333" y="158.0654">2</text><text fill="#000000" font-family="sans-serif" font-size="13" lengthAdjust="spacing" textLength="36" x="344" y="158.0654">create</text><rect fill="#E3E3E3" height="31.6094" rx="2.5" ry="2.5" style="stroke:#181818;stroke-width:0.5;" width="147" x="484.5" y="140.5703"/><text fill="#000000" font-family="sans-serif" font-size="14" lengthAdjust="spacing" textLength="133" x="491.5" y="162.1035">:AssignSkillController</text><polygon fill="#181818" points="541,201.5313,551,205.5313,541,209.5313,545,205.5313" style="stroke:#181818;stroke-width:1.0;"/><line style="stroke:#181818;stroke-width:1.0;" x1="326" x2="547" y1="205.5313" y2="205.5313"/><text fill="#000000" font-family="sans-serif" font-size="13" font-weight="bold" lengthAdjust="spacing" textLength="7" x="333" y="200.6748">3</text><text fill="#000000" font-family="sans-serif" font-size="13" lengthAdjust="spacing" textLength="102" x="344" y="200.6748">getCollaborators()</text><line style="stroke:#181818;stroke-width:1.0;" x1="563" x2="610" y1="255.8828" y2="255.8828"/><line style="stroke:#181818;stroke-width:1.0;" x1="610" x2="610" y1="255.8828" y2="268.8828"/><line style="stroke:#181818;stroke-width:1.0;" x1="569" x2="610" y1="268.8828" y2="268.8828"/><polygon fill="#181818" points="579,264.8828,569,268.8828,579,272.8828,575,268.8828" style="stroke:#181818;stroke-width:1.0;"/><text fill="#000000" font-family="sans-serif" font-size="13" font-weight="bold" lengthAdjust="spacing" textLength="7" x="575" y="251.0264">4</text><text fill="#000000" font-family="sans-serif" font-size="13" lengthAdjust="spacing" textLength="157" x="586" y="251.0264">getEmployeeOrganization()</text><polygon fill="#181818" points="967,300.2344,977,304.2344,967,308.2344,971,304.2344" style="stroke:#181818;stroke-width:1.0;"/><line style="stroke:#181818;stroke-width:1.0;" x1="568" x2="973" y1="304.2344" y2="304.2344"/><text fill="#000000" font-family="sans-serif" font-size="13" font-weight="bold" lengthAdjust="spacing" textLength="7" x="575" y="299.3779">5</text><text fill="#000000" font-family="sans-serif" font-size="13" lengthAdjust="spacing" textLength="75" x="586" y="299.3779">getInstance()</text><polygon fill="#181818" points="579,330.5859,569,334.5859,579,338.5859,575,334.5859" style="stroke:#181818;stroke-width:1.0;"/><line style="stroke:#181818;stroke-width:1.0;" x1="573" x2="983" y1="334.5859" y2="334.5859"/><text fill="#000000" font-family="sans-serif" font-size="13" font-weight="bold" lengthAdjust="spacing" textLength="7" x="585" y="329.7295">6</text><text fill="#000000" font-family="sans-serif" font-size="13" lengthAdjust="spacing" textLength="68" x="596" y="329.7295">appSession</text><polygon fill="#181818" points="1114,360.9375,1124,364.9375,1114,368.9375,1118,364.9375" style="stroke:#181818;stroke-width:1.0;"/><line style="stroke:#181818;stroke-width:1.0;" x1="568" x2="1120" y1="364.9375" y2="364.9375"/><text fill="#000000" font-family="sans-serif" font-size="13" font-weight="bold" lengthAdjust="spacing" textLength="7" x="575" y="360.0811">7</text><text fill="#000000" font-family="sans-serif" font-size="13" lengthAdjust="spacing" textLength="115" x="586" y="360.0811">getCurrentSession()</text><polygon fill="#181818" points="579,391.2891,569,395.2891,579,399.2891,575,395.2891" style="stroke:#181818;stroke-width:1.0;"/><line style="stroke:#181818;stroke-width:1.0;stroke-dasharray:2.0,2.0;" x1="573" x2="1130" y1="395.2891" y2="395.2891"/><text fill="#000000" font-family="sans-serif" font-size="13" font-weight="bold" lengthAdjust="spacing" textLength="7" x="585" y="390.4326">8</text><text fill="#000000" font-family="sans-serif" font-size="13" lengthAdjust="spacing" textLength="87" x="596" y="390.4326">currentSession</text><polygon fill="#181818" points="1247,421.6406,1257,425.6406,1247,429.6406,1251,425.6406" style="stroke:#181818;stroke-width:1.0;"/><line style="stroke:#181818;stroke-width:1.0;" x1="568" x2="1253" y1="425.6406" y2="425.6406"/><text fill="#000000" font-family="sans-serif" font-size="13" font-weight="bold" lengthAdjust="spacing" textLength="7" x="575" y="420.7842">9</text><text fill="#000000" font-family="sans-serif" font-size="13" lengthAdjust="spacing" textLength="133" x="586" y="420.7842">email = getUserEmail()</text><polygon fill="#181818" points="579,451.9922,569,455.9922,579,459.9922,575,455.9922" style="stroke:#181818;stroke-width:1.0;"/><line style="stroke:#181818;stroke-width:1.0;stroke-dasharray:2.0,2.0;" x1="573" x2="1263" y1="455.9922" y2="455.9922"/><text fill="#000000" font-family="sans-serif" font-size="13" font-weight="bold" lengthAdjust="spacing" textLength="14" x="585" y="451.1357">10</text><text fill="#000000" font-family="sans-serif" font-size="13" lengthAdjust="spacing" textLength="31" x="603" y="451.1357">email</text><polygon fill="#181818" points="733,482.3438,743,486.3438,733,490.3438,737,486.3438" style="stroke:#181818;stroke-width:1.0;"/><line style="stroke:#181818;stroke-width:1.0;" x1="568" x2="739" y1="486.3438" y2="486.3438"/><text fill="#000000" font-family="sans-serif" font-size="13" font-weight="bold" lengthAdjust="spacing" textLength="14" x="575" y="481.4873">11</text><text fill="#000000" font-family="sans-serif" font-size="13" lengthAdjust="spacing" textLength="75" x="593" y="481.4873">getInstance()</text><polygon fill="#181818" points="579,512.6953,569,516.6953,579,520.6953,575,516.6953" style="stroke:#181818;stroke-width:1.0;"/><line style="stroke:#181818;stroke-width:1.0;stroke-dasharray:2.0,2.0;" x1="573" x2="749" y1="516.6953" y2="516.6953"/><text fill="#000000" font-family="sans-serif" font-size="13" font-weight="bold" lengthAdjust="spacing" textLength="14" x="585" y="511.8389">12</text><text fill="#000000" font-family="sans-serif" font-size="13" lengthAdjust="spacing" textLength="67" x="603" y="511.8389">repositories</text><polygon fill="#181818" points="840,543.0469,850,547.0469,840,551.0469,844,547.0469" style="stroke:#181818;stroke-width:1.0;"/><line style="stroke:#181818;stroke-width:1.0;" x1="568" x2="846" y1="547.0469" y2="547.0469"/><text fill="#000000" font-family="sans-serif" font-size="13" font-weight="bold" lengthAdjust="spacing" textLength="14" x="575" y="542.1904">13</text><text fill="#000000" font-family="sans-serif" font-size="13" lengthAdjust="spacing" textLength="192" x="593" y="542.1904">getOrganizationRepository(email)</text><polygon fill="#181818" points="579,573.3984,569,577.3984,579,581.3984,575,577.3984" style="stroke:#181818;stroke-width:1.0;"/><line style="stroke:#181818;stroke-width:1.0;stroke-dasharray:2.0,2.0;" x1="573" x2="856" y1="577.3984" y2="577.3984"/><text fill="#000000" font-family="sans-serif" font-size="13" font-weight="bold" lengthAdjust="spacing" textLength="14" x="585" y="572.542">14</text><text fill="#000000" font-family="sans-serif" font-size="13" lengthAdjust="spacing" textLength="132" x="603" y="572.542">organizationRepository</text><polygon fill="#181818" points="1393,603.75,1403,607.75,1393,611.75,1397,607.75" style="stroke:#181818;stroke-width:1.0;"/><line style="stroke:#181818;stroke-width:1.0;" x1="568" x2="1399" y1="607.75" y2="607.75"/><text fill="#000000" font-family="sans-serif" font-size="13" font-weight="bold" lengthAdjust="spacing" textLength="14" x="575" y="602.8936">15</text><text fill="#000000" font-family="sans-serif" font-size="13" lengthAdjust="spacing" textLength="237" x="593" y="602.8936">getOrganizationByEmployeeEmail(email)</text><path d="M1318.5,622.75 L1391.5,622.75 L1391.5,631.1016 L1381.5,641.1016 L1318.5,641.1016 L1318.5,622.75 " fill="#EEEEEE" style="stroke:#000000;stroke-width:1.5;"/><rect fill="none" height="79.0547" style="stroke:#000000;stroke-width:1.5;" width="371.5" x="1318.5" y="622.75"/><text fill="#000000" font-family="sans-serif" font-size="13" font-weight="bold" lengthAdjust="spacing" textLength="28" x="1333.5" y="637.2451">loop</text><text fill="#000000" font-family="sans-serif" font-size="11" font-weight="bold" lengthAdjust="spacing" textLength="124" x="1406.5" y="636.1689">[for each organization]</text><polygon fill="#181818" points="1614,659.4531,1624,663.4531,1614,667.4531,1618,663.4531" style="stroke:#181818;stroke-width:1.0;"/><line style="stroke:#181818;stroke-width:1.0;" x1="1415" x2="1620" y1="663.4531" y2="663.4531"/><text fill="#000000" font-family="sans-serif" font-size="13" font-weight="bold" lengthAdjust="spacing" textLength="14" x="1422" y="658.5967">16</text><text fill="#000000" font-family="sans-serif" font-size="13" lengthAdjust="spacing" textLength="174" x="1440" y="658.5967">anyEmployeeHasEmail(email)</text><polygon fill="#181818" points="1426,689.8047,1416,693.8047,1426,697.8047,1422,693.8047" style="stroke:#181818;stroke-width:1.0;"/><line style="stroke:#181818;stroke-width:1.0;stroke-dasharray:2.0,2.0;" x1="1420" x2="1630" y1="693.8047" y2="693.8047"/><text fill="#000000" font-family="sans-serif" font-size="13" font-weight="bold" lengthAdjust="spacing" textLength="14" x="1432" y="688.9482">17</text><text fill="#000000" font-family="sans-serif" font-size="13" lengthAdjust="spacing" textLength="53" x="1450" y="688.9482">true/false</text><polygon fill="#181818" points="579,727.1563,569,731.1563,579,735.1563,575,731.1563" style="stroke:#181818;stroke-width:1.0;"/><line style="stroke:#181818;stroke-width:1.0;stroke-dasharray:2.0,2.0;" x1="573" x2="1409" y1="731.1563" y2="731.1563"/><text fill="#000000" font-family="sans-serif" font-size="13" font-weight="bold" lengthAdjust="spacing" textLength="14" x="585" y="726.2998">18</text><text fill="#000000" font-family="sans-serif" font-size="13" lengthAdjust="spacing" textLength="70" x="603" y="726.2998">organization</text><line style="stroke:#181818;stroke-width:1.0;stroke-dasharray:2.0,2.0;" x1="568" x2="610" y1="766.5078" y2="766.5078"/><line style="stroke:#181818;stroke-width:1.0;stroke-dasharray:2.0,2.0;" x1="610" x2="610" y1="766.5078" y2="779.5078"/><line style="stroke:#181818;stroke-width:1.0;stroke-dasharray:2.0,2.0;" x1="563" x2="610" y1="779.5078" y2="779.5078"/><polygon fill="#181818" points="573,775.5078,563,779.5078,573,783.5078,569,779.5078" style="stroke:#181818;stroke-width:1.0;"/><text fill="#000000" font-family="sans-serif" font-size="13" font-weight="bold" lengthAdjust="spacing" textLength="14" x="575" y="761.6514">19</text><text fill="#000000" font-family="sans-serif" font-size="13" lengthAdjust="spacing" textLength="70" x="593" y="761.6514">organization</text><polygon fill="#181818" points="1614,800.8594,1624,804.8594,1614,808.8594,1618,804.8594" style="stroke:#181818;stroke-width:1.0;"/><line style="stroke:#181818;stroke-width:1.0;" x1="563" x2="1620" y1="804.8594" y2="804.8594"/><text fill="#000000" font-family="sans-serif" font-size="13" font-weight="bold" lengthAdjust="spacing" textLength="14" x="570" y="800.0029">20</text><text fill="#000000" font-family="sans-serif" font-size="13" lengthAdjust="spacing" textLength="123" x="588" y="800.0029">getCollaboratorsList()</text><polygon fill="#181818" points="574,831.2109,564,835.2109,574,839.2109,570,835.2109" style="stroke:#181818;stroke-width:1.0;"/><line style="stroke:#181818;stroke-width:1.0;stroke-dasharray:2.0,2.0;" x1="568" x2="1630" y1="835.2109" y2="835.2109"/><text fill="#000000" font-family="sans-serif" font-size="13" font-weight="bold" lengthAdjust="spacing" textLength="14" x="580" y="830.3545">21</text><text fill="#000000" font-family="sans-serif" font-size="13" lengthAdjust="spacing" textLength="95" x="598" y="830.3545">collaboratorsList</text><polygon fill="#181818" points="337,861.5625,327,865.5625,337,869.5625,333,865.5625" style="stroke:#181818;stroke-width:1.0;"/><line style="stroke:#181818;stroke-width:1.0;stroke-dasharray:2.0,2.0;" x1="331" x2="557" y1="865.5625" y2="865.5625"/><text fill="#000000" font-family="sans-serif" font-size="13" font-weight="bold" lengthAdjust="spacing" textLength="14" x="343" y="860.7061">22</text><text fill="#000000" font-family="sans-serif" font-size="13" lengthAdjust="spacing" textLength="95" x="361" y="860.7061">collaboratorsList</text><polygon fill="#181818" points="84,908.2656,74,912.2656,84,916.2656,80,912.2656" style="stroke:#181818;stroke-width:1.0;"/><line style="stroke:#181818;stroke-width:1.0;stroke-dasharray:2.0,2.0;" x1="78" x2="320" y1="912.2656" y2="912.2656"/><text fill="#000000" font-family="sans-serif" font-size="13" font-weight="bold" lengthAdjust="spacing" textLength="14" x="90" y="899.2334">23</text><text fill="#000000" font-family="sans-serif" font-size="13" lengthAdjust="spacing" textLength="136" x="108" y="891.0576">shows collaborators list</text><text fill="#000000" font-family="sans-serif" font-size="13" lengthAdjust="spacing" textLength="91" x="112" y="907.4092">to assign skill/s</text><polygon fill="#181818" points="304,938.6172,314,942.6172,304,946.6172,308,942.6172" style="stroke:#181818;stroke-width:1.0;"/><line style="stroke:#181818;stroke-width:1.0;" x1="73" x2="310" y1="942.6172" y2="942.6172"/><text fill="#000000" font-family="sans-serif" font-size="13" font-weight="bold" lengthAdjust="spacing" textLength="14" x="80" y="937.7607">24</text><text fill="#000000" font-family="sans-serif" font-size="13" lengthAdjust="spacing" textLength="113" x="98" y="937.7607">choose collaborator</text><polygon fill="#181818" points="541,968.9688,551,972.9688,541,976.9688,545,972.9688" style="stroke:#181818;stroke-width:1.0;"/><line style="stroke:#181818;stroke-width:1.0;" x1="326" x2="547" y1="972.9688" y2="972.9688"/><text fill="#000000" font-family="sans-serif" font-size="13" font-weight="bold" lengthAdjust="spacing" textLength="14" x="333" y="968.1123">25</text><text fill="#000000" font-family="sans-serif" font-size="13" lengthAdjust="spacing" textLength="58" x="351" y="968.1123">getSkills()</text><polygon fill="#181818" points="733,999.3203,743,1003.3203,733,1007.3203,737,1003.3203" style="stroke:#181818;stroke-width:1.0;"/><line style="stroke:#181818;stroke-width:1.0;" x1="563" x2="739" y1="1003.3203" y2="1003.3203"/><text fill="#000000" font-family="sans-serif" font-size="13" font-weight="bold" lengthAdjust="spacing" textLength="14" x="570" y="998.4639">26</text><text fill="#000000" font-family="sans-serif" font-size="13" lengthAdjust="spacing" textLength="75" x="588" y="998.4639">getInstance()</text><polygon fill="#181818" points="574,1029.6719,564,1033.6719,574,1037.6719,570,1033.6719" style="stroke:#181818;stroke-width:1.0;"/><line style="stroke:#181818;stroke-width:1.0;stroke-dasharray:2.0,2.0;" x1="568" x2="749" y1="1033.6719" y2="1033.6719"/><text fill="#000000" font-family="sans-serif" font-size="13" font-weight="bold" lengthAdjust="spacing" textLength="14" x="580" y="1028.8154">27</text><text fill="#000000" font-family="sans-serif" font-size="13" lengthAdjust="spacing" textLength="67" x="598" y="1028.8154">repositories</text><polygon fill="#181818" points="840,1060.0234,850,1064.0234,840,1068.0234,844,1064.0234" style="stroke:#181818;stroke-width:1.0;"/><line style="stroke:#181818;stroke-width:1.0;" x1="563" x2="846" y1="1064.0234" y2="1064.0234"/><text fill="#000000" font-family="sans-serif" font-size="13" font-weight="bold" lengthAdjust="spacing" textLength="14" x="570" y="1059.167">28</text><text fill="#000000" font-family="sans-serif" font-size="13" lengthAdjust="spacing" textLength="113" x="588" y="1059.167">getSkillRepository()</text><polygon fill="#181818" points="574,1090.375,564,1094.375,574,1098.375,570,1094.375" style="stroke:#181818;stroke-width:1.0;"/><line style="stroke:#181818;stroke-width:1.0;" x1="568" x2="856" y1="1094.375" y2="1094.375"/><text fill="#000000" font-family="sans-serif" font-size="13" font-weight="bold" lengthAdjust="spacing" textLength="14" x="580" y="1089.5186">29</text><text fill="#000000" font-family="sans-serif" font-size="13" lengthAdjust="spacing" textLength="85" x="598" y="1089.5186">skillRepository</text><polygon fill="#181818" points="1728.5,1120.7266,1738.5,1124.7266,1728.5,1128.7266,1732.5,1124.7266" style="stroke:#181818;stroke-width:1.0;"/><line style="stroke:#181818;stroke-width:1.0;stroke-dasharray:2.0,2.0;" x1="563" x2="1734.5" y1="1124.7266" y2="1124.7266"/><text fill="#000000" font-family="sans-serif" font-size="13" font-weight="bold" lengthAdjust="spacing" textLength="14" x="570" y="1119.8701">30</text><text fill="#000000" font-family="sans-serif" font-size="13" lengthAdjust="spacing" textLength="72" x="588" y="1119.8701">getSkillList()</text><polygon fill="#181818" points="574,1151.0781,564,1155.0781,574,1159.0781,570,1155.0781" style="stroke:#181818;stroke-width:1.0;"/><line style="stroke:#181818;stroke-width:1.0;stroke-dasharray:2.0,2.0;" x1="568" x2="1744.5" y1="1155.0781" y2="1155.0781"/><text fill="#000000" font-family="sans-serif" font-size="13" font-weight="bold" lengthAdjust="spacing" textLength="14" x="580" y="1150.2217">31</text><text fill="#000000" font-family="sans-serif" font-size="13" lengthAdjust="spacing" textLength="44" x="598" y="1150.2217">skillList</text><polygon fill="#181818" points="337,1181.4297,327,1185.4297,337,1189.4297,333,1185.4297" style="stroke:#181818;stroke-width:1.0;"/><line style="stroke:#181818;stroke-width:1.0;stroke-dasharray:2.0,2.0;" x1="331" x2="557" y1="1185.4297" y2="1185.4297"/><text fill="#000000" font-family="sans-serif" font-size="13" font-weight="bold" lengthAdjust="spacing" textLength="14" x="343" y="1180.5732">32</text><text fill="#000000" font-family="sans-serif" font-size="13" lengthAdjust="spacing" textLength="44" x="361" y="1180.5732">skillList</text><polygon fill="#181818" points="84,1211.7813,74,1215.7813,84,1219.7813,80,1215.7813" style="stroke:#181818;stroke-width:1.0;"/><line style="stroke:#181818;stroke-width:1.0;stroke-dasharray:2.0,2.0;" x1="78" x2="320" y1="1215.7813" y2="1215.7813"/><text fill="#000000" font-family="sans-serif" font-size="13" font-weight="bold" lengthAdjust="spacing" textLength="14" x="90" y="1210.9248">33</text><text fill="#000000" font-family="sans-serif" font-size="13" lengthAdjust="spacing" textLength="85" x="108" y="1210.9248">show skills list</text><polygon fill="#181818" points="304,1242.1328,314,1246.1328,304,1250.1328,308,1246.1328" style="stroke:#181818;stroke-width:1.0;"/><line style="stroke:#181818;stroke-width:1.0;" x1="73" x2="310" y1="1246.1328" y2="1246.1328"/><text fill="#000000" font-family="sans-serif" font-size="13" font-weight="bold" lengthAdjust="spacing" textLength="14" x="80" y="1241.2764">34</text><text fill="#000000" font-family="sans-serif" font-size="13" lengthAdjust="spacing" textLength="206" x="98" y="1241.2764">choose one or more skills to assign</text><polygon fill="#181818" points="541,1272.4844,551,1276.4844,541,1280.4844,545,1276.4844" style="stroke:#181818;stroke-width:1.0;"/><line style="stroke:#181818;stroke-width:1.0;" x1="326" x2="547" y1="1276.4844" y2="1276.4844"/><text fill="#000000" font-family="sans-serif" font-size="13" font-weight="bold" lengthAdjust="spacing" textLength="14" x="333" y="1271.6279">35</text><text fill="#000000" font-family="sans-serif" font-size="13" lengthAdjust="spacing" textLength="190" x="351" y="1271.6279">assignSkill(collaborator, skillList)</text><polygon fill="#181818" points="1614,1302.8359,1624,1306.8359,1614,1310.8359,1618,1306.8359" style="stroke:#181818;stroke-width:1.0;"/><line style="stroke:#181818;stroke-width:1.0;" x1="563" x2="1620" y1="1306.8359" y2="1306.8359"/><text fill="#000000" font-family="sans-serif" font-size="13" font-weight="bold" lengthAdjust="spacing" textLength="14" x="570" y="1301.9795">36</text><text fill="#000000" font-family="sans-serif" font-size="13" lengthAdjust="spacing" textLength="190" x="588" y="1301.9795">assignSkill(collaborator, skillList)</text><polygon fill="#181818" points="1842,1333.1875,1852,1337.1875,1842,1341.1875,1846,1337.1875" style="stroke:#181818;stroke-width:1.0;"/><line style="stroke:#181818;stroke-width:1.0;" x1="1636" x2="1848" y1="1337.1875" y2="1337.1875"/><text fill="#000000" font-family="sans-serif" font-size="13" font-weight="bold" lengthAdjust="spacing" textLength="14" x="1643" y="1332.3311">37</text><text fill="#000000" font-family="sans-serif" font-size="13" lengthAdjust="spacing" textLength="122" x="1661" y="1332.3311">assignSkills(skillList)</text><path d="M1801,1352.1875 L1874,1352.1875 L1874,1360.5391 L1864,1370.5391 L1801,1370.5391 L1801,1352.1875 " fill="#EEEEEE" style="stroke:#000000;stroke-width:1.5;"/><rect fill="none" height="105.0547" style="stroke:#000000;stroke-width:1.5;" width="280" x="1801" y="1352.1875"/><text fill="#000000" font-family="sans-serif" font-size="13" font-weight="bold" lengthAdjust="spacing" textLength="28" x="1816" y="1366.6826">loop</text><text fill="#000000" font-family="sans-serif" font-size="11" font-weight="bold" lengthAdjust="spacing" textLength="139" x="1889" y="1365.6064">[for each skill in skillList]</text><line style="stroke:#181818;stroke-width:1.0;" x1="1864" x2="1906" y1="1392.8906" y2="1392.8906"/><line style="stroke:#181818;stroke-width:1.0;" x1="1906" x2="1906" y1="1392.8906" y2="1405.8906"/><line style="stroke:#181818;stroke-width:1.0;" x1="1865" x2="1906" y1="1405.8906" y2="1405.8906"/><polygon fill="#181818" points="1875,1401.8906,1865,1405.8906,1875,1409.8906,1871,1405.8906" style="stroke:#181818;stroke-width:1.0;"/><text fill="#000000" font-family="sans-serif" font-size="13" font-weight="bold" lengthAdjust="spacing" textLength="14" x="1871" y="1388.0342">38</text><text fill="#000000" font-family="sans-serif" font-size="13" lengthAdjust="spacing" textLength="94" x="1889" y="1388.0342">assignSkill(skill)</text><line style="stroke:#181818;stroke-width:1.0;" x1="1864" x2="1906" y1="1436.2422" y2="1436.2422"/><line style="stroke:#181818;stroke-width:1.0;" x1="1906" x2="1906" y1="1436.2422" y2="1449.2422"/><line style="stroke:#181818;stroke-width:1.0;" x1="1865" x2="1906" y1="1449.2422" y2="1449.2422"/><polygon fill="#181818" points="1875,1445.2422,1865,1449.2422,1875,1453.2422,1871,1449.2422" style="stroke:#181818;stroke-width:1.0;"/><text fill="#000000" font-family="sans-serif" font-size="13" font-weight="bold" lengthAdjust="spacing" textLength="14" x="1871" y="1431.3857">39</text><text fill="#000000" font-family="sans-serif" font-size="13" lengthAdjust="spacing" textLength="180" x="1889" y="1431.3857">validateSkillWasAssigned(skill)</text><polygon fill="#181818" points="1647,1482.5938,1637,1486.5938,1647,1490.5938,1643,1486.5938" style="stroke:#181818;stroke-width:1.0;"/><line style="stroke:#181818;stroke-width:1.0;stroke-dasharray:2.0,2.0;" x1="1641" x2="1858" y1="1486.5938" y2="1486.5938"/><text fill="#000000" font-family="sans-serif" font-size="13" font-weight="bold" lengthAdjust="spacing" textLength="14" x="1653" y="1481.7373">40</text><text fill="#000000" font-family="sans-serif" font-size="13" lengthAdjust="spacing" textLength="53" x="1671" y="1481.7373">true/false</text><polygon fill="#181818" points="574,1512.9453,564,1516.9453,574,1520.9453,570,1516.9453" style="stroke:#181818;stroke-width:1.0;"/><line style="stroke:#181818;stroke-width:1.0;stroke-dasharray:2.0,2.0;" x1="568" x2="1630" y1="1516.9453" y2="1516.9453"/><text fill="#000000" font-family="sans-serif" font-size="13" font-weight="bold" lengthAdjust="spacing" textLength="14" x="580" y="1512.0889">41</text><text fill="#000000" font-family="sans-serif" font-size="13" lengthAdjust="spacing" textLength="53" x="598" y="1512.0889">true/false</text><polygon fill="#181818" points="337,1543.2969,327,1547.2969,337,1551.2969,333,1547.2969" style="stroke:#181818;stroke-width:1.0;"/><line style="stroke:#181818;stroke-width:1.0;stroke-dasharray:2.0,2.0;" x1="331" x2="557" y1="1547.2969" y2="1547.2969"/><text fill="#000000" font-family="sans-serif" font-size="13" font-weight="bold" lengthAdjust="spacing" textLength="14" x="343" y="1542.4404">42</text><text fill="#000000" font-family="sans-serif" font-size="13" lengthAdjust="spacing" textLength="53" x="361" y="1542.4404">true/false</text><polygon fill="#181818" points="79,1573.6484,69,1577.6484,79,1581.6484,75,1577.6484" style="stroke:#181818;stroke-width:1.0;"/><line style="stroke:#181818;stroke-width:1.0;stroke-dasharray:2.0,2.0;" x1="73" x2="320" y1="1577.6484" y2="1577.6484"/><text fill="#000000" font-family="sans-serif" font-size="13" font-weight="bold" lengthAdjust="spacing" textLength="14" x="85" y="1572.792">43</text><text fill="#000000" font-family="sans-serif" font-size="13" lengthAdjust="spacing" textLength="158" x="103" y="1572.792">displays operation success</text><!--SRC=[xLZVRzis47xNNt7eo-nYQPUiBJe3AvPaMNx0HWpBQLy238pCE4HaKY2fT1don-z8MH8fKv9JO6yIOC0IxxxxZZmUZwSU6S-891lO22wI1oas5BJCQQIgaOmaZsHDO_sSKf0qqOIlKrT0FP2L-Cxu6kv9gcWKaLmBdc_kg8oYdnxOYiAz4FfE_1EHH0i9Roxo3U6me4haCg4ARZdC24SZ4aONYzdu3H05-2T20vebB2DSmvl9iL9ipUD7bgOtbrRcvh9Tv5HmBKMQKcb5JvUBQKDuGJEX639YL5cPwiDpp8oJw8Ql8XsDMxuBC9yUBvkCiYnb2T5Cy9WYEy6jvD_7yxalIR9iAu38BLexIaak9UMwLhnHLBeQyLaS7r_xIaAk2MV_MlJQvSajlmuEM9pmK3ikKd5L2ep5kQ-Wp3hLQAWJ-ryA5_nlZGd05IPtGX8SGlrJvxLOzklfzFWaCf77deYcDgmYs3xu0WTVC8nWWiAF2hG0ibe10KlDle9hebQj0346ww_cGJJ4DF7szYtY9fAYM9i82gofTcchqTYJhGpP2FQ6pFFoyhBppG9x1iusMIgUANNNf65d3rikjWbW2tt95QQ4X0RWF4WRyT3ocC6ICIv5jHM22YlgWtOJBNcUUbkbZwt5RMDhoLPi_JtOnxWLkEHRxDW9q0rXAVnkg9jDVMPU-rXlTtihyMBSuMwDz57kGYrP1rBdgw8Zb7g36W51nnytGVUvjRV9qaUJtQrJuMGuifFPuwSz8LhNnumwteGJTPzVXObEJy8ExFXsybpcZIBwzd6mvQ1eTJaL8iFwG08wyE1vtAvZdh0TwzpYtAHpNf6_8AgN_wuVU5XrIXOiqDP1wuGY3LDClI_geYuSP_cCuJOnobVHQoUaFWUyoUrZyOfbBA9gJpkEZV0XKyNeudptR9mofRlEhU2gbOkqJTTDlAXdCQ9MVstTq8tNwQuf0n36L24JBAF5T-MZGOfmM1oRCiGMjaLPyhvERGwygKEQDKto88IYVWMpKxm4wX5RSZKAaQOV7PaVMbF_didtHvBytfdTJUUEkquY3n5k9EuYKrTprgXae_Qyl1j53UiEfMQqroTomrmjqWIhPqsLY45oxOX-j7UZD49y9xuBzIAkWm1b44DB90kEFuctLKbBh6fp1ER9W_E2dDGNnP6xFNwkFGnDVCD19rVzEAQVOsoo-hAzj_YWQjJDRNlLQJbQYniDuw4bt5fpxBg-M8Lnr2N-H5AsGX9MuHjHnJsShafTxmJR1QgcC7HSkl7LTD5DxVtg_apxWTrdkIEoLqnbANbM838gxQa7AayIl0_qnxZplRYP_e4pb6_Io6cm_5-zcQ4RCtHZXcxCq8qPkZ53DsRenWpTcA4RCtHZXcxCq8qPkZ53DsRenWpTcA4RKtTZvYbUS6zcKtYYqbmiuF3TqIz7lxux7CKvXol2uUWtE3oQVFmy-VW9lfqjmGoFez7vV0f5PyKmqvBTvORJEBeYJmGMETTiGoTWtaRBsHZB-_8ZdF4d9WNVu7KcklewAuJWGkWu4zeAV_fmSC8qn5GYBVWwY_wazoHFDQecOeNPTW8toxyEFaTJmjSvMQEXJ4Ud0WsO0dE-_0y0]--></g></svg>