<?xml version="1.0" encoding="UTF-8" standalone="no"?><svg xmlns="http://www.w3.org/2000/svg" xmlns:xlink="http://www.w3.org/1999/xlink" contentStyleType="text/css" height="426px" preserveAspectRatio="none" style="width:429px;height:426px;background:#FFFFFF;" version="1.1" viewBox="0 0 429 426" width="429px" zoomAndPan="magnify"><defs/><g><text fill="#000000" font-family="sans-serif" font-size="14" font-weight="bold" lengthAdjust="spacing" textLength="337" x="45" y="29.5332">System Sequence Diagram (SSD) - Main Solution</text><rect fill="#FFFFFF" height="86.0547" style="stroke:#181818;stroke-width:1.0;" width="10" x="45" y="231.8828"/><rect fill="#FFFFFF" height="83.0547" style="stroke:#181818;stroke-width:1.0;" width="10" x="145" y="148.8281"/><rect fill="#FFFFFF" height="60.7031" style="stroke:#181818;stroke-width:1.0;" width="10" x="386" y="171.1797"/><rect fill="#FFFFFF" height="46.7031" style="stroke:#181818;stroke-width:1.0;" width="10" x="386" y="262.2344"/><line style="stroke:#181818;stroke-width:0.5;stroke-dasharray:5.0,5.0;" x1="50" x2="50" y1="138.8281" y2="326.9375"/><line style="stroke:#181818;stroke-width:0.5;stroke-dasharray:5.0,5.0;" x1="150" x2="150" y1="138.8281" y2="326.9375"/><line style="stroke:#181818;stroke-width:0.5;stroke-dasharray:5.0,5.0;" x1="391" x2="391" y1="138.8281" y2="326.9375"/><text fill="#000000" font-family="sans-serif" font-size="14" lengthAdjust="spacing" textLength="84" x="5" y="118.1426">Green Space</text><text fill="#000000" font-family="sans-serif" font-size="14" lengthAdjust="spacing" textLength="56" x="19" y="135.752">Manager</text><ellipse cx="50" cy="52.1094" fill="#E3E3E3" rx="8" ry="8" style="stroke:#181818;stroke-width:0.5;"/><path d="M50,60.1094 L50,87.1094 M37,68.1094 L63,68.1094 M50,87.1094 L37,102.1094 M50,87.1094 L63,102.1094 " fill="none" style="stroke:#181818;stroke-width:0.5;"/><text fill="#000000" font-family="sans-serif" font-size="14" lengthAdjust="spacing" textLength="84" x="5" y="340.4707">Green Space</text><text fill="#000000" font-family="sans-serif" font-size="14" lengthAdjust="spacing" textLength="56" x="19" y="358.0801">Manager</text><ellipse cx="50" cy="369.6563" fill="#E3E3E3" rx="8" ry="8" style="stroke:#181818;stroke-width:0.5;"/><path d="M50,377.6563 L50,404.6563 M37,385.6563 L63,385.6563 M50,404.6563 L37,419.6563 M50,404.6563 L63,419.6563 " fill="none" style="stroke:#181818;stroke-width:0.5;"/><text fill="#000000" font-family="sans-serif" font-size="14" lengthAdjust="spacing" textLength="84" x="105" y="118.1426">Green Space</text><text fill="#000000" font-family="sans-serif" font-size="14" lengthAdjust="spacing" textLength="29" x="132.5" y="135.752">User</text><ellipse cx="150" cy="52.1094" fill="#E3E3E3" rx="8" ry="8" style="stroke:#181818;stroke-width:0.5;"/><path d="M150,60.1094 L150,87.1094 M137,68.1094 L163,68.1094 M150,87.1094 L137,102.1094 M150,87.1094 L163,102.1094 " fill="none" style="stroke:#181818;stroke-width:0.5;"/><text fill="#000000" font-family="sans-serif" font-size="14" lengthAdjust="spacing" textLength="84" x="105" y="340.4707">Green Space</text><text fill="#000000" font-family="sans-serif" font-size="14" lengthAdjust="spacing" textLength="29" x="132.5" y="358.0801">User</text><ellipse cx="150" cy="369.6563" fill="#E3E3E3" rx="8" ry="8" style="stroke:#181818;stroke-width:0.5;"/><path d="M150,377.6563 L150,404.6563 M137,385.6563 L163,385.6563 M150,404.6563 L137,419.6563 M150,404.6563 L163,419.6563 " fill="none" style="stroke:#181818;stroke-width:0.5;"/><rect fill="#E3E3E3" height="31.6094" rx="2.5" ry="2.5" style="stroke:#181818;stroke-width:0.5;" width="64" x="359" y="106.2188"/><text fill="#000000" font-family="sans-serif" font-size="14" lengthAdjust="spacing" textLength="50" x="366" y="127.752">:System</text><rect fill="#E3E3E3" height="31.6094" rx="2.5" ry="2.5" style="stroke:#181818;stroke-width:0.5;" width="64" x="359" y="325.9375"/><text fill="#000000" font-family="sans-serif" font-size="14" lengthAdjust="spacing" textLength="50" x="366" y="347.4707">:System</text><rect fill="#FFFFFF" height="86.0547" style="stroke:#181818;stroke-width:1.0;" width="10" x="45" y="231.8828"/><rect fill="#FFFFFF" height="83.0547" style="stroke:#181818;stroke-width:1.0;" width="10" x="145" y="148.8281"/><rect fill="#FFFFFF" height="60.7031" style="stroke:#181818;stroke-width:1.0;" width="10" x="386" y="171.1797"/><rect fill="#FFFFFF" height="46.7031" style="stroke:#181818;stroke-width:1.0;" width="10" x="386" y="262.2344"/><polygon fill="#181818" points="166,167.1797,156,171.1797,166,175.1797,162,171.1797" style="stroke:#181818;stroke-width:1.0;"/><line style="stroke:#181818;stroke-width:1.0;" x1="160" x2="385" y1="171.1797" y2="171.1797"/><text fill="#000000" font-family="sans-serif" font-size="13" font-weight="bold" lengthAdjust="spacing" textLength="7" x="172" y="166.3232">1</text><text fill="#000000" font-family="sans-serif" font-size="13" lengthAdjust="spacing" textLength="114" x="183" y="166.3232">presents the inquiry</text><polygon fill="#181818" points="374,197.5313,384,201.5313,374,205.5313,378,201.5313" style="stroke:#181818;stroke-width:1.0;"/><line style="stroke:#181818;stroke-width:1.0;" x1="155" x2="380" y1="201.5313" y2="201.5313"/><text fill="#000000" font-family="sans-serif" font-size="13" font-weight="bold" lengthAdjust="spacing" textLength="7" x="162" y="196.6748">2</text><text fill="#000000" font-family="sans-serif" font-size="13" lengthAdjust="spacing" textLength="127" x="173" y="196.6748">answers to the inquiry</text><polygon fill="#181818" points="161,227.8828,151,231.8828,161,235.8828,157,231.8828" style="stroke:#181818;stroke-width:1.0;"/><line style="stroke:#181818;stroke-width:1.0;stroke-dasharray:2.0,2.0;" x1="155" x2="390" y1="231.8828" y2="231.8828"/><text fill="#000000" font-family="sans-serif" font-size="13" font-weight="bold" lengthAdjust="spacing" textLength="7" x="167" y="227.0264">3</text><text fill="#000000" font-family="sans-serif" font-size="13" lengthAdjust="spacing" textLength="196" x="178" y="227.0264">presents success in the operation</text><polygon fill="#181818" points="374,258.2344,384,262.2344,374,266.2344,378,262.2344" style="stroke:#181818;stroke-width:1.0;"/><line style="stroke:#181818;stroke-width:1.0;" x1="55" x2="380" y1="262.2344" y2="262.2344"/><text fill="#000000" font-family="sans-serif" font-size="13" font-weight="bold" lengthAdjust="spacing" textLength="7" x="62" y="257.3779">4</text><text fill="#000000" font-family="sans-serif" font-size="13" lengthAdjust="spacing" textLength="149" x="73" y="257.3779">asks for the park analysis</text><polygon fill="#181818" points="66,304.9375,56,308.9375,66,312.9375,62,308.9375" style="stroke:#181818;stroke-width:1.0;"/><line style="stroke:#181818;stroke-width:1.0;stroke-dasharray:2.0,2.0;" x1="60" x2="390" y1="308.9375" y2="308.9375"/><text fill="#000000" font-family="sans-serif" font-size="13" font-weight="bold" lengthAdjust="spacing" textLength="7" x="72" y="295.9053">5</text><text fill="#000000" font-family="sans-serif" font-size="13" lengthAdjust="spacing" textLength="188" x="83" y="287.7295">presents park analysis based on</text><text fill="#000000" font-family="sans-serif" font-size="13" lengthAdjust="spacing" textLength="77" x="83" y="304.0811">user inquiries</text><!--SRC=[TL2zSi8m3Dxp53gcTk0563fnruafrur5E2BuaiZ1ak7ozbMSX0A5J8hy_KeQppr6xA0B7DmfXev0Ow92RYyzkWPhAdLe2I8vHQxRUu2Si0fNppKSiHKg2lLgq78GfGvAEYTYHx3rM8_mZxBSVi8QTkWPoj0czO6B0fC6Jjs1eirEGuJLToGoY0MWFU-GBKLS0GhCyqlSZyoWSIWieNhdUsI5rMQAb5-dCLlv2ofDSB1lpht-oYlOG1z9Y5L0JmIUpyd78IDlt4LiN6QIaMUP3I3BbQAnmp-1nUg5boJdICJWcHLwYZWTQYHMzEnzjybD_eejnyh4-USne3G2HplaQ6G7QomojeDuUT_oAVqYUrVWGGWEA5H1u3sdiUXq14_ofiql]--></g></svg>