<?xml version="1.0" encoding="UTF-8" standalone="no"?><svg xmlns="http://www.w3.org/2000/svg" xmlns:xlink="http://www.w3.org/1999/xlink" contentStyleType="text/css" height="1880px" preserveAspectRatio="none" style="width:2620px;height:1880px;background:#FFFFFF;" version="1.1" viewBox="0 0 2620 1880" width="2620px" zoomAndPan="magnify"><defs/><g><rect fill="#FFFFFF" height="1661.0938" style="stroke:#181818;stroke-width:1.0;" width="10" x="63" y="110.2188"/><rect fill="#FFFFFF" height="332.125" style="stroke:#181818;stroke-width:1.0;" width="10" x="374" y="132.5703"/><rect fill="#FFFFFF" height="30.3516" style="stroke:#181818;stroke-width:1.0;" width="10" x="374" y="495.0469"/><rect fill="#FFFFFF" height="30.3516" style="stroke:#181818;stroke-width:1.0;" width="10" x="374" y="555.75"/><rect fill="#FFFFFF" height="1145.8594" style="stroke:#181818;stroke-width:1.0;" width="10" x="374" y="616.4531"/><rect fill="#FFFFFF" height="212.4609" style="stroke:#181818;stroke-width:1.0;" width="10" x="557" y="205.5313"/><rect fill="#FFFFFF" height="1085.1563" style="stroke:#181818;stroke-width:1.0;" width="10" x="557" y="646.8047"/><rect fill="#FFFFFF" height="223.4609" style="stroke:#181818;stroke-width:1.0;" width="10" x="562" y="685.1563"/><rect fill="#FFFFFF" height="437.9219" style="stroke:#181818;stroke-width:1.0;" width="10" x="562" y="978.9688"/><rect fill="#FFFFFF" height="30.3516" style="stroke:#181818;stroke-width:1.0;" width="10" x="760" y="235.8828"/><rect fill="#FFFFFF" height="30.3516" style="stroke:#181818;stroke-width:1.0;" width="10" x="760" y="720.5078"/><rect fill="#FFFFFF" height="30.3516" style="stroke:#181818;stroke-width:1.0;" width="10" x="867" y="296.5859"/><rect fill="#FFFFFF" height="30.3516" style="stroke:#181818;stroke-width:1.0;" width="10" x="867" y="781.2109"/><rect fill="#FFFFFF" height="30.3516" style="stroke:#181818;stroke-width:1.0;" width="10" x="867" y="1196.4297"/><rect fill="#FFFFFF" height="30.3516" style="stroke:#181818;stroke-width:1.0;" width="10" x="1166" y="1014.3203"/><rect fill="#FFFFFF" height="30.3516" style="stroke:#181818;stroke-width:1.0;" width="10" x="1313" y="1075.0234"/><rect fill="#FFFFFF" height="30.3516" style="stroke:#181818;stroke-width:1.0;" width="10" x="1446" y="1135.7266"/><rect fill="#FFFFFF" height="30.3516" style="stroke:#181818;stroke-width:1.0;" width="10" x="1808" y="1282.4844"/><rect fill="#FFFFFF" height="390.7734" style="stroke:#181818;stroke-width:1.0;" width="10" x="1808" y="1380.5391"/><rect fill="#FFFFFF" height="189.6641" style="stroke:#181818;stroke-width:1.0;" width="10" x="1813" y="1511.9453"/><rect fill="#FFFFFF" height="71.3516" style="stroke:#181818;stroke-width:1.0;" width="10" x="1818" y="1592.9063"/><rect fill="#FFFFFF" height="28" style="stroke:#181818;stroke-width:1.0;" width="10" x="1823" y="1636.2578"/><rect fill="#FFFFFF" height="30.3516" style="stroke:#181818;stroke-width:1.0;" width="10" x="2096" y="357.2891"/><rect fill="#FFFFFF" height="30.3516" style="stroke:#181818;stroke-width:1.0;" width="10" x="2241.5" y="841.9141"/><rect fill="none" height="79.0547" style="stroke:#000000;stroke-width:1.5;" width="366.5" x="1505.5" y="1241.7813"/><line style="stroke:#181818;stroke-width:0.5;stroke-dasharray:5.0,5.0;" x1="68" x2="68" y1="100.2188" y2="1780.3125"/><line style="stroke:#181818;stroke-width:0.5;stroke-dasharray:5.0,5.0;" x1="379" x2="379" y1="100.2188" y2="1780.3125"/><line style="stroke:#181818;stroke-width:0.5;stroke-dasharray:5.0,5.0;" x1="562" x2="562" y1="171.875" y2="1780.3125"/><line style="stroke:#181818;stroke-width:0.5;stroke-dasharray:5.0,5.0;" x1="764.5" x2="764.5" y1="100.2188" y2="1780.3125"/><line style="stroke:#181818;stroke-width:0.5;stroke-dasharray:5.0,5.0;" x1="871.5" x2="871.5" y1="100.2188" y2="1780.3125"/><line style="stroke:#181818;stroke-width:0.5;stroke-dasharray:5.0,5.0;" x1="1011.5" x2="1011.5" y1="100.2188" y2="1780.3125"/><line style="stroke:#181818;stroke-width:0.5;stroke-dasharray:5.0,5.0;" x1="1170.5" x2="1170.5" y1="100.2188" y2="1780.3125"/><line style="stroke:#181818;stroke-width:0.5;stroke-dasharray:5.0,5.0;" x1="1317.5" x2="1317.5" y1="100.2188" y2="1780.3125"/><line style="stroke:#181818;stroke-width:0.5;stroke-dasharray:5.0,5.0;" x1="1450.5" x2="1450.5" y1="100.2188" y2="1780.3125"/><line style="stroke:#181818;stroke-width:0.5;stroke-dasharray:5.0,5.0;" x1="1596.5" x2="1596.5" y1="100.2188" y2="1780.3125"/><line style="stroke:#181818;stroke-width:0.5;stroke-dasharray:5.0,5.0;" x1="1813" x2="1813" y1="100.2188" y2="1780.3125"/><line style="stroke:#181818;stroke-width:0.5;stroke-dasharray:5.0,5.0;" x1="1989" x2="1989" y1="100.2188" y2="1780.3125"/><line style="stroke:#181818;stroke-width:0.5;stroke-dasharray:5.0,5.0;" x1="2101" x2="2101" y1="100.2188" y2="1780.3125"/><line style="stroke:#181818;stroke-width:0.5;stroke-dasharray:5.0,5.0;" x1="2246" x2="2246" y1="100.2188" y2="1780.3125"/><line style="stroke:#181818;stroke-width:0.5;stroke-dasharray:5.0,5.0;" x1="2364" x2="2364" y1="100.2188" y2="1780.3125"/><line style="stroke:#181818;stroke-width:0.5;stroke-dasharray:5.0,5.0;" x1="2448" x2="2448" y1="1551.25" y2="1780.3125"/><line style="stroke:#181818;stroke-width:0.5;stroke-dasharray:5.0,5.0;" x1="2547" x2="2547" y1="100.2188" y2="1780.3125"/><text fill="#000000" font-family="sans-serif" font-size="14" lengthAdjust="spacing" textLength="116" x="5" y="79.5332">Human Resources</text><text fill="#000000" font-family="sans-serif" font-size="14" lengthAdjust="spacing" textLength="100" x="17" y="97.1426">Manager (HRM)</text><ellipse cx="68" cy="13.5" fill="#E3E3E3" rx="8" ry="8" style="stroke:#181818;stroke-width:0.5;"/><path d="M68,21.5 L68,48.5 M55,29.5 L81,29.5 M68,48.5 L55,63.5 M68,48.5 L81,63.5 " fill="none" style="stroke:#181818;stroke-width:0.5;"/><text fill="#000000" font-family="sans-serif" font-size="14" lengthAdjust="spacing" textLength="116" x="5" y="1793.8457">Human Resources</text><text fill="#000000" font-family="sans-serif" font-size="14" lengthAdjust="spacing" textLength="100" x="17" y="1811.4551">Manager (HRM)</text><ellipse cx="68" cy="1823.0313" fill="#E3E3E3" rx="8" ry="8" style="stroke:#181818;stroke-width:0.5;"/><path d="M68,1831.0313 L68,1858.0313 M55,1839.0313 L81,1839.0313 M68,1858.0313 L55,1873.0313 M68,1858.0313 L81,1873.0313 " fill="none" style="stroke:#181818;stroke-width:0.5;"/><rect fill="#E3E3E3" height="31.6094" rx="2.5" ry="2.5" style="stroke:#181818;stroke-width:0.5;" width="102" x="328" y="67.6094"/><text fill="#000000" font-family="sans-serif" font-size="14" lengthAdjust="spacing" textLength="88" x="335" y="89.1426">:  AssignJobUI</text><rect fill="#E3E3E3" height="31.6094" rx="2.5" ry="2.5" style="stroke:#181818;stroke-width:0.5;" width="102" x="328" y="1779.3125"/><text fill="#000000" font-family="sans-serif" font-size="14" lengthAdjust="spacing" textLength="88" x="335" y="1800.8457">:  AssignJobUI</text><rect fill="#E3E3E3" height="31.6094" rx="2.5" ry="2.5" style="stroke:#181818;stroke-width:0.5;" width="152" x="486" y="1779.3125"/><text fill="#000000" font-family="sans-serif" font-size="14" lengthAdjust="spacing" textLength="138" x="493" y="1800.8457">:  AssignJobController</text><rect fill="#E3E3E3" height="31.6094" rx="2.5" ry="2.5" style="stroke:#181818;stroke-width:0.5;" width="97" x="716.5" y="67.6094"/><text fill="#000000" font-family="sans-serif" font-size="14" lengthAdjust="spacing" textLength="83" x="723.5" y="89.1426">:Repositories</text><rect fill="#E3E3E3" height="31.6094" rx="2.5" ry="2.5" style="stroke:#181818;stroke-width:0.5;" width="97" x="716.5" y="1779.3125"/><text fill="#000000" font-family="sans-serif" font-size="14" lengthAdjust="spacing" textLength="83" x="723.5" y="1800.8457">:Repositories</text><rect fill="#E3E3E3" height="49.2188" rx="2.5" ry="2.5" style="stroke:#181818;stroke-width:0.5;" width="97" x="823.5" y="50"/><text fill="#000000" font-family="sans-serif" font-size="14" lengthAdjust="spacing" textLength="74" x="835" y="71.5332">repositories</text><text fill="#000000" font-family="sans-serif" font-size="14" lengthAdjust="spacing" textLength="83" x="830.5" y="89.1426">:Repositories</text><rect fill="#E3E3E3" height="49.2188" rx="2.5" ry="2.5" style="stroke:#181818;stroke-width:0.5;" width="97" x="823.5" y="1779.3125"/><text fill="#000000" font-family="sans-serif" font-size="14" lengthAdjust="spacing" textLength="74" x="835" y="1800.8457">repositories</text><text fill="#000000" font-family="sans-serif" font-size="14" lengthAdjust="spacing" textLength="83" x="830.5" y="1818.4551">:Repositories</text><rect fill="#E3E3E3" height="49.2188" rx="2.5" ry="2.5" style="stroke:#181818;stroke-width:0.5;" width="162" x="930.5" y="50"/><text fill="#000000" font-family="sans-serif" font-size="14" lengthAdjust="spacing" textLength="101" x="961" y="71.5332">JobsRepository:</text><text fill="#000000" font-family="sans-serif" font-size="14" lengthAdjust="spacing" textLength="148" x="937.5" y="89.1426">JobCategoryRepository</text><rect fill="#E3E3E3" height="49.2188" rx="2.5" ry="2.5" style="stroke:#181818;stroke-width:0.5;" width="162" x="930.5" y="1779.3125"/><text fill="#000000" font-family="sans-serif" font-size="14" lengthAdjust="spacing" textLength="101" x="961" y="1800.8457">JobsRepository:</text><text fill="#000000" font-family="sans-serif" font-size="14" lengthAdjust="spacing" textLength="148" x="937.5" y="1818.4551">JobCategoryRepository</text><rect fill="#E3E3E3" height="31.6094" rx="2.5" ry="2.5" style="stroke:#181818;stroke-width:0.5;" width="137" x="1102.5" y="67.6094"/><text fill="#000000" font-family="sans-serif" font-size="14" lengthAdjust="spacing" textLength="123" x="1109.5" y="89.1426">:ApplicationSession</text><rect fill="#E3E3E3" height="31.6094" rx="2.5" ry="2.5" style="stroke:#181818;stroke-width:0.5;" width="137" x="1102.5" y="1779.3125"/><text fill="#000000" font-family="sans-serif" font-size="14" lengthAdjust="spacing" textLength="123" x="1109.5" y="1800.8457">:ApplicationSession</text><rect fill="#E3E3E3" height="49.2188" rx="2.5" ry="2.5" style="stroke:#181818;stroke-width:0.5;" width="137" x="1249.5" y="50"/><text fill="#000000" font-family="sans-serif" font-size="14" lengthAdjust="spacing" textLength="74" x="1281" y="71.5332">appSession</text><text fill="#000000" font-family="sans-serif" font-size="14" lengthAdjust="spacing" textLength="123" x="1256.5" y="89.1426">:ApplicationSession</text><rect fill="#E3E3E3" height="49.2188" rx="2.5" ry="2.5" style="stroke:#181818;stroke-width:0.5;" width="137" x="1249.5" y="1779.3125"/><text fill="#000000" font-family="sans-serif" font-size="14" lengthAdjust="spacing" textLength="74" x="1281" y="1800.8457">appSession</text><text fill="#000000" font-family="sans-serif" font-size="14" lengthAdjust="spacing" textLength="123" x="1256.5" y="1818.4551">:ApplicationSession</text><rect fill="#E3E3E3" height="49.2188" rx="2.5" ry="2.5" style="stroke:#181818;stroke-width:0.5;" width="109" x="1396.5" y="50"/><text fill="#000000" font-family="sans-serif" font-size="14" lengthAdjust="spacing" textLength="95" x="1403.5" y="71.5332">currentSession</text><text fill="#000000" font-family="sans-serif" font-size="14" lengthAdjust="spacing" textLength="83" x="1409.5" y="89.1426">:UserSession</text><rect fill="#E3E3E3" height="49.2188" rx="2.5" ry="2.5" style="stroke:#181818;stroke-width:0.5;" width="109" x="1396.5" y="1779.3125"/><text fill="#000000" font-family="sans-serif" font-size="14" lengthAdjust="spacing" textLength="95" x="1403.5" y="1800.8457">currentSession</text><text fill="#000000" font-family="sans-serif" font-size="14" lengthAdjust="spacing" textLength="83" x="1409.5" y="1818.4551">:UserSession</text><rect fill="#E3E3E3" height="49.2188" rx="2.5" ry="2.5" style="stroke:#181818;stroke-width:0.5;" width="163" x="1515.5" y="50"/><text fill="#000000" font-family="sans-serif" font-size="14" lengthAdjust="spacing" textLength="149" x="1522.5" y="71.5332">organizationRepository:</text><text fill="#000000" font-family="sans-serif" font-size="14" lengthAdjust="spacing" textLength="148" x="1523" y="89.1426">OrganizationRepository</text><rect fill="#E3E3E3" height="49.2188" rx="2.5" ry="2.5" style="stroke:#181818;stroke-width:0.5;" width="163" x="1515.5" y="1779.3125"/><text fill="#000000" font-family="sans-serif" font-size="14" lengthAdjust="spacing" textLength="149" x="1522.5" y="1800.8457">organizationRepository:</text><text fill="#000000" font-family="sans-serif" font-size="14" lengthAdjust="spacing" textLength="148" x="1523" y="1818.4551">OrganizationRepository</text><rect fill="#E3E3E3" height="49.2188" rx="2.5" ry="2.5" style="stroke:#181818;stroke-width:0.5;" width="98" x="1764" y="50"/><text fill="#000000" font-family="sans-serif" font-size="14" lengthAdjust="spacing" textLength="77" x="1774.5" y="71.5332">organization</text><text fill="#000000" font-family="sans-serif" font-size="14" lengthAdjust="spacing" textLength="84" x="1771" y="89.1426">:Organization</text><rect fill="#E3E3E3" height="49.2188" rx="2.5" ry="2.5" style="stroke:#181818;stroke-width:0.5;" width="98" x="1764" y="1779.3125"/><text fill="#000000" font-family="sans-serif" font-size="14" lengthAdjust="spacing" textLength="77" x="1774.5" y="1800.8457">organization</text><text fill="#000000" font-family="sans-serif" font-size="14" lengthAdjust="spacing" textLength="84" x="1771" y="1818.4551">:Organization</text><rect fill="#E3E3E3" height="49.2188" rx="2.5" ry="2.5" style="stroke:#181818;stroke-width:0.5;" width="44" x="1967" y="50"/><text fill="#000000" font-family="sans-serif" font-size="14" lengthAdjust="spacing" textLength="26" x="1974" y="71.5332">JOB</text><text fill="#000000" font-family="sans-serif" font-size="14" lengthAdjust="spacing" textLength="26" x="1976" y="89.1426">:Job</text><rect fill="#E3E3E3" height="49.2188" rx="2.5" ry="2.5" style="stroke:#181818;stroke-width:0.5;" width="44" x="1967" y="1779.3125"/><text fill="#000000" font-family="sans-serif" font-size="14" lengthAdjust="spacing" textLength="26" x="1974" y="1800.8457">JOB</text><text fill="#000000" font-family="sans-serif" font-size="14" lengthAdjust="spacing" textLength="26" x="1976" y="1818.4551">:Job</text><rect fill="#E3E3E3" height="31.6094" rx="2.5" ry="2.5" style="stroke:#181818;stroke-width:0.5;" width="160" x="2021" y="67.6094"/><text fill="#000000" font-family="sans-serif" font-size="14" lengthAdjust="spacing" textLength="146" x="2028" y="89.1426">CollaboratorRepository</text><rect fill="#E3E3E3" height="31.6094" rx="2.5" ry="2.5" style="stroke:#181818;stroke-width:0.5;" width="160" x="2021" y="1779.3125"/><text fill="#000000" font-family="sans-serif" font-size="14" lengthAdjust="spacing" textLength="146" x="2028" y="1800.8457">CollaboratorRepository</text><rect fill="#E3E3E3" height="31.6094" rx="2.5" ry="2.5" style="stroke:#181818;stroke-width:0.5;" width="111" x="2191" y="67.6094"/><text fill="#000000" font-family="sans-serif" font-size="14" lengthAdjust="spacing" textLength="97" x="2198" y="89.1426">JobsRepository</text><rect fill="#E3E3E3" height="31.6094" rx="2.5" ry="2.5" style="stroke:#181818;stroke-width:0.5;" width="111" x="2191" y="1779.3125"/><text fill="#000000" font-family="sans-serif" font-size="14" lengthAdjust="spacing" textLength="97" x="2198" y="1800.8457">JobsRepository</text><rect fill="#E3E3E3" height="31.6094" rx="2.5" ry="2.5" style="stroke:#181818;stroke-width:0.5;" width="104" x="2312" y="67.6094"/><text fill="#000000" font-family="sans-serif" font-size="14" lengthAdjust="spacing" textLength="90" x="2319" y="89.1426">JobRepository</text><rect fill="#E3E3E3" height="31.6094" rx="2.5" ry="2.5" style="stroke:#181818;stroke-width:0.5;" width="104" x="2312" y="1779.3125"/><text fill="#000000" font-family="sans-serif" font-size="14" lengthAdjust="spacing" textLength="90" x="2319" y="1800.8457">JobRepository</text><rect fill="#E3E3E3" height="31.6094" rx="2.5" ry="2.5" style="stroke:#181818;stroke-width:0.5;" width="44" x="2426" y="1779.3125"/><text fill="#000000" font-family="sans-serif" font-size="14" lengthAdjust="spacing" textLength="26" x="2433" y="1800.8457">JOB</text><rect fill="#E3E3E3" height="49.2188" rx="2.5" ry="2.5" style="stroke:#181818;stroke-width:0.5;" width="134" x="2480" y="50"/><text fill="#000000" font-family="sans-serif" font-size="14" lengthAdjust="spacing" textLength="116" x="2487" y="71.5332">Human Resources</text><text fill="#000000" font-family="sans-serif" font-size="14" lengthAdjust="spacing" textLength="100" x="2499" y="89.1426">Manager (HRM)</text><rect fill="#E3E3E3" height="49.2188" rx="2.5" ry="2.5" style="stroke:#181818;stroke-width:0.5;" width="134" x="2480" y="1779.3125"/><text fill="#000000" font-family="sans-serif" font-size="14" lengthAdjust="spacing" textLength="116" x="2487" y="1800.8457">Human Resources</text><text fill="#000000" font-family="sans-serif" font-size="14" lengthAdjust="spacing" textLength="100" x="2499" y="1818.4551">Manager (HRM)</text><rect fill="#FFFFFF" height="1661.0938" style="stroke:#181818;stroke-width:1.0;" width="10" x="63" y="110.2188"/><rect fill="#FFFFFF" height="332.125" style="stroke:#181818;stroke-width:1.0;" width="10" x="374" y="132.5703"/><rect fill="#FFFFFF" height="30.3516" style="stroke:#181818;stroke-width:1.0;" width="10" x="374" y="495.0469"/><rect fill="#FFFFFF" height="30.3516" style="stroke:#181818;stroke-width:1.0;" width="10" x="374" y="555.75"/><rect fill="#FFFFFF" height="1145.8594" style="stroke:#181818;stroke-width:1.0;" width="10" x="374" y="616.4531"/><rect fill="#FFFFFF" height="212.4609" style="stroke:#181818;stroke-width:1.0;" width="10" x="557" y="205.5313"/><rect fill="#FFFFFF" height="1085.1563" style="stroke:#181818;stroke-width:1.0;" width="10" x="557" y="646.8047"/><rect fill="#FFFFFF" height="223.4609" style="stroke:#181818;stroke-width:1.0;" width="10" x="562" y="685.1563"/><rect fill="#FFFFFF" height="437.9219" style="stroke:#181818;stroke-width:1.0;" width="10" x="562" y="978.9688"/><rect fill="#FFFFFF" height="30.3516" style="stroke:#181818;stroke-width:1.0;" width="10" x="760" y="235.8828"/><rect fill="#FFFFFF" height="30.3516" style="stroke:#181818;stroke-width:1.0;" width="10" x="760" y="720.5078"/><rect fill="#FFFFFF" height="30.3516" style="stroke:#181818;stroke-width:1.0;" width="10" x="867" y="296.5859"/><rect fill="#FFFFFF" height="30.3516" style="stroke:#181818;stroke-width:1.0;" width="10" x="867" y="781.2109"/><rect fill="#FFFFFF" height="30.3516" style="stroke:#181818;stroke-width:1.0;" width="10" x="867" y="1196.4297"/><rect fill="#FFFFFF" height="30.3516" style="stroke:#181818;stroke-width:1.0;" width="10" x="1166" y="1014.3203"/><rect fill="#FFFFFF" height="30.3516" style="stroke:#181818;stroke-width:1.0;" width="10" x="1313" y="1075.0234"/><rect fill="#FFFFFF" height="30.3516" style="stroke:#181818;stroke-width:1.0;" width="10" x="1446" y="1135.7266"/><rect fill="#FFFFFF" height="30.3516" style="stroke:#181818;stroke-width:1.0;" width="10" x="1808" y="1282.4844"/><rect fill="#FFFFFF" height="390.7734" style="stroke:#181818;stroke-width:1.0;" width="10" x="1808" y="1380.5391"/><rect fill="#FFFFFF" height="189.6641" style="stroke:#181818;stroke-width:1.0;" width="10" x="1813" y="1511.9453"/><rect fill="#FFFFFF" height="71.3516" style="stroke:#181818;stroke-width:1.0;" width="10" x="1818" y="1592.9063"/><rect fill="#FFFFFF" height="28" style="stroke:#181818;stroke-width:1.0;" width="10" x="1823" y="1636.2578"/><rect fill="#FFFFFF" height="30.3516" style="stroke:#181818;stroke-width:1.0;" width="10" x="2096" y="357.2891"/><rect fill="#FFFFFF" height="30.3516" style="stroke:#181818;stroke-width:1.0;" width="10" x="2241.5" y="841.9141"/><polygon fill="#181818" points="362,128.5703,372,132.5703,362,136.5703,366,132.5703" style="stroke:#181818;stroke-width:1.0;"/><line style="stroke:#181818;stroke-width:1.0;" x1="73" x2="368" y1="132.5703" y2="132.5703"/><text fill="#000000" font-family="sans-serif" font-size="13" font-weight="bold" lengthAdjust="spacing" textLength="7" x="80" y="127.7139">1</text><text fill="#000000" font-family="sans-serif" font-size="13" lengthAdjust="spacing" textLength="100" x="91" y="127.7139">asks to add a job</text><polygon fill="#181818" points="474,158.9219,484,162.9219,474,166.9219,478,162.9219" style="stroke:#181818;stroke-width:1.0;"/><line style="stroke:#181818;stroke-width:1.0;" x1="384" x2="480" y1="162.9219" y2="162.9219"/><text fill="#000000" font-family="sans-serif" font-size="13" font-weight="bold" lengthAdjust="spacing" textLength="7" x="391" y="158.0654">2</text><text fill="#000000" font-family="sans-serif" font-size="13" lengthAdjust="spacing" textLength="36" x="402" y="158.0654">create</text><rect fill="#E3E3E3" height="31.6094" rx="2.5" ry="2.5" style="stroke:#181818;stroke-width:0.5;" width="152" x="486" y="140.5703"/><text fill="#000000" font-family="sans-serif" font-size="14" lengthAdjust="spacing" textLength="138" x="493" y="162.1035">:  AssignJobController</text><polygon fill="#181818" points="545,201.5313,555,205.5313,545,209.5313,549,205.5313" style="stroke:#181818;stroke-width:1.0;"/><line style="stroke:#181818;stroke-width:1.0;" x1="384" x2="551" y1="205.5313" y2="205.5313"/><text fill="#000000" font-family="sans-serif" font-size="13" font-weight="bold" lengthAdjust="spacing" textLength="7" x="391" y="200.6748">3</text><text fill="#000000" font-family="sans-serif" font-size="13" lengthAdjust="spacing" textLength="102" x="402" y="200.6748">getCollaborators()</text><polygon fill="#181818" points="748,231.8828,758,235.8828,748,239.8828,752,235.8828" style="stroke:#181818;stroke-width:1.0;"/><line style="stroke:#181818;stroke-width:1.0;" x1="567" x2="754" y1="235.8828" y2="235.8828"/><text fill="#000000" font-family="sans-serif" font-size="13" font-weight="bold" lengthAdjust="spacing" textLength="7" x="574" y="231.0264">4</text><text fill="#000000" font-family="sans-serif" font-size="13" lengthAdjust="spacing" textLength="75" x="585" y="231.0264">getInstance()</text><polygon fill="#181818" points="578,262.2344,568,266.2344,578,270.2344,574,266.2344" style="stroke:#181818;stroke-width:1.0;"/><line style="stroke:#181818;stroke-width:1.0;stroke-dasharray:2.0,2.0;" x1="572" x2="764" y1="266.2344" y2="266.2344"/><text fill="#000000" font-family="sans-serif" font-size="13" font-weight="bold" lengthAdjust="spacing" textLength="7" x="584" y="261.3779">5</text><text fill="#000000" font-family="sans-serif" font-size="13" lengthAdjust="spacing" textLength="67" x="595" y="261.3779">repositories</text><polygon fill="#181818" points="855,292.5859,865,296.5859,855,300.5859,859,296.5859" style="stroke:#181818;stroke-width:1.0;"/><line style="stroke:#181818;stroke-width:1.0;" x1="567" x2="861" y1="296.5859" y2="296.5859"/><text fill="#000000" font-family="sans-serif" font-size="13" font-weight="bold" lengthAdjust="spacing" textLength="7" x="574" y="291.7295">6</text><text fill="#000000" font-family="sans-serif" font-size="13" lengthAdjust="spacing" textLength="164" x="585" y="291.7295">getCollaboratorsRepository()</text><polygon fill="#181818" points="578,322.9375,568,326.9375,578,330.9375,574,326.9375" style="stroke:#181818;stroke-width:1.0;"/><line style="stroke:#181818;stroke-width:1.0;stroke-dasharray:2.0,2.0;" x1="572" x2="871" y1="326.9375" y2="326.9375"/><text fill="#000000" font-family="sans-serif" font-size="13" font-weight="bold" lengthAdjust="spacing" textLength="7" x="584" y="322.0811">7</text><text fill="#000000" font-family="sans-serif" font-size="13" lengthAdjust="spacing" textLength="156" x="595" y="322.0811">getCollaboratorsRepository</text><polygon fill="#181818" points="2084,353.2891,2094,357.2891,2084,361.2891,2088,357.2891" style="stroke:#181818;stroke-width:1.0;"/><line style="stroke:#181818;stroke-width:1.0;" x1="567" x2="2090" y1="357.2891" y2="357.2891"/><text fill="#000000" font-family="sans-serif" font-size="13" font-weight="bold" lengthAdjust="spacing" textLength="7" x="574" y="352.4326">8</text><text fill="#000000" font-family="sans-serif" font-size="13" lengthAdjust="spacing" textLength="123" x="585" y="352.4326">getCollaboratorsList()</text><polygon fill="#181818" points="578,383.6406,568,387.6406,578,391.6406,574,387.6406" style="stroke:#181818;stroke-width:1.0;"/><line style="stroke:#181818;stroke-width:1.0;stroke-dasharray:2.0,2.0;" x1="572" x2="2100" y1="387.6406" y2="387.6406"/><text fill="#000000" font-family="sans-serif" font-size="13" font-weight="bold" lengthAdjust="spacing" textLength="7" x="584" y="382.7842">9</text><text fill="#000000" font-family="sans-serif" font-size="13" lengthAdjust="spacing" textLength="90" x="595" y="382.7842">CollaboratorList</text><polygon fill="#181818" points="395,413.9922,385,417.9922,395,421.9922,391,417.9922" style="stroke:#181818;stroke-width:1.0;"/><line style="stroke:#181818;stroke-width:1.0;stroke-dasharray:2.0,2.0;" x1="389" x2="561" y1="417.9922" y2="417.9922"/><text fill="#000000" font-family="sans-serif" font-size="13" font-weight="bold" lengthAdjust="spacing" textLength="14" x="401" y="413.1357">10</text><text fill="#000000" font-family="sans-serif" font-size="13" lengthAdjust="spacing" textLength="95" x="419" y="413.1357">collaboratorsList</text><polygon fill="#181818" points="84,460.6953,74,464.6953,84,468.6953,80,464.6953" style="stroke:#181818;stroke-width:1.0;"/><line style="stroke:#181818;stroke-width:1.0;stroke-dasharray:2.0,2.0;" x1="78" x2="378" y1="464.6953" y2="464.6953"/><text fill="#000000" font-family="sans-serif" font-size="13" font-weight="bold" lengthAdjust="spacing" textLength="14" x="90" y="451.6631">11</text><text fill="#000000" font-family="sans-serif" font-size="13" lengthAdjust="spacing" textLength="190" x="108" y="443.4873">shows collaborators category list</text><text fill="#000000" font-family="sans-serif" font-size="13" lengthAdjust="spacing" textLength="85" x="112" y="459.8389">to assign job/s</text><polygon fill="#181818" points="362,491.0469,372,495.0469,362,499.0469,366,495.0469" style="stroke:#181818;stroke-width:1.0;"/><line style="stroke:#181818;stroke-width:1.0;" x1="73" x2="368" y1="495.0469" y2="495.0469"/><text fill="#000000" font-family="sans-serif" font-size="13" font-weight="bold" lengthAdjust="spacing" textLength="14" x="80" y="490.1904">12</text><text fill="#000000" font-family="sans-serif" font-size="13" lengthAdjust="spacing" textLength="113" x="98" y="490.1904">choose collaborator</text><polygon fill="#181818" points="84,521.3984,74,525.3984,84,529.3984,80,525.3984" style="stroke:#181818;stroke-width:1.0;"/><line style="stroke:#181818;stroke-width:1.0;stroke-dasharray:2.0,2.0;" x1="78" x2="378" y1="525.3984" y2="525.3984"/><text fill="#000000" font-family="sans-serif" font-size="13" font-weight="bold" lengthAdjust="spacing" textLength="14" x="90" y="520.542">13</text><text fill="#000000" font-family="sans-serif" font-size="13" lengthAdjust="spacing" textLength="202" x="108" y="520.542">getJob(collaboratorName,jobName)</text><polygon fill="#181818" points="362,551.75,372,555.75,362,559.75,366,555.75" style="stroke:#181818;stroke-width:1.0;"/><line style="stroke:#181818;stroke-width:1.0;" x1="73" x2="368" y1="555.75" y2="555.75"/><text fill="#000000" font-family="sans-serif" font-size="13" font-weight="bold" lengthAdjust="spacing" textLength="14" x="80" y="550.8936">14</text><text fill="#000000" font-family="sans-serif" font-size="13" lengthAdjust="spacing" textLength="210" x="98" y="550.8936">types requested data (Name of Job))</text><polygon fill="#181818" points="84,582.1016,74,586.1016,84,590.1016,80,586.1016" style="stroke:#181818;stroke-width:1.0;"/><line style="stroke:#181818;stroke-width:1.0;stroke-dasharray:2.0,2.0;" x1="78" x2="378" y1="586.1016" y2="586.1016"/><text fill="#000000" font-family="sans-serif" font-size="13" font-weight="bold" lengthAdjust="spacing" textLength="14" x="90" y="581.2451">15</text><text fill="#000000" font-family="sans-serif" font-size="13" lengthAdjust="spacing" textLength="259" x="108" y="581.2451">shows selected category and requested data</text><polygon fill="#181818" points="362,612.4531,372,616.4531,362,620.4531,366,616.4531" style="stroke:#181818;stroke-width:1.0;"/><line style="stroke:#181818;stroke-width:1.0;" x1="73" x2="368" y1="616.4531" y2="616.4531"/><text fill="#000000" font-family="sans-serif" font-size="13" font-weight="bold" lengthAdjust="spacing" textLength="14" x="80" y="611.5967">16</text><text fill="#000000" font-family="sans-serif" font-size="13" lengthAdjust="spacing" textLength="75" x="98" y="611.5967">submits data</text><polygon fill="#181818" points="545,642.8047,555,646.8047,545,650.8047,549,646.8047" style="stroke:#181818;stroke-width:1.0;"/><line style="stroke:#181818;stroke-width:1.0;" x1="384" x2="551" y1="646.8047" y2="646.8047"/><text fill="#000000" font-family="sans-serif" font-size="13" font-weight="bold" lengthAdjust="spacing" textLength="14" x="391" y="641.9482">17</text><text fill="#000000" font-family="sans-serif" font-size="13" lengthAdjust="spacing" textLength="136" x="409" y="641.9482">createJob(Name of Job)</text><line style="stroke:#181818;stroke-width:1.0;" x1="567" x2="614" y1="672.1563" y2="672.1563"/><line style="stroke:#181818;stroke-width:1.0;" x1="614" x2="614" y1="672.1563" y2="685.1563"/><line style="stroke:#181818;stroke-width:1.0;" x1="573" x2="614" y1="685.1563" y2="685.1563"/><polygon fill="#181818" points="583,681.1563,573,685.1563,583,689.1563,579,685.1563" style="stroke:#181818;stroke-width:1.0;"/><text fill="#000000" font-family="sans-serif" font-size="13" font-weight="bold" lengthAdjust="spacing" textLength="14" x="579" y="667.2998">18</text><text fill="#000000" font-family="sans-serif" font-size="13" lengthAdjust="spacing" textLength="103" x="597" y="667.2998">getJobDescription</text><polygon fill="#181818" points="748,716.5078,758,720.5078,748,724.5078,752,720.5078" style="stroke:#181818;stroke-width:1.0;"/><line style="stroke:#181818;stroke-width:1.0;" x1="572" x2="754" y1="720.5078" y2="720.5078"/><text fill="#000000" font-family="sans-serif" font-size="13" font-weight="bold" lengthAdjust="spacing" textLength="14" x="579" y="715.6514">19</text><text fill="#000000" font-family="sans-serif" font-size="13" lengthAdjust="spacing" textLength="75" x="597" y="715.6514">getInstance()</text><polygon fill="#181818" points="583,746.8594,573,750.8594,583,754.8594,579,750.8594" style="stroke:#181818;stroke-width:1.0;"/><line style="stroke:#181818;stroke-width:1.0;stroke-dasharray:2.0,2.0;" x1="577" x2="764" y1="750.8594" y2="750.8594"/><text fill="#000000" font-family="sans-serif" font-size="13" font-weight="bold" lengthAdjust="spacing" textLength="14" x="589" y="746.0029">20</text><text fill="#000000" font-family="sans-serif" font-size="13" lengthAdjust="spacing" textLength="67" x="607" y="746.0029">repositories</text><polygon fill="#181818" points="855,777.2109,865,781.2109,855,785.2109,859,781.2109" style="stroke:#181818;stroke-width:1.0;"/><line style="stroke:#181818;stroke-width:1.0;" x1="572" x2="861" y1="781.2109" y2="781.2109"/><text fill="#000000" font-family="sans-serif" font-size="13" font-weight="bold" lengthAdjust="spacing" textLength="14" x="579" y="776.3545">21</text><text fill="#000000" font-family="sans-serif" font-size="13" lengthAdjust="spacing" textLength="108" x="597" y="776.3545">getJobRepository()</text><polygon fill="#181818" points="583,807.5625,573,811.5625,583,815.5625,579,811.5625" style="stroke:#181818;stroke-width:1.0;"/><line style="stroke:#181818;stroke-width:1.0;" x1="577" x2="871" y1="811.5625" y2="811.5625"/><text fill="#000000" font-family="sans-serif" font-size="13" font-weight="bold" lengthAdjust="spacing" textLength="14" x="589" y="806.7061">22</text><text fill="#000000" font-family="sans-serif" font-size="13" lengthAdjust="spacing" textLength="82" x="607" y="806.7061">JobRepository</text><polygon fill="#181818" points="2229.5,837.9141,2239.5,841.9141,2229.5,845.9141,2233.5,841.9141" style="stroke:#181818;stroke-width:1.0;"/><line style="stroke:#181818;stroke-width:1.0;" x1="572" x2="2235.5" y1="841.9141" y2="841.9141"/><text fill="#000000" font-family="sans-serif" font-size="13" font-weight="bold" lengthAdjust="spacing" textLength="14" x="579" y="837.0576">23</text><text fill="#000000" font-family="sans-serif" font-size="13" lengthAdjust="spacing" textLength="67" x="597" y="837.0576">getJobList()</text><polygon fill="#181818" points="583,868.2656,573,872.2656,583,876.2656,579,872.2656" style="stroke:#181818;stroke-width:1.0;"/><line style="stroke:#181818;stroke-width:1.0;stroke-dasharray:2.0,2.0;" x1="577" x2="2363" y1="872.2656" y2="872.2656"/><text fill="#000000" font-family="sans-serif" font-size="13" font-weight="bold" lengthAdjust="spacing" textLength="14" x="589" y="867.4092">24</text><text fill="#000000" font-family="sans-serif" font-size="13" lengthAdjust="spacing" textLength="38" x="607" y="867.4092">jobList</text><line style="stroke:#181818;stroke-width:1.0;stroke-dasharray:2.0,2.0;" x1="572" x2="614" y1="907.6172" y2="907.6172"/><line style="stroke:#181818;stroke-width:1.0;stroke-dasharray:2.0,2.0;" x1="614" x2="614" y1="907.6172" y2="920.6172"/><line style="stroke:#181818;stroke-width:1.0;stroke-dasharray:2.0,2.0;" x1="567" x2="614" y1="920.6172" y2="920.6172"/><polygon fill="#181818" points="577,916.6172,567,920.6172,577,924.6172,573,920.6172" style="stroke:#181818;stroke-width:1.0;"/><text fill="#000000" font-family="sans-serif" font-size="13" font-weight="bold" lengthAdjust="spacing" textLength="14" x="579" y="902.7607">25</text><text fill="#000000" font-family="sans-serif" font-size="13" lengthAdjust="spacing" textLength="72" x="597" y="902.7607">JobCategory</text><line style="stroke:#181818;stroke-width:1.0;" x1="567" x2="614" y1="965.9688" y2="965.9688"/><line style="stroke:#181818;stroke-width:1.0;" x1="614" x2="614" y1="965.9688" y2="978.9688"/><line style="stroke:#181818;stroke-width:1.0;" x1="573" x2="614" y1="978.9688" y2="978.9688"/><polygon fill="#181818" points="583,974.9688,573,978.9688,583,982.9688,579,978.9688" style="stroke:#181818;stroke-width:1.0;"/><text fill="#000000" font-family="sans-serif" font-size="13" font-weight="bold" lengthAdjust="spacing" textLength="14" x="579" y="961.1123">26</text><text fill="#000000" font-family="sans-serif" font-size="13" lengthAdjust="spacing" textLength="161" x="597" y="961.1123">getEmployeeFromSession()</text><polygon fill="#181818" points="1154,1010.3203,1164,1014.3203,1154,1018.3203,1158,1014.3203" style="stroke:#181818;stroke-width:1.0;"/><line style="stroke:#181818;stroke-width:1.0;" x1="572" x2="1160" y1="1014.3203" y2="1014.3203"/><text fill="#000000" font-family="sans-serif" font-size="13" font-weight="bold" lengthAdjust="spacing" textLength="14" x="579" y="1009.4639">27</text><text fill="#000000" font-family="sans-serif" font-size="13" lengthAdjust="spacing" textLength="75" x="597" y="1009.4639">getInstance()</text><polygon fill="#181818" points="583,1040.6719,573,1044.6719,583,1048.6719,579,1044.6719" style="stroke:#181818;stroke-width:1.0;"/><line style="stroke:#181818;stroke-width:1.0;" x1="577" x2="1170" y1="1044.6719" y2="1044.6719"/><text fill="#000000" font-family="sans-serif" font-size="13" font-weight="bold" lengthAdjust="spacing" textLength="14" x="589" y="1039.8154">28</text><text fill="#000000" font-family="sans-serif" font-size="13" lengthAdjust="spacing" textLength="68" x="607" y="1039.8154">appSession</text><polygon fill="#181818" points="1301,1071.0234,1311,1075.0234,1301,1079.0234,1305,1075.0234" style="stroke:#181818;stroke-width:1.0;"/><line style="stroke:#181818;stroke-width:1.0;" x1="572" x2="1307" y1="1075.0234" y2="1075.0234"/><text fill="#000000" font-family="sans-serif" font-size="13" font-weight="bold" lengthAdjust="spacing" textLength="14" x="579" y="1070.167">29</text><text fill="#000000" font-family="sans-serif" font-size="13" lengthAdjust="spacing" textLength="115" x="597" y="1070.167">getCurrentSession()</text><polygon fill="#181818" points="583,1101.375,573,1105.375,583,1109.375,579,1105.375" style="stroke:#181818;stroke-width:1.0;"/><line style="stroke:#181818;stroke-width:1.0;stroke-dasharray:2.0,2.0;" x1="577" x2="1317" y1="1105.375" y2="1105.375"/><text fill="#000000" font-family="sans-serif" font-size="13" font-weight="bold" lengthAdjust="spacing" textLength="14" x="589" y="1100.5186">30</text><text fill="#000000" font-family="sans-serif" font-size="13" lengthAdjust="spacing" textLength="87" x="607" y="1100.5186">currentSession</text><polygon fill="#181818" points="1434,1131.7266,1444,1135.7266,1434,1139.7266,1438,1135.7266" style="stroke:#181818;stroke-width:1.0;"/><line style="stroke:#181818;stroke-width:1.0;" x1="572" x2="1440" y1="1135.7266" y2="1135.7266"/><text fill="#000000" font-family="sans-serif" font-size="13" font-weight="bold" lengthAdjust="spacing" textLength="14" x="579" y="1130.8701">31</text><text fill="#000000" font-family="sans-serif" font-size="13" lengthAdjust="spacing" textLength="133" x="597" y="1130.8701">email = getUserEmail()</text><polygon fill="#181818" points="583,1162.0781,573,1166.0781,583,1170.0781,579,1166.0781" style="stroke:#181818;stroke-width:1.0;"/><line style="stroke:#181818;stroke-width:1.0;stroke-dasharray:2.0,2.0;" x1="577" x2="1450" y1="1166.0781" y2="1166.0781"/><text fill="#000000" font-family="sans-serif" font-size="13" font-weight="bold" lengthAdjust="spacing" textLength="14" x="589" y="1161.2217">32</text><text fill="#000000" font-family="sans-serif" font-size="13" lengthAdjust="spacing" textLength="31" x="607" y="1161.2217">email</text><polygon fill="#181818" points="855,1192.4297,865,1196.4297,855,1200.4297,859,1196.4297" style="stroke:#181818;stroke-width:1.0;"/><line style="stroke:#181818;stroke-width:1.0;" x1="572" x2="861" y1="1196.4297" y2="1196.4297"/><text fill="#000000" font-family="sans-serif" font-size="13" font-weight="bold" lengthAdjust="spacing" textLength="14" x="579" y="1191.5732">33</text><text fill="#000000" font-family="sans-serif" font-size="13" lengthAdjust="spacing" textLength="192" x="597" y="1191.5732">getOrganizationRepository(email)</text><polygon fill="#181818" points="583,1222.7813,573,1226.7813,583,1230.7813,579,1226.7813" style="stroke:#181818;stroke-width:1.0;"/><line style="stroke:#181818;stroke-width:1.0;stroke-dasharray:2.0,2.0;" x1="577" x2="871" y1="1226.7813" y2="1226.7813"/><text fill="#000000" font-family="sans-serif" font-size="13" font-weight="bold" lengthAdjust="spacing" textLength="14" x="589" y="1221.9248">34</text><text fill="#000000" font-family="sans-serif" font-size="13" lengthAdjust="spacing" textLength="132" x="607" y="1221.9248">organizationRepository</text><path d="M1505.5,1241.7813 L1578.5,1241.7813 L1578.5,1250.1328 L1568.5,1260.1328 L1505.5,1260.1328 L1505.5,1241.7813 " fill="#EEEEEE" style="stroke:#000000;stroke-width:1.5;"/><rect fill="none" height="79.0547" style="stroke:#000000;stroke-width:1.5;" width="366.5" x="1505.5" y="1241.7813"/><text fill="#000000" font-family="sans-serif" font-size="13" font-weight="bold" lengthAdjust="spacing" textLength="28" x="1520.5" y="1256.2764">loop</text><polygon fill="#181818" points="1796,1278.4844,1806,1282.4844,1796,1286.4844,1800,1282.4844" style="stroke:#181818;stroke-width:1.0;"/><line style="stroke:#181818;stroke-width:1.0;" x1="1597" x2="1802" y1="1282.4844" y2="1282.4844"/><text fill="#000000" font-family="sans-serif" font-size="13" font-weight="bold" lengthAdjust="spacing" textLength="14" x="1604" y="1277.6279">35</text><text fill="#000000" font-family="sans-serif" font-size="13" lengthAdjust="spacing" textLength="174" x="1622" y="1277.6279">anyEmployeeHasEmail(email)</text><polygon fill="#181818" points="1608,1308.8359,1598,1312.8359,1608,1316.8359,1604,1312.8359" style="stroke:#181818;stroke-width:1.0;"/><line style="stroke:#181818;stroke-width:1.0;stroke-dasharray:2.0,2.0;" x1="1602" x2="1812" y1="1312.8359" y2="1312.8359"/><text fill="#000000" font-family="sans-serif" font-size="13" font-weight="bold" lengthAdjust="spacing" textLength="14" x="1614" y="1307.9795">36</text><text fill="#000000" font-family="sans-serif" font-size="13" lengthAdjust="spacing" textLength="53" x="1632" y="1307.9795">true/false</text><polygon fill="#181818" points="583,1346.1875,573,1350.1875,583,1354.1875,579,1350.1875" style="stroke:#181818;stroke-width:1.0;"/><line style="stroke:#181818;stroke-width:1.0;stroke-dasharray:2.0,2.0;" x1="577" x2="1596" y1="1350.1875" y2="1350.1875"/><text fill="#000000" font-family="sans-serif" font-size="13" font-weight="bold" lengthAdjust="spacing" textLength="14" x="589" y="1345.3311">37</text><text fill="#000000" font-family="sans-serif" font-size="13" lengthAdjust="spacing" textLength="70" x="607" y="1345.3311">organization</text><polygon fill="#181818" points="1796,1376.5391,1806,1380.5391,1796,1384.5391,1800,1380.5391" style="stroke:#181818;stroke-width:1.0;"/><line style="stroke:#181818;stroke-width:1.0;" x1="572" x2="1802" y1="1380.5391" y2="1380.5391"/><text fill="#000000" font-family="sans-serif" font-size="13" font-weight="bold" lengthAdjust="spacing" textLength="14" x="579" y="1375.6826">38</text><text fill="#000000" font-family="sans-serif" font-size="13" lengthAdjust="spacing" textLength="86" x="597" y="1375.6826">getJobSytemIn</text><line style="stroke:#181818;stroke-width:1.0;stroke-dasharray:2.0,2.0;" x1="572" x2="614" y1="1415.8906" y2="1415.8906"/><line style="stroke:#181818;stroke-width:1.0;stroke-dasharray:2.0,2.0;" x1="614" x2="614" y1="1415.8906" y2="1428.8906"/><line style="stroke:#181818;stroke-width:1.0;stroke-dasharray:2.0,2.0;" x1="567" x2="614" y1="1428.8906" y2="1428.8906"/><polygon fill="#181818" points="577,1424.8906,567,1428.8906,577,1432.8906,573,1428.8906" style="stroke:#181818;stroke-width:1.0;"/><text fill="#000000" font-family="sans-serif" font-size="13" font-weight="bold" lengthAdjust="spacing" textLength="14" x="579" y="1411.0342">39</text><text fill="#000000" font-family="sans-serif" font-size="13" lengthAdjust="spacing" textLength="56" x="597" y="1411.0342">employee</text><polygon fill="#181818" points="1801,1507.9453,1811,1511.9453,1801,1515.9453,1805,1511.9453" style="stroke:#181818;stroke-width:1.0;"/><line style="stroke:#181818;stroke-width:1.0;" x1="567" x2="1807" y1="1511.9453" y2="1511.9453"/><text fill="#000000" font-family="sans-serif" font-size="13" font-weight="bold" lengthAdjust="spacing" textLength="14" x="574" y="1490.7373">40</text><text fill="#000000" font-family="sans-serif" font-size="13" lengthAdjust="spacing" textLength="252" x="592" y="1474.3857">createJob(employee, reference, description,</text><text fill="#000000" font-family="sans-serif" font-size="13" lengthAdjust="spacing" textLength="239" x="592" y="1490.7373">informalDescription, technicalDescription,</text><text fill="#000000" font-family="sans-serif" font-size="13" lengthAdjust="spacing" textLength="235" x="592" y="1507.0889">duration, cost, , JobCategory, employee)</text><polygon fill="#181818" points="2414,1538.2969,2424,1542.2969,2414,1546.2969,2418,1542.2969" style="stroke:#181818;stroke-width:1.0;"/><line style="stroke:#181818;stroke-width:1.0;" x1="1823" x2="2420" y1="1542.2969" y2="1542.2969"/><text fill="#000000" font-family="sans-serif" font-size="13" font-weight="bold" lengthAdjust="spacing" textLength="14" x="1830" y="1537.4404">41</text><text fill="#000000" font-family="sans-serif" font-size="13" lengthAdjust="spacing" textLength="265" x="1848" y="1537.4404">create(name of Job,descriptionJob, employee)</text><rect fill="#E3E3E3" height="31.6094" rx="2.5" ry="2.5" style="stroke:#181818;stroke-width:0.5;" width="44" x="2426" y="1519.9453"/><text fill="#000000" font-family="sans-serif" font-size="14" lengthAdjust="spacing" textLength="26" x="2433" y="1541.4785">JOB</text><line style="stroke:#181818;stroke-width:1.0;" x1="1823" x2="1870" y1="1579.9063" y2="1579.9063"/><line style="stroke:#181818;stroke-width:1.0;" x1="1870" x2="1870" y1="1579.9063" y2="1592.9063"/><line style="stroke:#181818;stroke-width:1.0;" x1="1829" x2="1870" y1="1592.9063" y2="1592.9063"/><polygon fill="#181818" points="1839,1588.9063,1829,1592.9063,1839,1596.9063,1835,1592.9063" style="stroke:#181818;stroke-width:1.0;"/><text fill="#000000" font-family="sans-serif" font-size="13" font-weight="bold" lengthAdjust="spacing" textLength="14" x="1835" y="1575.0498">42</text><text fill="#000000" font-family="sans-serif" font-size="13" lengthAdjust="spacing" textLength="129" x="1853" y="1575.0498">addJob (Name of Job))</text><line style="stroke:#181818;stroke-width:1.0;" x1="1833" x2="1875" y1="1628.2578" y2="1628.2578"/><line style="stroke:#181818;stroke-width:1.0;" x1="1875" x2="1875" y1="1628.2578" y2="1641.2578"/><line style="stroke:#181818;stroke-width:1.0;" x1="1834" x2="1875" y1="1641.2578" y2="1641.2578"/><polygon fill="#181818" points="1844,1637.2578,1834,1641.2578,1844,1645.2578,1840,1641.2578" style="stroke:#181818;stroke-width:1.0;"/><text fill="#000000" font-family="sans-serif" font-size="13" font-weight="bold" lengthAdjust="spacing" textLength="14" x="1840" y="1623.4014">43</text><text fill="#000000" font-family="sans-serif" font-size="13" lengthAdjust="spacing" textLength="63" x="1858" y="1623.4014">validateJob</text><polygon fill="#181818" points="578,1697.6094,568,1701.6094,578,1705.6094,574,1701.6094" style="stroke:#181818;stroke-width:1.0;"/><line style="stroke:#181818;stroke-width:1.0;stroke-dasharray:2.0,2.0;" x1="572" x2="1807" y1="1701.6094" y2="1701.6094"/><text fill="#000000" font-family="sans-serif" font-size="13" font-weight="bold" lengthAdjust="spacing" textLength="14" x="584" y="1696.7529">44</text><text fill="#000000" font-family="sans-serif" font-size="13" lengthAdjust="spacing" textLength="17" x="602" y="1696.7529">job</text><polygon fill="#181818" points="395,1727.9609,385,1731.9609,395,1735.9609,391,1731.9609" style="stroke:#181818;stroke-width:1.0;"/><line style="stroke:#181818;stroke-width:1.0;stroke-dasharray:2.0,2.0;" x1="389" x2="561" y1="1731.9609" y2="1731.9609"/><text fill="#000000" font-family="sans-serif" font-size="13" font-weight="bold" lengthAdjust="spacing" textLength="14" x="401" y="1727.1045">45</text><text fill="#000000" font-family="sans-serif" font-size="13" lengthAdjust="spacing" textLength="17" x="419" y="1727.1045">job</text><polygon fill="#181818" points="84,1758.3125,74,1762.3125,84,1766.3125,80,1762.3125" style="stroke:#181818;stroke-width:1.0;"/><line style="stroke:#181818;stroke-width:1.0;stroke-dasharray:2.0,2.0;" x1="78" x2="378" y1="1762.3125" y2="1762.3125"/><text fill="#000000" font-family="sans-serif" font-size="13" font-weight="bold" lengthAdjust="spacing" textLength="14" x="90" y="1757.4561">46</text><text fill="#000000" font-family="sans-serif" font-size="13" lengthAdjust="spacing" textLength="158" x="108" y="1757.4561">displays operation success</text><!--SRC=[xLXDRnit4BtpLn2-M3Pav2wW1XJRhLtOjM75DmC5nQKanhlabgIIgl2Fxv3S3t95hXGtn-ubMN7cpPlXyEtG-esBcYXIuKeAIJTALWmRjML8ToireMzapHPcLpAi63L4hClGG6z88RzpiSOhKcg64DaQARRLaYc4JZUyO7WbfLdAln6XHYfyShkjYC3FJCkjeapZLu4VY80W2azkdn_EJZ3HU7xzW220uPJNH1XyCiDuhZLVYz_bykNEsRpSvKskf31AbYLJplJgo_FzmFYPrL9pOCIPTZRT3xi5jqb26h6B2ZnUnJx0q_tyI-m1H7GFEtjrp8XXQtZhVtVEoPK1vNbTbvmImwLOCCXK2kVwv_pfAROaTTqO0C-CrvuJtIh5XEaTNpHJeSVYPh6OFyPEKgs9uFyuz2ZJn-I2mqalvN61IkZYCPv_6vJwyJDqqWpAwClv-1dPXkFVeAYkcn1k7dZ15vVGFNW6bcyQ6ub9KM22lyfbRzOvGvkXKnmyu7a101Pd1cVYhotJHkE2688dYgqOL96oAIwOfehNbl8KOovMKbMajEqUhHX6DmBsfun_BhQA-FzHgSqP2WcSKiKiCzVLGsQNxkVpS-3cpL3610pMp5p18I5B2S6aqfCuJbS25oXQiey30R34mV7OTqA3Nb0sW8sWKwTkpze-gIWNJIfs6_h3kETUi1yBroPc3tIYIZt6M69E3PAPEDYUUXv-B94qVCiy1Epn4hdSSst6iaW3fVFA1Bte-osqi9774Zmsia-vFT1qc1pAmU-rT7IizKP-rp4Qfeq-un9muHXRtN3V6oiSd_gs2w9OxHXg3jr8gLc4ZVO49qaADW_qRH9w_a4gDeNmzb-_ZGUYcrqDtzn6jLZHo9Prnt9blq9dPqUoyINIh8If082wwX1H3F2FuQMtouetCZfEeEicBs-s8Y5zT8HwTSUaaq7mlExbztyLJAeW5EddQ5zR-GZmuseNZraTrqFQ5hkb-KOC0odxwk77E0_WauhPQbVJYC4GUBnklR-_7sZkcwekvOwnNs72RmQwZttfxQHvT4-xiJILjLt0NS_si-fOCHrOdbZBwogQOSVOERmKEqUkOnSFnMCCau0jFpywpp2h22_nBvQgdQvlxEiOosRaJXBrQm5N1pv6iKKRFUgkZkaHVU8Y_8oP9trjEAm0QV1IoZgvO9zqAZPRk4FOAu3OjUVZbcY_8vayz_Arjv2ibOyECMpQ6HOpTz_-vA_EEOoW2ZPWoeI90lr8yhqyX3inLl_CfItRIi2qrU75ph3gJg3nCevCTWrLrcpJVvT6HwuV7rhWASvStrv5UtsxJbxThYFR-EesnTDGrwTT6Xa5JlQKQwDBVyizEJzloKz4F_XC0yBsDHCdG7DLW9ilM0ydG3I-MTbERq2_aP8NlhZeOmTeqFC87JB87RocTwAh_I7_u4hXFSSQBds5cE62wxeaEurbpNm_m8nBANn8KkDmy7hu3sJeNm00]--></g></svg>