<?xml version="1.0" encoding="UTF-8" standalone="no"?><svg xmlns="http://www.w3.org/2000/svg" xmlns:xlink="http://www.w3.org/1999/xlink" contentStyleType="text/css" height="838px" preserveAspectRatio="none" style="width:947px;height:838px;background:#FFFFFF;" version="1.1" viewBox="0 0 947 838" width="947px" zoomAndPan="magnify"><defs/><g><!--class AssignJobUI--><g id="elem_AssignJobUI"><rect codeLine="11" fill="#F1F1F1" height="48" id="AssignJobUI" rx="2.5" ry="2.5" style="stroke:#181818;stroke-width:0.5;" width="108" x="7" y="42"/><ellipse cx="22" cy="58" fill="#ADD1B2" rx="11" ry="11" style="stroke:#181818;stroke-width:1.0;"/><path d="M24.7656,53.875 Q24.9219,53.6563 25.1094,53.5469 Q25.2969,53.4375 25.5156,53.4375 Q25.8906,53.4375 26.125,53.7031 Q26.3594,53.9531 26.3594,54.5625 L26.3594,56.0156 Q26.3594,56.625 26.125,56.8906 Q25.8906,57.1563 25.5156,57.1563 Q25.1719,57.1563 24.9688,56.9531 Q24.7656,56.7656 24.6563,56.25 Q24.6094,55.8906 24.4219,55.7031 Q24.0938,55.3281 23.4844,55.1094 Q22.875,54.8906 22.25,54.8906 Q21.4844,54.8906 20.8438,55.2188 Q20.2188,55.5469 19.7188,56.2969 Q19.2344,57.0469 19.2344,58.0781 L19.2344,59.1719 Q19.2344,60.4063 20.125,61.2344 Q21.0156,62.0469 22.6094,62.0469 Q23.5469,62.0469 24.2031,61.7969 Q24.5938,61.6406 25.0156,61.2031 Q25.2813,60.9375 25.4219,60.8594 Q25.5781,60.7813 25.7813,60.7813 Q26.1094,60.7813 26.3594,61.0469 Q26.625,61.2969 26.625,61.6406 Q26.625,61.9844 26.2813,62.3906 Q25.7813,62.9688 24.9844,63.2969 Q23.9063,63.75 22.6094,63.75 Q21.0938,63.75 19.8906,63.125 Q18.9063,62.625 18.2188,61.5625 Q17.5313,60.4844 17.5313,59.2031 L17.5313,58.0469 Q17.5313,56.7188 18.1406,55.5781 Q18.7656,54.4219 19.8594,53.8125 Q20.9531,53.1875 22.1875,53.1875 Q22.9219,53.1875 23.5625,53.3594 Q24.2188,53.5156 24.7656,53.875 Z " fill="#000000"/><text fill="#000000" font-family="sans-serif" font-size="14" lengthAdjust="spacing" textLength="76" x="36" y="63.7285">AssignJobUI</text><line style="stroke:#181818;stroke-width:0.5;" x1="8" x2="114" y1="74" y2="74"/><line style="stroke:#181818;stroke-width:0.5;" x1="8" x2="114" y1="82" y2="82"/></g><!--class AssignJobController--><g id="elem_AssignJobController"><rect codeLine="15" fill="#F1F1F1" height="100.8281" id="AssignJobController" rx="2.5" ry="2.5" style="stroke:#181818;stroke-width:0.5;" width="394" x="150" y="15.5"/><ellipse cx="279.75" cy="31.5" fill="#ADD1B2" rx="11" ry="11" style="stroke:#181818;stroke-width:1.0;"/><path d="M282.5156,27.375 Q282.6719,27.1563 282.8594,27.0469 Q283.0469,26.9375 283.2656,26.9375 Q283.6406,26.9375 283.875,27.2031 Q284.1094,27.4531 284.1094,28.0625 L284.1094,29.5156 Q284.1094,30.125 283.875,30.3906 Q283.6406,30.6563 283.2656,30.6563 Q282.9219,30.6563 282.7188,30.4531 Q282.5156,30.2656 282.4063,29.75 Q282.3594,29.3906 282.1719,29.2031 Q281.8438,28.8281 281.2344,28.6094 Q280.625,28.3906 280,28.3906 Q279.2344,28.3906 278.5938,28.7188 Q277.9688,29.0469 277.4688,29.7969 Q276.9844,30.5469 276.9844,31.5781 L276.9844,32.6719 Q276.9844,33.9063 277.875,34.7344 Q278.7656,35.5469 280.3594,35.5469 Q281.2969,35.5469 281.9531,35.2969 Q282.3438,35.1406 282.7656,34.7031 Q283.0313,34.4375 283.1719,34.3594 Q283.3281,34.2813 283.5313,34.2813 Q283.8594,34.2813 284.1094,34.5469 Q284.375,34.7969 284.375,35.1406 Q284.375,35.4844 284.0313,35.8906 Q283.5313,36.4688 282.7344,36.7969 Q281.6563,37.25 280.3594,37.25 Q278.8438,37.25 277.6406,36.625 Q276.6563,36.125 275.9688,35.0625 Q275.2813,33.9844 275.2813,32.7031 L275.2813,31.5469 Q275.2813,30.2188 275.8906,29.0781 Q276.5156,27.9219 277.6094,27.3125 Q278.7031,26.6875 279.9375,26.6875 Q280.6719,26.6875 281.3125,26.8594 Q281.9688,27.0156 282.5156,27.375 Z " fill="#000000"/><text fill="#000000" font-family="sans-serif" font-size="14" lengthAdjust="spacing" textLength="126" x="300.25" y="37.2285">AssignJobController</text><line style="stroke:#181818;stroke-width:0.5;" x1="151" x2="543" y1="47.5" y2="47.5"/><line style="stroke:#181818;stroke-width:0.5;" x1="151" x2="543" y1="55.5" y2="55.5"/><text fill="#000000" font-family="sans-serif" font-size="14" lengthAdjust="spacing" textLength="382" x="156" y="74.0332">+AssignJobController(collaboratorRepository, jobRepository)</text><text fill="#000000" font-family="sans-serif" font-size="14" lengthAdjust="spacing" textLength="123" x="156" y="91.6426">+getCollaborators()</text><text fill="#000000" font-family="sans-serif" font-size="14" lengthAdjust="spacing" textLength="122" x="156" y="109.252">+getJobs(jobName)</text></g><!--class Repositories--><g id="elem_Repositories"><rect codeLine="21" fill="#F1F1F1" height="118.4375" id="Repositories" rx="2.5" ry="2.5" style="stroke:#181818;stroke-width:0.5;" width="196" x="648" y="7"/><ellipse cx="702.25" cy="23" fill="#ADD1B2" rx="11" ry="11" style="stroke:#181818;stroke-width:1.0;"/><path d="M705.0156,18.875 Q705.1719,18.6563 705.3594,18.5469 Q705.5469,18.4375 705.7656,18.4375 Q706.1406,18.4375 706.375,18.7031 Q706.6094,18.9531 706.6094,19.5625 L706.6094,21.0156 Q706.6094,21.625 706.375,21.8906 Q706.1406,22.1563 705.7656,22.1563 Q705.4219,22.1563 705.2188,21.9531 Q705.0156,21.7656 704.9063,21.25 Q704.8594,20.8906 704.6719,20.7031 Q704.3438,20.3281 703.7344,20.1094 Q703.125,19.8906 702.5,19.8906 Q701.7344,19.8906 701.0938,20.2188 Q700.4688,20.5469 699.9688,21.2969 Q699.4844,22.0469 699.4844,23.0781 L699.4844,24.1719 Q699.4844,25.4063 700.375,26.2344 Q701.2656,27.0469 702.8594,27.0469 Q703.7969,27.0469 704.4531,26.7969 Q704.8438,26.6406 705.2656,26.2031 Q705.5313,25.9375 705.6719,25.8594 Q705.8281,25.7813 706.0313,25.7813 Q706.3594,25.7813 706.6094,26.0469 Q706.875,26.2969 706.875,26.6406 Q706.875,26.9844 706.5313,27.3906 Q706.0313,27.9688 705.2344,28.2969 Q704.1563,28.75 702.8594,28.75 Q701.3438,28.75 700.1406,28.125 Q699.1563,27.625 698.4688,26.5625 Q697.7813,25.4844 697.7813,24.2031 L697.7813,23.0469 Q697.7813,21.7188 698.3906,20.5781 Q699.0156,19.4219 700.1094,18.8125 Q701.2031,18.1875 702.4375,18.1875 Q703.1719,18.1875 703.8125,18.3594 Q704.4688,18.5156 705.0156,18.875 Z " fill="#000000"/><text fill="#000000" font-family="sans-serif" font-size="14" lengthAdjust="spacing" textLength="79" x="722.75" y="28.7285">Repositories</text><line style="stroke:#181818;stroke-width:0.5;" x1="649" x2="843" y1="39" y2="39"/><line style="stroke:#181818;stroke-width:0.5;" x1="649" x2="843" y1="47" y2="47"/><text fill="#000000" font-family="sans-serif" font-size="14" lengthAdjust="spacing" textLength="94" x="654" y="65.5332">-Repositories()</text><text fill="#000000" font-family="sans-serif" font-size="14" lengthAdjust="spacing" textLength="182" x="654" y="83.1426">+getInstance() : Repositories</text><text fill="#000000" font-family="sans-serif" font-size="14" lengthAdjust="spacing" textLength="184" x="654" y="100.752">+getCollaboratorRepository()</text><text fill="#000000" font-family="sans-serif" font-size="14" lengthAdjust="spacing" textLength="128" x="654" y="118.3613">+getJobRepository()</text></g><!--class CollaboratorRepository--><g id="elem_CollaboratorRepository"><rect codeLine="28" fill="#F1F1F1" height="65.6094" id="CollaboratorRepository" rx="2.5" ry="2.5" style="stroke:#181818;stroke-width:0.5;" width="178" x="382" y="203"/><ellipse cx="397" cy="219" fill="#ADD1B2" rx="11" ry="11" style="stroke:#181818;stroke-width:1.0;"/><path d="M399.7656,214.875 Q399.9219,214.6563 400.1094,214.5469 Q400.2969,214.4375 400.5156,214.4375 Q400.8906,214.4375 401.125,214.7031 Q401.3594,214.9531 401.3594,215.5625 L401.3594,217.0156 Q401.3594,217.625 401.125,217.8906 Q400.8906,218.1563 400.5156,218.1563 Q400.1719,218.1563 399.9688,217.9531 Q399.7656,217.7656 399.6563,217.25 Q399.6094,216.8906 399.4219,216.7031 Q399.0938,216.3281 398.4844,216.1094 Q397.875,215.8906 397.25,215.8906 Q396.4844,215.8906 395.8438,216.2188 Q395.2188,216.5469 394.7188,217.2969 Q394.2344,218.0469 394.2344,219.0781 L394.2344,220.1719 Q394.2344,221.4063 395.125,222.2344 Q396.0156,223.0469 397.6094,223.0469 Q398.5469,223.0469 399.2031,222.7969 Q399.5938,222.6406 400.0156,222.2031 Q400.2813,221.9375 400.4219,221.8594 Q400.5781,221.7813 400.7813,221.7813 Q401.1094,221.7813 401.3594,222.0469 Q401.625,222.2969 401.625,222.6406 Q401.625,222.9844 401.2813,223.3906 Q400.7813,223.9688 399.9844,224.2969 Q398.9063,224.75 397.6094,224.75 Q396.0938,224.75 394.8906,224.125 Q393.9063,223.625 393.2188,222.5625 Q392.5313,221.4844 392.5313,220.2031 L392.5313,219.0469 Q392.5313,217.7188 393.1406,216.5781 Q393.7656,215.4219 394.8594,214.8125 Q395.9531,214.1875 397.1875,214.1875 Q397.9219,214.1875 398.5625,214.3594 Q399.2188,214.5156 399.7656,214.875 Z " fill="#000000"/><text fill="#000000" font-family="sans-serif" font-size="14" lengthAdjust="spacing" textLength="146" x="411" y="224.7285">CollaboratorRepository</text><line style="stroke:#181818;stroke-width:0.5;" x1="383" x2="559" y1="235" y2="235"/><line style="stroke:#181818;stroke-width:0.5;" x1="383" x2="559" y1="243" y2="243"/><text fill="#000000" font-family="sans-serif" font-size="14" lengthAdjust="spacing" textLength="158" x="388" y="261.5332">+getCollaborators(name)</text></g><!--class JobRepository--><g id="elem_JobRepository"><rect codeLine="32" fill="#F1F1F1" height="65.6094" id="JobRepository" rx="2.5" ry="2.5" style="stroke:#181818;stroke-width:0.5;" width="134" x="563" y="347"/><ellipse cx="583.4" cy="363" fill="#ADD1B2" rx="11" ry="11" style="stroke:#181818;stroke-width:1.0;"/><path d="M586.1656,358.875 Q586.3219,358.6563 586.5094,358.5469 Q586.6969,358.4375 586.9156,358.4375 Q587.2906,358.4375 587.525,358.7031 Q587.7594,358.9531 587.7594,359.5625 L587.7594,361.0156 Q587.7594,361.625 587.525,361.8906 Q587.2906,362.1563 586.9156,362.1563 Q586.5719,362.1563 586.3688,361.9531 Q586.1656,361.7656 586.0563,361.25 Q586.0094,360.8906 585.8219,360.7031 Q585.4938,360.3281 584.8844,360.1094 Q584.275,359.8906 583.65,359.8906 Q582.8844,359.8906 582.2438,360.2188 Q581.6188,360.5469 581.1188,361.2969 Q580.6344,362.0469 580.6344,363.0781 L580.6344,364.1719 Q580.6344,365.4063 581.525,366.2344 Q582.4156,367.0469 584.0094,367.0469 Q584.9469,367.0469 585.6031,366.7969 Q585.9938,366.6406 586.4156,366.2031 Q586.6813,365.9375 586.8219,365.8594 Q586.9781,365.7813 587.1813,365.7813 Q587.5094,365.7813 587.7594,366.0469 Q588.025,366.2969 588.025,366.6406 Q588.025,366.9844 587.6813,367.3906 Q587.1813,367.9688 586.3844,368.2969 Q585.3063,368.75 584.0094,368.75 Q582.4938,368.75 581.2906,368.125 Q580.3063,367.625 579.6188,366.5625 Q578.9313,365.4844 578.9313,364.2031 L578.9313,363.0469 Q578.9313,361.7188 579.5406,360.5781 Q580.1656,359.4219 581.2594,358.8125 Q582.3531,358.1875 583.5875,358.1875 Q584.3219,358.1875 584.9625,358.3594 Q585.6188,358.5156 586.1656,358.875 Z " fill="#000000"/><text fill="#000000" font-family="sans-serif" font-size="14" lengthAdjust="spacing" textLength="90" x="598.6" y="368.7285">JobRepository</text><line style="stroke:#181818;stroke-width:0.5;" x1="564" x2="696" y1="379" y2="379"/><line style="stroke:#181818;stroke-width:0.5;" x1="564" x2="696" y1="387" y2="387"/><text fill="#000000" font-family="sans-serif" font-size="14" lengthAdjust="spacing" textLength="122" x="569" y="405.5332">+getJobs(jobName)</text></g><!--class Job--><g id="elem_Job"><rect codeLine="36" fill="#F1F1F1" height="65.6094" id="Job" rx="2.5" ry="2.5" style="stroke:#181818;stroke-width:0.5;" width="72" x="547" y="766"/><ellipse cx="570.1" cy="782" fill="#ADD1B2" rx="11" ry="11" style="stroke:#181818;stroke-width:1.0;"/><path d="M572.8656,777.875 Q573.0219,777.6563 573.2094,777.5469 Q573.3969,777.4375 573.6156,777.4375 Q573.9906,777.4375 574.225,777.7031 Q574.4594,777.9531 574.4594,778.5625 L574.4594,780.0156 Q574.4594,780.625 574.225,780.8906 Q573.9906,781.1563 573.6156,781.1563 Q573.2719,781.1563 573.0688,780.9531 Q572.8656,780.7656 572.7563,780.25 Q572.7094,779.8906 572.5219,779.7031 Q572.1938,779.3281 571.5844,779.1094 Q570.975,778.8906 570.35,778.8906 Q569.5844,778.8906 568.9438,779.2188 Q568.3188,779.5469 567.8188,780.2969 Q567.3344,781.0469 567.3344,782.0781 L567.3344,783.1719 Q567.3344,784.4063 568.225,785.2344 Q569.1156,786.0469 570.7094,786.0469 Q571.6469,786.0469 572.3031,785.7969 Q572.6938,785.6406 573.1156,785.2031 Q573.3813,784.9375 573.5219,784.8594 Q573.6781,784.7813 573.8813,784.7813 Q574.2094,784.7813 574.4594,785.0469 Q574.725,785.2969 574.725,785.6406 Q574.725,785.9844 574.3813,786.3906 Q573.8813,786.9688 573.0844,787.2969 Q572.0063,787.75 570.7094,787.75 Q569.1938,787.75 567.9906,787.125 Q567.0063,786.625 566.3188,785.5625 Q565.6313,784.4844 565.6313,783.2031 L565.6313,782.0469 Q565.6313,780.7188 566.2406,779.5781 Q566.8656,778.4219 567.9594,777.8125 Q569.0531,777.1875 570.2875,777.1875 Q571.0219,777.1875 571.6625,777.3594 Q572.3188,777.5156 572.8656,777.875 Z " fill="#000000"/><text fill="#000000" font-family="sans-serif" font-size="14" lengthAdjust="spacing" textLength="22" x="585.9" y="787.7285">Job</text><line style="stroke:#181818;stroke-width:0.5;" x1="548" x2="618" y1="798" y2="798"/><text fill="#000000" font-family="sans-serif" font-size="14" lengthAdjust="spacing" textLength="60" x="553" y="816.5332">-jobName</text><line style="stroke:#181818;stroke-width:0.5;" x1="548" x2="618" y1="823.6094" y2="823.6094"/></g><!--class Collaborator--><g id="elem_Collaborator"><rect codeLine="40" fill="#F1F1F1" height="118.4375" id="Collaborator" rx="2.5" ry="2.5" style="stroke:#181818;stroke-width:0.5;" width="266" x="311" y="491"/><ellipse cx="400.75" cy="507" fill="#ADD1B2" rx="11" ry="11" style="stroke:#181818;stroke-width:1.0;"/><path d="M403.5156,502.875 Q403.6719,502.6563 403.8594,502.5469 Q404.0469,502.4375 404.2656,502.4375 Q404.6406,502.4375 404.875,502.7031 Q405.1094,502.9531 405.1094,503.5625 L405.1094,505.0156 Q405.1094,505.625 404.875,505.8906 Q404.6406,506.1563 404.2656,506.1563 Q403.9219,506.1563 403.7188,505.9531 Q403.5156,505.7656 403.4063,505.25 Q403.3594,504.8906 403.1719,504.7031 Q402.8438,504.3281 402.2344,504.1094 Q401.625,503.8906 401,503.8906 Q400.2344,503.8906 399.5938,504.2188 Q398.9688,504.5469 398.4688,505.2969 Q397.9844,506.0469 397.9844,507.0781 L397.9844,508.1719 Q397.9844,509.4063 398.875,510.2344 Q399.7656,511.0469 401.3594,511.0469 Q402.2969,511.0469 402.9531,510.7969 Q403.3438,510.6406 403.7656,510.2031 Q404.0313,509.9375 404.1719,509.8594 Q404.3281,509.7813 404.5313,509.7813 Q404.8594,509.7813 405.1094,510.0469 Q405.375,510.2969 405.375,510.6406 Q405.375,510.9844 405.0313,511.3906 Q404.5313,511.9688 403.7344,512.2969 Q402.6563,512.75 401.3594,512.75 Q399.8438,512.75 398.6406,512.125 Q397.6563,511.625 396.9688,510.5625 Q396.2813,509.4844 396.2813,508.2031 L396.2813,507.0469 Q396.2813,505.7188 396.8906,504.5781 Q397.5156,503.4219 398.6094,502.8125 Q399.7031,502.1875 400.9375,502.1875 Q401.6719,502.1875 402.3125,502.3594 Q402.9688,502.5156 403.5156,502.875 Z " fill="#000000"/><text fill="#000000" font-family="sans-serif" font-size="14" lengthAdjust="spacing" textLength="78" x="421.25" y="512.7285">Collaborator</text><line style="stroke:#181818;stroke-width:0.5;" x1="312" x2="576" y1="523" y2="523"/><text fill="#000000" font-family="sans-serif" font-size="14" lengthAdjust="spacing" textLength="40" x="317" y="541.5332">-name</text><text fill="#000000" font-family="sans-serif" font-size="14" lengthAdjust="spacing" textLength="110" x="317" y="559.1426">-List&lt;Job&gt; jobList</text><line style="stroke:#181818;stroke-width:0.5;" x1="312" x2="576" y1="566.2188" y2="566.2188"/><text fill="#000000" font-family="sans-serif" font-size="14" lengthAdjust="spacing" textLength="254" x="317" y="584.752">+createJob(collaboratorName, jobName)</text><text fill="#000000" font-family="sans-serif" font-size="14" lengthAdjust="spacing" textLength="144" x="317" y="602.3613">+validateJob(jobName)</text></g><!--class HRM--><g id="elem_HRM"><rect codeLine="47" fill="#F1F1F1" height="48" id="HRM" rx="2.5" ry="2.5" style="stroke:#181818;stroke-width:0.5;" width="62" x="732" y="356"/><ellipse cx="747" cy="372" fill="#ADD1B2" rx="11" ry="11" style="stroke:#181818;stroke-width:1.0;"/><path d="M749.7656,367.875 Q749.9219,367.6563 750.1094,367.5469 Q750.2969,367.4375 750.5156,367.4375 Q750.8906,367.4375 751.125,367.7031 Q751.3594,367.9531 751.3594,368.5625 L751.3594,370.0156 Q751.3594,370.625 751.125,370.8906 Q750.8906,371.1563 750.5156,371.1563 Q750.1719,371.1563 749.9688,370.9531 Q749.7656,370.7656 749.6563,370.25 Q749.6094,369.8906 749.4219,369.7031 Q749.0938,369.3281 748.4844,369.1094 Q747.875,368.8906 747.25,368.8906 Q746.4844,368.8906 745.8438,369.2188 Q745.2188,369.5469 744.7188,370.2969 Q744.2344,371.0469 744.2344,372.0781 L744.2344,373.1719 Q744.2344,374.4063 745.125,375.2344 Q746.0156,376.0469 747.6094,376.0469 Q748.5469,376.0469 749.2031,375.7969 Q749.5938,375.6406 750.0156,375.2031 Q750.2813,374.9375 750.4219,374.8594 Q750.5781,374.7813 750.7813,374.7813 Q751.1094,374.7813 751.3594,375.0469 Q751.625,375.2969 751.625,375.6406 Q751.625,375.9844 751.2813,376.3906 Q750.7813,376.9688 749.9844,377.2969 Q748.9063,377.75 747.6094,377.75 Q746.0938,377.75 744.8906,377.125 Q743.9063,376.625 743.2188,375.5625 Q742.5313,374.4844 742.5313,373.2031 L742.5313,372.0469 Q742.5313,370.7188 743.1406,369.5781 Q743.7656,368.4219 744.8594,367.8125 Q745.9531,367.1875 747.1875,367.1875 Q747.9219,367.1875 748.5625,367.3594 Q749.2188,367.5156 749.7656,367.875 Z " fill="#000000"/><text fill="#000000" font-family="sans-serif" font-size="14" lengthAdjust="spacing" textLength="30" x="761" y="377.7285">HRM</text><line style="stroke:#181818;stroke-width:0.5;" x1="733" x2="793" y1="388" y2="388"/><line style="stroke:#181818;stroke-width:0.5;" x1="733" x2="793" y1="396" y2="396"/></g><!--link AssignJobUI to AssignJobController--><g id="link_AssignJobUI_AssignJobController"><path codeLine="49" d="M115.07,66 C126.19,66 136.84,66 144.53,66 " fill="none" id="AssignJobUI-to-AssignJobController" style="stroke:#181818;stroke-width:1.0;stroke-dasharray:7.0,7.0;"/><polygon fill="#181818" points="149.79,66,140.79,62,144.79,66,140.79,70,149.79,66" style="stroke:#181818;stroke-width:1.0;"/></g><!--link AssignJobController to Repositories--><g id="link_AssignJobController_Repositories"><path codeLine="50" d="M544.16,66 C578.22,66 612.37,66 642.64,66 " fill="none" id="AssignJobController-to-Repositories" style="stroke:#181818;stroke-width:1.0;stroke-dasharray:7.0,7.0;"/><polygon fill="#181818" points="647.85,66,638.85,62,642.85,66,638.85,70,647.85,66" style="stroke:#181818;stroke-width:1.0;"/><text fill="#000000" font-family="sans-serif" font-size="13" lengthAdjust="spacing" textLength="67" x="562.5" y="59.4951">repositories</text></g><!--link Repositories to JobRepository--><g id="link_Repositories_JobRepository"><path codeLine="51" d="M738.23,125.16 C730.25,184.83 719,269 719,269 C719,269 685.34,310.6 659.42,342.64 " fill="none" id="Repositories-to-JobRepository" style="stroke:#181818;stroke-width:1.0;"/><polygon fill="#181818" points="655.98,346.89,664.7499,342.4079,659.1243,343.0024,658.5298,337.3769,655.98,346.89" style="stroke:#181818;stroke-width:1.0;"/><text fill="#000000" font-family="sans-serif" font-size="13" lengthAdjust="spacing" textLength="7" x="653.6165" y="335.9827">1</text></g><!--link Repositories to CollaboratorRepository--><g id="link_Repositories_CollaboratorRepository"><path codeLine="52" d="M650.98,125.05 C609.95,150.11 563.33,178.59 527.82,200.29 " fill="none" id="Repositories-to-CollaboratorRepository" style="stroke:#181818;stroke-width:1.0;"/><polygon fill="#181818" points="523.54,202.9,533.3076,201.6373,527.811,200.3003,529.148,194.8037,523.54,202.9" style="stroke:#181818;stroke-width:1.0;"/><text fill="#000000" font-family="sans-serif" font-size="13" lengthAdjust="spacing" textLength="7" x="526.6545" y="191.9948">1</text></g><!--link Repositories to Repositories--><g id="link_Repositories_Repositories"><path codeLine="53" d="M844.02,48.27 C864.37,50.14 879,56.05 879,66 C879,75.1 866.77,80.82 849.13,83.16 " fill="none" id="Repositories-to-Repositories" style="stroke:#181818;stroke-width:1.0;"/><polygon fill="#181818" points="844.02,83.73,853.4104,86.6998,848.9887,83.1716,852.5169,78.7498,844.02,83.73" style="stroke:#181818;stroke-width:1.0;"/><text fill="#000000" font-family="sans-serif" font-size="13" lengthAdjust="spacing" textLength="49" x="885" y="71.4951">instance</text></g><!--link JobRepository to Job--><g id="link_JobRepository_Job"><path codeLine="55" d="M626.39,413.03 C617.83,488.98 596.33,679.7 587.21,760.69 " fill="none" id="JobRepository-to-Job" style="stroke:#181818;stroke-width:1.0;"/><polygon fill="#181818" points="586.62,765.86,591.5975,757.3615,587.1769,760.8911,583.6472,756.4705,586.62,765.86" style="stroke:#181818;stroke-width:1.0;"/><text fill="#000000" font-family="sans-serif" font-size="13" lengthAdjust="spacing" textLength="5" x="581.851" y="754.9465">*</text></g><!--link CollaboratorRepository to Collaborator--><g id="link_CollaboratorRepository_Collaborator"><path codeLine="56" d="M468.21,269.21 C463.81,320.12 455.15,420.12 449.47,485.74 " fill="none" id="CollaboratorRepository-to-Collaborator" style="stroke:#181818;stroke-width:1.0;"/><polygon fill="#181818" points="449.04,490.8,453.7961,482.1756,449.4682,485.8184,445.8255,481.4905,449.04,490.8" style="stroke:#181818;stroke-width:1.0;"/><text fill="#000000" font-family="sans-serif" font-size="13" lengthAdjust="spacing" textLength="5" x="444.3496" y="480.0999">*</text></g><!--link HRM to Job--><g id="link_HRM_Job"><path codeLine="57" d="M753.47,404.02 C720.89,482.69 616,736 616,736 C616,736 609.65,747.93 602.52,761.33 " fill="none" id="HRM-to-Job" style="stroke:#181818;stroke-width:1.0;"/><polygon fill="#181818" points="600.08,765.91,607.8478,759.8551,602.4352,761.4994,600.7908,756.0868,600.08,765.91" style="stroke:#181818;stroke-width:1.0;"/><text fill="#000000" font-family="sans-serif" font-size="13" lengthAdjust="spacing" textLength="36" x="656" y="653.4951">create</text><text fill="#000000" font-family="sans-serif" font-size="13" lengthAdjust="spacing" textLength="7" x="743.2939" y="425.3628">1</text><text fill="#000000" font-family="sans-serif" font-size="13" lengthAdjust="spacing" textLength="5" x="598.0871" y="755.0068">*</text></g><!--link AssignJobController to Collaborator--><g id="link_AssignJobController_Collaborator"><path codeLine="58" d="M351.43,116.67 C356.76,176.48 365,269 365,269 C365,269 402.96,403.56 426.26,486.11 " fill="none" id="AssignJobController-to-Collaborator" style="stroke:#181818;stroke-width:1.0;stroke-dasharray:7.0,7.0;"/><polygon fill="#181818" points="427.63,490.98,429.038,481.2323,426.2734,486.1676,421.3381,483.4029,427.63,490.98" style="stroke:#181818;stroke-width:1.0;"/><text fill="#000000" font-family="sans-serif" font-size="13" lengthAdjust="spacing" textLength="67" x="379" y="313.4951">collaborator</text><text fill="#000000" font-family="sans-serif" font-size="13" lengthAdjust="spacing" textLength="7" x="418.2083" y="480.3018">1</text></g><!--link AssignJobController to Job--><g id="link_AssignJobController_Job"><path codeLine="59" d="M320.54,116.95 C294.3,166.47 258,235 258,235 C258,235 258,235 258,697 C258,697 454.85,758.17 542.15,785.3 " fill="none" id="AssignJobController-to-Job" style="stroke:#181818;stroke-width:1.0;stroke-dasharray:7.0,7.0;"/><polygon fill="#181818" points="546.98,786.81,539.5761,780.3152,542.2061,785.3235,537.1977,787.9535,546.98,786.81" style="stroke:#181818;stroke-width:1.0;"/><text fill="#000000" font-family="sans-serif" font-size="13" lengthAdjust="spacing" textLength="17" x="259" y="457.4951">job</text><text fill="#000000" font-family="sans-serif" font-size="13" lengthAdjust="spacing" textLength="7" x="531.829" y="780.2175">1</text></g><!--link Collaborator to Job--><g id="link_Collaborator_Job"><path codeLine="60" d="M476.77,609.22 C503.22,656.23 539.64,720.95 562.23,761.09 " fill="none" id="Collaborator-to-Job" style="stroke:#181818;stroke-width:1.0;"/><polygon fill="#181818" points="564.92,765.86,563.9833,756.0558,562.4639,761.5048,557.0149,759.9855,564.92,765.86" style="stroke:#181818;stroke-width:1.0;"/><text fill="#000000" font-family="sans-serif" font-size="13" lengthAdjust="spacing" textLength="21" x="530" y="701.4951">has</text><text fill="#000000" font-family="sans-serif" font-size="13" lengthAdjust="spacing" textLength="7" x="473.3373" y="630.9023">1</text><text fill="#000000" font-family="sans-serif" font-size="13" lengthAdjust="spacing" textLength="5" x="555.6754" y="754.9465">*</text></g><!--link AssignJobController to CollaboratorRepository--><g id="link_AssignJobController_CollaboratorRepository"><path codeLine="61" d="M383.87,116.95 C403.3,143.28 426.71,174.99 444.36,198.91 " fill="none" id="AssignJobController-to-CollaboratorRepository" style="stroke:#181818;stroke-width:1.0;stroke-dasharray:7.0,7.0;"/><polygon fill="#181818" points="447.37,202.98,445.2468,193.3627,444.4021,198.9562,438.8086,198.1114,447.37,202.98" style="stroke:#181818;stroke-width:1.0;"/><text fill="#000000" font-family="sans-serif" font-size="13" lengthAdjust="spacing" textLength="129" x="424" y="169.4951">collaboratorRepository</text><text fill="#000000" font-family="sans-serif" font-size="13" lengthAdjust="spacing" textLength="7" x="434.7744" y="192.0913">1</text></g><!--link AssignJobController to JobRepository--><g id="link_AssignJobController_JobRepository"><path codeLine="62" d="M468.01,116.53 C516.9,136.54 562,155 562,155 C562,155 578,203 578,203 C578,203 603.76,290.19 619.02,341.84 " fill="none" id="AssignJobController-to-JobRepository" style="stroke:#181818;stroke-width:1.0;stroke-dasharray:7.0,7.0;"/><polygon fill="#181818" points="620.46,346.72,621.7453,336.9554,619.043,341.925,614.0733,339.2226,620.46,346.72" style="stroke:#181818;stroke-width:1.0;"/><text fill="#000000" font-family="sans-serif" font-size="13" lengthAdjust="spacing" textLength="79" x="598" y="241.4951">jobRepository</text><text fill="#000000" font-family="sans-serif" font-size="13" lengthAdjust="spacing" textLength="7" x="610.8928" y="336.1612">1</text></g><!--SRC=[VLDBRi8m4Dtx5ADkW9PKxHPLI8XDgTekG3s02KCm64zacrOKSVVQ8G4Rd6QJsEypppDEnso4AhdcMzYIedobQOjWzGxP1Ibvlk45pknU8cZCBLU530bcnHVq8rG1IovDY4YXqEvBX9BatYzO9m6IjiG2LIwvCIDhjPZlB4voKZFnY_34M4VYqe8bqA9OMLW87qUGOgpImCWOKQWtcdzD3kp8RhR7fAmcAL4V6BZd8GLrS_VYSzBSafvYIKQuZtqVrZI_B7krGO5s7F1DDm2ShUawrIVVeji-DddEBW8Dd99aqMPeCb76TJp7RWy64IaTu9BmAaa4dAEafN1eEvsgZdAMHxwXAZvwo6_EMuFfA0t9bwi_tuMnBqu_z4g_g8lb6hb51qHpyzPzkFI-edvpAHOr-JRRw_J3NvhW3i7ZC7L1M6BFKwEn3jol4imgmh9i27VFTt7tqfJqVAwuDwL5VMSOYmTKkTvNXLdBv1jA23FNcYfDbWKEhiwfz-b-kEVs25uJ6hSf6-sfpFegRfqbJBBYfiNilpvUnGaQt18iCRTJla3w1m00]--></g></svg>