<?xml version="1.0" encoding="UTF-8" standalone="no"?><svg xmlns="http://www.w3.org/2000/svg" xmlns:xlink="http://www.w3.org/1999/xlink" contentStyleType="text/css" height="971px" preserveAspectRatio="none" style="width:1042px;height:971px;background:#FFFFFF;" version="1.1" viewBox="0 0 1042 971" width="1042px" zoomAndPan="magnify"><defs/><g><rect fill="#FFFFFF" height="752.1563" style="stroke:#181818;stroke-width:1.0;" width="10" x="63" y="110.2188"/><rect fill="#FFFFFF" height="30.3516" style="stroke:#181818;stroke-width:1.0;" width="10" x="339" y="132.5703"/><rect fill="#FFFFFF" height="30.3516" style="stroke:#181818;stroke-width:1.0;" width="10" x="339" y="193.2734"/><rect fill="#FFFFFF" height="599.3984" style="stroke:#181818;stroke-width:1.0;" width="10" x="339" y="253.9766"/><rect fill="#FFFFFF" height="496.0859" style="stroke:#181818;stroke-width:1.0;" width="10" x="515" y="326.9375"/><rect fill="#FFFFFF" height="30.3516" style="stroke:#181818;stroke-width:1.0;" width="10" x="650" y="382.2891"/><rect fill="#FFFFFF" height="30.3516" style="stroke:#181818;stroke-width:1.0;" width="10" x="757" y="442.9922"/><rect fill="#FFFFFF" height="263.9766" style="stroke:#181818;stroke-width:1.0;" width="10" x="868" y="528.6953"/><rect fill="#FFFFFF" height="128.0547" style="stroke:#181818;stroke-width:1.0;" width="10" x="873" y="627.2656"/><rect fill="#FFFFFF" height="41.3516" style="stroke:#181818;stroke-width:1.0;" width="10" x="878" y="670.6172"/><line style="stroke:#181818;stroke-width:0.5;stroke-dasharray:5.0,5.0;" x1="68" x2="68" y1="100.2188" y2="871.375"/><line style="stroke:#181818;stroke-width:0.5;stroke-dasharray:5.0,5.0;" x1="343.5" x2="343.5" y1="100.2188" y2="871.375"/><line style="stroke:#181818;stroke-width:0.5;stroke-dasharray:5.0,5.0;" x1="519.5" x2="519.5" y1="293.2813" y2="871.375"/><line style="stroke:#181818;stroke-width:0.5;stroke-dasharray:5.0,5.0;" x1="654.5" x2="654.5" y1="100.2188" y2="871.375"/><line style="stroke:#181818;stroke-width:0.5;stroke-dasharray:5.0,5.0;" x1="761.5" x2="761.5" y1="100.2188" y2="871.375"/><line style="stroke:#181818;stroke-width:0.5;stroke-dasharray:5.0,5.0;" x1="872.5" x2="872.5" y1="100.2188" y2="871.375"/><line style="stroke:#181818;stroke-width:0.5;stroke-dasharray:5.0,5.0;" x1="1016" x2="1016" y1="576.8047" y2="871.375"/><text fill="#000000" font-family="sans-serif" font-size="14" lengthAdjust="spacing" textLength="116" x="5" y="79.5332">Human Resources</text><text fill="#000000" font-family="sans-serif" font-size="14" lengthAdjust="spacing" textLength="100" x="17" y="97.1426">Manager (HRM)</text><ellipse cx="68" cy="13.5" fill="#E3E3E3" rx="8" ry="8" style="stroke:#181818;stroke-width:0.5;"/><path d="M68,21.5 L68,48.5 M55,29.5 L81,29.5 M68,48.5 L55,63.5 M68,48.5 L81,63.5 " fill="none" style="stroke:#181818;stroke-width:0.5;"/><text fill="#000000" font-family="sans-serif" font-size="14" lengthAdjust="spacing" textLength="116" x="5" y="884.9082">Human Resources</text><text fill="#000000" font-family="sans-serif" font-size="14" lengthAdjust="spacing" textLength="100" x="17" y="902.5176">Manager (HRM)</text><ellipse cx="68" cy="914.0938" fill="#E3E3E3" rx="8" ry="8" style="stroke:#181818;stroke-width:0.5;"/><path d="M68,922.0938 L68,949.0938 M55,930.0938 L81,930.0938 M68,949.0938 L55,964.0938 M68,949.0938 L81,964.0938 " fill="none" style="stroke:#181818;stroke-width:0.5;"/><rect fill="#E3E3E3" height="31.6094" rx="2.5" ry="2.5" style="stroke:#181818;stroke-width:0.5;" width="103" x="292.5" y="67.6094"/><text fill="#000000" font-family="sans-serif" font-size="14" lengthAdjust="spacing" textLength="89" x="299.5" y="89.1426">:  CreateJobUI</text><rect fill="#E3E3E3" height="31.6094" rx="2.5" ry="2.5" style="stroke:#181818;stroke-width:0.5;" width="103" x="292.5" y="870.375"/><text fill="#000000" font-family="sans-serif" font-size="14" lengthAdjust="spacing" textLength="89" x="299.5" y="891.9082">:  CreateJobUI</text><rect fill="#E3E3E3" height="31.6094" rx="2.5" ry="2.5" style="stroke:#181818;stroke-width:0.5;" width="153" x="443.5" y="870.375"/><text fill="#000000" font-family="sans-serif" font-size="14" lengthAdjust="spacing" textLength="139" x="450.5" y="891.9082">:  CreateJobController</text><rect fill="#E3E3E3" height="31.6094" rx="2.5" ry="2.5" style="stroke:#181818;stroke-width:0.5;" width="97" x="606.5" y="67.6094"/><text fill="#000000" font-family="sans-serif" font-size="14" lengthAdjust="spacing" textLength="83" x="613.5" y="89.1426">:Repositories</text><rect fill="#E3E3E3" height="31.6094" rx="2.5" ry="2.5" style="stroke:#181818;stroke-width:0.5;" width="97" x="606.5" y="870.375"/><text fill="#000000" font-family="sans-serif" font-size="14" lengthAdjust="spacing" textLength="83" x="613.5" y="891.9082">:Repositories</text><rect fill="#E3E3E3" height="49.2188" rx="2.5" ry="2.5" style="stroke:#181818;stroke-width:0.5;" width="97" x="713.5" y="50"/><text fill="#000000" font-family="sans-serif" font-size="14" lengthAdjust="spacing" textLength="74" x="725" y="71.5332">repositories</text><text fill="#000000" font-family="sans-serif" font-size="14" lengthAdjust="spacing" textLength="83" x="720.5" y="89.1426">:Repositories</text><rect fill="#E3E3E3" height="49.2188" rx="2.5" ry="2.5" style="stroke:#181818;stroke-width:0.5;" width="97" x="713.5" y="870.375"/><text fill="#000000" font-family="sans-serif" font-size="14" lengthAdjust="spacing" textLength="74" x="725" y="891.9082">repositories</text><text fill="#000000" font-family="sans-serif" font-size="14" lengthAdjust="spacing" textLength="83" x="720.5" y="909.5176">:Repositories</text><rect fill="#E3E3E3" height="49.2188" rx="2.5" ry="2.5" style="stroke:#181818;stroke-width:0.5;" width="105" x="820.5" y="50"/><text fill="#000000" font-family="sans-serif" font-size="14" lengthAdjust="spacing" textLength="91" x="827.5" y="71.5332">jobRepository:</text><text fill="#000000" font-family="sans-serif" font-size="14" lengthAdjust="spacing" textLength="87" x="829.5" y="89.1426">jobRepository</text><rect fill="#E3E3E3" height="49.2188" rx="2.5" ry="2.5" style="stroke:#181818;stroke-width:0.5;" width="105" x="820.5" y="870.375"/><text fill="#000000" font-family="sans-serif" font-size="14" lengthAdjust="spacing" textLength="91" x="827.5" y="891.9082">jobRepository:</text><text fill="#000000" font-family="sans-serif" font-size="14" lengthAdjust="spacing" textLength="87" x="829.5" y="909.5176">jobRepository</text><rect fill="#E3E3E3" height="49.2188" rx="2.5" ry="2.5" style="stroke:#181818;stroke-width:0.5;" width="40" x="996" y="870.375"/><text fill="#000000" font-family="sans-serif" font-size="14" lengthAdjust="spacing" textLength="19" x="1006.5" y="891.9082">job</text><text fill="#000000" font-family="sans-serif" font-size="14" lengthAdjust="spacing" textLength="26" x="1003" y="909.5176">:Job</text><rect fill="#FFFFFF" height="752.1563" style="stroke:#181818;stroke-width:1.0;" width="10" x="63" y="110.2188"/><rect fill="#FFFFFF" height="30.3516" style="stroke:#181818;stroke-width:1.0;" width="10" x="339" y="132.5703"/><rect fill="#FFFFFF" height="30.3516" style="stroke:#181818;stroke-width:1.0;" width="10" x="339" y="193.2734"/><rect fill="#FFFFFF" height="599.3984" style="stroke:#181818;stroke-width:1.0;" width="10" x="339" y="253.9766"/><rect fill="#FFFFFF" height="496.0859" style="stroke:#181818;stroke-width:1.0;" width="10" x="515" y="326.9375"/><rect fill="#FFFFFF" height="30.3516" style="stroke:#181818;stroke-width:1.0;" width="10" x="650" y="382.2891"/><rect fill="#FFFFFF" height="30.3516" style="stroke:#181818;stroke-width:1.0;" width="10" x="757" y="442.9922"/><rect fill="#FFFFFF" height="263.9766" style="stroke:#181818;stroke-width:1.0;" width="10" x="868" y="528.6953"/><rect fill="#FFFFFF" height="128.0547" style="stroke:#181818;stroke-width:1.0;" width="10" x="873" y="627.2656"/><rect fill="#FFFFFF" height="41.3516" style="stroke:#181818;stroke-width:1.0;" width="10" x="878" y="670.6172"/><polygon fill="#181818" points="327,128.5703,337,132.5703,327,136.5703,331,132.5703" style="stroke:#181818;stroke-width:1.0;"/><line style="stroke:#181818;stroke-width:1.0;" x1="73" x2="333" y1="132.5703" y2="132.5703"/><text fill="#000000" font-family="sans-serif" font-size="13" font-weight="bold" lengthAdjust="spacing" textLength="7" x="80" y="127.7139">1</text><text fill="#000000" font-family="sans-serif" font-size="13" lengthAdjust="spacing" textLength="100" x="91" y="127.7139">asks to add a job</text><polygon fill="#181818" points="84,158.9219,74,162.9219,84,166.9219,80,162.9219" style="stroke:#181818;stroke-width:1.0;"/><line style="stroke:#181818;stroke-width:1.0;stroke-dasharray:2.0,2.0;" x1="78" x2="343" y1="162.9219" y2="162.9219"/><text fill="#000000" font-family="sans-serif" font-size="13" font-weight="bold" lengthAdjust="spacing" textLength="7" x="90" y="158.0654">2</text><text fill="#000000" font-family="sans-serif" font-size="13" lengthAdjust="spacing" textLength="100" x="101" y="158.0654">request job name</text><polygon fill="#181818" points="327,189.2734,337,193.2734,327,197.2734,331,193.2734" style="stroke:#181818;stroke-width:1.0;"/><line style="stroke:#181818;stroke-width:1.0;" x1="73" x2="333" y1="193.2734" y2="193.2734"/><text fill="#000000" font-family="sans-serif" font-size="13" font-weight="bold" lengthAdjust="spacing" textLength="7" x="80" y="188.417">3</text><text fill="#000000" font-family="sans-serif" font-size="13" lengthAdjust="spacing" textLength="125" x="91" y="188.417">Types requested data</text><polygon fill="#181818" points="84,219.625,74,223.625,84,227.625,80,223.625" style="stroke:#181818;stroke-width:1.0;"/><line style="stroke:#181818;stroke-width:1.0;stroke-dasharray:2.0,2.0;" x1="78" x2="343" y1="223.625" y2="223.625"/><text fill="#000000" font-family="sans-serif" font-size="13" font-weight="bold" lengthAdjust="spacing" textLength="7" x="90" y="218.7686">4</text><text fill="#000000" font-family="sans-serif" font-size="13" lengthAdjust="spacing" textLength="231" x="101" y="218.7686">Shows all data and request confirmation</text><polygon fill="#181818" points="327,249.9766,337,253.9766,327,257.9766,331,253.9766" style="stroke:#181818;stroke-width:1.0;"/><line style="stroke:#181818;stroke-width:1.0;" x1="73" x2="333" y1="253.9766" y2="253.9766"/><text fill="#000000" font-family="sans-serif" font-size="13" font-weight="bold" lengthAdjust="spacing" textLength="7" x="80" y="249.1201">5</text><text fill="#000000" font-family="sans-serif" font-size="13" lengthAdjust="spacing" textLength="65" x="91" y="249.1201">Confirm job</text><polygon fill="#181818" points="431.5,280.3281,441.5,284.3281,431.5,288.3281,435.5,284.3281" style="stroke:#181818;stroke-width:1.0;"/><line style="stroke:#181818;stroke-width:1.0;" x1="349" x2="437.5" y1="284.3281" y2="284.3281"/><text fill="#000000" font-family="sans-serif" font-size="13" font-weight="bold" lengthAdjust="spacing" textLength="7" x="356" y="279.4717">6</text><text fill="#000000" font-family="sans-serif" font-size="13" lengthAdjust="spacing" textLength="44" x="367" y="279.4717">create()</text><rect fill="#E3E3E3" height="31.6094" rx="2.5" ry="2.5" style="stroke:#181818;stroke-width:0.5;" width="153" x="443.5" y="261.9766"/><text fill="#000000" font-family="sans-serif" font-size="14" lengthAdjust="spacing" textLength="139" x="450.5" y="283.5098">:  CreateJobController</text><polygon fill="#181818" points="503,322.9375,513,326.9375,503,330.9375,507,326.9375" style="stroke:#181818;stroke-width:1.0;"/><line style="stroke:#181818;stroke-width:1.0;" x1="349" x2="509" y1="326.9375" y2="326.9375"/><text fill="#000000" font-family="sans-serif" font-size="13" font-weight="bold" lengthAdjust="spacing" textLength="7" x="356" y="322.0811">7</text><text fill="#000000" font-family="sans-serif" font-size="13" lengthAdjust="spacing" textLength="136" x="367" y="322.0811">createJob(Name of Job)</text><polygon fill="#181818" points="638,378.2891,648,382.2891,638,386.2891,642,382.2891" style="stroke:#181818;stroke-width:1.0;"/><line style="stroke:#181818;stroke-width:1.0;" x1="525" x2="644" y1="382.2891" y2="382.2891"/><text fill="#000000" font-family="sans-serif" font-size="13" font-weight="bold" lengthAdjust="spacing" textLength="7" x="532" y="377.4326">8</text><text fill="#000000" font-family="sans-serif" font-size="13" lengthAdjust="spacing" textLength="75" x="543" y="377.4326">getInstance()</text><polygon fill="#181818" points="536,408.6406,526,412.6406,536,416.6406,532,412.6406" style="stroke:#181818;stroke-width:1.0;"/><line style="stroke:#181818;stroke-width:1.0;stroke-dasharray:2.0,2.0;" x1="530" x2="654" y1="412.6406" y2="412.6406"/><text fill="#000000" font-family="sans-serif" font-size="13" font-weight="bold" lengthAdjust="spacing" textLength="7" x="542" y="407.7842">9</text><text fill="#000000" font-family="sans-serif" font-size="13" lengthAdjust="spacing" textLength="67" x="553" y="407.7842">repositories</text><polygon fill="#181818" points="745,438.9922,755,442.9922,745,446.9922,749,442.9922" style="stroke:#181818;stroke-width:1.0;"/><line style="stroke:#181818;stroke-width:1.0;" x1="525" x2="751" y1="442.9922" y2="442.9922"/><text fill="#000000" font-family="sans-serif" font-size="13" font-weight="bold" lengthAdjust="spacing" textLength="14" x="532" y="438.1357">10</text><text fill="#000000" font-family="sans-serif" font-size="13" lengthAdjust="spacing" textLength="136" x="550" y="438.1357">getjobRepository(email)</text><polygon fill="#181818" points="536,469.3438,526,473.3438,536,477.3438,532,473.3438" style="stroke:#181818;stroke-width:1.0;"/><line style="stroke:#181818;stroke-width:1.0;stroke-dasharray:2.0,2.0;" x1="530" x2="761" y1="473.3438" y2="473.3438"/><text fill="#000000" font-family="sans-serif" font-size="13" font-weight="bold" lengthAdjust="spacing" textLength="14" x="542" y="468.4873">11</text><text fill="#000000" font-family="sans-serif" font-size="13" lengthAdjust="spacing" textLength="79" x="560" y="468.4873">jobRepository</text><polygon fill="#181818" points="856,524.6953,866,528.6953,856,532.6953,860,528.6953" style="stroke:#181818;stroke-width:1.0;"/><line style="stroke:#181818;stroke-width:1.0;" x1="525" x2="862" y1="528.6953" y2="528.6953"/><text fill="#000000" font-family="sans-serif" font-size="13" font-weight="bold" lengthAdjust="spacing" textLength="14" x="532" y="523.8389">12</text><text fill="#000000" font-family="sans-serif" font-size="13" lengthAdjust="spacing" textLength="96" x="550" y="523.8389">createJob(name)</text><polygon fill="#181818" points="984,555.0469,994,559.0469,984,563.0469,988,559.0469" style="stroke:#181818;stroke-width:1.0;"/><line style="stroke:#181818;stroke-width:1.0;" x1="878" x2="990" y1="559.0469" y2="559.0469"/><text fill="#000000" font-family="sans-serif" font-size="13" font-weight="bold" lengthAdjust="spacing" textLength="14" x="885" y="554.1904">13</text><text fill="#000000" font-family="sans-serif" font-size="13" lengthAdjust="spacing" textLength="76" x="903" y="554.1904">create(name)</text><rect fill="#E3E3E3" height="49.2188" rx="2.5" ry="2.5" style="stroke:#181818;stroke-width:0.5;" width="40" x="996" y="536.6953"/><text fill="#000000" font-family="sans-serif" font-size="14" lengthAdjust="spacing" textLength="19" x="1006.5" y="558.2285">job</text><text fill="#000000" font-family="sans-serif" font-size="14" lengthAdjust="spacing" textLength="26" x="1003" y="575.8379">:Job</text><line style="stroke:#181818;stroke-width:1.0;" x1="878" x2="925" y1="614.2656" y2="614.2656"/><line style="stroke:#181818;stroke-width:1.0;" x1="925" x2="925" y1="614.2656" y2="627.2656"/><line style="stroke:#181818;stroke-width:1.0;" x1="884" x2="925" y1="627.2656" y2="627.2656"/><polygon fill="#181818" points="894,623.2656,884,627.2656,894,631.2656,890,627.2656" style="stroke:#181818;stroke-width:1.0;"/><text fill="#000000" font-family="sans-serif" font-size="13" font-weight="bold" lengthAdjust="spacing" textLength="14" x="890" y="609.4092">14</text><text fill="#000000" font-family="sans-serif" font-size="13" lengthAdjust="spacing" textLength="66" x="908" y="609.4092">addJob(job)</text><line style="stroke:#181818;stroke-width:1.0;" x1="883" x2="930" y1="657.6172" y2="657.6172"/><line style="stroke:#181818;stroke-width:1.0;" x1="930" x2="930" y1="657.6172" y2="670.6172"/><line style="stroke:#181818;stroke-width:1.0;" x1="889" x2="930" y1="670.6172" y2="670.6172"/><polygon fill="#181818" points="899,666.6172,889,670.6172,899,674.6172,895,670.6172" style="stroke:#181818;stroke-width:1.0;"/><text fill="#000000" font-family="sans-serif" font-size="13" font-weight="bold" lengthAdjust="spacing" textLength="14" x="895" y="652.7607">15</text><text fill="#000000" font-family="sans-serif" font-size="13" lengthAdjust="spacing" textLength="88" x="913" y="652.7607">validateJob(job)</text><line style="stroke:#181818;stroke-width:1.0;stroke-dasharray:2.0,2.0;" x1="888" x2="930" y1="710.9688" y2="710.9688"/><line style="stroke:#181818;stroke-width:1.0;stroke-dasharray:2.0,2.0;" x1="930" x2="930" y1="710.9688" y2="723.9688"/><line style="stroke:#181818;stroke-width:1.0;stroke-dasharray:2.0,2.0;" x1="883" x2="930" y1="723.9688" y2="723.9688"/><polygon fill="#181818" points="893,719.9688,883,723.9688,893,727.9688,889,723.9688" style="stroke:#181818;stroke-width:1.0;"/><text fill="#000000" font-family="sans-serif" font-size="13" font-weight="bold" lengthAdjust="spacing" textLength="14" x="895" y="706.1123">16</text><text fill="#000000" font-family="sans-serif" font-size="13" lengthAdjust="spacing" textLength="4" x="913" y="706.1123"> </text><line style="stroke:#181818;stroke-width:1.0;stroke-dasharray:2.0,2.0;" x1="883" x2="925" y1="754.3203" y2="754.3203"/><line style="stroke:#181818;stroke-width:1.0;stroke-dasharray:2.0,2.0;" x1="925" x2="925" y1="754.3203" y2="767.3203"/><line style="stroke:#181818;stroke-width:1.0;stroke-dasharray:2.0,2.0;" x1="878" x2="925" y1="767.3203" y2="767.3203"/><polygon fill="#181818" points="888,763.3203,878,767.3203,888,771.3203,884,767.3203" style="stroke:#181818;stroke-width:1.0;"/><text fill="#000000" font-family="sans-serif" font-size="13" font-weight="bold" lengthAdjust="spacing" textLength="14" x="890" y="749.4639">17</text><text fill="#000000" font-family="sans-serif" font-size="13" lengthAdjust="spacing" textLength="4" x="908" y="749.4639"> </text><polygon fill="#181818" points="536,788.6719,526,792.6719,536,796.6719,532,792.6719" style="stroke:#181818;stroke-width:1.0;"/><line style="stroke:#181818;stroke-width:1.0;stroke-dasharray:2.0,2.0;" x1="530" x2="872" y1="792.6719" y2="792.6719"/><text fill="#000000" font-family="sans-serif" font-size="13" font-weight="bold" lengthAdjust="spacing" textLength="14" x="542" y="787.8154">18</text><text fill="#000000" font-family="sans-serif" font-size="13" lengthAdjust="spacing" textLength="17" x="560" y="787.8154">job</text><polygon fill="#181818" points="360,819.0234,350,823.0234,360,827.0234,356,823.0234" style="stroke:#181818;stroke-width:1.0;"/><line style="stroke:#181818;stroke-width:1.0;stroke-dasharray:2.0,2.0;" x1="354" x2="519" y1="823.0234" y2="823.0234"/><text fill="#000000" font-family="sans-serif" font-size="13" font-weight="bold" lengthAdjust="spacing" textLength="14" x="366" y="818.167">19</text><text fill="#000000" font-family="sans-serif" font-size="13" lengthAdjust="spacing" textLength="17" x="384" y="818.167">job</text><polygon fill="#181818" points="84,849.375,74,853.375,84,857.375,80,853.375" style="stroke:#181818;stroke-width:1.0;"/><line style="stroke:#181818;stroke-width:1.0;stroke-dasharray:2.0,2.0;" x1="78" x2="343" y1="853.375" y2="853.375"/><text fill="#000000" font-family="sans-serif" font-size="13" font-weight="bold" lengthAdjust="spacing" textLength="14" x="90" y="848.5186">20</text><text fill="#000000" font-family="sans-serif" font-size="13" lengthAdjust="spacing" textLength="158" x="108" y="848.5186">displays operation success</text><!--SRC=[fLLDR-8m4BtdLunwAI3r3-HGgMKFfIhR5T0Rbo4Pm2MnixRJBX8_ViU63JOaXMfzY_tUc-VvSCn6o0erbb0ggRArLYM1rJKbfZcfCDlWYgPsMn1eoYpALH42p1fpzIda2fPO64eIhAsITRaWdIItQv4JB9Mo2_KdmSmg3JTFTOaI9cHKhJCoC9SmHib1DFIU9kF-3Q21Xn_ZX0DOaOaAfOMR562e2IqzgyNRo6FUHjsGeP9Mgw8WxQ73sUJb13oXIXd1ZWGPZsasjbFXBidNY2awOCpbkS2lbuTPp7XNYwDgEfVHj-SyXpjdP8x2W3tmzJ5n6HGVV46VdWGEYp_WxfxJ0IaZDmQi0inpG6298wmXSzvkcrstc7d70audvIB_hibOnmM99Hq58ATG8v88FSos5PVre4Cvv6WnG7TfH2wcQ_Lf08l2im5btXZBb5mANQ8LNA1lcnlksJurfsv29_U-PmO3fcI-gNhzf0NG77ETUZyvNQ2MhgZzyxJx7enyxNQxwDiBid1B9wQm8ZkIXkSlSrP2MXEXhOCZP0l0vzm5TfK_DdH42r9xCSI_ExXXyAQZdkzHYQBeiE_d9pfoo-q69YEvBfTUwPfCH-CNbj9rVeVDU6JF_4R7FiRhus3GTD6vS3ifDiRZx5ozXurrmHYqh4jXFh0G-I43hR7-Bzvfm5PEKCQlmTyLxnI-Glamwj5xUhtcljly2vGs3q-BX7yXsX_c579XgWAt1bH5sZz-OEgCVw3xMOsVlxy0]--></g></svg>