<?xml version="1.0" encoding="UTF-8" standalone="no"?><svg xmlns="http://www.w3.org/2000/svg" xmlns:xlink="http://www.w3.org/1999/xlink" contentStyleType="text/css" height="821px" preserveAspectRatio="none" style="width:935px;height:821px;background:#FFFFFF;" version="1.1" viewBox="0 0 935 821" width="935px" zoomAndPan="magnify"><defs/><g><!--class Repositories--><g id="elem_Repositories"><rect codeLine="15" fill="#F1F1F1" height="118.4375" id="Repositories" rx="2.5" ry="2.5" style="stroke:#181818;stroke-width:0.5;" width="196" x="636" y="7"/><ellipse cx="690.25" cy="23" fill="#ADD1B2" rx="11" ry="11" style="stroke:#181818;stroke-width:1.0;"/><path d="M693.0156,18.875 Q693.1719,18.6563 693.3594,18.5469 Q693.5469,18.4375 693.7656,18.4375 Q694.1406,18.4375 694.375,18.7031 Q694.6094,18.9531 694.6094,19.5625 L694.6094,21.0156 Q694.6094,21.625 694.375,21.8906 Q694.1406,22.1563 693.7656,22.1563 Q693.4219,22.1563 693.2188,21.9531 Q693.0156,21.7656 692.9063,21.25 Q692.8594,20.8906 692.6719,20.7031 Q692.3438,20.3281 691.7344,20.1094 Q691.125,19.8906 690.5,19.8906 Q689.7344,19.8906 689.0938,20.2188 Q688.4688,20.5469 687.9688,21.2969 Q687.4844,22.0469 687.4844,23.0781 L687.4844,24.1719 Q687.4844,25.4063 688.375,26.2344 Q689.2656,27.0469 690.8594,27.0469 Q691.7969,27.0469 692.4531,26.7969 Q692.8438,26.6406 693.2656,26.2031 Q693.5313,25.9375 693.6719,25.8594 Q693.8281,25.7813 694.0313,25.7813 Q694.3594,25.7813 694.6094,26.0469 Q694.875,26.2969 694.875,26.6406 Q694.875,26.9844 694.5313,27.3906 Q694.0313,27.9688 693.2344,28.2969 Q692.1563,28.75 690.8594,28.75 Q689.3438,28.75 688.1406,28.125 Q687.1563,27.625 686.4688,26.5625 Q685.7813,25.4844 685.7813,24.2031 L685.7813,23.0469 Q685.7813,21.7188 686.3906,20.5781 Q687.0156,19.4219 688.1094,18.8125 Q689.2031,18.1875 690.4375,18.1875 Q691.1719,18.1875 691.8125,18.3594 Q692.4688,18.5156 693.0156,18.875 Z " fill="#000000"/><text fill="#000000" font-family="sans-serif" font-size="14" lengthAdjust="spacing" textLength="79" x="710.75" y="28.7285">Repositories</text><line style="stroke:#181818;stroke-width:0.5;" x1="637" x2="831" y1="39" y2="39"/><line style="stroke:#181818;stroke-width:0.5;" x1="637" x2="831" y1="47" y2="47"/><text fill="#000000" font-family="sans-serif" font-size="14" lengthAdjust="spacing" textLength="94" x="642" y="65.5332">-Repositories()</text><text fill="#000000" font-family="sans-serif" font-size="14" lengthAdjust="spacing" textLength="182" x="642" y="83.1426">+getInstance() : Repositories</text><text fill="#000000" font-family="sans-serif" font-size="14" lengthAdjust="spacing" textLength="184" x="642" y="100.752">+getCollaboratorRepository()</text><text fill="#000000" font-family="sans-serif" font-size="14" lengthAdjust="spacing" textLength="136" x="642" y="118.3613">+getJobRepository() :</text></g><!--class CollaboratorRepository--><g id="elem_CollaboratorRepository"><rect codeLine="22" fill="#F1F1F1" height="65.6094" id="CollaboratorRepository" rx="2.5" ry="2.5" style="stroke:#181818;stroke-width:0.5;" width="178" x="373" y="203"/><ellipse cx="388" cy="219" fill="#ADD1B2" rx="11" ry="11" style="stroke:#181818;stroke-width:1.0;"/><path d="M390.7656,214.875 Q390.9219,214.6563 391.1094,214.5469 Q391.2969,214.4375 391.5156,214.4375 Q391.8906,214.4375 392.125,214.7031 Q392.3594,214.9531 392.3594,215.5625 L392.3594,217.0156 Q392.3594,217.625 392.125,217.8906 Q391.8906,218.1563 391.5156,218.1563 Q391.1719,218.1563 390.9688,217.9531 Q390.7656,217.7656 390.6563,217.25 Q390.6094,216.8906 390.4219,216.7031 Q390.0938,216.3281 389.4844,216.1094 Q388.875,215.8906 388.25,215.8906 Q387.4844,215.8906 386.8438,216.2188 Q386.2188,216.5469 385.7188,217.2969 Q385.2344,218.0469 385.2344,219.0781 L385.2344,220.1719 Q385.2344,221.4063 386.125,222.2344 Q387.0156,223.0469 388.6094,223.0469 Q389.5469,223.0469 390.2031,222.7969 Q390.5938,222.6406 391.0156,222.2031 Q391.2813,221.9375 391.4219,221.8594 Q391.5781,221.7813 391.7813,221.7813 Q392.1094,221.7813 392.3594,222.0469 Q392.625,222.2969 392.625,222.6406 Q392.625,222.9844 392.2813,223.3906 Q391.7813,223.9688 390.9844,224.2969 Q389.9063,224.75 388.6094,224.75 Q387.0938,224.75 385.8906,224.125 Q384.9063,223.625 384.2188,222.5625 Q383.5313,221.4844 383.5313,220.2031 L383.5313,219.0469 Q383.5313,217.7188 384.1406,216.5781 Q384.7656,215.4219 385.8594,214.8125 Q386.9531,214.1875 388.1875,214.1875 Q388.9219,214.1875 389.5625,214.3594 Q390.2188,214.5156 390.7656,214.875 Z " fill="#000000"/><text fill="#000000" font-family="sans-serif" font-size="14" lengthAdjust="spacing" textLength="146" x="402" y="224.7285">CollaboratorRepository</text><line style="stroke:#181818;stroke-width:0.5;" x1="374" x2="550" y1="235" y2="235"/><line style="stroke:#181818;stroke-width:0.5;" x1="374" x2="550" y1="243" y2="243"/><text fill="#000000" font-family="sans-serif" font-size="14" lengthAdjust="spacing" textLength="158" x="379" y="261.5332">+getCollaborators(name)</text></g><!--class JobRepository--><g id="elem_JobRepository"><rect codeLine="26" fill="#F1F1F1" height="65.6094" id="JobRepository" rx="2.5" ry="2.5" style="stroke:#181818;stroke-width:0.5;" width="134" x="554" y="347"/><ellipse cx="574.4" cy="363" fill="#ADD1B2" rx="11" ry="11" style="stroke:#181818;stroke-width:1.0;"/><path d="M577.1656,358.875 Q577.3219,358.6563 577.5094,358.5469 Q577.6969,358.4375 577.9156,358.4375 Q578.2906,358.4375 578.525,358.7031 Q578.7594,358.9531 578.7594,359.5625 L578.7594,361.0156 Q578.7594,361.625 578.525,361.8906 Q578.2906,362.1563 577.9156,362.1563 Q577.5719,362.1563 577.3688,361.9531 Q577.1656,361.7656 577.0563,361.25 Q577.0094,360.8906 576.8219,360.7031 Q576.4938,360.3281 575.8844,360.1094 Q575.275,359.8906 574.65,359.8906 Q573.8844,359.8906 573.2438,360.2188 Q572.6188,360.5469 572.1188,361.2969 Q571.6344,362.0469 571.6344,363.0781 L571.6344,364.1719 Q571.6344,365.4063 572.525,366.2344 Q573.4156,367.0469 575.0094,367.0469 Q575.9469,367.0469 576.6031,366.7969 Q576.9938,366.6406 577.4156,366.2031 Q577.6813,365.9375 577.8219,365.8594 Q577.9781,365.7813 578.1813,365.7813 Q578.5094,365.7813 578.7594,366.0469 Q579.025,366.2969 579.025,366.6406 Q579.025,366.9844 578.6813,367.3906 Q578.1813,367.9688 577.3844,368.2969 Q576.3063,368.75 575.0094,368.75 Q573.4938,368.75 572.2906,368.125 Q571.3063,367.625 570.6188,366.5625 Q569.9313,365.4844 569.9313,364.2031 L569.9313,363.0469 Q569.9313,361.7188 570.5406,360.5781 Q571.1656,359.4219 572.2594,358.8125 Q573.3531,358.1875 574.5875,358.1875 Q575.3219,358.1875 575.9625,358.3594 Q576.6188,358.5156 577.1656,358.875 Z " fill="#000000"/><text fill="#000000" font-family="sans-serif" font-size="14" lengthAdjust="spacing" textLength="90" x="589.6" y="368.7285">JobRepository</text><line style="stroke:#181818;stroke-width:0.5;" x1="555" x2="687" y1="379" y2="379"/><line style="stroke:#181818;stroke-width:0.5;" x1="555" x2="687" y1="387" y2="387"/><text fill="#000000" font-family="sans-serif" font-size="14" lengthAdjust="spacing" textLength="122" x="560" y="405.5332">+getJobs(jobName)</text></g><!--class Job--><g id="elem_Job"><rect codeLine="30" fill="#F1F1F1" height="65.6094" id="Job" rx="2.5" ry="2.5" style="stroke:#181818;stroke-width:0.5;" width="72" x="399" y="749"/><ellipse cx="422.1" cy="765" fill="#ADD1B2" rx="11" ry="11" style="stroke:#181818;stroke-width:1.0;"/><path d="M424.8656,760.875 Q425.0219,760.6563 425.2094,760.5469 Q425.3969,760.4375 425.6156,760.4375 Q425.9906,760.4375 426.225,760.7031 Q426.4594,760.9531 426.4594,761.5625 L426.4594,763.0156 Q426.4594,763.625 426.225,763.8906 Q425.9906,764.1563 425.6156,764.1563 Q425.2719,764.1563 425.0688,763.9531 Q424.8656,763.7656 424.7563,763.25 Q424.7094,762.8906 424.5219,762.7031 Q424.1938,762.3281 423.5844,762.1094 Q422.975,761.8906 422.35,761.8906 Q421.5844,761.8906 420.9438,762.2188 Q420.3188,762.5469 419.8188,763.2969 Q419.3344,764.0469 419.3344,765.0781 L419.3344,766.1719 Q419.3344,767.4063 420.225,768.2344 Q421.1156,769.0469 422.7094,769.0469 Q423.6469,769.0469 424.3031,768.7969 Q424.6938,768.6406 425.1156,768.2031 Q425.3813,767.9375 425.5219,767.8594 Q425.6781,767.7813 425.8813,767.7813 Q426.2094,767.7813 426.4594,768.0469 Q426.725,768.2969 426.725,768.6406 Q426.725,768.9844 426.3813,769.3906 Q425.8813,769.9688 425.0844,770.2969 Q424.0063,770.75 422.7094,770.75 Q421.1938,770.75 419.9906,770.125 Q419.0063,769.625 418.3188,768.5625 Q417.6313,767.4844 417.6313,766.2031 L417.6313,765.0469 Q417.6313,763.7188 418.2406,762.5781 Q418.8656,761.4219 419.9594,760.8125 Q421.0531,760.1875 422.2875,760.1875 Q423.0219,760.1875 423.6625,760.3594 Q424.3188,760.5156 424.8656,760.875 Z " fill="#000000"/><text fill="#000000" font-family="sans-serif" font-size="14" lengthAdjust="spacing" textLength="22" x="437.9" y="770.7285">Job</text><line style="stroke:#181818;stroke-width:0.5;" x1="400" x2="470" y1="781" y2="781"/><text fill="#000000" font-family="sans-serif" font-size="14" lengthAdjust="spacing" textLength="60" x="405" y="799.5332">-jobName</text><line style="stroke:#181818;stroke-width:0.5;" x1="400" x2="470" y1="806.6094" y2="806.6094"/></g><!--class AssignJobController--><g id="elem_AssignJobController"><rect codeLine="33" fill="#F1F1F1" height="100.8281" id="AssignJobController" rx="2.5" ry="2.5" style="stroke:#181818;stroke-width:0.5;" width="382" x="150" y="15.5"/><ellipse cx="273.75" cy="31.5" fill="#ADD1B2" rx="11" ry="11" style="stroke:#181818;stroke-width:1.0;"/><path d="M276.5156,27.375 Q276.6719,27.1563 276.8594,27.0469 Q277.0469,26.9375 277.2656,26.9375 Q277.6406,26.9375 277.875,27.2031 Q278.1094,27.4531 278.1094,28.0625 L278.1094,29.5156 Q278.1094,30.125 277.875,30.3906 Q277.6406,30.6563 277.2656,30.6563 Q276.9219,30.6563 276.7188,30.4531 Q276.5156,30.2656 276.4063,29.75 Q276.3594,29.3906 276.1719,29.2031 Q275.8438,28.8281 275.2344,28.6094 Q274.625,28.3906 274,28.3906 Q273.2344,28.3906 272.5938,28.7188 Q271.9688,29.0469 271.4688,29.7969 Q270.9844,30.5469 270.9844,31.5781 L270.9844,32.6719 Q270.9844,33.9063 271.875,34.7344 Q272.7656,35.5469 274.3594,35.5469 Q275.2969,35.5469 275.9531,35.2969 Q276.3438,35.1406 276.7656,34.7031 Q277.0313,34.4375 277.1719,34.3594 Q277.3281,34.2813 277.5313,34.2813 Q277.8594,34.2813 278.1094,34.5469 Q278.375,34.7969 278.375,35.1406 Q278.375,35.4844 278.0313,35.8906 Q277.5313,36.4688 276.7344,36.7969 Q275.6563,37.25 274.3594,37.25 Q272.8438,37.25 271.6406,36.625 Q270.6563,36.125 269.9688,35.0625 Q269.2813,33.9844 269.2813,32.7031 L269.2813,31.5469 Q269.2813,30.2188 269.8906,29.0781 Q270.5156,27.9219 271.6094,27.3125 Q272.7031,26.6875 273.9375,26.6875 Q274.6719,26.6875 275.3125,26.8594 Q275.9688,27.0156 276.5156,27.375 Z " fill="#000000"/><text fill="#000000" font-family="sans-serif" font-size="14" lengthAdjust="spacing" textLength="126" x="294.25" y="37.2285">AssignJobController</text><line style="stroke:#181818;stroke-width:0.5;" x1="151" x2="531" y1="47.5" y2="47.5"/><line style="stroke:#181818;stroke-width:0.5;" x1="151" x2="531" y1="55.5" y2="55.5"/><text fill="#000000" font-family="sans-serif" font-size="14" lengthAdjust="spacing" textLength="370" x="156" y="74.0332">AssignJobController(collaboratorRepository,jobRepository)</text><text fill="#000000" font-family="sans-serif" font-size="14" lengthAdjust="spacing" textLength="123" x="156" y="91.6426">+getCollaborators()</text><text fill="#000000" font-family="sans-serif" font-size="14" lengthAdjust="spacing" textLength="127" x="156" y="109.252">+getJobs((jobName)</text></g><!--class Collaborator--><g id="elem_Collaborator"><rect codeLine="39" fill="#F1F1F1" height="118.4375" id="Collaborator" rx="2.5" ry="2.5" style="stroke:#181818;stroke-width:0.5;" width="266" x="302" y="491"/><ellipse cx="391.75" cy="507" fill="#ADD1B2" rx="11" ry="11" style="stroke:#181818;stroke-width:1.0;"/><path d="M394.5156,502.875 Q394.6719,502.6563 394.8594,502.5469 Q395.0469,502.4375 395.2656,502.4375 Q395.6406,502.4375 395.875,502.7031 Q396.1094,502.9531 396.1094,503.5625 L396.1094,505.0156 Q396.1094,505.625 395.875,505.8906 Q395.6406,506.1563 395.2656,506.1563 Q394.9219,506.1563 394.7188,505.9531 Q394.5156,505.7656 394.4063,505.25 Q394.3594,504.8906 394.1719,504.7031 Q393.8438,504.3281 393.2344,504.1094 Q392.625,503.8906 392,503.8906 Q391.2344,503.8906 390.5938,504.2188 Q389.9688,504.5469 389.4688,505.2969 Q388.9844,506.0469 388.9844,507.0781 L388.9844,508.1719 Q388.9844,509.4063 389.875,510.2344 Q390.7656,511.0469 392.3594,511.0469 Q393.2969,511.0469 393.9531,510.7969 Q394.3438,510.6406 394.7656,510.2031 Q395.0313,509.9375 395.1719,509.8594 Q395.3281,509.7813 395.5313,509.7813 Q395.8594,509.7813 396.1094,510.0469 Q396.375,510.2969 396.375,510.6406 Q396.375,510.9844 396.0313,511.3906 Q395.5313,511.9688 394.7344,512.2969 Q393.6563,512.75 392.3594,512.75 Q390.8438,512.75 389.6406,512.125 Q388.6563,511.625 387.9688,510.5625 Q387.2813,509.4844 387.2813,508.2031 L387.2813,507.0469 Q387.2813,505.7188 387.8906,504.5781 Q388.5156,503.4219 389.6094,502.8125 Q390.7031,502.1875 391.9375,502.1875 Q392.6719,502.1875 393.3125,502.3594 Q393.9688,502.5156 394.5156,502.875 Z " fill="#000000"/><text fill="#000000" font-family="sans-serif" font-size="14" lengthAdjust="spacing" textLength="78" x="412.25" y="512.7285">Collaborator</text><line style="stroke:#181818;stroke-width:0.5;" x1="303" x2="567" y1="523" y2="523"/><text fill="#000000" font-family="sans-serif" font-size="14" lengthAdjust="spacing" textLength="40" x="308" y="541.5332">-name</text><text fill="#000000" font-family="sans-serif" font-size="14" lengthAdjust="spacing" textLength="110" x="308" y="559.1426">-List&lt;Job&gt; jobList</text><line style="stroke:#181818;stroke-width:0.5;" x1="303" x2="567" y1="566.2188" y2="566.2188"/><text fill="#000000" font-family="sans-serif" font-size="14" lengthAdjust="spacing" textLength="254" x="308" y="584.752">+createJob(collaboratorName, jobName)</text><text fill="#000000" font-family="sans-serif" font-size="14" lengthAdjust="spacing" textLength="144" x="308" y="602.3613">+validateJob(jobName)</text></g><!--class AssignJobUI--><g id="elem_AssignJobUI"><rect fill="#F1F1F1" height="48" id="AssignJobUI" rx="2.5" ry="2.5" style="stroke:#181818;stroke-width:0.5;" width="108" x="7" y="42"/><ellipse cx="22" cy="58" fill="#ADD1B2" rx="11" ry="11" style="stroke:#181818;stroke-width:1.0;"/><path d="M24.7656,53.875 Q24.9219,53.6563 25.1094,53.5469 Q25.2969,53.4375 25.5156,53.4375 Q25.8906,53.4375 26.125,53.7031 Q26.3594,53.9531 26.3594,54.5625 L26.3594,56.0156 Q26.3594,56.625 26.125,56.8906 Q25.8906,57.1563 25.5156,57.1563 Q25.1719,57.1563 24.9688,56.9531 Q24.7656,56.7656 24.6563,56.25 Q24.6094,55.8906 24.4219,55.7031 Q24.0938,55.3281 23.4844,55.1094 Q22.875,54.8906 22.25,54.8906 Q21.4844,54.8906 20.8438,55.2188 Q20.2188,55.5469 19.7188,56.2969 Q19.2344,57.0469 19.2344,58.0781 L19.2344,59.1719 Q19.2344,60.4063 20.125,61.2344 Q21.0156,62.0469 22.6094,62.0469 Q23.5469,62.0469 24.2031,61.7969 Q24.5938,61.6406 25.0156,61.2031 Q25.2813,60.9375 25.4219,60.8594 Q25.5781,60.7813 25.7813,60.7813 Q26.1094,60.7813 26.3594,61.0469 Q26.625,61.2969 26.625,61.6406 Q26.625,61.9844 26.2813,62.3906 Q25.7813,62.9688 24.9844,63.2969 Q23.9063,63.75 22.6094,63.75 Q21.0938,63.75 19.8906,63.125 Q18.9063,62.625 18.2188,61.5625 Q17.5313,60.4844 17.5313,59.2031 L17.5313,58.0469 Q17.5313,56.7188 18.1406,55.5781 Q18.7656,54.4219 19.8594,53.8125 Q20.9531,53.1875 22.1875,53.1875 Q22.9219,53.1875 23.5625,53.3594 Q24.2188,53.5156 24.7656,53.875 Z " fill="#000000"/><text fill="#000000" font-family="sans-serif" font-size="14" lengthAdjust="spacing" textLength="76" x="36" y="63.7285">AssignJobUI</text><line style="stroke:#181818;stroke-width:0.5;" x1="8" x2="114" y1="74" y2="74"/><line style="stroke:#181818;stroke-width:0.5;" x1="8" x2="114" y1="82" y2="82"/></g><!--link AssignJobUI to AssignJobController--><g id="link_AssignJobUI_AssignJobController"><path codeLine="48" d="M115.02,66 C126.36,66 137.1,66 144.49,66 " fill="none" id="AssignJobUI-to-AssignJobController" style="stroke:#181818;stroke-width:1.0;stroke-dasharray:7.0,7.0;"/><polygon fill="#181818" points="149.83,66,140.83,62,144.83,66,140.83,70,149.83,66" style="stroke:#181818;stroke-width:1.0;"/></g><!--link AssignJobController to Repositories--><g id="link_AssignJobController_Repositories"><path codeLine="49" d="M532.03,66 C566.02,66 600.22,66 630.57,66 " fill="none" id="AssignJobController-to-Repositories" style="stroke:#181818;stroke-width:1.0;stroke-dasharray:7.0,7.0;"/><polygon fill="#181818" points="635.8,66,626.8,62,630.8,66,626.8,70,635.8,66" style="stroke:#181818;stroke-width:1.0;"/><text fill="#000000" font-family="sans-serif" font-size="13" lengthAdjust="spacing" textLength="67" x="550.5" y="59.4951">repositories</text></g><!--link Repositories to JobRepository--><g id="link_Repositories_JobRepository"><path codeLine="50" d="M727.09,125.16 C720,184.83 710,269 710,269 C710,269 676.34,310.6 650.42,342.64 " fill="none" id="Repositories-to-JobRepository" style="stroke:#181818;stroke-width:1.0;"/><polygon fill="#181818" points="646.98,346.89,655.7499,342.4079,650.1243,343.0024,649.5298,337.3769,646.98,346.89" style="stroke:#181818;stroke-width:1.0;"/><text fill="#000000" font-family="sans-serif" font-size="13" lengthAdjust="spacing" textLength="7" x="644.6165" y="335.9827">1</text></g><!--link Repositories to CollaboratorRepository--><g id="link_Repositories_CollaboratorRepository"><path codeLine="51" d="M640.01,125.05 C599.6,150.01 553.7,178.36 518.63,200.02 " fill="none" id="Repositories-to-CollaboratorRepository" style="stroke:#181818;stroke-width:1.0;"/><polygon fill="#181818" points="513.97,202.9,523.7325,201.5989,518.2307,200.2835,519.5461,194.7817,513.97,202.9" style="stroke:#181818;stroke-width:1.0;"/><text fill="#000000" font-family="sans-serif" font-size="13" lengthAdjust="spacing" textLength="7" x="516.9669" y="191.9948">1</text></g><!--link Repositories to Repositories--><g id="link_Repositories_Repositories"><path codeLine="52" d="M832.02,48.27 C852.37,50.14 867,56.05 867,66 C867,75.1 854.77,80.82 837.13,83.16 " fill="none" id="Repositories-to-Repositories" style="stroke:#181818;stroke-width:1.0;"/><polygon fill="#181818" points="832.02,83.73,841.4104,86.6998,836.9887,83.1716,840.5169,78.7498,832.02,83.73" style="stroke:#181818;stroke-width:1.0;"/><text fill="#000000" font-family="sans-serif" font-size="13" lengthAdjust="spacing" textLength="49" x="873" y="71.4951">instance</text></g><!--link JobRepository to Job--><g id="link_JobRepository_Job"><path codeLine="54" d="M616.06,413.18 C606.41,476.03 586,609 586,609 C586,609 511.1,694.32 466.8,744.78 " fill="none" id="JobRepository-to-Job" style="stroke:#181818;stroke-width:1.0;"/><polygon fill="#181818" points="463.4,748.65,472.3446,744.5276,466.6996,744.8933,466.3339,739.2483,463.4,748.65" style="stroke:#181818;stroke-width:1.0;"/><text fill="#000000" font-family="sans-serif" font-size="13" lengthAdjust="spacing" textLength="5" x="463.4991" y="738.0774">*</text></g><!--link CollaboratorRepository to Collaborator--><g id="link_CollaboratorRepository_Collaborator"><path codeLine="55" d="M459.21,269.21 C454.81,320.12 446.15,420.12 440.47,485.74 " fill="none" id="CollaboratorRepository-to-Collaborator" style="stroke:#181818;stroke-width:1.0;"/><polygon fill="#181818" points="440.04,490.8,444.7961,482.1756,440.4682,485.8184,436.8255,481.4905,440.04,490.8" style="stroke:#181818;stroke-width:1.0;"/><text fill="#000000" font-family="sans-serif" font-size="13" lengthAdjust="spacing" textLength="5" x="435.3496" y="480.0999">*</text></g><!--link AssignJobController to Collaborator--><g id="link_AssignJobController_Collaborator"><path codeLine="57" d="M344.69,116.67 C349.13,176.48 356,269 356,269 C356,269 393.96,403.56 417.26,486.11 " fill="none" id="AssignJobController-to-Collaborator" style="stroke:#181818;stroke-width:1.0;stroke-dasharray:7.0,7.0;"/><polygon fill="#181818" points="418.63,490.98,420.038,481.2323,417.2734,486.1676,412.3381,483.4029,418.63,490.98" style="stroke:#181818;stroke-width:1.0;"/><text fill="#000000" font-family="sans-serif" font-size="13" lengthAdjust="spacing" textLength="67" x="370" y="313.4951">collaborator</text><text fill="#000000" font-family="sans-serif" font-size="13" lengthAdjust="spacing" textLength="7" x="409.2083" y="480.3018">1</text></g><!--link AssignJobController to Job--><g id="link_AssignJobController_Job"><path codeLine="58" d="M313.65,116.95 C286.53,166.47 249,235 249,235 C249,235 249,235 249,680 C249,680 339.41,729.09 394.17,758.83 " fill="none" id="AssignJobController-to-Job" style="stroke:#181818;stroke-width:1.0;stroke-dasharray:7.0,7.0;"/><polygon fill="#181818" points="398.7,761.29,392.6948,753.4838,394.3045,758.9067,388.8816,760.5165,398.7,761.29" style="stroke:#181818;stroke-width:1.0;"/><text fill="#000000" font-family="sans-serif" font-size="13" lengthAdjust="spacing" textLength="17" x="250" y="457.4951">job</text><text fill="#000000" font-family="sans-serif" font-size="13" lengthAdjust="spacing" textLength="7" x="384.1131" y="753.383">1</text></g><!--link Collaborator to Job--><g id="link_Collaborator_Job"><path codeLine="59" d="M435,609.04 C435,651.28 435,707.23 435,743.66 " fill="none" id="Collaborator-to-Job" style="stroke:#181818;stroke-width:1.0;"/><polygon fill="#181818" points="435,748.89,439,739.89,435,743.89,431,739.89,435,748.89" style="stroke:#181818;stroke-width:1.0;"/><text fill="#000000" font-family="sans-serif" font-size="13" lengthAdjust="spacing" textLength="21" x="436" y="684.4951">has</text><text fill="#000000" font-family="sans-serif" font-size="13" lengthAdjust="spacing" textLength="7" x="427.5516" y="631.1191">1</text><text fill="#000000" font-family="sans-serif" font-size="13" lengthAdjust="spacing" textLength="5" x="429.4844" y="737.9827">*</text></g><!--link AssignJobController to CollaboratorRepository--><g id="link_AssignJobController_CollaboratorRepository"><path codeLine="60" d="M376.98,116.95 C395.94,143.28 418.78,174.99 436.01,198.91 " fill="none" id="AssignJobController-to-CollaboratorRepository" style="stroke:#181818;stroke-width:1.0;stroke-dasharray:7.0,7.0;"/><polygon fill="#181818" points="438.94,202.98,436.9158,193.3414,436.0136,198.9259,430.4291,198.0237,438.94,202.98" style="stroke:#181818;stroke-width:1.0;"/><text fill="#000000" font-family="sans-serif" font-size="13" lengthAdjust="spacing" textLength="129" x="416" y="169.4951">collaboratorRepository</text><text fill="#000000" font-family="sans-serif" font-size="13" lengthAdjust="spacing" textLength="7" x="426.462" y="192.0913">1</text></g><!--link AssignJobController to JobRepository--><g id="link_AssignJobController_JobRepository"><path codeLine="61" d="M460.88,116.53 C509.32,136.54 554,155 554,155 C554,155 569,203 569,203 C569,203 594.76,290.19 610.02,341.84 " fill="none" id="AssignJobController-to-JobRepository" style="stroke:#181818;stroke-width:1.0;stroke-dasharray:7.0,7.0;"/><polygon fill="#181818" points="611.46,346.72,612.7453,336.9554,610.043,341.925,605.0733,339.2226,611.46,346.72" style="stroke:#181818;stroke-width:1.0;"/><text fill="#000000" font-family="sans-serif" font-size="13" lengthAdjust="spacing" textLength="79" x="589" y="241.4951">jobRepository</text><text fill="#000000" font-family="sans-serif" font-size="13" lengthAdjust="spacing" textLength="7" x="601.8928" y="336.1612">1</text></g><!--SRC=[VL9DRy8m3BtdLrXSQ0TCsnLDI8WJqxJ3q7v0MamR276LX4qCxRyl_OAKfiifyNlFVdOyDWUX2gxv4OwaACqr7H6iFY6x8GLF3pp3ZJrB18sfvIgJFi7aV4lVGcMmuzBuY1GAxRb0A4YUomSR1q3IbfYdIYKtPccj5id9uZebjH4_24-CZINkB5W2BRBSmbQKTWGfLfrA1nzOa16Mj4035mRkp3h1AAw24yZGhfLnxQGOnJ3la6wK5Kd94zBS0LV6sK_oIeaFm9pzjcR2uiPMBxs953zYV9DtClig1vXeJybxZzzqt60Egf6bCI9J3b-HijhLH7rXWM2K1XrFzxwJc4rwpkjOvIjWpEUsVrBssbpVXB4lJhi09oqVJQUfHcxH0HrRPUufN8lKr2yknROX-_NPhSlFDJmkGfC83QAaTbPfxdRVsuyEDfijOFGywlvNc1BUY3jkhxHezfInxafKMH-gmcnWrrgA3xDmn-xqJRhg_l07bQtM8KwolpDKGPvRHycv6KZstwJkx7WZ730M-9dQdoVz0m00]--></g></svg>