<?xml version="1.0" encoding="UTF-8" standalone="no"?><svg xmlns="http://www.w3.org/2000/svg" xmlns:xlink="http://www.w3.org/1999/xlink" contentStyleType="text/css" height="1393px" preserveAspectRatio="none" style="width:1762px;height:1393px;background:#FFFFFF;" version="1.1" viewBox="0 0 1762 1393" width="1762px" zoomAndPan="magnify"><defs/><g><rect fill="#FFFFFF" height="1174.7266" style="stroke:#181818;stroke-width:1.0;" width="10" x="63" y="110.2188"/><rect fill="#FFFFFF" height="30.3516" style="stroke:#181818;stroke-width:1.0;" width="10" x="339" y="132.5703"/><rect fill="#FFFFFF" height="30.3516" style="stroke:#181818;stroke-width:1.0;" width="10" x="339" y="193.2734"/><rect fill="#FFFFFF" height="1021.9688" style="stroke:#181818;stroke-width:1.0;" width="10" x="339" y="253.9766"/><rect fill="#FFFFFF" height="918.6563" style="stroke:#181818;stroke-width:1.0;" width="10" x="515" y="326.9375"/><rect fill="#FFFFFF" height="498.625" style="stroke:#181818;stroke-width:1.0;" width="10" x="520" y="390.2891"/><rect fill="#FFFFFF" height="30.3516" style="stroke:#181818;stroke-width:1.0;" width="10" x="707" y="607.75"/><rect fill="#FFFFFF" height="30.3516" style="stroke:#181818;stroke-width:1.0;" width="10" x="814" y="668.4531"/><rect fill="#FFFFFF" height="30.3516" style="stroke:#181818;stroke-width:1.0;" width="10" x="941" y="425.6406"/><rect fill="#FFFFFF" height="30.3516" style="stroke:#181818;stroke-width:1.0;" width="10" x="1088" y="486.3438"/><rect fill="#FFFFFF" height="30.3516" style="stroke:#181818;stroke-width:1.0;" width="10" x="1221" y="547.0469"/><rect fill="#FFFFFF" height="123.4063" style="stroke:#181818;stroke-width:1.0;" width="10" x="1367" y="729.1563"/><rect fill="#FFFFFF" height="30.3516" style="stroke:#181818;stroke-width:1.0;" width="10" x="1588" y="784.8594"/><rect fill="#FFFFFF" height="263.9766" style="stroke:#181818;stroke-width:1.0;" width="10" x="1588" y="951.2656"/><rect fill="#FFFFFF" height="128.0547" style="stroke:#181818;stroke-width:1.0;" width="10" x="1593" y="1049.8359"/><rect fill="#FFFFFF" height="41.3516" style="stroke:#181818;stroke-width:1.0;" width="10" x="1598" y="1093.1875"/><rect fill="none" height="79.0547" style="stroke:#000000;stroke-width:1.5;" width="371.5" x="1280.5" y="744.1563"/><line style="stroke:#181818;stroke-width:0.5;stroke-dasharray:5.0,5.0;" x1="68" x2="68" y1="100.2188" y2="1293.9453"/><line style="stroke:#181818;stroke-width:0.5;stroke-dasharray:5.0,5.0;" x1="344" x2="344" y1="100.2188" y2="1293.9453"/><line style="stroke:#181818;stroke-width:0.5;stroke-dasharray:5.0,5.0;" x1="520" x2="520" y1="293.2813" y2="1293.9453"/><line style="stroke:#181818;stroke-width:0.5;stroke-dasharray:5.0,5.0;" x1="711.5" x2="711.5" y1="100.2188" y2="1293.9453"/><line style="stroke:#181818;stroke-width:0.5;stroke-dasharray:5.0,5.0;" x1="818.5" x2="818.5" y1="100.2188" y2="1293.9453"/><line style="stroke:#181818;stroke-width:0.5;stroke-dasharray:5.0,5.0;" x1="945.5" x2="945.5" y1="100.2188" y2="1293.9453"/><line style="stroke:#181818;stroke-width:0.5;stroke-dasharray:5.0,5.0;" x1="1092.5" x2="1092.5" y1="100.2188" y2="1293.9453"/><line style="stroke:#181818;stroke-width:0.5;stroke-dasharray:5.0,5.0;" x1="1225.5" x2="1225.5" y1="100.2188" y2="1293.9453"/><line style="stroke:#181818;stroke-width:0.5;stroke-dasharray:5.0,5.0;" x1="1371.5" x2="1371.5" y1="100.2188" y2="1293.9453"/><line style="stroke:#181818;stroke-width:0.5;stroke-dasharray:5.0,5.0;" x1="1593" x2="1593" y1="100.2188" y2="1293.9453"/><line style="stroke:#181818;stroke-width:0.5;stroke-dasharray:5.0,5.0;" x1="1736" x2="1736" y1="999.375" y2="1293.9453"/><text fill="#000000" font-family="sans-serif" font-size="14" lengthAdjust="spacing" textLength="116" x="5" y="79.5332">Human Resources</text><text fill="#000000" font-family="sans-serif" font-size="14" lengthAdjust="spacing" textLength="100" x="17" y="97.1426">Manager (HRM)</text><ellipse cx="68" cy="13.5" fill="#E3E3E3" rx="8" ry="8" style="stroke:#181818;stroke-width:0.5;"/><path d="M68,21.5 L68,48.5 M55,29.5 L81,29.5 M68,48.5 L55,63.5 M68,48.5 L81,63.5 " fill="none" style="stroke:#181818;stroke-width:0.5;"/><text fill="#000000" font-family="sans-serif" font-size="14" lengthAdjust="spacing" textLength="116" x="5" y="1307.4785">Human Resources</text><text fill="#000000" font-family="sans-serif" font-size="14" lengthAdjust="spacing" textLength="100" x="17" y="1325.0879">Manager (HRM)</text><ellipse cx="68" cy="1336.6641" fill="#E3E3E3" rx="8" ry="8" style="stroke:#181818;stroke-width:0.5;"/><path d="M68,1344.6641 L68,1371.6641 M55,1352.6641 L81,1352.6641 M68,1371.6641 L55,1386.6641 M68,1371.6641 L81,1386.6641 " fill="none" style="stroke:#181818;stroke-width:0.5;"/><rect fill="#E3E3E3" height="31.6094" rx="2.5" ry="2.5" style="stroke:#181818;stroke-width:0.5;" width="102" x="293" y="67.6094"/><text fill="#000000" font-family="sans-serif" font-size="14" lengthAdjust="spacing" textLength="88" x="300" y="89.1426">:  AssignJobUI</text><rect fill="#E3E3E3" height="31.6094" rx="2.5" ry="2.5" style="stroke:#181818;stroke-width:0.5;" width="102" x="293" y="1292.9453"/><text fill="#000000" font-family="sans-serif" font-size="14" lengthAdjust="spacing" textLength="88" x="300" y="1314.4785">:  AssignJobUI</text><rect fill="#E3E3E3" height="31.6094" rx="2.5" ry="2.5" style="stroke:#181818;stroke-width:0.5;" width="152" x="444" y="1292.9453"/><text fill="#000000" font-family="sans-serif" font-size="14" lengthAdjust="spacing" textLength="138" x="451" y="1314.4785">:  AssignJobController</text><rect fill="#E3E3E3" height="31.6094" rx="2.5" ry="2.5" style="stroke:#181818;stroke-width:0.5;" width="97" x="663.5" y="67.6094"/><text fill="#000000" font-family="sans-serif" font-size="14" lengthAdjust="spacing" textLength="83" x="670.5" y="89.1426">:Repositories</text><rect fill="#E3E3E3" height="31.6094" rx="2.5" ry="2.5" style="stroke:#181818;stroke-width:0.5;" width="97" x="663.5" y="1292.9453"/><text fill="#000000" font-family="sans-serif" font-size="14" lengthAdjust="spacing" textLength="83" x="670.5" y="1314.4785">:Repositories</text><rect fill="#E3E3E3" height="49.2188" rx="2.5" ry="2.5" style="stroke:#181818;stroke-width:0.5;" width="97" x="770.5" y="50"/><text fill="#000000" font-family="sans-serif" font-size="14" lengthAdjust="spacing" textLength="74" x="782" y="71.5332">repositories</text><text fill="#000000" font-family="sans-serif" font-size="14" lengthAdjust="spacing" textLength="83" x="777.5" y="89.1426">:Repositories</text><rect fill="#E3E3E3" height="49.2188" rx="2.5" ry="2.5" style="stroke:#181818;stroke-width:0.5;" width="97" x="770.5" y="1292.9453"/><text fill="#000000" font-family="sans-serif" font-size="14" lengthAdjust="spacing" textLength="74" x="782" y="1314.4785">repositories</text><text fill="#000000" font-family="sans-serif" font-size="14" lengthAdjust="spacing" textLength="83" x="777.5" y="1332.0879">:Repositories</text><rect fill="#E3E3E3" height="31.6094" rx="2.5" ry="2.5" style="stroke:#181818;stroke-width:0.5;" width="137" x="877.5" y="67.6094"/><text fill="#000000" font-family="sans-serif" font-size="14" lengthAdjust="spacing" textLength="123" x="884.5" y="89.1426">:ApplicationSession</text><rect fill="#E3E3E3" height="31.6094" rx="2.5" ry="2.5" style="stroke:#181818;stroke-width:0.5;" width="137" x="877.5" y="1292.9453"/><text fill="#000000" font-family="sans-serif" font-size="14" lengthAdjust="spacing" textLength="123" x="884.5" y="1314.4785">:ApplicationSession</text><rect fill="#E3E3E3" height="49.2188" rx="2.5" ry="2.5" style="stroke:#181818;stroke-width:0.5;" width="137" x="1024.5" y="50"/><text fill="#000000" font-family="sans-serif" font-size="14" lengthAdjust="spacing" textLength="74" x="1056" y="71.5332">appSession</text><text fill="#000000" font-family="sans-serif" font-size="14" lengthAdjust="spacing" textLength="123" x="1031.5" y="89.1426">:ApplicationSession</text><rect fill="#E3E3E3" height="49.2188" rx="2.5" ry="2.5" style="stroke:#181818;stroke-width:0.5;" width="137" x="1024.5" y="1292.9453"/><text fill="#000000" font-family="sans-serif" font-size="14" lengthAdjust="spacing" textLength="74" x="1056" y="1314.4785">appSession</text><text fill="#000000" font-family="sans-serif" font-size="14" lengthAdjust="spacing" textLength="123" x="1031.5" y="1332.0879">:ApplicationSession</text><rect fill="#E3E3E3" height="49.2188" rx="2.5" ry="2.5" style="stroke:#181818;stroke-width:0.5;" width="109" x="1171.5" y="50"/><text fill="#000000" font-family="sans-serif" font-size="14" lengthAdjust="spacing" textLength="95" x="1178.5" y="71.5332">currentSession</text><text fill="#000000" font-family="sans-serif" font-size="14" lengthAdjust="spacing" textLength="83" x="1184.5" y="89.1426">:UserSession</text><rect fill="#E3E3E3" height="49.2188" rx="2.5" ry="2.5" style="stroke:#181818;stroke-width:0.5;" width="109" x="1171.5" y="1292.9453"/><text fill="#000000" font-family="sans-serif" font-size="14" lengthAdjust="spacing" textLength="95" x="1178.5" y="1314.4785">currentSession</text><text fill="#000000" font-family="sans-serif" font-size="14" lengthAdjust="spacing" textLength="83" x="1184.5" y="1332.0879">:UserSession</text><rect fill="#E3E3E3" height="49.2188" rx="2.5" ry="2.5" style="stroke:#181818;stroke-width:0.5;" width="163" x="1290.5" y="50"/><text fill="#000000" font-family="sans-serif" font-size="14" lengthAdjust="spacing" textLength="149" x="1297.5" y="71.5332">organizationRepository:</text><text fill="#000000" font-family="sans-serif" font-size="14" lengthAdjust="spacing" textLength="148" x="1298" y="89.1426">OrganizationRepository</text><rect fill="#E3E3E3" height="49.2188" rx="2.5" ry="2.5" style="stroke:#181818;stroke-width:0.5;" width="163" x="1290.5" y="1292.9453"/><text fill="#000000" font-family="sans-serif" font-size="14" lengthAdjust="spacing" textLength="149" x="1297.5" y="1314.4785">organizationRepository:</text><text fill="#000000" font-family="sans-serif" font-size="14" lengthAdjust="spacing" textLength="148" x="1298" y="1332.0879">OrganizationRepository</text><rect fill="#E3E3E3" height="49.2188" rx="2.5" ry="2.5" style="stroke:#181818;stroke-width:0.5;" width="98" x="1544" y="50"/><text fill="#000000" font-family="sans-serif" font-size="14" lengthAdjust="spacing" textLength="77" x="1554.5" y="71.5332">organization</text><text fill="#000000" font-family="sans-serif" font-size="14" lengthAdjust="spacing" textLength="84" x="1551" y="89.1426">:Organization</text><rect fill="#E3E3E3" height="49.2188" rx="2.5" ry="2.5" style="stroke:#181818;stroke-width:0.5;" width="98" x="1544" y="1292.9453"/><text fill="#000000" font-family="sans-serif" font-size="14" lengthAdjust="spacing" textLength="77" x="1554.5" y="1314.4785">organization</text><text fill="#000000" font-family="sans-serif" font-size="14" lengthAdjust="spacing" textLength="84" x="1551" y="1332.0879">:Organization</text><rect fill="#E3E3E3" height="49.2188" rx="2.5" ry="2.5" style="stroke:#181818;stroke-width:0.5;" width="40" x="1716" y="1292.9453"/><text fill="#000000" font-family="sans-serif" font-size="14" lengthAdjust="spacing" textLength="19" x="1726.5" y="1314.4785">job</text><text fill="#000000" font-family="sans-serif" font-size="14" lengthAdjust="spacing" textLength="26" x="1723" y="1332.0879">:Job</text><rect fill="#FFFFFF" height="1174.7266" style="stroke:#181818;stroke-width:1.0;" width="10" x="63" y="110.2188"/><rect fill="#FFFFFF" height="30.3516" style="stroke:#181818;stroke-width:1.0;" width="10" x="339" y="132.5703"/><rect fill="#FFFFFF" height="30.3516" style="stroke:#181818;stroke-width:1.0;" width="10" x="339" y="193.2734"/><rect fill="#FFFFFF" height="1021.9688" style="stroke:#181818;stroke-width:1.0;" width="10" x="339" y="253.9766"/><rect fill="#FFFFFF" height="918.6563" style="stroke:#181818;stroke-width:1.0;" width="10" x="515" y="326.9375"/><rect fill="#FFFFFF" height="498.625" style="stroke:#181818;stroke-width:1.0;" width="10" x="520" y="390.2891"/><rect fill="#FFFFFF" height="30.3516" style="stroke:#181818;stroke-width:1.0;" width="10" x="707" y="607.75"/><rect fill="#FFFFFF" height="30.3516" style="stroke:#181818;stroke-width:1.0;" width="10" x="814" y="668.4531"/><rect fill="#FFFFFF" height="30.3516" style="stroke:#181818;stroke-width:1.0;" width="10" x="941" y="425.6406"/><rect fill="#FFFFFF" height="30.3516" style="stroke:#181818;stroke-width:1.0;" width="10" x="1088" y="486.3438"/><rect fill="#FFFFFF" height="30.3516" style="stroke:#181818;stroke-width:1.0;" width="10" x="1221" y="547.0469"/><rect fill="#FFFFFF" height="123.4063" style="stroke:#181818;stroke-width:1.0;" width="10" x="1367" y="729.1563"/><rect fill="#FFFFFF" height="30.3516" style="stroke:#181818;stroke-width:1.0;" width="10" x="1588" y="784.8594"/><rect fill="#FFFFFF" height="263.9766" style="stroke:#181818;stroke-width:1.0;" width="10" x="1588" y="951.2656"/><rect fill="#FFFFFF" height="128.0547" style="stroke:#181818;stroke-width:1.0;" width="10" x="1593" y="1049.8359"/><rect fill="#FFFFFF" height="41.3516" style="stroke:#181818;stroke-width:1.0;" width="10" x="1598" y="1093.1875"/><polygon fill="#181818" points="327,128.5703,337,132.5703,327,136.5703,331,132.5703" style="stroke:#181818;stroke-width:1.0;"/><line style="stroke:#181818;stroke-width:1.0;" x1="73" x2="333" y1="132.5703" y2="132.5703"/><text fill="#000000" font-family="sans-serif" font-size="13" font-weight="bold" lengthAdjust="spacing" textLength="7" x="80" y="127.7139">1</text><text fill="#000000" font-family="sans-serif" font-size="13" lengthAdjust="spacing" textLength="100" x="91" y="127.7139">asks to add a job</text><polygon fill="#181818" points="84,158.9219,74,162.9219,84,166.9219,80,162.9219" style="stroke:#181818;stroke-width:1.0;"/><line style="stroke:#181818;stroke-width:1.0;stroke-dasharray:2.0,2.0;" x1="78" x2="343" y1="162.9219" y2="162.9219"/><text fill="#000000" font-family="sans-serif" font-size="13" font-weight="bold" lengthAdjust="spacing" textLength="7" x="90" y="158.0654">2</text><text fill="#000000" font-family="sans-serif" font-size="13" lengthAdjust="spacing" textLength="100" x="101" y="158.0654">request job name</text><polygon fill="#181818" points="327,189.2734,337,193.2734,327,197.2734,331,193.2734" style="stroke:#181818;stroke-width:1.0;"/><line style="stroke:#181818;stroke-width:1.0;" x1="73" x2="333" y1="193.2734" y2="193.2734"/><text fill="#000000" font-family="sans-serif" font-size="13" font-weight="bold" lengthAdjust="spacing" textLength="7" x="80" y="188.417">3</text><text fill="#000000" font-family="sans-serif" font-size="13" lengthAdjust="spacing" textLength="125" x="91" y="188.417">Types requested data</text><polygon fill="#181818" points="84,219.625,74,223.625,84,227.625,80,223.625" style="stroke:#181818;stroke-width:1.0;"/><line style="stroke:#181818;stroke-width:1.0;stroke-dasharray:2.0,2.0;" x1="78" x2="343" y1="223.625" y2="223.625"/><text fill="#000000" font-family="sans-serif" font-size="13" font-weight="bold" lengthAdjust="spacing" textLength="7" x="90" y="218.7686">4</text><text fill="#000000" font-family="sans-serif" font-size="13" lengthAdjust="spacing" textLength="231" x="101" y="218.7686">Shows all data and request confirmation</text><polygon fill="#181818" points="327,249.9766,337,253.9766,327,257.9766,331,253.9766" style="stroke:#181818;stroke-width:1.0;"/><line style="stroke:#181818;stroke-width:1.0;" x1="73" x2="333" y1="253.9766" y2="253.9766"/><text fill="#000000" font-family="sans-serif" font-size="13" font-weight="bold" lengthAdjust="spacing" textLength="7" x="80" y="249.1201">5</text><text fill="#000000" font-family="sans-serif" font-size="13" lengthAdjust="spacing" textLength="65" x="91" y="249.1201">Confirm job</text><polygon fill="#181818" points="432,280.3281,442,284.3281,432,288.3281,436,284.3281" style="stroke:#181818;stroke-width:1.0;"/><line style="stroke:#181818;stroke-width:1.0;" x1="349" x2="438" y1="284.3281" y2="284.3281"/><text fill="#000000" font-family="sans-serif" font-size="13" font-weight="bold" lengthAdjust="spacing" textLength="7" x="356" y="279.4717">6</text><text fill="#000000" font-family="sans-serif" font-size="13" lengthAdjust="spacing" textLength="44" x="367" y="279.4717">create()</text><rect fill="#E3E3E3" height="31.6094" rx="2.5" ry="2.5" style="stroke:#181818;stroke-width:0.5;" width="152" x="444" y="261.9766"/><text fill="#000000" font-family="sans-serif" font-size="14" lengthAdjust="spacing" textLength="138" x="451" y="283.5098">:  AssignJobController</text><polygon fill="#181818" points="503,322.9375,513,326.9375,503,330.9375,507,326.9375" style="stroke:#181818;stroke-width:1.0;"/><line style="stroke:#181818;stroke-width:1.0;" x1="349" x2="509" y1="326.9375" y2="326.9375"/><text fill="#000000" font-family="sans-serif" font-size="13" font-weight="bold" lengthAdjust="spacing" textLength="7" x="356" y="322.0811">7</text><text fill="#000000" font-family="sans-serif" font-size="13" lengthAdjust="spacing" textLength="136" x="367" y="322.0811">createJob(Name of Job)</text><line style="stroke:#181818;stroke-width:1.0;" x1="525" x2="572" y1="377.2891" y2="377.2891"/><line style="stroke:#181818;stroke-width:1.0;" x1="572" x2="572" y1="377.2891" y2="390.2891"/><line style="stroke:#181818;stroke-width:1.0;" x1="531" x2="572" y1="390.2891" y2="390.2891"/><polygon fill="#181818" points="541,386.2891,531,390.2891,541,394.2891,537,390.2891" style="stroke:#181818;stroke-width:1.0;"/><text fill="#000000" font-family="sans-serif" font-size="13" font-weight="bold" lengthAdjust="spacing" textLength="7" x="537" y="372.4326">8</text><text fill="#000000" font-family="sans-serif" font-size="13" lengthAdjust="spacing" textLength="157" x="548" y="372.4326">getEmployeeOrganization()</text><polygon fill="#181818" points="929,421.6406,939,425.6406,929,429.6406,933,425.6406" style="stroke:#181818;stroke-width:1.0;"/><line style="stroke:#181818;stroke-width:1.0;" x1="530" x2="935" y1="425.6406" y2="425.6406"/><text fill="#000000" font-family="sans-serif" font-size="13" font-weight="bold" lengthAdjust="spacing" textLength="7" x="537" y="420.7842">9</text><text fill="#000000" font-family="sans-serif" font-size="13" lengthAdjust="spacing" textLength="75" x="548" y="420.7842">getInstance()</text><polygon fill="#181818" points="541,451.9922,531,455.9922,541,459.9922,537,455.9922" style="stroke:#181818;stroke-width:1.0;"/><line style="stroke:#181818;stroke-width:1.0;" x1="535" x2="945" y1="455.9922" y2="455.9922"/><text fill="#000000" font-family="sans-serif" font-size="13" font-weight="bold" lengthAdjust="spacing" textLength="14" x="547" y="451.1357">10</text><text fill="#000000" font-family="sans-serif" font-size="13" lengthAdjust="spacing" textLength="68" x="565" y="451.1357">appSession</text><polygon fill="#181818" points="1076,482.3438,1086,486.3438,1076,490.3438,1080,486.3438" style="stroke:#181818;stroke-width:1.0;"/><line style="stroke:#181818;stroke-width:1.0;" x1="530" x2="1082" y1="486.3438" y2="486.3438"/><text fill="#000000" font-family="sans-serif" font-size="13" font-weight="bold" lengthAdjust="spacing" textLength="14" x="537" y="481.4873">11</text><text fill="#000000" font-family="sans-serif" font-size="13" lengthAdjust="spacing" textLength="115" x="555" y="481.4873">getCurrentSession()</text><polygon fill="#181818" points="541,512.6953,531,516.6953,541,520.6953,537,516.6953" style="stroke:#181818;stroke-width:1.0;"/><line style="stroke:#181818;stroke-width:1.0;stroke-dasharray:2.0,2.0;" x1="535" x2="1092" y1="516.6953" y2="516.6953"/><text fill="#000000" font-family="sans-serif" font-size="13" font-weight="bold" lengthAdjust="spacing" textLength="14" x="547" y="511.8389">12</text><text fill="#000000" font-family="sans-serif" font-size="13" lengthAdjust="spacing" textLength="87" x="565" y="511.8389">currentSession</text><polygon fill="#181818" points="1209,543.0469,1219,547.0469,1209,551.0469,1213,547.0469" style="stroke:#181818;stroke-width:1.0;"/><line style="stroke:#181818;stroke-width:1.0;" x1="530" x2="1215" y1="547.0469" y2="547.0469"/><text fill="#000000" font-family="sans-serif" font-size="13" font-weight="bold" lengthAdjust="spacing" textLength="14" x="537" y="542.1904">13</text><text fill="#000000" font-family="sans-serif" font-size="13" lengthAdjust="spacing" textLength="133" x="555" y="542.1904">email = getUserEmail()</text><polygon fill="#181818" points="541,573.3984,531,577.3984,541,581.3984,537,577.3984" style="stroke:#181818;stroke-width:1.0;"/><line style="stroke:#181818;stroke-width:1.0;stroke-dasharray:2.0,2.0;" x1="535" x2="1225" y1="577.3984" y2="577.3984"/><text fill="#000000" font-family="sans-serif" font-size="13" font-weight="bold" lengthAdjust="spacing" textLength="14" x="547" y="572.542">14</text><text fill="#000000" font-family="sans-serif" font-size="13" lengthAdjust="spacing" textLength="31" x="565" y="572.542">email</text><polygon fill="#181818" points="695,603.75,705,607.75,695,611.75,699,607.75" style="stroke:#181818;stroke-width:1.0;"/><line style="stroke:#181818;stroke-width:1.0;" x1="530" x2="701" y1="607.75" y2="607.75"/><text fill="#000000" font-family="sans-serif" font-size="13" font-weight="bold" lengthAdjust="spacing" textLength="14" x="537" y="602.8936">15</text><text fill="#000000" font-family="sans-serif" font-size="13" lengthAdjust="spacing" textLength="75" x="555" y="602.8936">getInstance()</text><polygon fill="#181818" points="541,634.1016,531,638.1016,541,642.1016,537,638.1016" style="stroke:#181818;stroke-width:1.0;"/><line style="stroke:#181818;stroke-width:1.0;stroke-dasharray:2.0,2.0;" x1="535" x2="711" y1="638.1016" y2="638.1016"/><text fill="#000000" font-family="sans-serif" font-size="13" font-weight="bold" lengthAdjust="spacing" textLength="14" x="547" y="633.2451">16</text><text fill="#000000" font-family="sans-serif" font-size="13" lengthAdjust="spacing" textLength="67" x="565" y="633.2451">repositories</text><polygon fill="#181818" points="802,664.4531,812,668.4531,802,672.4531,806,668.4531" style="stroke:#181818;stroke-width:1.0;"/><line style="stroke:#181818;stroke-width:1.0;" x1="530" x2="808" y1="668.4531" y2="668.4531"/><text fill="#000000" font-family="sans-serif" font-size="13" font-weight="bold" lengthAdjust="spacing" textLength="14" x="537" y="663.5967">17</text><text fill="#000000" font-family="sans-serif" font-size="13" lengthAdjust="spacing" textLength="192" x="555" y="663.5967">getOrganizationRepository(email)</text><polygon fill="#181818" points="541,694.8047,531,698.8047,541,702.8047,537,698.8047" style="stroke:#181818;stroke-width:1.0;"/><line style="stroke:#181818;stroke-width:1.0;stroke-dasharray:2.0,2.0;" x1="535" x2="818" y1="698.8047" y2="698.8047"/><text fill="#000000" font-family="sans-serif" font-size="13" font-weight="bold" lengthAdjust="spacing" textLength="14" x="547" y="693.9482">18</text><text fill="#000000" font-family="sans-serif" font-size="13" lengthAdjust="spacing" textLength="132" x="565" y="693.9482">organizationRepository</text><polygon fill="#181818" points="1355,725.1563,1365,729.1563,1355,733.1563,1359,729.1563" style="stroke:#181818;stroke-width:1.0;"/><line style="stroke:#181818;stroke-width:1.0;" x1="530" x2="1361" y1="729.1563" y2="729.1563"/><text fill="#000000" font-family="sans-serif" font-size="13" font-weight="bold" lengthAdjust="spacing" textLength="14" x="537" y="724.2998">19</text><text fill="#000000" font-family="sans-serif" font-size="13" lengthAdjust="spacing" textLength="237" x="555" y="724.2998">getOrganizationByEmployeeEmail(email)</text><path d="M1280.5,744.1563 L1353.5,744.1563 L1353.5,752.5078 L1343.5,762.5078 L1280.5,762.5078 L1280.5,744.1563 " fill="#EEEEEE" style="stroke:#000000;stroke-width:1.5;"/><rect fill="none" height="79.0547" style="stroke:#000000;stroke-width:1.5;" width="371.5" x="1280.5" y="744.1563"/><text fill="#000000" font-family="sans-serif" font-size="13" font-weight="bold" lengthAdjust="spacing" textLength="28" x="1295.5" y="758.6514">loop</text><text fill="#000000" font-family="sans-serif" font-size="11" font-weight="bold" lengthAdjust="spacing" textLength="124" x="1368.5" y="757.5752">[for each organization]</text><polygon fill="#181818" points="1576,780.8594,1586,784.8594,1576,788.8594,1580,784.8594" style="stroke:#181818;stroke-width:1.0;"/><line style="stroke:#181818;stroke-width:1.0;" x1="1377" x2="1582" y1="784.8594" y2="784.8594"/><text fill="#000000" font-family="sans-serif" font-size="13" font-weight="bold" lengthAdjust="spacing" textLength="14" x="1384" y="780.0029">20</text><text fill="#000000" font-family="sans-serif" font-size="13" lengthAdjust="spacing" textLength="174" x="1402" y="780.0029">anyEmployeeHasEmail(email)</text><polygon fill="#181818" points="1388,811.2109,1378,815.2109,1388,819.2109,1384,815.2109" style="stroke:#181818;stroke-width:1.0;"/><line style="stroke:#181818;stroke-width:1.0;stroke-dasharray:2.0,2.0;" x1="1382" x2="1592" y1="815.2109" y2="815.2109"/><text fill="#000000" font-family="sans-serif" font-size="13" font-weight="bold" lengthAdjust="spacing" textLength="14" x="1394" y="810.3545">21</text><text fill="#000000" font-family="sans-serif" font-size="13" lengthAdjust="spacing" textLength="53" x="1412" y="810.3545">true/false</text><polygon fill="#181818" points="541,848.5625,531,852.5625,541,856.5625,537,852.5625" style="stroke:#181818;stroke-width:1.0;"/><line style="stroke:#181818;stroke-width:1.0;stroke-dasharray:2.0,2.0;" x1="535" x2="1371" y1="852.5625" y2="852.5625"/><text fill="#000000" font-family="sans-serif" font-size="13" font-weight="bold" lengthAdjust="spacing" textLength="14" x="547" y="847.7061">22</text><text fill="#000000" font-family="sans-serif" font-size="13" lengthAdjust="spacing" textLength="70" x="565" y="847.7061">organization</text><line style="stroke:#181818;stroke-width:1.0;stroke-dasharray:2.0,2.0;" x1="530" x2="572" y1="887.9141" y2="887.9141"/><line style="stroke:#181818;stroke-width:1.0;stroke-dasharray:2.0,2.0;" x1="572" x2="572" y1="887.9141" y2="900.9141"/><line style="stroke:#181818;stroke-width:1.0;stroke-dasharray:2.0,2.0;" x1="525" x2="572" y1="900.9141" y2="900.9141"/><polygon fill="#181818" points="535,896.9141,525,900.9141,535,904.9141,531,900.9141" style="stroke:#181818;stroke-width:1.0;"/><text fill="#000000" font-family="sans-serif" font-size="13" font-weight="bold" lengthAdjust="spacing" textLength="14" x="537" y="883.0576">23</text><text fill="#000000" font-family="sans-serif" font-size="13" lengthAdjust="spacing" textLength="70" x="555" y="883.0576">organization</text><polygon fill="#181818" points="1576,947.2656,1586,951.2656,1576,955.2656,1580,951.2656" style="stroke:#181818;stroke-width:1.0;"/><line style="stroke:#181818;stroke-width:1.0;" x1="525" x2="1582" y1="951.2656" y2="951.2656"/><text fill="#000000" font-family="sans-serif" font-size="13" font-weight="bold" lengthAdjust="spacing" textLength="14" x="532" y="946.4092">24</text><text fill="#000000" font-family="sans-serif" font-size="13" lengthAdjust="spacing" textLength="96" x="550" y="946.4092">createJob(name)</text><polygon fill="#181818" points="1704,977.6172,1714,981.6172,1704,985.6172,1708,981.6172" style="stroke:#181818;stroke-width:1.0;"/><line style="stroke:#181818;stroke-width:1.0;" x1="1598" x2="1710" y1="981.6172" y2="981.6172"/><text fill="#000000" font-family="sans-serif" font-size="13" font-weight="bold" lengthAdjust="spacing" textLength="14" x="1605" y="976.7607">25</text><text fill="#000000" font-family="sans-serif" font-size="13" lengthAdjust="spacing" textLength="76" x="1623" y="976.7607">create(name)</text><rect fill="#E3E3E3" height="49.2188" rx="2.5" ry="2.5" style="stroke:#181818;stroke-width:0.5;" width="40" x="1716" y="959.2656"/><text fill="#000000" font-family="sans-serif" font-size="14" lengthAdjust="spacing" textLength="19" x="1726.5" y="980.7988">job</text><text fill="#000000" font-family="sans-serif" font-size="14" lengthAdjust="spacing" textLength="26" x="1723" y="998.4082">:Job</text><line style="stroke:#181818;stroke-width:1.0;" x1="1598" x2="1645" y1="1036.8359" y2="1036.8359"/><line style="stroke:#181818;stroke-width:1.0;" x1="1645" x2="1645" y1="1036.8359" y2="1049.8359"/><line style="stroke:#181818;stroke-width:1.0;" x1="1604" x2="1645" y1="1049.8359" y2="1049.8359"/><polygon fill="#181818" points="1614,1045.8359,1604,1049.8359,1614,1053.8359,1610,1049.8359" style="stroke:#181818;stroke-width:1.0;"/><text fill="#000000" font-family="sans-serif" font-size="13" font-weight="bold" lengthAdjust="spacing" textLength="14" x="1610" y="1031.9795">26</text><text fill="#000000" font-family="sans-serif" font-size="13" lengthAdjust="spacing" textLength="70" x="1628" y="1031.9795">addJob (job)</text><line style="stroke:#181818;stroke-width:1.0;" x1="1603" x2="1650" y1="1080.1875" y2="1080.1875"/><line style="stroke:#181818;stroke-width:1.0;" x1="1650" x2="1650" y1="1080.1875" y2="1093.1875"/><line style="stroke:#181818;stroke-width:1.0;" x1="1609" x2="1650" y1="1093.1875" y2="1093.1875"/><polygon fill="#181818" points="1619,1089.1875,1609,1093.1875,1619,1097.1875,1615,1093.1875" style="stroke:#181818;stroke-width:1.0;"/><text fill="#000000" font-family="sans-serif" font-size="13" font-weight="bold" lengthAdjust="spacing" textLength="14" x="1615" y="1075.3311">27</text><text fill="#000000" font-family="sans-serif" font-size="13" lengthAdjust="spacing" textLength="88" x="1633" y="1075.3311">validateJob(job)</text><line style="stroke:#181818;stroke-width:1.0;stroke-dasharray:2.0,2.0;" x1="1608" x2="1650" y1="1133.5391" y2="1133.5391"/><line style="stroke:#181818;stroke-width:1.0;stroke-dasharray:2.0,2.0;" x1="1650" x2="1650" y1="1133.5391" y2="1146.5391"/><line style="stroke:#181818;stroke-width:1.0;stroke-dasharray:2.0,2.0;" x1="1603" x2="1650" y1="1146.5391" y2="1146.5391"/><polygon fill="#181818" points="1613,1142.5391,1603,1146.5391,1613,1150.5391,1609,1146.5391" style="stroke:#181818;stroke-width:1.0;"/><text fill="#000000" font-family="sans-serif" font-size="13" font-weight="bold" lengthAdjust="spacing" textLength="14" x="1615" y="1128.6826">28</text><text fill="#000000" font-family="sans-serif" font-size="13" lengthAdjust="spacing" textLength="4" x="1633" y="1128.6826"> </text><line style="stroke:#181818;stroke-width:1.0;stroke-dasharray:2.0,2.0;" x1="1603" x2="1645" y1="1176.8906" y2="1176.8906"/><line style="stroke:#181818;stroke-width:1.0;stroke-dasharray:2.0,2.0;" x1="1645" x2="1645" y1="1176.8906" y2="1189.8906"/><line style="stroke:#181818;stroke-width:1.0;stroke-dasharray:2.0,2.0;" x1="1598" x2="1645" y1="1189.8906" y2="1189.8906"/><polygon fill="#181818" points="1608,1185.8906,1598,1189.8906,1608,1193.8906,1604,1189.8906" style="stroke:#181818;stroke-width:1.0;"/><text fill="#000000" font-family="sans-serif" font-size="13" font-weight="bold" lengthAdjust="spacing" textLength="14" x="1610" y="1172.0342">29</text><text fill="#000000" font-family="sans-serif" font-size="13" lengthAdjust="spacing" textLength="4" x="1628" y="1172.0342"> </text><polygon fill="#181818" points="536,1211.2422,526,1215.2422,536,1219.2422,532,1215.2422" style="stroke:#181818;stroke-width:1.0;"/><line style="stroke:#181818;stroke-width:1.0;stroke-dasharray:2.0,2.0;" x1="530" x2="1592" y1="1215.2422" y2="1215.2422"/><text fill="#000000" font-family="sans-serif" font-size="13" font-weight="bold" lengthAdjust="spacing" textLength="14" x="542" y="1210.3857">30</text><text fill="#000000" font-family="sans-serif" font-size="13" lengthAdjust="spacing" textLength="17" x="560" y="1210.3857">job</text><polygon fill="#181818" points="360,1241.5938,350,1245.5938,360,1249.5938,356,1245.5938" style="stroke:#181818;stroke-width:1.0;"/><line style="stroke:#181818;stroke-width:1.0;stroke-dasharray:2.0,2.0;" x1="354" x2="519" y1="1245.5938" y2="1245.5938"/><text fill="#000000" font-family="sans-serif" font-size="13" font-weight="bold" lengthAdjust="spacing" textLength="14" x="366" y="1240.7373">31</text><text fill="#000000" font-family="sans-serif" font-size="13" lengthAdjust="spacing" textLength="17" x="384" y="1240.7373">job</text><polygon fill="#181818" points="84,1271.9453,74,1275.9453,84,1279.9453,80,1275.9453" style="stroke:#181818;stroke-width:1.0;"/><line style="stroke:#181818;stroke-width:1.0;stroke-dasharray:2.0,2.0;" x1="78" x2="343" y1="1275.9453" y2="1275.9453"/><text fill="#000000" font-family="sans-serif" font-size="13" font-weight="bold" lengthAdjust="spacing" textLength="14" x="90" y="1271.0889">32</text><text fill="#000000" font-family="sans-serif" font-size="13" lengthAdjust="spacing" textLength="158" x="108" y="1271.0889">displays operation success</text><!--SRC=[dLV1JkCm4BtxAqPSQ2kXlLTQfD95K0GBQkaDQUKcRcj8xApjm7R5n-_OQLExYHkwFj5utfitdh5dq6zS55JH778fPB9MCcTWLCc8hdSAchpH5PkPJSP0iSHGiSfy0xscgVpWOWLBccb622sD56M-O8gGypLF6IobD0lvXz34I0LdjsLE1KoPbgLAc8ON0GzKe1C5lTlfG_yCg8RHZmU23WnFU465WRCXm4XhlX9tSZ6VE9lv96uobi8ecMLCETFny_J-m7ZA2gavAk9CEvlwmsR6RP0OHWXH7k95D0cUxaVF1qv6HP7nX1eknOoXDYcSvQ_HqrDeIOjYQu3C4LG3b9HACM7smBbcoaVChcUpqMC8acf51V_hsFSX3r_4O-k6usdVYlEY51zISKnlGi2hNA0TvifjtprU4LiX_9qQvj9FOBlm1rnSOhfXY9Pl6em4cgP00IdsPZKOw-Ay_ceN8Y-GmF8CiOX_bqmRYmL1SxOdW9Jv7065h-5vKs3PRdbO2YarrBEESGGgPclveO5ccKC35MajB95YoLNkJkvqSUCAxOxcK8slvDBTYS408ObYQD3hanQ3UXlprFk9nmLo2VXtltdixeu5kkpw_FniV7F4UmShPgxp8fCRnlogwVKRm0vVFhUzOevw8ZG-MWbheGietPs4oBAREyLOXFLbRGLucNAanuNkT8w3ozobrl76r3gnjThmbUXI72NUwQtUb26mdF8ClblfzjcvjZ-xL6_VewZmQj_JxfnqIJx6kbFTyhYVL1rjpQ4LqMBenUEtaAwmlkno5wFjFowezkUwvmwp8qxNmwBviRjUDEsjf2kkoiNHIDe3QCHsjTcz6rNrVIN0I2kBXfn9MU04em03M0SHnp5sjVjnmKrlR2CJjVXRgZlrD-F0TdhKibA1lYwY1ueoxBZthPhSZl5uwREEOsPCfEJK0zdtWU1mkrISaCQgghxen_FHR3A7pQokr-cDtoVjM16cyNZQN9OkxGWq6DJjk4dYcJg7E0EXD-YzsdPCoD5IYHR7bkkTPZpTod_rs_lfZ1Kb-SyoyYa8wI0WCVGsqy5ys8MlosG-6TRZKwmisiVB8QHS5ndTQ905Kwx2G9S9_fjJFVVX4FSF]--></g></svg>