<?xml version="1.0" encoding="UTF-8" standalone="no"?><svg xmlns="http://www.w3.org/2000/svg" xmlns:xlink="http://www.w3.org/1999/xlink" contentStyleType="text/css" height="434px" preserveAspectRatio="none" style="width:492px;height:434px;background:#FFFFFF;" version="1.1" viewBox="0 0 492 434" width="492px" zoomAndPan="magnify"><defs/><g><!--class HumanResourcesManager--><g id="elem_HumanResourcesManager"><rect codeLine="10" fill="#F1F1F1" height="88.4375" id="HumanResourcesManager" rx="2.5" ry="2.5" style="stroke:#181818;stroke-width:0.5;" width="174" x="7" y="33.5"/><text fill="#000000" font-family="sans-serif" font-size="14" lengthAdjust="spacing" textLength="168" x="10" y="53.0332">HumanResourcesManager</text><line style="stroke:#181818;stroke-width:0.5;" x1="8" x2="180" y1="61.1094" y2="61.1094"/><text fill="#000000" font-family="sans-serif" font-size="14" lengthAdjust="spacing" textLength="35" x="13" y="79.6426">name</text><text fill="#000000" font-family="sans-serif" font-size="14" lengthAdjust="spacing" textLength="33" x="13" y="97.252">email</text><text fill="#000000" font-family="sans-serif" font-size="14" lengthAdjust="spacing" textLength="40" x="13" y="114.8613">phone</text></g><!--class Collaborator--><g id="elem_Collaborator"><rect codeLine="16" fill="#F1F1F1" height="141.2656" id="Collaborator" rx="2.5" ry="2.5" style="stroke:#181818;stroke-width:0.5;" width="107" x="283.5" y="7"/><text fill="#000000" font-family="sans-serif" font-size="14" lengthAdjust="spacing" textLength="78" x="298" y="26.5332">Collaborator</text><line style="stroke:#181818;stroke-width:0.5;" x1="284.5" x2="389.5" y1="34.6094" y2="34.6094"/><text fill="#000000" font-family="sans-serif" font-size="14" lengthAdjust="spacing" textLength="35" x="289.5" y="53.1426">name</text><text fill="#000000" font-family="sans-serif" font-size="14" lengthAdjust="spacing" textLength="56" x="289.5" y="70.752">birthdate</text><text fill="#000000" font-family="sans-serif" font-size="14" lengthAdjust="spacing" textLength="95" x="289.5" y="88.3613">admission date</text><text fill="#000000" font-family="sans-serif" font-size="14" lengthAdjust="spacing" textLength="51" x="289.5" y="105.9707">address</text><text fill="#000000" font-family="sans-serif" font-size="14" lengthAdjust="spacing" textLength="33" x="289.5" y="123.5801">email</text><text fill="#000000" font-family="sans-serif" font-size="14" lengthAdjust="spacing" textLength="40" x="289.5" y="141.1895">phone</text></g><!--class Skill--><g id="elem_Skill"><rect codeLine="25" fill="#F1F1F1" height="53.2188" id="Skill" rx="2.5" ry="2.5" style="stroke:#181818;stroke-width:0.5;" width="47" x="205.5" y="366"/><text fill="#000000" font-family="sans-serif" font-size="14" lengthAdjust="spacing" textLength="25" x="216.5" y="385.5332">Skill</text><line style="stroke:#181818;stroke-width:0.5;" x1="206.5" x2="251.5" y1="393.6094" y2="393.6094"/><text fill="#000000" font-family="sans-serif" font-size="14" lengthAdjust="spacing" textLength="35" x="211.5" y="412.1426">name</text></g><!--class Team--><g id="elem_Team"><rect codeLine="29" fill="#F1F1F1" height="53.2188" id="Team" rx="2.5" ry="2.5" style="stroke:#181818;stroke-width:0.5;" width="160" x="300" y="226"/><text fill="#000000" font-family="sans-serif" font-size="14" lengthAdjust="spacing" textLength="36" x="362" y="245.5332">Team</text><line style="stroke:#181818;stroke-width:0.5;" x1="301" x2="459" y1="253.6094" y2="253.6094"/><text fill="#000000" font-family="sans-serif" font-size="14" lengthAdjust="spacing" textLength="148" x="306" y="272.1426">numberOfCollaborators</text></g><!--class Task--><g id="elem_Task"><rect codeLine="33" fill="#F1F1F1" height="70.8281" id="Task" rx="2.5" ry="2.5" style="stroke:#181818;stroke-width:0.5;" width="81" x="394.5" y="357"/><text fill="#000000" font-family="sans-serif" font-size="14" lengthAdjust="spacing" textLength="31" x="419.5" y="376.5332">Task</text><line style="stroke:#181818;stroke-width:0.5;" x1="395.5" x2="474.5" y1="384.6094" y2="384.6094"/><text fill="#000000" font-family="sans-serif" font-size="14" lengthAdjust="spacing" textLength="35" x="400.5" y="403.1426">name</text><text fill="#000000" font-family="sans-serif" font-size="14" lengthAdjust="spacing" textLength="69" x="400.5" y="420.752">description</text></g><!--link HumanResourcesManager to Collaborator--><g id="link_HumanResourcesManager_Collaborator"><path codeLine="38" d="M181.04,77.5 C215.22,77.5 253.37,77.5 283.38,77.5 " fill="none" id="HumanResourcesManager-Collaborator" style="stroke:#181818;stroke-width:1.0;"/><polygon fill="#000000" points="208.25,65.6758,199.2049,62.7369,199.2049,68.6147,208.25,65.6758" style="stroke:#000000;stroke-width:1.0;"/><text fill="#000000" font-family="sans-serif" font-size="13" lengthAdjust="spacing" textLength="53" x="212.25" y="70.9951">manages</text><text fill="#000000" font-family="sans-serif" font-size="13" lengthAdjust="spacing" textLength="7" x="189.1037" y="74.2788">1</text><text fill="#000000" font-family="sans-serif" font-size="13" lengthAdjust="spacing" textLength="5" x="270.4881" y="73.8762">*</text></g><!--link HumanResourcesManager to Skill--><g id="link_HumanResourcesManager_Skill"><path codeLine="39" d="M105.46,121.8 C117.1,163.14 136.82,226.7 161,279 C175.37,310.07 196.24,343.36 211.07,365.59 " fill="none" id="HumanResourcesManager-Skill" style="stroke:#181818;stroke-width:1.0;"/><polygon fill="#000000" points="167.9875,257.2638,167.0888,247.7958,161.6953,250.1322,167.9875,257.2638" style="stroke:#000000;stroke-width:1.0;"/><text fill="#000000" font-family="sans-serif" font-size="13" lengthAdjust="spacing" textLength="50" x="175" y="257.9951">registers</text><text fill="#000000" font-family="sans-serif" font-size="13" lengthAdjust="spacing" textLength="7" x="99.6789" y="143.297">1</text><text fill="#000000" font-family="sans-serif" font-size="13" lengthAdjust="spacing" textLength="5" x="201.3456" y="355.0275">*</text></g><!--link Collaborator to Skill--><g id="link_Collaborator_Skill"><path codeLine="40" d="M285.21,148.02 C270.1,171.65 255.2,198.94 246,226 C229.88,273.45 227.8,332.6 228.14,365.8 " fill="none" id="Collaborator-Skill" style="stroke:#181818;stroke-width:1.0;"/><polygon fill="#000000" points="249.7325,257.5125,254.8683,249.5078,249.1825,248.0178,249.7325,257.5125" style="stroke:#000000;stroke-width:1.0;"/><text fill="#000000" font-family="sans-serif" font-size="13" lengthAdjust="spacing" textLength="21" x="260" y="257.9951">has</text><text fill="#000000" font-family="sans-serif" font-size="13" lengthAdjust="spacing" textLength="7" x="272.5082" y="169.6169">1</text><text fill="#000000" font-family="sans-serif" font-size="13" lengthAdjust="spacing" textLength="5" x="222.363" y="355.2861">*</text></g><!--link Team to Task--><g id="link_Team_Task"><path codeLine="41" d="M390.22,279.13 C398.95,301.04 411.58,332.74 421.21,356.9 " fill="none" id="Team-Task" style="stroke:#181818;stroke-width:1.0;"/><polygon fill="#000000" points="415.8509,322.8206,415.2328,313.3301,409.7725,315.506,415.8509,322.8206" style="stroke:#000000;stroke-width:1.0;"/><text fill="#000000" font-family="sans-serif" font-size="13" lengthAdjust="spacing" textLength="61" x="423" y="323.4951">carries out</text><text fill="#000000" font-family="sans-serif" font-size="13" lengthAdjust="spacing" textLength="7" x="384.774" y="300.6487">1</text><text fill="#000000" font-family="sans-serif" font-size="13" lengthAdjust="spacing" textLength="7" x="410.9141" y="346.1338">1</text></g><!--link Team to Skill--><g id="link_Team_Skill"><path codeLine="42" d="M327.46,279.15 C313.13,287.53 298.21,297.63 286,309 C268.29,325.49 253.01,348.4 242.74,365.89 " fill="none" id="Team-Skill" style="stroke:#181818;stroke-width:1.0;"/><polygon fill="#000000" points="287.5064,321.7527,295.9289,317.3355,291.7239,313.2285,287.5064,321.7527" style="stroke:#000000;stroke-width:1.0;"/><text fill="#000000" font-family="sans-serif" font-size="13" lengthAdjust="spacing" textLength="93" x="300" y="323.4951">requires a set of</text><text fill="#000000" font-family="sans-serif" font-size="13" lengthAdjust="spacing" textLength="7" x="307.5008" y="300.6733">1</text><text fill="#000000" font-family="sans-serif" font-size="13" lengthAdjust="spacing" textLength="5" x="240.4798" y="354.9651">*</text></g><!--link Collaborator to Team--><g id="link_Collaborator_Team"><path codeLine="43" d="M354.37,148.37 C361.17,175.75 368.55,205.44 373.64,225.91 " fill="none" id="Collaborator-Team" style="stroke:#181818;stroke-width:1.0;"/><polygon fill="#000000" points="372.2059,192.0282,372.8766,182.5413,367.1722,183.9589,372.2059,192.0282" style="stroke:#000000;stroke-width:1.0;"/><text fill="#000000" font-family="sans-serif" font-size="13" lengthAdjust="spacing" textLength="25" x="380" y="192.4951">form</text><text fill="#000000" font-family="sans-serif" font-size="13" lengthAdjust="spacing" textLength="5" x="350.9035" y="170.003">*</text><text fill="#000000" font-family="sans-serif" font-size="13" lengthAdjust="spacing" textLength="7" x="364.2366" y="214.99">1</text></g><!--SRC=[VL5BJiGm3Dtd55QN8o71jWian0OM28dX0cxYjb6JkDYf423kJjfXXiv7P1CdxsE_H0UVHXIC43cnxOKZGPQ9Z1wG4Us07MtpHo0GiXbJ5zO4xT7nkqyTj1YKp0go0LNlSXRVJ9aUBQUj_oIuDgRtZi1wiSLggIFbdfqQisZWOOgONaXv4alwXAcC8F1beAo4aPQ28lgmL6FFYSptNdtF8M33WfdFH8sNt3lCknEww5Kz9rXTEI7L_pji1n_2slg0l589_WjCiI5vRjVZw8g9EfnEvqYj-36NYMRYvMUeRYguWcfJ7GUj8Iu4XTl_X3lbBa1TVhJpcabcqP7R1MwFCsi9k4VBjiIemQA8BxrvogUaetPlao_F2mXA6RWzQxlvCvuzQcXPOc7z0000]--></g></svg>