<?xml version="1.0" encoding="UTF-8" standalone="no"?><svg xmlns="http://www.w3.org/2000/svg" xmlns:xlink="http://www.w3.org/1999/xlink" contentStyleType="text/css" height="838px" preserveAspectRatio="none" style="width:956px;height:838px;background:#FFFFFF;" version="1.1" viewBox="0 0 956 838" width="956px" zoomAndPan="magnify"><defs/><g><!--class AssignSkillUI--><g id="elem_AssignSkillUI"><rect codeLine="11" fill="#F1F1F1" height="48" id="AssignSkillUI" rx="2.5" ry="2.5" style="stroke:#181818;stroke-width:0.5;" width="111" x="7" y="42"/><ellipse cx="22" cy="58" fill="#ADD1B2" rx="11" ry="11" style="stroke:#181818;stroke-width:1.0;"/><path d="M24.7656,53.875 Q24.9219,53.6563 25.1094,53.5469 Q25.2969,53.4375 25.5156,53.4375 Q25.8906,53.4375 26.125,53.7031 Q26.3594,53.9531 26.3594,54.5625 L26.3594,56.0156 Q26.3594,56.625 26.125,56.8906 Q25.8906,57.1563 25.5156,57.1563 Q25.1719,57.1563 24.9688,56.9531 Q24.7656,56.7656 24.6563,56.25 Q24.6094,55.8906 24.4219,55.7031 Q24.0938,55.3281 23.4844,55.1094 Q22.875,54.8906 22.25,54.8906 Q21.4844,54.8906 20.8438,55.2188 Q20.2188,55.5469 19.7188,56.2969 Q19.2344,57.0469 19.2344,58.0781 L19.2344,59.1719 Q19.2344,60.4063 20.125,61.2344 Q21.0156,62.0469 22.6094,62.0469 Q23.5469,62.0469 24.2031,61.7969 Q24.5938,61.6406 25.0156,61.2031 Q25.2813,60.9375 25.4219,60.8594 Q25.5781,60.7813 25.7813,60.7813 Q26.1094,60.7813 26.3594,61.0469 Q26.625,61.2969 26.625,61.6406 Q26.625,61.9844 26.2813,62.3906 Q25.7813,62.9688 24.9844,63.2969 Q23.9063,63.75 22.6094,63.75 Q21.0938,63.75 19.8906,63.125 Q18.9063,62.625 18.2188,61.5625 Q17.5313,60.4844 17.5313,59.2031 L17.5313,58.0469 Q17.5313,56.7188 18.1406,55.5781 Q18.7656,54.4219 19.8594,53.8125 Q20.9531,53.1875 22.1875,53.1875 Q22.9219,53.1875 23.5625,53.3594 Q24.2188,53.5156 24.7656,53.875 Z " fill="#000000"/><text fill="#000000" font-family="sans-serif" font-size="14" lengthAdjust="spacing" textLength="79" x="36" y="63.7285">AssignSkillUI</text><line style="stroke:#181818;stroke-width:0.5;" x1="8" x2="117" y1="74" y2="74"/><line style="stroke:#181818;stroke-width:0.5;" x1="8" x2="117" y1="82" y2="82"/></g><!--class AssignSkillController--><g id="elem_AssignSkillController"><rect codeLine="15" fill="#F1F1F1" height="100.8281" id="AssignSkillController" rx="2.5" ry="2.5" style="stroke:#181818;stroke-width:0.5;" width="401" x="153" y="15.5"/><ellipse cx="284.75" cy="31.5" fill="#ADD1B2" rx="11" ry="11" style="stroke:#181818;stroke-width:1.0;"/><path d="M287.5156,27.375 Q287.6719,27.1563 287.8594,27.0469 Q288.0469,26.9375 288.2656,26.9375 Q288.6406,26.9375 288.875,27.2031 Q289.1094,27.4531 289.1094,28.0625 L289.1094,29.5156 Q289.1094,30.125 288.875,30.3906 Q288.6406,30.6563 288.2656,30.6563 Q287.9219,30.6563 287.7188,30.4531 Q287.5156,30.2656 287.4063,29.75 Q287.3594,29.3906 287.1719,29.2031 Q286.8438,28.8281 286.2344,28.6094 Q285.625,28.3906 285,28.3906 Q284.2344,28.3906 283.5938,28.7188 Q282.9688,29.0469 282.4688,29.7969 Q281.9844,30.5469 281.9844,31.5781 L281.9844,32.6719 Q281.9844,33.9063 282.875,34.7344 Q283.7656,35.5469 285.3594,35.5469 Q286.2969,35.5469 286.9531,35.2969 Q287.3438,35.1406 287.7656,34.7031 Q288.0313,34.4375 288.1719,34.3594 Q288.3281,34.2813 288.5313,34.2813 Q288.8594,34.2813 289.1094,34.5469 Q289.375,34.7969 289.375,35.1406 Q289.375,35.4844 289.0313,35.8906 Q288.5313,36.4688 287.7344,36.7969 Q286.6563,37.25 285.3594,37.25 Q283.8438,37.25 282.6406,36.625 Q281.6563,36.125 280.9688,35.0625 Q280.2813,33.9844 280.2813,32.7031 L280.2813,31.5469 Q280.2813,30.2188 280.8906,29.0781 Q281.5156,27.9219 282.6094,27.3125 Q283.7031,26.6875 284.9375,26.6875 Q285.6719,26.6875 286.3125,26.8594 Q286.9688,27.0156 287.5156,27.375 Z " fill="#000000"/><text fill="#000000" font-family="sans-serif" font-size="14" lengthAdjust="spacing" textLength="129" x="305.25" y="37.2285">AssignSkillController</text><line style="stroke:#181818;stroke-width:0.5;" x1="154" x2="553" y1="47.5" y2="47.5"/><line style="stroke:#181818;stroke-width:0.5;" x1="154" x2="553" y1="55.5" y2="55.5"/><text fill="#000000" font-family="sans-serif" font-size="14" lengthAdjust="spacing" textLength="389" x="159" y="74.0332">+AssignSkillController(collaboratorRepository, skillRepository)</text><text fill="#000000" font-family="sans-serif" font-size="14" lengthAdjust="spacing" textLength="123" x="159" y="91.6426">+getCollaborators()</text><text fill="#000000" font-family="sans-serif" font-size="14" lengthAdjust="spacing" textLength="129" x="159" y="109.252">+getSkills(skillName)</text></g><!--class Repositories--><g id="elem_Repositories"><rect codeLine="21" fill="#F1F1F1" height="118.4375" id="Repositories" rx="2.5" ry="2.5" style="stroke:#181818;stroke-width:0.5;" width="196" x="657.5" y="7"/><ellipse cx="711.75" cy="23" fill="#ADD1B2" rx="11" ry="11" style="stroke:#181818;stroke-width:1.0;"/><path d="M714.5156,18.875 Q714.6719,18.6563 714.8594,18.5469 Q715.0469,18.4375 715.2656,18.4375 Q715.6406,18.4375 715.875,18.7031 Q716.1094,18.9531 716.1094,19.5625 L716.1094,21.0156 Q716.1094,21.625 715.875,21.8906 Q715.6406,22.1563 715.2656,22.1563 Q714.9219,22.1563 714.7188,21.9531 Q714.5156,21.7656 714.4063,21.25 Q714.3594,20.8906 714.1719,20.7031 Q713.8438,20.3281 713.2344,20.1094 Q712.625,19.8906 712,19.8906 Q711.2344,19.8906 710.5938,20.2188 Q709.9688,20.5469 709.4688,21.2969 Q708.9844,22.0469 708.9844,23.0781 L708.9844,24.1719 Q708.9844,25.4063 709.875,26.2344 Q710.7656,27.0469 712.3594,27.0469 Q713.2969,27.0469 713.9531,26.7969 Q714.3438,26.6406 714.7656,26.2031 Q715.0313,25.9375 715.1719,25.8594 Q715.3281,25.7813 715.5313,25.7813 Q715.8594,25.7813 716.1094,26.0469 Q716.375,26.2969 716.375,26.6406 Q716.375,26.9844 716.0313,27.3906 Q715.5313,27.9688 714.7344,28.2969 Q713.6563,28.75 712.3594,28.75 Q710.8438,28.75 709.6406,28.125 Q708.6563,27.625 707.9688,26.5625 Q707.2813,25.4844 707.2813,24.2031 L707.2813,23.0469 Q707.2813,21.7188 707.8906,20.5781 Q708.5156,19.4219 709.6094,18.8125 Q710.7031,18.1875 711.9375,18.1875 Q712.6719,18.1875 713.3125,18.3594 Q713.9688,18.5156 714.5156,18.875 Z " fill="#000000"/><text fill="#000000" font-family="sans-serif" font-size="14" lengthAdjust="spacing" textLength="79" x="732.25" y="28.7285">Repositories</text><line style="stroke:#181818;stroke-width:0.5;" x1="658.5" x2="852.5" y1="39" y2="39"/><line style="stroke:#181818;stroke-width:0.5;" x1="658.5" x2="852.5" y1="47" y2="47"/><text fill="#000000" font-family="sans-serif" font-size="14" lengthAdjust="spacing" textLength="94" x="663.5" y="65.5332">-Repositories()</text><text fill="#000000" font-family="sans-serif" font-size="14" lengthAdjust="spacing" textLength="182" x="663.5" y="83.1426">+getInstance() : Repositories</text><text fill="#000000" font-family="sans-serif" font-size="14" lengthAdjust="spacing" textLength="184" x="663.5" y="100.752">+getCollaboratorRepository()</text><text fill="#000000" font-family="sans-serif" font-size="14" lengthAdjust="spacing" textLength="131" x="663.5" y="118.3613">+getSkillRepository()</text></g><!--class CollaboratorRepository--><g id="elem_CollaboratorRepository"><rect codeLine="28" fill="#F1F1F1" height="65.6094" id="CollaboratorRepository" rx="2.5" ry="2.5" style="stroke:#181818;stroke-width:0.5;" width="178" x="386.5" y="203"/><ellipse cx="401.5" cy="219" fill="#ADD1B2" rx="11" ry="11" style="stroke:#181818;stroke-width:1.0;"/><path d="M404.2656,214.875 Q404.4219,214.6563 404.6094,214.5469 Q404.7969,214.4375 405.0156,214.4375 Q405.3906,214.4375 405.625,214.7031 Q405.8594,214.9531 405.8594,215.5625 L405.8594,217.0156 Q405.8594,217.625 405.625,217.8906 Q405.3906,218.1563 405.0156,218.1563 Q404.6719,218.1563 404.4688,217.9531 Q404.2656,217.7656 404.1563,217.25 Q404.1094,216.8906 403.9219,216.7031 Q403.5938,216.3281 402.9844,216.1094 Q402.375,215.8906 401.75,215.8906 Q400.9844,215.8906 400.3438,216.2188 Q399.7188,216.5469 399.2188,217.2969 Q398.7344,218.0469 398.7344,219.0781 L398.7344,220.1719 Q398.7344,221.4063 399.625,222.2344 Q400.5156,223.0469 402.1094,223.0469 Q403.0469,223.0469 403.7031,222.7969 Q404.0938,222.6406 404.5156,222.2031 Q404.7813,221.9375 404.9219,221.8594 Q405.0781,221.7813 405.2813,221.7813 Q405.6094,221.7813 405.8594,222.0469 Q406.125,222.2969 406.125,222.6406 Q406.125,222.9844 405.7813,223.3906 Q405.2813,223.9688 404.4844,224.2969 Q403.4063,224.75 402.1094,224.75 Q400.5938,224.75 399.3906,224.125 Q398.4063,223.625 397.7188,222.5625 Q397.0313,221.4844 397.0313,220.2031 L397.0313,219.0469 Q397.0313,217.7188 397.6406,216.5781 Q398.2656,215.4219 399.3594,214.8125 Q400.4531,214.1875 401.6875,214.1875 Q402.4219,214.1875 403.0625,214.3594 Q403.7188,214.5156 404.2656,214.875 Z " fill="#000000"/><text fill="#000000" font-family="sans-serif" font-size="14" lengthAdjust="spacing" textLength="146" x="415.5" y="224.7285">CollaboratorRepository</text><line style="stroke:#181818;stroke-width:0.5;" x1="387.5" x2="563.5" y1="235" y2="235"/><line style="stroke:#181818;stroke-width:0.5;" x1="387.5" x2="563.5" y1="243" y2="243"/><text fill="#000000" font-family="sans-serif" font-size="14" lengthAdjust="spacing" textLength="158" x="392.5" y="261.5332">+getCollaborators(name)</text></g><!--class SkillRepository--><g id="elem_SkillRepository"><rect codeLine="32" fill="#F1F1F1" height="65.6094" id="SkillRepository" rx="2.5" ry="2.5" style="stroke:#181818;stroke-width:0.5;" width="141" x="568" y="347"/><ellipse cx="590.2" cy="363" fill="#ADD1B2" rx="11" ry="11" style="stroke:#181818;stroke-width:1.0;"/><path d="M592.9656,358.875 Q593.1219,358.6563 593.3094,358.5469 Q593.4969,358.4375 593.7156,358.4375 Q594.0906,358.4375 594.325,358.7031 Q594.5594,358.9531 594.5594,359.5625 L594.5594,361.0156 Q594.5594,361.625 594.325,361.8906 Q594.0906,362.1563 593.7156,362.1563 Q593.3719,362.1563 593.1688,361.9531 Q592.9656,361.7656 592.8563,361.25 Q592.8094,360.8906 592.6219,360.7031 Q592.2938,360.3281 591.6844,360.1094 Q591.075,359.8906 590.45,359.8906 Q589.6844,359.8906 589.0438,360.2188 Q588.4188,360.5469 587.9188,361.2969 Q587.4344,362.0469 587.4344,363.0781 L587.4344,364.1719 Q587.4344,365.4063 588.325,366.2344 Q589.2156,367.0469 590.8094,367.0469 Q591.7469,367.0469 592.4031,366.7969 Q592.7938,366.6406 593.2156,366.2031 Q593.4813,365.9375 593.6219,365.8594 Q593.7781,365.7813 593.9813,365.7813 Q594.3094,365.7813 594.5594,366.0469 Q594.825,366.2969 594.825,366.6406 Q594.825,366.9844 594.4813,367.3906 Q593.9813,367.9688 593.1844,368.2969 Q592.1063,368.75 590.8094,368.75 Q589.2938,368.75 588.0906,368.125 Q587.1063,367.625 586.4188,366.5625 Q585.7313,365.4844 585.7313,364.2031 L585.7313,363.0469 Q585.7313,361.7188 586.3406,360.5781 Q586.9656,359.4219 588.0594,358.8125 Q589.1531,358.1875 590.3875,358.1875 Q591.1219,358.1875 591.7625,358.3594 Q592.4188,358.5156 592.9656,358.875 Z " fill="#000000"/><text fill="#000000" font-family="sans-serif" font-size="14" lengthAdjust="spacing" textLength="93" x="605.8" y="368.7285">SkillRepository</text><line style="stroke:#181818;stroke-width:0.5;" x1="569" x2="708" y1="379" y2="379"/><line style="stroke:#181818;stroke-width:0.5;" x1="569" x2="708" y1="387" y2="387"/><text fill="#000000" font-family="sans-serif" font-size="14" lengthAdjust="spacing" textLength="129" x="574" y="405.5332">+getSkills(skillName)</text></g><!--class Skill--><g id="elem_Skill"><rect codeLine="36" fill="#F1F1F1" height="65.6094" id="Skill" rx="2.5" ry="2.5" style="stroke:#181818;stroke-width:0.5;" width="76" x="556.5" y="766"/><ellipse cx="580.05" cy="782" fill="#ADD1B2" rx="11" ry="11" style="stroke:#181818;stroke-width:1.0;"/><path d="M582.8156,777.875 Q582.9719,777.6563 583.1594,777.5469 Q583.3469,777.4375 583.5656,777.4375 Q583.9406,777.4375 584.175,777.7031 Q584.4094,777.9531 584.4094,778.5625 L584.4094,780.0156 Q584.4094,780.625 584.175,780.8906 Q583.9406,781.1563 583.5656,781.1563 Q583.2219,781.1563 583.0188,780.9531 Q582.8156,780.7656 582.7063,780.25 Q582.6594,779.8906 582.4719,779.7031 Q582.1438,779.3281 581.5344,779.1094 Q580.925,778.8906 580.3,778.8906 Q579.5344,778.8906 578.8938,779.2188 Q578.2688,779.5469 577.7688,780.2969 Q577.2844,781.0469 577.2844,782.0781 L577.2844,783.1719 Q577.2844,784.4063 578.175,785.2344 Q579.0656,786.0469 580.6594,786.0469 Q581.5969,786.0469 582.2531,785.7969 Q582.6438,785.6406 583.0656,785.2031 Q583.3313,784.9375 583.4719,784.8594 Q583.6281,784.7813 583.8313,784.7813 Q584.1594,784.7813 584.4094,785.0469 Q584.675,785.2969 584.675,785.6406 Q584.675,785.9844 584.3313,786.3906 Q583.8313,786.9688 583.0344,787.2969 Q581.9563,787.75 580.6594,787.75 Q579.1438,787.75 577.9406,787.125 Q576.9563,786.625 576.2688,785.5625 Q575.5813,784.4844 575.5813,783.2031 L575.5813,782.0469 Q575.5813,780.7188 576.1906,779.5781 Q576.8156,778.4219 577.9094,777.8125 Q579.0031,777.1875 580.2375,777.1875 Q580.9719,777.1875 581.6125,777.3594 Q582.2688,777.5156 582.8156,777.875 Z " fill="#000000"/><text fill="#000000" font-family="sans-serif" font-size="14" lengthAdjust="spacing" textLength="25" x="595.95" y="787.7285">Skill</text><line style="stroke:#181818;stroke-width:0.5;" x1="557.5" x2="631.5" y1="798" y2="798"/><text fill="#000000" font-family="sans-serif" font-size="14" lengthAdjust="spacing" textLength="64" x="562.5" y="816.5332">-skillName</text><line style="stroke:#181818;stroke-width:0.5;" x1="557.5" x2="631.5" y1="823.6094" y2="823.6094"/></g><!--class Collaborator--><g id="elem_Collaborator"><rect codeLine="40" fill="#F1F1F1" height="118.4375" id="Collaborator" rx="2.5" ry="2.5" style="stroke:#181818;stroke-width:0.5;" width="274" x="315.5" y="491"/><ellipse cx="409.25" cy="507" fill="#ADD1B2" rx="11" ry="11" style="stroke:#181818;stroke-width:1.0;"/><path d="M412.0156,502.875 Q412.1719,502.6563 412.3594,502.5469 Q412.5469,502.4375 412.7656,502.4375 Q413.1406,502.4375 413.375,502.7031 Q413.6094,502.9531 413.6094,503.5625 L413.6094,505.0156 Q413.6094,505.625 413.375,505.8906 Q413.1406,506.1563 412.7656,506.1563 Q412.4219,506.1563 412.2188,505.9531 Q412.0156,505.7656 411.9063,505.25 Q411.8594,504.8906 411.6719,504.7031 Q411.3438,504.3281 410.7344,504.1094 Q410.125,503.8906 409.5,503.8906 Q408.7344,503.8906 408.0938,504.2188 Q407.4688,504.5469 406.9688,505.2969 Q406.4844,506.0469 406.4844,507.0781 L406.4844,508.1719 Q406.4844,509.4063 407.375,510.2344 Q408.2656,511.0469 409.8594,511.0469 Q410.7969,511.0469 411.4531,510.7969 Q411.8438,510.6406 412.2656,510.2031 Q412.5313,509.9375 412.6719,509.8594 Q412.8281,509.7813 413.0313,509.7813 Q413.3594,509.7813 413.6094,510.0469 Q413.875,510.2969 413.875,510.6406 Q413.875,510.9844 413.5313,511.3906 Q413.0313,511.9688 412.2344,512.2969 Q411.1563,512.75 409.8594,512.75 Q408.3438,512.75 407.1406,512.125 Q406.1563,511.625 405.4688,510.5625 Q404.7813,509.4844 404.7813,508.2031 L404.7813,507.0469 Q404.7813,505.7188 405.3906,504.5781 Q406.0156,503.4219 407.1094,502.8125 Q408.2031,502.1875 409.4375,502.1875 Q410.1719,502.1875 410.8125,502.3594 Q411.4688,502.5156 412.0156,502.875 Z " fill="#000000"/><text fill="#000000" font-family="sans-serif" font-size="14" lengthAdjust="spacing" textLength="78" x="429.75" y="512.7285">Collaborator</text><line style="stroke:#181818;stroke-width:0.5;" x1="316.5" x2="588.5" y1="523" y2="523"/><text fill="#000000" font-family="sans-serif" font-size="14" lengthAdjust="spacing" textLength="40" x="321.5" y="541.5332">-name</text><text fill="#000000" font-family="sans-serif" font-size="14" lengthAdjust="spacing" textLength="117" x="321.5" y="559.1426">-List&lt;Skill&gt; skillList</text><line style="stroke:#181818;stroke-width:0.5;" x1="316.5" x2="588.5" y1="566.2188" y2="566.2188"/><text fill="#000000" font-family="sans-serif" font-size="14" lengthAdjust="spacing" textLength="262" x="321.5" y="584.752">+assignSkill(collaboratorName, skillName)</text><text fill="#000000" font-family="sans-serif" font-size="14" lengthAdjust="spacing" textLength="151" x="321.5" y="602.3613">+validateSkill(skillName)</text></g><!--class HRM--><g id="elem_HRM"><rect codeLine="47" fill="#F1F1F1" height="48" id="HRM" rx="2.5" ry="2.5" style="stroke:#181818;stroke-width:0.5;" width="62" x="744.5" y="356"/><ellipse cx="759.5" cy="372" fill="#ADD1B2" rx="11" ry="11" style="stroke:#181818;stroke-width:1.0;"/><path d="M762.2656,367.875 Q762.4219,367.6563 762.6094,367.5469 Q762.7969,367.4375 763.0156,367.4375 Q763.3906,367.4375 763.625,367.7031 Q763.8594,367.9531 763.8594,368.5625 L763.8594,370.0156 Q763.8594,370.625 763.625,370.8906 Q763.3906,371.1563 763.0156,371.1563 Q762.6719,371.1563 762.4688,370.9531 Q762.2656,370.7656 762.1563,370.25 Q762.1094,369.8906 761.9219,369.7031 Q761.5938,369.3281 760.9844,369.1094 Q760.375,368.8906 759.75,368.8906 Q758.9844,368.8906 758.3438,369.2188 Q757.7188,369.5469 757.2188,370.2969 Q756.7344,371.0469 756.7344,372.0781 L756.7344,373.1719 Q756.7344,374.4063 757.625,375.2344 Q758.5156,376.0469 760.1094,376.0469 Q761.0469,376.0469 761.7031,375.7969 Q762.0938,375.6406 762.5156,375.2031 Q762.7813,374.9375 762.9219,374.8594 Q763.0781,374.7813 763.2813,374.7813 Q763.6094,374.7813 763.8594,375.0469 Q764.125,375.2969 764.125,375.6406 Q764.125,375.9844 763.7813,376.3906 Q763.2813,376.9688 762.4844,377.2969 Q761.4063,377.75 760.1094,377.75 Q758.5938,377.75 757.3906,377.125 Q756.4063,376.625 755.7188,375.5625 Q755.0313,374.4844 755.0313,373.2031 L755.0313,372.0469 Q755.0313,370.7188 755.6406,369.5781 Q756.2656,368.4219 757.3594,367.8125 Q758.4531,367.1875 759.6875,367.1875 Q760.4219,367.1875 761.0625,367.3594 Q761.7188,367.5156 762.2656,367.875 Z " fill="#000000"/><text fill="#000000" font-family="sans-serif" font-size="14" lengthAdjust="spacing" textLength="30" x="773.5" y="377.7285">HRM</text><line style="stroke:#181818;stroke-width:0.5;" x1="745.5" x2="805.5" y1="388" y2="388"/><line style="stroke:#181818;stroke-width:0.5;" x1="745.5" x2="805.5" y1="396" y2="396"/></g><!--link AssignSkillUI to AssignSkillController--><g id="link_AssignSkillUI_AssignSkillController"><path codeLine="50" d="M118.08,66 C129.28,66 139.97,66 147.68,66 " fill="none" id="AssignSkillUI-to-AssignSkillController" style="stroke:#181818;stroke-width:1.0;stroke-dasharray:7.0,7.0;"/><polygon fill="#181818" points="152.95,66,143.95,62,147.95,66,143.95,70,152.95,66" style="stroke:#181818;stroke-width:1.0;"/></g><!--link AssignSkillController to Repositories--><g id="link_AssignSkillController_Repositories"><path codeLine="51" d="M554.21,66 C588.1,66 622.01,66 652.07,66 " fill="none" id="AssignSkillController-to-Repositories" style="stroke:#181818;stroke-width:1.0;stroke-dasharray:7.0,7.0;"/><polygon fill="#181818" points="657.25,66,648.25,62,652.25,66,648.25,70,657.25,66" style="stroke:#181818;stroke-width:1.0;"/><text fill="#000000" font-family="sans-serif" font-size="13" lengthAdjust="spacing" textLength="67" x="572.25" y="59.4951">repositories</text></g><!--link Repositories to SkillRepository--><g id="link_Repositories_SkillRepository"><path codeLine="52" d="M748.01,125.16 C740.33,184.83 729.5,269 729.5,269 C729.5,269 694.8,310.94 668.26,343.03 " fill="none" id="Repositories-to-SkillRepository" style="stroke:#181818;stroke-width:1.0;"/><polygon fill="#181818" points="665.07,346.89,673.8854,342.498,668.254,343.0349,667.7172,337.4036,665.07,346.89" style="stroke:#181818;stroke-width:1.0;"/><text fill="#000000" font-family="sans-serif" font-size="13" lengthAdjust="spacing" textLength="7" x="662.8282" y="335.9827">1</text></g><!--link Repositories to CollaboratorRepository--><g id="link_Repositories_CollaboratorRepository"><path codeLine="53" d="M658.75,125.05 C616.98,150.11 569.51,178.59 533.35,200.29 " fill="none" id="Repositories-to-CollaboratorRepository" style="stroke:#181818;stroke-width:1.0;"/><polygon fill="#181818" points="529,202.9,538.7754,201.6995,533.2875,200.3275,534.6595,194.8396,529,202.9" style="stroke:#181818;stroke-width:1.0;"/><text fill="#000000" font-family="sans-serif" font-size="13" lengthAdjust="spacing" textLength="7" x="532.3125" y="191.9948">1</text></g><!--link Repositories to Repositories--><g id="link_Repositories_Repositories"><path codeLine="54" d="M853.52,48.27 C873.87,50.14 888.5,56.05 888.5,66 C888.5,75.1 876.27,80.82 858.63,83.16 " fill="none" id="Repositories-to-Repositories" style="stroke:#181818;stroke-width:1.0;"/><polygon fill="#181818" points="853.52,83.73,862.9104,86.6998,858.4887,83.1716,862.0169,78.7498,853.52,83.73" style="stroke:#181818;stroke-width:1.0;"/><text fill="#000000" font-family="sans-serif" font-size="13" lengthAdjust="spacing" textLength="49" x="894.5" y="71.4951">instance</text></g><!--link SkillRepository to Skill--><g id="link_SkillRepository_Skill"><path codeLine="56" d="M635.12,413.03 C627.11,488.98 606.98,679.7 598.44,760.69 " fill="none" id="SkillRepository-to-Skill" style="stroke:#181818;stroke-width:1.0;"/><polygon fill="#181818" points="597.89,765.86,602.7949,757.3194,598.4045,760.8865,594.8373,756.4962,597.89,765.86" style="stroke:#181818;stroke-width:1.0;"/><text fill="#000000" font-family="sans-serif" font-size="13" lengthAdjust="spacing" textLength="5" x="593.0736" y="754.9465">*</text></g><!--link CollaboratorRepository to Collaborator--><g id="link_CollaboratorRepository_Collaborator"><path codeLine="57" d="M473.13,269.21 C469.37,320.12 462,420.12 457.16,485.74 " fill="none" id="CollaboratorRepository-to-Collaborator" style="stroke:#181818;stroke-width:1.0;"/><polygon fill="#181818" points="456.79,490.8,461.4476,482.122,457.1615,485.8138,453.4697,481.5277,456.79,490.8" style="stroke:#181818;stroke-width:1.0;"/><text fill="#000000" font-family="sans-serif" font-size="13" lengthAdjust="spacing" textLength="5" x="452.0082" y="480.0999">*</text></g><!--link HRM to Skill--><g id="link_HRM_Skill"><path codeLine="58" d="M765.84,404.02 C732.82,482.69 626.5,736 626.5,736 C626.5,736 620.34,747.93 613.43,761.33 " fill="none" id="HRM-to-Skill" style="stroke:#181818;stroke-width:1.0;"/><polygon fill="#181818" points="611.06,765.91,618.7498,759.7564,613.3587,761.4697,611.6454,756.0786,611.06,765.91" style="stroke:#181818;stroke-width:1.0;"/><text fill="#000000" font-family="sans-serif" font-size="13" lengthAdjust="spacing" textLength="38" x="666.5" y="653.4951">assign</text><text fill="#000000" font-family="sans-serif" font-size="13" lengthAdjust="spacing" textLength="7" x="755.6323" y="425.3628">1</text><text fill="#000000" font-family="sans-serif" font-size="13" lengthAdjust="spacing" textLength="5" x="608.9599" y="755.0068">*</text></g><!--link AssignSkillController to Collaborator--><g id="link_AssignSkillController_Collaborator"><path codeLine="59" d="M357.43,116.67 C362.17,176.48 369.5,269 369.5,269 C369.5,269 409.39,403.56 433.86,486.11 " fill="none" id="AssignSkillController-to-Collaborator" style="stroke:#181818;stroke-width:1.0;stroke-dasharray:7.0,7.0;"/><polygon fill="#181818" points="435.3,490.98,436.5665,481.2129,433.8737,486.1877,428.8989,483.4949,435.3,490.98" style="stroke:#181818;stroke-width:1.0;"/><text fill="#000000" font-family="sans-serif" font-size="13" lengthAdjust="spacing" textLength="67" x="384.5" y="313.4951">collaborator</text><text fill="#000000" font-family="sans-serif" font-size="13" lengthAdjust="spacing" textLength="7" x="425.7772" y="480.3018">1</text></g><!--link AssignSkillController to Skill--><g id="link_AssignSkillController_Skill"><path codeLine="60" d="M326.44,116.95 C299.62,166.47 262.5,235 262.5,235 C262.5,235 262.5,235 262.5,697 C262.5,697 461.61,757.57 551.44,784.9 " fill="none" id="AssignSkillController-to-Skill" style="stroke:#181818;stroke-width:1.0;stroke-dasharray:7.0,7.0;"/><polygon fill="#181818" points="556.42,786.41,548.9753,779.962,551.6368,784.9536,546.6451,787.6151,556.42,786.41" style="stroke:#181818;stroke-width:1.0;"/><text fill="#000000" font-family="sans-serif" font-size="13" lengthAdjust="spacing" textLength="23" x="263.5" y="457.4951">skill</text><text fill="#000000" font-family="sans-serif" font-size="13" lengthAdjust="spacing" textLength="7" x="541.4938" y="780.0509">1</text></g><!--link Collaborator to Skill--><g id="link_Collaborator_Skill"><path codeLine="61" d="M485.97,609.22 C513,656.23 550.2,720.95 573.28,761.09 " fill="none" id="Collaborator-to-Skill" style="stroke:#181818;stroke-width:1.0;"/><polygon fill="#181818" points="576.03,765.86,575.0169,756.0634,573.5401,761.5241,568.0794,760.0473,576.03,765.86" style="stroke:#181818;stroke-width:1.0;"/><text fill="#000000" font-family="sans-serif" font-size="13" lengthAdjust="spacing" textLength="21" x="540.5" y="701.4951">has</text><text fill="#000000" font-family="sans-serif" font-size="13" lengthAdjust="spacing" textLength="7" x="482.6226" y="630.9023">1</text><text fill="#000000" font-family="sans-serif" font-size="13" lengthAdjust="spacing" textLength="5" x="566.7049" y="754.9465">*</text></g><!--link AssignSkillController to CollaboratorRepository--><g id="link_AssignSkillController_CollaboratorRepository"><path codeLine="62" d="M389.77,116.95 C408.9,143.28 431.92,174.99 449.29,198.91 " fill="none" id="AssignSkillController-to-CollaboratorRepository" style="stroke:#181818;stroke-width:1.0;stroke-dasharray:7.0,7.0;"/><polygon fill="#181818" points="452.25,202.98,450.2258,193.3414,449.3236,198.9259,443.7391,198.0237,452.25,202.98" style="stroke:#181818;stroke-width:1.0;"/><text fill="#000000" font-family="sans-serif" font-size="13" lengthAdjust="spacing" textLength="129" x="429.5" y="169.4951">collaboratorRepository</text><text fill="#000000" font-family="sans-serif" font-size="13" lengthAdjust="spacing" textLength="7" x="439.7328" y="192.0913">1</text></g><!--link AssignSkillController to SkillRepository--><g id="link_AssignSkillController_SkillRepository"><path codeLine="63" d="M473.95,116.53 C522.61,136.54 567.5,155 567.5,155 C567.5,155 606.63,278.45 626.79,342.06 " fill="none" id="AssignSkillController-to-SkillRepository" style="stroke:#181818;stroke-width:1.0;stroke-dasharray:7.0,7.0;"/><polygon fill="#181818" points="628.33,346.91,629.4117,337.1207,626.8134,342.1456,621.7886,339.5473,628.33,346.91" style="stroke:#181818;stroke-width:1.0;"/><text fill="#000000" font-family="sans-serif" font-size="13" lengthAdjust="spacing" textLength="85" x="603.5" y="241.4951">skillRepository</text><text fill="#000000" font-family="sans-serif" font-size="13" lengthAdjust="spacing" textLength="7" x="618.5106" y="336.0068">1</text></g><!--SRC=[VLD1Ri8m4Bpx5QjUW9PKxHLLI8XBaTeUG7s02KjYOUp8DgrInD_hE0dOYKCk1C_CxdXdCz879Wggw16EKiWqL_A8ODG9oGqfQ7gW6MvCoH4KfeQAZFi4dTET_6KYWptbsaSu4sZA0g6GlAp-a544bCf8ugbIJhLU6AFOzcHmbKgnONy8BuICEEuD60cAPRc17QliC2a8SHfOQCqoiJamphzNPt8X4M0fXL6ISrHd0lPvYeFZrFxGhLJKIBN6GcfcNyefw8ftEvWqHJ8qIq-XnnxWIkknKtxH8rheqZgxLcAeeNQK18T-ePNGTlefZYSm2qXn4pUNFJS1T3KJ5yDvw8x2NUOgxrJsTVqHXAhsvbT2t5HBgnethnzCcpTNOrwhguEcCRqb6-HPDPY2duUZ_r3ETjHWBOXvVLz_khKA5WsUv_4T8j7JYXwaFhDVbHTbW2N971vU7xgZZPFYyNMulUQiMIf2klcvkezDSpAm72t9XucTatEK944DswsEP6WozkbVnQhyyEveMtNRJFUCDwv2JpdLWqNlJRPZp1lveCLecgrJhy0_]--></g></svg>