<?xml version="1.0" encoding="UTF-8" standalone="no"?><svg xmlns="http://www.w3.org/2000/svg" xmlns:xlink="http://www.w3.org/1999/xlink" contentStyleType="text/css" height="1054px" preserveAspectRatio="none" style="width:1265px;height:1054px;background:#FFFFFF;" version="1.1" viewBox="0 0 1265 1054" width="1265px" zoomAndPan="magnify"><defs/><g><rect fill="#FFFFFF" height="826.8594" style="stroke:#181818;stroke-width:1.0;" width="10" x="63" y="110.2188"/><rect fill="#FFFFFF" height="226.6484" style="stroke:#181818;stroke-width:1.0;" width="10" x="316" y="132.5703"/><rect fill="#FFFFFF" height="167.6875" style="stroke:#181818;stroke-width:1.0;" width="10" x="316" y="389.5703"/><rect fill="#FFFFFF" height="349.4688" style="stroke:#181818;stroke-width:1.0;" width="10" x="316" y="587.6094"/><rect fill="#FFFFFF" height="106.9844" style="stroke:#181818;stroke-width:1.0;" width="10" x="600" y="205.5313"/><rect fill="#FFFFFF" height="106.9844" style="stroke:#181818;stroke-width:1.0;" width="10" x="600" y="419.9219"/><rect fill="#FFFFFF" height="288.7656" style="stroke:#181818;stroke-width:1.0;" width="10" x="600" y="617.9609"/><rect fill="#FFFFFF" height="228.0625" style="stroke:#181818;stroke-width:1.0;" width="10" x="884" y="648.3125"/><rect fill="#FFFFFF" height="167.3594" style="stroke:#181818;stroke-width:1.0;" width="10" x="1168" y="678.6641"/><line style="stroke:#181818;stroke-width:0.5;stroke-dasharray:5.0,5.0;" x1="68" x2="68" y1="100.2188" y2="955.0781"/><line style="stroke:#181818;stroke-width:0.5;stroke-dasharray:5.0,5.0;" x1="320.5" x2="320.5" y1="100.2188" y2="955.0781"/><line style="stroke:#181818;stroke-width:0.5;stroke-dasharray:5.0,5.0;" x1="604.5" x2="604.5" y1="171.875" y2="955.0781"/><line style="stroke:#181818;stroke-width:0.5;stroke-dasharray:5.0,5.0;" x1="888.5" x2="888.5" y1="100.2188" y2="955.0781"/><line style="stroke:#181818;stroke-width:0.5;stroke-dasharray:5.0,5.0;" x1="1172.5" x2="1172.5" y1="100.2188" y2="955.0781"/><text fill="#000000" font-family="sans-serif" font-size="14" lengthAdjust="spacing" textLength="116" x="5" y="79.5332">Human Resources</text><text fill="#000000" font-family="sans-serif" font-size="14" lengthAdjust="spacing" textLength="100" x="17" y="97.1426">Manager (HRM)</text><ellipse cx="68" cy="13.5" fill="#E3E3E3" rx="8" ry="8" style="stroke:#181818;stroke-width:0.5;"/><path d="M68,21.5 L68,48.5 M55,29.5 L81,29.5 M68,48.5 L55,63.5 M68,48.5 L81,63.5 " fill="none" style="stroke:#181818;stroke-width:0.5;"/><text fill="#000000" font-family="sans-serif" font-size="14" lengthAdjust="spacing" textLength="116" x="5" y="968.6113">Human Resources</text><text fill="#000000" font-family="sans-serif" font-size="14" lengthAdjust="spacing" textLength="100" x="17" y="986.2207">Manager (HRM)</text><ellipse cx="68" cy="997.7969" fill="#E3E3E3" rx="8" ry="8" style="stroke:#181818;stroke-width:0.5;"/><path d="M68,1005.7969 L68,1032.7969 M55,1013.7969 L81,1013.7969 M68,1032.7969 L55,1047.7969 M68,1032.7969 L81,1047.7969 " fill="none" style="stroke:#181818;stroke-width:0.5;"/><rect fill="#E3E3E3" height="31.6094" rx="2.5" ry="2.5" style="stroke:#181818;stroke-width:0.5;" width="97" x="272.5" y="67.6094"/><text fill="#000000" font-family="sans-serif" font-size="14" lengthAdjust="spacing" textLength="83" x="279.5" y="89.1426">:AssignSkillUI</text><rect fill="#E3E3E3" height="31.6094" rx="2.5" ry="2.5" style="stroke:#181818;stroke-width:0.5;" width="97" x="272.5" y="954.0781"/><text fill="#000000" font-family="sans-serif" font-size="14" lengthAdjust="spacing" textLength="83" x="279.5" y="975.6113">:AssignSkillUI</text><rect fill="#E3E3E3" height="31.6094" rx="2.5" ry="2.5" style="stroke:#181818;stroke-width:0.5;" width="147" x="531.5" y="954.0781"/><text fill="#000000" font-family="sans-serif" font-size="14" lengthAdjust="spacing" textLength="133" x="538.5" y="975.6113">:AssignSkillController</text><rect fill="#E3E3E3" height="49.2188" rx="2.5" ry="2.5" style="stroke:#181818;stroke-width:0.5;" width="97" x="840.5" y="50"/><text fill="#000000" font-family="sans-serif" font-size="14" lengthAdjust="spacing" textLength="74" x="852" y="71.5332">repositories</text><text fill="#000000" font-family="sans-serif" font-size="14" lengthAdjust="spacing" textLength="83" x="847.5" y="89.1426">:Repositories</text><rect fill="#E3E3E3" height="49.2188" rx="2.5" ry="2.5" style="stroke:#181818;stroke-width:0.5;" width="97" x="840.5" y="954.0781"/><text fill="#000000" font-family="sans-serif" font-size="14" lengthAdjust="spacing" textLength="74" x="852" y="975.6113">repositories</text><text fill="#000000" font-family="sans-serif" font-size="14" lengthAdjust="spacing" textLength="83" x="847.5" y="993.2207">:Repositories</text><rect fill="#E3E3E3" height="31.6094" rx="2.5" ry="2.5" style="stroke:#181818;stroke-width:0.5;" width="167" x="1089.5" y="67.6094"/><text fill="#000000" font-family="sans-serif" font-size="14" lengthAdjust="spacing" textLength="153" x="1096.5" y="89.1426">CollaboratorsRepository</text><rect fill="#E3E3E3" height="31.6094" rx="2.5" ry="2.5" style="stroke:#181818;stroke-width:0.5;" width="167" x="1089.5" y="954.0781"/><text fill="#000000" font-family="sans-serif" font-size="14" lengthAdjust="spacing" textLength="153" x="1096.5" y="975.6113">CollaboratorsRepository</text><rect fill="#FFFFFF" height="826.8594" style="stroke:#181818;stroke-width:1.0;" width="10" x="63" y="110.2188"/><rect fill="#FFFFFF" height="226.6484" style="stroke:#181818;stroke-width:1.0;" width="10" x="316" y="132.5703"/><rect fill="#FFFFFF" height="167.6875" style="stroke:#181818;stroke-width:1.0;" width="10" x="316" y="389.5703"/><rect fill="#FFFFFF" height="349.4688" style="stroke:#181818;stroke-width:1.0;" width="10" x="316" y="587.6094"/><rect fill="#FFFFFF" height="106.9844" style="stroke:#181818;stroke-width:1.0;" width="10" x="600" y="205.5313"/><rect fill="#FFFFFF" height="106.9844" style="stroke:#181818;stroke-width:1.0;" width="10" x="600" y="419.9219"/><rect fill="#FFFFFF" height="288.7656" style="stroke:#181818;stroke-width:1.0;" width="10" x="600" y="617.9609"/><rect fill="#FFFFFF" height="228.0625" style="stroke:#181818;stroke-width:1.0;" width="10" x="884" y="648.3125"/><rect fill="#FFFFFF" height="167.3594" style="stroke:#181818;stroke-width:1.0;" width="10" x="1168" y="678.6641"/><polygon fill="#181818" points="304,128.5703,314,132.5703,304,136.5703,308,132.5703" style="stroke:#181818;stroke-width:1.0;"/><line style="stroke:#181818;stroke-width:1.0;" x1="73" x2="310" y1="132.5703" y2="132.5703"/><text fill="#000000" font-family="sans-serif" font-size="13" font-weight="bold" lengthAdjust="spacing" textLength="7" x="80" y="127.7139">1</text><text fill="#000000" font-family="sans-serif" font-size="13" lengthAdjust="spacing" textLength="203" x="91" y="127.7139">asks to add a skill to a collaborator</text><polygon fill="#181818" points="519.5,158.9219,529.5,162.9219,519.5,166.9219,523.5,162.9219" style="stroke:#181818;stroke-width:1.0;"/><line style="stroke:#181818;stroke-width:1.0;" x1="326" x2="525.5" y1="162.9219" y2="162.9219"/><text fill="#000000" font-family="sans-serif" font-size="13" font-weight="bold" lengthAdjust="spacing" textLength="7" x="333" y="158.0654">2</text><text fill="#000000" font-family="sans-serif" font-size="13" lengthAdjust="spacing" textLength="36" x="344" y="158.0654">create</text><rect fill="#E3E3E3" height="31.6094" rx="2.5" ry="2.5" style="stroke:#181818;stroke-width:0.5;" width="147" x="531.5" y="140.5703"/><text fill="#000000" font-family="sans-serif" font-size="14" lengthAdjust="spacing" textLength="133" x="538.5" y="162.1035">:AssignSkillController</text><polygon fill="#181818" points="588,201.5313,598,205.5313,588,209.5313,592,205.5313" style="stroke:#181818;stroke-width:1.0;"/><line style="stroke:#181818;stroke-width:1.0;" x1="326" x2="594" y1="205.5313" y2="205.5313"/><text fill="#000000" font-family="sans-serif" font-size="13" font-weight="bold" lengthAdjust="spacing" textLength="7" x="333" y="200.6748">3</text><text fill="#000000" font-family="sans-serif" font-size="13" lengthAdjust="spacing" textLength="102" x="344" y="200.6748">getCollaborators()</text><rect fill="none" height="71.6328" style="stroke:#000000;stroke-width:1.5;" width="153" x="528.5" y="213.5313"/><path d="M528.5,213.5313 L590.5,213.5313 L590.5,221.5313 L580.5,231.5313 L528.5,231.5313 L528.5,213.5313 " fill="#EEEEEE" style="stroke:#000000;stroke-width:2.0;"/><text fill="#000000" font-family="sans-serif" font-size="13" font-weight="bold" lengthAdjust="spacing" textLength="17" x="541.5" y="229.0264">ref</text><text fill="#000000" font-family="sans-serif" font-size="12" lengthAdjust="spacing" textLength="3" x="603.5" y="247.9883"> </text><text fill="#000000" font-family="sans-serif" font-size="12" lengthAdjust="spacing" textLength="90" x="560" y="263.082">Get Collaborator</text><text fill="#000000" font-family="sans-serif" font-size="12" lengthAdjust="spacing" textLength="3" x="603.5" y="278.1758"> </text><polygon fill="#181818" points="337,308.5156,327,312.5156,337,316.5156,333,312.5156" style="stroke:#181818;stroke-width:1.0;"/><line style="stroke:#181818;stroke-width:1.0;stroke-dasharray:2.0,2.0;" x1="331" x2="604" y1="312.5156" y2="312.5156"/><text fill="#000000" font-family="sans-serif" font-size="13" font-weight="bold" lengthAdjust="spacing" textLength="7" x="343" y="307.6592">4</text><text fill="#000000" font-family="sans-serif" font-size="13" lengthAdjust="spacing" textLength="95" x="354" y="307.6592">collaboratorsList</text><polygon fill="#181818" points="84,355.2188,74,359.2188,84,363.2188,80,359.2188" style="stroke:#181818;stroke-width:1.0;"/><line style="stroke:#181818;stroke-width:1.0;stroke-dasharray:2.0,2.0;" x1="78" x2="320" y1="359.2188" y2="359.2188"/><text fill="#000000" font-family="sans-serif" font-size="13" font-weight="bold" lengthAdjust="spacing" textLength="7" x="90" y="346.1865">5</text><text fill="#000000" font-family="sans-serif" font-size="13" lengthAdjust="spacing" textLength="136" x="101" y="338.0107">shows collaborators list</text><text fill="#000000" font-family="sans-serif" font-size="13" lengthAdjust="spacing" textLength="91" x="105" y="354.3623">to assign skill/s</text><polygon fill="#181818" points="304,385.5703,314,389.5703,304,393.5703,308,389.5703" style="stroke:#181818;stroke-width:1.0;"/><line style="stroke:#181818;stroke-width:1.0;" x1="73" x2="310" y1="389.5703" y2="389.5703"/><text fill="#000000" font-family="sans-serif" font-size="13" font-weight="bold" lengthAdjust="spacing" textLength="7" x="80" y="384.7139">6</text><text fill="#000000" font-family="sans-serif" font-size="13" lengthAdjust="spacing" textLength="113" x="91" y="384.7139">choose collaborator</text><polygon fill="#181818" points="588,415.9219,598,419.9219,588,423.9219,592,419.9219" style="stroke:#181818;stroke-width:1.0;"/><line style="stroke:#181818;stroke-width:1.0;" x1="326" x2="594" y1="419.9219" y2="419.9219"/><text fill="#000000" font-family="sans-serif" font-size="13" font-weight="bold" lengthAdjust="spacing" textLength="7" x="333" y="415.0654">7</text><text fill="#000000" font-family="sans-serif" font-size="13" lengthAdjust="spacing" textLength="156" x="344" y="415.0654">getSkill (collaboratorName)</text><rect fill="none" height="71.6328" style="stroke:#000000;stroke-width:1.5;" width="153" x="528.5" y="427.9219"/><path d="M528.5,427.9219 L590.5,427.9219 L590.5,435.9219 L580.5,445.9219 L528.5,445.9219 L528.5,427.9219 " fill="#EEEEEE" style="stroke:#000000;stroke-width:2.0;"/><text fill="#000000" font-family="sans-serif" font-size="13" font-weight="bold" lengthAdjust="spacing" textLength="17" x="541.5" y="443.417">ref</text><text fill="#000000" font-family="sans-serif" font-size="12" lengthAdjust="spacing" textLength="3" x="603.5" y="462.3789"> </text><text fill="#000000" font-family="sans-serif" font-size="12" lengthAdjust="spacing" textLength="45" x="582.5" y="477.4727">Get Skill</text><text fill="#000000" font-family="sans-serif" font-size="12" lengthAdjust="spacing" textLength="3" x="603.5" y="492.5664"> </text><polygon fill="#181818" points="337,522.9063,327,526.9063,337,530.9063,333,526.9063" style="stroke:#181818;stroke-width:1.0;"/><line style="stroke:#181818;stroke-width:1.0;stroke-dasharray:2.0,2.0;" x1="331" x2="604" y1="526.9063" y2="526.9063"/><text fill="#000000" font-family="sans-serif" font-size="13" font-weight="bold" lengthAdjust="spacing" textLength="7" x="343" y="522.0498">8</text><text fill="#000000" font-family="sans-serif" font-size="13" lengthAdjust="spacing" textLength="44" x="354" y="522.0498">skillList</text><polygon fill="#181818" points="84,553.2578,74,557.2578,84,561.2578,80,557.2578" style="stroke:#181818;stroke-width:1.0;"/><line style="stroke:#181818;stroke-width:1.0;stroke-dasharray:2.0,2.0;" x1="78" x2="320" y1="557.2578" y2="557.2578"/><text fill="#000000" font-family="sans-serif" font-size="13" font-weight="bold" lengthAdjust="spacing" textLength="7" x="90" y="552.4014">9</text><text fill="#000000" font-family="sans-serif" font-size="13" lengthAdjust="spacing" textLength="85" x="101" y="552.4014">show skills list</text><polygon fill="#181818" points="304,583.6094,314,587.6094,304,591.6094,308,587.6094" style="stroke:#181818;stroke-width:1.0;"/><line style="stroke:#181818;stroke-width:1.0;" x1="73" x2="310" y1="587.6094" y2="587.6094"/><text fill="#000000" font-family="sans-serif" font-size="13" font-weight="bold" lengthAdjust="spacing" textLength="14" x="80" y="582.7529">10</text><text fill="#000000" font-family="sans-serif" font-size="13" lengthAdjust="spacing" textLength="206" x="98" y="582.7529">choose one or more skills to assign</text><polygon fill="#181818" points="588,613.9609,598,617.9609,588,621.9609,592,617.9609" style="stroke:#181818;stroke-width:1.0;"/><line style="stroke:#181818;stroke-width:1.0;" x1="326" x2="594" y1="617.9609" y2="617.9609"/><text fill="#000000" font-family="sans-serif" font-size="13" font-weight="bold" lengthAdjust="spacing" textLength="14" x="333" y="613.1045">11</text><text fill="#000000" font-family="sans-serif" font-size="13" lengthAdjust="spacing" textLength="237" x="351" y="613.1045">assignSkill(collaboratorName, skillName)</text><polygon fill="#181818" points="872,644.3125,882,648.3125,872,652.3125,876,648.3125" style="stroke:#181818;stroke-width:1.0;"/><line style="stroke:#181818;stroke-width:1.0;" x1="610" x2="878" y1="648.3125" y2="648.3125"/><text fill="#000000" font-family="sans-serif" font-size="13" font-weight="bold" lengthAdjust="spacing" textLength="14" x="617" y="643.4561">12</text><text fill="#000000" font-family="sans-serif" font-size="13" lengthAdjust="spacing" textLength="237" x="635" y="643.4561">assignSkill(collaboratorName, skillName)</text><polygon fill="#181818" points="1156,674.6641,1166,678.6641,1156,682.6641,1160,678.6641" style="stroke:#181818;stroke-width:1.0;"/><line style="stroke:#181818;stroke-width:1.0;" x1="894" x2="1162" y1="678.6641" y2="678.6641"/><text fill="#000000" font-family="sans-serif" font-size="13" font-weight="bold" lengthAdjust="spacing" textLength="14" x="901" y="673.8076">13</text><text fill="#000000" font-family="sans-serif" font-size="13" lengthAdjust="spacing" textLength="237" x="919" y="673.8076">assignSkill(collaboratorName, skillName)</text><rect fill="none" height="132.0078" style="stroke:#000000;stroke-width:1.5;" width="173" x="1086.5" y="686.6641"/><path d="M1086.5,686.6641 L1148.5,686.6641 L1148.5,694.6641 L1138.5,704.6641 L1086.5,704.6641 L1086.5,686.6641 " fill="#EEEEEE" style="stroke:#000000;stroke-width:2.0;"/><text fill="#000000" font-family="sans-serif" font-size="13" font-weight="bold" lengthAdjust="spacing" textLength="17" x="1099.5" y="702.1592">ref</text><text fill="#000000" font-family="sans-serif" font-size="12" lengthAdjust="spacing" textLength="3" x="1171.5" y="721.1211"> </text><text fill="#000000" font-family="sans-serif" font-size="12" lengthAdjust="spacing" textLength="3" x="1171.5" y="736.2148"> </text><text fill="#000000" font-family="sans-serif" font-size="12" lengthAdjust="spacing" textLength="3" x="1171.5" y="751.3086"> </text><text fill="#000000" font-family="sans-serif" font-size="12" lengthAdjust="spacing" textLength="64" x="1141" y="766.4023">Assign Skill</text><text fill="#000000" font-family="sans-serif" font-size="12" lengthAdjust="spacing" textLength="3" x="1171.5" y="781.4961"> </text><text fill="#000000" font-family="sans-serif" font-size="12" lengthAdjust="spacing" textLength="3" x="1171.5" y="796.5898"> </text><text fill="#000000" font-family="sans-serif" font-size="12" lengthAdjust="spacing" textLength="3" x="1171.5" y="811.6836"> </text><polygon fill="#181818" points="905,842.0234,895,846.0234,905,850.0234,901,846.0234" style="stroke:#181818;stroke-width:1.0;"/><line style="stroke:#181818;stroke-width:1.0;stroke-dasharray:2.0,2.0;" x1="899" x2="1172" y1="846.0234" y2="846.0234"/><text fill="#000000" font-family="sans-serif" font-size="13" font-weight="bold" lengthAdjust="spacing" textLength="14" x="911" y="841.167">14</text><text fill="#000000" font-family="sans-serif" font-size="13" lengthAdjust="spacing" textLength="23" x="929" y="841.167">skill</text><polygon fill="#181818" points="621,872.375,611,876.375,621,880.375,617,876.375" style="stroke:#181818;stroke-width:1.0;"/><line style="stroke:#181818;stroke-width:1.0;stroke-dasharray:2.0,2.0;" x1="615" x2="888" y1="876.375" y2="876.375"/><text fill="#000000" font-family="sans-serif" font-size="13" font-weight="bold" lengthAdjust="spacing" textLength="14" x="627" y="871.5186">15</text><text fill="#000000" font-family="sans-serif" font-size="13" lengthAdjust="spacing" textLength="23" x="645" y="871.5186">skill</text><polygon fill="#181818" points="337,902.7266,327,906.7266,337,910.7266,333,906.7266" style="stroke:#181818;stroke-width:1.0;"/><line style="stroke:#181818;stroke-width:1.0;stroke-dasharray:2.0,2.0;" x1="331" x2="604" y1="906.7266" y2="906.7266"/><text fill="#000000" font-family="sans-serif" font-size="13" font-weight="bold" lengthAdjust="spacing" textLength="14" x="343" y="901.8701">16</text><text fill="#000000" font-family="sans-serif" font-size="13" lengthAdjust="spacing" textLength="23" x="361" y="901.8701">skill</text><polygon fill="#181818" points="79,933.0781,69,937.0781,79,941.0781,75,937.0781" style="stroke:#181818;stroke-width:1.0;"/><line style="stroke:#181818;stroke-width:1.0;stroke-dasharray:2.0,2.0;" x1="73" x2="320" y1="937.0781" y2="937.0781"/><text fill="#000000" font-family="sans-serif" font-size="13" font-weight="bold" lengthAdjust="spacing" textLength="14" x="85" y="932.2217">17</text><text fill="#000000" font-family="sans-serif" font-size="13" lengthAdjust="spacing" textLength="158" x="103" y="932.2217">displays operation success</text><!--SRC=[xLLDRzim3BthLn2zB1cMRitMelEXM9Tr_K0o1FdeBhqejf88iKL3ajFbtu-I5yTER1H3iSE060WGIO-Fv1D5cfLKATSyWGGLXakDYG2hCy5CSPBoSCKNOcmtiG0jGilL8Yu3p997-2pL0kOyDe8ndbbKMJ8Jch4tIna9c2FQ6VvYFBIeuUGkIxY2aJ2OwL0OU58mu8gSQ6ZTZGRj4-06w0yZ1rQ6CkNAmabmROnSgF5Anl7qtcEczysG7YghCOw5zj3UPDIlWhL8qKWAI0hpf89HQUajXlth2QkQz8YFpr1pWfd2O9Cxg3zZBccvvbRuZ1Zy-MW1dIlA00AoNXcm23oAW8DnqVibX2NEdMb1IEdlTjr7RCJfKdtxbdX3BGZM1270GjXAsArs1LiuykBHvSy1rtH9VidWLjXArhGbL5HrvpxlhBDDjfoJwKjZA_X8L9qUn4uqJhg0oWwVJPKDOgAZOdBQ-KB8jNnlM0sz4s__8i8beX5LsGyKhn7H5noqodO_U28gQkxbLIUcfpbGiIgVpwWgMxDc1uBbvhbGjGHRLQ116bJqqzGkjDXo5MepgAtG-jBZkvTweDkxd7fFmgOaStsk_7jz7N7-uejzJ-WYhd_PhqoYgLqKq5s5D45BuBpnRIke_6oec1nLMR26V3ex4NtezHNsOjovRBkRRkRQqxkcqF-wo2DfqfXl360gA4Q9r0Eoa8QCURdSI_jvg_v2scK9wMd- -PmyJiRZP3nEnkDaF4x6usJydoRZCARsFntqWQx3ECwpq-w7xiVJizOuK_10mwpx6SwwmVbbS7u1Fsycu8xRh7Kxx4C-vLnaLijPvc9gimU-vZ3Ab9M92C2jMfD16yOtsqsuKMkfKIL2MVRmECX1S8TsdABru8jFdQ-IkeRGhaeU1-oRcFCijcGQOaGZE83fv7ldalLfI6SqNWD8BUiXET2R08QJtm00]--></g></svg>