<?xml version="1.0" encoding="UTF-8" standalone="no"?><svg xmlns="http://www.w3.org/2000/svg" xmlns:xlink="http://www.w3.org/1999/xlink" contentStyleType="text/css" height="821px" preserveAspectRatio="none" style="width:956px;height:821px;background:#FFFFFF;" version="1.1" viewBox="0 0 956 821" width="956px" zoomAndPan="magnify"><defs/><g><!--class AssignSkillUI--><g id="elem_AssignSkillUI"><rect codeLine="11" fill="#F1F1F1" height="48" id="AssignSkillUI" rx="2.5" ry="2.5" style="stroke:#181818;stroke-width:0.5;" width="111" x="7" y="42"/><ellipse cx="22" cy="58" fill="#ADD1B2" rx="11" ry="11" style="stroke:#181818;stroke-width:1.0;"/><path d="M24.7656,53.875 Q24.9219,53.6563 25.1094,53.5469 Q25.2969,53.4375 25.5156,53.4375 Q25.8906,53.4375 26.125,53.7031 Q26.3594,53.9531 26.3594,54.5625 L26.3594,56.0156 Q26.3594,56.625 26.125,56.8906 Q25.8906,57.1563 25.5156,57.1563 Q25.1719,57.1563 24.9688,56.9531 Q24.7656,56.7656 24.6563,56.25 Q24.6094,55.8906 24.4219,55.7031 Q24.0938,55.3281 23.4844,55.1094 Q22.875,54.8906 22.25,54.8906 Q21.4844,54.8906 20.8438,55.2188 Q20.2188,55.5469 19.7188,56.2969 Q19.2344,57.0469 19.2344,58.0781 L19.2344,59.1719 Q19.2344,60.4063 20.125,61.2344 Q21.0156,62.0469 22.6094,62.0469 Q23.5469,62.0469 24.2031,61.7969 Q24.5938,61.6406 25.0156,61.2031 Q25.2813,60.9375 25.4219,60.8594 Q25.5781,60.7813 25.7813,60.7813 Q26.1094,60.7813 26.3594,61.0469 Q26.625,61.2969 26.625,61.6406 Q26.625,61.9844 26.2813,62.3906 Q25.7813,62.9688 24.9844,63.2969 Q23.9063,63.75 22.6094,63.75 Q21.0938,63.75 19.8906,63.125 Q18.9063,62.625 18.2188,61.5625 Q17.5313,60.4844 17.5313,59.2031 L17.5313,58.0469 Q17.5313,56.7188 18.1406,55.5781 Q18.7656,54.4219 19.8594,53.8125 Q20.9531,53.1875 22.1875,53.1875 Q22.9219,53.1875 23.5625,53.3594 Q24.2188,53.5156 24.7656,53.875 Z " fill="#000000"/><text fill="#000000" font-family="sans-serif" font-size="14" lengthAdjust="spacing" textLength="79" x="36" y="63.7285">AssignSkillUI</text><line style="stroke:#181818;stroke-width:0.5;" x1="8" x2="117" y1="74" y2="74"/><line style="stroke:#181818;stroke-width:0.5;" x1="8" x2="117" y1="82" y2="82"/></g><!--class AssignSkillController--><g id="elem_AssignSkillController"><rect codeLine="15" fill="#F1F1F1" height="100.8281" id="AssignSkillController" rx="2.5" ry="2.5" style="stroke:#181818;stroke-width:0.5;" width="401" x="153" y="15.5"/><ellipse cx="284.75" cy="31.5" fill="#ADD1B2" rx="11" ry="11" style="stroke:#181818;stroke-width:1.0;"/><path d="M287.5156,27.375 Q287.6719,27.1563 287.8594,27.0469 Q288.0469,26.9375 288.2656,26.9375 Q288.6406,26.9375 288.875,27.2031 Q289.1094,27.4531 289.1094,28.0625 L289.1094,29.5156 Q289.1094,30.125 288.875,30.3906 Q288.6406,30.6563 288.2656,30.6563 Q287.9219,30.6563 287.7188,30.4531 Q287.5156,30.2656 287.4063,29.75 Q287.3594,29.3906 287.1719,29.2031 Q286.8438,28.8281 286.2344,28.6094 Q285.625,28.3906 285,28.3906 Q284.2344,28.3906 283.5938,28.7188 Q282.9688,29.0469 282.4688,29.7969 Q281.9844,30.5469 281.9844,31.5781 L281.9844,32.6719 Q281.9844,33.9063 282.875,34.7344 Q283.7656,35.5469 285.3594,35.5469 Q286.2969,35.5469 286.9531,35.2969 Q287.3438,35.1406 287.7656,34.7031 Q288.0313,34.4375 288.1719,34.3594 Q288.3281,34.2813 288.5313,34.2813 Q288.8594,34.2813 289.1094,34.5469 Q289.375,34.7969 289.375,35.1406 Q289.375,35.4844 289.0313,35.8906 Q288.5313,36.4688 287.7344,36.7969 Q286.6563,37.25 285.3594,37.25 Q283.8438,37.25 282.6406,36.625 Q281.6563,36.125 280.9688,35.0625 Q280.2813,33.9844 280.2813,32.7031 L280.2813,31.5469 Q280.2813,30.2188 280.8906,29.0781 Q281.5156,27.9219 282.6094,27.3125 Q283.7031,26.6875 284.9375,26.6875 Q285.6719,26.6875 286.3125,26.8594 Q286.9688,27.0156 287.5156,27.375 Z " fill="#000000"/><text fill="#000000" font-family="sans-serif" font-size="14" lengthAdjust="spacing" textLength="129" x="305.25" y="37.2285">AssignSkillController</text><line style="stroke:#181818;stroke-width:0.5;" x1="154" x2="553" y1="47.5" y2="47.5"/><line style="stroke:#181818;stroke-width:0.5;" x1="154" x2="553" y1="55.5" y2="55.5"/><text fill="#000000" font-family="sans-serif" font-size="14" lengthAdjust="spacing" textLength="389" x="159" y="74.0332">+AssignSkillController(collaboratorRepository, skillRepository)</text><text fill="#000000" font-family="sans-serif" font-size="14" lengthAdjust="spacing" textLength="123" x="159" y="91.6426">+getCollaborators()</text><text fill="#000000" font-family="sans-serif" font-size="14" lengthAdjust="spacing" textLength="129" x="159" y="109.252">+getSkills(skillName)</text></g><!--class Repositories--><g id="elem_Repositories"><rect codeLine="21" fill="#F1F1F1" height="118.4375" id="Repositories" rx="2.5" ry="2.5" style="stroke:#181818;stroke-width:0.5;" width="196" x="657.5" y="7"/><ellipse cx="711.75" cy="23" fill="#ADD1B2" rx="11" ry="11" style="stroke:#181818;stroke-width:1.0;"/><path d="M714.5156,18.875 Q714.6719,18.6563 714.8594,18.5469 Q715.0469,18.4375 715.2656,18.4375 Q715.6406,18.4375 715.875,18.7031 Q716.1094,18.9531 716.1094,19.5625 L716.1094,21.0156 Q716.1094,21.625 715.875,21.8906 Q715.6406,22.1563 715.2656,22.1563 Q714.9219,22.1563 714.7188,21.9531 Q714.5156,21.7656 714.4063,21.25 Q714.3594,20.8906 714.1719,20.7031 Q713.8438,20.3281 713.2344,20.1094 Q712.625,19.8906 712,19.8906 Q711.2344,19.8906 710.5938,20.2188 Q709.9688,20.5469 709.4688,21.2969 Q708.9844,22.0469 708.9844,23.0781 L708.9844,24.1719 Q708.9844,25.4063 709.875,26.2344 Q710.7656,27.0469 712.3594,27.0469 Q713.2969,27.0469 713.9531,26.7969 Q714.3438,26.6406 714.7656,26.2031 Q715.0313,25.9375 715.1719,25.8594 Q715.3281,25.7813 715.5313,25.7813 Q715.8594,25.7813 716.1094,26.0469 Q716.375,26.2969 716.375,26.6406 Q716.375,26.9844 716.0313,27.3906 Q715.5313,27.9688 714.7344,28.2969 Q713.6563,28.75 712.3594,28.75 Q710.8438,28.75 709.6406,28.125 Q708.6563,27.625 707.9688,26.5625 Q707.2813,25.4844 707.2813,24.2031 L707.2813,23.0469 Q707.2813,21.7188 707.8906,20.5781 Q708.5156,19.4219 709.6094,18.8125 Q710.7031,18.1875 711.9375,18.1875 Q712.6719,18.1875 713.3125,18.3594 Q713.9688,18.5156 714.5156,18.875 Z " fill="#000000"/><text fill="#000000" font-family="sans-serif" font-size="14" lengthAdjust="spacing" textLength="79" x="732.25" y="28.7285">Repositories</text><line style="stroke:#181818;stroke-width:0.5;" x1="658.5" x2="852.5" y1="39" y2="39"/><line style="stroke:#181818;stroke-width:0.5;" x1="658.5" x2="852.5" y1="47" y2="47"/><text fill="#000000" font-family="sans-serif" font-size="14" lengthAdjust="spacing" textLength="94" x="663.5" y="65.5332">-Repositories()</text><text fill="#000000" font-family="sans-serif" font-size="14" lengthAdjust="spacing" textLength="182" x="663.5" y="83.1426">+getInstance() : Repositories</text><text fill="#000000" font-family="sans-serif" font-size="14" lengthAdjust="spacing" textLength="184" x="663.5" y="100.752">+getCollaboratorRepository()</text><text fill="#000000" font-family="sans-serif" font-size="14" lengthAdjust="spacing" textLength="131" x="663.5" y="118.3613">+getSkillRepository()</text></g><!--class CollaboratorRepository--><g id="elem_CollaboratorRepository"><rect codeLine="28" fill="#F1F1F1" height="65.6094" id="CollaboratorRepository" rx="2.5" ry="2.5" style="stroke:#181818;stroke-width:0.5;" width="178" x="386.5" y="203"/><ellipse cx="401.5" cy="219" fill="#ADD1B2" rx="11" ry="11" style="stroke:#181818;stroke-width:1.0;"/><path d="M404.2656,214.875 Q404.4219,214.6563 404.6094,214.5469 Q404.7969,214.4375 405.0156,214.4375 Q405.3906,214.4375 405.625,214.7031 Q405.8594,214.9531 405.8594,215.5625 L405.8594,217.0156 Q405.8594,217.625 405.625,217.8906 Q405.3906,218.1563 405.0156,218.1563 Q404.6719,218.1563 404.4688,217.9531 Q404.2656,217.7656 404.1563,217.25 Q404.1094,216.8906 403.9219,216.7031 Q403.5938,216.3281 402.9844,216.1094 Q402.375,215.8906 401.75,215.8906 Q400.9844,215.8906 400.3438,216.2188 Q399.7188,216.5469 399.2188,217.2969 Q398.7344,218.0469 398.7344,219.0781 L398.7344,220.1719 Q398.7344,221.4063 399.625,222.2344 Q400.5156,223.0469 402.1094,223.0469 Q403.0469,223.0469 403.7031,222.7969 Q404.0938,222.6406 404.5156,222.2031 Q404.7813,221.9375 404.9219,221.8594 Q405.0781,221.7813 405.2813,221.7813 Q405.6094,221.7813 405.8594,222.0469 Q406.125,222.2969 406.125,222.6406 Q406.125,222.9844 405.7813,223.3906 Q405.2813,223.9688 404.4844,224.2969 Q403.4063,224.75 402.1094,224.75 Q400.5938,224.75 399.3906,224.125 Q398.4063,223.625 397.7188,222.5625 Q397.0313,221.4844 397.0313,220.2031 L397.0313,219.0469 Q397.0313,217.7188 397.6406,216.5781 Q398.2656,215.4219 399.3594,214.8125 Q400.4531,214.1875 401.6875,214.1875 Q402.4219,214.1875 403.0625,214.3594 Q403.7188,214.5156 404.2656,214.875 Z " fill="#000000"/><text fill="#000000" font-family="sans-serif" font-size="14" lengthAdjust="spacing" textLength="146" x="415.5" y="224.7285">CollaboratorRepository</text><line style="stroke:#181818;stroke-width:0.5;" x1="387.5" x2="563.5" y1="235" y2="235"/><line style="stroke:#181818;stroke-width:0.5;" x1="387.5" x2="563.5" y1="243" y2="243"/><text fill="#000000" font-family="sans-serif" font-size="14" lengthAdjust="spacing" textLength="158" x="392.5" y="261.5332">+getCollaborators(name)</text></g><!--class SkillRepository--><g id="elem_SkillRepository"><rect codeLine="32" fill="#F1F1F1" height="65.6094" id="SkillRepository" rx="2.5" ry="2.5" style="stroke:#181818;stroke-width:0.5;" width="141" x="572" y="347"/><ellipse cx="594.2" cy="363" fill="#ADD1B2" rx="11" ry="11" style="stroke:#181818;stroke-width:1.0;"/><path d="M596.9656,358.875 Q597.1219,358.6563 597.3094,358.5469 Q597.4969,358.4375 597.7156,358.4375 Q598.0906,358.4375 598.325,358.7031 Q598.5594,358.9531 598.5594,359.5625 L598.5594,361.0156 Q598.5594,361.625 598.325,361.8906 Q598.0906,362.1563 597.7156,362.1563 Q597.3719,362.1563 597.1688,361.9531 Q596.9656,361.7656 596.8563,361.25 Q596.8094,360.8906 596.6219,360.7031 Q596.2938,360.3281 595.6844,360.1094 Q595.075,359.8906 594.45,359.8906 Q593.6844,359.8906 593.0438,360.2188 Q592.4188,360.5469 591.9188,361.2969 Q591.4344,362.0469 591.4344,363.0781 L591.4344,364.1719 Q591.4344,365.4063 592.325,366.2344 Q593.2156,367.0469 594.8094,367.0469 Q595.7469,367.0469 596.4031,366.7969 Q596.7938,366.6406 597.2156,366.2031 Q597.4813,365.9375 597.6219,365.8594 Q597.7781,365.7813 597.9813,365.7813 Q598.3094,365.7813 598.5594,366.0469 Q598.825,366.2969 598.825,366.6406 Q598.825,366.9844 598.4813,367.3906 Q597.9813,367.9688 597.1844,368.2969 Q596.1063,368.75 594.8094,368.75 Q593.2938,368.75 592.0906,368.125 Q591.1063,367.625 590.4188,366.5625 Q589.7313,365.4844 589.7313,364.2031 L589.7313,363.0469 Q589.7313,361.7188 590.3406,360.5781 Q590.9656,359.4219 592.0594,358.8125 Q593.1531,358.1875 594.3875,358.1875 Q595.1219,358.1875 595.7625,358.3594 Q596.4188,358.5156 596.9656,358.875 Z " fill="#000000"/><text fill="#000000" font-family="sans-serif" font-size="14" lengthAdjust="spacing" textLength="93" x="609.8" y="368.7285">SkillRepository</text><line style="stroke:#181818;stroke-width:0.5;" x1="573" x2="712" y1="379" y2="379"/><line style="stroke:#181818;stroke-width:0.5;" x1="573" x2="712" y1="387" y2="387"/><text fill="#000000" font-family="sans-serif" font-size="14" lengthAdjust="spacing" textLength="129" x="578" y="405.5332">+getSkills(skillName)</text></g><!--class Skill--><g id="elem_Skill"><rect codeLine="36" fill="#F1F1F1" height="65.6094" id="Skill" rx="2.5" ry="2.5" style="stroke:#181818;stroke-width:0.5;" width="76" x="414.5" y="749"/><ellipse cx="438.05" cy="765" fill="#ADD1B2" rx="11" ry="11" style="stroke:#181818;stroke-width:1.0;"/><path d="M440.8156,760.875 Q440.9719,760.6563 441.1594,760.5469 Q441.3469,760.4375 441.5656,760.4375 Q441.9406,760.4375 442.175,760.7031 Q442.4094,760.9531 442.4094,761.5625 L442.4094,763.0156 Q442.4094,763.625 442.175,763.8906 Q441.9406,764.1563 441.5656,764.1563 Q441.2219,764.1563 441.0188,763.9531 Q440.8156,763.7656 440.7063,763.25 Q440.6594,762.8906 440.4719,762.7031 Q440.1438,762.3281 439.5344,762.1094 Q438.925,761.8906 438.3,761.8906 Q437.5344,761.8906 436.8938,762.2188 Q436.2688,762.5469 435.7688,763.2969 Q435.2844,764.0469 435.2844,765.0781 L435.2844,766.1719 Q435.2844,767.4063 436.175,768.2344 Q437.0656,769.0469 438.6594,769.0469 Q439.5969,769.0469 440.2531,768.7969 Q440.6438,768.6406 441.0656,768.2031 Q441.3313,767.9375 441.4719,767.8594 Q441.6281,767.7813 441.8313,767.7813 Q442.1594,767.7813 442.4094,768.0469 Q442.675,768.2969 442.675,768.6406 Q442.675,768.9844 442.3313,769.3906 Q441.8313,769.9688 441.0344,770.2969 Q439.9563,770.75 438.6594,770.75 Q437.1438,770.75 435.9406,770.125 Q434.9563,769.625 434.2688,768.5625 Q433.5813,767.4844 433.5813,766.2031 L433.5813,765.0469 Q433.5813,763.7188 434.1906,762.5781 Q434.8156,761.4219 435.9094,760.8125 Q437.0031,760.1875 438.2375,760.1875 Q438.9719,760.1875 439.6125,760.3594 Q440.2688,760.5156 440.8156,760.875 Z " fill="#000000"/><text fill="#000000" font-family="sans-serif" font-size="14" lengthAdjust="spacing" textLength="25" x="453.95" y="770.7285">Skill</text><line style="stroke:#181818;stroke-width:0.5;" x1="415.5" x2="489.5" y1="781" y2="781"/><text fill="#000000" font-family="sans-serif" font-size="14" lengthAdjust="spacing" textLength="64" x="420.5" y="799.5332">-skillName</text><line style="stroke:#181818;stroke-width:0.5;" x1="415.5" x2="489.5" y1="806.6094" y2="806.6094"/></g><!--class Collaborator--><g id="elem_Collaborator"><rect codeLine="40" fill="#F1F1F1" height="118.4375" id="Collaborator" rx="2.5" ry="2.5" style="stroke:#181818;stroke-width:0.5;" width="274" x="315.5" y="491"/><ellipse cx="409.25" cy="507" fill="#ADD1B2" rx="11" ry="11" style="stroke:#181818;stroke-width:1.0;"/><path d="M412.0156,502.875 Q412.1719,502.6563 412.3594,502.5469 Q412.5469,502.4375 412.7656,502.4375 Q413.1406,502.4375 413.375,502.7031 Q413.6094,502.9531 413.6094,503.5625 L413.6094,505.0156 Q413.6094,505.625 413.375,505.8906 Q413.1406,506.1563 412.7656,506.1563 Q412.4219,506.1563 412.2188,505.9531 Q412.0156,505.7656 411.9063,505.25 Q411.8594,504.8906 411.6719,504.7031 Q411.3438,504.3281 410.7344,504.1094 Q410.125,503.8906 409.5,503.8906 Q408.7344,503.8906 408.0938,504.2188 Q407.4688,504.5469 406.9688,505.2969 Q406.4844,506.0469 406.4844,507.0781 L406.4844,508.1719 Q406.4844,509.4063 407.375,510.2344 Q408.2656,511.0469 409.8594,511.0469 Q410.7969,511.0469 411.4531,510.7969 Q411.8438,510.6406 412.2656,510.2031 Q412.5313,509.9375 412.6719,509.8594 Q412.8281,509.7813 413.0313,509.7813 Q413.3594,509.7813 413.6094,510.0469 Q413.875,510.2969 413.875,510.6406 Q413.875,510.9844 413.5313,511.3906 Q413.0313,511.9688 412.2344,512.2969 Q411.1563,512.75 409.8594,512.75 Q408.3438,512.75 407.1406,512.125 Q406.1563,511.625 405.4688,510.5625 Q404.7813,509.4844 404.7813,508.2031 L404.7813,507.0469 Q404.7813,505.7188 405.3906,504.5781 Q406.0156,503.4219 407.1094,502.8125 Q408.2031,502.1875 409.4375,502.1875 Q410.1719,502.1875 410.8125,502.3594 Q411.4688,502.5156 412.0156,502.875 Z " fill="#000000"/><text fill="#000000" font-family="sans-serif" font-size="14" lengthAdjust="spacing" textLength="78" x="429.75" y="512.7285">Collaborator</text><line style="stroke:#181818;stroke-width:0.5;" x1="316.5" x2="588.5" y1="523" y2="523"/><text fill="#000000" font-family="sans-serif" font-size="14" lengthAdjust="spacing" textLength="40" x="321.5" y="541.5332">-name</text><text fill="#000000" font-family="sans-serif" font-size="14" lengthAdjust="spacing" textLength="117" x="321.5" y="559.1426">-List&lt;Skill&gt; skillList</text><line style="stroke:#181818;stroke-width:0.5;" x1="316.5" x2="588.5" y1="566.2188" y2="566.2188"/><text fill="#000000" font-family="sans-serif" font-size="14" lengthAdjust="spacing" textLength="262" x="321.5" y="584.752">+assignSkill(collaboratorName, skillName)</text><text fill="#000000" font-family="sans-serif" font-size="14" lengthAdjust="spacing" textLength="151" x="321.5" y="602.3613">+validateSkill(skillName)</text></g><!--link AssignSkillUI to AssignSkillController--><g id="link_AssignSkillUI_AssignSkillController"><path codeLine="48" d="M118.08,66 C129.28,66 139.97,66 147.68,66 " fill="none" id="AssignSkillUI-to-AssignSkillController" style="stroke:#181818;stroke-width:1.0;stroke-dasharray:7.0,7.0;"/><polygon fill="#181818" points="152.95,66,143.95,62,147.95,66,143.95,70,152.95,66" style="stroke:#181818;stroke-width:1.0;"/></g><!--link AssignSkillController to Repositories--><g id="link_AssignSkillController_Repositories"><path codeLine="49" d="M554.21,66 C588.1,66 622.01,66 652.07,66 " fill="none" id="AssignSkillController-to-Repositories" style="stroke:#181818;stroke-width:1.0;stroke-dasharray:7.0,7.0;"/><polygon fill="#181818" points="657.25,66,648.25,62,652.25,66,648.25,70,657.25,66" style="stroke:#181818;stroke-width:1.0;"/><text fill="#000000" font-family="sans-serif" font-size="13" lengthAdjust="spacing" textLength="67" x="572.25" y="59.4951">repositories</text></g><!--link Repositories to SkillRepository--><g id="link_Repositories_SkillRepository"><path codeLine="50" d="M748.01,125.16 C740.33,184.83 729.5,269 729.5,269 C729.5,269 696.6,310.6 671.26,342.64 " fill="none" id="Repositories-to-SkillRepository" style="stroke:#181818;stroke-width:1.0;"/><polygon fill="#181818" points="667.9,346.89,676.6234,342.318,671.0042,342.9704,670.3519,337.3512,667.9,346.89" style="stroke:#181818;stroke-width:1.0;"/><text fill="#000000" font-family="sans-serif" font-size="13" lengthAdjust="spacing" textLength="7" x="665.4169" y="335.9827">1</text></g><!--link Repositories to CollaboratorRepository--><g id="link_Repositories_CollaboratorRepository"><path codeLine="51" d="M658.75,125.05 C616.98,150.11 569.51,178.59 533.35,200.29 " fill="none" id="Repositories-to-CollaboratorRepository" style="stroke:#181818;stroke-width:1.0;"/><polygon fill="#181818" points="529,202.9,538.7754,201.6995,533.2875,200.3275,534.6595,194.8396,529,202.9" style="stroke:#181818;stroke-width:1.0;"/><text fill="#000000" font-family="sans-serif" font-size="13" lengthAdjust="spacing" textLength="7" x="532.3125" y="191.9948">1</text></g><!--link Repositories to Repositories--><g id="link_Repositories_Repositories"><path codeLine="52" d="M853.52,48.27 C873.87,50.14 888.5,56.05 888.5,66 C888.5,75.1 876.27,80.82 858.63,83.16 " fill="none" id="Repositories-to-Repositories" style="stroke:#181818;stroke-width:1.0;"/><polygon fill="#181818" points="853.52,83.73,862.9104,86.6998,858.4887,83.1716,862.0169,78.7498,853.52,83.73" style="stroke:#181818;stroke-width:1.0;"/><text fill="#000000" font-family="sans-serif" font-size="13" lengthAdjust="spacing" textLength="49" x="894.5" y="71.4951">instance</text></g><!--link SkillRepository to Skill--><g id="link_SkillRepository_Skill"><path codeLine="54" d="M637.56,413.18 C627.91,476.03 607.5,609 607.5,609 C607.5,609 530.61,694.32 485.14,744.78 " fill="none" id="SkillRepository-to-Skill" style="stroke:#181818;stroke-width:1.0;"/><polygon fill="#181818" points="481.65,748.65,490.6524,744.6553,485.0027,744.9406,484.7174,739.291,481.65,748.65" style="stroke:#181818;stroke-width:1.0;"/><text fill="#000000" font-family="sans-serif" font-size="13" lengthAdjust="spacing" textLength="5" x="481.8967" y="738.0774">*</text></g><!--link CollaboratorRepository to Collaborator--><g id="link_CollaboratorRepository_Collaborator"><path codeLine="55" d="M473.13,269.21 C469.37,320.12 462,420.12 457.16,485.74 " fill="none" id="CollaboratorRepository-to-Collaborator" style="stroke:#181818;stroke-width:1.0;"/><polygon fill="#181818" points="456.79,490.8,461.4476,482.122,457.1615,485.8138,453.4697,481.5277,456.79,490.8" style="stroke:#181818;stroke-width:1.0;"/><text fill="#000000" font-family="sans-serif" font-size="13" lengthAdjust="spacing" textLength="5" x="452.0082" y="480.0999">*</text></g><!--link AssignSkillController to Collaborator--><g id="link_AssignSkillController_Collaborator"><path codeLine="56" d="M357.43,116.67 C362.17,176.48 369.5,269 369.5,269 C369.5,269 409.39,403.56 433.86,486.11 " fill="none" id="AssignSkillController-to-Collaborator" style="stroke:#181818;stroke-width:1.0;stroke-dasharray:7.0,7.0;"/><polygon fill="#181818" points="435.3,490.98,436.5665,481.2129,433.8737,486.1877,428.8989,483.4949,435.3,490.98" style="stroke:#181818;stroke-width:1.0;"/><text fill="#000000" font-family="sans-serif" font-size="13" lengthAdjust="spacing" textLength="67" x="384.5" y="313.4951">collaborator</text><text fill="#000000" font-family="sans-serif" font-size="13" lengthAdjust="spacing" textLength="7" x="425.7772" y="480.3018">1</text></g><!--link AssignSkillController to Skill--><g id="link_AssignSkillController_Skill"><path codeLine="57" d="M326.44,116.95 C299.62,166.47 262.5,235 262.5,235 C262.5,235 262.5,235 262.5,680 C262.5,680 353.35,728.3 409.41,758.09 " fill="none" id="AssignSkillController-to-Skill" style="stroke:#181818;stroke-width:1.0;stroke-dasharray:7.0,7.0;"/><polygon fill="#181818" points="414.05,760.56,407.9951,752.7922,409.6394,758.2048,404.2268,759.8492,414.05,760.56" style="stroke:#181818;stroke-width:1.0;"/><text fill="#000000" font-family="sans-serif" font-size="13" lengthAdjust="spacing" textLength="23" x="263.5" y="457.4951">skill</text><text fill="#000000" font-family="sans-serif" font-size="13" lengthAdjust="spacing" textLength="7" x="399.5777" y="752.8772">1</text></g><!--link Collaborator to Skill--><g id="link_Collaborator_Skill"><path codeLine="58" d="M452.5,609.04 C452.5,651.28 452.5,707.23 452.5,743.66 " fill="none" id="Collaborator-to-Skill" style="stroke:#181818;stroke-width:1.0;"/><polygon fill="#181818" points="452.5,748.89,456.5,739.89,452.5,743.89,448.5,739.89,452.5,748.89" style="stroke:#181818;stroke-width:1.0;"/><text fill="#000000" font-family="sans-serif" font-size="13" lengthAdjust="spacing" textLength="21" x="453.5" y="684.4951">has</text><text fill="#000000" font-family="sans-serif" font-size="13" lengthAdjust="spacing" textLength="7" x="445.0516" y="631.1191">1</text><text fill="#000000" font-family="sans-serif" font-size="13" lengthAdjust="spacing" textLength="5" x="446.9844" y="737.9827">*</text></g><!--link AssignSkillController to CollaboratorRepository--><g id="link_AssignSkillController_CollaboratorRepository"><path codeLine="59" d="M389.77,116.95 C408.9,143.28 431.92,174.99 449.29,198.91 " fill="none" id="AssignSkillController-to-CollaboratorRepository" style="stroke:#181818;stroke-width:1.0;stroke-dasharray:7.0,7.0;"/><polygon fill="#181818" points="452.25,202.98,450.2258,193.3414,449.3236,198.9259,443.7391,198.0237,452.25,202.98" style="stroke:#181818;stroke-width:1.0;"/><text fill="#000000" font-family="sans-serif" font-size="13" lengthAdjust="spacing" textLength="129" x="429.5" y="169.4951">collaboratorRepository</text><text fill="#000000" font-family="sans-serif" font-size="13" lengthAdjust="spacing" textLength="7" x="439.7328" y="192.0913">1</text></g><!--link AssignSkillController to SkillRepository--><g id="link_AssignSkillController_SkillRepository"><path codeLine="60" d="M473.95,116.53 C522.61,136.54 567.5,155 567.5,155 C567.5,155 608.83,278.45 630.13,342.06 " fill="none" id="AssignSkillController-to-SkillRepository" style="stroke:#181818;stroke-width:1.0;stroke-dasharray:7.0,7.0;"/><polygon fill="#181818" points="631.75,346.91,632.6898,337.1061,630.1646,342.168,625.1026,339.6428,631.75,346.91" style="stroke:#181818;stroke-width:1.0;"/><text fill="#000000" font-family="sans-serif" font-size="13" lengthAdjust="spacing" textLength="85" x="605.5" y="241.4951">skillRepository</text><text fill="#000000" font-family="sans-serif" font-size="13" lengthAdjust="spacing" textLength="7" x="621.8109" y="336.0068">1</text></g><!--SRC=[ZLFTRi8W5BxdAKwyiMwwRBTcCJ5UcIoxcDa3O3ssH0eDu9RE-EwZs5PewJ9kslBzd8zpw5IVc2YfeWKKKiWqLx90CEgCv8wKD3tH37UcuWWAKqD5nds2pkb1VZEHmP5oxIES2JHLYL1ANjKVP1e1fJAIUAgKKwtNnYYsFnlSfbBis0_2Co5JZaS3He9YMMxWmEeuJ0f2d0RMMhDCx4wCyy_jXLn91DX8OPJa7DM5W5sFSJ19xOFkfQ96gWyifMRsfPg3hddtZLbZag7PU0gTU82prebJljC2BNHjatLE33NS4Ys2JTzeAxJjVeh939O1AHxYddAG9e2wC74nNCREADnXEddFsTSDMn2gsfDtX7YebbONRbxVc3QlpcDrKzSRJM5wdsmmpxh07FnvEFeNvUn03Tu4OLOIt2ruMiMl3OdkrlHWq4lx8tdJ2x35OWMJbqc_ct5IV68zxg0uQ-uH8VsHET-7fZWPkGyjoOV73cxNCAcDaFvFsweTPcLwaCl1GMnBowaUDVshSRrWNaT78qQ7rIRr37u1]--></g></svg>