<?xml version="1.0" encoding="UTF-8" standalone="no"?><svg xmlns="http://www.w3.org/2000/svg" xmlns:xlink="http://www.w3.org/1999/xlink" contentStyleType="text/css" height="1187px" preserveAspectRatio="none" style="width:1334px;height:1187px;background:#FFFFFF;" version="1.1" viewBox="0 0 1334 1187" width="1334px" zoomAndPan="magnify"><defs/><g><rect fill="#FFFFFF" height="959.1563" style="stroke:#181818;stroke-width:1.0;" width="10" x="63" y="110.2188"/><rect fill="#FFFFFF" height="332.125" style="stroke:#181818;stroke-width:1.0;" width="10" x="316" y="132.5703"/><rect fill="#FFFFFF" height="212.4609" style="stroke:#181818;stroke-width:1.0;" width="10" x="316" y="495.0469"/><rect fill="#FFFFFF" height="331.5156" style="stroke:#181818;stroke-width:1.0;" width="10" x="316" y="737.8594"/><rect fill="#FFFFFF" height="212.4609" style="stroke:#181818;stroke-width:1.0;" width="10" x="553" y="205.5313"/><rect fill="#FFFFFF" height="151.7578" style="stroke:#181818;stroke-width:1.0;" width="10" x="553" y="525.3984"/><rect fill="#FFFFFF" height="270.8125" style="stroke:#181818;stroke-width:1.0;" width="10" x="553" y="768.2109"/><rect fill="#FFFFFF" height="30.3516" style="stroke:#181818;stroke-width:1.0;" width="10" x="685" y="235.8828"/><rect fill="#FFFFFF" height="30.3516" style="stroke:#181818;stroke-width:1.0;" width="10" x="792" y="296.5859"/><rect fill="#FFFFFF" height="30.3516" style="stroke:#181818;stroke-width:1.0;" width="10" x="792" y="555.75"/><rect fill="#FFFFFF" height="30.3516" style="stroke:#181818;stroke-width:1.0;" width="10" x="906" y="616.4531"/><rect fill="#FFFFFF" height="149.4063" style="stroke:#181818;stroke-width:1.0;" width="10" x="1019.5" y="828.9141"/><rect fill="#FFFFFF" height="30.3516" style="stroke:#181818;stroke-width:1.0;" width="10" x="1241.5" y="357.2891"/><rect fill="#FFFFFF" height="210.1094" style="stroke:#181818;stroke-width:1.0;" width="10" x="1241.5" y="798.5625"/><rect fill="none" height="105.0547" style="stroke:#000000;stroke-width:1.5;" width="280" x="966.5" y="843.9141"/><line style="stroke:#181818;stroke-width:0.5;stroke-dasharray:5.0,5.0;" x1="68" x2="68" y1="100.2188" y2="1087.375"/><line style="stroke:#181818;stroke-width:0.5;stroke-dasharray:5.0,5.0;" x1="320.5" x2="320.5" y1="100.2188" y2="1087.375"/><line style="stroke:#181818;stroke-width:0.5;stroke-dasharray:5.0,5.0;" x1="557.5" x2="557.5" y1="171.875" y2="1087.375"/><line style="stroke:#181818;stroke-width:0.5;stroke-dasharray:5.0,5.0;" x1="689.5" x2="689.5" y1="100.2188" y2="1087.375"/><line style="stroke:#181818;stroke-width:0.5;stroke-dasharray:5.0,5.0;" x1="796.5" x2="796.5" y1="100.2188" y2="1087.375"/><line style="stroke:#181818;stroke-width:0.5;stroke-dasharray:5.0,5.0;" x1="910.5" x2="910.5" y1="100.2188" y2="1087.375"/><line style="stroke:#181818;stroke-width:0.5;stroke-dasharray:5.0,5.0;" x1="1024.5" x2="1024.5" y1="100.2188" y2="1087.375"/><line style="stroke:#181818;stroke-width:0.5;stroke-dasharray:5.0,5.0;" x1="1246.5" x2="1246.5" y1="100.2188" y2="1087.375"/><text fill="#000000" font-family="sans-serif" font-size="14" lengthAdjust="spacing" textLength="116" x="5" y="79.5332">Human Resources</text><text fill="#000000" font-family="sans-serif" font-size="14" lengthAdjust="spacing" textLength="100" x="17" y="97.1426">Manager (HRM)</text><ellipse cx="68" cy="13.5" fill="#E3E3E3" rx="8" ry="8" style="stroke:#181818;stroke-width:0.5;"/><path d="M68,21.5 L68,48.5 M55,29.5 L81,29.5 M68,48.5 L55,63.5 M68,48.5 L81,63.5 " fill="none" style="stroke:#181818;stroke-width:0.5;"/><text fill="#000000" font-family="sans-serif" font-size="14" lengthAdjust="spacing" textLength="116" x="5" y="1100.9082">Human Resources</text><text fill="#000000" font-family="sans-serif" font-size="14" lengthAdjust="spacing" textLength="100" x="17" y="1118.5176">Manager (HRM)</text><ellipse cx="68" cy="1130.0938" fill="#E3E3E3" rx="8" ry="8" style="stroke:#181818;stroke-width:0.5;"/><path d="M68,1138.0938 L68,1165.0938 M55,1146.0938 L81,1146.0938 M68,1165.0938 L55,1180.0938 M68,1165.0938 L81,1180.0938 " fill="none" style="stroke:#181818;stroke-width:0.5;"/><rect fill="#E3E3E3" height="31.6094" rx="2.5" ry="2.5" style="stroke:#181818;stroke-width:0.5;" width="97" x="272.5" y="67.6094"/><text fill="#000000" font-family="sans-serif" font-size="14" lengthAdjust="spacing" textLength="83" x="279.5" y="89.1426">:AssignSkillUI</text><rect fill="#E3E3E3" height="31.6094" rx="2.5" ry="2.5" style="stroke:#181818;stroke-width:0.5;" width="97" x="272.5" y="1086.375"/><text fill="#000000" font-family="sans-serif" font-size="14" lengthAdjust="spacing" textLength="83" x="279.5" y="1107.9082">:AssignSkillUI</text><rect fill="#E3E3E3" height="31.6094" rx="2.5" ry="2.5" style="stroke:#181818;stroke-width:0.5;" width="147" x="484.5" y="1086.375"/><text fill="#000000" font-family="sans-serif" font-size="14" lengthAdjust="spacing" textLength="133" x="491.5" y="1107.9082">:AssignSkillController</text><rect fill="#E3E3E3" height="31.6094" rx="2.5" ry="2.5" style="stroke:#181818;stroke-width:0.5;" width="97" x="641.5" y="67.6094"/><text fill="#000000" font-family="sans-serif" font-size="14" lengthAdjust="spacing" textLength="83" x="648.5" y="89.1426">:Repositories</text><rect fill="#E3E3E3" height="31.6094" rx="2.5" ry="2.5" style="stroke:#181818;stroke-width:0.5;" width="97" x="641.5" y="1086.375"/><text fill="#000000" font-family="sans-serif" font-size="14" lengthAdjust="spacing" textLength="83" x="648.5" y="1107.9082">:Repositories</text><rect fill="#E3E3E3" height="49.2188" rx="2.5" ry="2.5" style="stroke:#181818;stroke-width:0.5;" width="97" x="748.5" y="50"/><text fill="#000000" font-family="sans-serif" font-size="14" lengthAdjust="spacing" textLength="74" x="760" y="71.5332">repositories</text><text fill="#000000" font-family="sans-serif" font-size="14" lengthAdjust="spacing" textLength="83" x="755.5" y="89.1426">:Repositories</text><rect fill="#E3E3E3" height="49.2188" rx="2.5" ry="2.5" style="stroke:#181818;stroke-width:0.5;" width="97" x="748.5" y="1086.375"/><text fill="#000000" font-family="sans-serif" font-size="14" lengthAdjust="spacing" textLength="74" x="760" y="1107.9082">repositories</text><text fill="#000000" font-family="sans-serif" font-size="14" lengthAdjust="spacing" textLength="83" x="755.5" y="1125.5176">:Repositories</text><rect fill="#E3E3E3" height="49.2188" rx="2.5" ry="2.5" style="stroke:#181818;stroke-width:0.5;" width="111" x="855.5" y="50"/><text fill="#000000" font-family="sans-serif" font-size="14" lengthAdjust="spacing" textLength="91" x="865.5" y="71.5332">skillRepository</text><text fill="#000000" font-family="sans-serif" font-size="14" lengthAdjust="spacing" textLength="97" x="862.5" y="89.1426">:SkillRepository</text><rect fill="#E3E3E3" height="49.2188" rx="2.5" ry="2.5" style="stroke:#181818;stroke-width:0.5;" width="111" x="855.5" y="1086.375"/><text fill="#000000" font-family="sans-serif" font-size="14" lengthAdjust="spacing" textLength="91" x="865.5" y="1107.9082">skillRepository</text><text fill="#000000" font-family="sans-serif" font-size="14" lengthAdjust="spacing" textLength="97" x="862.5" y="1125.5176">:SkillRepository</text><rect fill="#E3E3E3" height="49.2188" rx="2.5" ry="2.5" style="stroke:#181818;stroke-width:0.5;" width="96" x="976.5" y="50"/><text fill="#000000" font-family="sans-serif" font-size="14" lengthAdjust="spacing" textLength="75" x="987" y="71.5332">collaborator</text><text fill="#000000" font-family="sans-serif" font-size="14" lengthAdjust="spacing" textLength="82" x="983.5" y="89.1426">:Collaborator</text><rect fill="#E3E3E3" height="49.2188" rx="2.5" ry="2.5" style="stroke:#181818;stroke-width:0.5;" width="96" x="976.5" y="1086.375"/><text fill="#000000" font-family="sans-serif" font-size="14" lengthAdjust="spacing" textLength="75" x="987" y="1107.9082">collaborator</text><text fill="#000000" font-family="sans-serif" font-size="14" lengthAdjust="spacing" textLength="82" x="983.5" y="1125.5176">:Collaborator</text><rect fill="#E3E3E3" height="49.2188" rx="2.5" ry="2.5" style="stroke:#181818;stroke-width:0.5;" width="164" x="1164.5" y="50"/><text fill="#000000" font-family="sans-serif" font-size="14" lengthAdjust="spacing" textLength="150" x="1171.5" y="71.5332">collaboratorsRepository</text><text fill="#000000" font-family="sans-serif" font-size="14" lengthAdjust="spacing" textLength="150" x="1171.5" y="89.1426">:CollaboratorRepository</text><rect fill="#E3E3E3" height="49.2188" rx="2.5" ry="2.5" style="stroke:#181818;stroke-width:0.5;" width="164" x="1164.5" y="1086.375"/><text fill="#000000" font-family="sans-serif" font-size="14" lengthAdjust="spacing" textLength="150" x="1171.5" y="1107.9082">collaboratorsRepository</text><text fill="#000000" font-family="sans-serif" font-size="14" lengthAdjust="spacing" textLength="150" x="1171.5" y="1125.5176">:CollaboratorRepository</text><rect fill="#FFFFFF" height="959.1563" style="stroke:#181818;stroke-width:1.0;" width="10" x="63" y="110.2188"/><rect fill="#FFFFFF" height="332.125" style="stroke:#181818;stroke-width:1.0;" width="10" x="316" y="132.5703"/><rect fill="#FFFFFF" height="212.4609" style="stroke:#181818;stroke-width:1.0;" width="10" x="316" y="495.0469"/><rect fill="#FFFFFF" height="331.5156" style="stroke:#181818;stroke-width:1.0;" width="10" x="316" y="737.8594"/><rect fill="#FFFFFF" height="212.4609" style="stroke:#181818;stroke-width:1.0;" width="10" x="553" y="205.5313"/><rect fill="#FFFFFF" height="151.7578" style="stroke:#181818;stroke-width:1.0;" width="10" x="553" y="525.3984"/><rect fill="#FFFFFF" height="270.8125" style="stroke:#181818;stroke-width:1.0;" width="10" x="553" y="768.2109"/><rect fill="#FFFFFF" height="30.3516" style="stroke:#181818;stroke-width:1.0;" width="10" x="685" y="235.8828"/><rect fill="#FFFFFF" height="30.3516" style="stroke:#181818;stroke-width:1.0;" width="10" x="792" y="296.5859"/><rect fill="#FFFFFF" height="30.3516" style="stroke:#181818;stroke-width:1.0;" width="10" x="792" y="555.75"/><rect fill="#FFFFFF" height="30.3516" style="stroke:#181818;stroke-width:1.0;" width="10" x="906" y="616.4531"/><rect fill="#FFFFFF" height="149.4063" style="stroke:#181818;stroke-width:1.0;" width="10" x="1019.5" y="828.9141"/><rect fill="#FFFFFF" height="30.3516" style="stroke:#181818;stroke-width:1.0;" width="10" x="1241.5" y="357.2891"/><rect fill="#FFFFFF" height="210.1094" style="stroke:#181818;stroke-width:1.0;" width="10" x="1241.5" y="798.5625"/><polygon fill="#181818" points="304,128.5703,314,132.5703,304,136.5703,308,132.5703" style="stroke:#181818;stroke-width:1.0;"/><line style="stroke:#181818;stroke-width:1.0;" x1="73" x2="310" y1="132.5703" y2="132.5703"/><text fill="#000000" font-family="sans-serif" font-size="13" font-weight="bold" lengthAdjust="spacing" textLength="7" x="80" y="127.7139">1</text><text fill="#000000" font-family="sans-serif" font-size="13" lengthAdjust="spacing" textLength="203" x="91" y="127.7139">asks to add a skill to a collaborator</text><polygon fill="#181818" points="472.5,158.9219,482.5,162.9219,472.5,166.9219,476.5,162.9219" style="stroke:#181818;stroke-width:1.0;"/><line style="stroke:#181818;stroke-width:1.0;" x1="326" x2="478.5" y1="162.9219" y2="162.9219"/><text fill="#000000" font-family="sans-serif" font-size="13" font-weight="bold" lengthAdjust="spacing" textLength="7" x="333" y="158.0654">2</text><text fill="#000000" font-family="sans-serif" font-size="13" lengthAdjust="spacing" textLength="36" x="344" y="158.0654">create</text><rect fill="#E3E3E3" height="31.6094" rx="2.5" ry="2.5" style="stroke:#181818;stroke-width:0.5;" width="147" x="484.5" y="140.5703"/><text fill="#000000" font-family="sans-serif" font-size="14" lengthAdjust="spacing" textLength="133" x="491.5" y="162.1035">:AssignSkillController</text><polygon fill="#181818" points="541,201.5313,551,205.5313,541,209.5313,545,205.5313" style="stroke:#181818;stroke-width:1.0;"/><line style="stroke:#181818;stroke-width:1.0;" x1="326" x2="547" y1="205.5313" y2="205.5313"/><text fill="#000000" font-family="sans-serif" font-size="13" font-weight="bold" lengthAdjust="spacing" textLength="7" x="333" y="200.6748">3</text><text fill="#000000" font-family="sans-serif" font-size="13" lengthAdjust="spacing" textLength="102" x="344" y="200.6748">getCollaborators()</text><polygon fill="#181818" points="673,231.8828,683,235.8828,673,239.8828,677,235.8828" style="stroke:#181818;stroke-width:1.0;"/><line style="stroke:#181818;stroke-width:1.0;" x1="563" x2="679" y1="235.8828" y2="235.8828"/><text fill="#000000" font-family="sans-serif" font-size="13" font-weight="bold" lengthAdjust="spacing" textLength="7" x="570" y="231.0264">4</text><text fill="#000000" font-family="sans-serif" font-size="13" lengthAdjust="spacing" textLength="75" x="581" y="231.0264">getInstance()</text><polygon fill="#181818" points="574,262.2344,564,266.2344,574,270.2344,570,266.2344" style="stroke:#181818;stroke-width:1.0;"/><line style="stroke:#181818;stroke-width:1.0;stroke-dasharray:2.0,2.0;" x1="568" x2="689" y1="266.2344" y2="266.2344"/><text fill="#000000" font-family="sans-serif" font-size="13" font-weight="bold" lengthAdjust="spacing" textLength="7" x="580" y="261.3779">5</text><text fill="#000000" font-family="sans-serif" font-size="13" lengthAdjust="spacing" textLength="67" x="591" y="261.3779">repositories</text><polygon fill="#181818" points="780,292.5859,790,296.5859,780,300.5859,784,296.5859" style="stroke:#181818;stroke-width:1.0;"/><line style="stroke:#181818;stroke-width:1.0;" x1="563" x2="786" y1="296.5859" y2="296.5859"/><text fill="#000000" font-family="sans-serif" font-size="13" font-weight="bold" lengthAdjust="spacing" textLength="7" x="570" y="291.7295">6</text><text fill="#000000" font-family="sans-serif" font-size="13" lengthAdjust="spacing" textLength="164" x="581" y="291.7295">getCollaboratorsRepository()</text><polygon fill="#181818" points="574,322.9375,564,326.9375,574,330.9375,570,326.9375" style="stroke:#181818;stroke-width:1.0;"/><line style="stroke:#181818;stroke-width:1.0;stroke-dasharray:2.0,2.0;" x1="568" x2="796" y1="326.9375" y2="326.9375"/><text fill="#000000" font-family="sans-serif" font-size="13" font-weight="bold" lengthAdjust="spacing" textLength="7" x="580" y="322.0811">7</text><text fill="#000000" font-family="sans-serif" font-size="13" lengthAdjust="spacing" textLength="156" x="591" y="322.0811">getCollaboratorsRepository</text><polygon fill="#181818" points="1229.5,353.2891,1239.5,357.2891,1229.5,361.2891,1233.5,357.2891" style="stroke:#181818;stroke-width:1.0;"/><line style="stroke:#181818;stroke-width:1.0;" x1="563" x2="1235.5" y1="357.2891" y2="357.2891"/><text fill="#000000" font-family="sans-serif" font-size="13" font-weight="bold" lengthAdjust="spacing" textLength="7" x="570" y="352.4326">8</text><text fill="#000000" font-family="sans-serif" font-size="13" lengthAdjust="spacing" textLength="123" x="581" y="352.4326">getCollaboratorsList()</text><polygon fill="#181818" points="574,383.6406,564,387.6406,574,391.6406,570,387.6406" style="stroke:#181818;stroke-width:1.0;"/><line style="stroke:#181818;stroke-width:1.0;stroke-dasharray:2.0,2.0;" x1="568" x2="1245.5" y1="387.6406" y2="387.6406"/><text fill="#000000" font-family="sans-serif" font-size="13" font-weight="bold" lengthAdjust="spacing" textLength="7" x="580" y="382.7842">9</text><text fill="#000000" font-family="sans-serif" font-size="13" lengthAdjust="spacing" textLength="95" x="591" y="382.7842">collaboratorsList</text><polygon fill="#181818" points="337,413.9922,327,417.9922,337,421.9922,333,417.9922" style="stroke:#181818;stroke-width:1.0;"/><line style="stroke:#181818;stroke-width:1.0;stroke-dasharray:2.0,2.0;" x1="331" x2="557" y1="417.9922" y2="417.9922"/><text fill="#000000" font-family="sans-serif" font-size="13" font-weight="bold" lengthAdjust="spacing" textLength="14" x="343" y="413.1357">10</text><text fill="#000000" font-family="sans-serif" font-size="13" lengthAdjust="spacing" textLength="95" x="361" y="413.1357">collaboratorsList</text><polygon fill="#181818" points="84,460.6953,74,464.6953,84,468.6953,80,464.6953" style="stroke:#181818;stroke-width:1.0;"/><line style="stroke:#181818;stroke-width:1.0;stroke-dasharray:2.0,2.0;" x1="78" x2="320" y1="464.6953" y2="464.6953"/><text fill="#000000" font-family="sans-serif" font-size="13" font-weight="bold" lengthAdjust="spacing" textLength="14" x="90" y="451.6631">11</text><text fill="#000000" font-family="sans-serif" font-size="13" lengthAdjust="spacing" textLength="136" x="108" y="443.4873">shows collaborators list</text><text fill="#000000" font-family="sans-serif" font-size="13" lengthAdjust="spacing" textLength="91" x="112" y="459.8389">to assign skill/s</text><polygon fill="#181818" points="304,491.0469,314,495.0469,304,499.0469,308,495.0469" style="stroke:#181818;stroke-width:1.0;"/><line style="stroke:#181818;stroke-width:1.0;" x1="73" x2="310" y1="495.0469" y2="495.0469"/><text fill="#000000" font-family="sans-serif" font-size="13" font-weight="bold" lengthAdjust="spacing" textLength="14" x="80" y="490.1904">12</text><text fill="#000000" font-family="sans-serif" font-size="13" lengthAdjust="spacing" textLength="113" x="98" y="490.1904">choose collaborator</text><polygon fill="#181818" points="541,521.3984,551,525.3984,541,529.3984,545,525.3984" style="stroke:#181818;stroke-width:1.0;"/><line style="stroke:#181818;stroke-width:1.0;" x1="326" x2="547" y1="525.3984" y2="525.3984"/><text fill="#000000" font-family="sans-serif" font-size="13" font-weight="bold" lengthAdjust="spacing" textLength="14" x="333" y="520.542">13</text><text fill="#000000" font-family="sans-serif" font-size="13" lengthAdjust="spacing" textLength="58" x="351" y="520.542">getSkills()</text><polygon fill="#181818" points="780,551.75,790,555.75,780,559.75,784,555.75" style="stroke:#181818;stroke-width:1.0;"/><line style="stroke:#181818;stroke-width:1.0;" x1="563" x2="786" y1="555.75" y2="555.75"/><text fill="#000000" font-family="sans-serif" font-size="13" font-weight="bold" lengthAdjust="spacing" textLength="14" x="570" y="550.8936">14</text><text fill="#000000" font-family="sans-serif" font-size="13" lengthAdjust="spacing" textLength="113" x="588" y="550.8936">getSkillRepository()</text><polygon fill="#181818" points="574,582.1016,564,586.1016,574,590.1016,570,586.1016" style="stroke:#181818;stroke-width:1.0;"/><line style="stroke:#181818;stroke-width:1.0;" x1="568" x2="796" y1="586.1016" y2="586.1016"/><text fill="#000000" font-family="sans-serif" font-size="13" font-weight="bold" lengthAdjust="spacing" textLength="14" x="580" y="581.2451">15</text><text fill="#000000" font-family="sans-serif" font-size="13" lengthAdjust="spacing" textLength="85" x="598" y="581.2451">skillRepository</text><polygon fill="#181818" points="894,612.4531,904,616.4531,894,620.4531,898,616.4531" style="stroke:#181818;stroke-width:1.0;"/><line style="stroke:#181818;stroke-width:1.0;stroke-dasharray:2.0,2.0;" x1="563" x2="900" y1="616.4531" y2="616.4531"/><text fill="#000000" font-family="sans-serif" font-size="13" font-weight="bold" lengthAdjust="spacing" textLength="14" x="570" y="611.5967">16</text><text fill="#000000" font-family="sans-serif" font-size="13" lengthAdjust="spacing" textLength="72" x="588" y="611.5967">getSkillList()</text><polygon fill="#181818" points="574,642.8047,564,646.8047,574,650.8047,570,646.8047" style="stroke:#181818;stroke-width:1.0;"/><line style="stroke:#181818;stroke-width:1.0;stroke-dasharray:2.0,2.0;" x1="568" x2="910" y1="646.8047" y2="646.8047"/><text fill="#000000" font-family="sans-serif" font-size="13" font-weight="bold" lengthAdjust="spacing" textLength="14" x="580" y="641.9482">17</text><text fill="#000000" font-family="sans-serif" font-size="13" lengthAdjust="spacing" textLength="44" x="598" y="641.9482">skillList</text><polygon fill="#181818" points="337,673.1563,327,677.1563,337,681.1563,333,677.1563" style="stroke:#181818;stroke-width:1.0;"/><line style="stroke:#181818;stroke-width:1.0;stroke-dasharray:2.0,2.0;" x1="331" x2="557" y1="677.1563" y2="677.1563"/><text fill="#000000" font-family="sans-serif" font-size="13" font-weight="bold" lengthAdjust="spacing" textLength="14" x="343" y="672.2998">18</text><text fill="#000000" font-family="sans-serif" font-size="13" lengthAdjust="spacing" textLength="44" x="361" y="672.2998">skillList</text><polygon fill="#181818" points="84,703.5078,74,707.5078,84,711.5078,80,707.5078" style="stroke:#181818;stroke-width:1.0;"/><line style="stroke:#181818;stroke-width:1.0;stroke-dasharray:2.0,2.0;" x1="78" x2="320" y1="707.5078" y2="707.5078"/><text fill="#000000" font-family="sans-serif" font-size="13" font-weight="bold" lengthAdjust="spacing" textLength="14" x="90" y="702.6514">19</text><text fill="#000000" font-family="sans-serif" font-size="13" lengthAdjust="spacing" textLength="85" x="108" y="702.6514">show skills list</text><polygon fill="#181818" points="304,733.8594,314,737.8594,304,741.8594,308,737.8594" style="stroke:#181818;stroke-width:1.0;"/><line style="stroke:#181818;stroke-width:1.0;" x1="73" x2="310" y1="737.8594" y2="737.8594"/><text fill="#000000" font-family="sans-serif" font-size="13" font-weight="bold" lengthAdjust="spacing" textLength="14" x="80" y="733.0029">20</text><text fill="#000000" font-family="sans-serif" font-size="13" lengthAdjust="spacing" textLength="206" x="98" y="733.0029">choose one or more skills to assign</text><polygon fill="#181818" points="541,764.2109,551,768.2109,541,772.2109,545,768.2109" style="stroke:#181818;stroke-width:1.0;"/><line style="stroke:#181818;stroke-width:1.0;" x1="326" x2="547" y1="768.2109" y2="768.2109"/><text fill="#000000" font-family="sans-serif" font-size="13" font-weight="bold" lengthAdjust="spacing" textLength="14" x="333" y="763.3545">21</text><text fill="#000000" font-family="sans-serif" font-size="13" lengthAdjust="spacing" textLength="190" x="351" y="763.3545">assignSkill(collaborator, skillList)</text><polygon fill="#181818" points="1229.5,794.5625,1239.5,798.5625,1229.5,802.5625,1233.5,798.5625" style="stroke:#181818;stroke-width:1.0;"/><line style="stroke:#181818;stroke-width:1.0;" x1="563" x2="1235.5" y1="798.5625" y2="798.5625"/><text fill="#000000" font-family="sans-serif" font-size="13" font-weight="bold" lengthAdjust="spacing" textLength="14" x="570" y="793.7061">22</text><text fill="#000000" font-family="sans-serif" font-size="13" lengthAdjust="spacing" textLength="190" x="588" y="793.7061">assignSkill(collaborator, skillList)</text><polygon fill="#181818" points="1040.5,824.9141,1030.5,828.9141,1040.5,832.9141,1036.5,828.9141" style="stroke:#181818;stroke-width:1.0;"/><line style="stroke:#181818;stroke-width:1.0;" x1="1034.5" x2="1240.5" y1="828.9141" y2="828.9141"/><text fill="#000000" font-family="sans-serif" font-size="13" font-weight="bold" lengthAdjust="spacing" textLength="14" x="1046.5" y="824.0576">23</text><text fill="#000000" font-family="sans-serif" font-size="13" lengthAdjust="spacing" textLength="122" x="1064.5" y="824.0576">assignSkills(skillList)</text><path d="M966.5,843.9141 L1039.5,843.9141 L1039.5,852.2656 L1029.5,862.2656 L966.5,862.2656 L966.5,843.9141 " fill="#EEEEEE" style="stroke:#000000;stroke-width:1.5;"/><rect fill="none" height="105.0547" style="stroke:#000000;stroke-width:1.5;" width="280" x="966.5" y="843.9141"/><text fill="#000000" font-family="sans-serif" font-size="13" font-weight="bold" lengthAdjust="spacing" textLength="28" x="981.5" y="858.4092">loop</text><text fill="#000000" font-family="sans-serif" font-size="11" font-weight="bold" lengthAdjust="spacing" textLength="139" x="1054.5" y="857.333">[for each skill in skillList]</text><line style="stroke:#181818;stroke-width:1.0;" x1="1029.5" x2="1071.5" y1="884.6172" y2="884.6172"/><line style="stroke:#181818;stroke-width:1.0;" x1="1071.5" x2="1071.5" y1="884.6172" y2="897.6172"/><line style="stroke:#181818;stroke-width:1.0;" x1="1030.5" x2="1071.5" y1="897.6172" y2="897.6172"/><polygon fill="#181818" points="1040.5,893.6172,1030.5,897.6172,1040.5,901.6172,1036.5,897.6172" style="stroke:#181818;stroke-width:1.0;"/><text fill="#000000" font-family="sans-serif" font-size="13" font-weight="bold" lengthAdjust="spacing" textLength="14" x="1036.5" y="879.7607">24</text><text fill="#000000" font-family="sans-serif" font-size="13" lengthAdjust="spacing" textLength="94" x="1054.5" y="879.7607">assignSkill(skill)</text><line style="stroke:#181818;stroke-width:1.0;" x1="1029.5" x2="1071.5" y1="927.9688" y2="927.9688"/><line style="stroke:#181818;stroke-width:1.0;" x1="1071.5" x2="1071.5" y1="927.9688" y2="940.9688"/><line style="stroke:#181818;stroke-width:1.0;" x1="1030.5" x2="1071.5" y1="940.9688" y2="940.9688"/><polygon fill="#181818" points="1040.5,936.9688,1030.5,940.9688,1040.5,944.9688,1036.5,940.9688" style="stroke:#181818;stroke-width:1.0;"/><text fill="#000000" font-family="sans-serif" font-size="13" font-weight="bold" lengthAdjust="spacing" textLength="14" x="1036.5" y="923.1123">25</text><text fill="#000000" font-family="sans-serif" font-size="13" lengthAdjust="spacing" textLength="180" x="1054.5" y="923.1123">validateSkillWasAssigned(skill)</text><polygon fill="#181818" points="1229.5,974.3203,1239.5,978.3203,1229.5,982.3203,1233.5,978.3203" style="stroke:#181818;stroke-width:1.0;"/><line style="stroke:#181818;stroke-width:1.0;stroke-dasharray:2.0,2.0;" x1="1024.5" x2="1235.5" y1="978.3203" y2="978.3203"/><text fill="#000000" font-family="sans-serif" font-size="13" font-weight="bold" lengthAdjust="spacing" textLength="14" x="1031.5" y="973.4639">26</text><text fill="#000000" font-family="sans-serif" font-size="13" lengthAdjust="spacing" textLength="53" x="1049.5" y="973.4639">true/false</text><polygon fill="#181818" points="574,1004.6719,564,1008.6719,574,1012.6719,570,1008.6719" style="stroke:#181818;stroke-width:1.0;"/><line style="stroke:#181818;stroke-width:1.0;stroke-dasharray:2.0,2.0;" x1="568" x2="1245.5" y1="1008.6719" y2="1008.6719"/><text fill="#000000" font-family="sans-serif" font-size="13" font-weight="bold" lengthAdjust="spacing" textLength="14" x="580" y="1003.8154">27</text><text fill="#000000" font-family="sans-serif" font-size="13" lengthAdjust="spacing" textLength="53" x="598" y="1003.8154">true/false</text><polygon fill="#181818" points="337,1035.0234,327,1039.0234,337,1043.0234,333,1039.0234" style="stroke:#181818;stroke-width:1.0;"/><line style="stroke:#181818;stroke-width:1.0;stroke-dasharray:2.0,2.0;" x1="331" x2="557" y1="1039.0234" y2="1039.0234"/><text fill="#000000" font-family="sans-serif" font-size="13" font-weight="bold" lengthAdjust="spacing" textLength="14" x="343" y="1034.167">28</text><text fill="#000000" font-family="sans-serif" font-size="13" lengthAdjust="spacing" textLength="53" x="361" y="1034.167">true/false</text><polygon fill="#181818" points="79,1065.375,69,1069.375,79,1073.375,75,1069.375" style="stroke:#181818;stroke-width:1.0;"/><line style="stroke:#181818;stroke-width:1.0;stroke-dasharray:2.0,2.0;" x1="73" x2="320" y1="1069.375" y2="1069.375"/><text fill="#000000" font-family="sans-serif" font-size="13" font-weight="bold" lengthAdjust="spacing" textLength="14" x="85" y="1064.5186">29</text><text fill="#000000" font-family="sans-serif" font-size="13" lengthAdjust="spacing" textLength="158" x="103" y="1064.5186">displays operation success</text><!--SRC=[xLRVRzCm47xtNt7Q2orYmCOFGHuGemosgHLJscqll7Y9rrfBxSXsElRVStQQn4cT3f1uIwHAZNFttPtlE_lJzrpaLD4rhAMGoKh9DGEZ2aPq_IMdoJrTihbvp1WebXWgbfble5SqbGzSBE6EPfeHGWiZHR6-POgGPokUChYJqjpANuGcHYeuE2lML43Cj2nKmZJy532Z0eCe69t5i_41K0tuXs00mnEUKs7W83hHcY_5_9vdsTMvixawxpUPI66Kp3AcdEba4KyxnZ7BfUQO4MVQsTGBZtDkYyGosYxAy_WfTW4kfoUBjeUsgJIuw3HlhpY_pbeR8i4YwArK53-X_yHxBIlxCPsUVEdtqQtmldidYqbCR8VuXXhcjf_0zi4NEFo4smqH6jvhC19ecW85Lvzx1Jzcure3Og-QLViW6cBQlZn_ZhY9OcZMPu86IsRyvFLetBAj0xbEjt6gno4XOg3H3lzSQAHtmZhGEo52H0bw10pXS5jI13wTWkuf-_kGLOsMYxkRri0yLQFZSj34FlQhLqb_cAVg2eUfYfZ4kzXJhaqW-QR_SG0lzf9DkcXaJtv1D9TTDH3xuNmeHymkln76ZbU4vwXyq6qqo10EJqSxN-vaA-VjLSCM3zuEM7TOavMKchL7SsSg0uFc3gJEXFNLuHFEymuphQ_l9P_g53h79la3vjHDwKJtKkeofuRgdh-DIHUiOP6k48F9zIEsoRCVfRFJEtGftKkQ104gJa0FCQJ0dyBRNx4Ag-PQO9zQS2tEqERY7VbiUz5K6Dhu7YhXkFuxf3-mTku_RM_8DgGUxKSfBzNcIoPbZZf60MxkQdljSH7gtpQQ5zUln3cCoJxp3SruYaauXnkgIr73qigtTcKY3G1L-sTrtAjIaWMvrQtGEoF_m3lkfVHJddiudNATP_HHWymPzfhZRQcB12MYVfhTtdgfNJxZzXJhZ7XIzN-ft47N3hfsqBM3hXrqxQ1h1rqxwDf1rmwwzl_hsiiCDT7LR0eRfhJ5F7fv_FhupSkZqRmGS85IzFWZ71r7xpv4xzx3pUa2xESn6Ns_d4AfKMrcHl7RmkOq9XTqGo4kXE5h5e5z6orcOvYVLejmAZPSIR5cmf2Bwrbf16VIp7DfdF7xjuTVk84vKvWMNC_8LtP7YyoWQo9JlECZk5fyE_n0fYYn2nJ74UI6J2G6K8yHN2v-0m00]--></g></svg>