<?xml version="1.0" encoding="UTF-8" standalone="no"?><svg xmlns="http://www.w3.org/2000/svg" xmlns:xlink="http://www.w3.org/1999/xlink" contentStyleType="text/css" height="1530px" preserveAspectRatio="none" style="width:2542px;height:1530px;background:#FFFFFF;" version="1.1" viewBox="0 0 2542 1530" width="2542px" zoomAndPan="magnify"><defs/><g><rect fill="#FFFFFF" height="1302.2266" style="stroke:#181818;stroke-width:1.0;" width="10" x="47" y="110.2188"/><rect fill="#FFFFFF" height="621.3281" style="stroke:#181818;stroke-width:1.0;" width="10" x="614" y="132.5703"/><rect fill="#FFFFFF" height="30.3516" style="stroke:#181818;stroke-width:1.0;" width="10" x="614" y="784.25"/><rect fill="#FFFFFF" height="30.3516" style="stroke:#181818;stroke-width:1.0;" width="10" x="614" y="844.9531"/><rect fill="#FFFFFF" height="506.7891" style="stroke:#181818;stroke-width:1.0;" width="10" x="614" y="905.6563"/><rect fill="#FFFFFF" height="530.2734" style="stroke:#181818;stroke-width:1.0;" width="10" x="769" y="193.2734"/><rect fill="#FFFFFF" height="446.0859" style="stroke:#181818;stroke-width:1.0;" width="10" x="769" y="936.0078"/><rect fill="#FFFFFF" height="30.3516" style="stroke:#181818;stroke-width:1.0;" width="10" x="910" y="223.625"/><rect fill="#FFFFFF" height="30.3516" style="stroke:#181818;stroke-width:1.0;" width="10" x="1015" y="284.3281"/><rect fill="#FFFFFF" height="30.3516" style="stroke:#181818;stroke-width:1.0;" width="10" x="1015" y="966.3594"/><rect fill="#FFFFFF" height="287.4609" style="stroke:#181818;stroke-width:1.0;" width="10" x="1146.5" y="405.7344"/><rect fill="#FFFFFF" height="35.3516" style="stroke:#181818;stroke-width:1.0;" width="10" x="1151.5" y="560.1406"/><rect fill="#FFFFFF" height="30" style="stroke:#181818;stroke-width:1.0;" width="10" x="1413.5" y="625.8438"/><rect fill="#FFFFFF" height="30.3516" style="stroke:#181818;stroke-width:1.0;" width="10" x="1583.5" y="345.0313"/><rect fill="#FFFFFF" height="30" style="stroke:#181818;stroke-width:1.0;" width="10" x="1583.5" y="491.7891"/><rect fill="#FFFFFF" height="263.9766" style="stroke:#181818;stroke-width:1.0;" width="10" x="1923" y="1087.7656"/><rect fill="#FFFFFF" height="128.0547" style="stroke:#181818;stroke-width:1.0;" width="10" x="1928" y="1186.3359"/><rect fill="#FFFFFF" height="41.3516" style="stroke:#181818;stroke-width:1.0;" width="10" x="1933" y="1229.6875"/><rect fill="#FFFFFF" height="30.3516" style="stroke:#181818;stroke-width:1.0;" width="10" x="2466" y="1027.0625"/><rect fill="none" height="212.7578" style="stroke:#000000;stroke-width:1.5;" width="788" x="1068.5" y="451.0859"/><line style="stroke:#181818;stroke-width:0.5;stroke-dasharray:5.0,5.0;" x1="52" x2="52" y1="100.2188" y2="1430.4453"/><line style="stroke:#181818;stroke-width:0.5;stroke-dasharray:5.0,5.0;" x1="618.5" x2="618.5" y1="100.2188" y2="1430.4453"/><line style="stroke:#181818;stroke-width:0.5;stroke-dasharray:5.0,5.0;" x1="773.5" x2="773.5" y1="100.2188" y2="1430.4453"/><line style="stroke:#181818;stroke-width:0.5;stroke-dasharray:5.0,5.0;" x1="914.5" x2="914.5" y1="100.2188" y2="1430.4453"/><line style="stroke:#181818;stroke-width:0.5;stroke-dasharray:5.0,5.0;" x1="1019.5" x2="1019.5" y1="100.2188" y2="1430.4453"/><line style="stroke:#181818;stroke-width:0.5;stroke-dasharray:5.0,5.0;" x1="1151.5" x2="1151.5" y1="100.2188" y2="1430.4453"/><line style="stroke:#181818;stroke-width:0.5;stroke-dasharray:5.0,5.0;" x1="1418.5" x2="1418.5" y1="100.2188" y2="1430.4453"/><line style="stroke:#181818;stroke-width:0.5;stroke-dasharray:5.0,5.0;" x1="1588.5" x2="1588.5" y1="100.2188" y2="1430.4453"/><line style="stroke:#181818;stroke-width:0.5;stroke-dasharray:5.0,5.0;" x1="1763.5" x2="1763.5" y1="100.2188" y2="1430.4453"/><line style="stroke:#181818;stroke-width:0.5;stroke-dasharray:5.0,5.0;" x1="1927.5" x2="1927.5" y1="100.2188" y2="1430.4453"/><line style="stroke:#181818;stroke-width:0.5;stroke-dasharray:5.0,5.0;" x1="2355" x2="2355" y1="1135.875" y2="1430.4453"/><line style="stroke:#181818;stroke-width:0.5;stroke-dasharray:5.0,5.0;" x1="2471" x2="2471" y1="100.2188" y2="1430.4453"/><text fill="#000000" font-family="sans-serif" font-size="14" lengthAdjust="spacing" textLength="84" x="5" y="79.5332">Green Space</text><text fill="#000000" font-family="sans-serif" font-size="14" lengthAdjust="spacing" textLength="56" x="21" y="97.1426">Manager</text><ellipse cx="52" cy="13.5" fill="#E3E3E3" rx="8" ry="8" style="stroke:#181818;stroke-width:0.5;"/><path d="M52,21.5 L52,48.5 M39,29.5 L65,29.5 M52,48.5 L39,63.5 M52,48.5 L65,63.5 " fill="none" style="stroke:#181818;stroke-width:0.5;"/><text fill="#000000" font-family="sans-serif" font-size="14" lengthAdjust="spacing" textLength="84" x="5" y="1443.9785">Green Space</text><text fill="#000000" font-family="sans-serif" font-size="14" lengthAdjust="spacing" textLength="56" x="21" y="1461.5879">Manager</text><ellipse cx="52" cy="1473.1641" fill="#E3E3E3" rx="8" ry="8" style="stroke:#181818;stroke-width:0.5;"/><path d="M52,1481.1641 L52,1508.1641 M39,1489.1641 L65,1489.1641 M52,1508.1641 L39,1523.1641 M52,1508.1641 L65,1523.1641 " fill="none" style="stroke:#181818;stroke-width:0.5;"/><rect fill="#E3E3E3" height="31.6094" rx="2.5" ry="2.5" style="stroke:#181818;stroke-width:0.5;" width="119" x="559.5" y="67.6094"/><text fill="#000000" font-family="sans-serif" font-size="14" lengthAdjust="spacing" textLength="105" x="566.5" y="89.1426">:AddTaskEntryUI</text><rect fill="#E3E3E3" height="31.6094" rx="2.5" ry="2.5" style="stroke:#181818;stroke-width:0.5;" width="119" x="559.5" y="1429.4453"/><text fill="#000000" font-family="sans-serif" font-size="14" lengthAdjust="spacing" textLength="105" x="566.5" y="1450.9785">:AddTaskEntryUI</text><rect fill="#E3E3E3" height="31.6094" rx="2.5" ry="2.5" style="stroke:#181818;stroke-width:0.5;" width="169" x="689.5" y="67.6094"/><text fill="#000000" font-family="sans-serif" font-size="14" lengthAdjust="spacing" textLength="155" x="696.5" y="89.1426">:AddTaskEntryController</text><rect fill="#E3E3E3" height="31.6094" rx="2.5" ry="2.5" style="stroke:#181818;stroke-width:0.5;" width="169" x="689.5" y="1429.4453"/><text fill="#000000" font-family="sans-serif" font-size="14" lengthAdjust="spacing" textLength="155" x="696.5" y="1450.9785">:AddTaskEntryController</text><rect fill="#E3E3E3" height="31.6094" rx="2.5" ry="2.5" style="stroke:#181818;stroke-width:0.5;" width="93" x="868.5" y="67.6094"/><text fill="#000000" font-family="sans-serif" font-size="14" lengthAdjust="spacing" textLength="79" x="875.5" y="89.1426">Repositories</text><rect fill="#E3E3E3" height="31.6094" rx="2.5" ry="2.5" style="stroke:#181818;stroke-width:0.5;" width="93" x="868.5" y="1429.4453"/><text fill="#000000" font-family="sans-serif" font-size="14" lengthAdjust="spacing" textLength="79" x="875.5" y="1450.9785">Repositories</text><rect fill="#E3E3E3" height="49.2188" rx="2.5" ry="2.5" style="stroke:#181818;stroke-width:0.5;" width="97" x="971.5" y="50"/><text fill="#000000" font-family="sans-serif" font-size="14" lengthAdjust="spacing" textLength="74" x="983" y="71.5332">repositories</text><text fill="#000000" font-family="sans-serif" font-size="14" lengthAdjust="spacing" textLength="83" x="978.5" y="89.1426">:Repositories</text><rect fill="#E3E3E3" height="49.2188" rx="2.5" ry="2.5" style="stroke:#181818;stroke-width:0.5;" width="97" x="971.5" y="1429.4453"/><text fill="#000000" font-family="sans-serif" font-size="14" lengthAdjust="spacing" textLength="74" x="983" y="1450.9785">repositories</text><text fill="#000000" font-family="sans-serif" font-size="14" lengthAdjust="spacing" textLength="83" x="978.5" y="1468.5879">:Repositories</text><rect fill="#E3E3E3" height="31.6094" rx="2.5" ry="2.5" style="stroke:#181818;stroke-width:0.5;" width="146" x="1078.5" y="67.6094"/><text fill="#000000" font-family="sans-serif" font-size="14" lengthAdjust="spacing" textLength="132" x="1085.5" y="89.1426">:GreenSpaceMapper</text><rect fill="#E3E3E3" height="31.6094" rx="2.5" ry="2.5" style="stroke:#181818;stroke-width:0.5;" width="146" x="1078.5" y="1429.4453"/><text fill="#000000" font-family="sans-serif" font-size="14" lengthAdjust="spacing" textLength="132" x="1085.5" y="1450.9785">:GreenSpaceMapper</text><rect fill="#E3E3E3" height="49.2188" rx="2.5" ry="2.5" style="stroke:#181818;stroke-width:0.5;" width="154" x="1341.5" y="50"/><text fill="#000000" font-family="sans-serif" font-size="14" lengthAdjust="spacing" textLength="129" x="1354" y="71.5332">greenSpaceDTOList</text><text fill="#000000" font-family="sans-serif" font-size="14" lengthAdjust="spacing" textLength="136" x="1352.5" y="89.1426">:GreenSpaceDTOList</text><rect fill="#E3E3E3" height="49.2188" rx="2.5" ry="2.5" style="stroke:#181818;stroke-width:0.5;" width="154" x="1341.5" y="1429.4453"/><text fill="#000000" font-family="sans-serif" font-size="14" lengthAdjust="spacing" textLength="129" x="1354" y="1450.9785">greenSpaceDTOList</text><text fill="#000000" font-family="sans-serif" font-size="14" lengthAdjust="spacing" textLength="136" x="1352.5" y="1468.5879">:GreenSpaceDTOList</text><rect fill="#E3E3E3" height="31.6094" rx="2.5" ry="2.5" style="stroke:#181818;stroke-width:0.5;" width="166" x="1505.5" y="67.6094"/><text fill="#000000" font-family="sans-serif" font-size="14" lengthAdjust="spacing" textLength="152" x="1512.5" y="89.1426">:GreenSpaceRepository</text><rect fill="#E3E3E3" height="31.6094" rx="2.5" ry="2.5" style="stroke:#181818;stroke-width:0.5;" width="166" x="1505.5" y="1429.4453"/><text fill="#000000" font-family="sans-serif" font-size="14" lengthAdjust="spacing" textLength="152" x="1512.5" y="1450.9785">:GreenSpaceRepository</text><rect fill="#E3E3E3" height="31.6094" rx="2.5" ry="2.5" style="stroke:#181818;stroke-width:0.5;" width="165" x="1681.5" y="67.6094"/><text fill="#000000" font-family="sans-serif" font-size="14" lengthAdjust="spacing" textLength="151" x="1688.5" y="89.1426">objDto: GreenSpaceDto</text><rect fill="#E3E3E3" height="31.6094" rx="2.5" ry="2.5" style="stroke:#181818;stroke-width:0.5;" width="165" x="1681.5" y="1429.4453"/><text fill="#000000" font-family="sans-serif" font-size="14" lengthAdjust="spacing" textLength="151" x="1688.5" y="1450.9785">objDto: GreenSpaceDto</text><rect fill="#E3E3E3" height="31.6094" rx="2.5" ry="2.5" style="stroke:#181818;stroke-width:0.5;" width="143" x="1856.5" y="67.6094"/><text fill="#000000" font-family="sans-serif" font-size="14" lengthAdjust="spacing" textLength="129" x="1863.5" y="89.1426">:ToDoListRepository</text><rect fill="#E3E3E3" height="31.6094" rx="2.5" ry="2.5" style="stroke:#181818;stroke-width:0.5;" width="143" x="1856.5" y="1429.4453"/><text fill="#000000" font-family="sans-serif" font-size="14" lengthAdjust="spacing" textLength="129" x="1863.5" y="1450.9785">:ToDoListRepository</text><rect fill="#E3E3E3" height="49.2188" rx="2.5" ry="2.5" style="stroke:#181818;stroke-width:0.5;" width="82" x="2314" y="1429.4453"/><text fill="#000000" font-family="sans-serif" font-size="14" lengthAdjust="spacing" textLength="59" x="2325.5" y="1450.9785">taskEntry</text><text fill="#000000" font-family="sans-serif" font-size="14" lengthAdjust="spacing" textLength="68" x="2321" y="1468.5879">:TaskEntry</text><rect fill="#E3E3E3" height="31.6094" rx="2.5" ry="2.5" style="stroke:#181818;stroke-width:0.5;" width="130" x="2406" y="67.6094"/><text fill="#000000" font-family="sans-serif" font-size="14" lengthAdjust="spacing" textLength="116" x="2413" y="89.1426">:TaskEntryMapper</text><rect fill="#E3E3E3" height="31.6094" rx="2.5" ry="2.5" style="stroke:#181818;stroke-width:0.5;" width="130" x="2406" y="1429.4453"/><text fill="#000000" font-family="sans-serif" font-size="14" lengthAdjust="spacing" textLength="116" x="2413" y="1450.9785">:TaskEntryMapper</text><rect fill="#FFFFFF" height="1302.2266" style="stroke:#181818;stroke-width:1.0;" width="10" x="47" y="110.2188"/><rect fill="#FFFFFF" height="621.3281" style="stroke:#181818;stroke-width:1.0;" width="10" x="614" y="132.5703"/><rect fill="#FFFFFF" height="30.3516" style="stroke:#181818;stroke-width:1.0;" width="10" x="614" y="784.25"/><rect fill="#FFFFFF" height="30.3516" style="stroke:#181818;stroke-width:1.0;" width="10" x="614" y="844.9531"/><rect fill="#FFFFFF" height="506.7891" style="stroke:#181818;stroke-width:1.0;" width="10" x="614" y="905.6563"/><rect fill="#FFFFFF" height="530.2734" style="stroke:#181818;stroke-width:1.0;" width="10" x="769" y="193.2734"/><rect fill="#FFFFFF" height="446.0859" style="stroke:#181818;stroke-width:1.0;" width="10" x="769" y="936.0078"/><rect fill="#FFFFFF" height="30.3516" style="stroke:#181818;stroke-width:1.0;" width="10" x="910" y="223.625"/><rect fill="#FFFFFF" height="30.3516" style="stroke:#181818;stroke-width:1.0;" width="10" x="1015" y="284.3281"/><rect fill="#FFFFFF" height="30.3516" style="stroke:#181818;stroke-width:1.0;" width="10" x="1015" y="966.3594"/><rect fill="#FFFFFF" height="287.4609" style="stroke:#181818;stroke-width:1.0;" width="10" x="1146.5" y="405.7344"/><rect fill="#FFFFFF" height="35.3516" style="stroke:#181818;stroke-width:1.0;" width="10" x="1151.5" y="560.1406"/><rect fill="#FFFFFF" height="30" style="stroke:#181818;stroke-width:1.0;" width="10" x="1413.5" y="625.8438"/><rect fill="#FFFFFF" height="30.3516" style="stroke:#181818;stroke-width:1.0;" width="10" x="1583.5" y="345.0313"/><rect fill="#FFFFFF" height="30" style="stroke:#181818;stroke-width:1.0;" width="10" x="1583.5" y="491.7891"/><rect fill="#FFFFFF" height="263.9766" style="stroke:#181818;stroke-width:1.0;" width="10" x="1923" y="1087.7656"/><rect fill="#FFFFFF" height="128.0547" style="stroke:#181818;stroke-width:1.0;" width="10" x="1928" y="1186.3359"/><rect fill="#FFFFFF" height="41.3516" style="stroke:#181818;stroke-width:1.0;" width="10" x="1933" y="1229.6875"/><rect fill="#FFFFFF" height="30.3516" style="stroke:#181818;stroke-width:1.0;" width="10" x="2466" y="1027.0625"/><polygon fill="#181818" points="602,128.5703,612,132.5703,602,136.5703,606,132.5703" style="stroke:#181818;stroke-width:1.0;"/><line style="stroke:#181818;stroke-width:1.0;" x1="57" x2="608" y1="132.5703" y2="132.5703"/><text fill="#000000" font-family="sans-serif" font-size="13" font-weight="bold" lengthAdjust="spacing" textLength="7" x="64" y="127.7139">1</text><text fill="#000000" font-family="sans-serif" font-size="13" lengthAdjust="spacing" textLength="239" x="75" y="127.7139">asks to add a new entry to the To-Do List</text><polygon fill="#181818" points="762,158.9219,772,162.9219,762,166.9219,766,162.9219" style="stroke:#181818;stroke-width:1.0;"/><line style="stroke:#181818;stroke-width:1.0;" x1="624" x2="768" y1="162.9219" y2="162.9219"/><text fill="#000000" font-family="sans-serif" font-size="13" font-weight="bold" lengthAdjust="spacing" textLength="7" x="631" y="158.0654">2</text><text fill="#000000" font-family="sans-serif" font-size="13" lengthAdjust="spacing" textLength="36" x="642" y="158.0654">create</text><polygon fill="#181818" points="757,189.2734,767,193.2734,757,197.2734,761,193.2734" style="stroke:#181818;stroke-width:1.0;"/><line style="stroke:#181818;stroke-width:1.0;" x1="624" x2="763" y1="193.2734" y2="193.2734"/><text fill="#000000" font-family="sans-serif" font-size="13" font-weight="bold" lengthAdjust="spacing" textLength="7" x="631" y="188.417">3</text><text fill="#000000" font-family="sans-serif" font-size="13" lengthAdjust="spacing" textLength="105" x="642" y="188.417">getGreenSpaces()</text><polygon fill="#181818" points="898,219.625,908,223.625,898,227.625,902,223.625" style="stroke:#181818;stroke-width:1.0;"/><line style="stroke:#181818;stroke-width:1.0;" x1="779" x2="904" y1="223.625" y2="223.625"/><text fill="#000000" font-family="sans-serif" font-size="13" font-weight="bold" lengthAdjust="spacing" textLength="7" x="786" y="218.7686">4</text><text fill="#000000" font-family="sans-serif" font-size="13" lengthAdjust="spacing" textLength="75" x="797" y="218.7686">getInstance()</text><polygon fill="#181818" points="790,249.9766,780,253.9766,790,257.9766,786,253.9766" style="stroke:#181818;stroke-width:1.0;"/><line style="stroke:#181818;stroke-width:1.0;stroke-dasharray:2.0,2.0;" x1="784" x2="914" y1="253.9766" y2="253.9766"/><text fill="#000000" font-family="sans-serif" font-size="13" font-weight="bold" lengthAdjust="spacing" textLength="7" x="796" y="249.1201">5</text><text fill="#000000" font-family="sans-serif" font-size="13" lengthAdjust="spacing" textLength="67" x="807" y="249.1201">repositories</text><polygon fill="#181818" points="1003,280.3281,1013,284.3281,1003,288.3281,1007,284.3281" style="stroke:#181818;stroke-width:1.0;"/><line style="stroke:#181818;stroke-width:1.0;" x1="779" x2="1009" y1="284.3281" y2="284.3281"/><text fill="#000000" font-family="sans-serif" font-size="13" font-weight="bold" lengthAdjust="spacing" textLength="7" x="786" y="279.4717">6</text><text fill="#000000" font-family="sans-serif" font-size="13" lengthAdjust="spacing" textLength="160" x="797" y="279.4717">getGreenSpaceRepository()</text><polygon fill="#181818" points="790,310.6797,780,314.6797,790,318.6797,786,314.6797" style="stroke:#181818;stroke-width:1.0;"/><line style="stroke:#181818;stroke-width:1.0;stroke-dasharray:2.0,2.0;" x1="784" x2="1019" y1="314.6797" y2="314.6797"/><text fill="#000000" font-family="sans-serif" font-size="13" font-weight="bold" lengthAdjust="spacing" textLength="7" x="796" y="309.8232">7</text><text fill="#000000" font-family="sans-serif" font-size="13" lengthAdjust="spacing" textLength="134" x="807" y="309.8232">GreenSpaceRepository</text><polygon fill="#181818" points="1571.5,341.0313,1581.5,345.0313,1571.5,349.0313,1575.5,345.0313" style="stroke:#181818;stroke-width:1.0;"/><line style="stroke:#181818;stroke-width:1.0;" x1="779" x2="1577.5" y1="345.0313" y2="345.0313"/><text fill="#000000" font-family="sans-serif" font-size="13" font-weight="bold" lengthAdjust="spacing" textLength="7" x="786" y="340.1748">8</text><text fill="#000000" font-family="sans-serif" font-size="13" lengthAdjust="spacing" textLength="105" x="797" y="340.1748">getGreenSpaces()</text><polygon fill="#181818" points="790,371.3828,780,375.3828,790,379.3828,786,375.3828" style="stroke:#181818;stroke-width:1.0;"/><line style="stroke:#181818;stroke-width:1.0;stroke-dasharray:2.0,2.0;" x1="784" x2="1587.5" y1="375.3828" y2="375.3828"/><text fill="#000000" font-family="sans-serif" font-size="13" font-weight="bold" lengthAdjust="spacing" textLength="7" x="796" y="370.5264">9</text><text fill="#000000" font-family="sans-serif" font-size="13" lengthAdjust="spacing" textLength="100" x="807" y="370.5264">GreenSpacesList</text><polygon fill="#181818" points="1134.5,401.7344,1144.5,405.7344,1134.5,409.7344,1138.5,405.7344" style="stroke:#181818;stroke-width:1.0;"/><line style="stroke:#181818;stroke-width:1.0;" x1="779" x2="1140.5" y1="405.7344" y2="405.7344"/><text fill="#000000" font-family="sans-serif" font-size="13" font-weight="bold" lengthAdjust="spacing" textLength="14" x="786" y="400.8779">10</text><text fill="#000000" font-family="sans-serif" font-size="13" lengthAdjust="spacing" textLength="169" x="804" y="400.8779">ToDTOList(GreenSpacesList)</text><polygon fill="#181818" points="1406.5,432.0859,1416.5,436.0859,1406.5,440.0859,1410.5,436.0859" style="stroke:#181818;stroke-width:1.0;"/><line style="stroke:#181818;stroke-width:1.0;" x1="1156.5" x2="1412.5" y1="436.0859" y2="436.0859"/><text fill="#000000" font-family="sans-serif" font-size="13" font-weight="bold" lengthAdjust="spacing" textLength="14" x="1163.5" y="431.2295">11</text><text fill="#000000" font-family="sans-serif" font-size="13" lengthAdjust="spacing" textLength="46" x="1181.5" y="431.2295">Create()</text><path d="M1068.5,451.0859 L1141.5,451.0859 L1141.5,459.4375 L1131.5,469.4375 L1068.5,469.4375 L1068.5,451.0859 " fill="#EEEEEE" style="stroke:#000000;stroke-width:1.5;"/><rect fill="none" height="212.7578" style="stroke:#000000;stroke-width:1.5;" width="788" x="1068.5" y="451.0859"/><text fill="#000000" font-family="sans-serif" font-size="13" font-weight="bold" lengthAdjust="spacing" textLength="28" x="1083.5" y="465.5811">loop</text><text fill="#000000" font-family="sans-serif" font-size="11" font-weight="bold" lengthAdjust="spacing" textLength="251" x="1156.5" y="464.5049">[for each green space in the green space list]</text><polygon fill="#181818" points="1571.5,487.7891,1581.5,491.7891,1571.5,495.7891,1575.5,491.7891" style="stroke:#181818;stroke-width:1.0;"/><line style="stroke:#181818;stroke-width:1.0;" x1="1156.5" x2="1577.5" y1="491.7891" y2="491.7891"/><text fill="#000000" font-family="sans-serif" font-size="13" font-weight="bold" lengthAdjust="spacing" textLength="14" x="1163.5" y="486.9326">12</text><text fill="#000000" font-family="sans-serif" font-size="13" lengthAdjust="spacing" textLength="114" x="1181.5" y="486.9326">greenSpace = get(i)</text><line style="stroke:#181818;stroke-width:1.0;" x1="1156.5" x2="1203.5" y1="547.1406" y2="547.1406"/><line style="stroke:#181818;stroke-width:1.0;" x1="1203.5" x2="1203.5" y1="547.1406" y2="560.1406"/><line style="stroke:#181818;stroke-width:1.0;" x1="1162.5" x2="1203.5" y1="560.1406" y2="560.1406"/><polygon fill="#181818" points="1172.5,556.1406,1162.5,560.1406,1172.5,564.1406,1168.5,560.1406" style="stroke:#181818;stroke-width:1.0;"/><text fill="#000000" font-family="sans-serif" font-size="13" font-weight="bold" lengthAdjust="spacing" textLength="14" x="1168.5" y="542.2842">13</text><text fill="#000000" font-family="sans-serif" font-size="13" lengthAdjust="spacing" textLength="225" x="1186.5" y="542.2842">greenSpaceDTO = toDTO(greenSpace)</text><polygon fill="#181818" points="1752,591.4922,1762,595.4922,1752,599.4922,1756,595.4922" style="stroke:#181818;stroke-width:1.0;"/><line style="stroke:#181818;stroke-width:1.0;" x1="1156.5" x2="1758" y1="595.4922" y2="595.4922"/><text fill="#000000" font-family="sans-serif" font-size="13" font-weight="bold" lengthAdjust="spacing" textLength="14" x="1163.5" y="590.6357">14</text><text fill="#000000" font-family="sans-serif" font-size="13" lengthAdjust="spacing" textLength="56" x="1181.5" y="590.6357">create(...)</text><polygon fill="#181818" points="1401.5,621.8438,1411.5,625.8438,1401.5,629.8438,1405.5,625.8438" style="stroke:#181818;stroke-width:1.0;"/><line style="stroke:#181818;stroke-width:1.0;" x1="1156.5" x2="1407.5" y1="625.8438" y2="625.8438"/><text fill="#000000" font-family="sans-serif" font-size="13" font-weight="bold" lengthAdjust="spacing" textLength="14" x="1163.5" y="620.9873">15</text><text fill="#000000" font-family="sans-serif" font-size="13" lengthAdjust="spacing" textLength="118" x="1181.5" y="620.9873">add(greenSpaceDto)</text><polygon fill="#181818" points="790,689.1953,780,693.1953,790,697.1953,786,693.1953" style="stroke:#181818;stroke-width:1.0;"/><line style="stroke:#181818;stroke-width:1.0;" x1="784" x2="1150.5" y1="693.1953" y2="693.1953"/><text fill="#000000" font-family="sans-serif" font-size="13" font-weight="bold" lengthAdjust="spacing" textLength="14" x="796" y="688.3389">16</text><text fill="#000000" font-family="sans-serif" font-size="13" lengthAdjust="spacing" textLength="110" x="814" y="688.3389">greenSpaceDtoList</text><polygon fill="#181818" points="635,719.5469,625,723.5469,635,727.5469,631,723.5469" style="stroke:#181818;stroke-width:1.0;"/><line style="stroke:#181818;stroke-width:1.0;stroke-dasharray:2.0,2.0;" x1="629" x2="773" y1="723.5469" y2="723.5469"/><text fill="#000000" font-family="sans-serif" font-size="13" font-weight="bold" lengthAdjust="spacing" textLength="14" x="641" y="718.6904">17</text><text fill="#000000" font-family="sans-serif" font-size="13" lengthAdjust="spacing" textLength="102" x="659" y="718.6904">greenSpacesDTO</text><polygon fill="#181818" points="68,749.8984,58,753.8984,68,757.8984,64,753.8984" style="stroke:#181818;stroke-width:1.0;"/><line style="stroke:#181818;stroke-width:1.0;stroke-dasharray:2.0,2.0;" x1="62" x2="618" y1="753.8984" y2="753.8984"/><text fill="#000000" font-family="sans-serif" font-size="13" font-weight="bold" lengthAdjust="spacing" textLength="14" x="74" y="749.042">18</text><text fill="#000000" font-family="sans-serif" font-size="13" lengthAdjust="spacing" textLength="165" x="92" y="749.042">shows a list of green spaces</text><polygon fill="#181818" points="602,780.25,612,784.25,602,788.25,606,784.25" style="stroke:#181818;stroke-width:1.0;"/><line style="stroke:#181818;stroke-width:1.0;" x1="57" x2="608" y1="784.25" y2="784.25"/><text fill="#000000" font-family="sans-serif" font-size="13" font-weight="bold" lengthAdjust="spacing" textLength="14" x="64" y="779.3936">19</text><text fill="#000000" font-family="sans-serif" font-size="13" lengthAdjust="spacing" textLength="128" x="82" y="779.3936">selects a green space</text><polygon fill="#181818" points="68,810.6016,58,814.6016,68,818.6016,64,814.6016" style="stroke:#181818;stroke-width:1.0;"/><line style="stroke:#181818;stroke-width:1.0;stroke-dasharray:2.0,2.0;" x1="62" x2="618" y1="814.6016" y2="814.6016"/><text fill="#000000" font-family="sans-serif" font-size="13" font-weight="bold" lengthAdjust="spacing" textLength="14" x="74" y="809.7451">20</text><text fill="#000000" font-family="sans-serif" font-size="13" lengthAdjust="spacing" textLength="358" x="92" y="809.7451">requests data (taskTitle, taskDuration, duration, urgency level)</text><polygon fill="#181818" points="602,840.9531,612,844.9531,602,848.9531,606,844.9531" style="stroke:#181818;stroke-width:1.0;"/><line style="stroke:#181818;stroke-width:1.0;" x1="57" x2="608" y1="844.9531" y2="844.9531"/><text fill="#000000" font-family="sans-serif" font-size="13" font-weight="bold" lengthAdjust="spacing" textLength="14" x="64" y="840.0967">21</text><text fill="#000000" font-family="sans-serif" font-size="13" lengthAdjust="spacing" textLength="61" x="82" y="840.0967">types data</text><polygon fill="#181818" points="68,871.3047,58,875.3047,68,879.3047,64,875.3047" style="stroke:#181818;stroke-width:1.0;"/><line style="stroke:#181818;stroke-width:1.0;stroke-dasharray:2.0,2.0;" x1="62" x2="618" y1="875.3047" y2="875.3047"/><text fill="#000000" font-family="sans-serif" font-size="13" font-weight="bold" lengthAdjust="spacing" textLength="14" x="74" y="870.4482">22</text><text fill="#000000" font-family="sans-serif" font-size="13" lengthAdjust="spacing" textLength="515" x="92" y="870.4482">shows all data and requests confirmation (taskTitle, taskDuration, duration, urgency level)</text><polygon fill="#181818" points="602,901.6563,612,905.6563,602,909.6563,606,905.6563" style="stroke:#181818;stroke-width:1.0;"/><line style="stroke:#181818;stroke-width:1.0;" x1="57" x2="608" y1="905.6563" y2="905.6563"/><text fill="#000000" font-family="sans-serif" font-size="13" font-weight="bold" lengthAdjust="spacing" textLength="14" x="64" y="900.7998">23</text><text fill="#000000" font-family="sans-serif" font-size="13" lengthAdjust="spacing" textLength="78" x="82" y="900.7998">confirms data</text><polygon fill="#181818" points="757,932.0078,767,936.0078,757,940.0078,761,936.0078" style="stroke:#181818;stroke-width:1.0;"/><line style="stroke:#181818;stroke-width:1.0;" x1="624" x2="763" y1="936.0078" y2="936.0078"/><text fill="#000000" font-family="sans-serif" font-size="13" font-weight="bold" lengthAdjust="spacing" textLength="14" x="631" y="931.1514">24</text><text fill="#000000" font-family="sans-serif" font-size="13" lengthAdjust="spacing" textLength="108" x="649" y="931.1514">addTaskEntry(Dto)</text><polygon fill="#181818" points="1003,962.3594,1013,966.3594,1003,970.3594,1007,966.3594" style="stroke:#181818;stroke-width:1.0;"/><line style="stroke:#181818;stroke-width:1.0;" x1="779" x2="1009" y1="966.3594" y2="966.3594"/><text fill="#000000" font-family="sans-serif" font-size="13" font-weight="bold" lengthAdjust="spacing" textLength="14" x="786" y="961.5029">25</text><text fill="#000000" font-family="sans-serif" font-size="13" lengthAdjust="spacing" textLength="139" x="804" y="961.5029">getToDoListRepository()</text><polygon fill="#181818" points="790,992.7109,780,996.7109,790,1000.7109,786,996.7109" style="stroke:#181818;stroke-width:1.0;"/><line style="stroke:#181818;stroke-width:1.0;stroke-dasharray:2.0,2.0;" x1="784" x2="1019" y1="996.7109" y2="996.7109"/><text fill="#000000" font-family="sans-serif" font-size="13" font-weight="bold" lengthAdjust="spacing" textLength="14" x="796" y="991.8545">26</text><text fill="#000000" font-family="sans-serif" font-size="13" lengthAdjust="spacing" textLength="110" x="814" y="991.8545">toDoListRepository</text><polygon fill="#181818" points="2454,1023.0625,2464,1027.0625,2454,1031.0625,2458,1027.0625" style="stroke:#181818;stroke-width:1.0;"/><line style="stroke:#181818;stroke-width:1.0;" x1="779" x2="2460" y1="1027.0625" y2="1027.0625"/><text fill="#000000" font-family="sans-serif" font-size="13" font-weight="bold" lengthAdjust="spacing" textLength="14" x="786" y="1022.2061">27</text><text fill="#000000" font-family="sans-serif" font-size="13" lengthAdjust="spacing" textLength="118" x="804" y="1022.2061">DtoToAttributes(Dto)</text><polygon fill="#181818" points="790,1053.4141,780,1057.4141,790,1061.4141,786,1057.4141" style="stroke:#181818;stroke-width:1.0;"/><line style="stroke:#181818;stroke-width:1.0;" x1="784" x2="2470" y1="1057.4141" y2="1057.4141"/><text fill="#000000" font-family="sans-serif" font-size="13" font-weight="bold" lengthAdjust="spacing" textLength="14" x="796" y="1052.5576">28</text><text fill="#000000" font-family="sans-serif" font-size="13" lengthAdjust="spacing" textLength="54" x="814" y="1052.5576">attributes</text><polygon fill="#181818" points="1911,1083.7656,1921,1087.7656,1911,1091.7656,1915,1087.7656" style="stroke:#181818;stroke-width:1.0;"/><line style="stroke:#181818;stroke-width:1.0;" x1="779" x2="1917" y1="1087.7656" y2="1087.7656"/><text fill="#000000" font-family="sans-serif" font-size="13" font-weight="bold" lengthAdjust="spacing" textLength="14" x="786" y="1082.9092">29</text><text fill="#000000" font-family="sans-serif" font-size="13" lengthAdjust="spacing" textLength="324" x="804" y="1082.9092">addTask(taskTitle, taskDuration, duration, urgency level)</text><polygon fill="#181818" points="2302,1114.1172,2312,1118.1172,2302,1122.1172,2306,1118.1172" style="stroke:#181818;stroke-width:1.0;"/><line style="stroke:#181818;stroke-width:1.0;" x1="1933" x2="2308" y1="1118.1172" y2="1118.1172"/><text fill="#000000" font-family="sans-serif" font-size="13" font-weight="bold" lengthAdjust="spacing" textLength="14" x="1940" y="1113.2607">30</text><text fill="#000000" font-family="sans-serif" font-size="13" lengthAdjust="spacing" textLength="339" x="1958" y="1113.2607">createTask(taskTitle, taskDuration, duration, urgency level)</text><rect fill="#E3E3E3" height="49.2188" rx="2.5" ry="2.5" style="stroke:#181818;stroke-width:0.5;" width="82" x="2314" y="1095.7656"/><text fill="#000000" font-family="sans-serif" font-size="14" lengthAdjust="spacing" textLength="59" x="2325.5" y="1117.2988">taskEntry</text><text fill="#000000" font-family="sans-serif" font-size="14" lengthAdjust="spacing" textLength="68" x="2321" y="1134.9082">:TaskEntry</text><line style="stroke:#181818;stroke-width:1.0;stroke-dasharray:2.0,2.0;" x1="1933" x2="1980" y1="1173.3359" y2="1173.3359"/><line style="stroke:#181818;stroke-width:1.0;stroke-dasharray:2.0,2.0;" x1="1980" x2="1980" y1="1173.3359" y2="1186.3359"/><line style="stroke:#181818;stroke-width:1.0;stroke-dasharray:2.0,2.0;" x1="1939" x2="1980" y1="1186.3359" y2="1186.3359"/><polygon fill="#181818" points="1949,1182.3359,1939,1186.3359,1949,1190.3359,1945,1186.3359" style="stroke:#181818;stroke-width:1.0;"/><text fill="#000000" font-family="sans-serif" font-size="13" font-weight="bold" lengthAdjust="spacing" textLength="14" x="1945" y="1168.4795">31</text><text fill="#000000" font-family="sans-serif" font-size="13" lengthAdjust="spacing" textLength="111" x="1963" y="1168.4795">validateEntry(entry)</text><line style="stroke:#181818;stroke-width:1.0;stroke-dasharray:2.0,2.0;" x1="1938" x2="1985" y1="1216.6875" y2="1216.6875"/><line style="stroke:#181818;stroke-width:1.0;stroke-dasharray:2.0,2.0;" x1="1985" x2="1985" y1="1216.6875" y2="1229.6875"/><line style="stroke:#181818;stroke-width:1.0;stroke-dasharray:2.0,2.0;" x1="1944" x2="1985" y1="1229.6875" y2="1229.6875"/><polygon fill="#181818" points="1954,1225.6875,1944,1229.6875,1954,1233.6875,1950,1229.6875" style="stroke:#181818;stroke-width:1.0;"/><text fill="#000000" font-family="sans-serif" font-size="13" font-weight="bold" lengthAdjust="spacing" textLength="14" x="1950" y="1211.8311">32</text><text fill="#000000" font-family="sans-serif" font-size="13" lengthAdjust="spacing" textLength="94" x="1968" y="1211.8311">saveEntry(entry)</text><line style="stroke:#181818;stroke-width:1.0;stroke-dasharray:2.0,2.0;" x1="1943" x2="1985" y1="1270.0391" y2="1270.0391"/><line style="stroke:#181818;stroke-width:1.0;stroke-dasharray:2.0,2.0;" x1="1985" x2="1985" y1="1270.0391" y2="1283.0391"/><line style="stroke:#181818;stroke-width:1.0;stroke-dasharray:2.0,2.0;" x1="1938" x2="1985" y1="1283.0391" y2="1283.0391"/><polygon fill="#181818" points="1948,1279.0391,1938,1283.0391,1948,1287.0391,1944,1283.0391" style="stroke:#181818;stroke-width:1.0;"/><text fill="#000000" font-family="sans-serif" font-size="13" font-weight="bold" lengthAdjust="spacing" textLength="14" x="1950" y="1265.1826">33</text><text fill="#000000" font-family="sans-serif" font-size="13" lengthAdjust="spacing" textLength="4" x="1968" y="1265.1826"> </text><line style="stroke:#181818;stroke-width:1.0;stroke-dasharray:2.0,2.0;" x1="1938" x2="1980" y1="1313.3906" y2="1313.3906"/><line style="stroke:#181818;stroke-width:1.0;stroke-dasharray:2.0,2.0;" x1="1980" x2="1980" y1="1313.3906" y2="1326.3906"/><line style="stroke:#181818;stroke-width:1.0;stroke-dasharray:2.0,2.0;" x1="1933" x2="1980" y1="1326.3906" y2="1326.3906"/><polygon fill="#181818" points="1943,1322.3906,1933,1326.3906,1943,1330.3906,1939,1326.3906" style="stroke:#181818;stroke-width:1.0;"/><text fill="#000000" font-family="sans-serif" font-size="13" font-weight="bold" lengthAdjust="spacing" textLength="14" x="1945" y="1308.5342">34</text><text fill="#000000" font-family="sans-serif" font-size="13" lengthAdjust="spacing" textLength="4" x="1963" y="1308.5342"> </text><polygon fill="#181818" points="790,1347.7422,780,1351.7422,790,1355.7422,786,1351.7422" style="stroke:#181818;stroke-width:1.0;"/><line style="stroke:#181818;stroke-width:1.0;stroke-dasharray:2.0,2.0;" x1="784" x2="1927" y1="1351.7422" y2="1351.7422"/><text fill="#000000" font-family="sans-serif" font-size="13" font-weight="bold" lengthAdjust="spacing" textLength="14" x="796" y="1346.8857">35</text><text fill="#000000" font-family="sans-serif" font-size="13" lengthAdjust="spacing" textLength="59" x="814" y="1346.8857">TaskEntry</text><polygon fill="#181818" points="635,1378.0938,625,1382.0938,635,1386.0938,631,1382.0938" style="stroke:#181818;stroke-width:1.0;"/><line style="stroke:#181818;stroke-width:1.0;stroke-dasharray:2.0,2.0;" x1="629" x2="773" y1="1382.0938" y2="1382.0938"/><text fill="#000000" font-family="sans-serif" font-size="13" font-weight="bold" lengthAdjust="spacing" textLength="14" x="641" y="1377.2373">36</text><text fill="#000000" font-family="sans-serif" font-size="13" lengthAdjust="spacing" textLength="59" x="659" y="1377.2373">TaskEntry</text><polygon fill="#181818" points="63,1408.4453,53,1412.4453,63,1416.4453,59,1412.4453" style="stroke:#181818;stroke-width:1.0;"/><line style="stroke:#181818;stroke-width:1.0;stroke-dasharray:2.0,2.0;" x1="57" x2="618" y1="1412.4453" y2="1412.4453"/><text fill="#000000" font-family="sans-serif" font-size="13" font-weight="bold" lengthAdjust="spacing" textLength="14" x="69" y="1407.5889">37</text><text fill="#000000" font-family="sans-serif" font-size="13" lengthAdjust="spacing" textLength="158" x="87" y="1407.5889">displays operation success</text><!--SRC=[jLPDSzem4BtxL-paKkWa-G7Cj3DCw31CmpG3pYqNOI-WOYHN4gJy-wvaaENFaYRTGsBatRTlrwidwHqNELDi3tifPB9LSezWr04ZxT_aBDcn3IxDAKDGc1WcDbdeeBSibQzSR63DCerHn0v6YiD-XIgAFcrvYh2MqgpaxuWbHYgucIf40Kj2HdWHSoO8Nzq0qp2Up2D2DJpXEHC6RaRZD8sPtdqJHfsUPyxfUTRZyo3fhyooC-13l7YiUYymbveJ3uxQkVY5qvBRqeXyDK854IzYr01uUXp7DKQkGbVWdENvcSjy_5HrstYlIVpZaMlp8Y08FI-wM7hkJ54MKBHdCQswojNFYP4Z292DTAxJ9cmi9z9chO76aqNLqLmQJXtnpIzSnyllTT2BGz2DsBQ3Z6Q27vb1z-qZ8AC7kFjAdnb6vBZJO2ImD0K60by1BOvTCbk4MDvD95Y-Bj9ZqOZ0sGY6mEmS45oYa5wtlzkWAJka1qFlvL7TCFbbQowK85fcg42S2KqR9i40hWBPDdmLJsjjw7SbyN0-Ax4fNf_dKeaTvdepok2kCjmMQF1sM07HDiGkmat42qEQxxwlLPq3sWiDMXQWbPNsWzH2g05ruKDpJ2YqRuhjEgZXTJ2pqrydPf48a816yE0cjLQNjKpAd0HL0L7RWfCGq4vAkN1x8bpAwWK5QQYW4PGI15ziJmUycR7IWlhBMeSwSj6_C1TLIEcCRTcWNEt9tDEjgMjNiR47z_VtmpwAV-iwoKn0Y6Ho67MJikBPawljDOgqAxyTfqgFZEmRHwUUpN6yw6Q9eqCU0K1LpAmIKgoLtX6TwF9LazpQwG6v3YUg49Zmey-Qegqnetk2HGWY6mBTdblXhmDg2awPOJ2mnqpCJOQtO1yd1yKCb-8MKlzqK1iKoGaoF68sl8QVEULO9BYIrBaXMLQmOY8jUIPIhBdQEpB_YUyvnJMKlQgnu4uqS8FyXkEiF0IQru7t7G6cWTTx042FdSd6XVvIYR4S6wFuwc3eGAYKt6O-KTmc2g75nGwzDDRdw0sgsmIh2LlxJhUiyjFzuomrwwEhcxD6NPJD9gNxskVF_dBq0Qazk2_fo39Emul5EBehN8_QMyRzU9eTFmQhJy3V6Hfr1fydoU_FAEg3wHRv4k1j-fvodMVif47IPRmGBdr8IDnRrJtuQQ_eVm00]--></g></svg>