<?xml version="1.0" encoding="UTF-8" standalone="no"?><svg xmlns="http://www.w3.org/2000/svg" xmlns:xlink="http://www.w3.org/1999/xlink" contentStyleType="text/css" height="1034px" preserveAspectRatio="none" style="width:1993px;height:1034px;background:#FFFFFF;" version="1.1" viewBox="0 0 1993 1034" width="1993px" zoomAndPan="magnify"><defs/><g><rect fill="#FFFFFF" height="806.6563" style="stroke:#181818;stroke-width:1.0;" width="10" x="47" y="110.2188"/><rect fill="#FFFFFF" height="273.1641" style="stroke:#181818;stroke-width:1.0;" width="10" x="603" y="132.5703"/><rect fill="#FFFFFF" height="30.3516" style="stroke:#181818;stroke-width:1.0;" width="10" x="603" y="436.0859"/><rect fill="#FFFFFF" height="30.3516" style="stroke:#181818;stroke-width:1.0;" width="10" x="603" y="496.7891"/><rect fill="#FFFFFF" height="359.3828" style="stroke:#181818;stroke-width:1.0;" width="10" x="603" y="557.4922"/><rect fill="#FFFFFF" height="212.4609" style="stroke:#181818;stroke-width:1.0;" width="10" x="963" y="162.9219"/><rect fill="#FFFFFF" height="298.6797" style="stroke:#181818;stroke-width:1.0;" width="10" x="963" y="587.8438"/><rect fill="#FFFFFF" height="30.3516" style="stroke:#181818;stroke-width:1.0;" width="10" x="1106" y="193.2734"/><rect fill="#FFFFFF" height="30.3516" style="stroke:#181818;stroke-width:1.0;" width="10" x="1213" y="253.9766"/><rect fill="#FFFFFF" height="30.3516" style="stroke:#181818;stroke-width:1.0;" width="10" x="1213" y="618.1953"/><rect fill="#FFFFFF" height="30.3516" style="stroke:#181818;stroke-width:1.0;" width="10" x="1357.5" y="314.6797"/><rect fill="#FFFFFF" height="177.2734" style="stroke:#181818;stroke-width:1.0;" width="10" x="1525" y="678.8984"/><line style="stroke:#181818;stroke-width:0.5;stroke-dasharray:5.0,5.0;" x1="52" x2="52" y1="100.2188" y2="934.875"/><line style="stroke:#181818;stroke-width:0.5;stroke-dasharray:5.0,5.0;" x1="607.5" x2="607.5" y1="100.2188" y2="934.875"/><line style="stroke:#181818;stroke-width:0.5;stroke-dasharray:5.0,5.0;" x1="967.5" x2="967.5" y1="100.2188" y2="934.875"/><line style="stroke:#181818;stroke-width:0.5;stroke-dasharray:5.0,5.0;" x1="1110.5" x2="1110.5" y1="100.2188" y2="934.875"/><line style="stroke:#181818;stroke-width:0.5;stroke-dasharray:5.0,5.0;" x1="1217.5" x2="1217.5" y1="100.2188" y2="934.875"/><line style="stroke:#181818;stroke-width:0.5;stroke-dasharray:5.0,5.0;" x1="1362.5" x2="1362.5" y1="100.2188" y2="934.875"/><line style="stroke:#181818;stroke-width:0.5;stroke-dasharray:5.0,5.0;" x1="1529.5" x2="1529.5" y1="100.2188" y2="934.875"/><line style="stroke:#181818;stroke-width:0.5;stroke-dasharray:5.0,5.0;" x1="1946" x2="1946" y1="727.0078" y2="934.875"/><text fill="#000000" font-family="sans-serif" font-size="14" lengthAdjust="spacing" textLength="84" x="5" y="79.5332">Green Space</text><text fill="#000000" font-family="sans-serif" font-size="14" lengthAdjust="spacing" textLength="56" x="21" y="97.1426">Manager</text><ellipse cx="52" cy="13.5" fill="#E3E3E3" rx="8" ry="8" style="stroke:#181818;stroke-width:0.5;"/><path d="M52,21.5 L52,48.5 M39,29.5 L65,29.5 M52,48.5 L39,63.5 M52,48.5 L65,63.5 " fill="none" style="stroke:#181818;stroke-width:0.5;"/><text fill="#000000" font-family="sans-serif" font-size="14" lengthAdjust="spacing" textLength="84" x="5" y="948.4082">Green Space</text><text fill="#000000" font-family="sans-serif" font-size="14" lengthAdjust="spacing" textLength="56" x="21" y="966.0176">Manager</text><ellipse cx="52" cy="977.5938" fill="#E3E3E3" rx="8" ry="8" style="stroke:#181818;stroke-width:0.5;"/><path d="M52,985.5938 L52,1012.5938 M39,993.5938 L65,993.5938 M52,1012.5938 L39,1027.5938 M52,1012.5938 L65,1027.5938 " fill="none" style="stroke:#181818;stroke-width:0.5;"/><rect fill="#E3E3E3" height="31.6094" rx="2.5" ry="2.5" style="stroke:#181818;stroke-width:0.5;" width="119" x="548.5" y="67.6094"/><text fill="#000000" font-family="sans-serif" font-size="14" lengthAdjust="spacing" textLength="105" x="555.5" y="89.1426">:AddTaskEntryUI</text><rect fill="#E3E3E3" height="31.6094" rx="2.5" ry="2.5" style="stroke:#181818;stroke-width:0.5;" width="119" x="548.5" y="933.875"/><text fill="#000000" font-family="sans-serif" font-size="14" lengthAdjust="spacing" textLength="105" x="555.5" y="955.4082">:AddTaskEntryUI</text><rect fill="#E3E3E3" height="31.6094" rx="2.5" ry="2.5" style="stroke:#181818;stroke-width:0.5;" width="169" x="883.5" y="67.6094"/><text fill="#000000" font-family="sans-serif" font-size="14" lengthAdjust="spacing" textLength="155" x="890.5" y="89.1426">:AddTaskEntryController</text><rect fill="#E3E3E3" height="31.6094" rx="2.5" ry="2.5" style="stroke:#181818;stroke-width:0.5;" width="169" x="883.5" y="933.875"/><text fill="#000000" font-family="sans-serif" font-size="14" lengthAdjust="spacing" textLength="155" x="890.5" y="955.4082">:AddTaskEntryController</text><rect fill="#E3E3E3" height="31.6094" rx="2.5" ry="2.5" style="stroke:#181818;stroke-width:0.5;" width="97" x="1062.5" y="67.6094"/><text fill="#000000" font-family="sans-serif" font-size="14" lengthAdjust="spacing" textLength="83" x="1069.5" y="89.1426">:Repositories</text><rect fill="#E3E3E3" height="31.6094" rx="2.5" ry="2.5" style="stroke:#181818;stroke-width:0.5;" width="97" x="1062.5" y="933.875"/><text fill="#000000" font-family="sans-serif" font-size="14" lengthAdjust="spacing" textLength="83" x="1069.5" y="955.4082">:Repositories</text><rect fill="#E3E3E3" height="49.2188" rx="2.5" ry="2.5" style="stroke:#181818;stroke-width:0.5;" width="97" x="1169.5" y="50"/><text fill="#000000" font-family="sans-serif" font-size="14" lengthAdjust="spacing" textLength="78" x="1179" y="71.5332">:repositories</text><text fill="#000000" font-family="sans-serif" font-size="14" lengthAdjust="spacing" textLength="83" x="1176.5" y="89.1426">:Repositories</text><rect fill="#E3E3E3" height="49.2188" rx="2.5" ry="2.5" style="stroke:#181818;stroke-width:0.5;" width="97" x="1169.5" y="933.875"/><text fill="#000000" font-family="sans-serif" font-size="14" lengthAdjust="spacing" textLength="78" x="1179" y="955.4082">:repositories</text><text fill="#000000" font-family="sans-serif" font-size="14" lengthAdjust="spacing" textLength="83" x="1176.5" y="973.0176">:Repositories</text><rect fill="#E3E3E3" height="31.6094" rx="2.5" ry="2.5" style="stroke:#181818;stroke-width:0.5;" width="172" x="1276.5" y="67.6094"/><text fill="#000000" font-family="sans-serif" font-size="14" lengthAdjust="spacing" textLength="158" x="1283.5" y="89.1426">:UrgencyLevelRepository</text><rect fill="#E3E3E3" height="31.6094" rx="2.5" ry="2.5" style="stroke:#181818;stroke-width:0.5;" width="172" x="1276.5" y="933.875"/><text fill="#000000" font-family="sans-serif" font-size="14" lengthAdjust="spacing" textLength="158" x="1283.5" y="955.4082">:UrgencyLevelRepository</text><rect fill="#E3E3E3" height="31.6094" rx="2.5" ry="2.5" style="stroke:#181818;stroke-width:0.5;" width="143" x="1458.5" y="67.6094"/><text fill="#000000" font-family="sans-serif" font-size="14" lengthAdjust="spacing" textLength="129" x="1465.5" y="89.1426">:ToDoListRepository</text><rect fill="#E3E3E3" height="31.6094" rx="2.5" ry="2.5" style="stroke:#181818;stroke-width:0.5;" width="143" x="1458.5" y="933.875"/><text fill="#000000" font-family="sans-serif" font-size="14" lengthAdjust="spacing" textLength="129" x="1465.5" y="955.4082">:ToDoListRepository</text><rect fill="#E3E3E3" height="49.2188" rx="2.5" ry="2.5" style="stroke:#181818;stroke-width:0.5;" width="82" x="1905" y="933.875"/><text fill="#000000" font-family="sans-serif" font-size="14" lengthAdjust="spacing" textLength="59" x="1916.5" y="955.4082">taskEntry</text><text fill="#000000" font-family="sans-serif" font-size="14" lengthAdjust="spacing" textLength="68" x="1912" y="973.0176">:TaskEntry</text><rect fill="#FFFFFF" height="806.6563" style="stroke:#181818;stroke-width:1.0;" width="10" x="47" y="110.2188"/><rect fill="#FFFFFF" height="273.1641" style="stroke:#181818;stroke-width:1.0;" width="10" x="603" y="132.5703"/><rect fill="#FFFFFF" height="30.3516" style="stroke:#181818;stroke-width:1.0;" width="10" x="603" y="436.0859"/><rect fill="#FFFFFF" height="30.3516" style="stroke:#181818;stroke-width:1.0;" width="10" x="603" y="496.7891"/><rect fill="#FFFFFF" height="359.3828" style="stroke:#181818;stroke-width:1.0;" width="10" x="603" y="557.4922"/><rect fill="#FFFFFF" height="212.4609" style="stroke:#181818;stroke-width:1.0;" width="10" x="963" y="162.9219"/><rect fill="#FFFFFF" height="298.6797" style="stroke:#181818;stroke-width:1.0;" width="10" x="963" y="587.8438"/><rect fill="#FFFFFF" height="30.3516" style="stroke:#181818;stroke-width:1.0;" width="10" x="1106" y="193.2734"/><rect fill="#FFFFFF" height="30.3516" style="stroke:#181818;stroke-width:1.0;" width="10" x="1213" y="253.9766"/><rect fill="#FFFFFF" height="30.3516" style="stroke:#181818;stroke-width:1.0;" width="10" x="1213" y="618.1953"/><rect fill="#FFFFFF" height="30.3516" style="stroke:#181818;stroke-width:1.0;" width="10" x="1357.5" y="314.6797"/><rect fill="#FFFFFF" height="177.2734" style="stroke:#181818;stroke-width:1.0;" width="10" x="1525" y="678.8984"/><polygon fill="#181818" points="591,128.5703,601,132.5703,591,136.5703,595,132.5703" style="stroke:#181818;stroke-width:1.0;"/><line style="stroke:#181818;stroke-width:1.0;" x1="57" x2="597" y1="132.5703" y2="132.5703"/><text fill="#000000" font-family="sans-serif" font-size="13" font-weight="bold" lengthAdjust="spacing" textLength="7" x="64" y="127.7139">1</text><text fill="#000000" font-family="sans-serif" font-size="13" lengthAdjust="spacing" textLength="239" x="75" y="127.7139">asks to add a new entry to the To-Do List</text><polygon fill="#181818" points="951,158.9219,961,162.9219,951,166.9219,955,162.9219" style="stroke:#181818;stroke-width:1.0;"/><line style="stroke:#181818;stroke-width:1.0;" x1="613" x2="957" y1="162.9219" y2="162.9219"/><text fill="#000000" font-family="sans-serif" font-size="13" font-weight="bold" lengthAdjust="spacing" textLength="7" x="620" y="158.0654">2</text><text fill="#000000" font-family="sans-serif" font-size="13" lengthAdjust="spacing" textLength="124" x="631" y="158.0654">getUrgencyLevelList()</text><polygon fill="#181818" points="1094,189.2734,1104,193.2734,1094,197.2734,1098,193.2734" style="stroke:#181818;stroke-width:1.0;"/><line style="stroke:#181818;stroke-width:1.0;" x1="973" x2="1100" y1="193.2734" y2="193.2734"/><text fill="#000000" font-family="sans-serif" font-size="13" font-weight="bold" lengthAdjust="spacing" textLength="7" x="980" y="188.417">3</text><text fill="#000000" font-family="sans-serif" font-size="13" lengthAdjust="spacing" textLength="75" x="991" y="188.417">getInstance()</text><polygon fill="#181818" points="984,219.625,974,223.625,984,227.625,980,223.625" style="stroke:#181818;stroke-width:1.0;"/><line style="stroke:#181818;stroke-width:1.0;stroke-dasharray:2.0,2.0;" x1="978" x2="1110" y1="223.625" y2="223.625"/><text fill="#000000" font-family="sans-serif" font-size="13" font-weight="bold" lengthAdjust="spacing" textLength="7" x="990" y="218.7686">4</text><text fill="#000000" font-family="sans-serif" font-size="13" lengthAdjust="spacing" textLength="67" x="1001" y="218.7686">repositories</text><polygon fill="#181818" points="1201,249.9766,1211,253.9766,1201,257.9766,1205,253.9766" style="stroke:#181818;stroke-width:1.0;"/><line style="stroke:#181818;stroke-width:1.0;" x1="973" x2="1207" y1="253.9766" y2="253.9766"/><text fill="#000000" font-family="sans-serif" font-size="13" font-weight="bold" lengthAdjust="spacing" textLength="7" x="980" y="249.1201">5</text><text fill="#000000" font-family="sans-serif" font-size="13" lengthAdjust="spacing" textLength="165" x="991" y="249.1201">getUrgencyLevelRepository()</text><polygon fill="#181818" points="984,280.3281,974,284.3281,984,288.3281,980,284.3281" style="stroke:#181818;stroke-width:1.0;"/><line style="stroke:#181818;stroke-width:1.0;stroke-dasharray:2.0,2.0;" x1="978" x2="1217" y1="284.3281" y2="284.3281"/><text fill="#000000" font-family="sans-serif" font-size="13" font-weight="bold" lengthAdjust="spacing" textLength="7" x="990" y="279.4717">6</text><text fill="#000000" font-family="sans-serif" font-size="13" lengthAdjust="spacing" textLength="139" x="1001" y="279.4717">UrgencyLevelRepository</text><polygon fill="#181818" points="1345.5,310.6797,1355.5,314.6797,1345.5,318.6797,1349.5,314.6797" style="stroke:#181818;stroke-width:1.0;"/><line style="stroke:#181818;stroke-width:1.0;" x1="973" x2="1351.5" y1="314.6797" y2="314.6797"/><text fill="#000000" font-family="sans-serif" font-size="13" font-weight="bold" lengthAdjust="spacing" textLength="7" x="980" y="309.8232">7</text><text fill="#000000" font-family="sans-serif" font-size="13" lengthAdjust="spacing" textLength="124" x="991" y="309.8232">getUrgencyLevelList()</text><polygon fill="#181818" points="984,341.0313,974,345.0313,984,349.0313,980,345.0313" style="stroke:#181818;stroke-width:1.0;"/><line style="stroke:#181818;stroke-width:1.0;stroke-dasharray:2.0,2.0;" x1="978" x2="1361.5" y1="345.0313" y2="345.0313"/><text fill="#000000" font-family="sans-serif" font-size="13" font-weight="bold" lengthAdjust="spacing" textLength="7" x="990" y="340.1748">8</text><text fill="#000000" font-family="sans-serif" font-size="13" lengthAdjust="spacing" textLength="98" x="1001" y="340.1748">UrgencyLevelList</text><polygon fill="#181818" points="624,371.3828,614,375.3828,624,379.3828,620,375.3828" style="stroke:#181818;stroke-width:1.0;"/><line style="stroke:#181818;stroke-width:1.0;stroke-dasharray:2.0,2.0;" x1="618" x2="967" y1="375.3828" y2="375.3828"/><text fill="#000000" font-family="sans-serif" font-size="13" font-weight="bold" lengthAdjust="spacing" textLength="7" x="630" y="370.5264">9</text><text fill="#000000" font-family="sans-serif" font-size="13" lengthAdjust="spacing" textLength="98" x="641" y="370.5264">UrgencyLevelList</text><polygon fill="#181818" points="68,401.7344,58,405.7344,68,409.7344,64,405.7344" style="stroke:#181818;stroke-width:1.0;"/><line style="stroke:#181818;stroke-width:1.0;stroke-dasharray:2.0,2.0;" x1="62" x2="607" y1="405.7344" y2="405.7344"/><text fill="#000000" font-family="sans-serif" font-size="13" font-weight="bold" lengthAdjust="spacing" textLength="14" x="74" y="400.8779">10</text><text fill="#000000" font-family="sans-serif" font-size="13" lengthAdjust="spacing" textLength="443" x="92" y="400.8779">shows a list of degrees of urgency and asks to select one (UrgencyLevelList)</text><polygon fill="#181818" points="591,432.0859,601,436.0859,591,440.0859,595,436.0859" style="stroke:#181818;stroke-width:1.0;"/><line style="stroke:#181818;stroke-width:1.0;" x1="57" x2="597" y1="436.0859" y2="436.0859"/><text fill="#000000" font-family="sans-serif" font-size="13" font-weight="bold" lengthAdjust="spacing" textLength="14" x="64" y="431.2295">11</text><text fill="#000000" font-family="sans-serif" font-size="13" lengthAdjust="spacing" textLength="132" x="82" y="431.2295">selects a urgency level</text><polygon fill="#181818" points="68,462.4375,58,466.4375,68,470.4375,64,466.4375" style="stroke:#181818;stroke-width:1.0;"/><line style="stroke:#181818;stroke-width:1.0;stroke-dasharray:2.0,2.0;" x1="62" x2="607" y1="466.4375" y2="466.4375"/><text fill="#000000" font-family="sans-serif" font-size="13" font-weight="bold" lengthAdjust="spacing" textLength="14" x="74" y="461.5811">12</text><text fill="#000000" font-family="sans-serif" font-size="13" lengthAdjust="spacing" textLength="262" x="92" y="461.5811">requests data (taskDescription, taskDuration)</text><polygon fill="#181818" points="591,492.7891,601,496.7891,591,500.7891,595,496.7891" style="stroke:#181818;stroke-width:1.0;"/><line style="stroke:#181818;stroke-width:1.0;" x1="57" x2="597" y1="496.7891" y2="496.7891"/><text fill="#000000" font-family="sans-serif" font-size="13" font-weight="bold" lengthAdjust="spacing" textLength="14" x="64" y="491.9326">13</text><text fill="#000000" font-family="sans-serif" font-size="13" lengthAdjust="spacing" textLength="61" x="82" y="491.9326">types data</text><polygon fill="#181818" points="68,523.1406,58,527.1406,68,531.1406,64,527.1406" style="stroke:#181818;stroke-width:1.0;"/><line style="stroke:#181818;stroke-width:1.0;stroke-dasharray:2.0,2.0;" x1="62" x2="607" y1="527.1406" y2="527.1406"/><text fill="#000000" font-family="sans-serif" font-size="13" font-weight="bold" lengthAdjust="spacing" textLength="14" x="74" y="522.2842">14</text><text fill="#000000" font-family="sans-serif" font-size="13" lengthAdjust="spacing" textLength="504" x="92" y="522.2842">shows all data and requests confirmation (taskDescription, taskDuration, UrgencyLevel)</text><polygon fill="#181818" points="591,553.4922,601,557.4922,591,561.4922,595,557.4922" style="stroke:#181818;stroke-width:1.0;"/><line style="stroke:#181818;stroke-width:1.0;" x1="57" x2="597" y1="557.4922" y2="557.4922"/><text fill="#000000" font-family="sans-serif" font-size="13" font-weight="bold" lengthAdjust="spacing" textLength="14" x="64" y="552.6357">15</text><text fill="#000000" font-family="sans-serif" font-size="13" lengthAdjust="spacing" textLength="78" x="82" y="552.6357">confirms data</text><polygon fill="#181818" points="951,583.8438,961,587.8438,951,591.8438,955,587.8438" style="stroke:#181818;stroke-width:1.0;"/><line style="stroke:#181818;stroke-width:1.0;" x1="613" x2="957" y1="587.8438" y2="587.8438"/><text fill="#000000" font-family="sans-serif" font-size="13" font-weight="bold" lengthAdjust="spacing" textLength="14" x="620" y="582.9873">16</text><text fill="#000000" font-family="sans-serif" font-size="13" lengthAdjust="spacing" textLength="313" x="638" y="582.9873">addTask(taskDescription, taskDuration, UrgencyLevel)</text><polygon fill="#181818" points="1201,614.1953,1211,618.1953,1201,622.1953,1205,618.1953" style="stroke:#181818;stroke-width:1.0;"/><line style="stroke:#181818;stroke-width:1.0;" x1="973" x2="1207" y1="618.1953" y2="618.1953"/><text fill="#000000" font-family="sans-serif" font-size="13" font-weight="bold" lengthAdjust="spacing" textLength="14" x="980" y="613.3389">17</text><text fill="#000000" font-family="sans-serif" font-size="13" lengthAdjust="spacing" textLength="139" x="998" y="613.3389">getToDoListRepository()</text><polygon fill="#181818" points="984,644.5469,974,648.5469,984,652.5469,980,648.5469" style="stroke:#181818;stroke-width:1.0;"/><line style="stroke:#181818;stroke-width:1.0;stroke-dasharray:2.0,2.0;" x1="978" x2="1217" y1="648.5469" y2="648.5469"/><text fill="#000000" font-family="sans-serif" font-size="13" font-weight="bold" lengthAdjust="spacing" textLength="14" x="990" y="643.6904">18</text><text fill="#000000" font-family="sans-serif" font-size="13" lengthAdjust="spacing" textLength="110" x="1008" y="643.6904">toDoListRepository</text><polygon fill="#181818" points="1513,674.8984,1523,678.8984,1513,682.8984,1517,678.8984" style="stroke:#181818;stroke-width:1.0;"/><line style="stroke:#181818;stroke-width:1.0;" x1="973" x2="1519" y1="678.8984" y2="678.8984"/><text fill="#000000" font-family="sans-serif" font-size="13" font-weight="bold" lengthAdjust="spacing" textLength="14" x="980" y="674.042">19</text><text fill="#000000" font-family="sans-serif" font-size="13" lengthAdjust="spacing" textLength="313" x="998" y="674.042">addTask(taskDescription, taskDuration, UrgencyLevel)</text><polygon fill="#181818" points="1893,705.25,1903,709.25,1893,713.25,1897,709.25" style="stroke:#181818;stroke-width:1.0;"/><line style="stroke:#181818;stroke-width:1.0;" x1="1535" x2="1899" y1="709.25" y2="709.25"/><text fill="#000000" font-family="sans-serif" font-size="13" font-weight="bold" lengthAdjust="spacing" textLength="14" x="1542" y="704.3936">20</text><text fill="#000000" font-family="sans-serif" font-size="13" lengthAdjust="spacing" textLength="328" x="1560" y="704.3936">createTask(taskDescription, taskDuration, UrgencyLevel)</text><rect fill="#E3E3E3" height="49.2188" rx="2.5" ry="2.5" style="stroke:#181818;stroke-width:0.5;" width="82" x="1905" y="686.8984"/><text fill="#000000" font-family="sans-serif" font-size="14" lengthAdjust="spacing" textLength="59" x="1916.5" y="708.4316">taskEntry</text><text fill="#000000" font-family="sans-serif" font-size="14" lengthAdjust="spacing" textLength="68" x="1912" y="726.041">:TaskEntry</text><line style="stroke:#181818;stroke-width:1.0;stroke-dasharray:2.0,2.0;" x1="1535" x2="1577" y1="769.4688" y2="769.4688"/><line style="stroke:#181818;stroke-width:1.0;stroke-dasharray:2.0,2.0;" x1="1577" x2="1577" y1="769.4688" y2="782.4688"/><line style="stroke:#181818;stroke-width:1.0;stroke-dasharray:2.0,2.0;" x1="1536" x2="1577" y1="782.4688" y2="782.4688"/><polygon fill="#181818" points="1546,778.4688,1536,782.4688,1546,786.4688,1542,782.4688" style="stroke:#181818;stroke-width:1.0;"/><text fill="#000000" font-family="sans-serif" font-size="13" font-weight="bold" lengthAdjust="spacing" textLength="14" x="1542" y="764.6123">21</text><text fill="#000000" font-family="sans-serif" font-size="13" lengthAdjust="spacing" textLength="111" x="1560" y="764.6123">validateEntry(entry)</text><line style="stroke:#181818;stroke-width:1.0;stroke-dasharray:2.0,2.0;" x1="1535" x2="1577" y1="812.8203" y2="812.8203"/><line style="stroke:#181818;stroke-width:1.0;stroke-dasharray:2.0,2.0;" x1="1577" x2="1577" y1="812.8203" y2="825.8203"/><line style="stroke:#181818;stroke-width:1.0;stroke-dasharray:2.0,2.0;" x1="1536" x2="1577" y1="825.8203" y2="825.8203"/><polygon fill="#181818" points="1546,821.8203,1536,825.8203,1546,829.8203,1542,825.8203" style="stroke:#181818;stroke-width:1.0;"/><text fill="#000000" font-family="sans-serif" font-size="13" font-weight="bold" lengthAdjust="spacing" textLength="14" x="1542" y="807.9639">22</text><text fill="#000000" font-family="sans-serif" font-size="13" lengthAdjust="spacing" textLength="94" x="1560" y="807.9639">saveEntry(entry)</text><polygon fill="#181818" points="984,852.1719,974,856.1719,984,860.1719,980,856.1719" style="stroke:#181818;stroke-width:1.0;"/><line style="stroke:#181818;stroke-width:1.0;stroke-dasharray:2.0,2.0;" x1="978" x2="1529" y1="856.1719" y2="856.1719"/><text fill="#000000" font-family="sans-serif" font-size="13" font-weight="bold" lengthAdjust="spacing" textLength="14" x="990" y="851.3154">23</text><text fill="#000000" font-family="sans-serif" font-size="13" lengthAdjust="spacing" textLength="45" x="1008" y="851.3154">boolean</text><polygon fill="#181818" points="624,882.5234,614,886.5234,624,890.5234,620,886.5234" style="stroke:#181818;stroke-width:1.0;"/><line style="stroke:#181818;stroke-width:1.0;stroke-dasharray:2.0,2.0;" x1="618" x2="967" y1="886.5234" y2="886.5234"/><text fill="#000000" font-family="sans-serif" font-size="13" font-weight="bold" lengthAdjust="spacing" textLength="14" x="630" y="881.667">24</text><text fill="#000000" font-family="sans-serif" font-size="13" lengthAdjust="spacing" textLength="45" x="648" y="881.667">boolean</text><polygon fill="#181818" points="63,912.875,53,916.875,63,920.875,59,916.875" style="stroke:#181818;stroke-width:1.0;"/><line style="stroke:#181818;stroke-width:1.0;stroke-dasharray:2.0,2.0;" x1="57" x2="607" y1="916.875" y2="916.875"/><text fill="#000000" font-family="sans-serif" font-size="13" font-weight="bold" lengthAdjust="spacing" textLength="14" x="69" y="912.0186">25</text><text fill="#000000" font-family="sans-serif" font-size="13" lengthAdjust="spacing" textLength="158" x="87" y="912.0186">displays operation success</text><!--SRC=[fLLDR-8m4BtdLunwMRPg_m27bL1PLQXKMW6zzJ9D1h0mTjPsOFdtEvE0oGUqgSW19MRUcpUVzXjbSdIuXQqrDbqxkoK8hg34ntzoJ3UuedauQ097QK2pqdK3lyRCxfLPmHArfoJ18bXJR3_89ScFjSe8bjQ63_ilmJHO1tVFZiZ0d9a9tiqh6kPtTu0UHkFNX5c3IbME9i3TS9Hb2_IRtoQumzkaD7gRV6BpPFdNQdqaV5hCfYth6UNMAnQYo9SsyU0mLn8Rgsz1N0toRheCVwQZHTB2lBaLcVGmfHtfiuSgWDbpotXXntQgV6WPBiQpfc4uXSagOiYLwMZ-aaY2rGu3bObCW1z-WSTVd3COijd6Gx20MGO8XlP0WfUZi2POsCUn1P5H8YCNvxiya8Tvc4soodmh2lKe1Jdu6KqZlgn1F9Qdn3FFXSnNj1FZkSzIgj4rA2-Lh64fpoNsnxFwUb4Rs8pw-pb58XtGpSWPVYsGgdFQoakscjJBdDT4TpbFAhdnlYnRi_JSgHrrmd95N6oU2x8wN9MgKtDUfQbHD3j9Uf7Hqk53ta9sxxchDKF1BXcruYtZvRMec05D5aV0a-PL1jOG3DgUgrpKbK-wirGHYCSJlHRyvvCJrJhwMv1dU8O1OI1ZFIQVEfK7PSq3b0U5G_dg9ISSSghOUYeuvalhIeBa9efAhLagjoszVo7keL6tNbAFx7tKnXx3QiD_NqlFHNGUt-uclcrqGuVl-sFBry2jEMWebskb8roSY2- -H-xlfKoEsFOsZv4t1h53hRZkL5vSW_Bw-GhYSTVF_9Zn3sireRcMvaxmpJNKHlVRFfdokSO3hvkSghI0BzAKlByq4RLFkQV_0m00]--></g></svg>