<?xml version="1.0" encoding="UTF-8" standalone="no"?><svg xmlns="http://www.w3.org/2000/svg" xmlns:xlink="http://www.w3.org/1999/xlink" contentStyleType="text/css" height="723px" preserveAspectRatio="none" style="width:1159px;height:723px;background:#FFFFFF;" version="1.1" viewBox="0 0 1159 723" width="1159px" zoomAndPan="magnify"><defs/><g><!--class RegisterVehicleCheckupUI--><g id="elem_RegisterVehicleCheckupUI"><rect codeLine="11" fill="#F1F1F1" height="48" id="RegisterVehicleCheckupUI" rx="2.5" ry="2.5" style="stroke:#181818;stroke-width:0.5;" width="199" x="7" y="33.5"/><ellipse cx="22" cy="49.5" fill="#ADD1B2" rx="11" ry="11" style="stroke:#181818;stroke-width:1.0;"/><path d="M24.7656,45.375 Q24.9219,45.1563 25.1094,45.0469 Q25.2969,44.9375 25.5156,44.9375 Q25.8906,44.9375 26.125,45.2031 Q26.3594,45.4531 26.3594,46.0625 L26.3594,47.5156 Q26.3594,48.125 26.125,48.3906 Q25.8906,48.6563 25.5156,48.6563 Q25.1719,48.6563 24.9688,48.4531 Q24.7656,48.2656 24.6563,47.75 Q24.6094,47.3906 24.4219,47.2031 Q24.0938,46.8281 23.4844,46.6094 Q22.875,46.3906 22.25,46.3906 Q21.4844,46.3906 20.8438,46.7188 Q20.2188,47.0469 19.7188,47.7969 Q19.2344,48.5469 19.2344,49.5781 L19.2344,50.6719 Q19.2344,51.9063 20.125,52.7344 Q21.0156,53.5469 22.6094,53.5469 Q23.5469,53.5469 24.2031,53.2969 Q24.5938,53.1406 25.0156,52.7031 Q25.2813,52.4375 25.4219,52.3594 Q25.5781,52.2813 25.7813,52.2813 Q26.1094,52.2813 26.3594,52.5469 Q26.625,52.7969 26.625,53.1406 Q26.625,53.4844 26.2813,53.8906 Q25.7813,54.4688 24.9844,54.7969 Q23.9063,55.25 22.6094,55.25 Q21.0938,55.25 19.8906,54.625 Q18.9063,54.125 18.2188,53.0625 Q17.5313,51.9844 17.5313,50.7031 L17.5313,49.5469 Q17.5313,48.2188 18.1406,47.0781 Q18.7656,45.9219 19.8594,45.3125 Q20.9531,44.6875 22.1875,44.6875 Q22.9219,44.6875 23.5625,44.8594 Q24.2188,45.0156 24.7656,45.375 Z " fill="#000000"/><text fill="#000000" font-family="sans-serif" font-size="14" lengthAdjust="spacing" textLength="167" x="36" y="55.2285">RegisterVehicleCheckupUI</text><line style="stroke:#181818;stroke-width:0.5;" x1="8" x2="205" y1="65.5" y2="65.5"/><line style="stroke:#181818;stroke-width:0.5;" x1="8" x2="205" y1="73.5" y2="73.5"/></g><!--class RegisterVehicleCheckupController--><g id="elem_RegisterVehicleCheckupController"><rect codeLine="15" fill="#F1F1F1" height="83.2188" id="RegisterVehicleCheckupController" rx="2.5" ry="2.5" style="stroke:#181818;stroke-width:0.5;" width="351" x="241" y="16"/><ellipse cx="303.75" cy="32" fill="#ADD1B2" rx="11" ry="11" style="stroke:#181818;stroke-width:1.0;"/><path d="M306.5156,27.875 Q306.6719,27.6563 306.8594,27.5469 Q307.0469,27.4375 307.2656,27.4375 Q307.6406,27.4375 307.875,27.7031 Q308.1094,27.9531 308.1094,28.5625 L308.1094,30.0156 Q308.1094,30.625 307.875,30.8906 Q307.6406,31.1563 307.2656,31.1563 Q306.9219,31.1563 306.7188,30.9531 Q306.5156,30.7656 306.4063,30.25 Q306.3594,29.8906 306.1719,29.7031 Q305.8438,29.3281 305.2344,29.1094 Q304.625,28.8906 304,28.8906 Q303.2344,28.8906 302.5938,29.2188 Q301.9688,29.5469 301.4688,30.2969 Q300.9844,31.0469 300.9844,32.0781 L300.9844,33.1719 Q300.9844,34.4063 301.875,35.2344 Q302.7656,36.0469 304.3594,36.0469 Q305.2969,36.0469 305.9531,35.7969 Q306.3438,35.6406 306.7656,35.2031 Q307.0313,34.9375 307.1719,34.8594 Q307.3281,34.7813 307.5313,34.7813 Q307.8594,34.7813 308.1094,35.0469 Q308.375,35.2969 308.375,35.6406 Q308.375,35.9844 308.0313,36.3906 Q307.5313,36.9688 306.7344,37.2969 Q305.6563,37.75 304.3594,37.75 Q302.8438,37.75 301.6406,37.125 Q300.6563,36.625 299.9688,35.5625 Q299.2813,34.4844 299.2813,33.2031 L299.2813,32.0469 Q299.2813,30.7188 299.8906,29.5781 Q300.5156,28.4219 301.6094,27.8125 Q302.7031,27.1875 303.9375,27.1875 Q304.6719,27.1875 305.3125,27.3594 Q305.9688,27.5156 306.5156,27.875 Z " fill="#000000"/><text fill="#000000" font-family="sans-serif" font-size="14" lengthAdjust="spacing" textLength="217" x="324.25" y="37.7285">RegisterVehicleCheckupController</text><line style="stroke:#181818;stroke-width:0.5;" x1="242" x2="591" y1="48" y2="48"/><line style="stroke:#181818;stroke-width:0.5;" x1="242" x2="591" y1="56" y2="56"/><text fill="#000000" font-family="sans-serif" font-size="14" lengthAdjust="spacing" textLength="339" x="247" y="74.5332">+CreateVehicleCheckupController(VehicleRepository)</text><text fill="#000000" font-family="sans-serif" font-size="14" lengthAdjust="spacing" textLength="212" x="247" y="92.1426">+registerVehicleCheckup(vehicle)</text></g><!--class Repositories--><g id="elem_Repositories"><rect codeLine="20" fill="#F1F1F1" height="100.8281" id="Repositories" rx="2.5" ry="2.5" style="stroke:#181818;stroke-width:0.5;" width="255" x="696" y="7"/><ellipse cx="779.75" cy="23" fill="#ADD1B2" rx="11" ry="11" style="stroke:#181818;stroke-width:1.0;"/><path d="M782.5156,18.875 Q782.6719,18.6563 782.8594,18.5469 Q783.0469,18.4375 783.2656,18.4375 Q783.6406,18.4375 783.875,18.7031 Q784.1094,18.9531 784.1094,19.5625 L784.1094,21.0156 Q784.1094,21.625 783.875,21.8906 Q783.6406,22.1563 783.2656,22.1563 Q782.9219,22.1563 782.7188,21.9531 Q782.5156,21.7656 782.4063,21.25 Q782.3594,20.8906 782.1719,20.7031 Q781.8438,20.3281 781.2344,20.1094 Q780.625,19.8906 780,19.8906 Q779.2344,19.8906 778.5938,20.2188 Q777.9688,20.5469 777.4688,21.2969 Q776.9844,22.0469 776.9844,23.0781 L776.9844,24.1719 Q776.9844,25.4063 777.875,26.2344 Q778.7656,27.0469 780.3594,27.0469 Q781.2969,27.0469 781.9531,26.7969 Q782.3438,26.6406 782.7656,26.2031 Q783.0313,25.9375 783.1719,25.8594 Q783.3281,25.7813 783.5313,25.7813 Q783.8594,25.7813 784.1094,26.0469 Q784.375,26.2969 784.375,26.6406 Q784.375,26.9844 784.0313,27.3906 Q783.5313,27.9688 782.7344,28.2969 Q781.6563,28.75 780.3594,28.75 Q778.8438,28.75 777.6406,28.125 Q776.6563,27.625 775.9688,26.5625 Q775.2813,25.4844 775.2813,24.2031 L775.2813,23.0469 Q775.2813,21.7188 775.8906,20.5781 Q776.5156,19.4219 777.6094,18.8125 Q778.7031,18.1875 779.9375,18.1875 Q780.6719,18.1875 781.3125,18.3594 Q781.9688,18.5156 782.5156,18.875 Z " fill="#000000"/><text fill="#000000" font-family="sans-serif" font-size="14" lengthAdjust="spacing" textLength="79" x="800.25" y="28.7285">Repositories</text><line style="stroke:#181818;stroke-width:0.5;" x1="697" x2="950" y1="39" y2="39"/><line style="stroke:#181818;stroke-width:0.5;" x1="697" x2="950" y1="47" y2="47"/><text fill="#000000" font-family="sans-serif" font-size="14" lengthAdjust="spacing" textLength="181" x="702" y="65.5332">-Repositories(): Repositories</text><text fill="#000000" font-family="sans-serif" font-size="14" lengthAdjust="spacing" textLength="182" x="702" y="83.1426">+getInstance() : Repositories</text><text fill="#000000" font-family="sans-serif" font-size="14" lengthAdjust="spacing" textLength="243" x="702" y="100.752">+getVehicleRepository() : Repositories</text></g><!--class VehicleRepository--><g id="elem_VehicleRepository"><rect codeLine="27" fill="#F1F1F1" height="65.6094" id="VehicleRepository" rx="2.5" ry="2.5" style="stroke:#181818;stroke-width:0.5;" width="146" x="618.5" y="248"/><ellipse cx="633.5" cy="264" fill="#ADD1B2" rx="11" ry="11" style="stroke:#181818;stroke-width:1.0;"/><path d="M636.2656,259.875 Q636.4219,259.6563 636.6094,259.5469 Q636.7969,259.4375 637.0156,259.4375 Q637.3906,259.4375 637.625,259.7031 Q637.8594,259.9531 637.8594,260.5625 L637.8594,262.0156 Q637.8594,262.625 637.625,262.8906 Q637.3906,263.1563 637.0156,263.1563 Q636.6719,263.1563 636.4688,262.9531 Q636.2656,262.7656 636.1563,262.25 Q636.1094,261.8906 635.9219,261.7031 Q635.5938,261.3281 634.9844,261.1094 Q634.375,260.8906 633.75,260.8906 Q632.9844,260.8906 632.3438,261.2188 Q631.7188,261.5469 631.2188,262.2969 Q630.7344,263.0469 630.7344,264.0781 L630.7344,265.1719 Q630.7344,266.4063 631.625,267.2344 Q632.5156,268.0469 634.1094,268.0469 Q635.0469,268.0469 635.7031,267.7969 Q636.0938,267.6406 636.5156,267.2031 Q636.7813,266.9375 636.9219,266.8594 Q637.0781,266.7813 637.2813,266.7813 Q637.6094,266.7813 637.8594,267.0469 Q638.125,267.2969 638.125,267.6406 Q638.125,267.9844 637.7813,268.3906 Q637.2813,268.9688 636.4844,269.2969 Q635.4063,269.75 634.1094,269.75 Q632.5938,269.75 631.3906,269.125 Q630.4063,268.625 629.7188,267.5625 Q629.0313,266.4844 629.0313,265.2031 L629.0313,264.0469 Q629.0313,262.7188 629.6406,261.5781 Q630.2656,260.4219 631.3594,259.8125 Q632.4531,259.1875 633.6875,259.1875 Q634.4219,259.1875 635.0625,259.3594 Q635.7188,259.5156 636.2656,259.875 Z " fill="#000000"/><text fill="#000000" font-family="sans-serif" font-size="14" lengthAdjust="spacing" textLength="114" x="647.5" y="269.7285">VehicleRepository</text><line style="stroke:#181818;stroke-width:0.5;" x1="619.5" x2="763.5" y1="280" y2="280"/><line style="stroke:#181818;stroke-width:0.5;" x1="619.5" x2="763.5" y1="288" y2="288"/><text fill="#000000" font-family="sans-serif" font-size="14" lengthAdjust="spacing" textLength="66" x="624.5" y="306.5332">+register()</text></g><!--class CheckupRepository--><g id="elem_CheckupRepository"><rect codeLine="31" fill="#F1F1F1" height="100.8281" id="CheckupRepository" rx="2.5" ry="2.5" style="stroke:#181818;stroke-width:0.5;" width="282" x="870.5" y="454"/><ellipse cx="945.25" cy="470" fill="#ADD1B2" rx="11" ry="11" style="stroke:#181818;stroke-width:1.0;"/><path d="M948.0156,465.875 Q948.1719,465.6563 948.3594,465.5469 Q948.5469,465.4375 948.7656,465.4375 Q949.1406,465.4375 949.375,465.7031 Q949.6094,465.9531 949.6094,466.5625 L949.6094,468.0156 Q949.6094,468.625 949.375,468.8906 Q949.1406,469.1563 948.7656,469.1563 Q948.4219,469.1563 948.2188,468.9531 Q948.0156,468.7656 947.9063,468.25 Q947.8594,467.8906 947.6719,467.7031 Q947.3438,467.3281 946.7344,467.1094 Q946.125,466.8906 945.5,466.8906 Q944.7344,466.8906 944.0938,467.2188 Q943.4688,467.5469 942.9688,468.2969 Q942.4844,469.0469 942.4844,470.0781 L942.4844,471.1719 Q942.4844,472.4063 943.375,473.2344 Q944.2656,474.0469 945.8594,474.0469 Q946.7969,474.0469 947.4531,473.7969 Q947.8438,473.6406 948.2656,473.2031 Q948.5313,472.9375 948.6719,472.8594 Q948.8281,472.7813 949.0313,472.7813 Q949.3594,472.7813 949.6094,473.0469 Q949.875,473.2969 949.875,473.6406 Q949.875,473.9844 949.5313,474.3906 Q949.0313,474.9688 948.2344,475.2969 Q947.1563,475.75 945.8594,475.75 Q944.3438,475.75 943.1406,475.125 Q942.1563,474.625 941.4688,473.5625 Q940.7813,472.4844 940.7813,471.2031 L940.7813,470.0469 Q940.7813,468.7188 941.3906,467.5781 Q942.0156,466.4219 943.1094,465.8125 Q944.2031,465.1875 945.4375,465.1875 Q946.1719,465.1875 946.8125,465.3594 Q947.4688,465.5156 948.0156,465.875 Z " fill="#000000"/><text fill="#000000" font-family="sans-serif" font-size="14" lengthAdjust="spacing" textLength="124" x="965.75" y="475.7285">CheckupRepository</text><line style="stroke:#181818;stroke-width:0.5;" x1="871.5" x2="1151.5" y1="486" y2="486"/><line style="stroke:#181818;stroke-width:0.5;" x1="871.5" x2="1151.5" y1="494" y2="494"/><text fill="#000000" font-family="sans-serif" font-size="14" lengthAdjust="spacing" textLength="270" x="876.5" y="512.5332">+registerVehicleCheckup(vehicleList, date)</text><text fill="#000000" font-family="sans-serif" font-size="14" lengthAdjust="spacing" textLength="88" x="876.5" y="530.1426">+addVehicle()</text><text fill="#000000" font-family="sans-serif" font-size="14" lengthAdjust="spacing" textLength="157" x="876.5" y="547.752">+validateVehicle(vehicle)</text></g><!--class Vehicle--><g id="elem_Vehicle"><rect codeLine="37" fill="#F1F1F1" height="83.2188" id="Vehicle" rx="2.5" ry="2.5" style="stroke:#181818;stroke-width:0.5;" width="101" x="731" y="633"/><ellipse cx="756.35" cy="649" fill="#ADD1B2" rx="11" ry="11" style="stroke:#181818;stroke-width:1.0;"/><path d="M759.1156,644.875 Q759.2719,644.6563 759.4594,644.5469 Q759.6469,644.4375 759.8656,644.4375 Q760.2406,644.4375 760.475,644.7031 Q760.7094,644.9531 760.7094,645.5625 L760.7094,647.0156 Q760.7094,647.625 760.475,647.8906 Q760.2406,648.1563 759.8656,648.1563 Q759.5219,648.1563 759.3188,647.9531 Q759.1156,647.7656 759.0063,647.25 Q758.9594,646.8906 758.7719,646.7031 Q758.4438,646.3281 757.8344,646.1094 Q757.225,645.8906 756.6,645.8906 Q755.8344,645.8906 755.1938,646.2188 Q754.5688,646.5469 754.0688,647.2969 Q753.5844,648.0469 753.5844,649.0781 L753.5844,650.1719 Q753.5844,651.4063 754.475,652.2344 Q755.3656,653.0469 756.9594,653.0469 Q757.8969,653.0469 758.5531,652.7969 Q758.9438,652.6406 759.3656,652.2031 Q759.6313,651.9375 759.7719,651.8594 Q759.9281,651.7813 760.1313,651.7813 Q760.4594,651.7813 760.7094,652.0469 Q760.975,652.2969 760.975,652.6406 Q760.975,652.9844 760.6313,653.3906 Q760.1313,653.9688 759.3344,654.2969 Q758.2563,654.75 756.9594,654.75 Q755.4438,654.75 754.2406,654.125 Q753.2563,653.625 752.5688,652.5625 Q751.8813,651.4844 751.8813,650.2031 L751.8813,649.0469 Q751.8813,647.7188 752.4906,646.5781 Q753.1156,645.4219 754.2094,644.8125 Q755.3031,644.1875 756.5375,644.1875 Q757.2719,644.1875 757.9125,644.3594 Q758.5688,644.5156 759.1156,644.875 Z " fill="#000000"/><text fill="#000000" font-family="sans-serif" font-size="14" lengthAdjust="spacing" textLength="46" x="772.65" y="654.7285">Vehicle</text><line style="stroke:#181818;stroke-width:0.5;" x1="732" x2="831" y1="665" y2="665"/><text fill="#000000" font-family="sans-serif" font-size="14" lengthAdjust="spacing" textLength="89" x="737" y="683.5332">-name : String</text><line style="stroke:#181818;stroke-width:0.5;" x1="732" x2="831" y1="690.6094" y2="690.6094"/><text fill="#000000" font-family="sans-serif" font-size="14" lengthAdjust="spacing" textLength="64" x="737" y="709.1426">+Vehicle()</text></g><!--link RegisterVehicleCheckupUI to RegisterVehicleCheckupController--><g id="link_RegisterVehicleCheckupUI_RegisterVehicleCheckupController"><path codeLine="44" d="M206.4,57.5 C208.6,57.5 209.83,57.5 209.83,57.5 C209.83,57.5 220.84,57.5 235.67,57.5 " fill="none" id="RegisterVehicleCheckupUI-to-RegisterVehicleCheckupController" style="stroke:#181818;stroke-width:1.0;stroke-dasharray:7.0,7.0;"/><polygon fill="#181818" points="240.84,57.5,231.84,53.5,235.84,57.5,231.84,61.5,240.84,57.5" style="stroke:#181818;stroke-width:1.0;"/></g><!--link RegisterVehicleCheckupController to Repositories--><g id="link_RegisterVehicleCheckupController_Repositories"><path codeLine="45" d="M592.06,57.5 C625.14,57.5 659.23,57.5 690.73,57.5 " fill="none" id="RegisterVehicleCheckupController-to-Repositories" style="stroke:#181818;stroke-width:1.0;stroke-dasharray:7.0,7.0;"/><polygon fill="#181818" points="695.77,57.5,686.77,53.5,690.77,57.5,686.77,61.5,695.77,57.5" style="stroke:#181818;stroke-width:1.0;"/><text fill="#000000" font-family="sans-serif" font-size="13" lengthAdjust="spacing" textLength="67" x="610.5" y="50.9951">repositories</text></g><!--link Repositories to VehicleRepository--><g id="link_Repositories_VehicleRepository"><path codeLine="46" d="M793.88,108.21 C769.41,149.27 735.24,206.61 713.24,243.52 " fill="none" id="Repositories-to-VehicleRepository" style="stroke:#181818;stroke-width:1.0;"/><polygon fill="#181818" points="710.62,247.92,718.6582,242.229,713.1757,243.6225,711.7822,238.14,710.62,247.92" style="stroke:#181818;stroke-width:1.0;"/><text fill="#000000" font-family="sans-serif" font-size="13" lengthAdjust="spacing" textLength="7" x="706.8416" y="237.0189">1</text></g><!--link Repositories to Repositories--><g id="link_Repositories_Repositories"><path codeLine="47" d="M951.23,43.65 C971.86,45.66 986,50.27 986,57.5 C986,64.11 974.18,68.53 956.4,70.77 " fill="none" id="Repositories-to-Repositories" style="stroke:#181818;stroke-width:1.0;"/><polygon fill="#181818" points="951.23,71.35,960.6195,74.3228,956.1989,70.7931,959.7285,66.3725,951.23,71.35" style="stroke:#181818;stroke-width:1.0;"/><text fill="#000000" font-family="sans-serif" font-size="13" lengthAdjust="spacing" textLength="49" x="992" y="62.9951">instance</text></g><!--link Repositories to Vehicle--><g id="link_Repositories_Vehicle"><path codeLine="48" d="M820.99,108.07 C819.35,140.54 817.5,177 817.5,177 C817.5,177 817.5,177 817.5,505.5 C817.5,505.5 801.95,578.04 791.29,627.79 " fill="none" id="Repositories-to-Vehicle" style="stroke:#181818;stroke-width:1.0;"/><polygon fill="#181818" points="790.21,632.83,796.0006,624.8633,791.2537,627.9402,788.1769,623.1933,790.21,632.83" style="stroke:#181818;stroke-width:1.0;"/><text fill="#000000" font-family="sans-serif" font-size="13" lengthAdjust="spacing" textLength="7" x="813.1824" y="129.4706">1</text><text fill="#000000" font-family="sans-serif" font-size="13" lengthAdjust="spacing" textLength="5" x="786.2385" y="622.1095">*</text></g><!--link VehicleRepository to Vehicle--><g id="link_VehicleRepository_Vehicle"><path codeLine="50" d="M698.87,314.04 C714.8,383.37 752.54,547.54 770.99,627.77 " fill="none" id="VehicleRepository-to-Vehicle" style="stroke:#181818;stroke-width:1.0;"/><polygon fill="#181818" points="772.17,632.93,774.0355,623.2594,771.0415,628.059,766.242,625.065,772.17,632.93" style="stroke:#181818;stroke-width:1.0;"/><text fill="#000000" font-family="sans-serif" font-size="13" lengthAdjust="spacing" textLength="5" x="765.2107" y="622.2261">*</text></g><!--link RegisterVehicleCheckupController to Vehicle--><g id="link_RegisterVehicleCheckupController_Vehicle"><path codeLine="51" d="M431.64,99.28 C444.37,133.56 460.5,177 460.5,177 C460.5,177 460.5,177 460.5,505.5 C460.5,505.5 634.66,596.65 726.42,644.67 " fill="none" id="RegisterVehicleCheckupController-to-Vehicle" style="stroke:#181818;stroke-width:1.0;stroke-dasharray:7.0,7.0;"/><polygon fill="#181818" points="730.99,647.07,724.8661,639.3565,726.5586,644.7542,721.1609,646.4467,730.99,647.07" style="stroke:#181818;stroke-width:1.0;"/><text fill="#000000" font-family="sans-serif" font-size="13" lengthAdjust="spacing" textLength="43" x="461.5" y="358.4951">Vehicle</text></g><!--link RegisterVehicleCheckupController to VehicleRepository--><g id="link_RegisterVehicleCheckupController_VehicleRepository"><path codeLine="52" d="M466.94,99.13 C518.67,140.79 598.33,204.96 647.56,244.61 " fill="none" id="RegisterVehicleCheckupController-to-VehicleRepository" style="stroke:#181818;stroke-width:1.0;stroke-dasharray:7.0,7.0;"/><polygon fill="#181818" points="651.64,247.89,647.1422,239.1282,647.7468,244.7526,642.1224,245.3573,651.64,247.89" style="stroke:#181818;stroke-width:1.0;"/><text fill="#000000" font-family="sans-serif" font-size="13" lengthAdjust="spacing" textLength="105" x="576.5" y="183.4951">VehicleRepository</text><text fill="#000000" font-family="sans-serif" font-size="13" lengthAdjust="spacing" textLength="7" x="635.697" y="236.9827">1</text></g><!--link CheckupRepository to Vehicle--><g id="link_CheckupRepository_Vehicle"><path codeLine="53" d="M943.43,555.22 C909.32,580.13 868.58,609.9 836.49,633.33 " fill="none" id="CheckupRepository-to-Vehicle" style="stroke:#181818;stroke-width:1.0;"/><polygon fill="#181818" points="832.22,636.45,841.847,634.3711,836.2575,633.5006,837.128,627.9112,832.22,636.45" style="stroke:#181818;stroke-width:1.0;"/><text fill="#000000" font-family="sans-serif" font-size="13" lengthAdjust="spacing" textLength="21" x="897.5" y="599.4951">has</text></g><!--SRC=[bPB1Ri8m38RlUGfh5zgnLjkL0zB42Madq7RFKjD6XAHA0bE7UFUb9JGjfMFBBV5dv_TlJyoMov9gkeETaeeLMkqGhDuZ2P6IiYtDSMqhWQ2HMIfpqGLCGJFrnMKE6ofCDoAuH5kL2AKILNqXanj1fQqYdImcg36lrch-kRUuP4gk-JV2Co4JWHiBLe7cUM4XuxKShYGXJGwiCEV6elx0WZE1YmBPTb- -Bu_aH7vd5afQhOH0VIG0C5ref1R7cCW7LbWgmwtILTnawPkreyFvwfXJKE4pEHfeleIaznZ5izwzGQQGerrAuqR0C8fX31d86xB1a07izKpXqauKarQuxodGr_3jtjzSx0aovsdiUPfb7eqkJmSgU1Pix_ZcJglW8jYx9gbRsHcitRh8_5merAsx96DR0UaSxgu3kKj0cgPwtf_epDdHCRiNIv9a3Wyl3qFZhxX1JUudt-VgKat9nxOa8SEXNYD_wikTUMkuK_2lv94kGvbEvuErQlI6ZmjgVW00]--></g></svg>