<?xml version="1.0" encoding="UTF-8" standalone="no"?><svg xmlns="http://www.w3.org/2000/svg" xmlns:xlink="http://www.w3.org/1999/xlink" contentStyleType="text/css" height="1084px" preserveAspectRatio="none" style="width:1055px;height:1084px;background:#FFFFFF;" version="1.1" viewBox="0 0 1055 1084" width="1055px" zoomAndPan="magnify"><defs/><g><!--class TaskEntry--><g id="elem_TaskEntry"><rect codeLine="9" fill="#F1F1F1" height="153.6563" id="TaskEntry" rx="2.5" ry="2.5" style="stroke:#181818;stroke-width:0.5;" width="128" x="7" y="295"/><ellipse cx="36.4" cy="311" fill="#ADD1B2" rx="11" ry="11" style="stroke:#181818;stroke-width:1.0;"/><path d="M39.1656,306.875 Q39.3219,306.6563 39.5094,306.5469 Q39.6969,306.4375 39.9156,306.4375 Q40.2906,306.4375 40.525,306.7031 Q40.7594,306.9531 40.7594,307.5625 L40.7594,309.0156 Q40.7594,309.625 40.525,309.8906 Q40.2906,310.1563 39.9156,310.1563 Q39.5719,310.1563 39.3688,309.9531 Q39.1656,309.7656 39.0563,309.25 Q39.0094,308.8906 38.8219,308.7031 Q38.4938,308.3281 37.8844,308.1094 Q37.275,307.8906 36.65,307.8906 Q35.8844,307.8906 35.2438,308.2188 Q34.6188,308.5469 34.1188,309.2969 Q33.6344,310.0469 33.6344,311.0781 L33.6344,312.1719 Q33.6344,313.4063 34.525,314.2344 Q35.4156,315.0469 37.0094,315.0469 Q37.9469,315.0469 38.6031,314.7969 Q38.9938,314.6406 39.4156,314.2031 Q39.6813,313.9375 39.8219,313.8594 Q39.9781,313.7813 40.1813,313.7813 Q40.5094,313.7813 40.7594,314.0469 Q41.025,314.2969 41.025,314.6406 Q41.025,314.9844 40.6813,315.3906 Q40.1813,315.9688 39.3844,316.2969 Q38.3063,316.75 37.0094,316.75 Q35.4938,316.75 34.2906,316.125 Q33.3063,315.625 32.6188,314.5625 Q31.9313,313.4844 31.9313,312.2031 L31.9313,311.0469 Q31.9313,309.7188 32.5406,308.5781 Q33.1656,307.4219 34.2594,306.8125 Q35.3531,306.1875 36.5875,306.1875 Q37.3219,306.1875 37.9625,306.3594 Q38.6188,306.5156 39.1656,306.875 Z " fill="#000000"/><text fill="#000000" font-family="sans-serif" font-size="14" lengthAdjust="spacing" textLength="64" x="53.6" y="316.7285">TaskEntry</text><line style="stroke:#181818;stroke-width:0.5;" x1="8" x2="134" y1="327" y2="327"/><text fill="#000000" font-family="sans-serif" font-size="14" lengthAdjust="spacing" textLength="27" x="13" y="345.5332">-title</text><text fill="#000000" font-family="sans-serif" font-size="14" lengthAdjust="spacing" textLength="74" x="13" y="363.1426">-description</text><text fill="#000000" font-family="sans-serif" font-size="14" lengthAdjust="spacing" textLength="90" x="13" y="380.752">-urgencyLevel</text><text fill="#000000" font-family="sans-serif" font-size="14" lengthAdjust="spacing" textLength="116" x="13" y="398.3613">-expectedDuration</text><text fill="#000000" font-family="sans-serif" font-size="14" lengthAdjust="spacing" textLength="36" x="13" y="415.9707">-state</text><text fill="#000000" font-family="sans-serif" font-size="14" lengthAdjust="spacing" textLength="82" x="13" y="433.5801">-greenSpace</text><line style="stroke:#181818;stroke-width:0.5;" x1="8" x2="134" y1="440.6563" y2="440.6563"/></g><!--class AddTaskEntryController--><g id="elem_AddTaskEntryController"><rect codeLine="21" fill="#F1F1F1" height="100.8281" id="AddTaskEntryController" rx="2.5" ry="2.5" style="stroke:#181818;stroke-width:0.5;" width="301" x="219.5" y="116"/><ellipse cx="290.25" cy="132" fill="#ADD1B2" rx="11" ry="11" style="stroke:#181818;stroke-width:1.0;"/><path d="M293.0156,127.875 Q293.1719,127.6563 293.3594,127.5469 Q293.5469,127.4375 293.7656,127.4375 Q294.1406,127.4375 294.375,127.7031 Q294.6094,127.9531 294.6094,128.5625 L294.6094,130.0156 Q294.6094,130.625 294.375,130.8906 Q294.1406,131.1563 293.7656,131.1563 Q293.4219,131.1563 293.2188,130.9531 Q293.0156,130.7656 292.9063,130.25 Q292.8594,129.8906 292.6719,129.7031 Q292.3438,129.3281 291.7344,129.1094 Q291.125,128.8906 290.5,128.8906 Q289.7344,128.8906 289.0938,129.2188 Q288.4688,129.5469 287.9688,130.2969 Q287.4844,131.0469 287.4844,132.0781 L287.4844,133.1719 Q287.4844,134.4063 288.375,135.2344 Q289.2656,136.0469 290.8594,136.0469 Q291.7969,136.0469 292.4531,135.7969 Q292.8438,135.6406 293.2656,135.2031 Q293.5313,134.9375 293.6719,134.8594 Q293.8281,134.7813 294.0313,134.7813 Q294.3594,134.7813 294.6094,135.0469 Q294.875,135.2969 294.875,135.6406 Q294.875,135.9844 294.5313,136.3906 Q294.0313,136.9688 293.2344,137.2969 Q292.1563,137.75 290.8594,137.75 Q289.3438,137.75 288.1406,137.125 Q287.1563,136.625 286.4688,135.5625 Q285.7813,134.4844 285.7813,133.2031 L285.7813,132.0469 Q285.7813,130.7188 286.3906,129.5781 Q287.0156,128.4219 288.1094,127.8125 Q289.2031,127.1875 290.4375,127.1875 Q291.1719,127.1875 291.8125,127.3594 Q292.4688,127.5156 293.0156,127.875 Z " fill="#000000"/><text fill="#000000" font-family="sans-serif" font-size="14" lengthAdjust="spacing" textLength="151" x="310.75" y="137.7285">AddTaskEntryController</text><line style="stroke:#181818;stroke-width:0.5;" x1="220.5" x2="519.5" y1="148" y2="148"/><text fill="#000000" font-family="sans-serif" font-size="14" lengthAdjust="spacing" textLength="254" x="225.5" y="166.5332">-ToDoListRepository toDoListRepository</text><line style="stroke:#181818;stroke-width:0.5;" x1="220.5" x2="519.5" y1="173.6094" y2="173.6094"/><text fill="#000000" font-family="sans-serif" font-size="14" lengthAdjust="spacing" textLength="289" x="225.5" y="192.1426">+AddTaskEntryController(toDoListRepository)</text><text fill="#000000" font-family="sans-serif" font-size="14" lengthAdjust="spacing" textLength="191" x="225.5" y="209.752">+createTaskEntry(taskDetails)</text></g><!--class ToDoListRepository--><g id="elem_ToDoListRepository"><rect codeLine="27" fill="#F1F1F1" height="100.8281" id="ToDoListRepository" rx="2.5" ry="2.5" style="stroke:#181818;stroke-width:0.5;" width="235" x="41.5" y="527"/><ellipse cx="92.25" cy="543" fill="#ADD1B2" rx="11" ry="11" style="stroke:#181818;stroke-width:1.0;"/><path d="M95.0156,538.875 Q95.1719,538.6563 95.3594,538.5469 Q95.5469,538.4375 95.7656,538.4375 Q96.1406,538.4375 96.375,538.7031 Q96.6094,538.9531 96.6094,539.5625 L96.6094,541.0156 Q96.6094,541.625 96.375,541.8906 Q96.1406,542.1563 95.7656,542.1563 Q95.4219,542.1563 95.2188,541.9531 Q95.0156,541.7656 94.9063,541.25 Q94.8594,540.8906 94.6719,540.7031 Q94.3438,540.3281 93.7344,540.1094 Q93.125,539.8906 92.5,539.8906 Q91.7344,539.8906 91.0938,540.2188 Q90.4688,540.5469 89.9688,541.2969 Q89.4844,542.0469 89.4844,543.0781 L89.4844,544.1719 Q89.4844,545.4063 90.375,546.2344 Q91.2656,547.0469 92.8594,547.0469 Q93.7969,547.0469 94.4531,546.7969 Q94.8438,546.6406 95.2656,546.2031 Q95.5313,545.9375 95.6719,545.8594 Q95.8281,545.7813 96.0313,545.7813 Q96.3594,545.7813 96.6094,546.0469 Q96.875,546.2969 96.875,546.6406 Q96.875,546.9844 96.5313,547.3906 Q96.0313,547.9688 95.2344,548.2969 Q94.1563,548.75 92.8594,548.75 Q91.3438,548.75 90.1406,548.125 Q89.1563,547.625 88.4688,546.5625 Q87.7813,545.4844 87.7813,544.2031 L87.7813,543.0469 Q87.7813,541.7188 88.3906,540.5781 Q89.0156,539.4219 90.1094,538.8125 Q91.2031,538.1875 92.4375,538.1875 Q93.1719,538.1875 93.8125,538.3594 Q94.4688,538.5156 95.0156,538.875 Z " fill="#000000"/><text fill="#000000" font-family="sans-serif" font-size="14" lengthAdjust="spacing" textLength="125" x="112.75" y="548.7285">ToDoListRepository</text><line style="stroke:#181818;stroke-width:0.5;" x1="42.5" x2="275.5" y1="559" y2="559"/><text fill="#000000" font-family="sans-serif" font-size="14" lengthAdjust="spacing" textLength="48" x="47.5" y="577.5332">-entries</text><line style="stroke:#181818;stroke-width:0.5;" x1="42.5" x2="275.5" y1="584.6094" y2="584.6094"/><text fill="#000000" font-family="sans-serif" font-size="14" lengthAdjust="spacing" textLength="223" x="47.5" y="603.1426">+addTaskEntry(toDoList: ToDoList)</text><text fill="#000000" font-family="sans-serif" font-size="14" lengthAdjust="spacing" textLength="219" x="47.5" y="620.752">+getTaskEntry(toDoList: ToDoList)</text></g><!--class AddTaskEntryUI--><g id="elem_AddTaskEntryUI"><rect codeLine="33" fill="#F1F1F1" height="48" id="AddTaskEntryUI" rx="2.5" ry="2.5" style="stroke:#181818;stroke-width:0.5;" width="133" x="303.5" y="7"/><ellipse cx="318.5" cy="23" fill="#ADD1B2" rx="11" ry="11" style="stroke:#181818;stroke-width:1.0;"/><path d="M321.2656,18.875 Q321.4219,18.6563 321.6094,18.5469 Q321.7969,18.4375 322.0156,18.4375 Q322.3906,18.4375 322.625,18.7031 Q322.8594,18.9531 322.8594,19.5625 L322.8594,21.0156 Q322.8594,21.625 322.625,21.8906 Q322.3906,22.1563 322.0156,22.1563 Q321.6719,22.1563 321.4688,21.9531 Q321.2656,21.7656 321.1563,21.25 Q321.1094,20.8906 320.9219,20.7031 Q320.5938,20.3281 319.9844,20.1094 Q319.375,19.8906 318.75,19.8906 Q317.9844,19.8906 317.3438,20.2188 Q316.7188,20.5469 316.2188,21.2969 Q315.7344,22.0469 315.7344,23.0781 L315.7344,24.1719 Q315.7344,25.4063 316.625,26.2344 Q317.5156,27.0469 319.1094,27.0469 Q320.0469,27.0469 320.7031,26.7969 Q321.0938,26.6406 321.5156,26.2031 Q321.7813,25.9375 321.9219,25.8594 Q322.0781,25.7813 322.2813,25.7813 Q322.6094,25.7813 322.8594,26.0469 Q323.125,26.2969 323.125,26.6406 Q323.125,26.9844 322.7813,27.3906 Q322.2813,27.9688 321.4844,28.2969 Q320.4063,28.75 319.1094,28.75 Q317.5938,28.75 316.3906,28.125 Q315.4063,27.625 314.7188,26.5625 Q314.0313,25.4844 314.0313,24.2031 L314.0313,23.0469 Q314.0313,21.7188 314.6406,20.5781 Q315.2656,19.4219 316.3594,18.8125 Q317.4531,18.1875 318.6875,18.1875 Q319.4219,18.1875 320.0625,18.3594 Q320.7188,18.5156 321.2656,18.875 Z " fill="#000000"/><text fill="#000000" font-family="sans-serif" font-size="14" lengthAdjust="spacing" textLength="101" x="332.5" y="28.7285">AddTaskEntryUI</text><line style="stroke:#181818;stroke-width:0.5;" x1="304.5" x2="435.5" y1="39" y2="39"/><line style="stroke:#181818;stroke-width:0.5;" x1="304.5" x2="435.5" y1="47" y2="47"/></g><!--class Repositories--><g id="elem_Repositories"><rect codeLine="36" fill="#F1F1F1" height="83.2188" id="Repositories" rx="2.5" ry="2.5" style="stroke:#181818;stroke-width:0.5;" width="175" x="563.5" y="994"/><ellipse cx="607.3" cy="1010" fill="#ADD1B2" rx="11" ry="11" style="stroke:#181818;stroke-width:1.0;"/><path d="M610.0656,1005.875 Q610.2219,1005.6563 610.4094,1005.5469 Q610.5969,1005.4375 610.8156,1005.4375 Q611.1906,1005.4375 611.425,1005.7031 Q611.6594,1005.9531 611.6594,1006.5625 L611.6594,1008.0156 Q611.6594,1008.625 611.425,1008.8906 Q611.1906,1009.1563 610.8156,1009.1563 Q610.4719,1009.1563 610.2688,1008.9531 Q610.0656,1008.7656 609.9563,1008.25 Q609.9094,1007.8906 609.7219,1007.7031 Q609.3938,1007.3281 608.7844,1007.1094 Q608.175,1006.8906 607.55,1006.8906 Q606.7844,1006.8906 606.1438,1007.2188 Q605.5188,1007.5469 605.0188,1008.2969 Q604.5344,1009.0469 604.5344,1010.0781 L604.5344,1011.1719 Q604.5344,1012.4063 605.425,1013.2344 Q606.3156,1014.0469 607.9094,1014.0469 Q608.8469,1014.0469 609.5031,1013.7969 Q609.8938,1013.6406 610.3156,1013.2031 Q610.5813,1012.9375 610.7219,1012.8594 Q610.8781,1012.7813 611.0813,1012.7813 Q611.4094,1012.7813 611.6594,1013.0469 Q611.925,1013.2969 611.925,1013.6406 Q611.925,1013.9844 611.5813,1014.3906 Q611.0813,1014.9688 610.2844,1015.2969 Q609.2063,1015.75 607.9094,1015.75 Q606.3938,1015.75 605.1906,1015.125 Q604.2063,1014.625 603.5188,1013.5625 Q602.8313,1012.4844 602.8313,1011.2031 L602.8313,1010.0469 Q602.8313,1008.7188 603.4406,1007.5781 Q604.0656,1006.4219 605.1594,1005.8125 Q606.2531,1005.1875 607.4875,1005.1875 Q608.2219,1005.1875 608.8625,1005.3594 Q609.5188,1005.5156 610.0656,1005.875 Z " fill="#000000"/><text fill="#000000" font-family="sans-serif" font-size="14" lengthAdjust="spacing" textLength="79" x="627.7" y="1015.7285">Repositories</text><line style="stroke:#181818;stroke-width:0.5;" x1="564.5" x2="737.5" y1="1026" y2="1026"/><line style="stroke:#181818;stroke-width:0.5;" x1="564.5" x2="737.5" y1="1034" y2="1034"/><text fill="#000000" font-family="sans-serif" font-size="14" lengthAdjust="spacing" textLength="91" x="569.5" y="1052.5332">+getInstance()</text><text fill="#000000" font-family="sans-serif" font-size="14" lengthAdjust="spacing" textLength="163" x="569.5" y="1070.1426">+getToDoListRepository()</text></g><!--class GreenSpaceController--><g id="elem_GreenSpaceController"><rect codeLine="41" fill="#F1F1F1" height="65.6094" id="GreenSpaceController" rx="2.5" ry="2.5" style="stroke:#181818;stroke-width:0.5;" width="174" x="564" y="850"/><ellipse cx="579" cy="866" fill="#ADD1B2" rx="11" ry="11" style="stroke:#181818;stroke-width:1.0;"/><path d="M581.7656,861.875 Q581.9219,861.6563 582.1094,861.5469 Q582.2969,861.4375 582.5156,861.4375 Q582.8906,861.4375 583.125,861.7031 Q583.3594,861.9531 583.3594,862.5625 L583.3594,864.0156 Q583.3594,864.625 583.125,864.8906 Q582.8906,865.1563 582.5156,865.1563 Q582.1719,865.1563 581.9688,864.9531 Q581.7656,864.7656 581.6563,864.25 Q581.6094,863.8906 581.4219,863.7031 Q581.0938,863.3281 580.4844,863.1094 Q579.875,862.8906 579.25,862.8906 Q578.4844,862.8906 577.8438,863.2188 Q577.2188,863.5469 576.7188,864.2969 Q576.2344,865.0469 576.2344,866.0781 L576.2344,867.1719 Q576.2344,868.4063 577.125,869.2344 Q578.0156,870.0469 579.6094,870.0469 Q580.5469,870.0469 581.2031,869.7969 Q581.5938,869.6406 582.0156,869.2031 Q582.2813,868.9375 582.4219,868.8594 Q582.5781,868.7813 582.7813,868.7813 Q583.1094,868.7813 583.3594,869.0469 Q583.625,869.2969 583.625,869.6406 Q583.625,869.9844 583.2813,870.3906 Q582.7813,870.9688 581.9844,871.2969 Q580.9063,871.75 579.6094,871.75 Q578.0938,871.75 576.8906,871.125 Q575.9063,870.625 575.2188,869.5625 Q574.5313,868.4844 574.5313,867.2031 L574.5313,866.0469 Q574.5313,864.7188 575.1406,863.5781 Q575.7656,862.4219 576.8594,861.8125 Q577.9531,861.1875 579.1875,861.1875 Q579.9219,861.1875 580.5625,861.3594 Q581.2188,861.5156 581.7656,861.875 Z " fill="#000000"/><text fill="#000000" font-family="sans-serif" font-size="14" lengthAdjust="spacing" textLength="142" x="593" y="871.7285">GreenSpaceController</text><line style="stroke:#181818;stroke-width:0.5;" x1="565" x2="737" y1="882" y2="882"/><line style="stroke:#181818;stroke-width:0.5;" x1="565" x2="737" y1="890" y2="890"/><text fill="#000000" font-family="sans-serif" font-size="14" lengthAdjust="spacing" textLength="125" x="570" y="908.5332">+getGreenSpaces()</text></g><!--class Mapper--><g id="elem_Mapper"><rect codeLine="45" fill="#F1F1F1" height="83.2188" id="Mapper" rx="2.5" ry="2.5" style="stroke:#181818;stroke-width:0.5;" width="171" x="512.5" y="536"/><ellipse cx="569.75" cy="552" fill="#ADD1B2" rx="11" ry="11" style="stroke:#181818;stroke-width:1.0;"/><path d="M572.5156,547.875 Q572.6719,547.6563 572.8594,547.5469 Q573.0469,547.4375 573.2656,547.4375 Q573.6406,547.4375 573.875,547.7031 Q574.1094,547.9531 574.1094,548.5625 L574.1094,550.0156 Q574.1094,550.625 573.875,550.8906 Q573.6406,551.1563 573.2656,551.1563 Q572.9219,551.1563 572.7188,550.9531 Q572.5156,550.7656 572.4063,550.25 Q572.3594,549.8906 572.1719,549.7031 Q571.8438,549.3281 571.2344,549.1094 Q570.625,548.8906 570,548.8906 Q569.2344,548.8906 568.5938,549.2188 Q567.9688,549.5469 567.4688,550.2969 Q566.9844,551.0469 566.9844,552.0781 L566.9844,553.1719 Q566.9844,554.4063 567.875,555.2344 Q568.7656,556.0469 570.3594,556.0469 Q571.2969,556.0469 571.9531,555.7969 Q572.3438,555.6406 572.7656,555.2031 Q573.0313,554.9375 573.1719,554.8594 Q573.3281,554.7813 573.5313,554.7813 Q573.8594,554.7813 574.1094,555.0469 Q574.375,555.2969 574.375,555.6406 Q574.375,555.9844 574.0313,556.3906 Q573.5313,556.9688 572.7344,557.2969 Q571.6563,557.75 570.3594,557.75 Q568.8438,557.75 567.6406,557.125 Q566.6563,556.625 565.9688,555.5625 Q565.2813,554.4844 565.2813,553.2031 L565.2813,552.0469 Q565.2813,550.7188 565.8906,549.5781 Q566.5156,548.4219 567.6094,547.8125 Q568.7031,547.1875 569.9375,547.1875 Q570.6719,547.1875 571.3125,547.3594 Q571.9688,547.5156 572.5156,547.875 Z " fill="#000000"/><text fill="#000000" font-family="sans-serif" font-size="14" lengthAdjust="spacing" textLength="48" x="590.25" y="557.7285">Mapper</text><line style="stroke:#181818;stroke-width:0.5;" x1="513.5" x2="682.5" y1="568" y2="568"/><line style="stroke:#181818;stroke-width:0.5;" x1="513.5" x2="682.5" y1="576" y2="576"/><text fill="#000000" font-family="sans-serif" font-size="14" lengthAdjust="spacing" textLength="144" x="518.5" y="594.5332">+toDTO(greenSpaces)</text><text fill="#000000" font-family="sans-serif" font-size="14" lengthAdjust="spacing" textLength="159" x="518.5" y="612.1426">+toDomain(taskEntryDto)</text></g><!--class GreenSpaceDTO--><g id="elem_GreenSpaceDTO"><rect codeLine="50" fill="#F1F1F1" height="65.6094" id="GreenSpaceDTO" rx="2.5" ry="2.5" style="stroke:#181818;stroke-width:0.5;" width="147" x="661.5" y="706"/><ellipse cx="678.75" cy="722" fill="#ADD1B2" rx="11" ry="11" style="stroke:#181818;stroke-width:1.0;"/><path d="M681.5156,717.875 Q681.6719,717.6563 681.8594,717.5469 Q682.0469,717.4375 682.2656,717.4375 Q682.6406,717.4375 682.875,717.7031 Q683.1094,717.9531 683.1094,718.5625 L683.1094,720.0156 Q683.1094,720.625 682.875,720.8906 Q682.6406,721.1563 682.2656,721.1563 Q681.9219,721.1563 681.7188,720.9531 Q681.5156,720.7656 681.4063,720.25 Q681.3594,719.8906 681.1719,719.7031 Q680.8438,719.3281 680.2344,719.1094 Q679.625,718.8906 679,718.8906 Q678.2344,718.8906 677.5938,719.2188 Q676.9688,719.5469 676.4688,720.2969 Q675.9844,721.0469 675.9844,722.0781 L675.9844,723.1719 Q675.9844,724.4063 676.875,725.2344 Q677.7656,726.0469 679.3594,726.0469 Q680.2969,726.0469 680.9531,725.7969 Q681.3438,725.6406 681.7656,725.2031 Q682.0313,724.9375 682.1719,724.8594 Q682.3281,724.7813 682.5313,724.7813 Q682.8594,724.7813 683.1094,725.0469 Q683.375,725.2969 683.375,725.6406 Q683.375,725.9844 683.0313,726.3906 Q682.5313,726.9688 681.7344,727.2969 Q680.6563,727.75 679.3594,727.75 Q677.8438,727.75 676.6406,727.125 Q675.6563,726.625 674.9688,725.5625 Q674.2813,724.4844 674.2813,723.2031 L674.2813,722.0469 Q674.2813,720.7188 674.8906,719.5781 Q675.5156,718.4219 676.6094,717.8125 Q677.7031,717.1875 678.9375,717.1875 Q679.6719,717.1875 680.3125,717.3594 Q680.9688,717.5156 681.5156,717.875 Z " fill="#000000"/><text fill="#000000" font-family="sans-serif" font-size="14" lengthAdjust="spacing" textLength="110" x="693.25" y="727.7285">GreenSpaceDTO</text><line style="stroke:#181818;stroke-width:0.5;" x1="662.5" x2="807.5" y1="738" y2="738"/><line style="stroke:#181818;stroke-width:0.5;" x1="662.5" x2="807.5" y1="746" y2="746"/><text fill="#000000" font-family="sans-serif" font-size="14" lengthAdjust="spacing" textLength="135" x="667.5" y="764.5332">+create(greenSpace)</text></g><!--class TaskEntryDTO--><g id="elem_TaskEntryDTO"><rect codeLine="54" fill="#F1F1F1" height="65.6094" id="TaskEntryDTO" rx="2.5" ry="2.5" style="stroke:#181818;stroke-width:0.5;" width="505" x="423.5" y="339"/><ellipse cx="624.75" cy="355" fill="#ADD1B2" rx="11" ry="11" style="stroke:#181818;stroke-width:1.0;"/><path d="M627.5156,350.875 Q627.6719,350.6563 627.8594,350.5469 Q628.0469,350.4375 628.2656,350.4375 Q628.6406,350.4375 628.875,350.7031 Q629.1094,350.9531 629.1094,351.5625 L629.1094,353.0156 Q629.1094,353.625 628.875,353.8906 Q628.6406,354.1563 628.2656,354.1563 Q627.9219,354.1563 627.7188,353.9531 Q627.5156,353.7656 627.4063,353.25 Q627.3594,352.8906 627.1719,352.7031 Q626.8438,352.3281 626.2344,352.1094 Q625.625,351.8906 625,351.8906 Q624.2344,351.8906 623.5938,352.2188 Q622.9688,352.5469 622.4688,353.2969 Q621.9844,354.0469 621.9844,355.0781 L621.9844,356.1719 Q621.9844,357.4063 622.875,358.2344 Q623.7656,359.0469 625.3594,359.0469 Q626.2969,359.0469 626.9531,358.7969 Q627.3438,358.6406 627.7656,358.2031 Q628.0313,357.9375 628.1719,357.8594 Q628.3281,357.7813 628.5313,357.7813 Q628.8594,357.7813 629.1094,358.0469 Q629.375,358.2969 629.375,358.6406 Q629.375,358.9844 629.0313,359.3906 Q628.5313,359.9688 627.7344,360.2969 Q626.6563,360.75 625.3594,360.75 Q623.8438,360.75 622.6406,360.125 Q621.6563,359.625 620.9688,358.5625 Q620.2813,357.4844 620.2813,356.2031 L620.2813,355.0469 Q620.2813,353.7188 620.8906,352.5781 Q621.5156,351.4219 622.6094,350.8125 Q623.7031,350.1875 624.9375,350.1875 Q625.6719,350.1875 626.3125,350.3594 Q626.9688,350.5156 627.5156,350.875 Z " fill="#000000"/><text fill="#000000" font-family="sans-serif" font-size="14" lengthAdjust="spacing" textLength="94" x="645.25" y="360.7285">TaskEntryDTO</text><line style="stroke:#181818;stroke-width:0.5;" x1="424.5" x2="927.5" y1="371" y2="371"/><line style="stroke:#181818;stroke-width:0.5;" x1="424.5" x2="927.5" y1="379" y2="379"/><text fill="#000000" font-family="sans-serif" font-size="14" lengthAdjust="spacing" textLength="493" x="429.5" y="397.5332">+create(title, description, urgencyLevel, expectedDuration, state, greenSpace)</text></g><!--link AddTaskEntryController to ToDoListRepository--><g id="link_AddTaskEntryController_ToDoListRepository"><path codeLine="62" d="M316.25,217.16 C277.5,252.96 232,295 232,295 C232,295 183,497 183,497 C183,497 179.74,507.81 175.62,521.46 " fill="none" id="AddTaskEntryController-to-ToDoListRepository" style="stroke:#181818;stroke-width:1.0;stroke-dasharray:7.0,7.0;"/><polygon fill="#181818" points="174.06,526.6,180.4877,519.1377,175.5033,521.8128,172.8282,516.8285,174.06,526.6" style="stroke:#181818;stroke-width:1.0;"/><text fill="#000000" font-family="sans-serif" font-size="13" lengthAdjust="spacing" textLength="110" x="233" y="377.4951">toDoListRepository</text></g><!--link AddTaskEntryController to TaskEntry--><g id="link_AddTaskEntryController_TaskEntry"><path codeLine="64" d="M234.11,217.06 C189.91,233.18 152,247 152,247 C152,247 139.11,266.74 123.61,290.47 " fill="none" id="AddTaskEntryController-to-TaskEntry" style="stroke:#181818;stroke-width:1.0;stroke-dasharray:7.0,7.0;"/><polygon fill="#181818" points="120.68,294.94,128.9457,289.5849,123.4105,290.7514,122.2439,285.2161,120.68,294.94" style="stroke:#181818;stroke-width:1.0;"/><text fill="#000000" font-family="sans-serif" font-size="13" lengthAdjust="spacing" textLength="25" x="153" y="261.4951">task</text></g><!--link TaskEntry to ToDoListRepository--><g id="link_TaskEntry_ToDoListRepository"><path codeLine="65" d="M97.99,449.06 C107.1,474.73 115,497 115,497 C115,497 121.2,508.19 128.94,522.18 " fill="none" id="TaskEntry-to-ToDoListRepository" style="stroke:#181818;stroke-width:1.0;stroke-dasharray:7.0,7.0;"/><polygon fill="#181818" points="131.38,526.6,130.5058,516.79,128.9518,522.2292,123.5126,520.6752,131.38,526.6" style="stroke:#181818;stroke-width:1.0;"/><polygon fill="#000000" points="121.949,492.7803,121.1297,483.3051,115.7168,485.5962,121.949,492.7803" style="stroke:#000000;stroke-width:1.0;"/><text fill="#000000" font-family="sans-serif" font-size="13" lengthAdjust="spacing" textLength="49" x="129" y="493.4951">exists in</text></g><!--link AddTaskEntryUI to AddTaskEntryController--><g id="link_AddTaskEntryUI_AddTaskEntryController"><path codeLine="66" d="M370,55.25 C370,70.55 370,91.24 370,110.57 " fill="none" id="AddTaskEntryUI-to-AddTaskEntryController" style="stroke:#181818;stroke-width:1.0;stroke-dasharray:7.0,7.0;"/><polygon fill="#181818" points="370,115.98,374,106.98,370,110.98,366,106.98,370,115.98" style="stroke:#181818;stroke-width:1.0;"/></g><!--link AddTaskEntryController to Repositories--><g id="link_AddTaskEntryController_Repositories"><path codeLine="69" d="M370,217.02 C370,277.26 370,371 370,371 C370,371 370,371 370,884 C370,884 487.84,947.12 570.9,991.6 " fill="none" id="AddTaskEntryController-to-Repositories" style="stroke:#181818;stroke-width:1.0;stroke-dasharray:7.0,7.0;"/><polygon fill="#181818" points="575.33,993.97,569.3052,986.1789,570.9286,991.5978,565.5096,993.2212,575.33,993.97" style="stroke:#181818;stroke-width:1.0;"/><text fill="#000000" font-family="sans-serif" font-size="13" lengthAdjust="spacing" textLength="67" x="371" y="672.4951">repositories</text></g><!--link GreenSpaceController to Repositories--><g id="link_GreenSpaceController_Repositories"><path codeLine="71" d="M651,916.29 C651,937.4 651,965.31 651,988.71 " fill="none" id="GreenSpaceController-to-Repositories" style="stroke:#181818;stroke-width:1.0;stroke-dasharray:7.0,7.0;"/><polygon fill="#181818" points="651,993.93,655,984.93,651,988.93,647,984.93,651,993.93" style="stroke:#181818;stroke-width:1.0;"/><text fill="#000000" font-family="sans-serif" font-size="13" lengthAdjust="spacing" textLength="67" x="652" y="960.4951">repositories</text></g><!--link Mapper to Repositories--><g id="link_Mapper_Repositories"><path codeLine="73" d="M577.77,619.23 C545.75,683.7 487,802 487,802 C487,802 487,820 487,820 C487,820 546,916 546,916 C546,916 581.54,956.11 611.27,989.66 " fill="none" id="Mapper-to-Repositories" style="stroke:#181818;stroke-width:1.0;stroke-dasharray:7.0,7.0;"/><polygon fill="#181818" points="614.86,993.72,611.8882,984.3302,611.5453,989.9767,605.8988,989.6338,614.86,993.72" style="stroke:#181818;stroke-width:1.0;"/><text fill="#000000" font-family="sans-serif" font-size="13" lengthAdjust="spacing" textLength="67" x="488" y="816.4951">repositories</text></g><!--link GreenSpaceDTO to Repositories--><g id="link_GreenSpaceDTO_Repositories"><path codeLine="74" d="M773.82,772.09 C792.12,787.22 810,802 810,802 C810,802 810,820 810,820 C810,820 756,916 756,916 C756,916 728,964 728,964 C728,964 714.79,976.09 699.32,990.26 " fill="none" id="GreenSpaceDTO-to-Repositories" style="stroke:#181818;stroke-width:1.0;stroke-dasharray:7.0,7.0;"/><polygon fill="#181818" points="695.35,993.9,704.6906,990.7769,699.0393,990.5253,699.291,984.874,695.35,993.9" style="stroke:#181818;stroke-width:1.0;"/><text fill="#000000" font-family="sans-serif" font-size="13" lengthAdjust="spacing" textLength="67" x="793" y="888.4951">repositories</text></g><!--link TaskEntryDTO to Repositories--><g id="link_TaskEntryDTO_Repositories"><path codeLine="75" d="M723.68,405.02 C809.01,462.33 979,576.5 979,576.5 C979,576.5 979,576.5 979,884 C979,884 840.49,947.56 743.49,992.06 " fill="none" id="TaskEntryDTO-to-Repositories" style="stroke:#181818;stroke-width:1.0;stroke-dasharray:7.0,7.0;"/><polygon fill="#181818" points="738.9,994.17,748.7481,994.05,743.444,992.0838,745.4102,986.7796,738.9,994.17" style="stroke:#181818;stroke-width:1.0;"/><text fill="#000000" font-family="sans-serif" font-size="13" lengthAdjust="spacing" textLength="67" x="980" y="744.4951">repositories</text></g><!--link GreenSpaceController to GreenSpaceDTO--><g id="link_GreenSpaceController_GreenSpaceDTO"><path codeLine="77" d="M675.33,849.91 C686.79,834.78 698,820 698,820 C698,820 708.26,797.82 717.97,776.81 " fill="none" id="GreenSpaceController-to-GreenSpaceDTO" style="stroke:#181818;stroke-width:1.0;stroke-dasharray:7.0,7.0;"/><polygon fill="#181818" points="720.16,772.08,712.745,778.5621,718.0565,776.616,720.0026,781.9276,720.16,772.08" style="stroke:#181818;stroke-width:1.0;"/><text fill="#000000" font-family="sans-serif" font-size="13" lengthAdjust="spacing" textLength="95" x="706" y="816.4951">greenSpaceDTO</text></g><!--link GreenSpaceDTO to GreenSpaceController--><g id="link_GreenSpaceDTO_GreenSpaceController"><path codeLine="78" d="M661.49,766.65 C615.14,783.46 564,802 564,802 C564,802 564,820 564,820 C564,820 581.93,832.78 601.51,846.73 " fill="none" id="GreenSpaceDTO-to-GreenSpaceController" style="stroke:#181818;stroke-width:1.0;stroke-dasharray:7.0,7.0;"/><polygon fill="#181818" points="605.97,849.91,600.9601,841.4306,601.8975,847.0092,596.3188,847.9466,605.97,849.91" style="stroke:#181818;stroke-width:1.0;"/><text fill="#000000" font-family="sans-serif" font-size="13" lengthAdjust="spacing" textLength="124" x="565" y="816.4951">greenSpaceController</text></g><!--link Mapper to GreenSpaceDTO--><g id="link_Mapper_GreenSpaceDTO"><path codeLine="80" d="M596.46,619.18 C595.73,638.74 595,658 595,658 C595,658 595,676 595,676 C595,676 625.32,689.43 657.74,703.79 " fill="none" id="Mapper-to-GreenSpaceDTO" style="stroke:#181818;stroke-width:1.0;stroke-dasharray:7.0,7.0;"/><polygon fill="#181818" points="662.54,705.91,655.936,698.6033,657.9698,703.882,652.6911,705.9157,662.54,705.91" style="stroke:#181818;stroke-width:1.0;"/><text fill="#000000" font-family="sans-serif" font-size="13" lengthAdjust="spacing" textLength="95" x="596" y="672.4951">greenSpaceDTO</text></g><!--link GreenSpaceDTO to Mapper--><g id="link_GreenSpaceDTO_Mapper"><path codeLine="81" d="M719.36,705.92 C708.51,683.67 696,658 696,658 C696,658 674.79,640.79 652.1,622.38 " fill="none" id="GreenSpaceDTO-to-Mapper" style="stroke:#181818;stroke-width:1.0;stroke-dasharray:7.0,7.0;"/><polygon fill="#181818" points="648.15,619.18,652.6321,627.9499,652.0376,622.3243,657.6631,621.7298,648.15,619.18" style="stroke:#181818;stroke-width:1.0;"/><text fill="#000000" font-family="sans-serif" font-size="13" lengthAdjust="spacing" textLength="43" x="705" y="672.4951">mapper</text></g><!--link Mapper to TaskEntryDTO--><g id="link_Mapper_TaskEntryDTO"><path codeLine="83" d="M620,535.82 C630.58,516.26 641,497 641,497 C641,497 655.22,446.62 665.53,410.09 " fill="none" id="Mapper-to-TaskEntryDTO" style="stroke:#181818;stroke-width:1.0;stroke-dasharray:7.0,7.0;"/><polygon fill="#181818" points="666.9,405.26,660.6081,412.8371,665.5434,410.0724,668.308,415.0077,666.9,405.26" style="stroke:#181818;stroke-width:1.0;"/><text fill="#000000" font-family="sans-serif" font-size="13" lengthAdjust="spacing" textLength="85" x="647" y="493.4951">TaskEntryDTO</text></g><!--link TaskEntryDTO to Mapper--><g id="link_TaskEntryDTO_Mapper"><path codeLine="84" d="M649.36,405.09 C623.46,436.29 588,479 588,479 C588,479 588,497 588,497 C588,497 590.02,513.09 592.25,530.79 " fill="none" id="TaskEntryDTO-to-Mapper" style="stroke:#181818;stroke-width:1.0;stroke-dasharray:7.0,7.0;"/><polygon fill="#181818" points="592.88,535.82,595.7195,526.3893,592.2528,530.8595,587.7827,527.3928,592.88,535.82" style="stroke:#181818;stroke-width:1.0;"/><text fill="#000000" font-family="sans-serif" font-size="13" lengthAdjust="spacing" textLength="43" x="589" y="493.4951">mapper</text></g><!--link AddTaskEntryController to TaskEntryDTO--><g id="link_AddTaskEntryController_TaskEntryDTO"><path codeLine="86" d="M443.77,217.11 C479.59,241.19 515,265 515,265 C515,265 576.13,305.24 623.05,336.14 " fill="none" id="AddTaskEntryController-to-TaskEntryDTO" style="stroke:#181818;stroke-width:1.0;stroke-dasharray:7.0,7.0;"/><polygon fill="#181818" points="627.26,338.91,621.9376,330.6231,623.0822,336.163,617.5424,337.3076,627.26,338.91" style="stroke:#181818;stroke-width:1.0;"/><text fill="#000000" font-family="sans-serif" font-size="13" lengthAdjust="spacing" textLength="85" x="516" y="261.4951">TaskEntryDTO</text></g><!--link TaskEntryDTO to AddTaskEntryController--><g id="link_TaskEntryDTO_AddTaskEntryController"><path codeLine="87" d="M657.79,338.74 C637.05,302 606,247 606,247 C606,247 567.64,234.08 521.86,218.66 " fill="none" id="TaskEntryDTO-to-AddTaskEntryController" style="stroke:#181818;stroke-width:1.0;stroke-dasharray:7.0,7.0;"/><polygon fill="#181818" points="517.11,217.06,524.3531,223.7336,521.8462,218.6626,526.9173,216.1557,517.11,217.06" style="stroke:#181818;stroke-width:1.0;"/><text fill="#000000" font-family="sans-serif" font-size="13" lengthAdjust="spacing" textLength="137" x="618" y="261.4951">AddTaskEntryController</text></g><!--SRC=[fLB1Rjim3BthAuXUwc1kiRCF1Ofb609q6B1a7w3Pd2j4bWo9sUeD_VV9QYp9jP9qc0-6HF4zFfBlskw5whdX7NHQwVhHw0w1p05PVEbvlUSjRccG20PhuggLQO9zv8t-9LGBFxYqwOiK2cde4NejX_72hZEFsf1c2QgMtDfx8YE-7mWtjLPRyHlXFMF-1QvstEu_AZB35VnXSFnkI92J5QuDsjg8deHMCNWmBQfwUC2VA6CKdthN5ZRhW-7pV4kS4ixM8Agj6mWozinO47JVD47J1-t-MaeqaxeRsEcrVX2MlcAlhI1j1g15oEU-WpnNiSnV7G6rGISoO0fofpKI5zAkHfNJq1O4GHywd41xvEE9W52s2ZrCPLkaysdFsV5ysunburkGumHCWZpvHhdXgngBjE2YXoAjyociPxa4Zuy9TWRypFi-JNNjxBuKSTjs5HzqnuNoG_Rzh4dd9JY6IFYoeuHnjfd0bO5uLvUGkBc4rCKbl7Pl2Twr9RogDdvvSy7jxLtEerNEfMSvflW8TMSM0oTBu9EBM10AxjZSA1wJhtQ-bTHJhe99hepbJ78PzUAGYtcpzL_CJXV_7yBdHQjax-wUaPGbIc7fd9F6_xNE4Lf1vmyphbdhrUow7Ck2w2qMV0ln2PxgbEl-0W00]--></g></svg>