<?xml version="1.0" encoding="UTF-8" standalone="no"?><svg xmlns="http://www.w3.org/2000/svg" xmlns:xlink="http://www.w3.org/1999/xlink" contentStyleType="text/css" height="440px" preserveAspectRatio="none" style="width:370px;height:440px;background:#FFFFFF;" version="1.1" viewBox="0 0 370 440" width="370px" zoomAndPan="magnify"><defs/><g><text fill="#000000" font-family="sans-serif" font-size="14" font-weight="bold" lengthAdjust="spacing" textLength="337" x="15" y="29.5332">System Sequence Diagram (SSD) - Main Solution</text><rect fill="#FFFFFF" height="183.1094" style="stroke:#181818;stroke-width:1.0;" width="10" x="45" y="148.8281"/><rect fill="#FFFFFF" height="30.3516" style="stroke:#181818;stroke-width:1.0;" width="10" x="326" y="171.1797"/><rect fill="#FFFFFF" height="30.3516" style="stroke:#181818;stroke-width:1.0;" width="10" x="326" y="231.8828"/><rect fill="#FFFFFF" height="30.3516" style="stroke:#181818;stroke-width:1.0;" width="10" x="326" y="292.5859"/><line style="stroke:#181818;stroke-width:0.5;stroke-dasharray:5.0,5.0;" x1="50" x2="50" y1="138.8281" y2="340.9375"/><line style="stroke:#181818;stroke-width:0.5;stroke-dasharray:5.0,5.0;" x1="331" x2="331" y1="138.8281" y2="340.9375"/><text fill="#000000" font-family="sans-serif" font-size="14" lengthAdjust="spacing" textLength="84" x="5" y="118.1426">Green Space</text><text fill="#000000" font-family="sans-serif" font-size="14" lengthAdjust="spacing" textLength="56" x="19" y="135.752">Manager</text><ellipse cx="50" cy="52.1094" fill="#E3E3E3" rx="8" ry="8" style="stroke:#181818;stroke-width:0.5;"/><path d="M50,60.1094 L50,87.1094 M37,68.1094 L63,68.1094 M50,87.1094 L37,102.1094 M50,87.1094 L63,102.1094 " fill="none" style="stroke:#181818;stroke-width:0.5;"/><text fill="#000000" font-family="sans-serif" font-size="14" lengthAdjust="spacing" textLength="84" x="5" y="354.4707">Green Space</text><text fill="#000000" font-family="sans-serif" font-size="14" lengthAdjust="spacing" textLength="56" x="19" y="372.0801">Manager</text><ellipse cx="50" cy="383.6563" fill="#E3E3E3" rx="8" ry="8" style="stroke:#181818;stroke-width:0.5;"/><path d="M50,391.6563 L50,418.6563 M37,399.6563 L63,399.6563 M50,418.6563 L37,433.6563 M50,418.6563 L63,433.6563 " fill="none" style="stroke:#181818;stroke-width:0.5;"/><rect fill="#E3E3E3" height="31.6094" rx="2.5" ry="2.5" style="stroke:#181818;stroke-width:0.5;" width="64" x="299" y="106.2188"/><text fill="#000000" font-family="sans-serif" font-size="14" lengthAdjust="spacing" textLength="50" x="306" y="127.752">:System</text><rect fill="#E3E3E3" height="31.6094" rx="2.5" ry="2.5" style="stroke:#181818;stroke-width:0.5;" width="64" x="299" y="339.9375"/><text fill="#000000" font-family="sans-serif" font-size="14" lengthAdjust="spacing" textLength="50" x="306" y="361.4707">:System</text><rect fill="#FFFFFF" height="183.1094" style="stroke:#181818;stroke-width:1.0;" width="10" x="45" y="148.8281"/><rect fill="#FFFFFF" height="30.3516" style="stroke:#181818;stroke-width:1.0;" width="10" x="326" y="171.1797"/><rect fill="#FFFFFF" height="30.3516" style="stroke:#181818;stroke-width:1.0;" width="10" x="326" y="231.8828"/><rect fill="#FFFFFF" height="30.3516" style="stroke:#181818;stroke-width:1.0;" width="10" x="326" y="292.5859"/><polygon fill="#181818" points="314,167.1797,324,171.1797,314,175.1797,318,171.1797" style="stroke:#181818;stroke-width:1.0;"/><line style="stroke:#181818;stroke-width:1.0;" x1="55" x2="320" y1="171.1797" y2="171.1797"/><text fill="#000000" font-family="sans-serif" font-size="13" font-weight="bold" lengthAdjust="spacing" textLength="7" x="62" y="166.3232">1</text><text fill="#000000" font-family="sans-serif" font-size="13" lengthAdjust="spacing" textLength="173" x="73" y="166.3232">asks to postpone a task entry</text><polygon fill="#181818" points="66,197.5313,56,201.5313,66,205.5313,62,201.5313" style="stroke:#181818;stroke-width:1.0;"/><line style="stroke:#181818;stroke-width:1.0;stroke-dasharray:2.0,2.0;" x1="60" x2="330" y1="201.5313" y2="201.5313"/><text fill="#000000" font-family="sans-serif" font-size="13" font-weight="bold" lengthAdjust="spacing" textLength="7" x="72" y="196.6748">2</text><text fill="#000000" font-family="sans-serif" font-size="13" lengthAdjust="spacing" textLength="200" x="83" y="196.6748">requests data (i.e date, time, task)</text><polygon fill="#181818" points="314,227.8828,324,231.8828,314,235.8828,318,231.8828" style="stroke:#181818;stroke-width:1.0;"/><line style="stroke:#181818;stroke-width:1.0;" x1="55" x2="320" y1="231.8828" y2="231.8828"/><text fill="#000000" font-family="sans-serif" font-size="13" font-weight="bold" lengthAdjust="spacing" textLength="7" x="62" y="227.0264">3</text><text fill="#000000" font-family="sans-serif" font-size="13" lengthAdjust="spacing" textLength="125" x="73" y="227.0264">inputs requested data</text><polygon fill="#181818" points="66,258.2344,56,262.2344,66,266.2344,62,262.2344" style="stroke:#181818;stroke-width:1.0;"/><line style="stroke:#181818;stroke-width:1.0;stroke-dasharray:2.0,2.0;" x1="60" x2="330" y1="262.2344" y2="262.2344"/><text fill="#000000" font-family="sans-serif" font-size="13" font-weight="bold" lengthAdjust="spacing" textLength="7" x="72" y="257.3779">4</text><text fill="#000000" font-family="sans-serif" font-size="13" lengthAdjust="spacing" textLength="236" x="83" y="257.3779">shows all data and requests confirmation</text><polygon fill="#181818" points="314,288.5859,324,292.5859,314,296.5859,318,292.5859" style="stroke:#181818;stroke-width:1.0;"/><line style="stroke:#181818;stroke-width:1.0;" x1="55" x2="320" y1="292.5859" y2="292.5859"/><text fill="#000000" font-family="sans-serif" font-size="13" font-weight="bold" lengthAdjust="spacing" textLength="7" x="62" y="287.7295">5</text><text fill="#000000" font-family="sans-serif" font-size="13" lengthAdjust="spacing" textLength="78" x="73" y="287.7295">confirms data</text><polygon fill="#181818" points="66,318.9375,56,322.9375,66,326.9375,62,322.9375" style="stroke:#181818;stroke-width:1.0;"/><line style="stroke:#181818;stroke-width:1.0;stroke-dasharray:2.0,2.0;" x1="60" x2="330" y1="322.9375" y2="322.9375"/><text fill="#000000" font-family="sans-serif" font-size="13" font-weight="bold" lengthAdjust="spacing" textLength="7" x="72" y="318.0811">6</text><text fill="#000000" font-family="sans-serif" font-size="13" lengthAdjust="spacing" textLength="158" x="83" y="318.0811">displays operation success</text><!--SRC=[dP31JiCm38RlVGfhfqrYF40Fd2Rjj5ElN4pgTT4IfyGEKzyUD-i6GY01ELHMyllpLylPyuWP8yJ4oProYWIQ2pLoVndHdN6WJgT0aCafyX0-1-I4VRfu7k28GQXfrAj5kqcK8dJqMeWTmSxZCCVNNRVRm1OEw1cw58hwn4s3HHEN-4BPQgSfmsgVYInY0lJC1sIpo2j0WNrtQ6osUkT7P8LLUnrM7wzbXVWtLAhf1knO0TkdcrXhuRE09XYJw9YO047j3eWrJxNZphX1OJaBOskucThQOkmtHGLwL8IrVwIveWTG7-UlSJUrkwUlqE_KRBV5O0kL-ehzevASqaK0GxWw8VSVbYxnqUU8TVU_rrhQv3ywlPSnu2IGHifrC4XnZaH-47W7]--></g></svg>