<?xml version="1.0" encoding="UTF-8" standalone="no"?><svg xmlns="http://www.w3.org/2000/svg" xmlns:xlink="http://www.w3.org/1999/xlink" contentStyleType="text/css" height="517px" preserveAspectRatio="none" style="width:414px;height:517px;background:#FFFFFF;" version="1.1" viewBox="0 0 414 517" width="414px" zoomAndPan="magnify"><defs/><g><text fill="#000000" font-family="sans-serif" font-size="14" font-weight="bold" lengthAdjust="spacing" textLength="228" x="92" y="29.5332">System Sequence Diagram (SSD)</text><rect fill="#FFFFFF" height="260.1641" style="stroke:#181818;stroke-width:1.0;" width="10" x="61" y="148.8281"/><rect fill="#FFFFFF" height="46.7031" style="stroke:#181818;stroke-width:1.0;" width="10" x="371" y="171.1797"/><rect fill="#FFFFFF" height="30.3516" style="stroke:#181818;stroke-width:1.0;" width="10" x="371" y="248.2344"/><rect fill="#FFFFFF" height="30.3516" style="stroke:#181818;stroke-width:1.0;" width="10" x="371" y="308.9375"/><rect fill="#FFFFFF" height="30.3516" style="stroke:#181818;stroke-width:1.0;" width="10" x="371" y="369.6406"/><line style="stroke:#181818;stroke-width:0.5;stroke-dasharray:5.0,5.0;" x1="66" x2="66" y1="138.8281" y2="417.9922"/><line style="stroke:#181818;stroke-width:0.5;stroke-dasharray:5.0,5.0;" x1="376" x2="376" y1="138.8281" y2="417.9922"/><text fill="#000000" font-family="sans-serif" font-size="14" lengthAdjust="spacing" textLength="116" x="5" y="118.1426">Human Resources</text><text fill="#000000" font-family="sans-serif" font-size="14" lengthAdjust="spacing" textLength="56" x="35" y="135.752">Manager</text><ellipse cx="66" cy="52.1094" fill="#E3E3E3" rx="8" ry="8" style="stroke:#181818;stroke-width:0.5;"/><path d="M66,60.1094 L66,87.1094 M53,68.1094 L79,68.1094 M66,87.1094 L53,102.1094 M66,87.1094 L79,102.1094 " fill="none" style="stroke:#181818;stroke-width:0.5;"/><text fill="#000000" font-family="sans-serif" font-size="14" lengthAdjust="spacing" textLength="116" x="5" y="431.5254">Human Resources</text><text fill="#000000" font-family="sans-serif" font-size="14" lengthAdjust="spacing" textLength="56" x="35" y="449.1348">Manager</text><ellipse cx="66" cy="460.7109" fill="#E3E3E3" rx="8" ry="8" style="stroke:#181818;stroke-width:0.5;"/><path d="M66,468.7109 L66,495.7109 M53,476.7109 L79,476.7109 M66,495.7109 L53,510.7109 M66,495.7109 L79,510.7109 " fill="none" style="stroke:#181818;stroke-width:0.5;"/><rect fill="#E3E3E3" height="31.6094" rx="2.5" ry="2.5" style="stroke:#181818;stroke-width:0.5;" width="64" x="344" y="106.2188"/><text fill="#000000" font-family="sans-serif" font-size="14" lengthAdjust="spacing" textLength="50" x="351" y="127.752">:System</text><rect fill="#E3E3E3" height="31.6094" rx="2.5" ry="2.5" style="stroke:#181818;stroke-width:0.5;" width="64" x="344" y="416.9922"/><text fill="#000000" font-family="sans-serif" font-size="14" lengthAdjust="spacing" textLength="50" x="351" y="438.5254">:System</text><rect fill="#FFFFFF" height="260.1641" style="stroke:#181818;stroke-width:1.0;" width="10" x="61" y="148.8281"/><rect fill="#FFFFFF" height="46.7031" style="stroke:#181818;stroke-width:1.0;" width="10" x="371" y="171.1797"/><rect fill="#FFFFFF" height="30.3516" style="stroke:#181818;stroke-width:1.0;" width="10" x="371" y="248.2344"/><rect fill="#FFFFFF" height="30.3516" style="stroke:#181818;stroke-width:1.0;" width="10" x="371" y="308.9375"/><rect fill="#FFFFFF" height="30.3516" style="stroke:#181818;stroke-width:1.0;" width="10" x="371" y="369.6406"/><polygon fill="#181818" points="359,167.1797,369,171.1797,359,175.1797,363,171.1797" style="stroke:#181818;stroke-width:1.0;"/><line style="stroke:#181818;stroke-width:1.0;" x1="71" x2="365" y1="171.1797" y2="171.1797"/><text fill="#000000" font-family="sans-serif" font-size="13" font-weight="bold" lengthAdjust="spacing" textLength="7" x="78" y="166.3232">1</text><text fill="#000000" font-family="sans-serif" font-size="13" lengthAdjust="spacing" textLength="168" x="89" y="166.3232">asks to generate a new team</text><polygon fill="#181818" points="82,213.8828,72,217.8828,82,221.8828,78,217.8828" style="stroke:#181818;stroke-width:1.0;"/><line style="stroke:#181818;stroke-width:1.0;stroke-dasharray:2.0,2.0;" x1="76" x2="375" y1="217.8828" y2="217.8828"/><text fill="#000000" font-family="sans-serif" font-size="13" font-weight="bold" lengthAdjust="spacing" textLength="7" x="88" y="204.8506">2</text><text fill="#000000" font-family="sans-serif" font-size="13" lengthAdjust="spacing" textLength="261" x="99" y="196.6748">requests data (i.e. maximum team members,</text><text fill="#000000" font-family="sans-serif" font-size="13" lengthAdjust="spacing" textLength="129" x="99" y="213.0264">set of quantified skills)</text><polygon fill="#181818" points="359,244.2344,369,248.2344,359,252.2344,363,248.2344" style="stroke:#181818;stroke-width:1.0;"/><line style="stroke:#181818;stroke-width:1.0;" x1="71" x2="365" y1="248.2344" y2="248.2344"/><text fill="#000000" font-family="sans-serif" font-size="13" font-weight="bold" lengthAdjust="spacing" textLength="7" x="78" y="243.3779">3</text><text fill="#000000" font-family="sans-serif" font-size="13" lengthAdjust="spacing" textLength="125" x="89" y="243.3779">inputs requested data</text><polygon fill="#181818" points="82,274.5859,72,278.5859,82,282.5859,78,278.5859" style="stroke:#181818;stroke-width:1.0;"/><line style="stroke:#181818;stroke-width:1.0;stroke-dasharray:2.0,2.0;" x1="76" x2="375" y1="278.5859" y2="278.5859"/><text fill="#000000" font-family="sans-serif" font-size="13" font-weight="bold" lengthAdjust="spacing" textLength="7" x="88" y="273.7295">4</text><text fill="#000000" font-family="sans-serif" font-size="13" lengthAdjust="spacing" textLength="236" x="99" y="273.7295">shows all data and requests confirmation</text><polygon fill="#181818" points="359,304.9375,369,308.9375,359,312.9375,363,308.9375" style="stroke:#181818;stroke-width:1.0;"/><line style="stroke:#181818;stroke-width:1.0;" x1="71" x2="365" y1="308.9375" y2="308.9375"/><text fill="#000000" font-family="sans-serif" font-size="13" font-weight="bold" lengthAdjust="spacing" textLength="7" x="78" y="304.0811">5</text><text fill="#000000" font-family="sans-serif" font-size="13" lengthAdjust="spacing" textLength="78" x="89" y="304.0811">confirms data</text><polygon fill="#181818" points="82,335.2891,72,339.2891,82,343.2891,78,339.2891" style="stroke:#181818;stroke-width:1.0;"/><line style="stroke:#181818;stroke-width:1.0;stroke-dasharray:2.0,2.0;" x1="76" x2="375" y1="339.2891" y2="339.2891"/><text fill="#000000" font-family="sans-serif" font-size="13" font-weight="bold" lengthAdjust="spacing" textLength="7" x="88" y="334.4326">6</text><text fill="#000000" font-family="sans-serif" font-size="13" lengthAdjust="spacing" textLength="134" x="99" y="334.4326">displays team proposal</text><polygon fill="#181818" points="359,365.6406,369,369.6406,359,373.6406,363,369.6406" style="stroke:#181818;stroke-width:1.0;"/><line style="stroke:#181818;stroke-width:1.0;" x1="71" x2="365" y1="369.6406" y2="369.6406"/><text fill="#000000" font-family="sans-serif" font-size="13" font-weight="bold" lengthAdjust="spacing" textLength="7" x="78" y="364.7842">7</text><text fill="#000000" font-family="sans-serif" font-size="13" lengthAdjust="spacing" textLength="132" x="89" y="364.7842">confirms team creation</text><polygon fill="#181818" points="82,395.9922,72,399.9922,82,403.9922,78,399.9922" style="stroke:#181818;stroke-width:1.0;"/><line style="stroke:#181818;stroke-width:1.0;stroke-dasharray:2.0,2.0;" x1="76" x2="375" y1="399.9922" y2="399.9922"/><text fill="#000000" font-family="sans-serif" font-size="13" font-weight="bold" lengthAdjust="spacing" textLength="7" x="88" y="395.1357">8</text><text fill="#000000" font-family="sans-serif" font-size="13" lengthAdjust="spacing" textLength="103" x="99" y="395.1357">creates new team</text><!--SRC=[dPBDRi8m48JlUOeL9v0A3y2X9ohrqajpvR9rDi72NWVl6fgth_C3j1AqAZuvoixCDvl8tdAB4JtumC7iOl046XCLSddJejbZGwLsZY2IKUJ6VH-G7LRXPBc16frGKQZLF5fsekIXf4CYDWGRYqq_FY_BpQ8eC6dWv3yevhlH467scZmol9E450t9bj-GStAS0Ggy-DQ5ZgZ8eMgDRP4LPkinPPWOhuERFQBILL90FkSdM3wVsTPPjXVG00qnnLw3m7G29VI3wE9rDeVfJ0xBR7OnNkVrvBAY0XKgmjokQ0KUFwrFVl04JtrZUO8j2oc46Wuf5x6rfGhoIfsJnP1HqStecoNoXqWvSmhFHdtw8_Yo2oS1T6xaHwwkZKpWsaQFQWF_ct0IoyDabPNMOIVZ5jiOsY3exd3yZJ6uc4ZNDhyotUSQF4X-_ZItgRu0]--></g></svg>