<?xml version="1.0" encoding="UTF-8" standalone="no"?><svg xmlns="http://www.w3.org/2000/svg" xmlns:xlink="http://www.w3.org/1999/xlink" contentStyleType="text/css" height="793px" preserveAspectRatio="none" style="width:1220px;height:793px;background:#FFFFFF;" version="1.1" viewBox="0 0 1220 793" width="1220px" zoomAndPan="magnify"><defs/><g><!--class Vehicle--><g id="elem_Vehicle"><rect codeLine="11" fill="#F1F1F1" height="403.3438" id="Vehicle" rx="2.5" ry="2.5" style="stroke:#181818;stroke-width:0.5;" width="384" x="401" y="383"/><ellipse cx="557" cy="400.5781" fill="#ADD1B2" rx="12" ry="12" style="stroke:#181818;stroke-width:1.0;"/><path d="M559.1406,395.5 Q559.3281,395.25 559.5469,395.125 Q559.7656,394.9844 560.0156,394.9844 Q560.4531,394.9844 560.7344,395.2969 Q561.0156,395.5938 561.0156,396.3125 L561.0156,398.0156 Q561.0156,398.7344 560.7344,399.0469 Q560.4531,399.3594 560.0156,399.3594 Q559.625,399.3594 559.375,399.125 Q559.125,398.9063 559.0156,398.2969 Q558.9531,397.875 558.7344,397.6563 Q558.3438,397.2188 557.625,396.9531 Q556.9063,396.6875 556.1875,396.6875 Q555.2813,396.6875 554.5313,397.0781 Q553.7813,397.4688 553.2031,398.3594 Q552.625,399.2344 552.625,400.4375 L552.625,401.7344 Q552.625,403.1875 553.6719,404.1563 Q554.7344,405.125 556.5938,405.125 Q557.7031,405.125 558.4844,404.8125 Q558.9219,404.6406 559.4375,404.125 Q559.75,403.8125 559.9219,403.7188 Q560.0938,403.625 560.3281,403.625 Q560.7188,403.625 561.0156,403.9375 Q561.3281,404.2344 561.3281,404.6406 Q561.3281,405.0469 560.9219,405.5156 Q560.3281,406.2031 559.3906,406.5938 Q558.125,407.125 556.6094,407.125 Q554.8281,407.125 553.4063,406.3906 Q552.25,405.7969 551.4375,404.5313 Q550.625,403.2656 550.625,401.7813 L550.625,400.4219 Q550.625,398.8594 551.3438,397.5156 Q552.0781,396.1563 553.3594,395.4219 Q554.6563,394.6875 556.1094,394.6875 Q556.9688,394.6875 557.7188,394.8906 Q558.4844,395.0938 559.1406,395.5 Z " fill="#000000"/><text fill="#000000" font-family="sans-serif" font-size="20" lengthAdjust="spacing" textLength="63" x="579" y="408.7617">Vehicle</text><line style="stroke:#181818;stroke-width:0.5;" x1="402" x2="784" y1="418.1563" y2="418.1563"/><text fill="#000000" font-family="sans-serif" font-size="20" lengthAdjust="spacing" textLength="114" x="407" y="442.918">-String brand</text><text fill="#000000" font-family="sans-serif" font-size="20" lengthAdjust="spacing" textLength="117" x="407" y="468.0742">-String model</text><text fill="#000000" font-family="sans-serif" font-size="20" lengthAdjust="spacing" textLength="68" x="407" y="493.2305">-int tare</text><text fill="#000000" font-family="sans-serif" font-size="20" lengthAdjust="spacing" textLength="181" x="407" y="518.3867">-double grossWeight</text><text fill="#000000" font-family="sans-serif" font-size="20" lengthAdjust="spacing" textLength="124" x="407" y="543.543">-int currentKM</text><text fill="#000000" font-family="sans-serif" font-size="20" lengthAdjust="spacing" textLength="231" x="407" y="568.6992">-CustomDate registerDate</text><text fill="#000000" font-family="sans-serif" font-size="20" lengthAdjust="spacing" textLength="255" x="407" y="593.8555">-CustomDate acquisitionDate</text><text fill="#000000" font-family="sans-serif" font-size="20" lengthAdjust="spacing" textLength="200" x="407" y="619.0117">-int checkUpFrequency</text><text fill="#000000" font-family="sans-serif" font-size="20" lengthAdjust="spacing" textLength="175" x="407" y="644.168">-String plateNumber</text><text fill="#000000" font-family="sans-serif" font-size="20" lengthAdjust="spacing" textLength="102" x="407" y="669.3242">-String type</text><line style="stroke:#181818;stroke-width:0.5;" x1="402" x2="784" y1="677.7188" y2="677.7188"/><text fill="#000000" font-family="sans-serif" font-size="20" lengthAdjust="spacing" textLength="372" x="407" y="702.4805">+Vehicle(brand, model, tare, grossWeight,</text><text fill="#000000" font-family="sans-serif" font-size="20" lengthAdjust="spacing" textLength="363" x="407" y="727.6367">currentKM, registerDate, acquisitionDate,</text><text fill="#000000" font-family="sans-serif" font-size="20" lengthAdjust="spacing" textLength="347" x="407" y="752.793">checkUpFrequency, plateNumber, type)</text><text fill="#000000" font-family="sans-serif" font-size="20" lengthAdjust="spacing" textLength="239" x="407" y="777.9492">+setCurrentKM(currentKM)</text></g><!--class VehicleRepository--><g id="elem_VehicleRepository"><rect codeLine="27" fill="#F1F1F1" height="76.3125" id="VehicleRepository" rx="2.5" ry="2.5" style="stroke:#181818;stroke-width:0.5;" width="192" x="497" y="246"/><ellipse cx="513" cy="263.5781" fill="#ADD1B2" rx="12" ry="12" style="stroke:#181818;stroke-width:1.0;"/><path d="M515.1406,258.5 Q515.3281,258.25 515.5469,258.125 Q515.7656,257.9844 516.0156,257.9844 Q516.4531,257.9844 516.7344,258.2969 Q517.0156,258.5938 517.0156,259.3125 L517.0156,261.0156 Q517.0156,261.7344 516.7344,262.0469 Q516.4531,262.3594 516.0156,262.3594 Q515.625,262.3594 515.375,262.125 Q515.125,261.9063 515.0156,261.2969 Q514.9531,260.875 514.7344,260.6563 Q514.3438,260.2188 513.625,259.9531 Q512.9063,259.6875 512.1875,259.6875 Q511.2813,259.6875 510.5313,260.0781 Q509.7813,260.4688 509.2031,261.3594 Q508.625,262.2344 508.625,263.4375 L508.625,264.7344 Q508.625,266.1875 509.6719,267.1563 Q510.7344,268.125 512.5938,268.125 Q513.7031,268.125 514.4844,267.8125 Q514.9219,267.6406 515.4375,267.125 Q515.75,266.8125 515.9219,266.7188 Q516.0938,266.625 516.3281,266.625 Q516.7188,266.625 517.0156,266.9375 Q517.3281,267.2344 517.3281,267.6406 Q517.3281,268.0469 516.9219,268.5156 Q516.3281,269.2031 515.3906,269.5938 Q514.125,270.125 512.6094,270.125 Q510.8281,270.125 509.4063,269.3906 Q508.25,268.7969 507.4375,267.5313 Q506.625,266.2656 506.625,264.7813 L506.625,263.4219 Q506.625,261.8594 507.3438,260.5156 Q508.0781,259.1563 509.3594,258.4219 Q510.6563,257.6875 512.1094,257.6875 Q512.9688,257.6875 513.7188,257.8906 Q514.4844,258.0938 515.1406,258.5 Z " fill="#000000"/><text fill="#000000" font-family="sans-serif" font-size="20" lengthAdjust="spacing" textLength="158" x="528" y="271.7617">VehicleRepository</text><line style="stroke:#181818;stroke-width:0.5;" x1="498" x2="688" y1="281.1563" y2="281.1563"/><line style="stroke:#181818;stroke-width:0.5;" x1="498" x2="688" y1="289.1563" y2="289.1563"/><text fill="#000000" font-family="sans-serif" font-size="20" lengthAdjust="spacing" textLength="148" x="503" y="313.918">+getVehicleList()</text></g><!--class OrganizationRepository--><g id="elem_OrganizationRepository"><rect codeLine="31" fill="#F1F1F1" height="76.3125" id="OrganizationRepository" rx="2.5" ry="2.5" style="stroke:#181818;stroke-width:0.5;" width="380" x="769" y="246"/><ellipse cx="852" cy="263.5781" fill="#ADD1B2" rx="12" ry="12" style="stroke:#181818;stroke-width:1.0;"/><path d="M854.1406,258.5 Q854.3281,258.25 854.5469,258.125 Q854.7656,257.9844 855.0156,257.9844 Q855.4531,257.9844 855.7344,258.2969 Q856.0156,258.5938 856.0156,259.3125 L856.0156,261.0156 Q856.0156,261.7344 855.7344,262.0469 Q855.4531,262.3594 855.0156,262.3594 Q854.625,262.3594 854.375,262.125 Q854.125,261.9063 854.0156,261.2969 Q853.9531,260.875 853.7344,260.6563 Q853.3438,260.2188 852.625,259.9531 Q851.9063,259.6875 851.1875,259.6875 Q850.2813,259.6875 849.5313,260.0781 Q848.7813,260.4688 848.2031,261.3594 Q847.625,262.2344 847.625,263.4375 L847.625,264.7344 Q847.625,266.1875 848.6719,267.1563 Q849.7344,268.125 851.5938,268.125 Q852.7031,268.125 853.4844,267.8125 Q853.9219,267.6406 854.4375,267.125 Q854.75,266.8125 854.9219,266.7188 Q855.0938,266.625 855.3281,266.625 Q855.7188,266.625 856.0156,266.9375 Q856.3281,267.2344 856.3281,267.6406 Q856.3281,268.0469 855.9219,268.5156 Q855.3281,269.2031 854.3906,269.5938 Q853.125,270.125 851.6094,270.125 Q849.8281,270.125 848.4063,269.3906 Q847.25,268.7969 846.4375,267.5313 Q845.625,266.2656 845.625,264.7813 L845.625,263.4219 Q845.625,261.8594 846.3438,260.5156 Q847.0781,259.1563 848.3594,258.4219 Q849.6563,257.6875 851.1094,257.6875 Q851.9688,257.6875 852.7188,257.8906 Q853.4844,258.0938 854.1406,258.5 Z " fill="#000000"/><text fill="#000000" font-family="sans-serif" font-size="20" lengthAdjust="spacing" textLength="205" x="874" y="271.7617">OrganizationRepository</text><line style="stroke:#181818;stroke-width:0.5;" x1="770" x2="1148" y1="281.1563" y2="281.1563"/><line style="stroke:#181818;stroke-width:0.5;" x1="770" x2="1148" y1="289.1563" y2="289.1563"/><text fill="#000000" font-family="sans-serif" font-size="20" lengthAdjust="spacing" textLength="368" x="775" y="313.918">+getOrganizationByEmployeeEmail(email)</text></g><!--class Repositories--><g id="elem_Repositories"><rect codeLine="35" fill="#F1F1F1" height="151.7813" id="Repositories" rx="2.5" ry="2.5" style="stroke:#181818;stroke-width:0.5;" width="271" x="823.5" y="7"/><ellipse cx="899.5" cy="24.5781" fill="#ADD1B2" rx="12" ry="12" style="stroke:#181818;stroke-width:1.0;"/><path d="M901.6406,19.5 Q901.8281,19.25 902.0469,19.125 Q902.2656,18.9844 902.5156,18.9844 Q902.9531,18.9844 903.2344,19.2969 Q903.5156,19.5938 903.5156,20.3125 L903.5156,22.0156 Q903.5156,22.7344 903.2344,23.0469 Q902.9531,23.3594 902.5156,23.3594 Q902.125,23.3594 901.875,23.125 Q901.625,22.9063 901.5156,22.2969 Q901.4531,21.875 901.2344,21.6563 Q900.8438,21.2188 900.125,20.9531 Q899.4063,20.6875 898.6875,20.6875 Q897.7813,20.6875 897.0313,21.0781 Q896.2813,21.4688 895.7031,22.3594 Q895.125,23.2344 895.125,24.4375 L895.125,25.7344 Q895.125,27.1875 896.1719,28.1563 Q897.2344,29.125 899.0938,29.125 Q900.2031,29.125 900.9844,28.8125 Q901.4219,28.6406 901.9375,28.125 Q902.25,27.8125 902.4219,27.7188 Q902.5938,27.625 902.8281,27.625 Q903.2188,27.625 903.5156,27.9375 Q903.8281,28.2344 903.8281,28.6406 Q903.8281,29.0469 903.4219,29.5156 Q902.8281,30.2031 901.8906,30.5938 Q900.625,31.125 899.1094,31.125 Q897.3281,31.125 895.9063,30.3906 Q894.75,29.7969 893.9375,28.5313 Q893.125,27.2656 893.125,25.7813 L893.125,24.4219 Q893.125,22.8594 893.8438,21.5156 Q894.5781,20.1563 895.8594,19.4219 Q897.1563,18.6875 898.6094,18.6875 Q899.4688,18.6875 900.2188,18.8906 Q900.9844,19.0938 901.6406,19.5 Z " fill="#000000"/><text fill="#000000" font-family="sans-serif" font-size="20" lengthAdjust="spacing" textLength="110" x="921.5" y="32.7617">Repositories</text><line style="stroke:#181818;stroke-width:0.5;" x1="824.5" x2="1093.5" y1="42.1563" y2="42.1563"/><line style="stroke:#181818;stroke-width:0.5;" x1="824.5" x2="1093.5" y1="50.1563" y2="50.1563"/><text fill="#000000" font-family="sans-serif" font-size="20" lengthAdjust="spacing" textLength="131" x="829.5" y="74.918">-Repositories()</text><text fill="#000000" font-family="sans-serif" font-size="20" lengthAdjust="spacing" textLength="256" x="829.5" y="100.0742">+getInstance() : Repositories</text><text fill="#000000" font-family="sans-serif" font-size="20" lengthAdjust="spacing" textLength="212" x="829.5" y="125.2305">+getVehicleRepository()</text><text fill="#000000" font-family="sans-serif" font-size="20" lengthAdjust="spacing" textLength="259" x="829.5" y="150.3867">+getOrganizationRepository()</text></g><!--class RegisterVehicleController--><g id="elem_RegisterVehicleController"><rect codeLine="42" fill="#F1F1F1" height="151.7813" id="RegisterVehicleController" rx="2.5" ry="2.5" style="stroke:#181818;stroke-width:0.5;" width="451" x="232.5" y="7"/><ellipse cx="342.5" cy="24.5781" fill="#ADD1B2" rx="12" ry="12" style="stroke:#181818;stroke-width:1.0;"/><path d="M344.6406,19.5 Q344.8281,19.25 345.0469,19.125 Q345.2656,18.9844 345.5156,18.9844 Q345.9531,18.9844 346.2344,19.2969 Q346.5156,19.5938 346.5156,20.3125 L346.5156,22.0156 Q346.5156,22.7344 346.2344,23.0469 Q345.9531,23.3594 345.5156,23.3594 Q345.125,23.3594 344.875,23.125 Q344.625,22.9063 344.5156,22.2969 Q344.4531,21.875 344.2344,21.6563 Q343.8438,21.2188 343.125,20.9531 Q342.4063,20.6875 341.6875,20.6875 Q340.7813,20.6875 340.0313,21.0781 Q339.2813,21.4688 338.7031,22.3594 Q338.125,23.2344 338.125,24.4375 L338.125,25.7344 Q338.125,27.1875 339.1719,28.1563 Q340.2344,29.125 342.0938,29.125 Q343.2031,29.125 343.9844,28.8125 Q344.4219,28.6406 344.9375,28.125 Q345.25,27.8125 345.4219,27.7188 Q345.5938,27.625 345.8281,27.625 Q346.2188,27.625 346.5156,27.9375 Q346.8281,28.2344 346.8281,28.6406 Q346.8281,29.0469 346.4219,29.5156 Q345.8281,30.2031 344.8906,30.5938 Q343.625,31.125 342.1094,31.125 Q340.3281,31.125 338.9063,30.3906 Q337.75,29.7969 336.9375,28.5313 Q336.125,27.2656 336.125,25.7813 L336.125,24.4219 Q336.125,22.8594 336.8438,21.5156 Q337.5781,20.1563 338.8594,19.4219 Q340.1563,18.6875 341.6094,18.6875 Q342.4688,18.6875 343.2188,18.8906 Q343.9844,19.0938 344.6406,19.5 Z " fill="#000000"/><text fill="#000000" font-family="sans-serif" font-size="20" lengthAdjust="spacing" textLength="222" x="364.5" y="32.7617">RegisterVehicleController</text><line style="stroke:#181818;stroke-width:0.5;" x1="233.5" x2="682.5" y1="42.1563" y2="42.1563"/><line style="stroke:#181818;stroke-width:0.5;" x1="233.5" x2="682.5" y1="50.1563" y2="50.1563"/><text fill="#000000" font-family="sans-serif" font-size="20" lengthAdjust="spacing" textLength="402" x="238.5" y="74.918">+RegisterVehicleController(vehicleRepository)</text><text fill="#000000" font-family="sans-serif" font-size="20" lengthAdjust="spacing" textLength="439" x="238.5" y="100.0742">+registerVehicle(brand, model, tare, grossWeight,</text><text fill="#000000" font-family="sans-serif" font-size="20" lengthAdjust="spacing" textLength="363" x="238.5" y="125.2305">currentKM, registerDate, acquisitionDate,</text><text fill="#000000" font-family="sans-serif" font-size="20" lengthAdjust="spacing" textLength="347" x="238.5" y="150.3867">checkUpFrequency, plateNumber, type)</text></g><!--class RegisterVehicleUI--><g id="elem_RegisterVehicleUI"><rect codeLine="47" fill="#F1F1F1" height="51.1563" id="RegisterVehicleUI" rx="2.5" ry="2.5" style="stroke:#181818;stroke-width:0.5;" width="190" x="7" y="57.5"/><ellipse cx="23" cy="75.0781" fill="#ADD1B2" rx="12" ry="12" style="stroke:#181818;stroke-width:1.0;"/><path d="M25.1406,70 Q25.3281,69.75 25.5469,69.625 Q25.7656,69.4844 26.0156,69.4844 Q26.4531,69.4844 26.7344,69.7969 Q27.0156,70.0938 27.0156,70.8125 L27.0156,72.5156 Q27.0156,73.2344 26.7344,73.5469 Q26.4531,73.8594 26.0156,73.8594 Q25.625,73.8594 25.375,73.625 Q25.125,73.4063 25.0156,72.7969 Q24.9531,72.375 24.7344,72.1563 Q24.3438,71.7188 23.625,71.4531 Q22.9063,71.1875 22.1875,71.1875 Q21.2813,71.1875 20.5313,71.5781 Q19.7813,71.9688 19.2031,72.8594 Q18.625,73.7344 18.625,74.9375 L18.625,76.2344 Q18.625,77.6875 19.6719,78.6563 Q20.7344,79.625 22.5938,79.625 Q23.7031,79.625 24.4844,79.3125 Q24.9219,79.1406 25.4375,78.625 Q25.75,78.3125 25.9219,78.2188 Q26.0938,78.125 26.3281,78.125 Q26.7188,78.125 27.0156,78.4375 Q27.3281,78.7344 27.3281,79.1406 Q27.3281,79.5469 26.9219,80.0156 Q26.3281,80.7031 25.3906,81.0938 Q24.125,81.625 22.6094,81.625 Q20.8281,81.625 19.4063,80.8906 Q18.25,80.2969 17.4375,79.0313 Q16.625,77.7656 16.625,76.2813 L16.625,74.9219 Q16.625,73.3594 17.3438,72.0156 Q18.0781,70.6563 19.3594,69.9219 Q20.6563,69.1875 22.1094,69.1875 Q22.9688,69.1875 23.7188,69.3906 Q24.4844,69.5938 25.1406,70 Z " fill="#000000"/><text fill="#000000" font-family="sans-serif" font-size="20" lengthAdjust="spacing" textLength="156" x="38" y="83.2617">RegisterVehicleUI</text><line style="stroke:#181818;stroke-width:0.5;" x1="8" x2="196" y1="92.6563" y2="92.6563"/><line style="stroke:#181818;stroke-width:0.5;" x1="8" x2="196" y1="100.6563" y2="100.6563"/></g><!--link Repositories to Repositories--><g id="link_Repositories_Repositories"><path codeLine="50" d="M1094.76,62.82 C1115.45,65.9 1129.5,72.63 1129.5,83 C1129.5,92.48 1117.76,98.91 1099.94,102.3 " fill="none" id="Repositories-to-Repositories" style="stroke:#181818;stroke-width:1.0;"/><polygon fill="#181818" points="1094.76,103.18,1104.2986,105.6325,1099.6908,102.3511,1102.9723,97.7433,1094.76,103.18" style="stroke:#181818;stroke-width:1.0;"/><text fill="#000000" font-family="sans-serif" font-size="20" lengthAdjust="spacing" textLength="72" x="1135.5" y="91.2617">instance</text></g><!--link RegisterVehicleUI to RegisterVehicleController--><g id="link_RegisterVehicleUI_RegisterVehicleController"><path codeLine="52" d="M197.22,83 C211.02,83 220.67,83 220.67,83 C220.67,83 223.11,83 227.29,83 " fill="none" id="RegisterVehicleUI-to-RegisterVehicleController" style="stroke:#181818;stroke-width:1.0;stroke-dasharray:7.0,7.0;"/><polygon fill="#181818" points="232.48,83,223.48,79,227.48,83,223.48,87,232.48,83" style="stroke:#181818;stroke-width:1.0;"/></g><!--link RegisterVehicleController to Repositories--><g id="link_RegisterVehicleController_Repositories"><path codeLine="54" d="M683.58,83 C729.38,83 776.3,83 818.14,83 " fill="none" id="RegisterVehicleController-to-Repositories" style="stroke:#181818;stroke-width:1.0;stroke-dasharray:7.0,7.0;"/><polygon fill="#181818" points="823.21,83,814.21,79,818.21,83,814.21,87,823.21,83" style="stroke:#181818;stroke-width:1.0;"/><text fill="#000000" font-family="sans-serif" font-size="20" lengthAdjust="spacing" textLength="103" x="702" y="74.7617">repositories</text></g><!--link Repositories to VehicleRepository--><g id="link_Repositories_VehicleRepository"><path codeLine="56" d="M823.5,157.68 C770.07,186.72 710.84,218.93 665.8,243.41 " fill="none" id="Repositories-to-VehicleRepository" style="stroke:#181818;stroke-width:1.0;"/><polygon fill="#181818" points="661.22,245.91,671.0384,245.1365,665.6155,243.5267,667.2252,238.1038,661.22,245.91" style="stroke:#181818;stroke-width:1.0;"/><text fill="#000000" font-family="sans-serif" font-size="20" lengthAdjust="spacing" textLength="11" x="660.216" y="233.5965">1</text></g><!--link RegisterVehicleController to VehicleRepository--><g id="link_RegisterVehicleController_VehicleRepository"><path codeLine="58" d="M509.04,159.23 C527.95,187.11 548.69,217.68 564.83,241.47 " fill="none" id="RegisterVehicleController-to-VehicleRepository" style="stroke:#181818;stroke-width:1.0;stroke-dasharray:7.0,7.0;"/><polygon fill="#181818" points="567.79,245.83,566.0415,236.1376,564.9804,241.694,559.424,240.633,567.79,245.83" style="stroke:#181818;stroke-width:1.0;"/><text fill="#000000" font-family="sans-serif" font-size="20" lengthAdjust="spacing" textLength="158" x="547" y="210.7617">VehicleRepository</text></g><!--link Repositories to OrganizationRepository--><g id="link_Repositories_OrganizationRepository"><path codeLine="60" d="M959,159.23 C959,186.76 959,216.92 959,240.58 " fill="none" id="Repositories-to-OrganizationRepository" style="stroke:#181818;stroke-width:1.0;"/><polygon fill="#181818" points="959,245.83,963,236.83,959,240.83,955,236.83,959,245.83" style="stroke:#181818;stroke-width:1.0;"/><text fill="#000000" font-family="sans-serif" font-size="20" lengthAdjust="spacing" textLength="11" x="947.1234" y="233.5037">1</text></g><!--link VehicleRepository to Vehicle--><g id="link_VehicleRepository_Vehicle"><path codeLine="63" d="M593,322.2 C593,337.61 593,356.77 593,377.68 " fill="none" id="VehicleRepository-to-Vehicle" style="stroke:#181818;stroke-width:1.0;"/><polygon fill="#181818" points="593,382.74,597,373.74,593,377.74,589,373.74,593,382.74" style="stroke:#181818;stroke-width:1.0;"/><text fill="#000000" font-family="sans-serif" font-size="20" lengthAdjust="spacing" textLength="11" x="581.1234" y="351.0296">1</text><text fill="#000000" font-family="sans-serif" font-size="20" lengthAdjust="spacing" textLength="8" x="584.8563" y="370.7984">*</text></g><!--SRC=[nLCzRzim4DtvAuWiaHibI3fw292u2M2qJO4QQPSiD7MM25CyvKYrK8h-zvAoB5EIdRKU3F3ktNllFcItobI2HAbHRY7Z6Mn4hTqZ6hTIRy0_NhDpkyVm4WtAWh04xgW6TiXKGcv53YlNQE04qWcJwnXW2v7XRsLolX7QnXcj3BYc0bwXRi8ZLkoJI0vPL2MriFREELBhsi5IecdzNZDshc7Zk4DEAYySprImez0mrjRm7r0ewLt-OTp_BldAStXRQn8c6uPAp41t8MKyfo3edXdMQy-H4rhx4u9GX9Cr4HZt-MiNMzJMOVb9k32QN5a751xJh92ljR8gk8q0BMK1SljSFHAyrc1aCpHQQOz-giirq30HHiVQqCM-xwHjDDqrbxOzfN4VwOlf_QS3l-dONu2EVAMnbxJLdtNw5jnYJvpq4ZFsTxIOxr2Xrq1gkXLTy1nSb_pYtIHHpJVAXL5l8bWwNXWZxfk7ijBO03oKGka4md_4rZCeiFrznC5aTY1U6kklN48ou_C1Q6BwO2okFsuz6TZP3R-ZMVYFab1heBw_auZarrXwhqp3alzm3gVwUrxwldnoi8NBs-5MvlvpsCqz0CVrLxUdHpB1H_EycgXGlD29fRERi-cvlYlW5QRtFJzE4cjrOiUFXJ4s9Gtmjkn3x_4V]--></g></svg>