<?xml version="1.0" encoding="UTF-8" standalone="no"?><svg xmlns="http://www.w3.org/2000/svg" xmlns:xlink="http://www.w3.org/1999/xlink" contentStyleType="text/css" height="979px" preserveAspectRatio="none" style="width:1384px;height:979px;background:#FFFFFF;" version="1.1" viewBox="0 0 1384 979" width="1384px" zoomAndPan="magnify"><defs/><g><rect fill="#FFFFFF" height="786.3984" style="stroke:#181818;stroke-width:1.0;" width="10" x="49" y="92.6094"/><rect fill="#FFFFFF" height="30.3516" style="stroke:#181818;stroke-width:1.0;" width="10" x="325" y="114.9609"/><rect fill="#FFFFFF" height="30.3516" style="stroke:#181818;stroke-width:1.0;" width="10" x="325" y="175.6641"/><rect fill="#FFFFFF" height="642.6406" style="stroke:#181818;stroke-width:1.0;" width="10" x="325" y="236.3672"/><rect fill="#FFFFFF" height="506.625" style="stroke:#181818;stroke-width:1.0;" width="10" x="645" y="342.0313"/><rect fill="#FFFFFF" height="30.3516" style="stroke:#181818;stroke-width:1.0;" width="10" x="793" y="372.3828"/><rect fill="#FFFFFF" height="30.3516" style="stroke:#181818;stroke-width:1.0;" width="10" x="900" y="433.0859"/><rect fill="#FFFFFF" height="266.8125" style="stroke:#181818;stroke-width:1.0;" width="10" x="1023.5" y="551.4922"/><rect fill="#FFFFFF" height="128.0547" style="stroke:#181818;stroke-width:1.0;" width="10" x="1028.5" y="652.8984"/><rect fill="#FFFFFF" height="41.3516" style="stroke:#181818;stroke-width:1.0;" width="10" x="1033.5" y="696.25"/><line style="stroke:#181818;stroke-width:0.5;stroke-dasharray:5.0,5.0;" x1="54" x2="54" y1="82.6094" y2="897.0078"/><line style="stroke:#181818;stroke-width:0.5;stroke-dasharray:5.0,5.0;" x1="329.5" x2="329.5" y1="82.6094" y2="897.0078"/><line style="stroke:#181818;stroke-width:0.5;stroke-dasharray:5.0,5.0;" x1="649.5" x2="649.5" y1="275.6719" y2="897.0078"/><line style="stroke:#181818;stroke-width:0.5;stroke-dasharray:5.0,5.0;" x1="797.5" x2="797.5" y1="82.6094" y2="897.0078"/><line style="stroke:#181818;stroke-width:0.5;stroke-dasharray:5.0,5.0;" x1="904.5" x2="904.5" y1="82.6094" y2="897.0078"/><line style="stroke:#181818;stroke-width:0.5;stroke-dasharray:5.0,5.0;" x1="1028.5" x2="1028.5" y1="82.6094" y2="897.0078"/><line style="stroke:#181818;stroke-width:0.5;stroke-dasharray:5.0,5.0;" x1="1346.5" x2="1346.5" y1="601.0195" y2="897.0078"/><text fill="#000000" font-family="sans-serif" font-size="14" lengthAdjust="spacing" textLength="92" x="5" y="79.5332">Fleet Manager</text><ellipse cx="54" cy="13.5" fill="#E3E3E3" rx="8" ry="8" style="stroke:#181818;stroke-width:0.5;"/><path d="M54,21.5 L54,48.5 M41,29.5 L67,29.5 M54,48.5 L41,63.5 M54,48.5 L67,63.5 " fill="none" style="stroke:#181818;stroke-width:0.5;"/><text fill="#000000" font-family="sans-serif" font-size="14" lengthAdjust="spacing" textLength="92" x="5" y="910.541">Fleet Manager</text><ellipse cx="54" cy="922.1172" fill="#E3E3E3" rx="8" ry="8" style="stroke:#181818;stroke-width:0.5;"/><path d="M54,930.1172 L54,957.1172 M41,938.1172 L67,938.1172 M54,957.1172 L41,972.1172 M54,957.1172 L67,972.1172 " fill="none" style="stroke:#181818;stroke-width:0.5;"/><rect fill="#E3E3E3" height="31.6094" rx="2.5" ry="2.5" style="stroke:#181818;stroke-width:0.5;" width="129" x="265.5" y="50"/><text fill="#000000" font-family="sans-serif" font-size="14" lengthAdjust="spacing" textLength="115" x="272.5" y="71.5332">:RegisterVehicleUI</text><rect fill="#E3E3E3" height="31.6094" rx="2.5" ry="2.5" style="stroke:#181818;stroke-width:0.5;" width="129" x="265.5" y="896.0078"/><text fill="#000000" font-family="sans-serif" font-size="14" lengthAdjust="spacing" textLength="115" x="272.5" y="917.541">:RegisterVehicleUI</text><rect fill="#E3E3E3" height="31.6094" rx="2.5" ry="2.5" style="stroke:#181818;stroke-width:0.5;" width="179" x="560.5" y="896.0078"/><text fill="#000000" font-family="sans-serif" font-size="14" lengthAdjust="spacing" textLength="165" x="567.5" y="917.541">:RegisterVehicleController</text><rect fill="#E3E3E3" height="31.6094" rx="2.5" ry="2.5" style="stroke:#181818;stroke-width:0.5;" width="97" x="749.5" y="50"/><text fill="#000000" font-family="sans-serif" font-size="14" lengthAdjust="spacing" textLength="83" x="756.5" y="71.5332">:Repositories</text><rect fill="#E3E3E3" height="31.6094" rx="2.5" ry="2.5" style="stroke:#181818;stroke-width:0.5;" width="97" x="749.5" y="896.0078"/><text fill="#000000" font-family="sans-serif" font-size="14" lengthAdjust="spacing" textLength="83" x="756.5" y="917.541">:Repositories</text><rect fill="#E3E3E3" height="49.2188" rx="2.5" ry="2.5" style="stroke:#181818;stroke-width:0.5;" width="97" x="856.5" y="32.3906"/><text fill="#000000" font-family="sans-serif" font-size="14" lengthAdjust="spacing" textLength="74" x="868" y="53.9238">repositories</text><text fill="#000000" font-family="sans-serif" font-size="14" lengthAdjust="spacing" textLength="83" x="863.5" y="71.5332">:Repositories</text><rect fill="#E3E3E3" height="49.2188" rx="2.5" ry="2.5" style="stroke:#181818;stroke-width:0.5;" width="97" x="856.5" y="896.0078"/><text fill="#000000" font-family="sans-serif" font-size="14" lengthAdjust="spacing" textLength="74" x="868" y="917.541">repositories</text><text fill="#000000" font-family="sans-serif" font-size="14" lengthAdjust="spacing" textLength="83" x="863.5" y="935.1504">:Repositories</text><rect fill="#E3E3E3" height="49.2188" rx="2.5" ry="2.5" style="stroke:#181818;stroke-width:0.5;" width="130" x="963.5" y="32.3906"/><text fill="#000000" font-family="sans-serif" font-size="14" lengthAdjust="spacing" textLength="116" x="970.5" y="53.9238">vehicleRepository:</text><text fill="#000000" font-family="sans-serif" font-size="14" lengthAdjust="spacing" textLength="114" x="971.5" y="71.5332">VehicleRepository</text><rect fill="#E3E3E3" height="49.2188" rx="2.5" ry="2.5" style="stroke:#181818;stroke-width:0.5;" width="130" x="963.5" y="896.0078"/><text fill="#000000" font-family="sans-serif" font-size="14" lengthAdjust="spacing" textLength="116" x="970.5" y="917.541">vehicleRepository:</text><text fill="#000000" font-family="sans-serif" font-size="14" lengthAdjust="spacing" textLength="114" x="971.5" y="935.1504">VehicleRepository</text><rect fill="#E3E3E3" height="49.2188" rx="2.5" ry="2.5" style="stroke:#181818;stroke-width:0.5;" width="64" x="1314.5" y="896.0078"/><text fill="#000000" font-family="sans-serif" font-size="14" lengthAdjust="spacing" textLength="44" x="1322.5" y="917.541">vehicle</text><text fill="#000000" font-family="sans-serif" font-size="14" lengthAdjust="spacing" textLength="50" x="1321.5" y="935.1504">:Vehicle</text><rect fill="#FFFFFF" height="786.3984" style="stroke:#181818;stroke-width:1.0;" width="10" x="49" y="92.6094"/><rect fill="#FFFFFF" height="30.3516" style="stroke:#181818;stroke-width:1.0;" width="10" x="325" y="114.9609"/><rect fill="#FFFFFF" height="30.3516" style="stroke:#181818;stroke-width:1.0;" width="10" x="325" y="175.6641"/><rect fill="#FFFFFF" height="642.6406" style="stroke:#181818;stroke-width:1.0;" width="10" x="325" y="236.3672"/><rect fill="#FFFFFF" height="506.625" style="stroke:#181818;stroke-width:1.0;" width="10" x="645" y="342.0313"/><rect fill="#FFFFFF" height="30.3516" style="stroke:#181818;stroke-width:1.0;" width="10" x="793" y="372.3828"/><rect fill="#FFFFFF" height="30.3516" style="stroke:#181818;stroke-width:1.0;" width="10" x="900" y="433.0859"/><rect fill="#FFFFFF" height="266.8125" style="stroke:#181818;stroke-width:1.0;" width="10" x="1023.5" y="551.4922"/><rect fill="#FFFFFF" height="128.0547" style="stroke:#181818;stroke-width:1.0;" width="10" x="1028.5" y="652.8984"/><rect fill="#FFFFFF" height="41.3516" style="stroke:#181818;stroke-width:1.0;" width="10" x="1033.5" y="696.25"/><polygon fill="#181818" points="313,110.9609,323,114.9609,313,118.9609,317,114.9609" style="stroke:#181818;stroke-width:1.0;"/><line style="stroke:#181818;stroke-width:1.0;" x1="59" x2="319" y1="114.9609" y2="114.9609"/><text fill="#000000" font-family="sans-serif" font-size="13" font-weight="bold" lengthAdjust="spacing" textLength="7" x="66" y="110.1045">1</text><text fill="#000000" font-family="sans-serif" font-size="13" lengthAdjust="spacing" textLength="160" x="77" y="110.1045">asks to register new vehicle</text><polygon fill="#181818" points="70,141.3125,60,145.3125,70,149.3125,66,145.3125" style="stroke:#181818;stroke-width:1.0;"/><line style="stroke:#181818;stroke-width:1.0;stroke-dasharray:2.0,2.0;" x1="64" x2="329" y1="145.3125" y2="145.3125"/><text fill="#000000" font-family="sans-serif" font-size="13" font-weight="bold" lengthAdjust="spacing" textLength="7" x="76" y="140.4561">2</text><text fill="#000000" font-family="sans-serif" font-size="13" lengthAdjust="spacing" textLength="167" x="87" y="140.4561">requests required information</text><polygon fill="#181818" points="313,171.6641,323,175.6641,313,179.6641,317,175.6641" style="stroke:#181818;stroke-width:1.0;"/><line style="stroke:#181818;stroke-width:1.0;stroke-dasharray:2.0,2.0;" x1="59" x2="319" y1="175.6641" y2="175.6641"/><text fill="#000000" font-family="sans-serif" font-size="13" font-weight="bold" lengthAdjust="spacing" textLength="7" x="66" y="170.8076">3</text><text fill="#000000" font-family="sans-serif" font-size="13" lengthAdjust="spacing" textLength="125" x="77" y="170.8076">Types requested data</text><polygon fill="#181818" points="70,202.0156,60,206.0156,70,210.0156,66,206.0156" style="stroke:#181818;stroke-width:1.0;"/><line style="stroke:#181818;stroke-width:1.0;stroke-dasharray:2.0,2.0;" x1="64" x2="329" y1="206.0156" y2="206.0156"/><text fill="#000000" font-family="sans-serif" font-size="13" font-weight="bold" lengthAdjust="spacing" textLength="7" x="76" y="201.1592">4</text><text fill="#000000" font-family="sans-serif" font-size="13" lengthAdjust="spacing" textLength="231" x="87" y="201.1592">Shows all data and request confirmation</text><polygon fill="#181818" points="313,232.3672,323,236.3672,313,240.3672,317,236.3672" style="stroke:#181818;stroke-width:1.0;"/><line style="stroke:#181818;stroke-width:1.0;stroke-dasharray:2.0,2.0;" x1="59" x2="319" y1="236.3672" y2="236.3672"/><text fill="#000000" font-family="sans-serif" font-size="13" font-weight="bold" lengthAdjust="spacing" textLength="7" x="66" y="231.5107">5</text><text fill="#000000" font-family="sans-serif" font-size="13" lengthAdjust="spacing" textLength="87" x="77" y="231.5107">Confirm vehicle</text><polygon fill="#181818" points="548.5,262.7188,558.5,266.7188,548.5,270.7188,552.5,266.7188" style="stroke:#181818;stroke-width:1.0;"/><line style="stroke:#181818;stroke-width:1.0;" x1="335" x2="554.5" y1="266.7188" y2="266.7188"/><text fill="#000000" font-family="sans-serif" font-size="13" font-weight="bold" lengthAdjust="spacing" textLength="7" x="342" y="261.8623">6</text><text fill="#000000" font-family="sans-serif" font-size="13" lengthAdjust="spacing" textLength="36" x="353" y="261.8623">create</text><rect fill="#E3E3E3" height="31.6094" rx="2.5" ry="2.5" style="stroke:#181818;stroke-width:0.5;" width="179" x="560.5" y="244.3672"/><text fill="#000000" font-family="sans-serif" font-size="14" lengthAdjust="spacing" textLength="165" x="567.5" y="265.9004">:RegisterVehicleController</text><polygon fill="#181818" points="633,338.0313,643,342.0313,633,346.0313,637,342.0313" style="stroke:#181818;stroke-width:1.0;"/><line style="stroke:#181818;stroke-width:1.0;" x1="335" x2="639" y1="342.0313" y2="342.0313"/><text fill="#000000" font-family="sans-serif" font-size="13" font-weight="bold" lengthAdjust="spacing" textLength="7" x="342" y="320.8232">7</text><text fill="#000000" font-family="sans-serif" font-size="13" lengthAdjust="spacing" textLength="280" x="353" y="304.4717">registerVehicle(brand, model, tare, grossWeight,</text><text fill="#000000" font-family="sans-serif" font-size="13" lengthAdjust="spacing" textLength="239" x="353" y="320.8232">currentKM, registerDate, acquisitionDate,</text><text fill="#000000" font-family="sans-serif" font-size="13" lengthAdjust="spacing" textLength="230" x="353" y="337.1748">checkUpFrequency, plateNumber, type)</text><polygon fill="#181818" points="781,368.3828,791,372.3828,781,376.3828,785,372.3828" style="stroke:#181818;stroke-width:1.0;"/><line style="stroke:#181818;stroke-width:1.0;" x1="655" x2="787" y1="372.3828" y2="372.3828"/><text fill="#000000" font-family="sans-serif" font-size="13" font-weight="bold" lengthAdjust="spacing" textLength="7" x="662" y="367.5264">8</text><text fill="#000000" font-family="sans-serif" font-size="13" lengthAdjust="spacing" textLength="75" x="673" y="367.5264">getInstance()</text><polygon fill="#181818" points="666,398.7344,656,402.7344,666,406.7344,662,402.7344" style="stroke:#181818;stroke-width:1.0;"/><line style="stroke:#181818;stroke-width:1.0;stroke-dasharray:2.0,2.0;" x1="660" x2="797" y1="402.7344" y2="402.7344"/><text fill="#000000" font-family="sans-serif" font-size="13" font-weight="bold" lengthAdjust="spacing" textLength="7" x="672" y="397.8779">9</text><text fill="#000000" font-family="sans-serif" font-size="13" lengthAdjust="spacing" textLength="67" x="683" y="397.8779">repositories</text><polygon fill="#181818" points="888,429.0859,898,433.0859,888,437.0859,892,433.0859" style="stroke:#181818;stroke-width:1.0;"/><line style="stroke:#181818;stroke-width:1.0;" x1="655" x2="894" y1="433.0859" y2="433.0859"/><text fill="#000000" font-family="sans-serif" font-size="13" font-weight="bold" lengthAdjust="spacing" textLength="14" x="662" y="428.2295">10</text><text fill="#000000" font-family="sans-serif" font-size="13" lengthAdjust="spacing" textLength="131" x="680" y="428.2295">getVehicleRepository()</text><polygon fill="#181818" points="666,459.4375,656,463.4375,666,467.4375,662,463.4375" style="stroke:#181818;stroke-width:1.0;"/><line style="stroke:#181818;stroke-width:1.0;stroke-dasharray:2.0,2.0;" x1="660" x2="904" y1="463.4375" y2="463.4375"/><text fill="#000000" font-family="sans-serif" font-size="13" font-weight="bold" lengthAdjust="spacing" textLength="14" x="672" y="458.5811">11</text><text fill="#000000" font-family="sans-serif" font-size="13" lengthAdjust="spacing" textLength="101" x="690" y="458.5811">vehicleRepository</text><polygon fill="#181818" points="1011.5,547.4922,1021.5,551.4922,1011.5,555.4922,1015.5,551.4922" style="stroke:#181818;stroke-width:1.0;"/><line style="stroke:#181818;stroke-width:1.0;" x1="655" x2="1017.5" y1="551.4922" y2="551.4922"/><text fill="#000000" font-family="sans-serif" font-size="13" font-weight="bold" lengthAdjust="spacing" textLength="14" x="662" y="530.2842">12</text><text fill="#000000" font-family="sans-serif" font-size="13" lengthAdjust="spacing" textLength="280" x="680" y="513.9326">registerVehicle(brand, model, tare, grossWeight,</text><text fill="#000000" font-family="sans-serif" font-size="13" lengthAdjust="spacing" textLength="239" x="680" y="530.2842">currentKM, registerDate, acquisitionDate,</text><text fill="#000000" font-family="sans-serif" font-size="13" lengthAdjust="spacing" textLength="230" x="680" y="546.6357">checkUpFrequency, plateNumber, type)</text><polygon fill="#181818" points="1302.5,610.5469,1312.5,614.5469,1302.5,618.5469,1306.5,614.5469" style="stroke:#181818;stroke-width:1.0;"/><line style="stroke:#181818;stroke-width:1.0;" x1="1033.5" x2="1308.5" y1="614.5469" y2="614.5469"/><text fill="#000000" font-family="sans-serif" font-size="13" font-weight="bold" lengthAdjust="spacing" textLength="14" x="1040.5" y="593.3389">13</text><text fill="#000000" font-family="sans-serif" font-size="13" lengthAdjust="spacing" textLength="230" x="1058.5" y="576.9873">create(brand, model, tare, grossWeight,</text><text fill="#000000" font-family="sans-serif" font-size="13" lengthAdjust="spacing" textLength="239" x="1058.5" y="593.3389">currentKM, registerDate, acquisitionDate,</text><text fill="#000000" font-family="sans-serif" font-size="13" lengthAdjust="spacing" textLength="230" x="1058.5" y="609.6904">checkUpFrequency, plateNumber, type)</text><rect fill="#E3E3E3" height="49.2188" rx="2.5" ry="2.5" style="stroke:#181818;stroke-width:0.5;" width="64" x="1314.5" y="562.3281"/><text fill="#000000" font-family="sans-serif" font-size="14" lengthAdjust="spacing" textLength="44" x="1322.5" y="583.8613">vehicle</text><text fill="#000000" font-family="sans-serif" font-size="14" lengthAdjust="spacing" textLength="50" x="1321.5" y="601.4707">:Vehicle</text><line style="stroke:#181818;stroke-width:1.0;" x1="1033.5" x2="1080.5" y1="639.8984" y2="639.8984"/><line style="stroke:#181818;stroke-width:1.0;" x1="1080.5" x2="1080.5" y1="639.8984" y2="652.8984"/><line style="stroke:#181818;stroke-width:1.0;" x1="1039.5" x2="1080.5" y1="652.8984" y2="652.8984"/><polygon fill="#181818" points="1049.5,648.8984,1039.5,652.8984,1049.5,656.8984,1045.5,652.8984" style="stroke:#181818;stroke-width:1.0;"/><text fill="#000000" font-family="sans-serif" font-size="13" font-weight="bold" lengthAdjust="spacing" textLength="14" x="1045.5" y="635.042">14</text><text fill="#000000" font-family="sans-serif" font-size="13" lengthAdjust="spacing" textLength="111" x="1063.5" y="635.042">addVehicle(vehicle)</text><line style="stroke:#181818;stroke-width:1.0;" x1="1038.5" x2="1085.5" y1="683.25" y2="683.25"/><line style="stroke:#181818;stroke-width:1.0;" x1="1085.5" x2="1085.5" y1="683.25" y2="696.25"/><line style="stroke:#181818;stroke-width:1.0;" x1="1044.5" x2="1085.5" y1="696.25" y2="696.25"/><polygon fill="#181818" points="1054.5,692.25,1044.5,696.25,1054.5,700.25,1050.5,696.25" style="stroke:#181818;stroke-width:1.0;"/><text fill="#000000" font-family="sans-serif" font-size="13" font-weight="bold" lengthAdjust="spacing" textLength="14" x="1050.5" y="678.3936">15</text><text fill="#000000" font-family="sans-serif" font-size="13" lengthAdjust="spacing" textLength="133" x="1068.5" y="678.3936">validateVehicle(vehicle)</text><line style="stroke:#181818;stroke-width:1.0;stroke-dasharray:2.0,2.0;" x1="1043.5" x2="1085.5" y1="736.6016" y2="736.6016"/><line style="stroke:#181818;stroke-width:1.0;stroke-dasharray:2.0,2.0;" x1="1085.5" x2="1085.5" y1="736.6016" y2="749.6016"/><line style="stroke:#181818;stroke-width:1.0;stroke-dasharray:2.0,2.0;" x1="1038.5" x2="1085.5" y1="749.6016" y2="749.6016"/><polygon fill="#181818" points="1048.5,745.6016,1038.5,749.6016,1048.5,753.6016,1044.5,749.6016" style="stroke:#181818;stroke-width:1.0;"/><text fill="#000000" font-family="sans-serif" font-size="13" font-weight="bold" lengthAdjust="spacing" textLength="14" x="1050.5" y="731.7451">16</text><text fill="#000000" font-family="sans-serif" font-size="13" lengthAdjust="spacing" textLength="4" x="1068.5" y="731.7451"> </text><line style="stroke:#181818;stroke-width:1.0;stroke-dasharray:2.0,2.0;" x1="1038.5" x2="1080.5" y1="779.9531" y2="779.9531"/><line style="stroke:#181818;stroke-width:1.0;stroke-dasharray:2.0,2.0;" x1="1080.5" x2="1080.5" y1="779.9531" y2="792.9531"/><line style="stroke:#181818;stroke-width:1.0;stroke-dasharray:2.0,2.0;" x1="1033.5" x2="1080.5" y1="792.9531" y2="792.9531"/><polygon fill="#181818" points="1043.5,788.9531,1033.5,792.9531,1043.5,796.9531,1039.5,792.9531" style="stroke:#181818;stroke-width:1.0;"/><text fill="#000000" font-family="sans-serif" font-size="13" font-weight="bold" lengthAdjust="spacing" textLength="14" x="1045.5" y="775.0967">17</text><text fill="#000000" font-family="sans-serif" font-size="13" lengthAdjust="spacing" textLength="4" x="1063.5" y="775.0967"> </text><polygon fill="#181818" points="666,814.3047,656,818.3047,666,822.3047,662,818.3047" style="stroke:#181818;stroke-width:1.0;"/><line style="stroke:#181818;stroke-width:1.0;stroke-dasharray:2.0,2.0;" x1="660" x2="1027.5" y1="818.3047" y2="818.3047"/><text fill="#000000" font-family="sans-serif" font-size="13" font-weight="bold" lengthAdjust="spacing" textLength="14" x="672" y="813.4482">18</text><text fill="#000000" font-family="sans-serif" font-size="13" lengthAdjust="spacing" textLength="39" x="690" y="813.4482">vehicle</text><polygon fill="#181818" points="346,844.6563,336,848.6563,346,852.6563,342,848.6563" style="stroke:#181818;stroke-width:1.0;"/><line style="stroke:#181818;stroke-width:1.0;stroke-dasharray:2.0,2.0;" x1="340" x2="649" y1="848.6563" y2="848.6563"/><text fill="#000000" font-family="sans-serif" font-size="13" font-weight="bold" lengthAdjust="spacing" textLength="14" x="352" y="843.7998">19</text><text fill="#000000" font-family="sans-serif" font-size="13" lengthAdjust="spacing" textLength="39" x="370" y="843.7998">vehicle</text><polygon fill="#181818" points="65,875.0078,55,879.0078,65,883.0078,61,879.0078" style="stroke:#181818;stroke-width:1.0;"/><line style="stroke:#181818;stroke-width:1.0;stroke-dasharray:2.0,2.0;" x1="59" x2="329" y1="879.0078" y2="879.0078"/><text fill="#000000" font-family="sans-serif" font-size="13" font-weight="bold" lengthAdjust="spacing" textLength="14" x="71" y="874.1514">20</text><text fill="#000000" font-family="sans-serif" font-size="13" lengthAdjust="spacing" textLength="158" x="89" y="874.1514">displays operation success</text><!--SRC=[rLRBRjim4BppAnQvn36K7_0XGE0aYD6uAFBg9HU6Mak4QL8bgQG6yl5TKfOjXN8UxQ4jJpAvEvmTBeTsIwahRlaALaORKLgpGl2sHkQsAnKNIrxWZLyh18l2SrseRe0hUMwUfIvWmPL3ndZjZQvNZsWPEonbZh0mnZ-QdumBRomSN2X43tEk2TSU07TmUZPdXEQba1NN7WucrrX8vz7UOoc5mhjPZBkRlHqsDTfRezG6TdfxVPKaLCP9eY7HnPZjnFf6Xig8Up_5TZ8UT0hmxUhqjf_nr93P8KyUzFthkPYRp0u20MsxYMoopYzdqwjp5lIKJznZr8_1Pj0FE3uXhM12qKi7tj31DJg1ncVOmEuojZYaBpk4pY2GOy8Aa1C2-L6ZymvoxZcCB2xGeXQOGOvEM5bvQNG68FN2s1LNnBk_ub6KMWfQwKtdjUNDbp3E7x4kWKDXCJ2BHydUfnO-fCMy9H5mEtavzchjuaNPMjrkrnMw5fNGGiMTy7qWFKutfNbsm9LgzE8wRm6fJhsGlyzksgJ_lmVvcjb9d1wFYLiJjYjfjno9zwxxwD6IgXcvLuwAM75B9HJMEFSTPL7wx46Bsb9f_iiysoQV4Nv6Kb6ZqAKZkd62GaiKoxlg8ggZnJg3Ij7ArsXbX4ujSPGgdJPcv4gS1vnb0WNwcNPaeW97VO6sY4EEr8iS28Y76pOE6kqCgfVMwQvtjsXh2EOMIITEjOzzjCFUKXXXjiCnSSXzH2DQT-tbvMMGQCBlNsgMda2fvoTg9I6nmiRrn-FsZlpbWlOJJO-2vtbx2fkZFs9fsMz810FZevi_SIN9w31XC0JwIGvxU0mH6SpljFe7-k9FTllSJiExR5muUNO-XzzSsVYMxR3sG0s-5iqxDe5SEkhHjGDJOVFmWAk5GDVutglNjFCp_5tw1G00]--></g></svg>