<?xml version="1.0" encoding="UTF-8" standalone="no"?><svg xmlns="http://www.w3.org/2000/svg" xmlns:xlink="http://www.w3.org/1999/xlink" contentStyleType="text/css" height="606px" preserveAspectRatio="none" style="width:852px;height:606px;background:#FFFFFF;" version="1.1" viewBox="0 0 852 606" width="852px" zoomAndPan="magnify"><defs/><g><!--class RegisterSkillUI--><g id="elem_RegisterSkillUI"><rect codeLine="11" fill="#F1F1F1" height="48" id="RegisterSkillUI" rx="2.5" ry="2.5" style="stroke:#181818;stroke-width:0.5;" width="122" x="7" y="33.5"/><ellipse cx="22" cy="49.5" fill="#ADD1B2" rx="11" ry="11" style="stroke:#181818;stroke-width:1.0;"/><path d="M24.7656,45.375 Q24.9219,45.1563 25.1094,45.0469 Q25.2969,44.9375 25.5156,44.9375 Q25.8906,44.9375 26.125,45.2031 Q26.3594,45.4531 26.3594,46.0625 L26.3594,47.5156 Q26.3594,48.125 26.125,48.3906 Q25.8906,48.6563 25.5156,48.6563 Q25.1719,48.6563 24.9688,48.4531 Q24.7656,48.2656 24.6563,47.75 Q24.6094,47.3906 24.4219,47.2031 Q24.0938,46.8281 23.4844,46.6094 Q22.875,46.3906 22.25,46.3906 Q21.4844,46.3906 20.8438,46.7188 Q20.2188,47.0469 19.7188,47.7969 Q19.2344,48.5469 19.2344,49.5781 L19.2344,50.6719 Q19.2344,51.9063 20.125,52.7344 Q21.0156,53.5469 22.6094,53.5469 Q23.5469,53.5469 24.2031,53.2969 Q24.5938,53.1406 25.0156,52.7031 Q25.2813,52.4375 25.4219,52.3594 Q25.5781,52.2813 25.7813,52.2813 Q26.1094,52.2813 26.3594,52.5469 Q26.625,52.7969 26.625,53.1406 Q26.625,53.4844 26.2813,53.8906 Q25.7813,54.4688 24.9844,54.7969 Q23.9063,55.25 22.6094,55.25 Q21.0938,55.25 19.8906,54.625 Q18.9063,54.125 18.2188,53.0625 Q17.5313,51.9844 17.5313,50.7031 L17.5313,49.5469 Q17.5313,48.2188 18.1406,47.0781 Q18.7656,45.9219 19.8594,45.3125 Q20.9531,44.6875 22.1875,44.6875 Q22.9219,44.6875 23.5625,44.8594 Q24.2188,45.0156 24.7656,45.375 Z " fill="#000000"/><text fill="#000000" font-family="sans-serif" font-size="14" lengthAdjust="spacing" textLength="90" x="36" y="55.2285">RegisterSkillUI</text><line style="stroke:#181818;stroke-width:0.5;" x1="8" x2="128" y1="65.5" y2="65.5"/><line style="stroke:#181818;stroke-width:0.5;" x1="8" x2="128" y1="73.5" y2="73.5"/></g><!--class RegisterSkillController--><g id="elem_RegisterSkillController"><rect codeLine="15" fill="#F1F1F1" height="83.2188" id="RegisterSkillController" rx="2.5" ry="2.5" style="stroke:#181818;stroke-width:0.5;" width="247" x="164.5" y="16"/><ellipse cx="213.75" cy="32" fill="#ADD1B2" rx="11" ry="11" style="stroke:#181818;stroke-width:1.0;"/><path d="M216.5156,27.875 Q216.6719,27.6563 216.8594,27.5469 Q217.0469,27.4375 217.2656,27.4375 Q217.6406,27.4375 217.875,27.7031 Q218.1094,27.9531 218.1094,28.5625 L218.1094,30.0156 Q218.1094,30.625 217.875,30.8906 Q217.6406,31.1563 217.2656,31.1563 Q216.9219,31.1563 216.7188,30.9531 Q216.5156,30.7656 216.4063,30.25 Q216.3594,29.8906 216.1719,29.7031 Q215.8438,29.3281 215.2344,29.1094 Q214.625,28.8906 214,28.8906 Q213.2344,28.8906 212.5938,29.2188 Q211.9688,29.5469 211.4688,30.2969 Q210.9844,31.0469 210.9844,32.0781 L210.9844,33.1719 Q210.9844,34.4063 211.875,35.2344 Q212.7656,36.0469 214.3594,36.0469 Q215.2969,36.0469 215.9531,35.7969 Q216.3438,35.6406 216.7656,35.2031 Q217.0313,34.9375 217.1719,34.8594 Q217.3281,34.7813 217.5313,34.7813 Q217.8594,34.7813 218.1094,35.0469 Q218.375,35.2969 218.375,35.6406 Q218.375,35.9844 218.0313,36.3906 Q217.5313,36.9688 216.7344,37.2969 Q215.6563,37.75 214.3594,37.75 Q212.8438,37.75 211.6406,37.125 Q210.6563,36.625 209.9688,35.5625 Q209.2813,34.4844 209.2813,33.2031 L209.2813,32.0469 Q209.2813,30.7188 209.8906,29.5781 Q210.5156,28.4219 211.6094,27.8125 Q212.7031,27.1875 213.9375,27.1875 Q214.6719,27.1875 215.3125,27.3594 Q215.9688,27.5156 216.5156,27.875 Z " fill="#000000"/><text fill="#000000" font-family="sans-serif" font-size="14" lengthAdjust="spacing" textLength="140" x="234.25" y="37.7285">RegisterSkillController</text><line style="stroke:#181818;stroke-width:0.5;" x1="165.5" x2="410.5" y1="48" y2="48"/><line style="stroke:#181818;stroke-width:0.5;" x1="165.5" x2="410.5" y1="56" y2="56"/><text fill="#000000" font-family="sans-serif" font-size="14" lengthAdjust="spacing" textLength="235" x="170.5" y="74.5332">+CreateSkillController(jobRepository)</text><text fill="#000000" font-family="sans-serif" font-size="14" lengthAdjust="spacing" textLength="126" x="170.5" y="92.1426">+registerSkill(name)</text></g><!--class Repositories--><g id="elem_Repositories"><rect codeLine="20" fill="#F1F1F1" height="100.8281" id="Repositories" rx="2.5" ry="2.5" style="stroke:#181818;stroke-width:0.5;" width="234" x="515" y="7"/><ellipse cx="588.25" cy="23" fill="#ADD1B2" rx="11" ry="11" style="stroke:#181818;stroke-width:1.0;"/><path d="M591.0156,18.875 Q591.1719,18.6563 591.3594,18.5469 Q591.5469,18.4375 591.7656,18.4375 Q592.1406,18.4375 592.375,18.7031 Q592.6094,18.9531 592.6094,19.5625 L592.6094,21.0156 Q592.6094,21.625 592.375,21.8906 Q592.1406,22.1563 591.7656,22.1563 Q591.4219,22.1563 591.2188,21.9531 Q591.0156,21.7656 590.9063,21.25 Q590.8594,20.8906 590.6719,20.7031 Q590.3438,20.3281 589.7344,20.1094 Q589.125,19.8906 588.5,19.8906 Q587.7344,19.8906 587.0938,20.2188 Q586.4688,20.5469 585.9688,21.2969 Q585.4844,22.0469 585.4844,23.0781 L585.4844,24.1719 Q585.4844,25.4063 586.375,26.2344 Q587.2656,27.0469 588.8594,27.0469 Q589.7969,27.0469 590.4531,26.7969 Q590.8438,26.6406 591.2656,26.2031 Q591.5313,25.9375 591.6719,25.8594 Q591.8281,25.7813 592.0313,25.7813 Q592.3594,25.7813 592.6094,26.0469 Q592.875,26.2969 592.875,26.6406 Q592.875,26.9844 592.5313,27.3906 Q592.0313,27.9688 591.2344,28.2969 Q590.1563,28.75 588.8594,28.75 Q587.3438,28.75 586.1406,28.125 Q585.1563,27.625 584.4688,26.5625 Q583.7813,25.4844 583.7813,24.2031 L583.7813,23.0469 Q583.7813,21.7188 584.3906,20.5781 Q585.0156,19.4219 586.1094,18.8125 Q587.2031,18.1875 588.4375,18.1875 Q589.1719,18.1875 589.8125,18.3594 Q590.4688,18.5156 591.0156,18.875 Z " fill="#000000"/><text fill="#000000" font-family="sans-serif" font-size="14" lengthAdjust="spacing" textLength="79" x="608.75" y="28.7285">Repositories</text><line style="stroke:#181818;stroke-width:0.5;" x1="516" x2="748" y1="39" y2="39"/><line style="stroke:#181818;stroke-width:0.5;" x1="516" x2="748" y1="47" y2="47"/><text fill="#000000" font-family="sans-serif" font-size="14" lengthAdjust="spacing" textLength="181" x="521" y="65.5332">-Repositories(): Repositories</text><text fill="#000000" font-family="sans-serif" font-size="14" lengthAdjust="spacing" textLength="182" x="521" y="83.1426">+getInstance() : Repositories</text><text fill="#000000" font-family="sans-serif" font-size="14" lengthAdjust="spacing" textLength="222" x="521" y="100.752">+getSkillRepository() : Repositories</text></g><!--class SkillRepository--><g id="elem_SkillRepository"><rect codeLine="27" fill="#F1F1F1" height="65.6094" id="SkillRepository" rx="2.5" ry="2.5" style="stroke:#181818;stroke-width:0.5;" width="125" x="384.5" y="248"/><ellipse cx="399.5" cy="264" fill="#ADD1B2" rx="11" ry="11" style="stroke:#181818;stroke-width:1.0;"/><path d="M402.2656,259.875 Q402.4219,259.6563 402.6094,259.5469 Q402.7969,259.4375 403.0156,259.4375 Q403.3906,259.4375 403.625,259.7031 Q403.8594,259.9531 403.8594,260.5625 L403.8594,262.0156 Q403.8594,262.625 403.625,262.8906 Q403.3906,263.1563 403.0156,263.1563 Q402.6719,263.1563 402.4688,262.9531 Q402.2656,262.7656 402.1563,262.25 Q402.1094,261.8906 401.9219,261.7031 Q401.5938,261.3281 400.9844,261.1094 Q400.375,260.8906 399.75,260.8906 Q398.9844,260.8906 398.3438,261.2188 Q397.7188,261.5469 397.2188,262.2969 Q396.7344,263.0469 396.7344,264.0781 L396.7344,265.1719 Q396.7344,266.4063 397.625,267.2344 Q398.5156,268.0469 400.1094,268.0469 Q401.0469,268.0469 401.7031,267.7969 Q402.0938,267.6406 402.5156,267.2031 Q402.7813,266.9375 402.9219,266.8594 Q403.0781,266.7813 403.2813,266.7813 Q403.6094,266.7813 403.8594,267.0469 Q404.125,267.2969 404.125,267.6406 Q404.125,267.9844 403.7813,268.3906 Q403.2813,268.9688 402.4844,269.2969 Q401.4063,269.75 400.1094,269.75 Q398.5938,269.75 397.3906,269.125 Q396.4063,268.625 395.7188,267.5625 Q395.0313,266.4844 395.0313,265.2031 L395.0313,264.0469 Q395.0313,262.7188 395.6406,261.5781 Q396.2656,260.4219 397.3594,259.8125 Q398.4531,259.1875 399.6875,259.1875 Q400.4219,259.1875 401.0625,259.3594 Q401.7188,259.5156 402.2656,259.875 Z " fill="#000000"/><text fill="#000000" font-family="sans-serif" font-size="14" lengthAdjust="spacing" textLength="93" x="413.5" y="269.7285">SkillRepository</text><line style="stroke:#181818;stroke-width:0.5;" x1="385.5" x2="508.5" y1="280" y2="280"/><line style="stroke:#181818;stroke-width:0.5;" x1="385.5" x2="508.5" y1="288" y2="288"/><text fill="#000000" font-family="sans-serif" font-size="14" lengthAdjust="spacing" textLength="66" x="390.5" y="306.5332">+register()</text></g><!--class Skill--><g id="elem_Skill"><rect codeLine="31" fill="#F1F1F1" height="83.2188" id="Skill" rx="2.5" ry="2.5" style="stroke:#181818;stroke-width:0.5;" width="101" x="396.5" y="516"/><ellipse cx="431.3" cy="532" fill="#ADD1B2" rx="11" ry="11" style="stroke:#181818;stroke-width:1.0;"/><path d="M434.0656,527.875 Q434.2219,527.6563 434.4094,527.5469 Q434.5969,527.4375 434.8156,527.4375 Q435.1906,527.4375 435.425,527.7031 Q435.6594,527.9531 435.6594,528.5625 L435.6594,530.0156 Q435.6594,530.625 435.425,530.8906 Q435.1906,531.1563 434.8156,531.1563 Q434.4719,531.1563 434.2688,530.9531 Q434.0656,530.7656 433.9563,530.25 Q433.9094,529.8906 433.7219,529.7031 Q433.3938,529.3281 432.7844,529.1094 Q432.175,528.8906 431.55,528.8906 Q430.7844,528.8906 430.1438,529.2188 Q429.5188,529.5469 429.0188,530.2969 Q428.5344,531.0469 428.5344,532.0781 L428.5344,533.1719 Q428.5344,534.4063 429.425,535.2344 Q430.3156,536.0469 431.9094,536.0469 Q432.8469,536.0469 433.5031,535.7969 Q433.8938,535.6406 434.3156,535.2031 Q434.5813,534.9375 434.7219,534.8594 Q434.8781,534.7813 435.0813,534.7813 Q435.4094,534.7813 435.6594,535.0469 Q435.925,535.2969 435.925,535.6406 Q435.925,535.9844 435.5813,536.3906 Q435.0813,536.9688 434.2844,537.2969 Q433.2063,537.75 431.9094,537.75 Q430.3938,537.75 429.1906,537.125 Q428.2063,536.625 427.5188,535.5625 Q426.8313,534.4844 426.8313,533.2031 L426.8313,532.0469 Q426.8313,530.7188 427.4406,529.5781 Q428.0656,528.4219 429.1594,527.8125 Q430.2531,527.1875 431.4875,527.1875 Q432.2219,527.1875 432.8625,527.3594 Q433.5188,527.5156 434.0656,527.875 Z " fill="#000000"/><text fill="#000000" font-family="sans-serif" font-size="14" lengthAdjust="spacing" textLength="25" x="449.7" y="537.7285">Skill</text><line style="stroke:#181818;stroke-width:0.5;" x1="397.5" x2="496.5" y1="548" y2="548"/><text fill="#000000" font-family="sans-serif" font-size="14" lengthAdjust="spacing" textLength="89" x="402.5" y="566.5332">-name : String</text><line style="stroke:#181818;stroke-width:0.5;" x1="397.5" x2="496.5" y1="573.6094" y2="573.6094"/><text fill="#000000" font-family="sans-serif" font-size="14" lengthAdjust="spacing" textLength="78" x="402.5" y="592.1426">+Skill(name)</text></g><!--link RegisterSkillUI to RegisterSkillController--><g id="link_RegisterSkillUI_RegisterSkillController"><path codeLine="36" d="M129.22,57.5 C136.46,57.5 141.33,57.5 141.33,57.5 C141.33,57.5 148.79,57.5 158.95,57.5 " fill="none" id="RegisterSkillUI-to-RegisterSkillController" style="stroke:#181818;stroke-width:1.0;stroke-dasharray:7.0,7.0;"/><polygon fill="#181818" points="164.13,57.5,155.13,53.5,159.13,57.5,155.13,61.5,164.13,57.5" style="stroke:#181818;stroke-width:1.0;"/></g><!--link RegisterSkillController to Repositories--><g id="link_RegisterSkillController_Repositories"><path codeLine="37" d="M411.71,57.5 C443.61,57.5 477.93,57.5 509.76,57.5 " fill="none" id="RegisterSkillController-to-Repositories" style="stroke:#181818;stroke-width:1.0;stroke-dasharray:7.0,7.0;"/><polygon fill="#181818" points="514.85,57.5,505.85,53.5,509.85,57.5,505.85,61.5,514.85,57.5" style="stroke:#181818;stroke-width:1.0;"/><text fill="#000000" font-family="sans-serif" font-size="13" lengthAdjust="spacing" textLength="67" x="429.75" y="50.9951">repositories</text></g><!--link Repositories to SkillRepository--><g id="link_Repositories_SkillRepository"><path codeLine="38" d="M590.13,108.25 C565.44,137.58 539,169 539,169 C539,169 503.71,211.58 476.84,244 " fill="none" id="Repositories-to-SkillRepository" style="stroke:#181818;stroke-width:1.0;"/><polygon fill="#181818" points="473.61,247.89,482.4254,243.498,476.794,244.0349,476.2572,238.4036,473.61,247.89" style="stroke:#181818;stroke-width:1.0;"/><text fill="#000000" font-family="sans-serif" font-size="13" lengthAdjust="spacing" textLength="85" x="540" y="183.4951">skillRepository</text><text fill="#000000" font-family="sans-serif" font-size="13" lengthAdjust="spacing" textLength="7" x="471.3764" y="236.9827">1</text></g><!--link Repositories to Repositories--><g id="link_Repositories_Repositories"><path codeLine="39" d="M749.27,43.44 C769.75,45.31 784,50 784,57.5 C784,64.36 772.09,68.86 754.4,71.02 " fill="none" id="Repositories-to-Repositories" style="stroke:#181818;stroke-width:1.0;"/><polygon fill="#181818" points="749.27,71.56,758.6425,74.586,754.242,71.0314,757.7967,66.6309,749.27,71.56" style="stroke:#181818;stroke-width:1.0;"/><text fill="#000000" font-family="sans-serif" font-size="13" lengthAdjust="spacing" textLength="49" x="790" y="62.9951">instance</text></g><!--link Repositories to Skill--><g id="link_Repositories_Skill"><path codeLine="40" d="M640.37,108.07 C645.85,140.54 652,177 652,177 C652,177 652,177 652,455 C652,455 563.07,499.03 502.36,529.09 " fill="none" id="Repositories-to-Skill" style="stroke:#181818;stroke-width:1.0;"/><polygon fill="#181818" points="497.67,531.41,507.5109,531.0131,502.1535,529.1968,503.9697,523.8395,497.67,531.41" style="stroke:#181818;stroke-width:1.0;"/><text fill="#000000" font-family="sans-serif" font-size="13" lengthAdjust="spacing" textLength="7" x="634.0244" y="129.4706">1</text><text fill="#000000" font-family="sans-serif" font-size="13" lengthAdjust="spacing" textLength="5" x="505.4793" y="523.9079">*</text></g><!--link SkillRepository to Skill--><g id="link_SkillRepository_Skill"><path codeLine="42" d="M447,314.03 C447,362.53 447,454.84 447,510.51 " fill="none" id="SkillRepository-to-Skill" style="stroke:#181818;stroke-width:1.0;"/><polygon fill="#181818" points="447,515.78,451,506.78,447,510.78,443,506.78,447,515.78" style="stroke:#181818;stroke-width:1.0;"/><text fill="#000000" font-family="sans-serif" font-size="13" lengthAdjust="spacing" textLength="5" x="441.5859" y="505.0512">*</text></g><!--link RegisterSkillController to Skill--><g id="link_RegisterSkillController_Skill"><path codeLine="43" d="M280.77,99.28 C274.7,133.56 267,177 267,177 C267,177 267,177 267,455 C267,455 339.03,495.62 391.96,525.47 " fill="none" id="RegisterSkillController-to-Skill" style="stroke:#181818;stroke-width:1.0;stroke-dasharray:7.0,7.0;"/><polygon fill="#181818" points="396.38,527.96,390.5166,520.0467,392.0283,525.4978,386.5771,527.0095,396.38,527.96" style="stroke:#181818;stroke-width:1.0;"/><text fill="#000000" font-family="sans-serif" font-size="13" lengthAdjust="spacing" textLength="23" x="268" y="358.4951">skill</text></g><!--link RegisterSkillController to SkillRepository--><g id="link_RegisterSkillController_SkillRepository"><path codeLine="44" d="M317.16,99.13 C346.83,140.46 392.39,203.93 420.9,243.65 " fill="none" id="RegisterSkillController-to-SkillRepository" style="stroke:#181818;stroke-width:1.0;stroke-dasharray:7.0,7.0;"/><polygon fill="#181818" points="423.95,247.89,421.9642,238.2434,421.0398,243.8242,415.459,242.8998,423.95,247.89" style="stroke:#181818;stroke-width:1.0;"/><text fill="#000000" font-family="sans-serif" font-size="13" lengthAdjust="spacing" textLength="85" x="381" y="183.4951">skillRepository</text><text fill="#000000" font-family="sans-serif" font-size="13" lengthAdjust="spacing" textLength="7" x="411.4741" y="236.9827">1</text></g><!--SRC=[ZL3BRi8m4BpxArPSI8eIjLSEaIfEN8dw0IOiniNnHlQYAaNyUvCGb3WyLD-yCxlpcFkZjfLqieIIB1K7HoK2knEA0QbaSPGASwuDWiE2fLLcJF07kQCVRHNifV5Zn6YBN5S85Pcw_OZv0v0SanXj5KPw_ydizFR4k2x8vleNuLs8kS4z0nCuhGuCEztQqMI5w7PWWqfxHfSVjJ5VwxEuY8VGYYmxCWRTMG30OkLGCawWw9ks6wp8QoPNnntHZQz4LfROp2-3Hi_MwA6x34amZE9byEye2r38Q-kRNWkCOdX6wJG7G_VC8Uo4sdjPmCr-58jBmEtDje6QgtbJlLNNdN7IPcVICAJPisR5apcaQUgoiAjbusmK9C2I9CbWzZ6x2xK47qucUtSQkkyuvBMdEuctNaA8gL88lyZLl0okj9kzL_J_vle3]--></g></svg>