<?xml version="1.0" encoding="UTF-8" standalone="no"?><svg xmlns="http://www.w3.org/2000/svg" xmlns:xlink="http://www.w3.org/1999/xlink" contentStyleType="text/css" height="560px" preserveAspectRatio="none" style="width:1024px;height:560px;background:#FFFFFF;" version="1.1" viewBox="0 0 1024 560" width="1024px" zoomAndPan="magnify"><defs/><g><!--class GenarateTeamUI--><g id="elem_GenarateTeamUI"><rect codeLine="10" fill="#F1F1F1" height="48" id="GenarateTeamUI" rx="2.5" ry="2.5" style="stroke:#181818;stroke-width:0.5;" width="140" x="7" y="42"/><ellipse cx="22" cy="58" fill="#ADD1B2" rx="11" ry="11" style="stroke:#181818;stroke-width:1.0;"/><path d="M24.7656,53.875 Q24.9219,53.6563 25.1094,53.5469 Q25.2969,53.4375 25.5156,53.4375 Q25.8906,53.4375 26.125,53.7031 Q26.3594,53.9531 26.3594,54.5625 L26.3594,56.0156 Q26.3594,56.625 26.125,56.8906 Q25.8906,57.1563 25.5156,57.1563 Q25.1719,57.1563 24.9688,56.9531 Q24.7656,56.7656 24.6563,56.25 Q24.6094,55.8906 24.4219,55.7031 Q24.0938,55.3281 23.4844,55.1094 Q22.875,54.8906 22.25,54.8906 Q21.4844,54.8906 20.8438,55.2188 Q20.2188,55.5469 19.7188,56.2969 Q19.2344,57.0469 19.2344,58.0781 L19.2344,59.1719 Q19.2344,60.4063 20.125,61.2344 Q21.0156,62.0469 22.6094,62.0469 Q23.5469,62.0469 24.2031,61.7969 Q24.5938,61.6406 25.0156,61.2031 Q25.2813,60.9375 25.4219,60.8594 Q25.5781,60.7813 25.7813,60.7813 Q26.1094,60.7813 26.3594,61.0469 Q26.625,61.2969 26.625,61.6406 Q26.625,61.9844 26.2813,62.3906 Q25.7813,62.9688 24.9844,63.2969 Q23.9063,63.75 22.6094,63.75 Q21.0938,63.75 19.8906,63.125 Q18.9063,62.625 18.2188,61.5625 Q17.5313,60.4844 17.5313,59.2031 L17.5313,58.0469 Q17.5313,56.7188 18.1406,55.5781 Q18.7656,54.4219 19.8594,53.8125 Q20.9531,53.1875 22.1875,53.1875 Q22.9219,53.1875 23.5625,53.3594 Q24.2188,53.5156 24.7656,53.875 Z " fill="#000000"/><text fill="#000000" font-family="sans-serif" font-size="14" lengthAdjust="spacing" textLength="108" x="36" y="63.7285">GenarateTeamUI</text><line style="stroke:#181818;stroke-width:0.5;" x1="8" x2="146" y1="74" y2="74"/><line style="stroke:#181818;stroke-width:0.5;" x1="8" x2="146" y1="82" y2="82"/></g><!--class GenarateTeamController--><g id="elem_GenarateTeamController"><rect codeLine="13" fill="#F1F1F1" height="100.8281" id="GenarateTeamController" rx="2.5" ry="2.5" style="stroke:#181818;stroke-width:0.5;" width="434" x="182" y="15.5"/><ellipse cx="315.75" cy="31.5" fill="#ADD1B2" rx="11" ry="11" style="stroke:#181818;stroke-width:1.0;"/><path d="M318.5156,27.375 Q318.6719,27.1563 318.8594,27.0469 Q319.0469,26.9375 319.2656,26.9375 Q319.6406,26.9375 319.875,27.2031 Q320.1094,27.4531 320.1094,28.0625 L320.1094,29.5156 Q320.1094,30.125 319.875,30.3906 Q319.6406,30.6563 319.2656,30.6563 Q318.9219,30.6563 318.7188,30.4531 Q318.5156,30.2656 318.4063,29.75 Q318.3594,29.3906 318.1719,29.2031 Q317.8438,28.8281 317.2344,28.6094 Q316.625,28.3906 316,28.3906 Q315.2344,28.3906 314.5938,28.7188 Q313.9688,29.0469 313.4688,29.7969 Q312.9844,30.5469 312.9844,31.5781 L312.9844,32.6719 Q312.9844,33.9063 313.875,34.7344 Q314.7656,35.5469 316.3594,35.5469 Q317.2969,35.5469 317.9531,35.2969 Q318.3438,35.1406 318.7656,34.7031 Q319.0313,34.4375 319.1719,34.3594 Q319.3281,34.2813 319.5313,34.2813 Q319.8594,34.2813 320.1094,34.5469 Q320.375,34.7969 320.375,35.1406 Q320.375,35.4844 320.0313,35.8906 Q319.5313,36.4688 318.7344,36.7969 Q317.6563,37.25 316.3594,37.25 Q314.8438,37.25 313.6406,36.625 Q312.6563,36.125 311.9688,35.0625 Q311.2813,33.9844 311.2813,32.7031 L311.2813,31.5469 Q311.2813,30.2188 311.8906,29.0781 Q312.5156,27.9219 313.6094,27.3125 Q314.7031,26.6875 315.9375,26.6875 Q316.6719,26.6875 317.3125,26.8594 Q317.9688,27.0156 318.5156,27.375 Z " fill="#000000"/><text fill="#000000" font-family="sans-serif" font-size="14" lengthAdjust="spacing" textLength="158" x="336.25" y="37.2285">GenarateTeamController</text><line style="stroke:#181818;stroke-width:0.5;" x1="183" x2="615" y1="47.5" y2="47.5"/><line style="stroke:#181818;stroke-width:0.5;" x1="183" x2="615" y1="55.5" y2="55.5"/><text fill="#000000" font-family="sans-serif" font-size="14" lengthAdjust="spacing" textLength="422" x="188" y="74.0332">+GenarateTeamController(collaboratorRepository,teamRepository)</text><text fill="#000000" font-family="sans-serif" font-size="14" lengthAdjust="spacing" textLength="168" x="188" y="91.6426">+getTeamCharacteristics()</text><text fill="#000000" font-family="sans-serif" font-size="14" lengthAdjust="spacing" textLength="125" x="188" y="109.252">+createTeam(team)</text></g><!--class Repositories--><g id="elem_Repositories"><rect codeLine="20" fill="#F1F1F1" height="118.4375" id="Repositories" rx="2.5" ry="2.5" style="stroke:#181818;stroke-width:0.5;" width="196" x="720" y="7"/><ellipse cx="774.25" cy="23" fill="#ADD1B2" rx="11" ry="11" style="stroke:#181818;stroke-width:1.0;"/><path d="M777.0156,18.875 Q777.1719,18.6563 777.3594,18.5469 Q777.5469,18.4375 777.7656,18.4375 Q778.1406,18.4375 778.375,18.7031 Q778.6094,18.9531 778.6094,19.5625 L778.6094,21.0156 Q778.6094,21.625 778.375,21.8906 Q778.1406,22.1563 777.7656,22.1563 Q777.4219,22.1563 777.2188,21.9531 Q777.0156,21.7656 776.9063,21.25 Q776.8594,20.8906 776.6719,20.7031 Q776.3438,20.3281 775.7344,20.1094 Q775.125,19.8906 774.5,19.8906 Q773.7344,19.8906 773.0938,20.2188 Q772.4688,20.5469 771.9688,21.2969 Q771.4844,22.0469 771.4844,23.0781 L771.4844,24.1719 Q771.4844,25.4063 772.375,26.2344 Q773.2656,27.0469 774.8594,27.0469 Q775.7969,27.0469 776.4531,26.7969 Q776.8438,26.6406 777.2656,26.2031 Q777.5313,25.9375 777.6719,25.8594 Q777.8281,25.7813 778.0313,25.7813 Q778.3594,25.7813 778.6094,26.0469 Q778.875,26.2969 778.875,26.6406 Q778.875,26.9844 778.5313,27.3906 Q778.0313,27.9688 777.2344,28.2969 Q776.1563,28.75 774.8594,28.75 Q773.3438,28.75 772.1406,28.125 Q771.1563,27.625 770.4688,26.5625 Q769.7813,25.4844 769.7813,24.2031 L769.7813,23.0469 Q769.7813,21.7188 770.3906,20.5781 Q771.0156,19.4219 772.1094,18.8125 Q773.2031,18.1875 774.4375,18.1875 Q775.1719,18.1875 775.8125,18.3594 Q776.4688,18.5156 777.0156,18.875 Z " fill="#000000"/><text fill="#000000" font-family="sans-serif" font-size="14" lengthAdjust="spacing" textLength="79" x="794.75" y="28.7285">Repositories</text><line style="stroke:#181818;stroke-width:0.5;" x1="721" x2="915" y1="39" y2="39"/><line style="stroke:#181818;stroke-width:0.5;" x1="721" x2="915" y1="47" y2="47"/><text fill="#000000" font-family="sans-serif" font-size="14" lengthAdjust="spacing" textLength="94" x="726" y="65.5332">-Repositories()</text><text fill="#000000" font-family="sans-serif" font-size="14" lengthAdjust="spacing" textLength="182" x="726" y="83.1426">+getInstance() : Repositories</text><text fill="#000000" font-family="sans-serif" font-size="14" lengthAdjust="spacing" textLength="184" x="726" y="100.752">+getCollaboratorRepository()</text><text fill="#000000" font-family="sans-serif" font-size="14" lengthAdjust="spacing" textLength="142" x="726" y="118.3613">+getTeamRepository()</text></g><!--class CollaboratorRepository--><g id="elem_CollaboratorRepository"><rect codeLine="27" fill="#F1F1F1" height="65.6094" id="CollaboratorRepository" rx="2.5" ry="2.5" style="stroke:#181818;stroke-width:0.5;" width="203" x="503.5" y="220.5"/><ellipse cx="529.75" cy="236.5" fill="#ADD1B2" rx="11" ry="11" style="stroke:#181818;stroke-width:1.0;"/><path d="M532.5156,232.375 Q532.6719,232.1563 532.8594,232.0469 Q533.0469,231.9375 533.2656,231.9375 Q533.6406,231.9375 533.875,232.2031 Q534.1094,232.4531 534.1094,233.0625 L534.1094,234.5156 Q534.1094,235.125 533.875,235.3906 Q533.6406,235.6563 533.2656,235.6563 Q532.9219,235.6563 532.7188,235.4531 Q532.5156,235.2656 532.4063,234.75 Q532.3594,234.3906 532.1719,234.2031 Q531.8438,233.8281 531.2344,233.6094 Q530.625,233.3906 530,233.3906 Q529.2344,233.3906 528.5938,233.7188 Q527.9688,234.0469 527.4688,234.7969 Q526.9844,235.5469 526.9844,236.5781 L526.9844,237.6719 Q526.9844,238.9063 527.875,239.7344 Q528.7656,240.5469 530.3594,240.5469 Q531.2969,240.5469 531.9531,240.2969 Q532.3438,240.1406 532.7656,239.7031 Q533.0313,239.4375 533.1719,239.3594 Q533.3281,239.2813 533.5313,239.2813 Q533.8594,239.2813 534.1094,239.5469 Q534.375,239.7969 534.375,240.1406 Q534.375,240.4844 534.0313,240.8906 Q533.5313,241.4688 532.7344,241.7969 Q531.6563,242.25 530.3594,242.25 Q528.8438,242.25 527.6406,241.625 Q526.6563,241.125 525.9688,240.0625 Q525.2813,238.9844 525.2813,237.7031 L525.2813,236.5469 Q525.2813,235.2188 525.8906,234.0781 Q526.5156,232.9219 527.6094,232.3125 Q528.7031,231.6875 529.9375,231.6875 Q530.6719,231.6875 531.3125,231.8594 Q531.9688,232.0156 532.5156,232.375 Z " fill="#000000"/><text fill="#000000" font-family="sans-serif" font-size="14" lengthAdjust="spacing" textLength="146" x="546.25" y="242.2285">CollaboratorRepository</text><line style="stroke:#181818;stroke-width:0.5;" x1="504.5" x2="705.5" y1="252.5" y2="252.5"/><line style="stroke:#181818;stroke-width:0.5;" x1="504.5" x2="705.5" y1="260.5" y2="260.5"/><text fill="#000000" font-family="sans-serif" font-size="14" lengthAdjust="spacing" textLength="191" x="509.5" y="279.0332">+anyCollaboratorHasSkill(skill)</text></g><!--class TeamRepository--><g id="elem_TeamRepository"><rect codeLine="31" fill="#F1F1F1" height="83.2188" id="TeamRepository" rx="2.5" ry="2.5" style="stroke:#181818;stroke-width:0.5;" width="146" x="743" y="212"/><ellipse cx="762.5" cy="228" fill="#ADD1B2" rx="11" ry="11" style="stroke:#181818;stroke-width:1.0;"/><path d="M765.2656,223.875 Q765.4219,223.6563 765.6094,223.5469 Q765.7969,223.4375 766.0156,223.4375 Q766.3906,223.4375 766.625,223.7031 Q766.8594,223.9531 766.8594,224.5625 L766.8594,226.0156 Q766.8594,226.625 766.625,226.8906 Q766.3906,227.1563 766.0156,227.1563 Q765.6719,227.1563 765.4688,226.9531 Q765.2656,226.7656 765.1563,226.25 Q765.1094,225.8906 764.9219,225.7031 Q764.5938,225.3281 763.9844,225.1094 Q763.375,224.8906 762.75,224.8906 Q761.9844,224.8906 761.3438,225.2188 Q760.7188,225.5469 760.2188,226.2969 Q759.7344,227.0469 759.7344,228.0781 L759.7344,229.1719 Q759.7344,230.4063 760.625,231.2344 Q761.5156,232.0469 763.1094,232.0469 Q764.0469,232.0469 764.7031,231.7969 Q765.0938,231.6406 765.5156,231.2031 Q765.7813,230.9375 765.9219,230.8594 Q766.0781,230.7813 766.2813,230.7813 Q766.6094,230.7813 766.8594,231.0469 Q767.125,231.2969 767.125,231.6406 Q767.125,231.9844 766.7813,232.3906 Q766.2813,232.9688 765.4844,233.2969 Q764.4063,233.75 763.1094,233.75 Q761.5938,233.75 760.3906,233.125 Q759.4063,232.625 758.7188,231.5625 Q758.0313,230.4844 758.0313,229.2031 L758.0313,228.0469 Q758.0313,226.7188 758.6406,225.5781 Q759.2656,224.4219 760.3594,223.8125 Q761.4531,223.1875 762.6875,223.1875 Q763.4219,223.1875 764.0625,223.3594 Q764.7188,223.5156 765.2656,223.875 Z " fill="#000000"/><text fill="#000000" font-family="sans-serif" font-size="14" lengthAdjust="spacing" textLength="104" x="777.5" y="233.7285">TeamRepository</text><line style="stroke:#181818;stroke-width:0.5;" x1="744" x2="888" y1="244" y2="244"/><line style="stroke:#181818;stroke-width:0.5;" x1="744" x2="888" y1="252" y2="252"/><text fill="#000000" font-family="sans-serif" font-size="14" lengthAdjust="spacing" textLength="125" x="749" y="270.5332">+createTeam(team)</text><text fill="#000000" font-family="sans-serif" font-size="14" lengthAdjust="spacing" textLength="134" x="749" y="288.1426">+validateTeam(team)</text></g><!--class Collaborator--><g id="elem_Collaborator"><rect codeLine="36" fill="#F1F1F1" height="171.2656" id="Collaborator" rx="2.5" ry="2.5" style="stroke:#181818;stroke-width:0.5;" width="153" x="384.5" y="382"/><ellipse cx="418.85" cy="398" fill="#ADD1B2" rx="11" ry="11" style="stroke:#181818;stroke-width:1.0;"/><path d="M421.6156,393.875 Q421.7719,393.6563 421.9594,393.5469 Q422.1469,393.4375 422.3656,393.4375 Q422.7406,393.4375 422.975,393.7031 Q423.2094,393.9531 423.2094,394.5625 L423.2094,396.0156 Q423.2094,396.625 422.975,396.8906 Q422.7406,397.1563 422.3656,397.1563 Q422.0219,397.1563 421.8188,396.9531 Q421.6156,396.7656 421.5063,396.25 Q421.4594,395.8906 421.2719,395.7031 Q420.9438,395.3281 420.3344,395.1094 Q419.725,394.8906 419.1,394.8906 Q418.3344,394.8906 417.6938,395.2188 Q417.0688,395.5469 416.5688,396.2969 Q416.0844,397.0469 416.0844,398.0781 L416.0844,399.1719 Q416.0844,400.4063 416.975,401.2344 Q417.8656,402.0469 419.4594,402.0469 Q420.3969,402.0469 421.0531,401.7969 Q421.4438,401.6406 421.8656,401.2031 Q422.1313,400.9375 422.2719,400.8594 Q422.4281,400.7813 422.6313,400.7813 Q422.9594,400.7813 423.2094,401.0469 Q423.475,401.2969 423.475,401.6406 Q423.475,401.9844 423.1313,402.3906 Q422.6313,402.9688 421.8344,403.2969 Q420.7563,403.75 419.4594,403.75 Q417.9438,403.75 416.7406,403.125 Q415.7563,402.625 415.0688,401.5625 Q414.3813,400.4844 414.3813,399.2031 L414.3813,398.0469 Q414.3813,396.7188 414.9906,395.5781 Q415.6156,394.4219 416.7094,393.8125 Q417.8031,393.1875 419.0375,393.1875 Q419.7719,393.1875 420.4125,393.3594 Q421.0688,393.5156 421.6156,393.875 Z " fill="#000000"/><text fill="#000000" font-family="sans-serif" font-size="14" lengthAdjust="spacing" textLength="78" x="437.15" y="403.7285">Collaborator</text><line style="stroke:#181818;stroke-width:0.5;" x1="385.5" x2="536.5" y1="414" y2="414"/><text fill="#000000" font-family="sans-serif" font-size="14" lengthAdjust="spacing" textLength="81" x="390.5" y="432.5332">-String name</text><text fill="#000000" font-family="sans-serif" font-size="14" lengthAdjust="spacing" textLength="102" x="390.5" y="450.1426">-String birthdate</text><text fill="#000000" font-family="sans-serif" font-size="14" lengthAdjust="spacing" textLength="141" x="390.5" y="467.752">-String admission date</text><text fill="#000000" font-family="sans-serif" font-size="14" lengthAdjust="spacing" textLength="97" x="390.5" y="485.3613">-String address</text><text fill="#000000" font-family="sans-serif" font-size="14" lengthAdjust="spacing" textLength="79" x="390.5" y="502.9707">-String email</text><text fill="#000000" font-family="sans-serif" font-size="14" lengthAdjust="spacing" textLength="69" x="390.5" y="520.5801">-String skill</text><text fill="#000000" font-family="sans-serif" font-size="14" lengthAdjust="spacing" textLength="64" x="390.5" y="538.1895">-int phone</text><line style="stroke:#181818;stroke-width:0.5;" x1="385.5" x2="536.5" y1="545.2656" y2="545.2656"/></g><!--class Team--><g id="elem_Team"><rect codeLine="47" fill="#F1F1F1" height="65.6094" id="Team" rx="2.5" ry="2.5" style="stroke:#181818;stroke-width:0.5;" width="121" x="857.5" y="434.5"/><ellipse cx="896.35" cy="450.5" fill="#ADD1B2" rx="11" ry="11" style="stroke:#181818;stroke-width:1.0;"/><path d="M899.1156,446.375 Q899.2719,446.1563 899.4594,446.0469 Q899.6469,445.9375 899.8656,445.9375 Q900.2406,445.9375 900.475,446.2031 Q900.7094,446.4531 900.7094,447.0625 L900.7094,448.5156 Q900.7094,449.125 900.475,449.3906 Q900.2406,449.6563 899.8656,449.6563 Q899.5219,449.6563 899.3188,449.4531 Q899.1156,449.2656 899.0063,448.75 Q898.9594,448.3906 898.7719,448.2031 Q898.4438,447.8281 897.8344,447.6094 Q897.225,447.3906 896.6,447.3906 Q895.8344,447.3906 895.1938,447.7188 Q894.5688,448.0469 894.0688,448.7969 Q893.5844,449.5469 893.5844,450.5781 L893.5844,451.6719 Q893.5844,452.9063 894.475,453.7344 Q895.3656,454.5469 896.9594,454.5469 Q897.8969,454.5469 898.5531,454.2969 Q898.9438,454.1406 899.3656,453.7031 Q899.6313,453.4375 899.7719,453.3594 Q899.9281,453.2813 900.1313,453.2813 Q900.4594,453.2813 900.7094,453.5469 Q900.975,453.7969 900.975,454.1406 Q900.975,454.4844 900.6313,454.8906 Q900.1313,455.4688 899.3344,455.7969 Q898.2563,456.25 896.9594,456.25 Q895.4438,456.25 894.2406,455.625 Q893.2563,455.125 892.5688,454.0625 Q891.8813,452.9844 891.8813,451.7031 L891.8813,450.5469 Q891.8813,449.2188 892.4906,448.0781 Q893.1156,446.9219 894.2094,446.3125 Q895.3031,445.6875 896.5375,445.6875 Q897.2719,445.6875 897.9125,445.8594 Q898.5688,446.0156 899.1156,446.375 Z " fill="#000000"/><text fill="#000000" font-family="sans-serif" font-size="14" lengthAdjust="spacing" textLength="36" x="915.65" y="456.2285">Team</text><line style="stroke:#181818;stroke-width:0.5;" x1="858.5" x2="977.5" y1="466.5" y2="466.5"/><line style="stroke:#181818;stroke-width:0.5;" x1="858.5" x2="977.5" y1="474.5" y2="474.5"/><text fill="#000000" font-family="sans-serif" font-size="14" lengthAdjust="spacing" textLength="109" x="863.5" y="493.0332">+addTeam(team)</text></g><!--class HRM--><g id="elem_HRM"><rect codeLine="52" fill="#F1F1F1" height="100.8281" id="HRM" rx="2.5" ry="2.5" style="stroke:#181818;stroke-width:0.5;" width="93" x="924.5" y="203"/><ellipse cx="953.45" cy="219" fill="#ADD1B2" rx="11" ry="11" style="stroke:#181818;stroke-width:1.0;"/><path d="M956.2156,214.875 Q956.3719,214.6563 956.5594,214.5469 Q956.7469,214.4375 956.9656,214.4375 Q957.3406,214.4375 957.575,214.7031 Q957.8094,214.9531 957.8094,215.5625 L957.8094,217.0156 Q957.8094,217.625 957.575,217.8906 Q957.3406,218.1563 956.9656,218.1563 Q956.6219,218.1563 956.4188,217.9531 Q956.2156,217.7656 956.1063,217.25 Q956.0594,216.8906 955.8719,216.7031 Q955.5438,216.3281 954.9344,216.1094 Q954.325,215.8906 953.7,215.8906 Q952.9344,215.8906 952.2938,216.2188 Q951.6688,216.5469 951.1688,217.2969 Q950.6844,218.0469 950.6844,219.0781 L950.6844,220.1719 Q950.6844,221.4063 951.575,222.2344 Q952.4656,223.0469 954.0594,223.0469 Q954.9969,223.0469 955.6531,222.7969 Q956.0438,222.6406 956.4656,222.2031 Q956.7313,221.9375 956.8719,221.8594 Q957.0281,221.7813 957.2313,221.7813 Q957.5594,221.7813 957.8094,222.0469 Q958.075,222.2969 958.075,222.6406 Q958.075,222.9844 957.7313,223.3906 Q957.2313,223.9688 956.4344,224.2969 Q955.3563,224.75 954.0594,224.75 Q952.5438,224.75 951.3406,224.125 Q950.3563,223.625 949.6688,222.5625 Q948.9813,221.4844 948.9813,220.2031 L948.9813,219.0469 Q948.9813,217.7188 949.5906,216.5781 Q950.2156,215.4219 951.3094,214.8125 Q952.4031,214.1875 953.6375,214.1875 Q954.3719,214.1875 955.0125,214.3594 Q955.6688,214.5156 956.2156,214.875 Z " fill="#000000"/><text fill="#000000" font-family="sans-serif" font-size="14" lengthAdjust="spacing" textLength="30" x="970.55" y="224.7285">HRM</text><line style="stroke:#181818;stroke-width:0.5;" x1="925.5" x2="1016.5" y1="235" y2="235"/><text fill="#000000" font-family="sans-serif" font-size="14" lengthAdjust="spacing" textLength="81" x="930.5" y="253.5332">-String name</text><text fill="#000000" font-family="sans-serif" font-size="14" lengthAdjust="spacing" textLength="79" x="930.5" y="271.1426">-String email</text><text fill="#000000" font-family="sans-serif" font-size="14" lengthAdjust="spacing" textLength="64" x="930.5" y="288.752">-int phone</text><line style="stroke:#181818;stroke-width:0.5;" x1="925.5" x2="1016.5" y1="295.8281" y2="295.8281"/></g><!--link Repositories to Repositories--><g id="link_Repositories_Repositories"><path codeLine="67" d="M916.02,48.27 C936.37,50.14 951,56.05 951,66 C951,75.1 938.77,80.82 921.13,83.16 " fill="none" id="Repositories-to-Repositories" style="stroke:#181818;stroke-width:1.0;"/><polygon fill="#181818" points="916.02,83.73,925.4104,86.6998,920.9887,83.1716,924.5169,78.7498,916.02,83.73" style="stroke:#181818;stroke-width:1.0;"/><text fill="#000000" font-family="sans-serif" font-size="13" lengthAdjust="spacing" textLength="49" x="957" y="71.4951">instance</text></g><!--link GenarateTeamUI to GenarateTeamController--><g id="link_GenarateTeamUI_GenarateTeamController"><path codeLine="68" d="M147.09,66 C159.03,66 169.77,66 176.61,66 " fill="none" id="GenarateTeamUI-to-GenarateTeamController" style="stroke:#181818;stroke-width:1.0;stroke-dasharray:7.0,7.0;"/><polygon fill="#181818" points="181.73,66,172.73,62,176.73,66,172.73,70,181.73,66" style="stroke:#181818;stroke-width:1.0;"/></g><!--link GenarateTeamController to Repositories--><g id="link_GenarateTeamController_Repositories"><path codeLine="69" d="M616.17,66 C650.49,66 684.53,66 714.61,66 " fill="none" id="GenarateTeamController-to-Repositories" style="stroke:#181818;stroke-width:1.0;stroke-dasharray:7.0,7.0;"/><polygon fill="#181818" points="719.79,66,710.79,62,714.79,66,710.79,70,719.79,66" style="stroke:#181818;stroke-width:1.0;"/><text fill="#000000" font-family="sans-serif" font-size="13" lengthAdjust="spacing" textLength="67" x="634.5" y="59.4951">repositories</text></g><!--link Repositories to CollaboratorRepository--><g id="link_Repositories_CollaboratorRepository"><path codeLine="70" d="M780.07,125.27 C764.04,149.9 749,173 749,173 C749,173 706.63,196.39 667.86,217.79 " fill="none" id="Repositories-to-CollaboratorRepository" style="stroke:#181818;stroke-width:1.0;"/><polygon fill="#181818" points="663.16,220.39,672.9733,219.5539,667.5402,217.9788,669.1153,212.5456,663.16,220.39" style="stroke:#181818;stroke-width:1.0;"/><text fill="#000000" font-family="sans-serif" font-size="13" lengthAdjust="spacing" textLength="7" x="667.4336" y="209.4827">1</text></g><!--link GenarateTeamController to Collaborator--><g id="link_GenarateTeamController_Collaborator"><path codeLine="71" d="M402.77,116.68 C408.05,186.18 417,304 417,304 C417,304 426.53,339.2 436.72,376.84 " fill="none" id="GenarateTeamController-to-Collaborator" style="stroke:#181818;stroke-width:1.0;stroke-dasharray:7.0,7.0;"/><polygon fill="#181818" points="438.1,381.92,439.5959,372.1854,436.7868,377.0955,431.8767,374.2865,438.1,381.92" style="stroke:#181818;stroke-width:1.0;"/><text fill="#000000" font-family="sans-serif" font-size="13" lengthAdjust="spacing" textLength="67" x="418" y="258.9951">collaborator</text></g><!--link GenarateTeamController to TeamRepository--><g id="link_GenarateTeamController_TeamRepository"><path codeLine="72" d="M517.71,116.68 C610.55,155.53 724,203 724,203 C724,203 729.68,206.05 738.21,210.65 " fill="none" id="GenarateTeamController-to-TeamRepository" style="stroke:#181818;stroke-width:1.0;stroke-dasharray:7.0,7.0;"/><polygon fill="#181818" points="742.62,213.02,736.5756,205.2441,738.2126,210.6589,732.7978,212.2959,742.62,213.02" style="stroke:#181818;stroke-width:1.0;"/><text fill="#000000" font-family="sans-serif" font-size="13" lengthAdjust="spacing" textLength="91" x="646" y="169.4951">teamRepository</text></g><!--link GenarateTeamController to CollaboratorRepository--><g id="link_GenarateTeamController_CollaboratorRepository"><path codeLine="73" d="M434.08,116.59 C453.6,144.17 474,173 474,173 C474,173 512.54,196.39 547.81,217.79 " fill="none" id="GenarateTeamController-to-CollaboratorRepository" style="stroke:#181818;stroke-width:1.0;stroke-dasharray:7.0,7.0;"/><polygon fill="#181818" points="552.09,220.39,546.47,212.302,547.8152,217.7966,542.3206,219.1417,552.09,220.39" style="stroke:#181818;stroke-width:1.0;"/><text fill="#000000" font-family="sans-serif" font-size="13" lengthAdjust="spacing" textLength="129" x="475" y="169.4951">collaboratorRepository</text></g><!--link Repositories to TeamRepository--><g id="link_Repositories_TeamRepository"><path codeLine="74" d="M817.37,125.18 C817.09,151.47 816.76,182.08 816.49,206.7 " fill="none" id="Repositories-to-TeamRepository" style="stroke:#181818;stroke-width:1.0;"/><polygon fill="#181818" points="816.44,211.86,820.5426,202.9063,816.4971,206.8603,812.5431,202.8149,816.44,211.86" style="stroke:#181818;stroke-width:1.0;"/><text fill="#000000" font-family="sans-serif" font-size="13" lengthAdjust="spacing" textLength="7" x="808.9332" y="201.1445">1</text></g><!--link CollaboratorRepository to Collaborator--><g id="link_CollaboratorRepository_Collaborator"><path codeLine="75" d="M583.13,286.7 C566.71,310.86 543.4,345.19 521.53,377.39 " fill="none" id="CollaboratorRepository-to-Collaborator" style="stroke:#181818;stroke-width:1.0;"/><polygon fill="#181818" points="518.59,381.71,526.9521,376.5066,521.3965,377.5719,520.3311,372.0163,518.59,381.71" style="stroke:#181818;stroke-width:1.0;"/><text fill="#000000" font-family="sans-serif" font-size="13" lengthAdjust="spacing" textLength="7" x="571.611" y="307.6">1</text><text fill="#000000" font-family="sans-serif" font-size="13" lengthAdjust="spacing" textLength="5" x="518.3243" y="371.1487">*</text></g><!--link TeamRepository to Team--><g id="link_TeamRepository_Team"><path codeLine="76" d="M835.67,295.38 C854.34,334.18 882.16,392 900.19,429.48 " fill="none" id="TeamRepository-to-Team" style="stroke:#181818;stroke-width:1.0;"/><polygon fill="#181818" points="902.56,434.4,902.2634,424.5556,900.3926,429.8942,895.0541,428.0234,902.56,434.4" style="stroke:#181818;stroke-width:1.0;"/><text fill="#000000" font-family="sans-serif" font-size="13" lengthAdjust="spacing" textLength="7" x="831.2471" y="316.8353">1</text><text fill="#000000" font-family="sans-serif" font-size="13" lengthAdjust="spacing" textLength="5" x="893.8599" y="423.4948">*</text></g><!--link HRM to Team--><g id="link_HRM_Team"><path codeLine="77" d="M958.57,304.2 C949.01,342.47 936,394.51 927.31,429.24 " fill="none" id="HRM-to-Team" style="stroke:#181818;stroke-width:1.0;"/><polygon fill="#181818" points="926.07,434.24,932.1334,426.4789,927.2827,429.3893,924.3723,424.5386,926.07,434.24" style="stroke:#181818;stroke-width:1.0;"/><text fill="#000000" font-family="sans-serif" font-size="13" lengthAdjust="spacing" textLength="60" x="951" y="348.4951">Generates</text></g><!--SRC=[ZLDDRzim3BthLn2zn5dMOhlcKA3eOSrXbwRx0OhCsa9aoP3O5Uwm_pxAzMB97qLzi2sIx_6HUDg4ixQjzBA1nbcdQkyQ1F8lACPCAzLPLdYapY1uL2HjPTA2KClIlMfRmRCq8SqORP6w5g5rfei7iLb8EazE92XbP0XtH5wVNWWFojcZVaFu9iJ6u3C1EV2wgWbA7ULePqKFWHzecO3m2MNpwm1_n5-naBbtbhmp1ZrNx9OpXUAFF3dEEF-8hGkQVxgln5NZSIjs5LAFh9b44NeTIAjGS4Pv76YBYDf6COEQ2uF6m1g0d-iioFWOt07J7spWZIiijh3FYiQI-qMnASbJfhlOZfjPnWwgTY1jbrOyo70yQsEA4Dy9JTxW0fyjuJtyMnfTphOp5tHPpf7DmFwoii4ySjAUwaYLXsNPw13O6R2KAps6a0UnaThaeNx48QGjGLixDd0-CXk8wP8nnlJ3uyzU_Kpyl6VA7rto_ybySdsR-sRFe7TdY8dlRsvN_2vMhi7DZDgdFflAkFf-jMARrGRS8KNi8RrV7w4cljf3VWC_sp2ZMBxRap67EVF-OeKpLlQ8B_bcn4H-MXTJWatI1-A1bV4q6AS9_m00]--></g></svg>