<?xml version="1.0" encoding="UTF-8" standalone="no"?><svg xmlns="http://www.w3.org/2000/svg" xmlns:xlink="http://www.w3.org/1999/xlink" contentStyleType="text/css" height="560px" preserveAspectRatio="none" style="width:1180px;height:560px;background:#FFFFFF;" version="1.1" viewBox="0 0 1180 560" width="1180px" zoomAndPan="magnify"><defs/><g><!--class GenarateTeamUI--><g id="elem_GenarateTeamUI"><rect codeLine="10" fill="#F1F1F1" height="48" id="GenarateTeamUI" rx="2.5" ry="2.5" style="stroke:#181818;stroke-width:0.5;" width="140" x="7" y="51"/><ellipse cx="22" cy="67" fill="#ADD1B2" rx="11" ry="11" style="stroke:#181818;stroke-width:1.0;"/><path d="M24.7656,62.875 Q24.9219,62.6563 25.1094,62.5469 Q25.2969,62.4375 25.5156,62.4375 Q25.8906,62.4375 26.125,62.7031 Q26.3594,62.9531 26.3594,63.5625 L26.3594,65.0156 Q26.3594,65.625 26.125,65.8906 Q25.8906,66.1563 25.5156,66.1563 Q25.1719,66.1563 24.9688,65.9531 Q24.7656,65.7656 24.6563,65.25 Q24.6094,64.8906 24.4219,64.7031 Q24.0938,64.3281 23.4844,64.1094 Q22.875,63.8906 22.25,63.8906 Q21.4844,63.8906 20.8438,64.2188 Q20.2188,64.5469 19.7188,65.2969 Q19.2344,66.0469 19.2344,67.0781 L19.2344,68.1719 Q19.2344,69.4063 20.125,70.2344 Q21.0156,71.0469 22.6094,71.0469 Q23.5469,71.0469 24.2031,70.7969 Q24.5938,70.6406 25.0156,70.2031 Q25.2813,69.9375 25.4219,69.8594 Q25.5781,69.7813 25.7813,69.7813 Q26.1094,69.7813 26.3594,70.0469 Q26.625,70.2969 26.625,70.6406 Q26.625,70.9844 26.2813,71.3906 Q25.7813,71.9688 24.9844,72.2969 Q23.9063,72.75 22.6094,72.75 Q21.0938,72.75 19.8906,72.125 Q18.9063,71.625 18.2188,70.5625 Q17.5313,69.4844 17.5313,68.2031 L17.5313,67.0469 Q17.5313,65.7188 18.1406,64.5781 Q18.7656,63.4219 19.8594,62.8125 Q20.9531,62.1875 22.1875,62.1875 Q22.9219,62.1875 23.5625,62.3594 Q24.2188,62.5156 24.7656,62.875 Z " fill="#000000"/><text fill="#000000" font-family="sans-serif" font-size="14" lengthAdjust="spacing" textLength="108" x="36" y="72.7285">GenarateTeamUI</text><line style="stroke:#181818;stroke-width:0.5;" x1="8" x2="146" y1="83" y2="83"/><line style="stroke:#181818;stroke-width:0.5;" x1="8" x2="146" y1="91" y2="91"/></g><!--class GenarateTeamController--><g id="elem_GenarateTeamController"><rect codeLine="13" fill="#F1F1F1" height="118.4375" id="GenarateTeamController" rx="2.5" ry="2.5" style="stroke:#181818;stroke-width:0.5;" width="529" x="182.5" y="16"/><ellipse cx="363.75" cy="32" fill="#ADD1B2" rx="11" ry="11" style="stroke:#181818;stroke-width:1.0;"/><path d="M366.5156,27.875 Q366.6719,27.6563 366.8594,27.5469 Q367.0469,27.4375 367.2656,27.4375 Q367.6406,27.4375 367.875,27.7031 Q368.1094,27.9531 368.1094,28.5625 L368.1094,30.0156 Q368.1094,30.625 367.875,30.8906 Q367.6406,31.1563 367.2656,31.1563 Q366.9219,31.1563 366.7188,30.9531 Q366.5156,30.7656 366.4063,30.25 Q366.3594,29.8906 366.1719,29.7031 Q365.8438,29.3281 365.2344,29.1094 Q364.625,28.8906 364,28.8906 Q363.2344,28.8906 362.5938,29.2188 Q361.9688,29.5469 361.4688,30.2969 Q360.9844,31.0469 360.9844,32.0781 L360.9844,33.1719 Q360.9844,34.4063 361.875,35.2344 Q362.7656,36.0469 364.3594,36.0469 Q365.2969,36.0469 365.9531,35.7969 Q366.3438,35.6406 366.7656,35.2031 Q367.0313,34.9375 367.1719,34.8594 Q367.3281,34.7813 367.5313,34.7813 Q367.8594,34.7813 368.1094,35.0469 Q368.375,35.2969 368.375,35.6406 Q368.375,35.9844 368.0313,36.3906 Q367.5313,36.9688 366.7344,37.2969 Q365.6563,37.75 364.3594,37.75 Q362.8438,37.75 361.6406,37.125 Q360.6563,36.625 359.9688,35.5625 Q359.2813,34.4844 359.2813,33.2031 L359.2813,32.0469 Q359.2813,30.7188 359.8906,29.5781 Q360.5156,28.4219 361.6094,27.8125 Q362.7031,27.1875 363.9375,27.1875 Q364.6719,27.1875 365.3125,27.3594 Q365.9688,27.5156 366.5156,27.875 Z " fill="#000000"/><text fill="#000000" font-family="sans-serif" font-size="14" lengthAdjust="spacing" textLength="158" x="384.25" y="37.7285">GenarateTeamController</text><line style="stroke:#181818;stroke-width:0.5;" x1="183.5" x2="710.5" y1="48" y2="48"/><line style="stroke:#181818;stroke-width:0.5;" x1="183.5" x2="710.5" y1="56" y2="56"/><text fill="#000000" font-family="sans-serif" font-size="14" lengthAdjust="spacing" textLength="517" x="188.5" y="74.5332">+GenarateTeamController(skillRepository,collaboratorRepository,teamRepository)</text><text fill="#000000" font-family="sans-serif" font-size="14" lengthAdjust="spacing" textLength="85" x="188.5" y="92.1426">+getSkillList()</text><text fill="#000000" font-family="sans-serif" font-size="14" lengthAdjust="spacing" textLength="450" x="188.5" y="109.752">+generateTeamProposal(minTeamSize,maxTeamSize, selectedSkillList)</text><text fill="#000000" font-family="sans-serif" font-size="14" lengthAdjust="spacing" textLength="295" x="188.5" y="127.3613">+createTeam(collaboratorList,selectedSkillList)</text></g><!--class Repositories--><g id="elem_Repositories"><rect codeLine="21" fill="#F1F1F1" height="136.0469" id="Repositories" rx="2.5" ry="2.5" style="stroke:#181818;stroke-width:0.5;" width="196" x="815" y="7"/><ellipse cx="869.25" cy="23" fill="#ADD1B2" rx="11" ry="11" style="stroke:#181818;stroke-width:1.0;"/><path d="M872.0156,18.875 Q872.1719,18.6563 872.3594,18.5469 Q872.5469,18.4375 872.7656,18.4375 Q873.1406,18.4375 873.375,18.7031 Q873.6094,18.9531 873.6094,19.5625 L873.6094,21.0156 Q873.6094,21.625 873.375,21.8906 Q873.1406,22.1563 872.7656,22.1563 Q872.4219,22.1563 872.2188,21.9531 Q872.0156,21.7656 871.9063,21.25 Q871.8594,20.8906 871.6719,20.7031 Q871.3438,20.3281 870.7344,20.1094 Q870.125,19.8906 869.5,19.8906 Q868.7344,19.8906 868.0938,20.2188 Q867.4688,20.5469 866.9688,21.2969 Q866.4844,22.0469 866.4844,23.0781 L866.4844,24.1719 Q866.4844,25.4063 867.375,26.2344 Q868.2656,27.0469 869.8594,27.0469 Q870.7969,27.0469 871.4531,26.7969 Q871.8438,26.6406 872.2656,26.2031 Q872.5313,25.9375 872.6719,25.8594 Q872.8281,25.7813 873.0313,25.7813 Q873.3594,25.7813 873.6094,26.0469 Q873.875,26.2969 873.875,26.6406 Q873.875,26.9844 873.5313,27.3906 Q873.0313,27.9688 872.2344,28.2969 Q871.1563,28.75 869.8594,28.75 Q868.3438,28.75 867.1406,28.125 Q866.1563,27.625 865.4688,26.5625 Q864.7813,25.4844 864.7813,24.2031 L864.7813,23.0469 Q864.7813,21.7188 865.3906,20.5781 Q866.0156,19.4219 867.1094,18.8125 Q868.2031,18.1875 869.4375,18.1875 Q870.1719,18.1875 870.8125,18.3594 Q871.4688,18.5156 872.0156,18.875 Z " fill="#000000"/><text fill="#000000" font-family="sans-serif" font-size="14" lengthAdjust="spacing" textLength="79" x="889.75" y="28.7285">Repositories</text><line style="stroke:#181818;stroke-width:0.5;" x1="816" x2="1010" y1="39" y2="39"/><text fill="#000000" font-family="sans-serif" font-size="14" lengthAdjust="spacing" textLength="121" x="821" y="57.5332">+getSkillRepository</text><line style="stroke:#181818;stroke-width:0.5;" x1="816" x2="1010" y1="64.6094" y2="64.6094"/><text fill="#000000" font-family="sans-serif" font-size="14" lengthAdjust="spacing" textLength="94" x="821" y="83.1426">-Repositories()</text><text fill="#000000" font-family="sans-serif" font-size="14" lengthAdjust="spacing" textLength="182" x="821" y="100.752">+getInstance() : Repositories</text><text fill="#000000" font-family="sans-serif" font-size="14" lengthAdjust="spacing" textLength="184" x="821" y="118.3613">+getCollaboratorRepository()</text><text fill="#000000" font-family="sans-serif" font-size="14" lengthAdjust="spacing" textLength="142" x="821" y="135.9707">+getTeamRepository()</text></g><!--class SkillRepository--><g id="elem_SkillRepository"><rect codeLine="29" fill="#F1F1F1" height="65.6094" id="SkillRepository" rx="2.5" ry="2.5" style="stroke:#181818;stroke-width:0.5;" width="125" x="1048.5" y="229.5"/><ellipse cx="1063.5" cy="245.5" fill="#ADD1B2" rx="11" ry="11" style="stroke:#181818;stroke-width:1.0;"/><path d="M1066.2656,241.375 Q1066.4219,241.1563 1066.6094,241.0469 Q1066.7969,240.9375 1067.0156,240.9375 Q1067.3906,240.9375 1067.625,241.2031 Q1067.8594,241.4531 1067.8594,242.0625 L1067.8594,243.5156 Q1067.8594,244.125 1067.625,244.3906 Q1067.3906,244.6563 1067.0156,244.6563 Q1066.6719,244.6563 1066.4688,244.4531 Q1066.2656,244.2656 1066.1563,243.75 Q1066.1094,243.3906 1065.9219,243.2031 Q1065.5938,242.8281 1064.9844,242.6094 Q1064.375,242.3906 1063.75,242.3906 Q1062.9844,242.3906 1062.3438,242.7188 Q1061.7188,243.0469 1061.2188,243.7969 Q1060.7344,244.5469 1060.7344,245.5781 L1060.7344,246.6719 Q1060.7344,247.9063 1061.625,248.7344 Q1062.5156,249.5469 1064.1094,249.5469 Q1065.0469,249.5469 1065.7031,249.2969 Q1066.0938,249.1406 1066.5156,248.7031 Q1066.7813,248.4375 1066.9219,248.3594 Q1067.0781,248.2813 1067.2813,248.2813 Q1067.6094,248.2813 1067.8594,248.5469 Q1068.125,248.7969 1068.125,249.1406 Q1068.125,249.4844 1067.7813,249.8906 Q1067.2813,250.4688 1066.4844,250.7969 Q1065.4063,251.25 1064.1094,251.25 Q1062.5938,251.25 1061.3906,250.625 Q1060.4063,250.125 1059.7188,249.0625 Q1059.0313,247.9844 1059.0313,246.7031 L1059.0313,245.5469 Q1059.0313,244.2188 1059.6406,243.0781 Q1060.2656,241.9219 1061.3594,241.3125 Q1062.4531,240.6875 1063.6875,240.6875 Q1064.4219,240.6875 1065.0625,240.8594 Q1065.7188,241.0156 1066.2656,241.375 Z " fill="#000000"/><text fill="#000000" font-family="sans-serif" font-size="14" lengthAdjust="spacing" textLength="93" x="1077.5" y="251.2285">SkillRepository</text><line style="stroke:#181818;stroke-width:0.5;" x1="1049.5" x2="1172.5" y1="261.5" y2="261.5"/><line style="stroke:#181818;stroke-width:0.5;" x1="1049.5" x2="1172.5" y1="269.5" y2="269.5"/><text fill="#000000" font-family="sans-serif" font-size="14" lengthAdjust="spacing" textLength="85" x="1054.5" y="288.0332">+getSkillList()</text></g><!--class CollaboratorRepository--><g id="elem_CollaboratorRepository"><rect codeLine="33" fill="#F1F1F1" height="65.6094" id="CollaboratorRepository" rx="2.5" ry="2.5" style="stroke:#181818;stroke-width:0.5;" width="462" x="551" y="229.5"/><ellipse cx="704.75" cy="245.5" fill="#ADD1B2" rx="11" ry="11" style="stroke:#181818;stroke-width:1.0;"/><path d="M707.5156,241.375 Q707.6719,241.1563 707.8594,241.0469 Q708.0469,240.9375 708.2656,240.9375 Q708.6406,240.9375 708.875,241.2031 Q709.1094,241.4531 709.1094,242.0625 L709.1094,243.5156 Q709.1094,244.125 708.875,244.3906 Q708.6406,244.6563 708.2656,244.6563 Q707.9219,244.6563 707.7188,244.4531 Q707.5156,244.2656 707.4063,243.75 Q707.3594,243.3906 707.1719,243.2031 Q706.8438,242.8281 706.2344,242.6094 Q705.625,242.3906 705,242.3906 Q704.2344,242.3906 703.5938,242.7188 Q702.9688,243.0469 702.4688,243.7969 Q701.9844,244.5469 701.9844,245.5781 L701.9844,246.6719 Q701.9844,247.9063 702.875,248.7344 Q703.7656,249.5469 705.3594,249.5469 Q706.2969,249.5469 706.9531,249.2969 Q707.3438,249.1406 707.7656,248.7031 Q708.0313,248.4375 708.1719,248.3594 Q708.3281,248.2813 708.5313,248.2813 Q708.8594,248.2813 709.1094,248.5469 Q709.375,248.7969 709.375,249.1406 Q709.375,249.4844 709.0313,249.8906 Q708.5313,250.4688 707.7344,250.7969 Q706.6563,251.25 705.3594,251.25 Q703.8438,251.25 702.6406,250.625 Q701.6563,250.125 700.9688,249.0625 Q700.2813,247.9844 700.2813,246.7031 L700.2813,245.5469 Q700.2813,244.2188 700.8906,243.0781 Q701.5156,241.9219 702.6094,241.3125 Q703.7031,240.6875 704.9375,240.6875 Q705.6719,240.6875 706.3125,240.8594 Q706.9688,241.0156 707.5156,241.375 Z " fill="#000000"/><text fill="#000000" font-family="sans-serif" font-size="14" lengthAdjust="spacing" textLength="146" x="725.25" y="251.2285">CollaboratorRepository</text><line style="stroke:#181818;stroke-width:0.5;" x1="552" x2="1012" y1="261.5" y2="261.5"/><line style="stroke:#181818;stroke-width:0.5;" x1="552" x2="1012" y1="269.5" y2="269.5"/><text fill="#000000" font-family="sans-serif" font-size="14" lengthAdjust="spacing" textLength="450" x="557" y="288.0332">+generateTeamProposal(minTeamSize,maxTeamSize, selectedSkillList)</text></g><!--class TeamRepository--><g id="elem_TeamRepository"><rect codeLine="38" fill="#F1F1F1" height="83.2188" id="TeamRepository" rx="2.5" ry="2.5" style="stroke:#181818;stroke-width:0.5;" width="146" x="231" y="221"/><ellipse cx="250.5" cy="237" fill="#ADD1B2" rx="11" ry="11" style="stroke:#181818;stroke-width:1.0;"/><path d="M253.2656,232.875 Q253.4219,232.6563 253.6094,232.5469 Q253.7969,232.4375 254.0156,232.4375 Q254.3906,232.4375 254.625,232.7031 Q254.8594,232.9531 254.8594,233.5625 L254.8594,235.0156 Q254.8594,235.625 254.625,235.8906 Q254.3906,236.1563 254.0156,236.1563 Q253.6719,236.1563 253.4688,235.9531 Q253.2656,235.7656 253.1563,235.25 Q253.1094,234.8906 252.9219,234.7031 Q252.5938,234.3281 251.9844,234.1094 Q251.375,233.8906 250.75,233.8906 Q249.9844,233.8906 249.3438,234.2188 Q248.7188,234.5469 248.2188,235.2969 Q247.7344,236.0469 247.7344,237.0781 L247.7344,238.1719 Q247.7344,239.4063 248.625,240.2344 Q249.5156,241.0469 251.1094,241.0469 Q252.0469,241.0469 252.7031,240.7969 Q253.0938,240.6406 253.5156,240.2031 Q253.7813,239.9375 253.9219,239.8594 Q254.0781,239.7813 254.2813,239.7813 Q254.6094,239.7813 254.8594,240.0469 Q255.125,240.2969 255.125,240.6406 Q255.125,240.9844 254.7813,241.3906 Q254.2813,241.9688 253.4844,242.2969 Q252.4063,242.75 251.1094,242.75 Q249.5938,242.75 248.3906,242.125 Q247.4063,241.625 246.7188,240.5625 Q246.0313,239.4844 246.0313,238.2031 L246.0313,237.0469 Q246.0313,235.7188 246.6406,234.5781 Q247.2656,233.4219 248.3594,232.8125 Q249.4531,232.1875 250.6875,232.1875 Q251.4219,232.1875 252.0625,232.3594 Q252.7188,232.5156 253.2656,232.875 Z " fill="#000000"/><text fill="#000000" font-family="sans-serif" font-size="14" lengthAdjust="spacing" textLength="104" x="265.5" y="242.7285">TeamRepository</text><line style="stroke:#181818;stroke-width:0.5;" x1="232" x2="376" y1="253" y2="253"/><line style="stroke:#181818;stroke-width:0.5;" x1="232" x2="376" y1="261" y2="261"/><text fill="#000000" font-family="sans-serif" font-size="14" lengthAdjust="spacing" textLength="109" x="237" y="279.5332">+addTeam(team)</text><text fill="#000000" font-family="sans-serif" font-size="14" lengthAdjust="spacing" textLength="134" x="237" y="297.1426">+validateTeam(team)</text></g><!--class Collaborator--><g id="elem_Collaborator"><rect codeLine="43" fill="#F1F1F1" height="171.2656" id="Collaborator" rx="2.5" ry="2.5" style="stroke:#181818;stroke-width:0.5;" width="153" x="515.5" y="382"/><ellipse cx="549.85" cy="398" fill="#ADD1B2" rx="11" ry="11" style="stroke:#181818;stroke-width:1.0;"/><path d="M552.6156,393.875 Q552.7719,393.6563 552.9594,393.5469 Q553.1469,393.4375 553.3656,393.4375 Q553.7406,393.4375 553.975,393.7031 Q554.2094,393.9531 554.2094,394.5625 L554.2094,396.0156 Q554.2094,396.625 553.975,396.8906 Q553.7406,397.1563 553.3656,397.1563 Q553.0219,397.1563 552.8188,396.9531 Q552.6156,396.7656 552.5063,396.25 Q552.4594,395.8906 552.2719,395.7031 Q551.9438,395.3281 551.3344,395.1094 Q550.725,394.8906 550.1,394.8906 Q549.3344,394.8906 548.6938,395.2188 Q548.0688,395.5469 547.5688,396.2969 Q547.0844,397.0469 547.0844,398.0781 L547.0844,399.1719 Q547.0844,400.4063 547.975,401.2344 Q548.8656,402.0469 550.4594,402.0469 Q551.3969,402.0469 552.0531,401.7969 Q552.4438,401.6406 552.8656,401.2031 Q553.1313,400.9375 553.2719,400.8594 Q553.4281,400.7813 553.6313,400.7813 Q553.9594,400.7813 554.2094,401.0469 Q554.475,401.2969 554.475,401.6406 Q554.475,401.9844 554.1313,402.3906 Q553.6313,402.9688 552.8344,403.2969 Q551.7563,403.75 550.4594,403.75 Q548.9438,403.75 547.7406,403.125 Q546.7563,402.625 546.0688,401.5625 Q545.3813,400.4844 545.3813,399.2031 L545.3813,398.0469 Q545.3813,396.7188 545.9906,395.5781 Q546.6156,394.4219 547.7094,393.8125 Q548.8031,393.1875 550.0375,393.1875 Q550.7719,393.1875 551.4125,393.3594 Q552.0688,393.5156 552.6156,393.875 Z " fill="#000000"/><text fill="#000000" font-family="sans-serif" font-size="14" lengthAdjust="spacing" textLength="78" x="568.15" y="403.7285">Collaborator</text><line style="stroke:#181818;stroke-width:0.5;" x1="516.5" x2="667.5" y1="414" y2="414"/><text fill="#000000" font-family="sans-serif" font-size="14" lengthAdjust="spacing" textLength="81" x="521.5" y="432.5332">-String name</text><text fill="#000000" font-family="sans-serif" font-size="14" lengthAdjust="spacing" textLength="102" x="521.5" y="450.1426">-String birthdate</text><text fill="#000000" font-family="sans-serif" font-size="14" lengthAdjust="spacing" textLength="141" x="521.5" y="467.752">-String admission date</text><text fill="#000000" font-family="sans-serif" font-size="14" lengthAdjust="spacing" textLength="97" x="521.5" y="485.3613">-String address</text><text fill="#000000" font-family="sans-serif" font-size="14" lengthAdjust="spacing" textLength="79" x="521.5" y="502.9707">-String email</text><text fill="#000000" font-family="sans-serif" font-size="14" lengthAdjust="spacing" textLength="69" x="521.5" y="520.5801">-String skill</text><text fill="#000000" font-family="sans-serif" font-size="14" lengthAdjust="spacing" textLength="64" x="521.5" y="538.1895">-int phone</text><line style="stroke:#181818;stroke-width:0.5;" x1="516.5" x2="667.5" y1="545.2656" y2="545.2656"/></g><!--class Team--><g id="elem_Team"><rect codeLine="54" fill="#F1F1F1" height="65.6094" id="Team" rx="2.5" ry="2.5" style="stroke:#181818;stroke-width:0.5;" width="307" x="150.5" y="434.5"/><ellipse cx="281.75" cy="450.5" fill="#ADD1B2" rx="11" ry="11" style="stroke:#181818;stroke-width:1.0;"/><path d="M284.5156,446.375 Q284.6719,446.1563 284.8594,446.0469 Q285.0469,445.9375 285.2656,445.9375 Q285.6406,445.9375 285.875,446.2031 Q286.1094,446.4531 286.1094,447.0625 L286.1094,448.5156 Q286.1094,449.125 285.875,449.3906 Q285.6406,449.6563 285.2656,449.6563 Q284.9219,449.6563 284.7188,449.4531 Q284.5156,449.2656 284.4063,448.75 Q284.3594,448.3906 284.1719,448.2031 Q283.8438,447.8281 283.2344,447.6094 Q282.625,447.3906 282,447.3906 Q281.2344,447.3906 280.5938,447.7188 Q279.9688,448.0469 279.4688,448.7969 Q278.9844,449.5469 278.9844,450.5781 L278.9844,451.6719 Q278.9844,452.9063 279.875,453.7344 Q280.7656,454.5469 282.3594,454.5469 Q283.2969,454.5469 283.9531,454.2969 Q284.3438,454.1406 284.7656,453.7031 Q285.0313,453.4375 285.1719,453.3594 Q285.3281,453.2813 285.5313,453.2813 Q285.8594,453.2813 286.1094,453.5469 Q286.375,453.7969 286.375,454.1406 Q286.375,454.4844 286.0313,454.8906 Q285.5313,455.4688 284.7344,455.7969 Q283.6563,456.25 282.3594,456.25 Q280.8438,456.25 279.6406,455.625 Q278.6563,455.125 277.9688,454.0625 Q277.2813,452.9844 277.2813,451.7031 L277.2813,450.5469 Q277.2813,449.2188 277.8906,448.0781 Q278.5156,446.9219 279.6094,446.3125 Q280.7031,445.6875 281.9375,445.6875 Q282.6719,445.6875 283.3125,445.8594 Q283.9688,446.0156 284.5156,446.375 Z " fill="#000000"/><text fill="#000000" font-family="sans-serif" font-size="14" lengthAdjust="spacing" textLength="36" x="302.25" y="456.2285">Team</text><line style="stroke:#181818;stroke-width:0.5;" x1="151.5" x2="456.5" y1="466.5" y2="466.5"/><line style="stroke:#181818;stroke-width:0.5;" x1="151.5" x2="456.5" y1="474.5" y2="474.5"/><text fill="#000000" font-family="sans-serif" font-size="14" lengthAdjust="spacing" textLength="295" x="156.5" y="493.0332">+createTeam(collaboratorList,selectedSkillList)</text></g><!--link Repositories to Repositories--><g id="link_Repositories_Repositories"><path codeLine="70" d="M1011.02,55.82 C1031.37,57.84 1046,64.23 1046,75 C1046,84.84 1033.77,91.03 1016.13,93.56 " fill="none" id="Repositories-to-Repositories" style="stroke:#181818;stroke-width:1.0;"/><polygon fill="#181818" points="1011.02,94.18,1020.4354,97.0696,1015.9838,93.5792,1019.4741,89.1275,1011.02,94.18" style="stroke:#181818;stroke-width:1.0;"/><text fill="#000000" font-family="sans-serif" font-size="13" lengthAdjust="spacing" textLength="49" x="1052" y="80.4951">instance</text></g><!--link GenarateTeamUI to GenarateTeamController--><g id="link_GenarateTeamUI_GenarateTeamController"><path codeLine="71" d="M147.31,75 C158.06,75 168.46,75 177.15,75 " fill="none" id="GenarateTeamUI-to-GenarateTeamController" style="stroke:#181818;stroke-width:1.0;stroke-dasharray:7.0,7.0;"/><polygon fill="#181818" points="182.33,75,173.33,71,177.33,75,173.33,79,182.33,75" style="stroke:#181818;stroke-width:1.0;"/></g><!--link GenarateTeamController to Repositories--><g id="link_GenarateTeamController_Repositories"><path codeLine="72" d="M711.65,75 C746.37,75 780.13,75 809.78,75 " fill="none" id="GenarateTeamController-to-Repositories" style="stroke:#181818;stroke-width:1.0;stroke-dasharray:7.0,7.0;"/><polygon fill="#181818" points="814.88,75,805.88,71,809.88,75,805.88,79,814.88,75" style="stroke:#181818;stroke-width:1.0;"/><text fill="#000000" font-family="sans-serif" font-size="13" lengthAdjust="spacing" textLength="67" x="729.75" y="68.4951">repositories</text></g><!--link Repositories to CollaboratorRepository--><g id="link_Repositories_CollaboratorRepository"><path codeLine="73" d="M894.88,143.23 C888.09,168.39 882,191 882,191 C882,191 856.96,208.65 831.95,226.29 " fill="none" id="Repositories-to-CollaboratorRepository" style="stroke:#181818;stroke-width:1.0;"/><polygon fill="#181818" points="827.61,229.34,837.2689,227.4151,831.694,226.4555,832.6537,220.8806,827.61,229.34" style="stroke:#181818;stroke-width:1.0;"/><text fill="#000000" font-family="sans-serif" font-size="13" lengthAdjust="spacing" textLength="7" x="829.2952" y="218.4224">1</text></g><!--link Repositories to TeamRepository--><g id="link_Repositories_TeamRepository"><path codeLine="74" d="M814.75,125.77 C753.41,156.85 686,191 686,191 C686,191 404,221 404,221 C404,221 394.84,224.71 382.06,229.88 " fill="none" id="Repositories-to-TeamRepository" style="stroke:#181818;stroke-width:1.0;"/><polygon fill="#181818" points="377.2,231.85,387.0428,232.1953,381.8374,229.9808,384.052,224.7754,377.2,231.85" style="stroke:#181818;stroke-width:1.0;"/><text fill="#000000" font-family="sans-serif" font-size="13" lengthAdjust="spacing" textLength="7" x="385.1097" y="225.3662">1</text></g><!--link Repositories to SkillRepository--><g id="link_Repositories_SkillRepository"><path codeLine="75" d="M984.76,143.23 C1014.49,171.08 1047.78,202.27 1072.7,225.62 " fill="none" id="Repositories-to-SkillRepository" style="stroke:#181818;stroke-width:1.0;"/><polygon fill="#181818" points="1076.63,229.3,1072.7987,220.2269,1072.9819,225.8808,1067.328,226.0639,1076.63,229.3" style="stroke:#181818;stroke-width:1.0;"/><text fill="#000000" font-family="sans-serif" font-size="13" lengthAdjust="spacing" textLength="7" x="1062.1743" y="218.7569">1</text></g><!--link GenarateTeamController to SkillRepository--><g id="link_GenarateTeamController_SkillRepository"><path codeLine="76" d="M680.75,134.04 C843.32,174.4 1031,221 1031,221 C1031,221 1036.15,223.61 1043.84,227.5 " fill="none" id="GenarateTeamController-to-SkillRepository" style="stroke:#181818;stroke-width:1.0;stroke-dasharray:7.0,7.0;"/><polygon fill="#181818" points="1048.36,229.79,1042.138,222.1554,1043.8994,227.5311,1038.5237,229.2925,1048.36,229.79" style="stroke:#181818;stroke-width:1.0;"/><text fill="#000000" font-family="sans-serif" font-size="13" lengthAdjust="spacing" textLength="85" x="905" y="187.4951">skillRepository</text></g><!--link GenarateTeamController to TeamRepository--><g id="link_GenarateTeamController_TeamRepository"><path codeLine="77" d="M375.72,134.11 C350.37,154.76 328,173 328,173 C328,173 322.23,194.27 316.35,215.96 " fill="none" id="GenarateTeamController-to-TeamRepository" style="stroke:#181818;stroke-width:1.0;stroke-dasharray:7.0,7.0;"/><polygon fill="#181818" points="315.02,220.88,321.249,213.2512,316.3368,216.0565,313.5314,211.1443,315.02,220.88" style="stroke:#181818;stroke-width:1.0;"/><text fill="#000000" font-family="sans-serif" font-size="13" lengthAdjust="spacing" textLength="91" x="329" y="187.4951">teamRepository</text></g><!--link GenarateTeamController to CollaboratorRepository--><g id="link_GenarateTeamController_CollaboratorRepository"><path codeLine="78" d="M530.97,134.17 C572.15,162.7 613,191 613,191 C613,191 657.08,209.39 700.21,227.38 " fill="none" id="GenarateTeamController-to-CollaboratorRepository" style="stroke:#181818;stroke-width:1.0;stroke-dasharray:7.0,7.0;"/><polygon fill="#181818" points="704.92,229.34,698.1586,222.1787,700.3067,227.4119,695.0736,229.56,704.92,229.34" style="stroke:#181818;stroke-width:1.0;"/><text fill="#000000" font-family="sans-serif" font-size="13" lengthAdjust="spacing" textLength="129" x="614" y="187.4951">collaboratorRepository</text></g><!--link GenarateTeamController to Collaborator--><g id="link_GenarateTeamController_Collaborator"><path codeLine="79" d="M451.33,134.12 C456.37,201.67 464,304 464,304 C464,304 492.18,339.78 522.1,377.76 " fill="none" id="GenarateTeamController-to-Collaborator" style="stroke:#181818;stroke-width:1.0;stroke-dasharray:7.0,7.0;"/><polygon fill="#181818" points="525.38,381.92,522.9664,372.3715,522.2915,377.9879,516.6751,377.313,525.38,381.92" style="stroke:#181818;stroke-width:1.0;"/><text fill="#000000" font-family="sans-serif" font-size="13" lengthAdjust="spacing" textLength="67" x="465" y="267.9951">collaborator</text></g><!--link CollaboratorRepository to Collaborator--><g id="link_CollaboratorRepository_Collaborator"><path codeLine="80" d="M751.89,295.67 C730.38,318.66 700.35,350.74 672.12,380.9 " fill="none" id="CollaboratorRepository-to-Collaborator" style="stroke:#181818;stroke-width:1.0;"/><polygon fill="#181818" points="668.69,384.57,677.7631,380.7387,672.1092,380.9219,671.9261,375.268,668.69,384.57" style="stroke:#181818;stroke-width:1.0;"/><text fill="#000000" font-family="sans-serif" font-size="13" lengthAdjust="spacing" textLength="21" x="717" y="348.4951">has</text><text fill="#000000" font-family="sans-serif" font-size="13" lengthAdjust="spacing" textLength="7" x="738.9032" y="316.5646">1</text><text fill="#000000" font-family="sans-serif" font-size="13" lengthAdjust="spacing" textLength="5" x="676.4853" y="373.1184">*</text></g><!--link TeamRepository to Team--><g id="link_TeamRepository_Team"><path codeLine="81" d="M304,304.09 C304,340.6 304,393.78 304,429.22 " fill="none" id="TeamRepository-to-Team" style="stroke:#181818;stroke-width:1.0;"/><polygon fill="#181818" points="304,434.32,308,425.32,304,429.32,300,425.32,304,434.32" style="stroke:#181818;stroke-width:1.0;"/><text fill="#000000" font-family="sans-serif" font-size="13" lengthAdjust="spacing" textLength="7" x="296.4203" y="325.8095">1</text><text fill="#000000" font-family="sans-serif" font-size="13" lengthAdjust="spacing" textLength="5" x="298.4844" y="423.3983">*</text></g><!--link Team to Collaborator--><g id="link_Team_Collaborator"><path codeLine="82" d="M457.7,467.5 C475.8,467.5 493.69,467.5 510.23,467.5 " fill="none" id="Team-to-Collaborator" style="stroke:#181818;stroke-width:1.0;"/><polygon fill="#181818" points="515.32,467.5,506.32,463.5,510.32,467.5,506.32,471.5,515.32,467.5" style="stroke:#181818;stroke-width:1.0;"/><text fill="#000000" font-family="sans-serif" font-size="13" lengthAdjust="spacing" textLength="21" x="476" y="460.9951">has</text></g><!--SRC=[hLHDRzim3BthLn2vnDcIOhlcK63eeGZGmz1qFq2nMLkeB1aIkpODzjz7EV67NBaeXlbaaNpK8_cefNzIff5Erb1RO_FAsHg1t3EAmTF8_4cMkAUZHd2OapIb7WVuIXRsHPaI7gNsOuzM1kdO83HM7yD1B1DEwyYA4IhNqliVH4uTdWbtkJLxzORmJOYbnaS2ik1KMH4KAj1HreWM0hTeE07X0yhwrmvEuez8U6wi8MUrHiSHmD_Nj3TZHbhVOsEz8kkEwvpDyc0vqhgHcHWr75Vdb50YxGF-JddA1gF1xgAVpZ96wgnM9fn3ZUjQllR_u55pULZqUReqkSDBacpCAOIi4o3kmgKDFKs5_bBy9ZAEcDBEU1vrZjaAjb7GfCAXzi5naspLEFj3rBLiDSngalIKRcWVdhwAg_jVFUzlYYbtuW5P5EqeWWww0dzBhOfkHcT7ad0_X3shdHV8o1fZoq4vgaAgs2oBMddFqeUKht3eVMp4MYeTcrfzNqpA43ILvGsDwptzc-HQpGrVfBlDTQp3BLz-LfgOBF3LzSpYYfbzldgNserrEwMn-BwOaKyoD9v_CcIw47CycUWabBdwpuCdKjn2_0Xz19tPbosadxVFfehnOkQMqADDwDMNnGHTIIycLOs3WwlrXqw_H_u5]--></g></svg>