<?xml version="1.0" encoding="UTF-8" standalone="no"?><svg xmlns="http://www.w3.org/2000/svg" xmlns:xlink="http://www.w3.org/1999/xlink" contentStyleType="text/css" height="525px" preserveAspectRatio="none" style="width:1019px;height:525px;background:#FFFFFF;" version="1.1" viewBox="0 0 1019 525" width="1019px" zoomAndPan="magnify"><defs/><g><!--class GenarateTeamUI--><g id="elem_GenarateTeamUI"><rect codeLine="10" fill="#F1F1F1" height="48" id="GenarateTeamUI" rx="2.5" ry="2.5" style="stroke:#181818;stroke-width:0.5;" width="140" x="7" y="42"/><ellipse cx="22" cy="58" fill="#ADD1B2" rx="11" ry="11" style="stroke:#181818;stroke-width:1.0;"/><path d="M24.7656,53.875 Q24.9219,53.6563 25.1094,53.5469 Q25.2969,53.4375 25.5156,53.4375 Q25.8906,53.4375 26.125,53.7031 Q26.3594,53.9531 26.3594,54.5625 L26.3594,56.0156 Q26.3594,56.625 26.125,56.8906 Q25.8906,57.1563 25.5156,57.1563 Q25.1719,57.1563 24.9688,56.9531 Q24.7656,56.7656 24.6563,56.25 Q24.6094,55.8906 24.4219,55.7031 Q24.0938,55.3281 23.4844,55.1094 Q22.875,54.8906 22.25,54.8906 Q21.4844,54.8906 20.8438,55.2188 Q20.2188,55.5469 19.7188,56.2969 Q19.2344,57.0469 19.2344,58.0781 L19.2344,59.1719 Q19.2344,60.4063 20.125,61.2344 Q21.0156,62.0469 22.6094,62.0469 Q23.5469,62.0469 24.2031,61.7969 Q24.5938,61.6406 25.0156,61.2031 Q25.2813,60.9375 25.4219,60.8594 Q25.5781,60.7813 25.7813,60.7813 Q26.1094,60.7813 26.3594,61.0469 Q26.625,61.2969 26.625,61.6406 Q26.625,61.9844 26.2813,62.3906 Q25.7813,62.9688 24.9844,63.2969 Q23.9063,63.75 22.6094,63.75 Q21.0938,63.75 19.8906,63.125 Q18.9063,62.625 18.2188,61.5625 Q17.5313,60.4844 17.5313,59.2031 L17.5313,58.0469 Q17.5313,56.7188 18.1406,55.5781 Q18.7656,54.4219 19.8594,53.8125 Q20.9531,53.1875 22.1875,53.1875 Q22.9219,53.1875 23.5625,53.3594 Q24.2188,53.5156 24.7656,53.875 Z " fill="#000000"/><text fill="#000000" font-family="sans-serif" font-size="14" lengthAdjust="spacing" textLength="108" x="36" y="63.7285">GenarateTeamUI</text><line style="stroke:#181818;stroke-width:0.5;" x1="8" x2="146" y1="74" y2="74"/><line style="stroke:#181818;stroke-width:0.5;" x1="8" x2="146" y1="82" y2="82"/></g><!--class GenarateTeamController--><g id="elem_GenarateTeamController"><rect codeLine="13" fill="#F1F1F1" height="100.8281" id="GenarateTeamController" rx="2.5" ry="2.5" style="stroke:#181818;stroke-width:0.5;" width="434" x="182" y="15.5"/><ellipse cx="315.75" cy="31.5" fill="#ADD1B2" rx="11" ry="11" style="stroke:#181818;stroke-width:1.0;"/><path d="M318.5156,27.375 Q318.6719,27.1563 318.8594,27.0469 Q319.0469,26.9375 319.2656,26.9375 Q319.6406,26.9375 319.875,27.2031 Q320.1094,27.4531 320.1094,28.0625 L320.1094,29.5156 Q320.1094,30.125 319.875,30.3906 Q319.6406,30.6563 319.2656,30.6563 Q318.9219,30.6563 318.7188,30.4531 Q318.5156,30.2656 318.4063,29.75 Q318.3594,29.3906 318.1719,29.2031 Q317.8438,28.8281 317.2344,28.6094 Q316.625,28.3906 316,28.3906 Q315.2344,28.3906 314.5938,28.7188 Q313.9688,29.0469 313.4688,29.7969 Q312.9844,30.5469 312.9844,31.5781 L312.9844,32.6719 Q312.9844,33.9063 313.875,34.7344 Q314.7656,35.5469 316.3594,35.5469 Q317.2969,35.5469 317.9531,35.2969 Q318.3438,35.1406 318.7656,34.7031 Q319.0313,34.4375 319.1719,34.3594 Q319.3281,34.2813 319.5313,34.2813 Q319.8594,34.2813 320.1094,34.5469 Q320.375,34.7969 320.375,35.1406 Q320.375,35.4844 320.0313,35.8906 Q319.5313,36.4688 318.7344,36.7969 Q317.6563,37.25 316.3594,37.25 Q314.8438,37.25 313.6406,36.625 Q312.6563,36.125 311.9688,35.0625 Q311.2813,33.9844 311.2813,32.7031 L311.2813,31.5469 Q311.2813,30.2188 311.8906,29.0781 Q312.5156,27.9219 313.6094,27.3125 Q314.7031,26.6875 315.9375,26.6875 Q316.6719,26.6875 317.3125,26.8594 Q317.9688,27.0156 318.5156,27.375 Z " fill="#000000"/><text fill="#000000" font-family="sans-serif" font-size="14" lengthAdjust="spacing" textLength="158" x="336.25" y="37.2285">GenarateTeamController</text><line style="stroke:#181818;stroke-width:0.5;" x1="183" x2="615" y1="47.5" y2="47.5"/><line style="stroke:#181818;stroke-width:0.5;" x1="183" x2="615" y1="55.5" y2="55.5"/><text fill="#000000" font-family="sans-serif" font-size="14" lengthAdjust="spacing" textLength="422" x="188" y="74.0332">+GenarateTeamController(collaboratorRepository,teamRepository)</text><text fill="#000000" font-family="sans-serif" font-size="14" lengthAdjust="spacing" textLength="168" x="188" y="91.6426">+getTeamCharacteristics()</text><text fill="#000000" font-family="sans-serif" font-size="14" lengthAdjust="spacing" textLength="125" x="188" y="109.252">+createTeam(team)</text></g><!--class Repositories--><g id="elem_Repositories"><rect codeLine="20" fill="#F1F1F1" height="118.4375" id="Repositories" rx="2.5" ry="2.5" style="stroke:#181818;stroke-width:0.5;" width="196" x="720" y="7"/><ellipse cx="774.25" cy="23" fill="#ADD1B2" rx="11" ry="11" style="stroke:#181818;stroke-width:1.0;"/><path d="M777.0156,18.875 Q777.1719,18.6563 777.3594,18.5469 Q777.5469,18.4375 777.7656,18.4375 Q778.1406,18.4375 778.375,18.7031 Q778.6094,18.9531 778.6094,19.5625 L778.6094,21.0156 Q778.6094,21.625 778.375,21.8906 Q778.1406,22.1563 777.7656,22.1563 Q777.4219,22.1563 777.2188,21.9531 Q777.0156,21.7656 776.9063,21.25 Q776.8594,20.8906 776.6719,20.7031 Q776.3438,20.3281 775.7344,20.1094 Q775.125,19.8906 774.5,19.8906 Q773.7344,19.8906 773.0938,20.2188 Q772.4688,20.5469 771.9688,21.2969 Q771.4844,22.0469 771.4844,23.0781 L771.4844,24.1719 Q771.4844,25.4063 772.375,26.2344 Q773.2656,27.0469 774.8594,27.0469 Q775.7969,27.0469 776.4531,26.7969 Q776.8438,26.6406 777.2656,26.2031 Q777.5313,25.9375 777.6719,25.8594 Q777.8281,25.7813 778.0313,25.7813 Q778.3594,25.7813 778.6094,26.0469 Q778.875,26.2969 778.875,26.6406 Q778.875,26.9844 778.5313,27.3906 Q778.0313,27.9688 777.2344,28.2969 Q776.1563,28.75 774.8594,28.75 Q773.3438,28.75 772.1406,28.125 Q771.1563,27.625 770.4688,26.5625 Q769.7813,25.4844 769.7813,24.2031 L769.7813,23.0469 Q769.7813,21.7188 770.3906,20.5781 Q771.0156,19.4219 772.1094,18.8125 Q773.2031,18.1875 774.4375,18.1875 Q775.1719,18.1875 775.8125,18.3594 Q776.4688,18.5156 777.0156,18.875 Z " fill="#000000"/><text fill="#000000" font-family="sans-serif" font-size="14" lengthAdjust="spacing" textLength="79" x="794.75" y="28.7285">Repositories</text><line style="stroke:#181818;stroke-width:0.5;" x1="721" x2="915" y1="39" y2="39"/><line style="stroke:#181818;stroke-width:0.5;" x1="721" x2="915" y1="47" y2="47"/><text fill="#000000" font-family="sans-serif" font-size="14" lengthAdjust="spacing" textLength="94" x="726" y="65.5332">-Repositories()</text><text fill="#000000" font-family="sans-serif" font-size="14" lengthAdjust="spacing" textLength="182" x="726" y="83.1426">+getInstance() : Repositories</text><text fill="#000000" font-family="sans-serif" font-size="14" lengthAdjust="spacing" textLength="184" x="726" y="100.752">+getCollaboratorRepository()</text><text fill="#000000" font-family="sans-serif" font-size="14" lengthAdjust="spacing" textLength="142" x="726" y="118.3613">+getTeamRepository()</text></g><!--class CollaboratorRepository--><g id="elem_CollaboratorRepository"><rect codeLine="27" fill="#F1F1F1" height="65.6094" id="CollaboratorRepository" rx="2.5" ry="2.5" style="stroke:#181818;stroke-width:0.5;" width="203" x="503.5" y="211.5"/><ellipse cx="529.75" cy="227.5" fill="#ADD1B2" rx="11" ry="11" style="stroke:#181818;stroke-width:1.0;"/><path d="M532.5156,223.375 Q532.6719,223.1563 532.8594,223.0469 Q533.0469,222.9375 533.2656,222.9375 Q533.6406,222.9375 533.875,223.2031 Q534.1094,223.4531 534.1094,224.0625 L534.1094,225.5156 Q534.1094,226.125 533.875,226.3906 Q533.6406,226.6563 533.2656,226.6563 Q532.9219,226.6563 532.7188,226.4531 Q532.5156,226.2656 532.4063,225.75 Q532.3594,225.3906 532.1719,225.2031 Q531.8438,224.8281 531.2344,224.6094 Q530.625,224.3906 530,224.3906 Q529.2344,224.3906 528.5938,224.7188 Q527.9688,225.0469 527.4688,225.7969 Q526.9844,226.5469 526.9844,227.5781 L526.9844,228.6719 Q526.9844,229.9063 527.875,230.7344 Q528.7656,231.5469 530.3594,231.5469 Q531.2969,231.5469 531.9531,231.2969 Q532.3438,231.1406 532.7656,230.7031 Q533.0313,230.4375 533.1719,230.3594 Q533.3281,230.2813 533.5313,230.2813 Q533.8594,230.2813 534.1094,230.5469 Q534.375,230.7969 534.375,231.1406 Q534.375,231.4844 534.0313,231.8906 Q533.5313,232.4688 532.7344,232.7969 Q531.6563,233.25 530.3594,233.25 Q528.8438,233.25 527.6406,232.625 Q526.6563,232.125 525.9688,231.0625 Q525.2813,229.9844 525.2813,228.7031 L525.2813,227.5469 Q525.2813,226.2188 525.8906,225.0781 Q526.5156,223.9219 527.6094,223.3125 Q528.7031,222.6875 529.9375,222.6875 Q530.6719,222.6875 531.3125,222.8594 Q531.9688,223.0156 532.5156,223.375 Z " fill="#000000"/><text fill="#000000" font-family="sans-serif" font-size="14" lengthAdjust="spacing" textLength="146" x="546.25" y="233.2285">CollaboratorRepository</text><line style="stroke:#181818;stroke-width:0.5;" x1="504.5" x2="705.5" y1="243.5" y2="243.5"/><line style="stroke:#181818;stroke-width:0.5;" x1="504.5" x2="705.5" y1="251.5" y2="251.5"/><text fill="#000000" font-family="sans-serif" font-size="14" lengthAdjust="spacing" textLength="191" x="509.5" y="270.0332">+anyCollaboratorHasSkill(skill)</text></g><!--class TeamRepository--><g id="elem_TeamRepository"><rect codeLine="31" fill="#F1F1F1" height="83.2188" id="TeamRepository" rx="2.5" ry="2.5" style="stroke:#181818;stroke-width:0.5;" width="146" x="743" y="203"/><ellipse cx="762.5" cy="219" fill="#ADD1B2" rx="11" ry="11" style="stroke:#181818;stroke-width:1.0;"/><path d="M765.2656,214.875 Q765.4219,214.6563 765.6094,214.5469 Q765.7969,214.4375 766.0156,214.4375 Q766.3906,214.4375 766.625,214.7031 Q766.8594,214.9531 766.8594,215.5625 L766.8594,217.0156 Q766.8594,217.625 766.625,217.8906 Q766.3906,218.1563 766.0156,218.1563 Q765.6719,218.1563 765.4688,217.9531 Q765.2656,217.7656 765.1563,217.25 Q765.1094,216.8906 764.9219,216.7031 Q764.5938,216.3281 763.9844,216.1094 Q763.375,215.8906 762.75,215.8906 Q761.9844,215.8906 761.3438,216.2188 Q760.7188,216.5469 760.2188,217.2969 Q759.7344,218.0469 759.7344,219.0781 L759.7344,220.1719 Q759.7344,221.4063 760.625,222.2344 Q761.5156,223.0469 763.1094,223.0469 Q764.0469,223.0469 764.7031,222.7969 Q765.0938,222.6406 765.5156,222.2031 Q765.7813,221.9375 765.9219,221.8594 Q766.0781,221.7813 766.2813,221.7813 Q766.6094,221.7813 766.8594,222.0469 Q767.125,222.2969 767.125,222.6406 Q767.125,222.9844 766.7813,223.3906 Q766.2813,223.9688 765.4844,224.2969 Q764.4063,224.75 763.1094,224.75 Q761.5938,224.75 760.3906,224.125 Q759.4063,223.625 758.7188,222.5625 Q758.0313,221.4844 758.0313,220.2031 L758.0313,219.0469 Q758.0313,217.7188 758.6406,216.5781 Q759.2656,215.4219 760.3594,214.8125 Q761.4531,214.1875 762.6875,214.1875 Q763.4219,214.1875 764.0625,214.3594 Q764.7188,214.5156 765.2656,214.875 Z " fill="#000000"/><text fill="#000000" font-family="sans-serif" font-size="14" lengthAdjust="spacing" textLength="104" x="777.5" y="224.7285">TeamRepository</text><line style="stroke:#181818;stroke-width:0.5;" x1="744" x2="888" y1="235" y2="235"/><line style="stroke:#181818;stroke-width:0.5;" x1="744" x2="888" y1="243" y2="243"/><text fill="#000000" font-family="sans-serif" font-size="14" lengthAdjust="spacing" textLength="125" x="749" y="261.5332">+createTeam(team)</text><text fill="#000000" font-family="sans-serif" font-size="14" lengthAdjust="spacing" textLength="134" x="749" y="279.1426">+validateTeam(team)</text></g><!--class Collaborator--><g id="elem_Collaborator"><rect codeLine="36" fill="#F1F1F1" height="171.2656" id="Collaborator" rx="2.5" ry="2.5" style="stroke:#181818;stroke-width:0.5;" width="153" x="384.5" y="347"/><ellipse cx="418.85" cy="363" fill="#ADD1B2" rx="11" ry="11" style="stroke:#181818;stroke-width:1.0;"/><path d="M421.6156,358.875 Q421.7719,358.6563 421.9594,358.5469 Q422.1469,358.4375 422.3656,358.4375 Q422.7406,358.4375 422.975,358.7031 Q423.2094,358.9531 423.2094,359.5625 L423.2094,361.0156 Q423.2094,361.625 422.975,361.8906 Q422.7406,362.1563 422.3656,362.1563 Q422.0219,362.1563 421.8188,361.9531 Q421.6156,361.7656 421.5063,361.25 Q421.4594,360.8906 421.2719,360.7031 Q420.9438,360.3281 420.3344,360.1094 Q419.725,359.8906 419.1,359.8906 Q418.3344,359.8906 417.6938,360.2188 Q417.0688,360.5469 416.5688,361.2969 Q416.0844,362.0469 416.0844,363.0781 L416.0844,364.1719 Q416.0844,365.4063 416.975,366.2344 Q417.8656,367.0469 419.4594,367.0469 Q420.3969,367.0469 421.0531,366.7969 Q421.4438,366.6406 421.8656,366.2031 Q422.1313,365.9375 422.2719,365.8594 Q422.4281,365.7813 422.6313,365.7813 Q422.9594,365.7813 423.2094,366.0469 Q423.475,366.2969 423.475,366.6406 Q423.475,366.9844 423.1313,367.3906 Q422.6313,367.9688 421.8344,368.2969 Q420.7563,368.75 419.4594,368.75 Q417.9438,368.75 416.7406,368.125 Q415.7563,367.625 415.0688,366.5625 Q414.3813,365.4844 414.3813,364.2031 L414.3813,363.0469 Q414.3813,361.7188 414.9906,360.5781 Q415.6156,359.4219 416.7094,358.8125 Q417.8031,358.1875 419.0375,358.1875 Q419.7719,358.1875 420.4125,358.3594 Q421.0688,358.5156 421.6156,358.875 Z " fill="#000000"/><text fill="#000000" font-family="sans-serif" font-size="14" lengthAdjust="spacing" textLength="78" x="437.15" y="368.7285">Collaborator</text><line style="stroke:#181818;stroke-width:0.5;" x1="385.5" x2="536.5" y1="379" y2="379"/><text fill="#000000" font-family="sans-serif" font-size="14" lengthAdjust="spacing" textLength="81" x="390.5" y="397.5332">-String name</text><text fill="#000000" font-family="sans-serif" font-size="14" lengthAdjust="spacing" textLength="102" x="390.5" y="415.1426">-String birthdate</text><text fill="#000000" font-family="sans-serif" font-size="14" lengthAdjust="spacing" textLength="141" x="390.5" y="432.752">-String admission date</text><text fill="#000000" font-family="sans-serif" font-size="14" lengthAdjust="spacing" textLength="97" x="390.5" y="450.3613">-String address</text><text fill="#000000" font-family="sans-serif" font-size="14" lengthAdjust="spacing" textLength="79" x="390.5" y="467.9707">-String email</text><text fill="#000000" font-family="sans-serif" font-size="14" lengthAdjust="spacing" textLength="69" x="390.5" y="485.5801">-String skill</text><text fill="#000000" font-family="sans-serif" font-size="14" lengthAdjust="spacing" textLength="64" x="390.5" y="503.1895">-int phone</text><line style="stroke:#181818;stroke-width:0.5;" x1="385.5" x2="536.5" y1="510.2656" y2="510.2656"/></g><!--class Team--><g id="elem_Team"><rect codeLine="47" fill="#F1F1F1" height="65.6094" id="Team" rx="2.5" ry="2.5" style="stroke:#181818;stroke-width:0.5;" width="121" x="755.5" y="399.5"/><ellipse cx="794.35" cy="415.5" fill="#ADD1B2" rx="11" ry="11" style="stroke:#181818;stroke-width:1.0;"/><path d="M797.1156,411.375 Q797.2719,411.1563 797.4594,411.0469 Q797.6469,410.9375 797.8656,410.9375 Q798.2406,410.9375 798.475,411.2031 Q798.7094,411.4531 798.7094,412.0625 L798.7094,413.5156 Q798.7094,414.125 798.475,414.3906 Q798.2406,414.6563 797.8656,414.6563 Q797.5219,414.6563 797.3188,414.4531 Q797.1156,414.2656 797.0063,413.75 Q796.9594,413.3906 796.7719,413.2031 Q796.4438,412.8281 795.8344,412.6094 Q795.225,412.3906 794.6,412.3906 Q793.8344,412.3906 793.1938,412.7188 Q792.5688,413.0469 792.0688,413.7969 Q791.5844,414.5469 791.5844,415.5781 L791.5844,416.6719 Q791.5844,417.9063 792.475,418.7344 Q793.3656,419.5469 794.9594,419.5469 Q795.8969,419.5469 796.5531,419.2969 Q796.9438,419.1406 797.3656,418.7031 Q797.6313,418.4375 797.7719,418.3594 Q797.9281,418.2813 798.1313,418.2813 Q798.4594,418.2813 798.7094,418.5469 Q798.975,418.7969 798.975,419.1406 Q798.975,419.4844 798.6313,419.8906 Q798.1313,420.4688 797.3344,420.7969 Q796.2563,421.25 794.9594,421.25 Q793.4438,421.25 792.2406,420.625 Q791.2563,420.125 790.5688,419.0625 Q789.8813,417.9844 789.8813,416.7031 L789.8813,415.5469 Q789.8813,414.2188 790.4906,413.0781 Q791.1156,411.9219 792.2094,411.3125 Q793.3031,410.6875 794.5375,410.6875 Q795.2719,410.6875 795.9125,410.8594 Q796.5688,411.0156 797.1156,411.375 Z " fill="#000000"/><text fill="#000000" font-family="sans-serif" font-size="14" lengthAdjust="spacing" textLength="36" x="813.65" y="421.2285">Team</text><line style="stroke:#181818;stroke-width:0.5;" x1="756.5" x2="875.5" y1="431.5" y2="431.5"/><line style="stroke:#181818;stroke-width:0.5;" x1="756.5" x2="875.5" y1="439.5" y2="439.5"/><text fill="#000000" font-family="sans-serif" font-size="14" lengthAdjust="spacing" textLength="109" x="761.5" y="458.0332">+addTeam(team)</text></g><!--link Repositories to Repositories--><g id="link_Repositories_Repositories"><path codeLine="63" d="M916.02,48.27 C936.37,50.14 951,56.05 951,66 C951,75.1 938.77,80.82 921.13,83.16 " fill="none" id="Repositories-to-Repositories" style="stroke:#181818;stroke-width:1.0;"/><polygon fill="#181818" points="916.02,83.73,925.4104,86.6998,920.9887,83.1716,924.5169,78.7498,916.02,83.73" style="stroke:#181818;stroke-width:1.0;"/><text fill="#000000" font-family="sans-serif" font-size="13" lengthAdjust="spacing" textLength="49" x="957" y="71.4951">instance</text></g><!--link GenarateTeamUI to GenarateTeamController--><g id="link_GenarateTeamUI_GenarateTeamController"><path codeLine="64" d="M147.09,66 C159.03,66 169.77,66 176.61,66 " fill="none" id="GenarateTeamUI-to-GenarateTeamController" style="stroke:#181818;stroke-width:1.0;stroke-dasharray:7.0,7.0;"/><polygon fill="#181818" points="181.73,66,172.73,62,176.73,66,172.73,70,181.73,66" style="stroke:#181818;stroke-width:1.0;"/></g><!--link GenarateTeamController to Repositories--><g id="link_GenarateTeamController_Repositories"><path codeLine="65" d="M616.17,66 C650.49,66 684.53,66 714.61,66 " fill="none" id="GenarateTeamController-to-Repositories" style="stroke:#181818;stroke-width:1.0;stroke-dasharray:7.0,7.0;"/><polygon fill="#181818" points="719.79,66,710.79,62,714.79,66,710.79,70,719.79,66" style="stroke:#181818;stroke-width:1.0;"/><text fill="#000000" font-family="sans-serif" font-size="13" lengthAdjust="spacing" textLength="67" x="634.5" y="59.4951">repositories</text></g><!--link Repositories to CollaboratorRepository--><g id="link_Repositories_CollaboratorRepository"><path codeLine="66" d="M780.07,125.27 C764.04,149.9 749,173 749,173 C749,173 712.05,191.09 675.58,208.94 " fill="none" id="Repositories-to-CollaboratorRepository" style="stroke:#181818;stroke-width:1.0;"/><polygon fill="#181818" points="670.68,211.34,680.5223,210.9806,675.1719,209.1439,677.0086,203.7936,670.68,211.34" style="stroke:#181818;stroke-width:1.0;"/><text fill="#000000" font-family="sans-serif" font-size="13" lengthAdjust="spacing" textLength="7" x="676.5046" y="200.4224">1</text></g><!--link GenarateTeamController to Collaborator--><g id="link_GenarateTeamController_Collaborator"><path codeLine="67" d="M403.08,116.69 C408.4,181.31 417,286 417,286 C417,286 424.86,312 433.94,342.01 " fill="none" id="GenarateTeamController-to-Collaborator" style="stroke:#181818;stroke-width:1.0;stroke-dasharray:7.0,7.0;"/><polygon fill="#181818" points="435.41,346.86,436.6418,337.0885,433.9667,342.0728,428.9823,339.3977,435.41,346.86" style="stroke:#181818;stroke-width:1.0;"/><text fill="#000000" font-family="sans-serif" font-size="13" lengthAdjust="spacing" textLength="67" x="418" y="249.9951">collaborator</text></g><!--link GenarateTeamController to TeamRepository--><g id="link_GenarateTeamController_TeamRepository"><path codeLine="68" d="M517.71,116.68 C610.55,155.53 724,203 724,203 C724,203 729.47,205.41 737.75,209.05 " fill="none" id="GenarateTeamController-to-TeamRepository" style="stroke:#181818;stroke-width:1.0;stroke-dasharray:7.0,7.0;"/><polygon fill="#181818" points="742.62,211.2,735.9969,203.9106,738.0445,209.1839,732.7712,211.2315,742.62,211.2" style="stroke:#181818;stroke-width:1.0;"/><text fill="#000000" font-family="sans-serif" font-size="13" lengthAdjust="spacing" textLength="91" x="646" y="169.4951">teamRepository</text></g><!--link GenarateTeamController to CollaboratorRepository--><g id="link_GenarateTeamController_CollaboratorRepository"><path codeLine="69" d="M434.08,116.59 C453.6,144.17 474,173 474,173 C474,173 507.61,191.09 540.79,208.94 " fill="none" id="GenarateTeamController-to-CollaboratorRepository" style="stroke:#181818;stroke-width:1.0;stroke-dasharray:7.0,7.0;"/><polygon fill="#181818" points="545.25,211.34,539.2146,203.557,540.8454,208.9738,535.4286,210.6045,545.25,211.34" style="stroke:#181818;stroke-width:1.0;"/><text fill="#000000" font-family="sans-serif" font-size="13" lengthAdjust="spacing" textLength="129" x="475" y="169.4951">collaboratorRepository</text></g><!--link Repositories to TeamRepository--><g id="link_Repositories_TeamRepository"><path codeLine="70" d="M817.34,125.28 C817.07,148.8 816.77,175.54 816.52,197.63 " fill="none" id="Repositories-to-TeamRepository" style="stroke:#181818;stroke-width:1.0;"/><polygon fill="#181818" points="816.46,202.85,820.5626,193.8963,816.5171,197.8503,812.5631,193.8049,816.46,202.85" style="stroke:#181818;stroke-width:1.0;"/><text fill="#000000" font-family="sans-serif" font-size="13" lengthAdjust="spacing" textLength="7" x="808.9565" y="192.1328">1</text></g><!--link CollaboratorRepository to Collaborator--><g id="link_CollaboratorRepository_Collaborator"><path codeLine="71" d="M579.92,277.9 C565.9,296 547.68,319.53 529.74,342.71 " fill="none" id="CollaboratorRepository-to-Collaborator" style="stroke:#181818;stroke-width:1.0;"/><polygon fill="#181818" points="526.63,346.73,535.2977,342.0533,529.6868,342.7733,528.9669,337.1624,526.63,346.73" style="stroke:#181818;stroke-width:1.0;"/><text fill="#000000" font-family="sans-serif" font-size="13" lengthAdjust="spacing" textLength="7" x="568.0078" y="298.5745">1</text><text fill="#000000" font-family="sans-serif" font-size="13" lengthAdjust="spacing" textLength="5" x="527.0552" y="336.1705">*</text></g><!--link TeamRepository to Team--><g id="link_TeamRepository_Team"><path codeLine="72" d="M816,286.32 C816,318.46 816,362.91 816,394.13 " fill="none" id="TeamRepository-to-Team" style="stroke:#181818;stroke-width:1.0;"/><polygon fill="#181818" points="816,399.41,820,390.41,816,394.41,812,390.41,816,399.41" style="stroke:#181818;stroke-width:1.0;"/><text fill="#000000" font-family="sans-serif" font-size="13" lengthAdjust="spacing" textLength="7" x="808.4422" y="307.7658">1</text><text fill="#000000" font-family="sans-serif" font-size="13" lengthAdjust="spacing" textLength="5" x="810.4844" y="388.5068">*</text></g><!--SRC=[ZLF1Rjim3BthAuXUuZHhiLvpA53qiEMwT1-WoAnDH9OCYTtW3VltqQuHIuvTr8V49laU7wcdJJoJQtNG3JJUULC7to1mU4CrPLfjphh28tSM8Q1XxIgR5iHQb_utkGfUjOrfnf93xbg4rjkk_r2RXQGFx5M2CbR7-CGSwFJ6U33U7UaFmbUbDXPV6TX3eAfcAAcNGzwf0GBVq0a1umlgvkS1_gf_QY7px1q7Roq6gTWjPmeZV_ha9UF33snz97dflh1KJPzRjQkG1sGj98OnK6GoiP2C2JZI5ZrgsuiPrLmO2ADe07dkig3W- -0EXFxWecpSOB65VLOqbJmlYar9NZBTnNRQp39sLBK3xRgquhkEnpDPMyJ-Dw796rpWLqju3__IbighxLmBkYpdA6OGVpdTO1uvKU2wfyh3kcmeHd46BENAW37cGMmqsJmqZ3Y6o36qjHS3voEBWOGk6MCuvUd9JlhkCJ_vlT2-dwsQEVV-SSMnQiN8zrVK8NNANCRDmytAmQysa0ufOW_f3Va8DNF67l8xzDc66SNoxPoDESwPzrShd7tbWBZDDwDcyjEwFgN-0m00]--></g></svg>