<?xml version="1.0" encoding="UTF-8" standalone="no"?><svg xmlns="http://www.w3.org/2000/svg" xmlns:xlink="http://www.w3.org/1999/xlink" contentStyleType="text/css" height="659px" preserveAspectRatio="none" style="width:1009px;height:659px;background:#FFFFFF;" version="1.1" viewBox="0 0 1009 659" width="1009px" zoomAndPan="magnify"><defs/><g><!--class GenerateMaintenanceReportUI--><g id="elem_GenerateMaintenanceReportUI"><rect codeLine="11" fill="#F1F1F1" height="48" id="GenerateMaintenanceReportUI" rx="2.5" ry="2.5" style="stroke:#181818;stroke-width:0.5;" width="228" x="7" y="33.5"/><ellipse cx="22" cy="49.5" fill="#ADD1B2" rx="11" ry="11" style="stroke:#181818;stroke-width:1.0;"/><path d="M24.7656,45.375 Q24.9219,45.1563 25.1094,45.0469 Q25.2969,44.9375 25.5156,44.9375 Q25.8906,44.9375 26.125,45.2031 Q26.3594,45.4531 26.3594,46.0625 L26.3594,47.5156 Q26.3594,48.125 26.125,48.3906 Q25.8906,48.6563 25.5156,48.6563 Q25.1719,48.6563 24.9688,48.4531 Q24.7656,48.2656 24.6563,47.75 Q24.6094,47.3906 24.4219,47.2031 Q24.0938,46.8281 23.4844,46.6094 Q22.875,46.3906 22.25,46.3906 Q21.4844,46.3906 20.8438,46.7188 Q20.2188,47.0469 19.7188,47.7969 Q19.2344,48.5469 19.2344,49.5781 L19.2344,50.6719 Q19.2344,51.9063 20.125,52.7344 Q21.0156,53.5469 22.6094,53.5469 Q23.5469,53.5469 24.2031,53.2969 Q24.5938,53.1406 25.0156,52.7031 Q25.2813,52.4375 25.4219,52.3594 Q25.5781,52.2813 25.7813,52.2813 Q26.1094,52.2813 26.3594,52.5469 Q26.625,52.7969 26.625,53.1406 Q26.625,53.4844 26.2813,53.8906 Q25.7813,54.4688 24.9844,54.7969 Q23.9063,55.25 22.6094,55.25 Q21.0938,55.25 19.8906,54.625 Q18.9063,54.125 18.2188,53.0625 Q17.5313,51.9844 17.5313,50.7031 L17.5313,49.5469 Q17.5313,48.2188 18.1406,47.0781 Q18.7656,45.9219 19.8594,45.3125 Q20.9531,44.6875 22.1875,44.6875 Q22.9219,44.6875 23.5625,44.8594 Q24.2188,45.0156 24.7656,45.375 Z " fill="#000000"/><text fill="#000000" font-family="sans-serif" font-size="14" lengthAdjust="spacing" textLength="196" x="36" y="55.2285">GenerateMaintenanceReportUI</text><line style="stroke:#181818;stroke-width:0.5;" x1="8" x2="234" y1="65.5" y2="65.5"/><line style="stroke:#181818;stroke-width:0.5;" x1="8" x2="234" y1="73.5" y2="73.5"/></g><!--class GenerateMaintenanceReportController--><g id="elem_GenerateMaintenanceReportController"><rect codeLine="15" fill="#F1F1F1" height="65.6094" id="GenerateMaintenanceReportController" rx="2.5" ry="2.5" style="stroke:#181818;stroke-width:0.5;" width="278" x="270" y="24.5"/><ellipse cx="285" cy="40.5" fill="#ADD1B2" rx="11" ry="11" style="stroke:#181818;stroke-width:1.0;"/><path d="M287.7656,36.375 Q287.9219,36.1563 288.1094,36.0469 Q288.2969,35.9375 288.5156,35.9375 Q288.8906,35.9375 289.125,36.2031 Q289.3594,36.4531 289.3594,37.0625 L289.3594,38.5156 Q289.3594,39.125 289.125,39.3906 Q288.8906,39.6563 288.5156,39.6563 Q288.1719,39.6563 287.9688,39.4531 Q287.7656,39.2656 287.6563,38.75 Q287.6094,38.3906 287.4219,38.2031 Q287.0938,37.8281 286.4844,37.6094 Q285.875,37.3906 285.25,37.3906 Q284.4844,37.3906 283.8438,37.7188 Q283.2188,38.0469 282.7188,38.7969 Q282.2344,39.5469 282.2344,40.5781 L282.2344,41.6719 Q282.2344,42.9063 283.125,43.7344 Q284.0156,44.5469 285.6094,44.5469 Q286.5469,44.5469 287.2031,44.2969 Q287.5938,44.1406 288.0156,43.7031 Q288.2813,43.4375 288.4219,43.3594 Q288.5781,43.2813 288.7813,43.2813 Q289.1094,43.2813 289.3594,43.5469 Q289.625,43.7969 289.625,44.1406 Q289.625,44.4844 289.2813,44.8906 Q288.7813,45.4688 287.9844,45.7969 Q286.9063,46.25 285.6094,46.25 Q284.0938,46.25 282.8906,45.625 Q281.9063,45.125 281.2188,44.0625 Q280.5313,42.9844 280.5313,41.7031 L280.5313,40.5469 Q280.5313,39.2188 281.1406,38.0781 Q281.7656,36.9219 282.8594,36.3125 Q283.9531,35.6875 285.1875,35.6875 Q285.9219,35.6875 286.5625,35.8594 Q287.2188,36.0156 287.7656,36.375 Z " fill="#000000"/><text fill="#000000" font-family="sans-serif" font-size="14" lengthAdjust="spacing" textLength="246" x="299" y="46.2285">GenerateMaintenanceReportController</text><line style="stroke:#181818;stroke-width:0.5;" x1="271" x2="547" y1="56.5" y2="56.5"/><line style="stroke:#181818;stroke-width:0.5;" x1="271" x2="547" y1="64.5" y2="64.5"/><text fill="#000000" font-family="sans-serif" font-size="14" lengthAdjust="spacing" textLength="208" x="276" y="83.0332">+getVehiclesRequiringCheckup()</text></g><!--class Repositories--><g id="elem_Repositories"><rect codeLine="22" fill="#F1F1F1" height="100.8281" id="Repositories" rx="2.5" ry="2.5" style="stroke:#181818;stroke-width:0.5;" width="255" x="651.5" y="7"/><ellipse cx="735.25" cy="23" fill="#ADD1B2" rx="11" ry="11" style="stroke:#181818;stroke-width:1.0;"/><path d="M738.0156,18.875 Q738.1719,18.6563 738.3594,18.5469 Q738.5469,18.4375 738.7656,18.4375 Q739.1406,18.4375 739.375,18.7031 Q739.6094,18.9531 739.6094,19.5625 L739.6094,21.0156 Q739.6094,21.625 739.375,21.8906 Q739.1406,22.1563 738.7656,22.1563 Q738.4219,22.1563 738.2188,21.9531 Q738.0156,21.7656 737.9063,21.25 Q737.8594,20.8906 737.6719,20.7031 Q737.3438,20.3281 736.7344,20.1094 Q736.125,19.8906 735.5,19.8906 Q734.7344,19.8906 734.0938,20.2188 Q733.4688,20.5469 732.9688,21.2969 Q732.4844,22.0469 732.4844,23.0781 L732.4844,24.1719 Q732.4844,25.4063 733.375,26.2344 Q734.2656,27.0469 735.8594,27.0469 Q736.7969,27.0469 737.4531,26.7969 Q737.8438,26.6406 738.2656,26.2031 Q738.5313,25.9375 738.6719,25.8594 Q738.8281,25.7813 739.0313,25.7813 Q739.3594,25.7813 739.6094,26.0469 Q739.875,26.2969 739.875,26.6406 Q739.875,26.9844 739.5313,27.3906 Q739.0313,27.9688 738.2344,28.2969 Q737.1563,28.75 735.8594,28.75 Q734.3438,28.75 733.1406,28.125 Q732.1563,27.625 731.4688,26.5625 Q730.7813,25.4844 730.7813,24.2031 L730.7813,23.0469 Q730.7813,21.7188 731.3906,20.5781 Q732.0156,19.4219 733.1094,18.8125 Q734.2031,18.1875 735.4375,18.1875 Q736.1719,18.1875 736.8125,18.3594 Q737.4688,18.5156 738.0156,18.875 Z " fill="#000000"/><text fill="#000000" font-family="sans-serif" font-size="14" lengthAdjust="spacing" textLength="79" x="755.75" y="28.7285">Repositories</text><line style="stroke:#181818;stroke-width:0.5;" x1="652.5" x2="905.5" y1="39" y2="39"/><line style="stroke:#181818;stroke-width:0.5;" x1="652.5" x2="905.5" y1="47" y2="47"/><text fill="#000000" font-family="sans-serif" font-size="14" lengthAdjust="spacing" textLength="181" x="657.5" y="65.5332">-Repositories(): Repositories</text><text fill="#000000" font-family="sans-serif" font-size="14" lengthAdjust="spacing" textLength="182" x="657.5" y="83.1426">+getInstance() : Repositories</text><text fill="#000000" font-family="sans-serif" font-size="14" lengthAdjust="spacing" textLength="243" x="657.5" y="100.752">+getVehicleRepository() : Repositories</text></g><!--class VehicleRepository--><g id="elem_VehicleRepository"><rect codeLine="29" fill="#F1F1F1" height="65.6094" id="VehicleRepository" rx="2.5" ry="2.5" style="stroke:#181818;stroke-width:0.5;" width="146" x="531" y="248"/><ellipse cx="546" cy="264" fill="#ADD1B2" rx="11" ry="11" style="stroke:#181818;stroke-width:1.0;"/><path d="M548.7656,259.875 Q548.9219,259.6563 549.1094,259.5469 Q549.2969,259.4375 549.5156,259.4375 Q549.8906,259.4375 550.125,259.7031 Q550.3594,259.9531 550.3594,260.5625 L550.3594,262.0156 Q550.3594,262.625 550.125,262.8906 Q549.8906,263.1563 549.5156,263.1563 Q549.1719,263.1563 548.9688,262.9531 Q548.7656,262.7656 548.6563,262.25 Q548.6094,261.8906 548.4219,261.7031 Q548.0938,261.3281 547.4844,261.1094 Q546.875,260.8906 546.25,260.8906 Q545.4844,260.8906 544.8438,261.2188 Q544.2188,261.5469 543.7188,262.2969 Q543.2344,263.0469 543.2344,264.0781 L543.2344,265.1719 Q543.2344,266.4063 544.125,267.2344 Q545.0156,268.0469 546.6094,268.0469 Q547.5469,268.0469 548.2031,267.7969 Q548.5938,267.6406 549.0156,267.2031 Q549.2813,266.9375 549.4219,266.8594 Q549.5781,266.7813 549.7813,266.7813 Q550.1094,266.7813 550.3594,267.0469 Q550.625,267.2969 550.625,267.6406 Q550.625,267.9844 550.2813,268.3906 Q549.7813,268.9688 548.9844,269.2969 Q547.9063,269.75 546.6094,269.75 Q545.0938,269.75 543.8906,269.125 Q542.9063,268.625 542.2188,267.5625 Q541.5313,266.4844 541.5313,265.2031 L541.5313,264.0469 Q541.5313,262.7188 542.1406,261.5781 Q542.7656,260.4219 543.8594,259.8125 Q544.9531,259.1875 546.1875,259.1875 Q546.9219,259.1875 547.5625,259.3594 Q548.2188,259.5156 548.7656,259.875 Z " fill="#000000"/><text fill="#000000" font-family="sans-serif" font-size="14" lengthAdjust="spacing" textLength="114" x="560" y="269.7285">VehicleRepository</text><line style="stroke:#181818;stroke-width:0.5;" x1="532" x2="676" y1="280" y2="280"/><line style="stroke:#181818;stroke-width:0.5;" x1="532" x2="676" y1="288" y2="288"/><text fill="#000000" font-family="sans-serif" font-size="14" lengthAdjust="spacing" textLength="66" x="537" y="306.5332">+register()</text></g><!--class Vehicle--><g id="elem_Vehicle"><rect codeLine="34" fill="#F1F1F1" height="136.0469" id="Vehicle" rx="2.5" ry="2.5" style="stroke:#181818;stroke-width:0.5;" width="116" x="546" y="516"/><ellipse cx="578.1" cy="532" fill="#ADD1B2" rx="11" ry="11" style="stroke:#181818;stroke-width:1.0;"/><path d="M580.8656,527.875 Q581.0219,527.6563 581.2094,527.5469 Q581.3969,527.4375 581.6156,527.4375 Q581.9906,527.4375 582.225,527.7031 Q582.4594,527.9531 582.4594,528.5625 L582.4594,530.0156 Q582.4594,530.625 582.225,530.8906 Q581.9906,531.1563 581.6156,531.1563 Q581.2719,531.1563 581.0688,530.9531 Q580.8656,530.7656 580.7563,530.25 Q580.7094,529.8906 580.5219,529.7031 Q580.1938,529.3281 579.5844,529.1094 Q578.975,528.8906 578.35,528.8906 Q577.5844,528.8906 576.9438,529.2188 Q576.3188,529.5469 575.8188,530.2969 Q575.3344,531.0469 575.3344,532.0781 L575.3344,533.1719 Q575.3344,534.4063 576.225,535.2344 Q577.1156,536.0469 578.7094,536.0469 Q579.6469,536.0469 580.3031,535.7969 Q580.6938,535.6406 581.1156,535.2031 Q581.3813,534.9375 581.5219,534.8594 Q581.6781,534.7813 581.8813,534.7813 Q582.2094,534.7813 582.4594,535.0469 Q582.725,535.2969 582.725,535.6406 Q582.725,535.9844 582.3813,536.3906 Q581.8813,536.9688 581.0844,537.2969 Q580.0063,537.75 578.7094,537.75 Q577.1938,537.75 575.9906,537.125 Q575.0063,536.625 574.3188,535.5625 Q573.6313,534.4844 573.6313,533.2031 L573.6313,532.0469 Q573.6313,530.7188 574.2406,529.5781 Q574.8656,528.4219 575.9594,527.8125 Q577.0531,527.1875 578.2875,527.1875 Q579.0219,527.1875 579.6625,527.3594 Q580.3188,527.5156 580.8656,527.875 Z " fill="#000000"/><text fill="#000000" font-family="sans-serif" font-size="14" lengthAdjust="spacing" textLength="46" x="595.9" y="537.7285">Vehicle</text><line style="stroke:#181818;stroke-width:0.5;" x1="547" x2="661" y1="548" y2="548"/><text fill="#000000" font-family="sans-serif" font-size="14" lengthAdjust="spacing" textLength="85" x="552" y="566.5332">-plate : String</text><text fill="#000000" font-family="sans-serif" font-size="14" lengthAdjust="spacing" textLength="91" x="552" y="584.1426">-brand : String</text><text fill="#000000" font-family="sans-serif" font-size="14" lengthAdjust="spacing" textLength="92" x="552" y="601.752">-model : String</text><text fill="#000000" font-family="sans-serif" font-size="14" lengthAdjust="spacing" textLength="104" x="552" y="619.3613">-currentKms : int</text><line style="stroke:#181818;stroke-width:0.5;" x1="547" x2="661" y1="626.4375" y2="626.4375"/><text fill="#000000" font-family="sans-serif" font-size="14" lengthAdjust="spacing" textLength="64" x="552" y="644.9707">+Vehicle()</text></g><!--link GenerateMaintenanceReportUI to GenerateMaintenanceReportController--><g id="link_GenerateMaintenanceReportUI_GenerateMaintenanceReportController"><path codeLine="43" d="M235.06,57.5 C243.55,57.5 254.13,57.5 264.73,57.5 " fill="none" id="GenerateMaintenanceReportUI-to-GenerateMaintenanceReportController" style="stroke:#181818;stroke-width:1.0;stroke-dasharray:7.0,7.0;"/><polygon fill="#181818" points="269.92,57.5,260.92,53.5,264.92,57.5,260.92,61.5,269.92,57.5" style="stroke:#181818;stroke-width:1.0;"/></g><!--link GenerateMaintenanceReportController to Repositories--><g id="link_GenerateMaintenanceReportController_Repositories"><path codeLine="44" d="M548.09,57.5 C580.29,57.5 614.47,57.5 646.38,57.5 " fill="none" id="GenerateMaintenanceReportController-to-Repositories" style="stroke:#181818;stroke-width:1.0;stroke-dasharray:7.0,7.0;"/><polygon fill="#181818" points="651.48,57.5,642.48,53.5,646.48,57.5,642.48,61.5,651.48,57.5" style="stroke:#181818;stroke-width:1.0;"/><text fill="#000000" font-family="sans-serif" font-size="13" lengthAdjust="spacing" textLength="67" x="566.25" y="50.9951">repositories</text></g><!--link Repositories to VehicleRepository--><g id="link_Repositories_VehicleRepository"><path codeLine="45" d="M739.73,108.21 C707.15,149.44 661.62,207.07 632.46,243.97 " fill="none" id="Repositories-to-VehicleRepository" style="stroke:#181818;stroke-width:1.0;"/><polygon fill="#181818" points="629.34,247.92,638.0552,243.3326,632.4373,243.9949,631.775,238.3769,629.34,247.92" style="stroke:#181818;stroke-width:1.0;"/><text fill="#000000" font-family="sans-serif" font-size="13" lengthAdjust="spacing" textLength="7" x="626.8445" y="237.0189">1</text></g><!--link Repositories to Repositories--><g id="link_Repositories_Repositories"><path codeLine="46" d="M906.73,43.65 C927.36,45.66 941.5,50.27 941.5,57.5 C941.5,64.11 929.68,68.53 911.9,70.77 " fill="none" id="Repositories-to-Repositories" style="stroke:#181818;stroke-width:1.0;"/><polygon fill="#181818" points="906.73,71.35,916.1195,74.3228,911.6989,70.7931,915.2285,66.3725,906.73,71.35" style="stroke:#181818;stroke-width:1.0;"/><text fill="#000000" font-family="sans-serif" font-size="13" lengthAdjust="spacing" textLength="49" x="947.5" y="62.9951">instance</text></g><!--link Repositories to Vehicle--><g id="link_Repositories_Vehicle"><path codeLine="47" d="M777.33,108.07 C776.23,140.54 775,177 775,177 C775,177 775,177 775,455 C775,455 715.31,499.68 666.46,536.24 " fill="none" id="Repositories-to-Vehicle" style="stroke:#181818;stroke-width:1.0;"/><polygon fill="#181818" points="662.37,539.31,671.97,537.11,666.37,536.31,667.17,530.71,662.37,539.31" style="stroke:#181818;stroke-width:1.0;"/><text fill="#000000" font-family="sans-serif" font-size="13" lengthAdjust="spacing" textLength="7" x="769.6353" y="129.4706">1</text><text fill="#000000" font-family="sans-serif" font-size="13" lengthAdjust="spacing" textLength="5" x="670.169" y="530.0737">*</text></g><!--link VehicleRepository to Vehicle--><g id="link_VehicleRepository_Vehicle"><path codeLine="49" d="M604,314.21 C604,360.75 604,448.06 604,510.55 " fill="none" id="VehicleRepository-to-Vehicle" style="stroke:#181818;stroke-width:1.0;"/><polygon fill="#181818" points="604,515.76,608,506.76,604,510.76,600,506.76,604,515.76" style="stroke:#181818;stroke-width:1.0;"/><text fill="#000000" font-family="sans-serif" font-size="13" lengthAdjust="spacing" textLength="5" x="598.7266" y="504.933">*</text></g><!--link GenerateMaintenanceReportController to Vehicle--><g id="link_GenerateMaintenanceReportController_Vehicle"><path codeLine="51" d="M415.77,90.57 C423.17,125.66 434,177 434,177 C434,177 434,177 434,455 C434,455 493.34,499.68 541.9,536.24 " fill="none" id="GenerateMaintenanceReportController-to-Vehicle" style="stroke:#181818;stroke-width:1.0;stroke-dasharray:7.0,7.0;"/><polygon fill="#181818" points="545.97,539.31,541.1896,530.6991,541.9769,536.3009,536.375,537.0881,545.97,539.31" style="stroke:#181818;stroke-width:1.0;"/><text fill="#000000" font-family="sans-serif" font-size="13" lengthAdjust="spacing" textLength="43" x="435" y="358.4951">Vehicle</text></g><!--link GenerateMaintenanceReportController to VehicleRepository--><g id="link_GenerateMaintenanceReportController_VehicleRepository"><path codeLine="52" d="M437.35,90.71 C473.24,131.47 534.88,201.49 572.29,243.98 " fill="none" id="GenerateMaintenanceReportController-to-VehicleRepository" style="stroke:#181818;stroke-width:1.0;stroke-dasharray:7.0,7.0;"/><polygon fill="#181818" points="575.61,247.75,572.6559,238.3546,572.3024,244.0004,566.6566,243.6468,575.61,247.75" style="stroke:#181818;stroke-width:1.0;"/><text fill="#000000" font-family="sans-serif" font-size="13" lengthAdjust="spacing" textLength="105" x="523" y="183.4951">VehicleRepository</text><text fill="#000000" font-family="sans-serif" font-size="13" lengthAdjust="spacing" textLength="7" x="562.3317" y="237.1971">1</text></g><!--SRC=[ZL71Ri8m3BtdAomkm52hxSgXqiHXGjCkeEqUWcaZqgHpN4qTuj-NTb3QTMpa5h_dvsU_iTzhMqYIEUJEEfMHon6OIXGNf91gBrDSSsKG21LBcvekmMTowpwqJM4dZUyYHblaga0edAdgZnZ_0ZfY9pfToaZl7vb9Rqh6fN9shJyHxeKO6zmni0FIQSQmrRKTxQmGJGyyeKMIZ2zIMqOhhS8L5a7_TNaGH_4lRU4iapC6wH380iARfSXlc6bbqA_mlTGK5bragFPbCPaAE9v5QmMlsP563uUcD-eL9zDvx_yj3q5_QJtN9YPJk4OvMMZ1QiYzx3SWd_pCGdofzemKd8lM-PdVaAB2XCi4xJNNcpPzTNb3qcw7vTnjqGpBgYH2oy-v3rWuyXcOdKQ5-RNTF_A2E85RWXAta22EOqhw4St3CJhNws5H52KmUXWDB_c3Dz3KfoZxl5ggaRnh9OKOfZIWtBfRU4aROt1n5hYr_ygo5wLBxGi0]--></g></svg>