<?xml version="1.0" encoding="UTF-8" standalone="no"?><svg xmlns="http://www.w3.org/2000/svg" xmlns:xlink="http://www.w3.org/1999/xlink" contentStyleType="text/css" height="579px" preserveAspectRatio="none" style="width:891px;height:579px;background:#FFFFFF;" version="1.1" viewBox="0 0 891 579" width="891px" zoomAndPan="magnify"><defs/><g><!--class GreenSpace--><g id="elem_GreenSpace"><rect codeLine="6" fill="#F1F1F1" height="118.4375" id="GreenSpace" rx="2.5" ry="2.5" style="stroke:#181818;stroke-width:0.5;" width="202" x="40" y="454"/><ellipse cx="96.75" cy="470" fill="#ADD1B2" rx="11" ry="11" style="stroke:#181818;stroke-width:1.0;"/><path d="M99.5156,465.875 Q99.6719,465.6563 99.8594,465.5469 Q100.0469,465.4375 100.2656,465.4375 Q100.6406,465.4375 100.875,465.7031 Q101.1094,465.9531 101.1094,466.5625 L101.1094,468.0156 Q101.1094,468.625 100.875,468.8906 Q100.6406,469.1563 100.2656,469.1563 Q99.9219,469.1563 99.7188,468.9531 Q99.5156,468.7656 99.4063,468.25 Q99.3594,467.8906 99.1719,467.7031 Q98.8438,467.3281 98.2344,467.1094 Q97.625,466.8906 97,466.8906 Q96.2344,466.8906 95.5938,467.2188 Q94.9688,467.5469 94.4688,468.2969 Q93.9844,469.0469 93.9844,470.0781 L93.9844,471.1719 Q93.9844,472.4063 94.875,473.2344 Q95.7656,474.0469 97.3594,474.0469 Q98.2969,474.0469 98.9531,473.7969 Q99.3438,473.6406 99.7656,473.2031 Q100.0313,472.9375 100.1719,472.8594 Q100.3281,472.7813 100.5313,472.7813 Q100.8594,472.7813 101.1094,473.0469 Q101.375,473.2969 101.375,473.6406 Q101.375,473.9844 101.0313,474.3906 Q100.5313,474.9688 99.7344,475.2969 Q98.6563,475.75 97.3594,475.75 Q95.8438,475.75 94.6406,475.125 Q93.6563,474.625 92.9688,473.5625 Q92.2813,472.4844 92.2813,471.2031 L92.2813,470.0469 Q92.2813,468.7188 92.8906,467.5781 Q93.5156,466.4219 94.6094,465.8125 Q95.7031,465.1875 96.9375,465.1875 Q97.6719,465.1875 98.3125,465.3594 Q98.9688,465.5156 99.5156,465.875 Z " fill="#000000"/><text fill="#000000" font-family="sans-serif" font-size="14" lengthAdjust="spacing" textLength="80" x="117.25" y="475.7285">GreenSpace</text><line style="stroke:#181818;stroke-width:0.5;" x1="41" x2="241" y1="486" y2="486"/><line style="stroke:#181818;stroke-width:0.5;" x1="41" x2="241" y1="494" y2="494"/><text fill="#000000" font-family="sans-serif" font-size="14" lengthAdjust="spacing" textLength="119" x="46" y="512.5332">+getName(): String</text><text fill="#000000" font-family="sans-serif" font-size="14" lengthAdjust="spacing" textLength="135" x="46" y="530.1426">+getAddress(): String</text><text fill="#000000" font-family="sans-serif" font-size="14" lengthAdjust="spacing" textLength="91" x="46" y="547.752">+getArea(): int</text><text fill="#000000" font-family="sans-serif" font-size="14" lengthAdjust="spacing" textLength="190" x="46" y="565.3613">+getType(): GreenSpaceType</text></g><!--class RegisterGreenSpaceController--><g id="elem_RegisterGreenSpaceController"><rect codeLine="16" fill="#F1F1F1" height="100.8281" id="RegisterGreenSpaceController" rx="2.5" ry="2.5" style="stroke:#181818;stroke-width:0.5;" width="540" x="7" y="150"/><ellipse cx="175.25" cy="166" fill="#ADD1B2" rx="11" ry="11" style="stroke:#181818;stroke-width:1.0;"/><path d="M178.0156,161.875 Q178.1719,161.6563 178.3594,161.5469 Q178.5469,161.4375 178.7656,161.4375 Q179.1406,161.4375 179.375,161.7031 Q179.6094,161.9531 179.6094,162.5625 L179.6094,164.0156 Q179.6094,164.625 179.375,164.8906 Q179.1406,165.1563 178.7656,165.1563 Q178.4219,165.1563 178.2188,164.9531 Q178.0156,164.7656 177.9063,164.25 Q177.8594,163.8906 177.6719,163.7031 Q177.3438,163.3281 176.7344,163.1094 Q176.125,162.8906 175.5,162.8906 Q174.7344,162.8906 174.0938,163.2188 Q173.4688,163.5469 172.9688,164.2969 Q172.4844,165.0469 172.4844,166.0781 L172.4844,167.1719 Q172.4844,168.4063 173.375,169.2344 Q174.2656,170.0469 175.8594,170.0469 Q176.7969,170.0469 177.4531,169.7969 Q177.8438,169.6406 178.2656,169.2031 Q178.5313,168.9375 178.6719,168.8594 Q178.8281,168.7813 179.0313,168.7813 Q179.3594,168.7813 179.6094,169.0469 Q179.875,169.2969 179.875,169.6406 Q179.875,169.9844 179.5313,170.3906 Q179.0313,170.9688 178.2344,171.2969 Q177.1563,171.75 175.8594,171.75 Q174.3438,171.75 173.1406,171.125 Q172.1563,170.625 171.4688,169.5625 Q170.7813,168.4844 170.7813,167.2031 L170.7813,166.0469 Q170.7813,164.7188 171.3906,163.5781 Q172.0156,162.4219 173.1094,161.8125 Q174.2031,161.1875 175.4375,161.1875 Q176.1719,161.1875 176.8125,161.3594 Q177.4688,161.5156 178.0156,161.875 Z " fill="#000000"/><text fill="#000000" font-family="sans-serif" font-size="14" lengthAdjust="spacing" textLength="195" x="195.75" y="171.7285">RegisterGreenSpaceController</text><line style="stroke:#181818;stroke-width:0.5;" x1="8" x2="546" y1="182" y2="182"/><text fill="#000000" font-family="sans-serif" font-size="14" lengthAdjust="spacing" textLength="309" x="13" y="200.5332">-GreenSpaceRepository: GreenSpaceRepository</text><line style="stroke:#181818;stroke-width:0.5;" x1="8" x2="546" y1="207.6094" y2="207.6094"/><text fill="#000000" font-family="sans-serif" font-size="14" lengthAdjust="spacing" textLength="213" x="13" y="226.1426">+RegisterGreenSpaceController()</text><text fill="#000000" font-family="sans-serif" font-size="14" lengthAdjust="spacing" textLength="528" x="13" y="243.752">+registerGreenSpace(String, String, int, GreenSpaceType): Optional&lt;GreenSpace&gt;</text></g><!--class GreenSpaceRepository--><g id="elem_GreenSpaceRepository"><rect codeLine="22" fill="#F1F1F1" height="65.6094" id="GreenSpaceRepository" rx="2.5" ry="2.5" style="stroke:#181818;stroke-width:0.5;" width="436" x="59" y="319.5"/><ellipse cx="198.75" cy="335.5" fill="#ADD1B2" rx="11" ry="11" style="stroke:#181818;stroke-width:1.0;"/><path d="M201.5156,331.375 Q201.6719,331.1563 201.8594,331.0469 Q202.0469,330.9375 202.2656,330.9375 Q202.6406,330.9375 202.875,331.2031 Q203.1094,331.4531 203.1094,332.0625 L203.1094,333.5156 Q203.1094,334.125 202.875,334.3906 Q202.6406,334.6563 202.2656,334.6563 Q201.9219,334.6563 201.7188,334.4531 Q201.5156,334.2656 201.4063,333.75 Q201.3594,333.3906 201.1719,333.2031 Q200.8438,332.8281 200.2344,332.6094 Q199.625,332.3906 199,332.3906 Q198.2344,332.3906 197.5938,332.7188 Q196.9688,333.0469 196.4688,333.7969 Q195.9844,334.5469 195.9844,335.5781 L195.9844,336.6719 Q195.9844,337.9063 196.875,338.7344 Q197.7656,339.5469 199.3594,339.5469 Q200.2969,339.5469 200.9531,339.2969 Q201.3438,339.1406 201.7656,338.7031 Q202.0313,338.4375 202.1719,338.3594 Q202.3281,338.2813 202.5313,338.2813 Q202.8594,338.2813 203.1094,338.5469 Q203.375,338.7969 203.375,339.1406 Q203.375,339.4844 203.0313,339.8906 Q202.5313,340.4688 201.7344,340.7969 Q200.6563,341.25 199.3594,341.25 Q197.8438,341.25 196.6406,340.625 Q195.6563,340.125 194.9688,339.0625 Q194.2813,337.9844 194.2813,336.7031 L194.2813,335.5469 Q194.2813,334.2188 194.8906,333.0781 Q195.5156,331.9219 196.6094,331.3125 Q197.7031,330.6875 198.9375,330.6875 Q199.6719,330.6875 200.3125,330.8594 Q200.9688,331.0156 201.5156,331.375 Z " fill="#000000"/><text fill="#000000" font-family="sans-serif" font-size="14" lengthAdjust="spacing" textLength="148" x="219.25" y="341.2285">GreenSpaceRepository</text><line style="stroke:#181818;stroke-width:0.5;" x1="60" x2="494" y1="351.5" y2="351.5"/><line style="stroke:#181818;stroke-width:0.5;" x1="60" x2="494" y1="359.5" y2="359.5"/><text fill="#000000" font-family="sans-serif" font-size="14" lengthAdjust="spacing" textLength="424" x="65" y="378.0332">+add(String, String, int, GreenSpaceType): Optional&lt;GreenSpace&gt;</text></g><!--class Repositories--><g id="elem_Repositories"><rect codeLine="26" fill="#F1F1F1" height="83.2188" id="Repositories" rx="2.5" ry="2.5" style="stroke:#181818;stroke-width:0.5;" width="354" x="530" y="311"/><ellipse cx="663.25" cy="327" fill="#ADD1B2" rx="11" ry="11" style="stroke:#181818;stroke-width:1.0;"/><path d="M666.0156,322.875 Q666.1719,322.6563 666.3594,322.5469 Q666.5469,322.4375 666.7656,322.4375 Q667.1406,322.4375 667.375,322.7031 Q667.6094,322.9531 667.6094,323.5625 L667.6094,325.0156 Q667.6094,325.625 667.375,325.8906 Q667.1406,326.1563 666.7656,326.1563 Q666.4219,326.1563 666.2188,325.9531 Q666.0156,325.7656 665.9063,325.25 Q665.8594,324.8906 665.6719,324.7031 Q665.3438,324.3281 664.7344,324.1094 Q664.125,323.8906 663.5,323.8906 Q662.7344,323.8906 662.0938,324.2188 Q661.4688,324.5469 660.9688,325.2969 Q660.4844,326.0469 660.4844,327.0781 L660.4844,328.1719 Q660.4844,329.4063 661.375,330.2344 Q662.2656,331.0469 663.8594,331.0469 Q664.7969,331.0469 665.4531,330.7969 Q665.8438,330.6406 666.2656,330.2031 Q666.5313,329.9375 666.6719,329.8594 Q666.8281,329.7813 667.0313,329.7813 Q667.3594,329.7813 667.6094,330.0469 Q667.875,330.2969 667.875,330.6406 Q667.875,330.9844 667.5313,331.3906 Q667.0313,331.9688 666.2344,332.2969 Q665.1563,332.75 663.8594,332.75 Q662.3438,332.75 661.1406,332.125 Q660.1563,331.625 659.4688,330.5625 Q658.7813,329.4844 658.7813,328.2031 L658.7813,327.0469 Q658.7813,325.7188 659.3906,324.5781 Q660.0156,323.4219 661.1094,322.8125 Q662.2031,322.1875 663.4375,322.1875 Q664.1719,322.1875 664.8125,322.3594 Q665.4688,322.5156 666.0156,322.875 Z " fill="#000000"/><text fill="#000000" font-family="sans-serif" font-size="14" lengthAdjust="spacing" textLength="79" x="683.75" y="332.7285">Repositories</text><line style="stroke:#181818;stroke-width:0.5;" x1="531" x2="883" y1="343" y2="343"/><line style="stroke:#181818;stroke-width:0.5;" x1="531" x2="883" y1="351" y2="351"/><text fill="#000000" font-family="sans-serif" font-size="14" lengthAdjust="spacing" textLength="178" x="536" y="369.5332">+getInstance(): Repositories</text><text fill="#000000" font-family="sans-serif" font-size="14" lengthAdjust="spacing" textLength="342" x="536" y="387.1426">+getGreenSpaceRepository(): GreenSpaceRepository</text></g><!--class RegisterGreenSpaceUI--><g id="elem_RegisterGreenSpaceUI"><rect codeLine="31" fill="#F1F1F1" height="83.2188" id="RegisterGreenSpaceUI" rx="2.5" ry="2.5" style="stroke:#181818;stroke-width:0.5;" width="448" x="53" y="7"/><ellipse cx="200.25" cy="23" fill="#ADD1B2" rx="11" ry="11" style="stroke:#181818;stroke-width:1.0;"/><path d="M203.0156,18.875 Q203.1719,18.6563 203.3594,18.5469 Q203.5469,18.4375 203.7656,18.4375 Q204.1406,18.4375 204.375,18.7031 Q204.6094,18.9531 204.6094,19.5625 L204.6094,21.0156 Q204.6094,21.625 204.375,21.8906 Q204.1406,22.1563 203.7656,22.1563 Q203.4219,22.1563 203.2188,21.9531 Q203.0156,21.7656 202.9063,21.25 Q202.8594,20.8906 202.6719,20.7031 Q202.3438,20.3281 201.7344,20.1094 Q201.125,19.8906 200.5,19.8906 Q199.7344,19.8906 199.0938,20.2188 Q198.4688,20.5469 197.9688,21.2969 Q197.4844,22.0469 197.4844,23.0781 L197.4844,24.1719 Q197.4844,25.4063 198.375,26.2344 Q199.2656,27.0469 200.8594,27.0469 Q201.7969,27.0469 202.4531,26.7969 Q202.8438,26.6406 203.2656,26.2031 Q203.5313,25.9375 203.6719,25.8594 Q203.8281,25.7813 204.0313,25.7813 Q204.3594,25.7813 204.6094,26.0469 Q204.875,26.2969 204.875,26.6406 Q204.875,26.9844 204.5313,27.3906 Q204.0313,27.9688 203.2344,28.2969 Q202.1563,28.75 200.8594,28.75 Q199.3438,28.75 198.1406,28.125 Q197.1563,27.625 196.4688,26.5625 Q195.7813,25.4844 195.7813,24.2031 L195.7813,23.0469 Q195.7813,21.7188 196.3906,20.5781 Q197.0156,19.4219 198.1094,18.8125 Q199.2031,18.1875 200.4375,18.1875 Q201.1719,18.1875 201.8125,18.3594 Q202.4688,18.5156 203.0156,18.875 Z " fill="#000000"/><text fill="#000000" font-family="sans-serif" font-size="14" lengthAdjust="spacing" textLength="145" x="220.75" y="28.7285">RegisterGreenSpaceUI</text><line style="stroke:#181818;stroke-width:0.5;" x1="54" x2="500" y1="39" y2="39"/><text fill="#000000" font-family="sans-serif" font-size="14" lengthAdjust="spacing" textLength="398" x="59" y="57.5332">-registerGreenSpaceController: RegisterGreenSpaceController</text><line style="stroke:#181818;stroke-width:0.5;" x1="54" x2="500" y1="64.6094" y2="64.6094"/><text fill="#000000" font-family="sans-serif" font-size="14" lengthAdjust="spacing" textLength="436" x="59" y="83.1426">+getRegisterGreenSpaceController(): RegisterGreenSpaceController</text></g><!--link RegisterGreenSpaceController to GreenSpaceRepository--><g id="link_RegisterGreenSpaceController_GreenSpaceRepository"><path codeLine="39" d="M277,251.03 C277,271.62 277,295.12 277,314.21 " fill="none" id="RegisterGreenSpaceController-to-GreenSpaceRepository" style="stroke:#181818;stroke-width:1.0;"/><polygon fill="#181818" points="277,319.48,281,310.48,277,314.48,273,310.48,277,319.48" style="stroke:#181818;stroke-width:1.0;"/></g><!--link RegisterGreenSpaceController to GreenSpace--><g id="link_RegisterGreenSpaceController_GreenSpace"><path codeLine="40" d="M170.05,251.12 C107.61,280.1 41,311 41,311 C41,311 41,394 41,394 C41,394 64.26,421.44 88.34,449.86 " fill="none" id="RegisterGreenSpaceController-to-GreenSpace" style="stroke:#181818;stroke-width:1.0;"/><polygon fill="#181818" points="91.59,453.69,88.8285,444.2362,88.3596,449.8736,82.7223,449.4048,91.59,453.69" style="stroke:#181818;stroke-width:1.0;"/></g><!--link GreenSpaceRepository to GreenSpace--><g id="link_GreenSpaceRepository_GreenSpace"><path codeLine="41" d="M249.48,385.57 C233.63,404.05 213.17,427.89 194.3,449.89 " fill="none" id="GreenSpaceRepository-to-GreenSpace" style="stroke:#181818;stroke-width:1.0;"/><polygon fill="#181818" points="191.04,453.68,199.942,449.4664,194.301,449.8898,193.8777,444.2488,191.04,453.68" style="stroke:#181818;stroke-width:1.0;"/></g><!--link RegisterGreenSpaceController to Repositories--><g id="link_RegisterGreenSpaceController_Repositories"><path codeLine="42" d="M418.99,251.03 C472.9,269.84 533.77,291.07 585.61,309.15 " fill="none" id="RegisterGreenSpaceController-to-Repositories" style="stroke:#181818;stroke-width:1.0;stroke-dasharray:7.0,7.0;"/><polygon fill="#181818" points="590.6,310.89,583.4176,304.1511,585.8785,309.2446,580.785,311.7055,590.6,310.89" style="stroke:#181818;stroke-width:1.0;"/></g><!--link RegisterGreenSpaceUI to RegisterGreenSpaceController--><g id="link_RegisterGreenSpaceUI_RegisterGreenSpaceController"><path codeLine="43" d="M277,90.09 C277,106.91 277,126.66 277,144.73 " fill="none" id="RegisterGreenSpaceUI-to-RegisterGreenSpaceController" style="stroke:#181818;stroke-width:1.0;"/><polygon fill="#181818" points="277,149.78,281,140.78,277,144.78,273,140.78,277,149.78" style="stroke:#181818;stroke-width:1.0;"/></g><!--SRC=[hL91JiCm4Bpx5JwcegquHoXInG7b0b833p394gowjhKsGW7rxzWbZTrWZ2gHYvNPyUpiZisEIysGxQbcxOxrqDX104LeBPEz068cWdbbdNhdigSlJ9Yu8hW4EsYWMed1_qIrLZ1ZDjOYVtwpKBTADlm3w3KXnmgzGm3PkEP0FmbrtnNjmTwpFHIBaZRkdkm3lkaw16EI9GJcSIvj01-TAm-6BXuXv438oS0MUcuiOA3SAcbH2G4uMbf5zxUWbU5MuL0cqR5tJhLOZ2JyGIg-frhIq-ccMSxSkt4UjELACd4JAfMVQRxIO6jQBkkwVsaoINCmSNArDExbjCUjnvp0IDaxpoZQvk7tc9vgrtVC1pFhBhDXa60idzbVCivfzYcjLbLwn0jkaMIqCqvMRxskpcD9xjKhvcI-0000]--></g></svg>