<?xml version="1.0" encoding="UTF-8" standalone="no"?><svg xmlns="http://www.w3.org/2000/svg" xmlns:xlink="http://www.w3.org/1999/xlink" contentStyleType="text/css" height="807px" preserveAspectRatio="none" style="width:931px;height:807px;background:#FFFFFF;" version="1.1" viewBox="0 0 931 807" width="931px" zoomAndPan="magnify"><defs/><g><!--class Organization--><g id="elem_Organization"><rect codeLine="10" fill="#F1F1F1" height="168.9375" id="Organization" rx="2.5" ry="2.5" style="stroke:#181818;stroke-width:0.5;" width="133" x="7" y="77.3945"/><text fill="#000000" font-family="sans-serif" font-size="20" lengthAdjust="spacing" textLength="110" x="18.5" y="103.1563">Organization</text><line style="stroke:#181818;stroke-width:0.5;" x1="8" x2="139" y1="112.5508" y2="112.5508"/><text fill="#000000" font-family="sans-serif" font-size="20" lengthAdjust="spacing" textLength="48" x="13" y="137.3125">name</text><text fill="#000000" font-family="sans-serif" font-size="20" lengthAdjust="spacing" textLength="94" x="13" y="162.4688">vatNumber</text><text fill="#000000" font-family="sans-serif" font-size="20" lengthAdjust="spacing" textLength="68" x="13" y="187.625">website</text><text fill="#000000" font-family="sans-serif" font-size="20" lengthAdjust="spacing" textLength="121" x="13" y="212.7813">phoneNumber</text><text fill="#000000" font-family="sans-serif" font-size="20" lengthAdjust="spacing" textLength="46" x="13" y="237.9375">email</text></g><!--class HumanResourcesManager--><g id="elem_HumanResourcesManager"><rect codeLine="18" fill="#F1F1F1" height="118.625" id="HumanResourcesManager" rx="2.5" ry="2.5" style="stroke:#181818;stroke-width:0.5;" width="238" x="227.5" y="102.3945"/><text fill="#000000" font-family="sans-serif" font-size="20" lengthAdjust="spacing" textLength="232" x="230.5" y="128.1563">HumanResourcesManager</text><line style="stroke:#181818;stroke-width:0.5;" x1="228.5" x2="464.5" y1="137.5508" y2="137.5508"/><text fill="#000000" font-family="sans-serif" font-size="20" lengthAdjust="spacing" textLength="48" x="233.5" y="162.3125">name</text><text fill="#000000" font-family="sans-serif" font-size="20" lengthAdjust="spacing" textLength="46" x="233.5" y="187.4688">email</text><text fill="#000000" font-family="sans-serif" font-size="20" lengthAdjust="spacing" textLength="53" x="233.5" y="212.625">phone</text></g><!--class Collaborator--><g id="elem_Collaborator"><rect codeLine="24" fill="#F1F1F1" height="194.0938" id="Collaborator" rx="2.5" ry="2.5" style="stroke:#181818;stroke-width:0.5;" width="144" x="602.5" y="64.8945"/><text fill="#000000" font-family="sans-serif" font-size="20" lengthAdjust="spacing" textLength="108" x="620.5" y="90.6563">Collaborator</text><line style="stroke:#181818;stroke-width:0.5;" x1="603.5" x2="745.5" y1="100.0508" y2="100.0508"/><text fill="#000000" font-family="sans-serif" font-size="20" lengthAdjust="spacing" textLength="48" x="608.5" y="124.8125">name</text><text fill="#000000" font-family="sans-serif" font-size="20" lengthAdjust="spacing" textLength="77" x="608.5" y="149.9688">birthdate</text><text fill="#000000" font-family="sans-serif" font-size="20" lengthAdjust="spacing" textLength="132" x="608.5" y="175.125">admission date</text><text fill="#000000" font-family="sans-serif" font-size="20" lengthAdjust="spacing" textLength="71" x="608.5" y="200.2813">address</text><text fill="#000000" font-family="sans-serif" font-size="20" lengthAdjust="spacing" textLength="46" x="608.5" y="225.4375">email</text><text fill="#000000" font-family="sans-serif" font-size="20" lengthAdjust="spacing" textLength="53" x="608.5" y="250.5938">phone</text></g><!--class Skill--><g id="elem_Skill"><rect codeLine="33" fill="#F1F1F1" height="68.3125" id="Skill" rx="2.5" ry="2.5" style="stroke:#181818;stroke-width:0.5;" width="60" x="485.5" y="526.3945"/><text fill="#000000" font-family="sans-serif" font-size="20" lengthAdjust="spacing" textLength="35" x="498" y="552.1563">Skill</text><line style="stroke:#181818;stroke-width:0.5;" x1="486.5" x2="544.5" y1="561.5508" y2="561.5508"/><text fill="#000000" font-family="sans-serif" font-size="20" lengthAdjust="spacing" textLength="48" x="491.5" y="586.3125">name</text></g><!--class Team--><g id="elem_Team"><rect codeLine="37" fill="#F1F1F1" height="68.3125" id="Team" rx="2.5" ry="2.5" style="stroke:#181818;stroke-width:0.5;" width="217" x="604" y="345.8945"/><text fill="#000000" font-family="sans-serif" font-size="20" lengthAdjust="spacing" textLength="50" x="687.5" y="371.6563">Team</text><line style="stroke:#181818;stroke-width:0.5;" x1="605" x2="820" y1="381.0508" y2="381.0508"/><text fill="#000000" font-family="sans-serif" font-size="20" lengthAdjust="spacing" textLength="205" x="610" y="405.8125">numberOfCollaborators</text></g><!--class Task--><g id="elem_Task"><rect codeLine="41" fill="#F1F1F1" height="93.4688" id="Task" rx="2.5" ry="2.5" style="stroke:#181818;stroke-width:0.5;" width="107" x="726" y="706.8945"/><text fill="#000000" font-family="sans-serif" font-size="20" lengthAdjust="spacing" textLength="43" x="758" y="732.6563">Task</text><line style="stroke:#181818;stroke-width:0.5;" x1="727" x2="832" y1="742.0508" y2="742.0508"/><text fill="#000000" font-family="sans-serif" font-size="20" lengthAdjust="spacing" textLength="48" x="732" y="766.8125">name</text><text fill="#000000" font-family="sans-serif" font-size="20" lengthAdjust="spacing" textLength="95" x="732" y="791.9688">description</text></g><!--class TaskEntry--><g id="elem_TaskEntry"><rect codeLine="46" fill="#F1F1F1" height="118.625" id="TaskEntry" rx="2.5" ry="2.5" style="stroke:#181818;stroke-width:0.5;" width="165" x="697" y="500.8945"/><text fill="#000000" font-family="sans-serif" font-size="20" lengthAdjust="spacing" textLength="89" x="735" y="526.6563">TaskEntry</text><line style="stroke:#181818;stroke-width:0.5;" x1="698" x2="861" y1="536.0508" y2="536.0508"/><text fill="#000000" font-family="sans-serif" font-size="20" lengthAdjust="spacing" textLength="105" x="703" y="560.8125">urgencLevel</text><text fill="#000000" font-family="sans-serif" font-size="20" lengthAdjust="spacing" textLength="153" x="703" y="585.9688">expectedDuration</text><text fill="#000000" font-family="sans-serif" font-size="20" lengthAdjust="spacing" textLength="44" x="703" y="611.125">state</text></g><!--link Organization to HumanResourcesManager--><g id="link_Organization_HumanResourcesManager"><path codeLine="52" d="M140.28,161.8945 C166.57,161.8945 197.56,161.8945 227.43,161.8945 " fill="none" id="Organization-HumanResourcesManager" style="stroke:#181818;stroke-width:1.0;"/><polygon fill="#000000" points="173.25,145.4727,158.7779,140.7704,158.7779,150.1749,173.25,145.4727" style="stroke:#000000;stroke-width:1.0;"/><text fill="#000000" font-family="sans-serif" font-size="20" lengthAdjust="spacing" textLength="31" x="178.25" y="153.6563">has</text><text fill="#000000" font-family="sans-serif" font-size="20" lengthAdjust="spacing" textLength="11" x="148.1856" y="156.301">1</text><text fill="#000000" font-family="sans-serif" font-size="20" lengthAdjust="spacing" textLength="11" x="208.4497" y="156.8725">1</text></g><!--link Collaborator to Organization--><g id="link_Collaborator_Organization"><path codeLine="53" d="M602.33,115.2945 C548.48,83.6945 471.79,45.1845 398,30.8945 C314.42,14.7145 286.78,29.1945 209.5,64.8945 C185.54,75.9645 161.43,91.4145 140.3,106.7445 " fill="none" id="Collaborator-Organization" style="stroke:#181818;stroke-width:1.0;"/><polygon fill="#000000" points="360.9986,21.6207,346.616,16.6514,346.442,26.0544,360.9986,21.6207" style="stroke:#000000;stroke-width:1.0;"/><text fill="#000000" font-family="sans-serif" font-size="20" lengthAdjust="spacing" textLength="31" x="366" y="29.6563">has</text><text fill="#000000" font-family="sans-serif" font-size="20" lengthAdjust="spacing" textLength="8" x="586.475" y="104.9648">*</text><text fill="#000000" font-family="sans-serif" font-size="20" lengthAdjust="spacing" textLength="11" x="148.2078" y="95.119">1</text></g><!--link HumanResourcesManager to Collaborator--><g id="link_HumanResourcesManager_Collaborator"><path codeLine="54" d="M465.84,161.8945 C511.64,161.8945 562.46,161.8945 602.48,161.8945 " fill="none" id="HumanResourcesManager-Collaborator" style="stroke:#181818;stroke-width:1.0;"/><polygon fill="#000000" points="499,145.4727,484.5279,140.7704,484.5279,150.1749,499,145.4727" style="stroke:#000000;stroke-width:1.0;"/><text fill="#000000" font-family="sans-serif" font-size="20" lengthAdjust="spacing" textLength="80" x="504" y="153.6563">manages</text><text fill="#000000" font-family="sans-serif" font-size="20" lengthAdjust="spacing" textLength="11" x="473.4474" y="156.9107">1</text><text fill="#000000" font-family="sans-serif" font-size="20" lengthAdjust="spacing" textLength="8" x="586.6404" y="156.3704">*</text></g><!--link HumanResourcesManager to Skill--><g id="link_HumanResourcesManager_Skill"><path codeLine="55" d="M355.05,221.5645 C364.13,273.8345 381.31,351.4645 410.5,413.8945 C430.09,455.7945 462.29,498.0445 485.87,526.1445 " fill="none" id="HumanResourcesManager-Skill" style="stroke:#181818;stroke-width:1.0;"/><polygon fill="#000000" points="421.6572,387.3233,420.2664,372.1701,411.6252,375.8816,421.6572,387.3233" style="stroke:#000000;stroke-width:1.0;"/><text fill="#000000" font-family="sans-serif" font-size="20" lengthAdjust="spacing" textLength="77" x="431.5" y="388.1563">registers</text><text fill="#000000" font-family="sans-serif" font-size="20" lengthAdjust="spacing" textLength="11" x="344.3645" y="249.7962">1</text><text fill="#000000" font-family="sans-serif" font-size="20" lengthAdjust="spacing" textLength="8" x="472.0898" y="513.8577">*</text></g><!--link Collaborator to Skill--><g id="link_Collaborator_Skill"><path codeLine="56" d="M602.22,236.4945 C575.96,267.7145 548.96,306.0745 533.5,345.8945 C510.08,406.2345 510.18,483.1745 512.65,526.2845 " fill="none" id="Collaborator-Skill" style="stroke:#181818;stroke-width:1.0;"/><polygon fill="#000000" points="539.1376,387.6159,547.9038,375.1777,538.9187,372.4006,539.1376,387.6159" style="stroke:#000000;stroke-width:1.0;"/><text fill="#000000" font-family="sans-serif" font-size="20" lengthAdjust="spacing" textLength="31" x="554.5" y="388.1563">has</text><text fill="#000000" font-family="sans-serif" font-size="20" lengthAdjust="spacing" textLength="11" x="583.5635" y="238.3723">1</text><text fill="#000000" font-family="sans-serif" font-size="20" lengthAdjust="spacing" textLength="8" x="503.4727" y="514.0217">*</text></g><!--link Team to TaskEntry--><g id="link_Team_TaskEntry"><path codeLine="57" d="M727.9,414.0045 C732.17,423.5745 736.67,434.0845 740.5,443.8945 C747.65,462.2345 754.76,482.4845 760.9,500.8545 " fill="none" id="Team-TaskEntry" style="stroke:#181818;stroke-width:1.0;"/><polygon fill="#000000" points="761.3415,464.951,760.5968,449.7523,751.8055,453.0927,761.3415,464.951" style="stroke:#000000;stroke-width:1.0;"/><text fill="#000000" font-family="sans-serif" font-size="20" lengthAdjust="spacing" textLength="152" x="771.5" y="465.6563">to be assigned to</text><text fill="#000000" font-family="sans-serif" font-size="20" lengthAdjust="spacing" textLength="11" x="718.6634" y="443.0547">1</text><text fill="#000000" font-family="sans-serif" font-size="20" lengthAdjust="spacing" textLength="11" x="747.1134" y="488.3173">1</text></g><!--link Team to Skill--><g id="link_Team_Skill"><path codeLine="58" d="M608.61,414.0345 C593.25,422.0945 578.56,431.9445 566.5,443.8945 C543.78,466.4245 530.38,500.8245 523.07,526.2245 " fill="none" id="Team-Skill" style="stroke:#181818;stroke-width:1.0;"/><polygon fill="#000000" points="569.6494,463.8344,582.1635,455.177,574.6848,449.4748,569.6494,463.8344" style="stroke:#000000;stroke-width:1.0;"/><text fill="#000000" font-family="sans-serif" font-size="20" lengthAdjust="spacing" textLength="144" x="587.5" y="465.6563">requires a set of</text><text fill="#000000" font-family="sans-serif" font-size="20" lengthAdjust="spacing" textLength="11" x="584.9618" y="440.18">1</text><text fill="#000000" font-family="sans-serif" font-size="20" lengthAdjust="spacing" textLength="8" x="515.6836" y="513.9514">*</text></g><!--link Collaborator to Team--><g id="link_Collaborator_Team"><path codeLine="59" d="M691.44,259.2045 C696.91,290.2545 702.6,322.6145 706.68,345.8445 " fill="none" id="Collaborator-Team" style="stroke:#181818;stroke-width:1.0;"/><polygon fill="#000000" points="710.8859,310.3517,713.0099,295.2838,703.7476,296.913,710.8859,310.3517" style="stroke:#000000;stroke-width:1.0;"/><text fill="#000000" font-family="sans-serif" font-size="20" lengthAdjust="spacing" textLength="40" x="722.5" y="310.6563">form</text><text fill="#000000" font-family="sans-serif" font-size="20" lengthAdjust="spacing" textLength="8" x="684.3498" y="287.6895">*</text><text fill="#000000" font-family="sans-serif" font-size="20" lengthAdjust="spacing" textLength="11" x="693.7344" y="333.592">1</text></g><!--link TaskEntry to Task--><g id="link_TaskEntry_Task"><path codeLine="60" d="M779.5,619.9945 C779.5,647.8545 779.5,680.6545 779.5,706.6345 " fill="none" id="TaskEntry-Task" style="stroke:#181818;stroke-width:1.0;"/><polygon fill="#000000" points="787.5,671.4727,792.2023,657.0005,782.7977,657.0005,787.5,671.4727" style="stroke:#000000;stroke-width:1.0;"/><text fill="#000000" font-family="sans-serif" font-size="20" lengthAdjust="spacing" textLength="72" x="800.5" y="671.6563">contains</text><text fill="#000000" font-family="sans-serif" font-size="20" lengthAdjust="spacing" textLength="11" x="767.9328" y="648.219">1</text><text fill="#000000" font-family="sans-serif" font-size="20" lengthAdjust="spacing" textLength="8" x="770.9625" y="694.4122">*</text></g><!--SRC=[VLDTRvmm47pthrZTOwLAQHvHLAbg6wLIsqYv_e75Ni327zIx94sg_lSQmrtWxXGU07jdPiUpmBqD0oRqBkgU31XgS7Ho6uFixGl1zPNY0mHy355tANe2IIEjAWFg7blQoxCZIAG5G-lM0ExGn2SRMcZGCQbLIJja_YIIR3qAVTCnbCvNIdNM46YRT9OgxvwaYuQLAXouJoq6-u9YOu2_2l8Lq5DvUKJvEVgQKbazKSrMvihGnK2h6dcqJlqxYDwD7iC3SHoJ9lw18PyhdQhFdAFQA_jpT0xhc53Y6QcsIJg3YmqqtZ9FpbTR9X7psntslNLkBNsi_AASvb8enxjlrdPuXKJkJzqPOftiC6Mv1NuDafuNz9XQ2lexFTBiZVuCUTXaleofJA5iiam7oXgR-Um-xE1zkLzEk88E6JwgJOAxTmVIHcl6tgZBIakdJDreLU0BO6ho1d5cpYbN-LjkBGkbSsVdsDb_cSAXcX-l4LOW4Mg27AnjG_xPyl84l-dyUxJvSm049e7ONCncwJ5fLD34v2V5OyULR1bv1Vdl4hHXCleV]--></g></svg>