<?xml version="1.0" encoding="UTF-8" standalone="no"?><svg xmlns="http://www.w3.org/2000/svg" xmlns:xlink="http://www.w3.org/1999/xlink" contentStyleType="text/css" height="542px" preserveAspectRatio="none" style="width:1464px;height:542px;background:#FFFFFF;" version="1.1" viewBox="0 0 1464 542" width="1464px" zoomAndPan="magnify"><defs/><g><!--class RegisterCollaboratorUI--><g id="elem_RegisterCollaboratorUI"><rect codeLine="10" fill="#F1F1F1" height="48" id="RegisterCollaboratorUI" rx="2.5" ry="2.5" style="stroke:#181818;stroke-width:0.5;" width="175" x="7" y="42"/><ellipse cx="22" cy="58" fill="#ADD1B2" rx="11" ry="11" style="stroke:#181818;stroke-width:1.0;"/><path d="M24.7656,53.875 Q24.9219,53.6563 25.1094,53.5469 Q25.2969,53.4375 25.5156,53.4375 Q25.8906,53.4375 26.125,53.7031 Q26.3594,53.9531 26.3594,54.5625 L26.3594,56.0156 Q26.3594,56.625 26.125,56.8906 Q25.8906,57.1563 25.5156,57.1563 Q25.1719,57.1563 24.9688,56.9531 Q24.7656,56.7656 24.6563,56.25 Q24.6094,55.8906 24.4219,55.7031 Q24.0938,55.3281 23.4844,55.1094 Q22.875,54.8906 22.25,54.8906 Q21.4844,54.8906 20.8438,55.2188 Q20.2188,55.5469 19.7188,56.2969 Q19.2344,57.0469 19.2344,58.0781 L19.2344,59.1719 Q19.2344,60.4063 20.125,61.2344 Q21.0156,62.0469 22.6094,62.0469 Q23.5469,62.0469 24.2031,61.7969 Q24.5938,61.6406 25.0156,61.2031 Q25.2813,60.9375 25.4219,60.8594 Q25.5781,60.7813 25.7813,60.7813 Q26.1094,60.7813 26.3594,61.0469 Q26.625,61.2969 26.625,61.6406 Q26.625,61.9844 26.2813,62.3906 Q25.7813,62.9688 24.9844,63.2969 Q23.9063,63.75 22.6094,63.75 Q21.0938,63.75 19.8906,63.125 Q18.9063,62.625 18.2188,61.5625 Q17.5313,60.4844 17.5313,59.2031 L17.5313,58.0469 Q17.5313,56.7188 18.1406,55.5781 Q18.7656,54.4219 19.8594,53.8125 Q20.9531,53.1875 22.1875,53.1875 Q22.9219,53.1875 23.5625,53.3594 Q24.2188,53.5156 24.7656,53.875 Z " fill="#000000"/><text fill="#000000" font-family="sans-serif" font-size="14" lengthAdjust="spacing" textLength="143" x="36" y="63.7285">RegisterCollaboratorUI</text><line style="stroke:#181818;stroke-width:0.5;" x1="8" x2="181" y1="74" y2="74"/><line style="stroke:#181818;stroke-width:0.5;" x1="8" x2="181" y1="82" y2="82"/></g><!--class RegisterCollaboratorController--><g id="elem_RegisterCollaboratorController"><rect codeLine="13" fill="#F1F1F1" height="100.8281" id="RegisterCollaboratorController" rx="2.5" ry="2.5" style="stroke:#181818;stroke-width:0.5;" width="845" x="217" y="15.5"/><ellipse cx="538.75" cy="31.5" fill="#ADD1B2" rx="11" ry="11" style="stroke:#181818;stroke-width:1.0;"/><path d="M541.5156,27.375 Q541.6719,27.1563 541.8594,27.0469 Q542.0469,26.9375 542.2656,26.9375 Q542.6406,26.9375 542.875,27.2031 Q543.1094,27.4531 543.1094,28.0625 L543.1094,29.5156 Q543.1094,30.125 542.875,30.3906 Q542.6406,30.6563 542.2656,30.6563 Q541.9219,30.6563 541.7188,30.4531 Q541.5156,30.2656 541.4063,29.75 Q541.3594,29.3906 541.1719,29.2031 Q540.8438,28.8281 540.2344,28.6094 Q539.625,28.3906 539,28.3906 Q538.2344,28.3906 537.5938,28.7188 Q536.9688,29.0469 536.4688,29.7969 Q535.9844,30.5469 535.9844,31.5781 L535.9844,32.6719 Q535.9844,33.9063 536.875,34.7344 Q537.7656,35.5469 539.3594,35.5469 Q540.2969,35.5469 540.9531,35.2969 Q541.3438,35.1406 541.7656,34.7031 Q542.0313,34.4375 542.1719,34.3594 Q542.3281,34.2813 542.5313,34.2813 Q542.8594,34.2813 543.1094,34.5469 Q543.375,34.7969 543.375,35.1406 Q543.375,35.4844 543.0313,35.8906 Q542.5313,36.4688 541.7344,36.7969 Q540.6563,37.25 539.3594,37.25 Q537.8438,37.25 536.6406,36.625 Q535.6563,36.125 534.9688,35.0625 Q534.2813,33.9844 534.2813,32.7031 L534.2813,31.5469 Q534.2813,30.2188 534.8906,29.0781 Q535.5156,27.9219 536.6094,27.3125 Q537.7031,26.6875 538.9375,26.6875 Q539.6719,26.6875 540.3125,26.8594 Q540.9688,27.0156 541.5156,27.375 Z " fill="#000000"/><text fill="#000000" font-family="sans-serif" font-size="14" lengthAdjust="spacing" textLength="193" x="559.25" y="37.2285">RegisterCollaboratorController</text><line style="stroke:#181818;stroke-width:0.5;" x1="218" x2="1061" y1="47.5" y2="47.5"/><line style="stroke:#181818;stroke-width:0.5;" x1="218" x2="1061" y1="55.5" y2="55.5"/><text fill="#000000" font-family="sans-serif" font-size="14" lengthAdjust="spacing" textLength="449" x="223" y="74.0332">+RegisterCollaboratorController(jobRepository, collaboratorRepository)</text><text fill="#000000" font-family="sans-serif" font-size="14" lengthAdjust="spacing" textLength="82" x="223" y="91.6426">+getListJob()</text><text fill="#000000" font-family="sans-serif" font-size="14" lengthAdjust="spacing" textLength="833" x="223" y="109.252">+createCollaborator(name,birthdate,admission date,address,phone number,email,identification document type,identification number)</text></g><!--class Repositories--><g id="elem_Repositories"><rect codeLine="19" fill="#F1F1F1" height="118.4375" id="Repositories" rx="2.5" ry="2.5" style="stroke:#181818;stroke-width:0.5;" width="196" x="1165.5" y="7"/><ellipse cx="1219.75" cy="23" fill="#ADD1B2" rx="11" ry="11" style="stroke:#181818;stroke-width:1.0;"/><path d="M1222.5156,18.875 Q1222.6719,18.6563 1222.8594,18.5469 Q1223.0469,18.4375 1223.2656,18.4375 Q1223.6406,18.4375 1223.875,18.7031 Q1224.1094,18.9531 1224.1094,19.5625 L1224.1094,21.0156 Q1224.1094,21.625 1223.875,21.8906 Q1223.6406,22.1563 1223.2656,22.1563 Q1222.9219,22.1563 1222.7188,21.9531 Q1222.5156,21.7656 1222.4063,21.25 Q1222.3594,20.8906 1222.1719,20.7031 Q1221.8438,20.3281 1221.2344,20.1094 Q1220.625,19.8906 1220,19.8906 Q1219.2344,19.8906 1218.5938,20.2188 Q1217.9688,20.5469 1217.4688,21.2969 Q1216.9844,22.0469 1216.9844,23.0781 L1216.9844,24.1719 Q1216.9844,25.4063 1217.875,26.2344 Q1218.7656,27.0469 1220.3594,27.0469 Q1221.2969,27.0469 1221.9531,26.7969 Q1222.3438,26.6406 1222.7656,26.2031 Q1223.0313,25.9375 1223.1719,25.8594 Q1223.3281,25.7813 1223.5313,25.7813 Q1223.8594,25.7813 1224.1094,26.0469 Q1224.375,26.2969 1224.375,26.6406 Q1224.375,26.9844 1224.0313,27.3906 Q1223.5313,27.9688 1222.7344,28.2969 Q1221.6563,28.75 1220.3594,28.75 Q1218.8438,28.75 1217.6406,28.125 Q1216.6563,27.625 1215.9688,26.5625 Q1215.2813,25.4844 1215.2813,24.2031 L1215.2813,23.0469 Q1215.2813,21.7188 1215.8906,20.5781 Q1216.5156,19.4219 1217.6094,18.8125 Q1218.7031,18.1875 1219.9375,18.1875 Q1220.6719,18.1875 1221.3125,18.3594 Q1221.9688,18.5156 1222.5156,18.875 Z " fill="#000000"/><text fill="#000000" font-family="sans-serif" font-size="14" lengthAdjust="spacing" textLength="79" x="1240.25" y="28.7285">Repositories</text><line style="stroke:#181818;stroke-width:0.5;" x1="1166.5" x2="1360.5" y1="39" y2="39"/><line style="stroke:#181818;stroke-width:0.5;" x1="1166.5" x2="1360.5" y1="47" y2="47"/><text fill="#000000" font-family="sans-serif" font-size="14" lengthAdjust="spacing" textLength="94" x="1171.5" y="65.5332">-Repositories()</text><text fill="#000000" font-family="sans-serif" font-size="14" lengthAdjust="spacing" textLength="182" x="1171.5" y="83.1426">+getInstance() : Repositories</text><text fill="#000000" font-family="sans-serif" font-size="14" lengthAdjust="spacing" textLength="128" x="1171.5" y="100.752">+getJobRepository()</text><text fill="#000000" font-family="sans-serif" font-size="14" lengthAdjust="spacing" textLength="184" x="1171.5" y="118.3613">+getCollaboratorRepository()</text></g><!--class JobRepository--><g id="elem_JobRepository"><rect codeLine="26" fill="#F1F1F1" height="83.2188" id="JobRepository" rx="2.5" ry="2.5" style="stroke:#181818;stroke-width:0.5;" width="122" x="857.5" y="203"/><ellipse cx="872.5" cy="219" fill="#ADD1B2" rx="11" ry="11" style="stroke:#181818;stroke-width:1.0;"/><path d="M875.2656,214.875 Q875.4219,214.6563 875.6094,214.5469 Q875.7969,214.4375 876.0156,214.4375 Q876.3906,214.4375 876.625,214.7031 Q876.8594,214.9531 876.8594,215.5625 L876.8594,217.0156 Q876.8594,217.625 876.625,217.8906 Q876.3906,218.1563 876.0156,218.1563 Q875.6719,218.1563 875.4688,217.9531 Q875.2656,217.7656 875.1563,217.25 Q875.1094,216.8906 874.9219,216.7031 Q874.5938,216.3281 873.9844,216.1094 Q873.375,215.8906 872.75,215.8906 Q871.9844,215.8906 871.3438,216.2188 Q870.7188,216.5469 870.2188,217.2969 Q869.7344,218.0469 869.7344,219.0781 L869.7344,220.1719 Q869.7344,221.4063 870.625,222.2344 Q871.5156,223.0469 873.1094,223.0469 Q874.0469,223.0469 874.7031,222.7969 Q875.0938,222.6406 875.5156,222.2031 Q875.7813,221.9375 875.9219,221.8594 Q876.0781,221.7813 876.2813,221.7813 Q876.6094,221.7813 876.8594,222.0469 Q877.125,222.2969 877.125,222.6406 Q877.125,222.9844 876.7813,223.3906 Q876.2813,223.9688 875.4844,224.2969 Q874.4063,224.75 873.1094,224.75 Q871.5938,224.75 870.3906,224.125 Q869.4063,223.625 868.7188,222.5625 Q868.0313,221.4844 868.0313,220.2031 L868.0313,219.0469 Q868.0313,217.7188 868.6406,216.5781 Q869.2656,215.4219 870.3594,214.8125 Q871.4531,214.1875 872.6875,214.1875 Q873.4219,214.1875 874.0625,214.3594 Q874.7188,214.5156 875.2656,214.875 Z " fill="#000000"/><text fill="#000000" font-family="sans-serif" font-size="14" lengthAdjust="spacing" textLength="90" x="886.5" y="224.7285">JobRepository</text><line style="stroke:#181818;stroke-width:0.5;" x1="858.5" x2="978.5" y1="235" y2="235"/><line style="stroke:#181818;stroke-width:0.5;" x1="858.5" x2="978.5" y1="243" y2="243"/><text fill="#000000" font-family="sans-serif" font-size="14" lengthAdjust="spacing" textLength="82" x="863.5" y="261.5332">+getJobList()</text><text fill="#000000" font-family="sans-serif" font-size="14" lengthAdjust="spacing" textLength="79" x="863.5" y="279.1426">+getJob(job)</text></g><!--class CollaboratorRepository--><g id="elem_CollaboratorRepository"><rect codeLine="31" fill="#F1F1F1" height="65.6094" id="CollaboratorRepository" rx="2.5" ry="2.5" style="stroke:#181818;stroke-width:0.5;" width="178" x="1014.5" y="211.5"/><ellipse cx="1029.5" cy="227.5" fill="#ADD1B2" rx="11" ry="11" style="stroke:#181818;stroke-width:1.0;"/><path d="M1032.2656,223.375 Q1032.4219,223.1563 1032.6094,223.0469 Q1032.7969,222.9375 1033.0156,222.9375 Q1033.3906,222.9375 1033.625,223.2031 Q1033.8594,223.4531 1033.8594,224.0625 L1033.8594,225.5156 Q1033.8594,226.125 1033.625,226.3906 Q1033.3906,226.6563 1033.0156,226.6563 Q1032.6719,226.6563 1032.4688,226.4531 Q1032.2656,226.2656 1032.1563,225.75 Q1032.1094,225.3906 1031.9219,225.2031 Q1031.5938,224.8281 1030.9844,224.6094 Q1030.375,224.3906 1029.75,224.3906 Q1028.9844,224.3906 1028.3438,224.7188 Q1027.7188,225.0469 1027.2188,225.7969 Q1026.7344,226.5469 1026.7344,227.5781 L1026.7344,228.6719 Q1026.7344,229.9063 1027.625,230.7344 Q1028.5156,231.5469 1030.1094,231.5469 Q1031.0469,231.5469 1031.7031,231.2969 Q1032.0938,231.1406 1032.5156,230.7031 Q1032.7813,230.4375 1032.9219,230.3594 Q1033.0781,230.2813 1033.2813,230.2813 Q1033.6094,230.2813 1033.8594,230.5469 Q1034.125,230.7969 1034.125,231.1406 Q1034.125,231.4844 1033.7813,231.8906 Q1033.2813,232.4688 1032.4844,232.7969 Q1031.4063,233.25 1030.1094,233.25 Q1028.5938,233.25 1027.3906,232.625 Q1026.4063,232.125 1025.7188,231.0625 Q1025.0313,229.9844 1025.0313,228.7031 L1025.0313,227.5469 Q1025.0313,226.2188 1025.6406,225.0781 Q1026.2656,223.9219 1027.3594,223.3125 Q1028.4531,222.6875 1029.6875,222.6875 Q1030.4219,222.6875 1031.0625,222.8594 Q1031.7188,223.0156 1032.2656,223.375 Z " fill="#000000"/><text fill="#000000" font-family="sans-serif" font-size="14" lengthAdjust="spacing" textLength="146" x="1043.5" y="233.2285">CollaboratorRepository</text><line style="stroke:#181818;stroke-width:0.5;" x1="1015.5" x2="1191.5" y1="243.5" y2="243.5"/><line style="stroke:#181818;stroke-width:0.5;" x1="1015.5" x2="1191.5" y1="251.5" y2="251.5"/><text fill="#000000" font-family="sans-serif" font-size="14" lengthAdjust="spacing" textLength="138" x="1020.5" y="270.0332">+getCollaboratorList()</text></g><!--class Collaborator--><g id="elem_Collaborator"><rect codeLine="35" fill="#F1F1F1" height="171.2656" id="Collaborator" rx="2.5" ry="2.5" style="stroke:#181818;stroke-width:0.5;" width="153" x="934" y="364"/><ellipse cx="968.35" cy="380" fill="#ADD1B2" rx="11" ry="11" style="stroke:#181818;stroke-width:1.0;"/><path d="M971.1156,375.875 Q971.2719,375.6563 971.4594,375.5469 Q971.6469,375.4375 971.8656,375.4375 Q972.2406,375.4375 972.475,375.7031 Q972.7094,375.9531 972.7094,376.5625 L972.7094,378.0156 Q972.7094,378.625 972.475,378.8906 Q972.2406,379.1563 971.8656,379.1563 Q971.5219,379.1563 971.3188,378.9531 Q971.1156,378.7656 971.0063,378.25 Q970.9594,377.8906 970.7719,377.7031 Q970.4438,377.3281 969.8344,377.1094 Q969.225,376.8906 968.6,376.8906 Q967.8344,376.8906 967.1938,377.2188 Q966.5688,377.5469 966.0688,378.2969 Q965.5844,379.0469 965.5844,380.0781 L965.5844,381.1719 Q965.5844,382.4063 966.475,383.2344 Q967.3656,384.0469 968.9594,384.0469 Q969.8969,384.0469 970.5531,383.7969 Q970.9438,383.6406 971.3656,383.2031 Q971.6313,382.9375 971.7719,382.8594 Q971.9281,382.7813 972.1313,382.7813 Q972.4594,382.7813 972.7094,383.0469 Q972.975,383.2969 972.975,383.6406 Q972.975,383.9844 972.6313,384.3906 Q972.1313,384.9688 971.3344,385.2969 Q970.2563,385.75 968.9594,385.75 Q967.4438,385.75 966.2406,385.125 Q965.2563,384.625 964.5688,383.5625 Q963.8813,382.4844 963.8813,381.2031 L963.8813,380.0469 Q963.8813,378.7188 964.4906,377.5781 Q965.1156,376.4219 966.2094,375.8125 Q967.3031,375.1875 968.5375,375.1875 Q969.2719,375.1875 969.9125,375.3594 Q970.5688,375.5156 971.1156,375.875 Z " fill="#000000"/><text fill="#000000" font-family="sans-serif" font-size="14" lengthAdjust="spacing" textLength="78" x="986.65" y="385.7285">Collaborator</text><line style="stroke:#181818;stroke-width:0.5;" x1="935" x2="1086" y1="396" y2="396"/><text fill="#000000" font-family="sans-serif" font-size="14" lengthAdjust="spacing" textLength="81" x="940" y="414.5332">-String name</text><text fill="#000000" font-family="sans-serif" font-size="14" lengthAdjust="spacing" textLength="102" x="940" y="432.1426">-String birthdate</text><text fill="#000000" font-family="sans-serif" font-size="14" lengthAdjust="spacing" textLength="141" x="940" y="449.752">-String admission date</text><text fill="#000000" font-family="sans-serif" font-size="14" lengthAdjust="spacing" textLength="97" x="940" y="467.3613">-String address</text><text fill="#000000" font-family="sans-serif" font-size="14" lengthAdjust="spacing" textLength="79" x="940" y="484.9707">-String email</text><text fill="#000000" font-family="sans-serif" font-size="14" lengthAdjust="spacing" textLength="69" x="940" y="502.5801">-String skill</text><text fill="#000000" font-family="sans-serif" font-size="14" lengthAdjust="spacing" textLength="64" x="940" y="520.1895">-int phone</text><line style="stroke:#181818;stroke-width:0.5;" x1="935" x2="1086" y1="527.2656" y2="527.2656"/></g><!--link Repositories to Repositories--><g id="link_Repositories_Repositories"><path codeLine="51" d="M1361.52,48.27 C1381.87,50.14 1396.5,56.05 1396.5,66 C1396.5,75.1 1384.27,80.82 1366.63,83.16 " fill="none" id="Repositories-to-Repositories" style="stroke:#181818;stroke-width:1.0;"/><polygon fill="#181818" points="1361.52,83.73,1370.9104,86.6998,1366.4887,83.1716,1370.0169,78.7498,1361.52,83.73" style="stroke:#181818;stroke-width:1.0;"/><text fill="#000000" font-family="sans-serif" font-size="13" lengthAdjust="spacing" textLength="49" x="1402.5" y="71.4951">instance</text></g><!--link RegisterCollaboratorUI to RegisterCollaboratorController--><g id="link_RegisterCollaboratorUI_RegisterCollaboratorController"><path codeLine="52" d="M182.14,66 C192.19,66 202.28,66 211.94,66 " fill="none" id="RegisterCollaboratorUI-to-RegisterCollaboratorController" style="stroke:#181818;stroke-width:1.0;stroke-dasharray:7.0,7.0;"/><polygon fill="#181818" points="216.95,66,207.95,62,211.95,66,207.95,70,216.95,66" style="stroke:#181818;stroke-width:1.0;"/></g><!--link RegisterCollaboratorController to Repositories--><g id="link_RegisterCollaboratorController_Repositories"><path codeLine="53" d="M1062.2,66 C1097.76,66 1131.12,66 1160.06,66 " fill="none" id="RegisterCollaboratorController-to-Repositories" style="stroke:#181818;stroke-width:1.0;stroke-dasharray:7.0,7.0;"/><polygon fill="#181818" points="1165.42,66,1156.42,62,1160.42,66,1156.42,70,1165.42,66" style="stroke:#181818;stroke-width:1.0;"/><text fill="#000000" font-family="sans-serif" font-size="13" lengthAdjust="spacing" textLength="67" x="1080.25" y="59.4951">repositories</text></g><!--link Repositories to JobRepository--><g id="link_Repositories_JobRepository"><path codeLine="54" d="M1165.91,125.12 C1124.45,149.81 1085.5,173 1085.5,173 C1085.5,173 997.5,203 997.5,203 C997.5,203 992.14,205.75 984.22,209.81 " fill="none" id="Repositories-to-JobRepository" style="stroke:#181818;stroke-width:1.0;"/><polygon fill="#181818" points="979.57,212.19,989.4036,211.6424,984.0191,209.9084,985.7531,204.5239,979.57,212.19" style="stroke:#181818;stroke-width:1.0;"/><text fill="#000000" font-family="sans-serif" font-size="13" lengthAdjust="spacing" textLength="7" x="987.4395" y="204.7804">1</text></g><!--link RegisterCollaboratorController to CollaboratorRepository--><g id="link_RegisterCollaboratorController_CollaboratorRepository"><path codeLine="55" d="M783.59,116.53 C841.8,136.54 895.5,155 895.5,155 C895.5,155 964.64,184.42 1023.2,209.33 " fill="none" id="RegisterCollaboratorController-to-CollaboratorRepository" style="stroke:#181818;stroke-width:1.0;stroke-dasharray:7.0,7.0;"/><polygon fill="#181818" points="1028.11,211.42,1021.3944,204.2158,1023.5091,209.4625,1018.2624,211.5772,1028.11,211.42" style="stroke:#181818;stroke-width:1.0;"/><text fill="#000000" font-family="sans-serif" font-size="13" lengthAdjust="spacing" textLength="131" x="935.5" y="169.4951">CollaboratorRepository</text></g><!--link RegisterCollaboratorController to JobRepository--><g id="link_RegisterCollaboratorController_JobRepository"><path codeLine="56" d="M717.96,116.63 C760.57,143.59 812.64,176.53 853.05,202.09 " fill="none" id="RegisterCollaboratorController-to-JobRepository" style="stroke:#181818;stroke-width:1.0;stroke-dasharray:7.0,7.0;"/><polygon fill="#181818" points="857.42,204.86,851.9674,196.6582,853.1993,202.1793,847.6783,203.4113,857.42,204.86" style="stroke:#181818;stroke-width:1.0;"/><text fill="#000000" font-family="sans-serif" font-size="13" lengthAdjust="spacing" textLength="82" x="804.5" y="169.4951">JobRepository</text></g><!--link JobRepository to Collaborator--><g id="link_JobRepository_Collaborator"><path codeLine="57" d="M936.9,286.09 C946.42,307.11 958.46,333.67 970.02,359.18 " fill="none" id="JobRepository-to-Collaborator" style="stroke:#181818;stroke-width:1.0;stroke-dasharray:7.0,7.0;"/><polygon fill="#181818" points="972.17,363.93,972.0756,354.0816,970.0956,359.3806,964.7966,357.4006,972.17,363.93" style="stroke:#181818;stroke-width:1.0;"/></g><!--link CollaboratorRepository to Collaborator--><g id="link_CollaboratorRepository_Collaborator"><path codeLine="58" d="M1088.76,277.67 C1078.65,299.74 1064.7,330.19 1051.37,359.28 " fill="none" id="CollaboratorRepository-to-Collaborator" style="stroke:#181818;stroke-width:1.0;"/><polygon fill="#181818" points="1049.24,363.93,1056.6226,357.411,1051.3208,359.3836,1049.3483,354.0817,1049.24,363.93" style="stroke:#181818;stroke-width:1.0;"/><text fill="#000000" font-family="sans-serif" font-size="13" lengthAdjust="spacing" textLength="21" x="1071.5" y="330.4951">has</text></g><!--link Repositories to CollaboratorRepository--><g id="link_Repositories_CollaboratorRepository"><path codeLine="59" d="M1221.72,125.27 C1204.06,149.9 1187.5,173 1187.5,173 C1187.5,173 1166.8,190.38 1145.95,207.87 " fill="none" id="Repositories-to-CollaboratorRepository" style="stroke:#181818;stroke-width:1.0;"/><polygon fill="#181818" points="1142.06,211.14,1151.5248,208.4166,1145.8894,207.925,1146.3809,202.2896,1142.06,211.14" style="stroke:#181818;stroke-width:1.0;"/><text fill="#000000" font-family="sans-serif" font-size="13" lengthAdjust="spacing" textLength="7" x="1141.9624" y="200.5654">1</text></g><!--SRC=[ZLF1Rjim3BthAuXUuc1EiLvzA33ab6Ad1lq0MMPihR9eI0o6jDY_LtRSM7BZPhgHV7oYtgDM_bNRJZhPGakMLEEeHM1tH35LEgbUPOrxFXa4XugbhKqCy8siwA-sDHoayN75Q8jywX0wCgS-4AihHN9C8kfIHdh_YzdfyiYuKsJt-WtXfn0hWmS69d2wRXWgtO-ZoOgX1PwnrfxHRSaOMPAJJEvb1-_Yd_W6iINBBiJe0XB2-N43blsXyXaxyZgaJpce23NbroDNZVmxa3rHcNscb4F969DdLhQObzfnKuLIBgjMUnzU1cDOEVG-xngo2FRObkXoRAKskQxGiZve9Nc0apgs8GEzilFYkN4jWXwVSepJQlJZupT9CejUiRC-MAymMqEHW2R8KonCtBkzAb50N9n9MYz6d3bx_MAsNilWGTHzdJ-cYH4ZtzNkTx61VLYziCsz9rDqCMTAfIx5-S6kAJ5ODOLXrKqVwk3JO6a_olaaZcmUKuUAq77sG2oi-ltZZTqLDtx0_PShNUpqVBoxXxlKkPlyuO85iug5mlzGfjjJp6PAg_CHnC8ycnHMG2Fd0emABCmjFW00]--></g></svg>