<?xml version="1.0" encoding="UTF-8" standalone="no"?><svg xmlns="http://www.w3.org/2000/svg" xmlns:xlink="http://www.w3.org/1999/xlink" contentStyleType="text/css" height="559px" preserveAspectRatio="none" style="width:1707px;height:559px;background:#FFFFFF;" version="1.1" viewBox="0 0 1707 559" width="1707px" zoomAndPan="magnify"><defs/><g><!--class RegisterCollaboratorUI--><g id="elem_RegisterCollaboratorUI"><rect codeLine="10" fill="#F1F1F1" height="48" id="RegisterCollaboratorUI" rx="2.5" ry="2.5" style="stroke:#181818;stroke-width:0.5;" width="175" x="7" y="42"/><ellipse cx="22" cy="58" fill="#ADD1B2" rx="11" ry="11" style="stroke:#181818;stroke-width:1.0;"/><path d="M24.7656,53.875 Q24.9219,53.6563 25.1094,53.5469 Q25.2969,53.4375 25.5156,53.4375 Q25.8906,53.4375 26.125,53.7031 Q26.3594,53.9531 26.3594,54.5625 L26.3594,56.0156 Q26.3594,56.625 26.125,56.8906 Q25.8906,57.1563 25.5156,57.1563 Q25.1719,57.1563 24.9688,56.9531 Q24.7656,56.7656 24.6563,56.25 Q24.6094,55.8906 24.4219,55.7031 Q24.0938,55.3281 23.4844,55.1094 Q22.875,54.8906 22.25,54.8906 Q21.4844,54.8906 20.8438,55.2188 Q20.2188,55.5469 19.7188,56.2969 Q19.2344,57.0469 19.2344,58.0781 L19.2344,59.1719 Q19.2344,60.4063 20.125,61.2344 Q21.0156,62.0469 22.6094,62.0469 Q23.5469,62.0469 24.2031,61.7969 Q24.5938,61.6406 25.0156,61.2031 Q25.2813,60.9375 25.4219,60.8594 Q25.5781,60.7813 25.7813,60.7813 Q26.1094,60.7813 26.3594,61.0469 Q26.625,61.2969 26.625,61.6406 Q26.625,61.9844 26.2813,62.3906 Q25.7813,62.9688 24.9844,63.2969 Q23.9063,63.75 22.6094,63.75 Q21.0938,63.75 19.8906,63.125 Q18.9063,62.625 18.2188,61.5625 Q17.5313,60.4844 17.5313,59.2031 L17.5313,58.0469 Q17.5313,56.7188 18.1406,55.5781 Q18.7656,54.4219 19.8594,53.8125 Q20.9531,53.1875 22.1875,53.1875 Q22.9219,53.1875 23.5625,53.3594 Q24.2188,53.5156 24.7656,53.875 Z " fill="#000000"/><text fill="#000000" font-family="sans-serif" font-size="14" lengthAdjust="spacing" textLength="143" x="36" y="63.7285">RegisterCollaboratorUI</text><line style="stroke:#181818;stroke-width:0.5;" x1="8" x2="181" y1="74" y2="74"/><line style="stroke:#181818;stroke-width:0.5;" x1="8" x2="181" y1="82" y2="82"/></g><!--class RegisterCollaboratorController--><g id="elem_RegisterCollaboratorController"><rect codeLine="13" fill="#F1F1F1" height="100.8281" id="RegisterCollaboratorController" rx="2.5" ry="2.5" style="stroke:#181818;stroke-width:0.5;" width="872" x="217.5" y="15.5"/><ellipse cx="552.75" cy="31.5" fill="#ADD1B2" rx="11" ry="11" style="stroke:#181818;stroke-width:1.0;"/><path d="M555.5156,27.375 Q555.6719,27.1563 555.8594,27.0469 Q556.0469,26.9375 556.2656,26.9375 Q556.6406,26.9375 556.875,27.2031 Q557.1094,27.4531 557.1094,28.0625 L557.1094,29.5156 Q557.1094,30.125 556.875,30.3906 Q556.6406,30.6563 556.2656,30.6563 Q555.9219,30.6563 555.7188,30.4531 Q555.5156,30.2656 555.4063,29.75 Q555.3594,29.3906 555.1719,29.2031 Q554.8438,28.8281 554.2344,28.6094 Q553.625,28.3906 553,28.3906 Q552.2344,28.3906 551.5938,28.7188 Q550.9688,29.0469 550.4688,29.7969 Q549.9844,30.5469 549.9844,31.5781 L549.9844,32.6719 Q549.9844,33.9063 550.875,34.7344 Q551.7656,35.5469 553.3594,35.5469 Q554.2969,35.5469 554.9531,35.2969 Q555.3438,35.1406 555.7656,34.7031 Q556.0313,34.4375 556.1719,34.3594 Q556.3281,34.2813 556.5313,34.2813 Q556.8594,34.2813 557.1094,34.5469 Q557.375,34.7969 557.375,35.1406 Q557.375,35.4844 557.0313,35.8906 Q556.5313,36.4688 555.7344,36.7969 Q554.6563,37.25 553.3594,37.25 Q551.8438,37.25 550.6406,36.625 Q549.6563,36.125 548.9688,35.0625 Q548.2813,33.9844 548.2813,32.7031 L548.2813,31.5469 Q548.2813,30.2188 548.8906,29.0781 Q549.5156,27.9219 550.6094,27.3125 Q551.7031,26.6875 552.9375,26.6875 Q553.6719,26.6875 554.3125,26.8594 Q554.9688,27.0156 555.5156,27.375 Z " fill="#000000"/><text fill="#000000" font-family="sans-serif" font-size="14" lengthAdjust="spacing" textLength="193" x="573.25" y="37.2285">RegisterCollaboratorController</text><line style="stroke:#181818;stroke-width:0.5;" x1="218.5" x2="1088.5" y1="47.5" y2="47.5"/><line style="stroke:#181818;stroke-width:0.5;" x1="218.5" x2="1088.5" y1="55.5" y2="55.5"/><text fill="#000000" font-family="sans-serif" font-size="14" lengthAdjust="spacing" textLength="58" x="223.5" y="74.0332">+create()</text><text fill="#000000" font-family="sans-serif" font-size="14" lengthAdjust="spacing" textLength="82" x="223.5" y="91.6426">+getJobList()</text><text fill="#000000" font-family="sans-serif" font-size="14" lengthAdjust="spacing" textLength="860" x="223.5" y="109.252">+createCollaborator(name,birthdate,admission date,address,phone number,email,identification document type,identification number, job)</text></g><!--class Repositories--><g id="elem_Repositories"><rect codeLine="19" fill="#F1F1F1" height="118.4375" id="Repositories" rx="2.5" ry="2.5" style="stroke:#181818;stroke-width:0.5;" width="196" x="1193.5" y="7"/><ellipse cx="1247.75" cy="23" fill="#ADD1B2" rx="11" ry="11" style="stroke:#181818;stroke-width:1.0;"/><path d="M1250.5156,18.875 Q1250.6719,18.6563 1250.8594,18.5469 Q1251.0469,18.4375 1251.2656,18.4375 Q1251.6406,18.4375 1251.875,18.7031 Q1252.1094,18.9531 1252.1094,19.5625 L1252.1094,21.0156 Q1252.1094,21.625 1251.875,21.8906 Q1251.6406,22.1563 1251.2656,22.1563 Q1250.9219,22.1563 1250.7188,21.9531 Q1250.5156,21.7656 1250.4063,21.25 Q1250.3594,20.8906 1250.1719,20.7031 Q1249.8438,20.3281 1249.2344,20.1094 Q1248.625,19.8906 1248,19.8906 Q1247.2344,19.8906 1246.5938,20.2188 Q1245.9688,20.5469 1245.4688,21.2969 Q1244.9844,22.0469 1244.9844,23.0781 L1244.9844,24.1719 Q1244.9844,25.4063 1245.875,26.2344 Q1246.7656,27.0469 1248.3594,27.0469 Q1249.2969,27.0469 1249.9531,26.7969 Q1250.3438,26.6406 1250.7656,26.2031 Q1251.0313,25.9375 1251.1719,25.8594 Q1251.3281,25.7813 1251.5313,25.7813 Q1251.8594,25.7813 1252.1094,26.0469 Q1252.375,26.2969 1252.375,26.6406 Q1252.375,26.9844 1252.0313,27.3906 Q1251.5313,27.9688 1250.7344,28.2969 Q1249.6563,28.75 1248.3594,28.75 Q1246.8438,28.75 1245.6406,28.125 Q1244.6563,27.625 1243.9688,26.5625 Q1243.2813,25.4844 1243.2813,24.2031 L1243.2813,23.0469 Q1243.2813,21.7188 1243.8906,20.5781 Q1244.5156,19.4219 1245.6094,18.8125 Q1246.7031,18.1875 1247.9375,18.1875 Q1248.6719,18.1875 1249.3125,18.3594 Q1249.9688,18.5156 1250.5156,18.875 Z " fill="#000000"/><text fill="#000000" font-family="sans-serif" font-size="14" lengthAdjust="spacing" textLength="79" x="1268.25" y="28.7285">Repositories</text><line style="stroke:#181818;stroke-width:0.5;" x1="1194.5" x2="1388.5" y1="39" y2="39"/><line style="stroke:#181818;stroke-width:0.5;" x1="1194.5" x2="1388.5" y1="47" y2="47"/><text fill="#000000" font-family="sans-serif" font-size="14" lengthAdjust="spacing" textLength="94" x="1199.5" y="65.5332">-Repositories()</text><text fill="#000000" font-family="sans-serif" font-size="14" lengthAdjust="spacing" textLength="182" x="1199.5" y="83.1426">+getInstance() : Repositories</text><text fill="#000000" font-family="sans-serif" font-size="14" lengthAdjust="spacing" textLength="128" x="1199.5" y="100.752">+getJobRepository()</text><text fill="#000000" font-family="sans-serif" font-size="14" lengthAdjust="spacing" textLength="184" x="1199.5" y="118.3613">+getCollaboratorRepository()</text></g><!--class JobRepository--><g id="elem_JobRepository"><rect codeLine="26" fill="#F1F1F1" height="65.6094" id="JobRepository" rx="2.5" ry="2.5" style="stroke:#181818;stroke-width:0.5;" width="122" x="671.5" y="211.5"/><ellipse cx="686.5" cy="227.5" fill="#ADD1B2" rx="11" ry="11" style="stroke:#181818;stroke-width:1.0;"/><path d="M689.2656,223.375 Q689.4219,223.1563 689.6094,223.0469 Q689.7969,222.9375 690.0156,222.9375 Q690.3906,222.9375 690.625,223.2031 Q690.8594,223.4531 690.8594,224.0625 L690.8594,225.5156 Q690.8594,226.125 690.625,226.3906 Q690.3906,226.6563 690.0156,226.6563 Q689.6719,226.6563 689.4688,226.4531 Q689.2656,226.2656 689.1563,225.75 Q689.1094,225.3906 688.9219,225.2031 Q688.5938,224.8281 687.9844,224.6094 Q687.375,224.3906 686.75,224.3906 Q685.9844,224.3906 685.3438,224.7188 Q684.7188,225.0469 684.2188,225.7969 Q683.7344,226.5469 683.7344,227.5781 L683.7344,228.6719 Q683.7344,229.9063 684.625,230.7344 Q685.5156,231.5469 687.1094,231.5469 Q688.0469,231.5469 688.7031,231.2969 Q689.0938,231.1406 689.5156,230.7031 Q689.7813,230.4375 689.9219,230.3594 Q690.0781,230.2813 690.2813,230.2813 Q690.6094,230.2813 690.8594,230.5469 Q691.125,230.7969 691.125,231.1406 Q691.125,231.4844 690.7813,231.8906 Q690.2813,232.4688 689.4844,232.7969 Q688.4063,233.25 687.1094,233.25 Q685.5938,233.25 684.3906,232.625 Q683.4063,232.125 682.7188,231.0625 Q682.0313,229.9844 682.0313,228.7031 L682.0313,227.5469 Q682.0313,226.2188 682.6406,225.0781 Q683.2656,223.9219 684.3594,223.3125 Q685.4531,222.6875 686.6875,222.6875 Q687.4219,222.6875 688.0625,222.8594 Q688.7188,223.0156 689.2656,223.375 Z " fill="#000000"/><text fill="#000000" font-family="sans-serif" font-size="14" lengthAdjust="spacing" textLength="90" x="700.5" y="233.2285">JobRepository</text><line style="stroke:#181818;stroke-width:0.5;" x1="672.5" x2="792.5" y1="243.5" y2="243.5"/><line style="stroke:#181818;stroke-width:0.5;" x1="672.5" x2="792.5" y1="251.5" y2="251.5"/><text fill="#000000" font-family="sans-serif" font-size="14" lengthAdjust="spacing" textLength="82" x="677.5" y="270.0332">+getJobList()</text></g><!--class CollaboratorRepository--><g id="elem_CollaboratorRepository"><rect codeLine="30" fill="#F1F1F1" height="83.2188" id="CollaboratorRepository" rx="2.5" ry="2.5" style="stroke:#181818;stroke-width:0.5;" width="872" x="828.5" y="203"/><ellipse cx="1187.25" cy="219" fill="#ADD1B2" rx="11" ry="11" style="stroke:#181818;stroke-width:1.0;"/><path d="M1190.0156,214.875 Q1190.1719,214.6563 1190.3594,214.5469 Q1190.5469,214.4375 1190.7656,214.4375 Q1191.1406,214.4375 1191.375,214.7031 Q1191.6094,214.9531 1191.6094,215.5625 L1191.6094,217.0156 Q1191.6094,217.625 1191.375,217.8906 Q1191.1406,218.1563 1190.7656,218.1563 Q1190.4219,218.1563 1190.2188,217.9531 Q1190.0156,217.7656 1189.9063,217.25 Q1189.8594,216.8906 1189.6719,216.7031 Q1189.3438,216.3281 1188.7344,216.1094 Q1188.125,215.8906 1187.5,215.8906 Q1186.7344,215.8906 1186.0938,216.2188 Q1185.4688,216.5469 1184.9688,217.2969 Q1184.4844,218.0469 1184.4844,219.0781 L1184.4844,220.1719 Q1184.4844,221.4063 1185.375,222.2344 Q1186.2656,223.0469 1187.8594,223.0469 Q1188.7969,223.0469 1189.4531,222.7969 Q1189.8438,222.6406 1190.2656,222.2031 Q1190.5313,221.9375 1190.6719,221.8594 Q1190.8281,221.7813 1191.0313,221.7813 Q1191.3594,221.7813 1191.6094,222.0469 Q1191.875,222.2969 1191.875,222.6406 Q1191.875,222.9844 1191.5313,223.3906 Q1191.0313,223.9688 1190.2344,224.2969 Q1189.1563,224.75 1187.8594,224.75 Q1186.3438,224.75 1185.1406,224.125 Q1184.1563,223.625 1183.4688,222.5625 Q1182.7813,221.4844 1182.7813,220.2031 L1182.7813,219.0469 Q1182.7813,217.7188 1183.3906,216.5781 Q1184.0156,215.4219 1185.1094,214.8125 Q1186.2031,214.1875 1187.4375,214.1875 Q1188.1719,214.1875 1188.8125,214.3594 Q1189.4688,214.5156 1190.0156,214.875 Z " fill="#000000"/><text fill="#000000" font-family="sans-serif" font-size="14" lengthAdjust="spacing" textLength="146" x="1207.75" y="224.7285">CollaboratorRepository</text><line style="stroke:#181818;stroke-width:0.5;" x1="829.5" x2="1699.5" y1="235" y2="235"/><line style="stroke:#181818;stroke-width:0.5;" x1="829.5" x2="1699.5" y1="243" y2="243"/><text fill="#000000" font-family="sans-serif" font-size="14" lengthAdjust="spacing" textLength="138" x="834.5" y="261.5332">+getCollaboratorList()</text><text fill="#000000" font-family="sans-serif" font-size="14" lengthAdjust="spacing" textLength="860" x="834.5" y="279.1426">+createCollaborator(name,birthdate,admission date,address,phone number,email,identification document type,identification number, job)</text></g><!--class Collaborator--><g id="elem_Collaborator"><rect codeLine="35" fill="#F1F1F1" height="188.875" id="Collaborator" rx="2.5" ry="2.5" style="stroke:#181818;stroke-width:0.5;" width="794" x="601.5" y="364"/><ellipse cx="955.25" cy="380" fill="#ADD1B2" rx="11" ry="11" style="stroke:#181818;stroke-width:1.0;"/><path d="M958.0156,375.875 Q958.1719,375.6563 958.3594,375.5469 Q958.5469,375.4375 958.7656,375.4375 Q959.1406,375.4375 959.375,375.7031 Q959.6094,375.9531 959.6094,376.5625 L959.6094,378.0156 Q959.6094,378.625 959.375,378.8906 Q959.1406,379.1563 958.7656,379.1563 Q958.4219,379.1563 958.2188,378.9531 Q958.0156,378.7656 957.9063,378.25 Q957.8594,377.8906 957.6719,377.7031 Q957.3438,377.3281 956.7344,377.1094 Q956.125,376.8906 955.5,376.8906 Q954.7344,376.8906 954.0938,377.2188 Q953.4688,377.5469 952.9688,378.2969 Q952.4844,379.0469 952.4844,380.0781 L952.4844,381.1719 Q952.4844,382.4063 953.375,383.2344 Q954.2656,384.0469 955.8594,384.0469 Q956.7969,384.0469 957.4531,383.7969 Q957.8438,383.6406 958.2656,383.2031 Q958.5313,382.9375 958.6719,382.8594 Q958.8281,382.7813 959.0313,382.7813 Q959.3594,382.7813 959.6094,383.0469 Q959.875,383.2969 959.875,383.6406 Q959.875,383.9844 959.5313,384.3906 Q959.0313,384.9688 958.2344,385.2969 Q957.1563,385.75 955.8594,385.75 Q954.3438,385.75 953.1406,385.125 Q952.1563,384.625 951.4688,383.5625 Q950.7813,382.4844 950.7813,381.2031 L950.7813,380.0469 Q950.7813,378.7188 951.3906,377.5781 Q952.0156,376.4219 953.1094,375.8125 Q954.2031,375.1875 955.4375,375.1875 Q956.1719,375.1875 956.8125,375.3594 Q957.4688,375.5156 958.0156,375.875 Z " fill="#000000"/><text fill="#000000" font-family="sans-serif" font-size="14" lengthAdjust="spacing" textLength="78" x="975.75" y="385.7285">Collaborator</text><line style="stroke:#181818;stroke-width:0.5;" x1="602.5" x2="1394.5" y1="396" y2="396"/><text fill="#000000" font-family="sans-serif" font-size="14" lengthAdjust="spacing" textLength="81" x="607.5" y="414.5332">-String name</text><text fill="#000000" font-family="sans-serif" font-size="14" lengthAdjust="spacing" textLength="102" x="607.5" y="432.1426">-String birthdate</text><text fill="#000000" font-family="sans-serif" font-size="14" lengthAdjust="spacing" textLength="141" x="607.5" y="449.752">-String admission date</text><text fill="#000000" font-family="sans-serif" font-size="14" lengthAdjust="spacing" textLength="97" x="607.5" y="467.3613">-String address</text><text fill="#000000" font-family="sans-serif" font-size="14" lengthAdjust="spacing" textLength="79" x="607.5" y="484.9707">-String email</text><text fill="#000000" font-family="sans-serif" font-size="14" lengthAdjust="spacing" textLength="69" x="607.5" y="502.5801">-String skill</text><text fill="#000000" font-family="sans-serif" font-size="14" lengthAdjust="spacing" textLength="64" x="607.5" y="520.1895">-int phone</text><line style="stroke:#181818;stroke-width:0.5;" x1="602.5" x2="1394.5" y1="527.2656" y2="527.2656"/><text fill="#000000" font-family="sans-serif" font-size="14" lengthAdjust="spacing" textLength="782" x="607.5" y="545.7988">+create(name,birthdate,admission date,address,phone number,email,identification document type,identification number, job)</text></g><!--link Repositories to Repositories--><g id="link_Repositories_Repositories"><path codeLine="53" d="M1389.52,48.27 C1409.87,50.14 1424.5,56.05 1424.5,66 C1424.5,75.1 1412.27,80.82 1394.63,83.16 " fill="none" id="Repositories-to-Repositories" style="stroke:#181818;stroke-width:1.0;"/><polygon fill="#181818" points="1389.52,83.73,1398.9104,86.6998,1394.4887,83.1716,1398.0169,78.7498,1389.52,83.73" style="stroke:#181818;stroke-width:1.0;"/><text fill="#000000" font-family="sans-serif" font-size="13" lengthAdjust="spacing" textLength="49" x="1430.5" y="71.4951">instance</text></g><!--link RegisterCollaboratorUI to RegisterCollaboratorController--><g id="link_RegisterCollaboratorUI_RegisterCollaboratorController"><path codeLine="54" d="M182.21,66 C192.34,66 202.55,66 212.37,66 " fill="none" id="RegisterCollaboratorUI-to-RegisterCollaboratorController" style="stroke:#181818;stroke-width:1.0;stroke-dasharray:7.0,7.0;"/><polygon fill="#181818" points="217.47,66,208.47,62,212.47,66,208.47,70,217.47,66" style="stroke:#181818;stroke-width:1.0;"/></g><!--link RegisterCollaboratorController to Repositories--><g id="link_RegisterCollaboratorController_Repositories"><path codeLine="55" d="M1089.63,66 C1125.56,66 1159.18,66 1188.29,66 " fill="none" id="RegisterCollaboratorController-to-Repositories" style="stroke:#181818;stroke-width:1.0;stroke-dasharray:7.0,7.0;"/><polygon fill="#181818" points="1193.3,66,1184.3,62,1188.3,66,1184.3,70,1193.3,66" style="stroke:#181818;stroke-width:1.0;"/><text fill="#000000" font-family="sans-serif" font-size="13" lengthAdjust="spacing" textLength="67" x="1108" y="59.4951">repositories</text></g><!--link Repositories to JobRepository--><g id="link_Repositories_JobRepository"><path codeLine="56" d="M1193.48,112.57 C1131.69,141.3 1063.5,173 1063.5,173 C1063.5,173 811.5,203 811.5,203 C811.5,203 806.14,205.75 798.22,209.81 " fill="none" id="Repositories-to-JobRepository" style="stroke:#181818;stroke-width:1.0;"/><polygon fill="#181818" points="793.57,212.19,803.4036,211.6424,798.0191,209.9084,799.7531,204.5239,793.57,212.19" style="stroke:#181818;stroke-width:1.0;"/><text fill="#000000" font-family="sans-serif" font-size="13" lengthAdjust="spacing" textLength="7" x="801.4395" y="204.8176">1</text></g><!--link RegisterCollaboratorController to CollaboratorRepository--><g id="link_RegisterCollaboratorController_CollaboratorRepository"><path codeLine="57" d="M824.92,116.52 C917.59,143.29 1030.81,175.99 1119.13,201.51 " fill="none" id="RegisterCollaboratorController-to-CollaboratorRepository" style="stroke:#181818;stroke-width:1.0;stroke-dasharray:7.0,7.0;"/><polygon fill="#181818" points="1124.11,202.95,1116.5726,196.6107,1119.3062,201.5632,1114.3537,204.2968,1124.11,202.95" style="stroke:#181818;stroke-width:1.0;"/><text fill="#000000" font-family="sans-serif" font-size="13" lengthAdjust="spacing" textLength="131" x="1014.5" y="169.4951">CollaboratorRepository</text></g><!--link RegisterCollaboratorController to JobRepository--><g id="link_RegisterCollaboratorController_JobRepository"><path codeLine="58" d="M675.72,116.63 C688.52,145.24 704.34,180.59 716.03,206.7 " fill="none" id="RegisterCollaboratorController-to-JobRepository" style="stroke:#181818;stroke-width:1.0;stroke-dasharray:7.0,7.0;"/><polygon fill="#181818" points="718.16,211.46,718.1285,201.6112,716.1147,206.8975,710.8285,204.8836,718.16,211.46" style="stroke:#181818;stroke-width:1.0;"/><text fill="#000000" font-family="sans-serif" font-size="13" lengthAdjust="spacing" textLength="82" x="701.5" y="169.4951">JobRepository</text></g><!--link JobRepository to Collaborator--><g id="link_JobRepository_Collaborator"><path codeLine="59" d="M772.9,277.7 C800.8,299.94 839.51,330.78 876.98,360.65 " fill="none" id="JobRepository-to-Collaborator" style="stroke:#181818;stroke-width:1.0;stroke-dasharray:7.0,7.0;"/><polygon fill="#181818" points="881.08,363.91,876.5471,355.1663,877.1743,360.7883,871.5523,361.4155,881.08,363.91" style="stroke:#181818;stroke-width:1.0;"/></g><!--link CollaboratorRepository to Collaborator--><g id="link_CollaboratorRepository_Collaborator"><path codeLine="60" d="M1213.53,286.12 C1186.85,307.38 1152.96,334.4 1120.01,360.66 " fill="none" id="CollaboratorRepository-to-Collaborator" style="stroke:#181818;stroke-width:1.0;"/><polygon fill="#181818" points="1116,363.85,1125.5333,361.3767,1119.9127,360.737,1120.5524,355.1164,1116,363.85" style="stroke:#181818;stroke-width:1.0;"/><text fill="#000000" font-family="sans-serif" font-size="13" lengthAdjust="spacing" textLength="21" x="1171.5" y="330.4951">has</text></g><!--link Repositories to CollaboratorRepository--><g id="link_Repositories_CollaboratorRepository"><path codeLine="61" d="M1282.58,125.28 C1278.99,148.8 1274.9,175.54 1271.52,197.63 " fill="none" id="Repositories-to-CollaboratorRepository" style="stroke:#181818;stroke-width:1.0;"/><polygon fill="#181818" points="1270.72,202.85,1276.0366,194.5594,1271.4771,197.9076,1268.1288,193.3481,1270.72,202.85" style="stroke:#181818;stroke-width:1.0;"/><text fill="#000000" font-family="sans-serif" font-size="13" lengthAdjust="spacing" textLength="7" x="1264.1705" y="192.1328">1</text></g><!--SRC=[pLF1Rjim3BthAuXUqc9EqLvzA33qb66d1Vi0sMPijh9eI0o6hEY_LtOyM_BYPRVDD_8zKk_HvCQ_aksqqosqRBbi7BS8uewePgJJvQkkSIydW-2m56rh4nDyeol-GRQ6WpO-HWnPb5E7qB4vzO7QN03P2QkegZJQ-yyYZegZuAvakwUV20zARGmU18J1KTq8LDJB8RPgA85lM9CNTCziZ2xOQM7tVGTlwbtzWV7CLbo8qGKcXEyJb0wruEtT6DOeNxZu6Ygdr9aHjxcrkiMi82TD5Q1CLorv7yJ165OElS-wXYs2FRO5kWnRJIQZ2gtGWKej0vtBOnioq0zd2Ow5yCB5dGg-Vjdgs5CGGUX74zia6LlPMHz-OHdiGPwG4hSJS8fhOyC9OvfmKZeDD9dWnBtSBIwA6V_V_2yQULDRs8VT3UVGAvgZITgSIZN6-K7id1Y4pc6u5TE755GEXfIQblQVZE7y9MkuVKhNCWzgpukdLkxq_kdAVQehvtl_svCkNk-bl9l7ctHTh_OF3wpiRBu2_4tBz6JoXQOKNKfGAtgsAIs7HYy7C4vWHRVw0000]--></g></svg>