<?xml version="1.0" encoding="UTF-8" standalone="no"?><svg xmlns="http://www.w3.org/2000/svg" xmlns:xlink="http://www.w3.org/1999/xlink" contentStyleType="text/css" height="303px" preserveAspectRatio="none" style="width:621px;height:303px;background:#FFFFFF;" version="1.1" viewBox="0 0 621 303" width="621px" zoomAndPan="magnify"><defs/><g><!--class Organization--><g id="elem_Organization"><rect codeLine="12" fill="#F1F1F1" height="123.6563" id="Organization" rx="2.5" ry="2.5" style="stroke:#181818;stroke-width:0.5;" width="101" x="7" y="15.5"/><text fill="#000000" font-family="sans-serif" font-size="14" lengthAdjust="spacing" textLength="80" x="17.5" y="35.0332">Organization</text><line style="stroke:#181818;stroke-width:0.5;" x1="8" x2="107" y1="43.1094" y2="43.1094"/><text fill="#000000" font-family="sans-serif" font-size="14" lengthAdjust="spacing" textLength="35" x="13" y="61.6426">name</text><text fill="#000000" font-family="sans-serif" font-size="14" lengthAdjust="spacing" textLength="68" x="13" y="79.252">vatNumber</text><text fill="#000000" font-family="sans-serif" font-size="14" lengthAdjust="spacing" textLength="47" x="13" y="96.8613">website</text><text fill="#000000" font-family="sans-serif" font-size="14" lengthAdjust="spacing" textLength="89" x="13" y="114.4707">phoneNumber</text><text fill="#000000" font-family="sans-serif" font-size="14" lengthAdjust="spacing" textLength="33" x="13" y="132.0801">email</text></g><!--class HumanResourcesManager--><g id="elem_HumanResourcesManager"><rect codeLine="20" fill="#F1F1F1" height="88.4375" id="HumanResourcesManager" rx="2.5" ry="2.5" style="stroke:#181818;stroke-width:0.5;" width="174" x="178.5" y="33.5"/><text fill="#000000" font-family="sans-serif" font-size="14" lengthAdjust="spacing" textLength="168" x="181.5" y="53.0332">HumanResourcesManager</text><line style="stroke:#181818;stroke-width:0.5;" x1="179.5" x2="351.5" y1="61.1094" y2="61.1094"/><text fill="#000000" font-family="sans-serif" font-size="14" lengthAdjust="spacing" textLength="35" x="184.5" y="79.6426">name</text><text fill="#000000" font-family="sans-serif" font-size="14" lengthAdjust="spacing" textLength="33" x="184.5" y="97.252">email</text><text fill="#000000" font-family="sans-serif" font-size="14" lengthAdjust="spacing" textLength="40" x="184.5" y="114.8613">phone</text></g><!--class Collaborator--><g id="elem_Collaborator"><rect codeLine="26" fill="#F1F1F1" height="141.2656" id="Collaborator" rx="2.5" ry="2.5" style="stroke:#181818;stroke-width:0.5;" width="107" x="455" y="7"/><text fill="#000000" font-family="sans-serif" font-size="14" lengthAdjust="spacing" textLength="78" x="469.5" y="26.5332">Collaborator</text><line style="stroke:#181818;stroke-width:0.5;" x1="456" x2="561" y1="34.6094" y2="34.6094"/><text fill="#000000" font-family="sans-serif" font-size="14" lengthAdjust="spacing" textLength="35" x="461" y="53.1426">name</text><text fill="#000000" font-family="sans-serif" font-size="14" lengthAdjust="spacing" textLength="56" x="461" y="70.752">birthdate</text><text fill="#000000" font-family="sans-serif" font-size="14" lengthAdjust="spacing" textLength="95" x="461" y="88.3613">admission date</text><text fill="#000000" font-family="sans-serif" font-size="14" lengthAdjust="spacing" textLength="51" x="461" y="105.9707">address</text><text fill="#000000" font-family="sans-serif" font-size="14" lengthAdjust="spacing" textLength="33" x="461" y="123.5801">email</text><text fill="#000000" font-family="sans-serif" font-size="14" lengthAdjust="spacing" textLength="40" x="461" y="141.1895">phone</text></g><!--class ID--><g id="elem_ID"><rect codeLine="35" fill="#F1F1F1" height="70.8281" id="ID" rx="2.5" ry="2.5" style="stroke:#181818;stroke-width:0.5;" width="60" x="554.5" y="226"/><text fill="#000000" font-family="sans-serif" font-size="14" lengthAdjust="spacing" textLength="13" x="578" y="245.5332">ID</text><line style="stroke:#181818;stroke-width:0.5;" x1="555.5" x2="613.5" y1="253.6094" y2="253.6094"/><text fill="#000000" font-family="sans-serif" font-size="14" lengthAdjust="spacing" textLength="27" x="560.5" y="272.1426">type</text><text fill="#000000" font-family="sans-serif" font-size="14" lengthAdjust="spacing" textLength="48" x="560.5" y="289.752">number</text></g><!--class Job--><g id="elem_Job"><rect codeLine="40" fill="#F1F1F1" height="53.2188" id="Job" rx="2.5" ry="2.5" style="stroke:#181818;stroke-width:0.5;" width="47" x="388" y="235"/><text fill="#000000" font-family="sans-serif" font-size="14" lengthAdjust="spacing" textLength="22" x="400.5" y="254.5332">Job</text><line style="stroke:#181818;stroke-width:0.5;" x1="389" x2="434" y1="262.6094" y2="262.6094"/><text fill="#000000" font-family="sans-serif" font-size="14" lengthAdjust="spacing" textLength="35" x="394" y="281.1426">name</text></g><!--class Skill--><g id="elem_Skill"><rect codeLine="44" fill="#F1F1F1" height="53.2188" id="Skill" rx="2.5" ry="2.5" style="stroke:#181818;stroke-width:0.5;" width="47" x="295" y="235"/><text fill="#000000" font-family="sans-serif" font-size="14" lengthAdjust="spacing" textLength="25" x="306" y="254.5332">Skill</text><line style="stroke:#181818;stroke-width:0.5;" x1="296" x2="341" y1="262.6094" y2="262.6094"/><text fill="#000000" font-family="sans-serif" font-size="14" lengthAdjust="spacing" textLength="35" x="301" y="281.1426">name</text></g><!--link Collaborator to Skill--><g id="link_Collaborator_Skill"><path codeLine="48" d="M454.76,135.36 C435.76,154.94 414.01,176.77 393.5,196 C376.84,211.62 357.24,228.42 342.26,240.96 " fill="none" id="Collaborator-Skill" style="stroke:#181818;stroke-width:1.0;"/><polygon fill="#000000" points="410.8544,190.5977,419.4607,186.5502,415.4379,182.2645,410.8544,190.5977" style="stroke:#000000;stroke-width:1.0;"/><text fill="#000000" font-family="sans-serif" font-size="13" lengthAdjust="spacing" textLength="21" x="423.5" y="192.4951">has</text><text fill="#000000" font-family="sans-serif" font-size="13" lengthAdjust="spacing" textLength="7" x="440.0684" y="139.5608">1</text><text fill="#000000" font-family="sans-serif" font-size="13" lengthAdjust="spacing" textLength="5" x="349.9739" y="230.091">*</text></g><!--link Collaborator to Job--><g id="link_Collaborator_Job"><path codeLine="49" d="M490.59,148.28 C485.01,164.51 478.03,181.32 469.5,196 C460.34,211.75 446.89,227.03 435.24,238.75 " fill="none" id="Collaborator-Job" style="stroke:#181818;stroke-width:1.0;"/><polygon fill="#000000" points="480.8906,191.4409,488.118,185.259,483.1041,182.1915,480.8906,191.4409" style="stroke:#000000;stroke-width:1.0;"/><text fill="#000000" font-family="sans-serif" font-size="13" lengthAdjust="spacing" textLength="21" x="492.5" y="192.4951">has</text><text fill="#000000" font-family="sans-serif" font-size="13" lengthAdjust="spacing" textLength="7" x="481.3821" y="169.9037">1</text><text fill="#000000" font-family="sans-serif" font-size="13" lengthAdjust="spacing" textLength="7" x="442.9013" y="227.6154">1</text></g><!--link Collaborator to ID--><g id="link_Collaborator_ID"><path codeLine="50" d="M537.56,148.09 C548.62,174.58 560.76,203.64 569.92,225.57 " fill="none" id="Collaborator-ID" style="stroke:#181818;stroke-width:1.0;"/><polygon fill="#000000" points="562.427,191.7895,561.653,182.3105,556.2292,184.5758,562.427,191.7895" style="stroke:#000000;stroke-width:1.0;"/><text fill="#000000" font-family="sans-serif" font-size="13" lengthAdjust="spacing" textLength="21" x="569.5" y="192.4951">has</text><text fill="#000000" font-family="sans-serif" font-size="13" lengthAdjust="spacing" textLength="7" x="533.1959" y="169.6941">1</text><text fill="#000000" font-family="sans-serif" font-size="13" lengthAdjust="spacing" textLength="7" x="559.5865" y="215.0138">1</text></g><!--link Organization to HumanResourcesManager--><g id="link_Organization_HumanResourcesManager"><path codeLine="51" d="M108.12,77.5 C129.28,77.5 154.49,77.5 178.47,77.5 " fill="none" id="Organization-HumanResourcesManager" style="stroke:#181818;stroke-width:1.0;"/><polygon fill="#000000" points="135.25,65.6758,126.2049,62.7369,126.2049,68.6147,135.25,65.6758" style="stroke:#000000;stroke-width:1.0;"/><text fill="#000000" font-family="sans-serif" font-size="13" lengthAdjust="spacing" textLength="21" x="139.25" y="70.9951">has</text><text fill="#000000" font-family="sans-serif" font-size="13" lengthAdjust="spacing" textLength="7" x="116.0689" y="73.8712">1</text><text fill="#000000" font-family="sans-serif" font-size="13" lengthAdjust="spacing" textLength="7" x="163.4072" y="74.2788">1</text></g><!--link HumanResourcesManager to Skill--><g id="link_HumanResourcesManager_Skill"><path codeLine="52" d="M230.76,121.51 C216.78,144.26 206.66,172.31 219.5,196 C235.34,225.22 270.77,243.28 294.66,252.61 " fill="none" id="HumanResourcesManager-Skill" style="stroke:#181818;stroke-width:1.0;"/><polygon fill="#000000" points="226.6907,191.6703,225.3695,182.252,220.0859,184.8273,226.6907,191.6703" style="stroke:#000000;stroke-width:1.0;"/><text fill="#000000" font-family="sans-serif" font-size="13" lengthAdjust="spacing" textLength="50" x="233.5" y="192.4951">registers</text><text fill="#000000" font-family="sans-serif" font-size="13" lengthAdjust="spacing" textLength="7" x="217.6655" y="143.2874">1</text><text fill="#000000" font-family="sans-serif" font-size="13" lengthAdjust="spacing" textLength="5" x="281.9226" y="245.1632">*</text></g><!--link HumanResourcesManager to Job--><g id="link_HumanResourcesManager_Job"><path codeLine="53" d="M281.37,121.6 C291.41,145.18 305.99,173.99 324.5,196 C334.12,207.44 365.35,229.55 387.64,244.66 " fill="none" id="HumanResourcesManager-Job" style="stroke:#181818;stroke-width:1.0;"/><polygon fill="#000000" points="332.7679,190.96,329.0805,182.1934,324.6319,186.0351,332.7679,190.96" style="stroke:#000000;stroke-width:1.0;"/><text fill="#000000" font-family="sans-serif" font-size="13" lengthAdjust="spacing" textLength="50" x="338.5" y="192.4951">registers</text><text fill="#000000" font-family="sans-serif" font-size="13" lengthAdjust="spacing" textLength="7" x="276.3415" y="143.3917">1</text><text fill="#000000" font-family="sans-serif" font-size="13" lengthAdjust="spacing" textLength="5" x="374.8968" y="234.8779">*</text></g><!--link HumanResourcesManager to Collaborator--><g id="link_HumanResourcesManager_Collaborator"><path codeLine="54" d="M352.54,77.5 C386.72,77.5 424.87,77.5 454.88,77.5 " fill="none" id="HumanResourcesManager-Collaborator" style="stroke:#181818;stroke-width:1.0;"/><polygon fill="#000000" points="379.75,65.6758,370.7049,62.7369,370.7049,68.6147,379.75,65.6758" style="stroke:#000000;stroke-width:1.0;"/><text fill="#000000" font-family="sans-serif" font-size="13" lengthAdjust="spacing" textLength="53" x="383.75" y="70.9951">manages</text><text fill="#000000" font-family="sans-serif" font-size="13" lengthAdjust="spacing" textLength="7" x="360.6037" y="74.2788">1</text><text fill="#000000" font-family="sans-serif" font-size="13" lengthAdjust="spacing" textLength="5" x="441.9881" y="73.8762">*</text></g><!--SRC=[ZP5DJiCm48NtFiKe6oIaIh3j0Wd1WY814Zt1n9d6e_ediYTKBUBk94uRqb91iqWSl_VDlB7Jcds34Hsuu8CsCJW2YIsfD2eDwZNMj9Ij9OYa1NrjfuPai0eRzZMiq2PIwihIIa02HAwDGCKznS6h2QGjfdGl4hbiXHOw-2Nl26wKCbmHQ8wwQvBNZiI4AYcL6NYBDNhUOLyHFXLqZqT7UV61yjgwacB-sr2PM0QbCS7JH2E7RDNNeUXJwz2_Kmfjr9HUq7SJnzFg0pDM-w4VWhLOXeWIVa4bHp4LxcDWvJYbFlbagugKqjyT5e_xkh9j1imFiuoEvr1EMu_xopLRUw8SvIrk2vZDeBWkzjuv64nmTzxLVVfE_tcwl0VBqNrbItwVF_43T5uz4pLIpKaeNWGDoIz4Cd4qtnnSDdJWDm00]--></g></svg>