<?xml version="1.0" encoding="UTF-8" standalone="no"?><svg xmlns="http://www.w3.org/2000/svg" xmlns:xlink="http://www.w3.org/1999/xlink" contentStyleType="text/css" height="555px" preserveAspectRatio="none" style="width:1135px;height:555px;background:#FFFFFF;" version="1.1" viewBox="0 0 1135 555" width="1135px" zoomAndPan="magnify"><defs/><g><rect fill="#FFFFFF" height="372.125" style="stroke:#181818;stroke-width:1.0;" width="10" x="49" y="92.6094"/><rect fill="#FFFFFF" height="340.7734" style="stroke:#181818;stroke-width:1.0;" width="10" x="338" y="114.9609"/><rect fill="#FFFFFF" height="237.4609" style="stroke:#181818;stroke-width:1.0;" width="10" x="593" y="187.9219"/><rect fill="#FFFFFF" height="30.3516" style="stroke:#181818;stroke-width:1.0;" width="10" x="848" y="364.6797"/><rect fill="#FFFFFF" height="30.3516" style="stroke:#181818;stroke-width:1.0;" width="10" x="970.5" y="243.2734"/><rect fill="#FFFFFF" height="30.3516" style="stroke:#181818;stroke-width:1.0;" width="10" x="1075.5" y="303.9766"/><line style="stroke:#181818;stroke-width:0.5;stroke-dasharray:5.0,5.0;" x1="54" x2="54" y1="82.6094" y2="473.7344"/><line style="stroke:#181818;stroke-width:0.5;stroke-dasharray:5.0,5.0;" x1="343" x2="343" y1="82.6094" y2="473.7344"/><line style="stroke:#181818;stroke-width:0.5;stroke-dasharray:5.0,5.0;" x1="598" x2="598" y1="154.2656" y2="473.7344"/><line style="stroke:#181818;stroke-width:0.5;stroke-dasharray:5.0,5.0;" x1="853" x2="853" y1="82.6094" y2="473.7344"/><line style="stroke:#181818;stroke-width:0.5;stroke-dasharray:5.0,5.0;" x1="975" x2="975" y1="82.6094" y2="473.7344"/><line style="stroke:#181818;stroke-width:0.5;stroke-dasharray:5.0,5.0;" x1="1080" x2="1080" y1="82.6094" y2="473.7344"/><text fill="#000000" font-family="sans-serif" font-size="14" lengthAdjust="spacing" textLength="92" x="5" y="79.5332">Fleet Manager</text><ellipse cx="54" cy="13.5" fill="#E3E3E3" rx="8" ry="8" style="stroke:#181818;stroke-width:0.5;"/><path d="M54,21.5 L54,48.5 M41,29.5 L67,29.5 M54,48.5 L41,63.5 M54,48.5 L67,63.5 " fill="none" style="stroke:#181818;stroke-width:0.5;"/><text fill="#000000" font-family="sans-serif" font-size="14" lengthAdjust="spacing" textLength="92" x="5" y="487.2676">Fleet Manager</text><ellipse cx="54" cy="498.8438" fill="#E3E3E3" rx="8" ry="8" style="stroke:#181818;stroke-width:0.5;"/><path d="M54,506.8438 L54,533.8438 M41,514.8438 L67,514.8438 M54,533.8438 L41,548.8438 M54,533.8438 L67,548.8438 " fill="none" style="stroke:#181818;stroke-width:0.5;"/><rect fill="#E3E3E3" height="31.6094" rx="2.5" ry="2.5" style="stroke:#181818;stroke-width:0.5;" width="210" x="238" y="50"/><text fill="#000000" font-family="sans-serif" font-size="14" lengthAdjust="spacing" textLength="196" x="245" y="71.5332">GenerateMaintenanceReportUI</text><rect fill="#E3E3E3" height="31.6094" rx="2.5" ry="2.5" style="stroke:#181818;stroke-width:0.5;" width="210" x="238" y="472.7344"/><text fill="#000000" font-family="sans-serif" font-size="14" lengthAdjust="spacing" textLength="196" x="245" y="494.2676">GenerateMaintenanceReportUI</text><rect fill="#E3E3E3" height="31.6094" rx="2.5" ry="2.5" style="stroke:#181818;stroke-width:0.5;" width="260" x="468" y="472.7344"/><text fill="#000000" font-family="sans-serif" font-size="14" lengthAdjust="spacing" textLength="246" x="475" y="494.2676">GenerateMaintenanceReportController</text><rect fill="#E3E3E3" height="49.2188" rx="2.5" ry="2.5" style="stroke:#181818;stroke-width:0.5;" width="132" x="787" y="32.3906"/><text fill="#000000" font-family="sans-serif" font-size="14" lengthAdjust="spacing" textLength="112" x="797" y="53.9238">vehicleRepository</text><text fill="#000000" font-family="sans-serif" font-size="14" lengthAdjust="spacing" textLength="118" x="794" y="71.5332">:VehicleRepository</text><rect fill="#E3E3E3" height="49.2188" rx="2.5" ry="2.5" style="stroke:#181818;stroke-width:0.5;" width="132" x="787" y="472.7344"/><text fill="#000000" font-family="sans-serif" font-size="14" lengthAdjust="spacing" textLength="112" x="797" y="494.2676">vehicleRepository</text><text fill="#000000" font-family="sans-serif" font-size="14" lengthAdjust="spacing" textLength="118" x="794" y="511.877">:VehicleRepository</text><rect fill="#E3E3E3" height="31.6094" rx="2.5" ry="2.5" style="stroke:#181818;stroke-width:0.5;" width="93" x="929" y="50"/><text fill="#000000" font-family="sans-serif" font-size="14" lengthAdjust="spacing" textLength="79" x="936" y="71.5332">Repositories</text><rect fill="#E3E3E3" height="31.6094" rx="2.5" ry="2.5" style="stroke:#181818;stroke-width:0.5;" width="93" x="929" y="472.7344"/><text fill="#000000" font-family="sans-serif" font-size="14" lengthAdjust="spacing" textLength="79" x="936" y="494.2676">Repositories</text><rect fill="#E3E3E3" height="49.2188" rx="2.5" ry="2.5" style="stroke:#181818;stroke-width:0.5;" width="97" x="1032" y="32.3906"/><text fill="#000000" font-family="sans-serif" font-size="14" lengthAdjust="spacing" textLength="74" x="1043.5" y="53.9238">repositories</text><text fill="#000000" font-family="sans-serif" font-size="14" lengthAdjust="spacing" textLength="83" x="1039" y="71.5332">:Repositories</text><rect fill="#E3E3E3" height="49.2188" rx="2.5" ry="2.5" style="stroke:#181818;stroke-width:0.5;" width="97" x="1032" y="472.7344"/><text fill="#000000" font-family="sans-serif" font-size="14" lengthAdjust="spacing" textLength="74" x="1043.5" y="494.2676">repositories</text><text fill="#000000" font-family="sans-serif" font-size="14" lengthAdjust="spacing" textLength="83" x="1039" y="511.877">:Repositories</text><rect fill="#FFFFFF" height="372.125" style="stroke:#181818;stroke-width:1.0;" width="10" x="49" y="92.6094"/><rect fill="#FFFFFF" height="340.7734" style="stroke:#181818;stroke-width:1.0;" width="10" x="338" y="114.9609"/><rect fill="#FFFFFF" height="237.4609" style="stroke:#181818;stroke-width:1.0;" width="10" x="593" y="187.9219"/><rect fill="#FFFFFF" height="30.3516" style="stroke:#181818;stroke-width:1.0;" width="10" x="848" y="364.6797"/><rect fill="#FFFFFF" height="30.3516" style="stroke:#181818;stroke-width:1.0;" width="10" x="970.5" y="243.2734"/><rect fill="#FFFFFF" height="30.3516" style="stroke:#181818;stroke-width:1.0;" width="10" x="1075.5" y="303.9766"/><polygon fill="#181818" points="326,110.9609,336,114.9609,326,118.9609,330,114.9609" style="stroke:#181818;stroke-width:1.0;"/><line style="stroke:#181818;stroke-width:1.0;" x1="59" x2="332" y1="114.9609" y2="114.9609"/><text fill="#000000" font-family="sans-serif" font-size="13" font-weight="bold" lengthAdjust="spacing" textLength="7" x="66" y="110.1045">1</text><text fill="#000000" font-family="sans-serif" font-size="13" lengthAdjust="spacing" textLength="249" x="77" y="110.1045">requests to list vehicles in need of checkup</text><polygon fill="#181818" points="456,141.3125,466,145.3125,456,149.3125,460,145.3125" style="stroke:#181818;stroke-width:1.0;"/><line style="stroke:#181818;stroke-width:1.0;" x1="348" x2="462" y1="145.3125" y2="145.3125"/><text fill="#000000" font-family="sans-serif" font-size="13" font-weight="bold" lengthAdjust="spacing" textLength="7" x="355" y="140.4561">2</text><text fill="#000000" font-family="sans-serif" font-size="13" lengthAdjust="spacing" textLength="85" x="366" y="140.4561">choose vehicle</text><rect fill="#E3E3E3" height="31.6094" rx="2.5" ry="2.5" style="stroke:#181818;stroke-width:0.5;" width="260" x="468" y="122.9609"/><text fill="#000000" font-family="sans-serif" font-size="14" lengthAdjust="spacing" textLength="246" x="475" y="144.4941">GenerateMaintenanceReportController</text><polygon fill="#181818" points="581,183.9219,591,187.9219,581,191.9219,585,187.9219" style="stroke:#181818;stroke-width:1.0;"/><line style="stroke:#181818;stroke-width:1.0;" x1="348" x2="587" y1="187.9219" y2="187.9219"/><text fill="#000000" font-family="sans-serif" font-size="13" font-weight="bold" lengthAdjust="spacing" textLength="7" x="355" y="183.0654">3</text><text fill="#000000" font-family="sans-serif" font-size="13" lengthAdjust="spacing" textLength="181" x="366" y="183.0654">getVehiclesRequiringCheckup()</text><polygon fill="#181818" points="958.5,239.2734,968.5,243.2734,958.5,247.2734,962.5,243.2734" style="stroke:#181818;stroke-width:1.0;"/><line style="stroke:#181818;stroke-width:1.0;" x1="603" x2="964.5" y1="243.2734" y2="243.2734"/><text fill="#000000" font-family="sans-serif" font-size="13" font-weight="bold" lengthAdjust="spacing" textLength="7" x="610" y="238.417">4</text><text fill="#000000" font-family="sans-serif" font-size="13" lengthAdjust="spacing" textLength="75" x="621" y="238.417">getInstance()</text><polygon fill="#181818" points="614,269.625,604,273.625,614,277.625,610,273.625" style="stroke:#181818;stroke-width:1.0;"/><line style="stroke:#181818;stroke-width:1.0;stroke-dasharray:2.0,2.0;" x1="608" x2="974.5" y1="273.625" y2="273.625"/><text fill="#000000" font-family="sans-serif" font-size="13" font-weight="bold" lengthAdjust="spacing" textLength="7" x="620" y="268.7686">5</text><text fill="#000000" font-family="sans-serif" font-size="13" lengthAdjust="spacing" textLength="67" x="631" y="268.7686">repositories</text><polygon fill="#181818" points="1063.5,299.9766,1073.5,303.9766,1063.5,307.9766,1067.5,303.9766" style="stroke:#181818;stroke-width:1.0;"/><line style="stroke:#181818;stroke-width:1.0;" x1="603" x2="1069.5" y1="303.9766" y2="303.9766"/><text fill="#000000" font-family="sans-serif" font-size="13" font-weight="bold" lengthAdjust="spacing" textLength="7" x="610" y="299.1201">6</text><text fill="#000000" font-family="sans-serif" font-size="13" lengthAdjust="spacing" textLength="131" x="621" y="299.1201">getVehicleRepository()</text><polygon fill="#181818" points="614,330.3281,604,334.3281,614,338.3281,610,334.3281" style="stroke:#181818;stroke-width:1.0;"/><line style="stroke:#181818;stroke-width:1.0;stroke-dasharray:2.0,2.0;" x1="608" x2="1079.5" y1="334.3281" y2="334.3281"/><text fill="#000000" font-family="sans-serif" font-size="13" font-weight="bold" lengthAdjust="spacing" textLength="7" x="620" y="329.4717">7</text><text fill="#000000" font-family="sans-serif" font-size="13" lengthAdjust="spacing" textLength="101" x="631" y="329.4717">vehicleRepository</text><polygon fill="#181818" points="836,360.6797,846,364.6797,836,368.6797,840,364.6797" style="stroke:#181818;stroke-width:1.0;"/><line style="stroke:#181818;stroke-width:1.0;" x1="603" x2="842" y1="364.6797" y2="364.6797"/><text fill="#000000" font-family="sans-serif" font-size="13" font-weight="bold" lengthAdjust="spacing" textLength="7" x="610" y="359.8232">8</text><text fill="#000000" font-family="sans-serif" font-size="13" lengthAdjust="spacing" textLength="215" x="621" y="359.8232">getListOfVehiclesRequiringCheckup()</text><polygon fill="#181818" points="614,391.0313,604,395.0313,614,399.0313,610,395.0313" style="stroke:#181818;stroke-width:1.0;"/><line style="stroke:#181818;stroke-width:1.0;stroke-dasharray:2.0,2.0;" x1="608" x2="852" y1="395.0313" y2="395.0313"/><text fill="#000000" font-family="sans-serif" font-size="13" font-weight="bold" lengthAdjust="spacing" textLength="7" x="620" y="390.1748">9</text><text fill="#000000" font-family="sans-serif" font-size="13" lengthAdjust="spacing" textLength="60" x="631" y="390.1748">vehicleList</text><polygon fill="#181818" points="359,421.3828,349,425.3828,359,429.3828,355,425.3828" style="stroke:#181818;stroke-width:1.0;"/><line style="stroke:#181818;stroke-width:1.0;stroke-dasharray:2.0,2.0;" x1="353" x2="597" y1="425.3828" y2="425.3828"/><text fill="#000000" font-family="sans-serif" font-size="13" font-weight="bold" lengthAdjust="spacing" textLength="14" x="365" y="420.5264">10</text><text fill="#000000" font-family="sans-serif" font-size="13" lengthAdjust="spacing" textLength="60" x="383" y="420.5264">vehicleList</text><polygon fill="#181818" points="70,451.7344,60,455.7344,70,459.7344,66,455.7344" style="stroke:#181818;stroke-width:1.0;"/><line style="stroke:#181818;stroke-width:1.0;stroke-dasharray:2.0,2.0;" x1="64" x2="342" y1="455.7344" y2="455.7344"/><text fill="#000000" font-family="sans-serif" font-size="13" font-weight="bold" lengthAdjust="spacing" textLength="14" x="76" y="450.8779">11</text><text fill="#000000" font-family="sans-serif" font-size="13" lengthAdjust="spacing" textLength="232" x="94" y="450.8779">shows list of vehicles requiring check-up</text><!--SRC=[bLHDJ-Cm4BtxLunwAOle7-20XBhggbAhHG5wucASIMCrjOCzWKNgZz-nawP9aowiJr5cvhqtdtwdJIcTtCFU6gjoP_S8v2eKlhMKKkta5X_fiq1mg4YQRT5ryBbCxOSsMyXauL48MP4rrVuLdH3JNAS8cRNqQly8gSWwc2mAH8ArD8ph9Y0zBDQ2mKWhNKf3CFc51fqaN4jj28qq2XCihQFdPVH_NdxJVsuDELiK3S_yALdr8zynrwg8tbwpkiyNSxiv_nTZDqa_iZLhzD7XvF-eGusu2lq8rubWcW70m-h-IOXG9VtEoOIg26ZUOWspEyuRRha9RnLwya0M2kq9cXmyQ0C6CGMRWSfHxQho1D2YSkt453gFGMUCVVzptGLF9KcuSfYXGoxd3QJebTCbQMjkWAaow_QoW1VJjn2gt6Z5bjxljEB-n2zbFVqGNG5JvJ0eYzqHvzBkul_hQnQdSciz7lEzvCgEMwIcYJxXXBJZXiphYbprkTko3Cd3EnmEWt_XHHxc6-bvP5yQJs4ApzW6h6CpCnenuXYx5eI4hfr6QJGynV-dFEOOnh9RqXF0LzdL0mqNNh1sSXXiubU9ZACVLM-Ig7d52_8x- -OmzCJplW-CcsGeE328VyWSmwb5DWjz2QU3CRuP7By8Eyids7xu-XRmwhVdm1sphQ_1ZC_127Qu1ty1]--></g></svg>