<?xml version="1.0" encoding="UTF-8" standalone="no"?><svg xmlns="http://www.w3.org/2000/svg" xmlns:xlink="http://www.w3.org/1999/xlink" contentStyleType="text/css" height="1307px" preserveAspectRatio="none" style="width:2244px;height:1307px;background:#FFFFFF;" version="1.1" viewBox="0 0 2244 1307" width="2244px" zoomAndPan="magnify"><defs/><g><rect fill="#FFFFFF" height="1123.4688" style="stroke:#181818;stroke-width:1.0;" width="10" x="49" y="92.6094"/><rect fill="#FFFFFF" height="719.9922" style="stroke:#181818;stroke-width:1.0;" width="10" x="334" y="114.9609"/><rect fill="#FFFFFF" height="30.3516" style="stroke:#181818;stroke-width:1.0;" width="10" x="334" y="865.3047"/><rect fill="#FFFFFF" height="281.0703" style="stroke:#181818;stroke-width:1.0;" width="10" x="334" y="926.0078"/><rect fill="#FFFFFF" height="1028.1563" style="stroke:#181818;stroke-width:1.0;" width="10" x="678" y="187.9219"/><rect fill="#FFFFFF" height="553.3281" style="stroke:#181818;stroke-width:1.0;" width="10" x="683" y="251.2734"/><rect fill="#FFFFFF" height="220.3672" style="stroke:#181818;stroke-width:1.0;" width="10" x="683" y="956.3594"/><rect fill="#FFFFFF" height="229.3672" style="stroke:#181818;stroke-width:1.0;" width="10" x="1022" y="986.7109"/><rect fill="#FFFFFF" height="148.4063" style="stroke:#181818;stroke-width:1.0;" width="10" x="1027" y="1067.6719"/><rect fill="#FFFFFF" height="35.3516" style="stroke:#181818;stroke-width:1.0;" width="10" x="1032" y="1111.0234"/><rect fill="#FFFFFF" height="30.3516" style="stroke:#181818;stroke-width:1.0;" width="10" x="1222" y="468.7344"/><rect fill="#FFFFFF" height="30.3516" style="stroke:#181818;stroke-width:1.0;" width="10" x="1329" y="529.4375"/><rect fill="#FFFFFF" height="30.3516" style="stroke:#181818;stroke-width:1.0;" width="10" x="1456" y="286.625"/><rect fill="#FFFFFF" height="30.3516" style="stroke:#181818;stroke-width:1.0;" width="10" x="1603" y="347.3281"/><rect fill="#FFFFFF" height="30.3516" style="stroke:#181818;stroke-width:1.0;" width="10" x="1736" y="408.0313"/><rect fill="#FFFFFF" height="123.4063" style="stroke:#181818;stroke-width:1.0;" width="10" x="1882" y="590.1406"/><rect fill="#FFFFFF" height="30.3516" style="stroke:#181818;stroke-width:1.0;" width="10" x="2103" y="645.8438"/><rect fill="#FFFFFF" height="30.3516" style="stroke:#181818;stroke-width:1.0;" width="10" x="2103" y="743.8984"/><rect fill="none" height="79.0547" style="stroke:#000000;stroke-width:1.5;" width="371.5" x="1795.5" y="605.1406"/><line style="stroke:#181818;stroke-width:0.5;stroke-dasharray:5.0,5.0;" x1="54" x2="54" y1="82.6094" y2="1225.0781"/><line style="stroke:#181818;stroke-width:0.5;stroke-dasharray:5.0,5.0;" x1="339" x2="339" y1="82.6094" y2="1225.0781"/><line style="stroke:#181818;stroke-width:0.5;stroke-dasharray:5.0,5.0;" x1="683" x2="683" y1="154.2656" y2="1225.0781"/><line style="stroke:#181818;stroke-width:0.5;stroke-dasharray:5.0,5.0;" x1="887" x2="887" y1="82.6094" y2="1225.0781"/><line style="stroke:#181818;stroke-width:0.5;stroke-dasharray:5.0,5.0;" x1="1027" x2="1027" y1="82.6094" y2="1225.0781"/><line style="stroke:#181818;stroke-width:0.5;stroke-dasharray:5.0,5.0;" x1="1226.5" x2="1226.5" y1="82.6094" y2="1225.0781"/><line style="stroke:#181818;stroke-width:0.5;stroke-dasharray:5.0,5.0;" x1="1333.5" x2="1333.5" y1="82.6094" y2="1225.0781"/><line style="stroke:#181818;stroke-width:0.5;stroke-dasharray:5.0,5.0;" x1="1460.5" x2="1460.5" y1="82.6094" y2="1225.0781"/><line style="stroke:#181818;stroke-width:0.5;stroke-dasharray:5.0,5.0;" x1="1607.5" x2="1607.5" y1="82.6094" y2="1225.0781"/><line style="stroke:#181818;stroke-width:0.5;stroke-dasharray:5.0,5.0;" x1="1740.5" x2="1740.5" y1="82.6094" y2="1225.0781"/><line style="stroke:#181818;stroke-width:0.5;stroke-dasharray:5.0,5.0;" x1="1886.5" x2="1886.5" y1="82.6094" y2="1225.0781"/><line style="stroke:#181818;stroke-width:0.5;stroke-dasharray:5.0,5.0;" x1="2108" x2="2108" y1="82.6094" y2="1225.0781"/><line style="stroke:#181818;stroke-width:0.5;stroke-dasharray:5.0,5.0;" x1="2202" x2="2202" y1="1026.0156" y2="1225.0781"/><text fill="#000000" font-family="sans-serif" font-size="14" lengthAdjust="spacing" textLength="92" x="5" y="79.5332">Fleet Manager</text><ellipse cx="54" cy="13.5" fill="#E3E3E3" rx="8" ry="8" style="stroke:#181818;stroke-width:0.5;"/><path d="M54,21.5 L54,48.5 M41,29.5 L67,29.5 M54,48.5 L41,63.5 M54,48.5 L67,63.5 " fill="none" style="stroke:#181818;stroke-width:0.5;"/><text fill="#000000" font-family="sans-serif" font-size="14" lengthAdjust="spacing" textLength="92" x="5" y="1238.6113">Fleet Manager</text><ellipse cx="54" cy="1250.1875" fill="#E3E3E3" rx="8" ry="8" style="stroke:#181818;stroke-width:0.5;"/><path d="M54,1258.1875 L54,1285.1875 M41,1266.1875 L67,1266.1875 M54,1285.1875 L41,1300.1875 M54,1285.1875 L67,1300.1875 " fill="none" style="stroke:#181818;stroke-width:0.5;"/><rect fill="#E3E3E3" height="31.6094" rx="2.5" ry="2.5" style="stroke:#181818;stroke-width:0.5;" width="210" x="234" y="50"/><text fill="#000000" font-family="sans-serif" font-size="14" lengthAdjust="spacing" textLength="196" x="241" y="71.5332">GenerateMaintenanceReportUI</text><rect fill="#E3E3E3" height="31.6094" rx="2.5" ry="2.5" style="stroke:#181818;stroke-width:0.5;" width="210" x="234" y="1224.0781"/><text fill="#000000" font-family="sans-serif" font-size="14" lengthAdjust="spacing" textLength="196" x="241" y="1245.6113">GenerateMaintenanceReportUI</text><rect fill="#E3E3E3" height="31.6094" rx="2.5" ry="2.5" style="stroke:#181818;stroke-width:0.5;" width="260" x="553" y="1224.0781"/><text fill="#000000" font-family="sans-serif" font-size="14" lengthAdjust="spacing" textLength="246" x="560" y="1245.6113">GenerateMaintenanceReportController</text><rect fill="#E3E3E3" height="31.6094" rx="2.5" ry="2.5" style="stroke:#181818;stroke-width:0.5;" width="128" x="823" y="50"/><text fill="#000000" font-family="sans-serif" font-size="14" lengthAdjust="spacing" textLength="114" x="830" y="71.5332">VehicleRepository</text><rect fill="#E3E3E3" height="31.6094" rx="2.5" ry="2.5" style="stroke:#181818;stroke-width:0.5;" width="128" x="823" y="1224.0781"/><text fill="#000000" font-family="sans-serif" font-size="14" lengthAdjust="spacing" textLength="114" x="830" y="1245.6113">VehicleRepository</text><rect fill="#E3E3E3" height="49.2188" rx="2.5" ry="2.5" style="stroke:#181818;stroke-width:0.5;" width="64" x="995" y="32.3906"/><text fill="#000000" font-family="sans-serif" font-size="14" lengthAdjust="spacing" textLength="46" x="1004" y="53.9238">Vehicle</text><text fill="#000000" font-family="sans-serif" font-size="14" lengthAdjust="spacing" textLength="50" x="1002" y="71.5332">:Vehicle</text><rect fill="#E3E3E3" height="49.2188" rx="2.5" ry="2.5" style="stroke:#181818;stroke-width:0.5;" width="64" x="995" y="1224.0781"/><text fill="#000000" font-family="sans-serif" font-size="14" lengthAdjust="spacing" textLength="46" x="1004" y="1245.6113">Vehicle</text><text fill="#000000" font-family="sans-serif" font-size="14" lengthAdjust="spacing" textLength="50" x="1002" y="1263.2207">:Vehicle</text><rect fill="#E3E3E3" height="31.6094" rx="2.5" ry="2.5" style="stroke:#181818;stroke-width:0.5;" width="97" x="1178.5" y="50"/><text fill="#000000" font-family="sans-serif" font-size="14" lengthAdjust="spacing" textLength="83" x="1185.5" y="71.5332">:Repositories</text><rect fill="#E3E3E3" height="31.6094" rx="2.5" ry="2.5" style="stroke:#181818;stroke-width:0.5;" width="97" x="1178.5" y="1224.0781"/><text fill="#000000" font-family="sans-serif" font-size="14" lengthAdjust="spacing" textLength="83" x="1185.5" y="1245.6113">:Repositories</text><rect fill="#E3E3E3" height="49.2188" rx="2.5" ry="2.5" style="stroke:#181818;stroke-width:0.5;" width="97" x="1285.5" y="32.3906"/><text fill="#000000" font-family="sans-serif" font-size="14" lengthAdjust="spacing" textLength="74" x="1297" y="53.9238">repositories</text><text fill="#000000" font-family="sans-serif" font-size="14" lengthAdjust="spacing" textLength="83" x="1292.5" y="71.5332">:Repositories</text><rect fill="#E3E3E3" height="49.2188" rx="2.5" ry="2.5" style="stroke:#181818;stroke-width:0.5;" width="97" x="1285.5" y="1224.0781"/><text fill="#000000" font-family="sans-serif" font-size="14" lengthAdjust="spacing" textLength="74" x="1297" y="1245.6113">repositories</text><text fill="#000000" font-family="sans-serif" font-size="14" lengthAdjust="spacing" textLength="83" x="1292.5" y="1263.2207">:Repositories</text><rect fill="#E3E3E3" height="31.6094" rx="2.5" ry="2.5" style="stroke:#181818;stroke-width:0.5;" width="137" x="1392.5" y="50"/><text fill="#000000" font-family="sans-serif" font-size="14" lengthAdjust="spacing" textLength="123" x="1399.5" y="71.5332">:ApplicationSession</text><rect fill="#E3E3E3" height="31.6094" rx="2.5" ry="2.5" style="stroke:#181818;stroke-width:0.5;" width="137" x="1392.5" y="1224.0781"/><text fill="#000000" font-family="sans-serif" font-size="14" lengthAdjust="spacing" textLength="123" x="1399.5" y="1245.6113">:ApplicationSession</text><rect fill="#E3E3E3" height="49.2188" rx="2.5" ry="2.5" style="stroke:#181818;stroke-width:0.5;" width="137" x="1539.5" y="32.3906"/><text fill="#000000" font-family="sans-serif" font-size="14" lengthAdjust="spacing" textLength="74" x="1571" y="53.9238">appSession</text><text fill="#000000" font-family="sans-serif" font-size="14" lengthAdjust="spacing" textLength="123" x="1546.5" y="71.5332">:ApplicationSession</text><rect fill="#E3E3E3" height="49.2188" rx="2.5" ry="2.5" style="stroke:#181818;stroke-width:0.5;" width="137" x="1539.5" y="1224.0781"/><text fill="#000000" font-family="sans-serif" font-size="14" lengthAdjust="spacing" textLength="74" x="1571" y="1245.6113">appSession</text><text fill="#000000" font-family="sans-serif" font-size="14" lengthAdjust="spacing" textLength="123" x="1546.5" y="1263.2207">:ApplicationSession</text><rect fill="#E3E3E3" height="49.2188" rx="2.5" ry="2.5" style="stroke:#181818;stroke-width:0.5;" width="109" x="1686.5" y="32.3906"/><text fill="#000000" font-family="sans-serif" font-size="14" lengthAdjust="spacing" textLength="95" x="1693.5" y="53.9238">currentSession</text><text fill="#000000" font-family="sans-serif" font-size="14" lengthAdjust="spacing" textLength="83" x="1699.5" y="71.5332">:UserSession</text><rect fill="#E3E3E3" height="49.2188" rx="2.5" ry="2.5" style="stroke:#181818;stroke-width:0.5;" width="109" x="1686.5" y="1224.0781"/><text fill="#000000" font-family="sans-serif" font-size="14" lengthAdjust="spacing" textLength="95" x="1693.5" y="1245.6113">currentSession</text><text fill="#000000" font-family="sans-serif" font-size="14" lengthAdjust="spacing" textLength="83" x="1699.5" y="1263.2207">:UserSession</text><rect fill="#E3E3E3" height="49.2188" rx="2.5" ry="2.5" style="stroke:#181818;stroke-width:0.5;" width="163" x="1805.5" y="32.3906"/><text fill="#000000" font-family="sans-serif" font-size="14" lengthAdjust="spacing" textLength="149" x="1812.5" y="53.9238">organizationRepository:</text><text fill="#000000" font-family="sans-serif" font-size="14" lengthAdjust="spacing" textLength="148" x="1813" y="71.5332">OrganizationRepository</text><rect fill="#E3E3E3" height="49.2188" rx="2.5" ry="2.5" style="stroke:#181818;stroke-width:0.5;" width="163" x="1805.5" y="1224.0781"/><text fill="#000000" font-family="sans-serif" font-size="14" lengthAdjust="spacing" textLength="149" x="1812.5" y="1245.6113">organizationRepository:</text><text fill="#000000" font-family="sans-serif" font-size="14" lengthAdjust="spacing" textLength="148" x="1813" y="1263.2207">OrganizationRepository</text><rect fill="#E3E3E3" height="49.2188" rx="2.5" ry="2.5" style="stroke:#181818;stroke-width:0.5;" width="98" x="2059" y="32.3906"/><text fill="#000000" font-family="sans-serif" font-size="14" lengthAdjust="spacing" textLength="77" x="2069.5" y="53.9238">organization</text><text fill="#000000" font-family="sans-serif" font-size="14" lengthAdjust="spacing" textLength="84" x="2066" y="71.5332">:Organization</text><rect fill="#E3E3E3" height="49.2188" rx="2.5" ry="2.5" style="stroke:#181818;stroke-width:0.5;" width="98" x="2059" y="1224.0781"/><text fill="#000000" font-family="sans-serif" font-size="14" lengthAdjust="spacing" textLength="77" x="2069.5" y="1245.6113">organization</text><text fill="#000000" font-family="sans-serif" font-size="14" lengthAdjust="spacing" textLength="84" x="2066" y="1263.2207">:Organization</text><rect fill="#E3E3E3" height="31.6094" rx="2.5" ry="2.5" style="stroke:#181818;stroke-width:0.5;" width="71" x="2167" y="1224.0781"/><text fill="#000000" font-family="sans-serif" font-size="14" lengthAdjust="spacing" textLength="57" x="2174" y="1245.6113">CheckUp</text><rect fill="#FFFFFF" height="1123.4688" style="stroke:#181818;stroke-width:1.0;" width="10" x="49" y="92.6094"/><rect fill="#FFFFFF" height="719.9922" style="stroke:#181818;stroke-width:1.0;" width="10" x="334" y="114.9609"/><rect fill="#FFFFFF" height="30.3516" style="stroke:#181818;stroke-width:1.0;" width="10" x="334" y="865.3047"/><rect fill="#FFFFFF" height="281.0703" style="stroke:#181818;stroke-width:1.0;" width="10" x="334" y="926.0078"/><rect fill="#FFFFFF" height="1028.1563" style="stroke:#181818;stroke-width:1.0;" width="10" x="678" y="187.9219"/><rect fill="#FFFFFF" height="553.3281" style="stroke:#181818;stroke-width:1.0;" width="10" x="683" y="251.2734"/><rect fill="#FFFFFF" height="220.3672" style="stroke:#181818;stroke-width:1.0;" width="10" x="683" y="956.3594"/><rect fill="#FFFFFF" height="229.3672" style="stroke:#181818;stroke-width:1.0;" width="10" x="1022" y="986.7109"/><rect fill="#FFFFFF" height="148.4063" style="stroke:#181818;stroke-width:1.0;" width="10" x="1027" y="1067.6719"/><rect fill="#FFFFFF" height="35.3516" style="stroke:#181818;stroke-width:1.0;" width="10" x="1032" y="1111.0234"/><rect fill="#FFFFFF" height="30.3516" style="stroke:#181818;stroke-width:1.0;" width="10" x="1222" y="468.7344"/><rect fill="#FFFFFF" height="30.3516" style="stroke:#181818;stroke-width:1.0;" width="10" x="1329" y="529.4375"/><rect fill="#FFFFFF" height="30.3516" style="stroke:#181818;stroke-width:1.0;" width="10" x="1456" y="286.625"/><rect fill="#FFFFFF" height="30.3516" style="stroke:#181818;stroke-width:1.0;" width="10" x="1603" y="347.3281"/><rect fill="#FFFFFF" height="30.3516" style="stroke:#181818;stroke-width:1.0;" width="10" x="1736" y="408.0313"/><rect fill="#FFFFFF" height="123.4063" style="stroke:#181818;stroke-width:1.0;" width="10" x="1882" y="590.1406"/><rect fill="#FFFFFF" height="30.3516" style="stroke:#181818;stroke-width:1.0;" width="10" x="2103" y="645.8438"/><rect fill="#FFFFFF" height="30.3516" style="stroke:#181818;stroke-width:1.0;" width="10" x="2103" y="743.8984"/><polygon fill="#181818" points="322,110.9609,332,114.9609,322,118.9609,326,114.9609" style="stroke:#181818;stroke-width:1.0;"/><line style="stroke:#181818;stroke-width:1.0;" x1="59" x2="328" y1="114.9609" y2="114.9609"/><text fill="#000000" font-family="sans-serif" font-size="13" font-weight="bold" lengthAdjust="spacing" textLength="7" x="66" y="110.1045">1</text><text fill="#000000" font-family="sans-serif" font-size="13" lengthAdjust="spacing" textLength="234" x="77" y="110.1045">requests to generate maintenance report</text><polygon fill="#181818" points="541,141.3125,551,145.3125,541,149.3125,545,145.3125" style="stroke:#181818;stroke-width:1.0;"/><line style="stroke:#181818;stroke-width:1.0;" x1="344" x2="547" y1="145.3125" y2="145.3125"/><text fill="#000000" font-family="sans-serif" font-size="13" font-weight="bold" lengthAdjust="spacing" textLength="7" x="351" y="140.4561">2</text><text fill="#000000" font-family="sans-serif" font-size="13" lengthAdjust="spacing" textLength="85" x="362" y="140.4561">choose vehicle</text><rect fill="#E3E3E3" height="31.6094" rx="2.5" ry="2.5" style="stroke:#181818;stroke-width:0.5;" width="260" x="553" y="122.9609"/><text fill="#000000" font-family="sans-serif" font-size="14" lengthAdjust="spacing" textLength="246" x="560" y="144.4941">GenerateMaintenanceReportController</text><polygon fill="#181818" points="666,183.9219,676,187.9219,666,191.9219,670,187.9219" style="stroke:#181818;stroke-width:1.0;"/><line style="stroke:#181818;stroke-width:1.0;" x1="344" x2="672" y1="187.9219" y2="187.9219"/><text fill="#000000" font-family="sans-serif" font-size="13" font-weight="bold" lengthAdjust="spacing" textLength="7" x="351" y="183.0654">3</text><text fill="#000000" font-family="sans-serif" font-size="13" lengthAdjust="spacing" textLength="69" x="362" y="183.0654">getVehicle()</text><line style="stroke:#181818;stroke-width:1.0;" x1="688" x2="735" y1="238.2734" y2="238.2734"/><line style="stroke:#181818;stroke-width:1.0;" x1="735" x2="735" y1="238.2734" y2="251.2734"/><line style="stroke:#181818;stroke-width:1.0;" x1="694" x2="735" y1="251.2734" y2="251.2734"/><polygon fill="#181818" points="704,247.2734,694,251.2734,704,255.2734,700,251.2734" style="stroke:#181818;stroke-width:1.0;"/><text fill="#000000" font-family="sans-serif" font-size="13" font-weight="bold" lengthAdjust="spacing" textLength="7" x="700" y="233.417">4</text><text fill="#000000" font-family="sans-serif" font-size="13" lengthAdjust="spacing" textLength="157" x="711" y="233.417">getEmployeeOrganization()</text><polygon fill="#181818" points="1444,282.625,1454,286.625,1444,290.625,1448,286.625" style="stroke:#181818;stroke-width:1.0;"/><line style="stroke:#181818;stroke-width:1.0;" x1="693" x2="1450" y1="286.625" y2="286.625"/><text fill="#000000" font-family="sans-serif" font-size="13" font-weight="bold" lengthAdjust="spacing" textLength="7" x="700" y="281.7686">5</text><text fill="#000000" font-family="sans-serif" font-size="13" lengthAdjust="spacing" textLength="75" x="711" y="281.7686">getInstance()</text><polygon fill="#181818" points="704,312.9766,694,316.9766,704,320.9766,700,316.9766" style="stroke:#181818;stroke-width:1.0;"/><line style="stroke:#181818;stroke-width:1.0;" x1="698" x2="1460" y1="316.9766" y2="316.9766"/><text fill="#000000" font-family="sans-serif" font-size="13" font-weight="bold" lengthAdjust="spacing" textLength="7" x="710" y="312.1201">6</text><text fill="#000000" font-family="sans-serif" font-size="13" lengthAdjust="spacing" textLength="68" x="721" y="312.1201">appSession</text><polygon fill="#181818" points="1591,343.3281,1601,347.3281,1591,351.3281,1595,347.3281" style="stroke:#181818;stroke-width:1.0;"/><line style="stroke:#181818;stroke-width:1.0;" x1="693" x2="1597" y1="347.3281" y2="347.3281"/><text fill="#000000" font-family="sans-serif" font-size="13" font-weight="bold" lengthAdjust="spacing" textLength="7" x="700" y="342.4717">7</text><text fill="#000000" font-family="sans-serif" font-size="13" lengthAdjust="spacing" textLength="115" x="711" y="342.4717">getCurrentSession()</text><polygon fill="#181818" points="704,373.6797,694,377.6797,704,381.6797,700,377.6797" style="stroke:#181818;stroke-width:1.0;"/><line style="stroke:#181818;stroke-width:1.0;stroke-dasharray:2.0,2.0;" x1="698" x2="1607" y1="377.6797" y2="377.6797"/><text fill="#000000" font-family="sans-serif" font-size="13" font-weight="bold" lengthAdjust="spacing" textLength="7" x="710" y="372.8232">8</text><text fill="#000000" font-family="sans-serif" font-size="13" lengthAdjust="spacing" textLength="87" x="721" y="372.8232">currentSession</text><polygon fill="#181818" points="1724,404.0313,1734,408.0313,1724,412.0313,1728,408.0313" style="stroke:#181818;stroke-width:1.0;"/><line style="stroke:#181818;stroke-width:1.0;" x1="693" x2="1730" y1="408.0313" y2="408.0313"/><text fill="#000000" font-family="sans-serif" font-size="13" font-weight="bold" lengthAdjust="spacing" textLength="7" x="700" y="403.1748">9</text><text fill="#000000" font-family="sans-serif" font-size="13" lengthAdjust="spacing" textLength="133" x="711" y="403.1748">email = getUserEmail()</text><polygon fill="#181818" points="704,434.3828,694,438.3828,704,442.3828,700,438.3828" style="stroke:#181818;stroke-width:1.0;"/><line style="stroke:#181818;stroke-width:1.0;stroke-dasharray:2.0,2.0;" x1="698" x2="1740" y1="438.3828" y2="438.3828"/><text fill="#000000" font-family="sans-serif" font-size="13" font-weight="bold" lengthAdjust="spacing" textLength="14" x="710" y="433.5264">10</text><text fill="#000000" font-family="sans-serif" font-size="13" lengthAdjust="spacing" textLength="31" x="728" y="433.5264">email</text><polygon fill="#181818" points="1210,464.7344,1220,468.7344,1210,472.7344,1214,468.7344" style="stroke:#181818;stroke-width:1.0;"/><line style="stroke:#181818;stroke-width:1.0;" x1="693" x2="1216" y1="468.7344" y2="468.7344"/><text fill="#000000" font-family="sans-serif" font-size="13" font-weight="bold" lengthAdjust="spacing" textLength="14" x="700" y="463.8779">11</text><text fill="#000000" font-family="sans-serif" font-size="13" lengthAdjust="spacing" textLength="75" x="718" y="463.8779">getInstance()</text><polygon fill="#181818" points="704,495.0859,694,499.0859,704,503.0859,700,499.0859" style="stroke:#181818;stroke-width:1.0;"/><line style="stroke:#181818;stroke-width:1.0;stroke-dasharray:2.0,2.0;" x1="698" x2="1226" y1="499.0859" y2="499.0859"/><text fill="#000000" font-family="sans-serif" font-size="13" font-weight="bold" lengthAdjust="spacing" textLength="14" x="710" y="494.2295">12</text><text fill="#000000" font-family="sans-serif" font-size="13" lengthAdjust="spacing" textLength="67" x="728" y="494.2295">repositories</text><polygon fill="#181818" points="1317,525.4375,1327,529.4375,1317,533.4375,1321,529.4375" style="stroke:#181818;stroke-width:1.0;"/><line style="stroke:#181818;stroke-width:1.0;" x1="693" x2="1323" y1="529.4375" y2="529.4375"/><text fill="#000000" font-family="sans-serif" font-size="13" font-weight="bold" lengthAdjust="spacing" textLength="14" x="700" y="524.5811">13</text><text fill="#000000" font-family="sans-serif" font-size="13" lengthAdjust="spacing" textLength="192" x="718" y="524.5811">getOrganizationRepository(email)</text><polygon fill="#181818" points="704,555.7891,694,559.7891,704,563.7891,700,559.7891" style="stroke:#181818;stroke-width:1.0;"/><line style="stroke:#181818;stroke-width:1.0;stroke-dasharray:2.0,2.0;" x1="698" x2="1333" y1="559.7891" y2="559.7891"/><text fill="#000000" font-family="sans-serif" font-size="13" font-weight="bold" lengthAdjust="spacing" textLength="14" x="710" y="554.9326">14</text><text fill="#000000" font-family="sans-serif" font-size="13" lengthAdjust="spacing" textLength="132" x="728" y="554.9326">organizationRepository</text><polygon fill="#181818" points="1870,586.1406,1880,590.1406,1870,594.1406,1874,590.1406" style="stroke:#181818;stroke-width:1.0;"/><line style="stroke:#181818;stroke-width:1.0;" x1="693" x2="1876" y1="590.1406" y2="590.1406"/><text fill="#000000" font-family="sans-serif" font-size="13" font-weight="bold" lengthAdjust="spacing" textLength="14" x="700" y="585.2842">15</text><text fill="#000000" font-family="sans-serif" font-size="13" lengthAdjust="spacing" textLength="237" x="718" y="585.2842">getOrganizationByEmployeeEmail(email)</text><path d="M1795.5,605.1406 L1868.5,605.1406 L1868.5,613.4922 L1858.5,623.4922 L1795.5,623.4922 L1795.5,605.1406 " fill="#EEEEEE" style="stroke:#000000;stroke-width:1.5;"/><rect fill="none" height="79.0547" style="stroke:#000000;stroke-width:1.5;" width="371.5" x="1795.5" y="605.1406"/><text fill="#000000" font-family="sans-serif" font-size="13" font-weight="bold" lengthAdjust="spacing" textLength="28" x="1810.5" y="619.6357">loop</text><text fill="#000000" font-family="sans-serif" font-size="11" font-weight="bold" lengthAdjust="spacing" textLength="124" x="1883.5" y="618.5596">[for each organization]</text><polygon fill="#181818" points="2091,641.8438,2101,645.8438,2091,649.8438,2095,645.8438" style="stroke:#181818;stroke-width:1.0;"/><line style="stroke:#181818;stroke-width:1.0;" x1="1892" x2="2097" y1="645.8438" y2="645.8438"/><text fill="#000000" font-family="sans-serif" font-size="13" font-weight="bold" lengthAdjust="spacing" textLength="14" x="1899" y="640.9873">16</text><text fill="#000000" font-family="sans-serif" font-size="13" lengthAdjust="spacing" textLength="174" x="1917" y="640.9873">anyEmployeeHasEmail(email)</text><polygon fill="#181818" points="1903,672.1953,1893,676.1953,1903,680.1953,1899,676.1953" style="stroke:#181818;stroke-width:1.0;"/><line style="stroke:#181818;stroke-width:1.0;stroke-dasharray:2.0,2.0;" x1="1897" x2="2107" y1="676.1953" y2="676.1953"/><text fill="#000000" font-family="sans-serif" font-size="13" font-weight="bold" lengthAdjust="spacing" textLength="14" x="1909" y="671.3389">17</text><text fill="#000000" font-family="sans-serif" font-size="13" lengthAdjust="spacing" textLength="53" x="1927" y="671.3389">true/false</text><polygon fill="#181818" points="704,709.5469,694,713.5469,704,717.5469,700,713.5469" style="stroke:#181818;stroke-width:1.0;"/><line style="stroke:#181818;stroke-width:1.0;stroke-dasharray:2.0,2.0;" x1="698" x2="1886" y1="713.5469" y2="713.5469"/><text fill="#000000" font-family="sans-serif" font-size="13" font-weight="bold" lengthAdjust="spacing" textLength="14" x="710" y="708.6904">18</text><text fill="#000000" font-family="sans-serif" font-size="13" lengthAdjust="spacing" textLength="70" x="728" y="708.6904">organization</text><polygon fill="#181818" points="2091,739.8984,2101,743.8984,2091,747.8984,2095,743.8984" style="stroke:#181818;stroke-width:1.0;"/><line style="stroke:#181818;stroke-width:1.0;" x1="693" x2="2097" y1="743.8984" y2="743.8984"/><text fill="#000000" font-family="sans-serif" font-size="13" font-weight="bold" lengthAdjust="spacing" textLength="14" x="700" y="739.042">19</text><text fill="#000000" font-family="sans-serif" font-size="13" lengthAdjust="spacing" textLength="265" x="718" y="739.042">getLatestMaintenanceForVehicles(vehicleList)</text><polygon fill="#181818" points="704,770.25,694,774.25,704,778.25,700,774.25" style="stroke:#181818;stroke-width:1.0;"/><line style="stroke:#181818;stroke-width:1.0;stroke-dasharray:2.0,2.0;" x1="698" x2="2107" y1="774.25" y2="774.25"/><text fill="#000000" font-family="sans-serif" font-size="13" font-weight="bold" lengthAdjust="spacing" textLength="14" x="710" y="769.3936">20</text><text fill="#000000" font-family="sans-serif" font-size="13" lengthAdjust="spacing" textLength="95" x="728" y="769.3936">maintenanceList</text><polygon fill="#181818" points="355,800.6016,345,804.6016,355,808.6016,351,804.6016" style="stroke:#181818;stroke-width:1.0;"/><line style="stroke:#181818;stroke-width:1.0;stroke-dasharray:2.0,2.0;" x1="349" x2="677" y1="804.6016" y2="804.6016"/><text fill="#000000" font-family="sans-serif" font-size="13" font-weight="bold" lengthAdjust="spacing" textLength="14" x="361" y="799.7451">21</text><text fill="#000000" font-family="sans-serif" font-size="13" lengthAdjust="spacing" textLength="95" x="379" y="799.7451">maintenanceList</text><polygon fill="#181818" points="70,830.9531,60,834.9531,70,838.9531,66,834.9531" style="stroke:#181818;stroke-width:1.0;"/><line style="stroke:#181818;stroke-width:1.0;stroke-dasharray:2.0,2.0;" x1="64" x2="338" y1="834.9531" y2="834.9531"/><text fill="#000000" font-family="sans-serif" font-size="13" font-weight="bold" lengthAdjust="spacing" textLength="14" x="76" y="830.0967">22</text><text fill="#000000" font-family="sans-serif" font-size="13" lengthAdjust="spacing" textLength="152" x="94" y="830.0967">shows maintenance report</text><polygon fill="#181818" points="322,861.3047,332,865.3047,322,869.3047,326,865.3047" style="stroke:#181818;stroke-width:1.0;"/><line style="stroke:#181818;stroke-width:1.0;" x1="59" x2="328" y1="865.3047" y2="865.3047"/><text fill="#000000" font-family="sans-serif" font-size="13" font-weight="bold" lengthAdjust="spacing" textLength="14" x="66" y="860.4482">23</text><text fill="#000000" font-family="sans-serif" font-size="13" lengthAdjust="spacing" textLength="204" x="84" y="860.4482">choose vehicle to register check-up</text><polygon fill="#181818" points="70,891.6563,60,895.6563,70,899.6563,66,895.6563" style="stroke:#181818;stroke-width:1.0;"/><line style="stroke:#181818;stroke-width:1.0;stroke-dasharray:2.0,2.0;" x1="64" x2="338" y1="895.6563" y2="895.6563"/><text fill="#000000" font-family="sans-serif" font-size="13" font-weight="bold" lengthAdjust="spacing" textLength="14" x="76" y="890.7998">24</text><text fill="#000000" font-family="sans-serif" font-size="13" lengthAdjust="spacing" textLength="233" x="94" y="890.7998">requests data (vehicle, date, current km)</text><polygon fill="#181818" points="322,922.0078,332,926.0078,322,930.0078,326,926.0078" style="stroke:#181818;stroke-width:1.0;"/><line style="stroke:#181818;stroke-width:1.0;" x1="59" x2="328" y1="926.0078" y2="926.0078"/><text fill="#000000" font-family="sans-serif" font-size="13" font-weight="bold" lengthAdjust="spacing" textLength="14" x="66" y="921.1514">25</text><text fill="#000000" font-family="sans-serif" font-size="13" lengthAdjust="spacing" textLength="125" x="84" y="921.1514">inputs requested data</text><polygon fill="#181818" points="671,952.3594,681,956.3594,671,960.3594,675,956.3594" style="stroke:#181818;stroke-width:1.0;"/><line style="stroke:#181818;stroke-width:1.0;" x1="344" x2="677" y1="956.3594" y2="956.3594"/><text fill="#000000" font-family="sans-serif" font-size="13" font-weight="bold" lengthAdjust="spacing" textLength="14" x="351" y="951.5029">26</text><text fill="#000000" font-family="sans-serif" font-size="13" lengthAdjust="spacing" textLength="292" x="369" y="951.5029">RegisterVehicleCheckup(vehicle, date, current km)</text><polygon fill="#181818" points="1010,982.7109,1020,986.7109,1010,990.7109,1014,986.7109" style="stroke:#181818;stroke-width:1.0;"/><line style="stroke:#181818;stroke-width:1.0;" x1="693" x2="1016" y1="986.7109" y2="986.7109"/><text fill="#000000" font-family="sans-serif" font-size="13" font-weight="bold" lengthAdjust="spacing" textLength="14" x="700" y="981.8545">27</text><text fill="#000000" font-family="sans-serif" font-size="13" lengthAdjust="spacing" textLength="292" x="718" y="981.8545">RegisterVehicleCheckup(vehicle, date, current km)</text><polygon fill="#181818" points="2155,1013.0625,2165,1017.0625,2155,1021.0625,2159,1017.0625" style="stroke:#181818;stroke-width:1.0;"/><line style="stroke:#181818;stroke-width:1.0;" x1="1032" x2="2161" y1="1017.0625" y2="1017.0625"/><text fill="#000000" font-family="sans-serif" font-size="13" font-weight="bold" lengthAdjust="spacing" textLength="14" x="1039" y="1012.2061">28</text><text fill="#000000" font-family="sans-serif" font-size="13" lengthAdjust="spacing" textLength="38" x="1057" y="1012.2061">Create</text><rect fill="#E3E3E3" height="31.6094" rx="2.5" ry="2.5" style="stroke:#181818;stroke-width:0.5;" width="71" x="2167" y="994.7109"/><text fill="#000000" font-family="sans-serif" font-size="14" lengthAdjust="spacing" textLength="57" x="2174" y="1016.2441">CheckUp</text><line style="stroke:#181818;stroke-width:1.0;" x1="1032" x2="1079" y1="1054.6719" y2="1054.6719"/><line style="stroke:#181818;stroke-width:1.0;" x1="1079" x2="1079" y1="1054.6719" y2="1067.6719"/><line style="stroke:#181818;stroke-width:1.0;" x1="1038" x2="1079" y1="1067.6719" y2="1067.6719"/><polygon fill="#181818" points="1048,1063.6719,1038,1067.6719,1048,1071.6719,1044,1067.6719" style="stroke:#181818;stroke-width:1.0;"/><text fill="#000000" font-family="sans-serif" font-size="13" font-weight="bold" lengthAdjust="spacing" textLength="14" x="1044" y="1049.8154">29</text><text fill="#000000" font-family="sans-serif" font-size="13" lengthAdjust="spacing" textLength="133" x="1062" y="1049.8154">addCheckUp(checkUp)</text><line style="stroke:#181818;stroke-width:1.0;" x1="1037" x2="1084" y1="1098.0234" y2="1098.0234"/><line style="stroke:#181818;stroke-width:1.0;" x1="1084" x2="1084" y1="1098.0234" y2="1111.0234"/><line style="stroke:#181818;stroke-width:1.0;" x1="1043" x2="1084" y1="1111.0234" y2="1111.0234"/><polygon fill="#181818" points="1053,1107.0234,1043,1111.0234,1053,1115.0234,1049,1111.0234" style="stroke:#181818;stroke-width:1.0;"/><text fill="#000000" font-family="sans-serif" font-size="13" font-weight="bold" lengthAdjust="spacing" textLength="14" x="1049" y="1093.167">30</text><text fill="#000000" font-family="sans-serif" font-size="13" lengthAdjust="spacing" textLength="153" x="1067" y="1093.167">validateCheckup(checkUp)</text><polygon fill="#181818" points="704,1142.375,694,1146.375,704,1150.375,700,1146.375" style="stroke:#181818;stroke-width:1.0;"/><line style="stroke:#181818;stroke-width:1.0;stroke-dasharray:2.0,2.0;" x1="698" x2="1026" y1="1146.375" y2="1146.375"/><text fill="#000000" font-family="sans-serif" font-size="13" font-weight="bold" lengthAdjust="spacing" textLength="14" x="710" y="1141.5186">31</text><text fill="#000000" font-family="sans-serif" font-size="13" lengthAdjust="spacing" textLength="53" x="728" y="1141.5186">CheckUp</text><polygon fill="#181818" points="355,1172.7266,345,1176.7266,355,1180.7266,351,1176.7266" style="stroke:#181818;stroke-width:1.0;"/><line style="stroke:#181818;stroke-width:1.0;stroke-dasharray:2.0,2.0;" x1="349" x2="677" y1="1176.7266" y2="1176.7266"/><text fill="#000000" font-family="sans-serif" font-size="13" font-weight="bold" lengthAdjust="spacing" textLength="14" x="361" y="1171.8701">32</text><text fill="#000000" font-family="sans-serif" font-size="13" lengthAdjust="spacing" textLength="53" x="379" y="1171.8701">CheckUp</text><polygon fill="#181818" points="70,1203.0781,60,1207.0781,70,1211.0781,66,1207.0781" style="stroke:#181818;stroke-width:1.0;"/><line style="stroke:#181818;stroke-width:1.0;stroke-dasharray:2.0,2.0;" x1="64" x2="338" y1="1207.0781" y2="1207.0781"/><text fill="#000000" font-family="sans-serif" font-size="13" font-weight="bold" lengthAdjust="spacing" textLength="14" x="76" y="1202.2217">33</text><text fill="#000000" font-family="sans-serif" font-size="13" lengthAdjust="spacing" textLength="158" x="94" y="1202.2217">displays operation success</text><!--SRC=[hLTHR-8u47xthx3wKgvgjUz8jnB7bMwbegsWvQdIoUjCmMgmixRJFKxzyJTs7728JQYqUIWGptppZVsDPshUXAoOPbkwLLBnZLPRe5RNGCn-fMByZQrXQNSbK0tSChakOmEpOONw9UIQlhBI026ijahMsn-W2RdSY0BegrBsX_gNC6wLfXUp4i3IEPE8goyeCtGs9mXc1HSLavPUt844pIpCcP0M99CS5b0fRP_llVtp_PdsKoMjLcKPuaoV5WzTpnLi12-zjH78RkVjLekarOiSXs-DLTTel0SHOBp10NKftAxXldHTTEI1u3s0nuV9qr6GILMLWZChb5o2CVZXBV-PF3vsBLbL1GD4pdZrd7YjDKXxS7mse6EFvUroEVdUTL9wpQJupwCVKXw_oE_91O-JNihZ8fNOfS5Ot17YH2NUyUoTY0WDpsnERxwYJEWODVkp1cCDjOgkWqxezY0KghrI3hvxG5GPkQJHWtWt23lvUnxZ5imoEjBm2hXr7Avf0OPhKJcUrvGA-QhqbfNqHNPNBF2Dn4Cfkw-BMhFc6rV6_a5Y0fTSWsFcTKoEgNtrxw-ka1pVA6M0lZTgpPcYuHfiaFIe6sg_2_rOxldu-EYzyv0TwDjjLQeTG7nqHt7EY1LZEvrxw7jfh3k-15m7qXS6pJnkiMKyfeUAIJeKq0KzJRJbEUrKr11RZvjZwydksNPBTOXn5hZbsnJsc0AMHad_TDHTxT-wdqEimwMG9TwiHznza27Afr1RreaRzbFgIDtGIO-4OPHFV8yFfNLso3P7rmHyKkaxS-GtSo1FtqYov-DMespIz_bGNas8avca4-ZbzjUklJSQzPsJOAQVP5CkbQfmBj4K4zXqCixxk2STnoUtkCDBZyaz-M_C3FBlv-5w6XrwNAoRx8OY3JV4VMdciLCuqV6vm3apa0Nvx8OS-a1dSuTOP8unsskGjjVF0teR6yr_CwL3OpEZq0OVn74_7TxwTgURoeZ61WT61lOpmpfC9gV08g1qhqUCcPj2SFnMlqngdab0kO4cCI5rXmKt9sbO8oFGk0JyxQQkI5wnCMXWrb0x6f02_BNxYNz3-w9lsqHbT3adAEC_7pKYXn1G-1ZaB8xfEMWHCWwQcRgyw-fJfFidrefqzNi2z2EjZjDQ-PGSzdFb1y6f7nX9oiwnOaKHh4Uy-JoEUo9M0_7EIk78jncTWTD7GjM4WmXqJbs2aJfM95bWhKnQiBEmKiEd5tHRQuKmLSbsXgeAcXcTcffp7C3E2-1K-3y0]--></g></svg>