<?xml version="1.0" encoding="UTF-8" standalone="no"?><svg xmlns="http://www.w3.org/2000/svg" xmlns:xlink="http://www.w3.org/1999/xlink" contentStyleType="text/css" height="555px" preserveAspectRatio="none" style="width:1129px;height:555px;background:#FFFFFF;" version="1.1" viewBox="0 0 1129 555" width="1129px" zoomAndPan="magnify"><defs/><g><rect fill="#FFFFFF" height="372.125" style="stroke:#181818;stroke-width:1.0;" width="10" x="49" y="92.6094"/><rect fill="#FFFFFF" height="340.7734" style="stroke:#181818;stroke-width:1.0;" width="10" x="338" y="114.9609"/><rect fill="#FFFFFF" height="237.4609" style="stroke:#181818;stroke-width:1.0;" width="10" x="587" y="187.9219"/><rect fill="#FFFFFF" height="30.3516" style="stroke:#181818;stroke-width:1.0;" width="10" x="842" y="364.6797"/><rect fill="#FFFFFF" height="30.3516" style="stroke:#181818;stroke-width:1.0;" width="10" x="964.5" y="243.2734"/><rect fill="#FFFFFF" height="30.3516" style="stroke:#181818;stroke-width:1.0;" width="10" x="1069.5" y="303.9766"/><line style="stroke:#181818;stroke-width:0.5;stroke-dasharray:5.0,5.0;" x1="54" x2="54" y1="82.6094" y2="473.7344"/><line style="stroke:#181818;stroke-width:0.5;stroke-dasharray:5.0,5.0;" x1="343" x2="343" y1="82.6094" y2="473.7344"/><line style="stroke:#181818;stroke-width:0.5;stroke-dasharray:5.0,5.0;" x1="592" x2="592" y1="154.2656" y2="473.7344"/><line style="stroke:#181818;stroke-width:0.5;stroke-dasharray:5.0,5.0;" x1="847" x2="847" y1="82.6094" y2="473.7344"/><line style="stroke:#181818;stroke-width:0.5;stroke-dasharray:5.0,5.0;" x1="969" x2="969" y1="82.6094" y2="473.7344"/><line style="stroke:#181818;stroke-width:0.5;stroke-dasharray:5.0,5.0;" x1="1074" x2="1074" y1="82.6094" y2="473.7344"/><text fill="#000000" font-family="sans-serif" font-size="14" lengthAdjust="spacing" textLength="92" x="5" y="79.5332">Fleet Manager</text><ellipse cx="54" cy="13.5" fill="#E3E3E3" rx="8" ry="8" style="stroke:#181818;stroke-width:0.5;"/><path d="M54,21.5 L54,48.5 M41,29.5 L67,29.5 M54,48.5 L41,63.5 M54,48.5 L67,63.5 " fill="none" style="stroke:#181818;stroke-width:0.5;"/><text fill="#000000" font-family="sans-serif" font-size="14" lengthAdjust="spacing" textLength="92" x="5" y="487.2676">Fleet Manager</text><ellipse cx="54" cy="498.8438" fill="#E3E3E3" rx="8" ry="8" style="stroke:#181818;stroke-width:0.5;"/><path d="M54,506.8438 L54,533.8438 M41,514.8438 L67,514.8438 M54,533.8438 L41,548.8438 M54,533.8438 L67,548.8438 " fill="none" style="stroke:#181818;stroke-width:0.5;"/><rect fill="#E3E3E3" height="31.6094" rx="2.5" ry="2.5" style="stroke:#181818;stroke-width:0.5;" width="210" x="238" y="50"/><text fill="#000000" font-family="sans-serif" font-size="14" lengthAdjust="spacing" textLength="196" x="245" y="71.5332">GenerateMaintenanceReportUI</text><rect fill="#E3E3E3" height="31.6094" rx="2.5" ry="2.5" style="stroke:#181818;stroke-width:0.5;" width="210" x="238" y="472.7344"/><text fill="#000000" font-family="sans-serif" font-size="14" lengthAdjust="spacing" textLength="196" x="245" y="494.2676">GenerateMaintenanceReportUI</text><rect fill="#E3E3E3" height="31.6094" rx="2.5" ry="2.5" style="stroke:#181818;stroke-width:0.5;" width="260" x="462" y="472.7344"/><text fill="#000000" font-family="sans-serif" font-size="14" lengthAdjust="spacing" textLength="246" x="469" y="494.2676">GenerateMaintenanceReportController</text><rect fill="#E3E3E3" height="49.2188" rx="2.5" ry="2.5" style="stroke:#181818;stroke-width:0.5;" width="132" x="781" y="32.3906"/><text fill="#000000" font-family="sans-serif" font-size="14" lengthAdjust="spacing" textLength="112" x="791" y="53.9238">vehicleRepository</text><text fill="#000000" font-family="sans-serif" font-size="14" lengthAdjust="spacing" textLength="118" x="788" y="71.5332">:VehicleRepository</text><rect fill="#E3E3E3" height="49.2188" rx="2.5" ry="2.5" style="stroke:#181818;stroke-width:0.5;" width="132" x="781" y="472.7344"/><text fill="#000000" font-family="sans-serif" font-size="14" lengthAdjust="spacing" textLength="112" x="791" y="494.2676">vehicleRepository</text><text fill="#000000" font-family="sans-serif" font-size="14" lengthAdjust="spacing" textLength="118" x="788" y="511.877">:VehicleRepository</text><rect fill="#E3E3E3" height="31.6094" rx="2.5" ry="2.5" style="stroke:#181818;stroke-width:0.5;" width="93" x="923" y="50"/><text fill="#000000" font-family="sans-serif" font-size="14" lengthAdjust="spacing" textLength="79" x="930" y="71.5332">Repositories</text><rect fill="#E3E3E3" height="31.6094" rx="2.5" ry="2.5" style="stroke:#181818;stroke-width:0.5;" width="93" x="923" y="472.7344"/><text fill="#000000" font-family="sans-serif" font-size="14" lengthAdjust="spacing" textLength="79" x="930" y="494.2676">Repositories</text><rect fill="#E3E3E3" height="49.2188" rx="2.5" ry="2.5" style="stroke:#181818;stroke-width:0.5;" width="97" x="1026" y="32.3906"/><text fill="#000000" font-family="sans-serif" font-size="14" lengthAdjust="spacing" textLength="74" x="1037.5" y="53.9238">repositories</text><text fill="#000000" font-family="sans-serif" font-size="14" lengthAdjust="spacing" textLength="83" x="1033" y="71.5332">:Repositories</text><rect fill="#E3E3E3" height="49.2188" rx="2.5" ry="2.5" style="stroke:#181818;stroke-width:0.5;" width="97" x="1026" y="472.7344"/><text fill="#000000" font-family="sans-serif" font-size="14" lengthAdjust="spacing" textLength="74" x="1037.5" y="494.2676">repositories</text><text fill="#000000" font-family="sans-serif" font-size="14" lengthAdjust="spacing" textLength="83" x="1033" y="511.877">:Repositories</text><rect fill="#FFFFFF" height="372.125" style="stroke:#181818;stroke-width:1.0;" width="10" x="49" y="92.6094"/><rect fill="#FFFFFF" height="340.7734" style="stroke:#181818;stroke-width:1.0;" width="10" x="338" y="114.9609"/><rect fill="#FFFFFF" height="237.4609" style="stroke:#181818;stroke-width:1.0;" width="10" x="587" y="187.9219"/><rect fill="#FFFFFF" height="30.3516" style="stroke:#181818;stroke-width:1.0;" width="10" x="842" y="364.6797"/><rect fill="#FFFFFF" height="30.3516" style="stroke:#181818;stroke-width:1.0;" width="10" x="964.5" y="243.2734"/><rect fill="#FFFFFF" height="30.3516" style="stroke:#181818;stroke-width:1.0;" width="10" x="1069.5" y="303.9766"/><polygon fill="#181818" points="326,110.9609,336,114.9609,326,118.9609,330,114.9609" style="stroke:#181818;stroke-width:1.0;"/><line style="stroke:#181818;stroke-width:1.0;" x1="59" x2="332" y1="114.9609" y2="114.9609"/><text fill="#000000" font-family="sans-serif" font-size="13" font-weight="bold" lengthAdjust="spacing" textLength="7" x="66" y="110.1045">1</text><text fill="#000000" font-family="sans-serif" font-size="13" lengthAdjust="spacing" textLength="249" x="77" y="110.1045">requests to list vehicles in need of checkup</text><polygon fill="#181818" points="450,141.3125,460,145.3125,450,149.3125,454,145.3125" style="stroke:#181818;stroke-width:1.0;"/><line style="stroke:#181818;stroke-width:1.0;" x1="348" x2="456" y1="145.3125" y2="145.3125"/><text fill="#000000" font-family="sans-serif" font-size="13" font-weight="bold" lengthAdjust="spacing" textLength="7" x="355" y="140.4561">2</text><text fill="#000000" font-family="sans-serif" font-size="13" lengthAdjust="spacing" textLength="79" x="366" y="140.4561">create vehicle</text><rect fill="#E3E3E3" height="31.6094" rx="2.5" ry="2.5" style="stroke:#181818;stroke-width:0.5;" width="260" x="462" y="122.9609"/><text fill="#000000" font-family="sans-serif" font-size="14" lengthAdjust="spacing" textLength="246" x="469" y="144.4941">GenerateMaintenanceReportController</text><polygon fill="#181818" points="575,183.9219,585,187.9219,575,191.9219,579,187.9219" style="stroke:#181818;stroke-width:1.0;"/><line style="stroke:#181818;stroke-width:1.0;" x1="348" x2="581" y1="187.9219" y2="187.9219"/><text fill="#000000" font-family="sans-serif" font-size="13" font-weight="bold" lengthAdjust="spacing" textLength="7" x="355" y="183.0654">3</text><text fill="#000000" font-family="sans-serif" font-size="13" lengthAdjust="spacing" textLength="181" x="366" y="183.0654">getVehiclesRequiringCheckup()</text><polygon fill="#181818" points="952.5,239.2734,962.5,243.2734,952.5,247.2734,956.5,243.2734" style="stroke:#181818;stroke-width:1.0;"/><line style="stroke:#181818;stroke-width:1.0;" x1="597" x2="958.5" y1="243.2734" y2="243.2734"/><text fill="#000000" font-family="sans-serif" font-size="13" font-weight="bold" lengthAdjust="spacing" textLength="7" x="604" y="238.417">4</text><text fill="#000000" font-family="sans-serif" font-size="13" lengthAdjust="spacing" textLength="75" x="615" y="238.417">getInstance()</text><polygon fill="#181818" points="608,269.625,598,273.625,608,277.625,604,273.625" style="stroke:#181818;stroke-width:1.0;"/><line style="stroke:#181818;stroke-width:1.0;stroke-dasharray:2.0,2.0;" x1="602" x2="968.5" y1="273.625" y2="273.625"/><text fill="#000000" font-family="sans-serif" font-size="13" font-weight="bold" lengthAdjust="spacing" textLength="7" x="614" y="268.7686">5</text><text fill="#000000" font-family="sans-serif" font-size="13" lengthAdjust="spacing" textLength="67" x="625" y="268.7686">repositories</text><polygon fill="#181818" points="1057.5,299.9766,1067.5,303.9766,1057.5,307.9766,1061.5,303.9766" style="stroke:#181818;stroke-width:1.0;"/><line style="stroke:#181818;stroke-width:1.0;" x1="597" x2="1063.5" y1="303.9766" y2="303.9766"/><text fill="#000000" font-family="sans-serif" font-size="13" font-weight="bold" lengthAdjust="spacing" textLength="7" x="604" y="299.1201">6</text><text fill="#000000" font-family="sans-serif" font-size="13" lengthAdjust="spacing" textLength="131" x="615" y="299.1201">getVehicleRepository()</text><polygon fill="#181818" points="608,330.3281,598,334.3281,608,338.3281,604,334.3281" style="stroke:#181818;stroke-width:1.0;"/><line style="stroke:#181818;stroke-width:1.0;stroke-dasharray:2.0,2.0;" x1="602" x2="1073.5" y1="334.3281" y2="334.3281"/><text fill="#000000" font-family="sans-serif" font-size="13" font-weight="bold" lengthAdjust="spacing" textLength="7" x="614" y="329.4717">7</text><text fill="#000000" font-family="sans-serif" font-size="13" lengthAdjust="spacing" textLength="101" x="625" y="329.4717">vehicleRepository</text><polygon fill="#181818" points="830,360.6797,840,364.6797,830,368.6797,834,364.6797" style="stroke:#181818;stroke-width:1.0;"/><line style="stroke:#181818;stroke-width:1.0;" x1="597" x2="836" y1="364.6797" y2="364.6797"/><text fill="#000000" font-family="sans-serif" font-size="13" font-weight="bold" lengthAdjust="spacing" textLength="7" x="604" y="359.8232">8</text><text fill="#000000" font-family="sans-serif" font-size="13" lengthAdjust="spacing" textLength="215" x="615" y="359.8232">getListOfVehiclesRequiringCheckup()</text><polygon fill="#181818" points="608,391.0313,598,395.0313,608,399.0313,604,395.0313" style="stroke:#181818;stroke-width:1.0;"/><line style="stroke:#181818;stroke-width:1.0;stroke-dasharray:2.0,2.0;" x1="602" x2="846" y1="395.0313" y2="395.0313"/><text fill="#000000" font-family="sans-serif" font-size="13" font-weight="bold" lengthAdjust="spacing" textLength="7" x="614" y="390.1748">9</text><text fill="#000000" font-family="sans-serif" font-size="13" lengthAdjust="spacing" textLength="60" x="625" y="390.1748">vehicleList</text><polygon fill="#181818" points="359,421.3828,349,425.3828,359,429.3828,355,425.3828" style="stroke:#181818;stroke-width:1.0;"/><line style="stroke:#181818;stroke-width:1.0;stroke-dasharray:2.0,2.0;" x1="353" x2="591" y1="425.3828" y2="425.3828"/><text fill="#000000" font-family="sans-serif" font-size="13" font-weight="bold" lengthAdjust="spacing" textLength="14" x="365" y="420.5264">10</text><text fill="#000000" font-family="sans-serif" font-size="13" lengthAdjust="spacing" textLength="60" x="383" y="420.5264">vehicleList</text><polygon fill="#181818" points="70,451.7344,60,455.7344,70,459.7344,66,455.7344" style="stroke:#181818;stroke-width:1.0;"/><line style="stroke:#181818;stroke-width:1.0;stroke-dasharray:2.0,2.0;" x1="64" x2="342" y1="455.7344" y2="455.7344"/><text fill="#000000" font-family="sans-serif" font-size="13" font-weight="bold" lengthAdjust="spacing" textLength="14" x="76" y="450.8779">11</text><text fill="#000000" font-family="sans-serif" font-size="13" lengthAdjust="spacing" textLength="232" x="94" y="450.8779">shows list of vehicles requiring check-up</text><!--SRC=[bLHDJ-Cm4BtxLunwAOle7-20XBhggbAZHG5wucASIMCrjOCzWKNgZz-naxP9aowiJr5cvhqtdtwhJIMTtC7E6giAPtS8v6eK_cYffDhA3JxIPudWK94qcxBhu0kPsGzjDf3BqgCGiYPhwjqhEY6cXSuGSclfrVuHKf5rC5cKY0I9D8ph9Y0zB1B1OAILhgGXcFn2WquI9b8RGYEDmXGhw-Xv6VsVbz_qdrj3pfPbopD_IbVzo7Sij2gZjzUixlF5tAxF_yNOTTgFF9er-kXmyd_KeKPSXNw4wqGmpG3WONN_94IeadxdP49L1BHlaS3iZlE6Msx2MusUF925Kdk2DWSFse11pC3ce0fKsxew0HnHkNPY2ft7e3F6ll-PTC4pIHAk7EReaCjv0nbwvNH5sfeROAhSkfqiuSNqBOIgC5gnfVSxgxa_yKjPJpz4Ly1KEGpAOdV4kRIx-F_wciMrVcs-brpPSOFKDj6dd91st91vKv6hFlUnB4FoyFRx_U1VU967-KPw7jcNnbEOmZEs0UlOp8n6Z3Z6hWKXeMkdKHeDp_3_AGyvXh7iblG4y5LspK33XHUidHm6c_XL8kFe1zNhD6fUyOByphyv33tnlEy3upeT2WuCuXyont0QaUr2NyBfO8nl1iSlmixo2ROVlha5lFh7S-0EsJRNOCRdO0Gxt8E_]--></g></svg>