<?xml version="1.0" encoding="UTF-8" standalone="no"?><svg xmlns="http://www.w3.org/2000/svg" xmlns:xlink="http://www.w3.org/1999/xlink" contentStyleType="text/css" height="1469px" preserveAspectRatio="none" style="width:2200px;height:1469px;background:#FFFFFF;" version="1.1" viewBox="0 0 2200 1469" width="2200px" zoomAndPan="magnify"><defs/><g><rect fill="#FFFFFF" height="1286.2266" style="stroke:#181818;stroke-width:1.0;" width="10" x="49" y="92.6094"/><rect fill="#FFFFFF" height="779.6953" style="stroke:#181818;stroke-width:1.0;" width="10" x="300" y="114.9609"/><rect fill="#FFFFFF" height="46.7031" style="stroke:#181818;stroke-width:1.0;" width="10" x="300" y="925.0078"/><rect fill="#FFFFFF" height="367.7734" style="stroke:#181818;stroke-width:1.0;" width="10" x="300" y="1002.0625"/><rect fill="#FFFFFF" height="660.0313" style="stroke:#181818;stroke-width:1.0;" width="10" x="639" y="187.9219"/><rect fill="#FFFFFF" height="498.625" style="stroke:#181818;stroke-width:1.0;" width="10" x="644" y="251.2734"/><rect fill="#FFFFFF" height="307.0703" style="stroke:#181818;stroke-width:1.0;" width="10" x="639" y="1032.4141"/><rect fill="#FFFFFF" height="246.3672" style="stroke:#181818;stroke-width:1.0;" width="10" x="978" y="1062.7656"/><rect fill="#FFFFFF" height="128.0547" style="stroke:#181818;stroke-width:1.0;" width="10" x="983" y="1143.7266"/><rect fill="#FFFFFF" height="41.3516" style="stroke:#181818;stroke-width:1.0;" width="10" x="988" y="1187.0781"/><rect fill="#FFFFFF" height="30.3516" style="stroke:#181818;stroke-width:1.0;" width="10" x="1178" y="468.7344"/><rect fill="#FFFFFF" height="30.3516" style="stroke:#181818;stroke-width:1.0;" width="10" x="1285" y="529.4375"/><rect fill="#FFFFFF" height="30.3516" style="stroke:#181818;stroke-width:1.0;" width="10" x="1412" y="286.625"/><rect fill="#FFFFFF" height="30.3516" style="stroke:#181818;stroke-width:1.0;" width="10" x="1559" y="347.3281"/><rect fill="#FFFFFF" height="30.3516" style="stroke:#181818;stroke-width:1.0;" width="10" x="1692" y="408.0313"/><rect fill="#FFFFFF" height="123.4063" style="stroke:#181818;stroke-width:1.0;" width="10" x="1838" y="590.1406"/><rect fill="#FFFFFF" height="30.3516" style="stroke:#181818;stroke-width:1.0;" width="10" x="2059" y="645.8438"/><rect fill="#FFFFFF" height="30.3516" style="stroke:#181818;stroke-width:1.0;" width="10" x="2059" y="787.25"/><rect fill="none" height="79.0547" style="stroke:#000000;stroke-width:1.5;" width="371.5" x="1751.5" y="605.1406"/><line style="stroke:#181818;stroke-width:0.5;stroke-dasharray:5.0,5.0;" x1="54" x2="54" y1="82.6094" y2="1387.8359"/><line style="stroke:#181818;stroke-width:0.5;stroke-dasharray:5.0,5.0;" x1="304.5" x2="304.5" y1="82.6094" y2="1387.8359"/><line style="stroke:#181818;stroke-width:0.5;stroke-dasharray:5.0,5.0;" x1="643.5" x2="643.5" y1="154.2656" y2="1387.8359"/><line style="stroke:#181818;stroke-width:0.5;stroke-dasharray:5.0,5.0;" x1="836" x2="836" y1="82.6094" y2="1387.8359"/><line style="stroke:#181818;stroke-width:0.5;stroke-dasharray:5.0,5.0;" x1="983" x2="983" y1="82.6094" y2="1387.8359"/><line style="stroke:#181818;stroke-width:0.5;stroke-dasharray:5.0,5.0;" x1="1182.5" x2="1182.5" y1="82.6094" y2="1387.8359"/><line style="stroke:#181818;stroke-width:0.5;stroke-dasharray:5.0,5.0;" x1="1289.5" x2="1289.5" y1="82.6094" y2="1387.8359"/><line style="stroke:#181818;stroke-width:0.5;stroke-dasharray:5.0,5.0;" x1="1416.5" x2="1416.5" y1="82.6094" y2="1387.8359"/><line style="stroke:#181818;stroke-width:0.5;stroke-dasharray:5.0,5.0;" x1="1563.5" x2="1563.5" y1="82.6094" y2="1387.8359"/><line style="stroke:#181818;stroke-width:0.5;stroke-dasharray:5.0,5.0;" x1="1696.5" x2="1696.5" y1="82.6094" y2="1387.8359"/><line style="stroke:#181818;stroke-width:0.5;stroke-dasharray:5.0,5.0;" x1="1842.5" x2="1842.5" y1="82.6094" y2="1387.8359"/><line style="stroke:#181818;stroke-width:0.5;stroke-dasharray:5.0,5.0;" x1="2064" x2="2064" y1="82.6094" y2="1387.8359"/><line style="stroke:#181818;stroke-width:0.5;stroke-dasharray:5.0,5.0;" x1="2158" x2="2158" y1="1102.0703" y2="1387.8359"/><text fill="#000000" font-family="sans-serif" font-size="14" lengthAdjust="spacing" textLength="92" x="5" y="79.5332">Fleet Manager</text><ellipse cx="54" cy="13.5" fill="#E3E3E3" rx="8" ry="8" style="stroke:#181818;stroke-width:0.5;"/><path d="M54,21.5 L54,48.5 M41,29.5 L67,29.5 M54,48.5 L41,63.5 M54,48.5 L67,63.5 " fill="none" style="stroke:#181818;stroke-width:0.5;"/><text fill="#000000" font-family="sans-serif" font-size="14" lengthAdjust="spacing" textLength="92" x="5" y="1401.3691">Fleet Manager</text><ellipse cx="54" cy="1412.9453" fill="#E3E3E3" rx="8" ry="8" style="stroke:#181818;stroke-width:0.5;"/><path d="M54,1420.9453 L54,1447.9453 M41,1428.9453 L67,1428.9453 M54,1447.9453 L41,1462.9453 M54,1447.9453 L67,1462.9453 " fill="none" style="stroke:#181818;stroke-width:0.5;"/><rect fill="#E3E3E3" height="31.6094" rx="2.5" ry="2.5" style="stroke:#181818;stroke-width:0.5;" width="181" x="214.5" y="50"/><text fill="#000000" font-family="sans-serif" font-size="14" lengthAdjust="spacing" textLength="167" x="221.5" y="71.5332">RegisterVehicleCheckupUI</text><rect fill="#E3E3E3" height="31.6094" rx="2.5" ry="2.5" style="stroke:#181818;stroke-width:0.5;" width="181" x="214.5" y="1386.8359"/><text fill="#000000" font-family="sans-serif" font-size="14" lengthAdjust="spacing" textLength="167" x="221.5" y="1408.3691">RegisterVehicleCheckupUI</text><rect fill="#E3E3E3" height="31.6094" rx="2.5" ry="2.5" style="stroke:#181818;stroke-width:0.5;" width="231" x="528.5" y="1386.8359"/><text fill="#000000" font-family="sans-serif" font-size="14" lengthAdjust="spacing" textLength="217" x="535.5" y="1408.3691">RegisterVehicleCheckupController</text><rect fill="#E3E3E3" height="31.6094" rx="2.5" ry="2.5" style="stroke:#181818;stroke-width:0.5;" width="128" x="772" y="50"/><text fill="#000000" font-family="sans-serif" font-size="14" lengthAdjust="spacing" textLength="114" x="779" y="71.5332">VehicleRepository</text><rect fill="#E3E3E3" height="31.6094" rx="2.5" ry="2.5" style="stroke:#181818;stroke-width:0.5;" width="128" x="772" y="1386.8359"/><text fill="#000000" font-family="sans-serif" font-size="14" lengthAdjust="spacing" textLength="114" x="779" y="1408.3691">VehicleRepository</text><rect fill="#E3E3E3" height="49.2188" rx="2.5" ry="2.5" style="stroke:#181818;stroke-width:0.5;" width="64" x="951" y="32.3906"/><text fill="#000000" font-family="sans-serif" font-size="14" lengthAdjust="spacing" textLength="46" x="960" y="53.9238">Vehicle</text><text fill="#000000" font-family="sans-serif" font-size="14" lengthAdjust="spacing" textLength="50" x="958" y="71.5332">:Vehicle</text><rect fill="#E3E3E3" height="49.2188" rx="2.5" ry="2.5" style="stroke:#181818;stroke-width:0.5;" width="64" x="951" y="1386.8359"/><text fill="#000000" font-family="sans-serif" font-size="14" lengthAdjust="spacing" textLength="46" x="960" y="1408.3691">Vehicle</text><text fill="#000000" font-family="sans-serif" font-size="14" lengthAdjust="spacing" textLength="50" x="958" y="1425.9785">:Vehicle</text><rect fill="#E3E3E3" height="31.6094" rx="2.5" ry="2.5" style="stroke:#181818;stroke-width:0.5;" width="97" x="1134.5" y="50"/><text fill="#000000" font-family="sans-serif" font-size="14" lengthAdjust="spacing" textLength="83" x="1141.5" y="71.5332">:Repositories</text><rect fill="#E3E3E3" height="31.6094" rx="2.5" ry="2.5" style="stroke:#181818;stroke-width:0.5;" width="97" x="1134.5" y="1386.8359"/><text fill="#000000" font-family="sans-serif" font-size="14" lengthAdjust="spacing" textLength="83" x="1141.5" y="1408.3691">:Repositories</text><rect fill="#E3E3E3" height="49.2188" rx="2.5" ry="2.5" style="stroke:#181818;stroke-width:0.5;" width="97" x="1241.5" y="32.3906"/><text fill="#000000" font-family="sans-serif" font-size="14" lengthAdjust="spacing" textLength="74" x="1253" y="53.9238">repositories</text><text fill="#000000" font-family="sans-serif" font-size="14" lengthAdjust="spacing" textLength="83" x="1248.5" y="71.5332">:Repositories</text><rect fill="#E3E3E3" height="49.2188" rx="2.5" ry="2.5" style="stroke:#181818;stroke-width:0.5;" width="97" x="1241.5" y="1386.8359"/><text fill="#000000" font-family="sans-serif" font-size="14" lengthAdjust="spacing" textLength="74" x="1253" y="1408.3691">repositories</text><text fill="#000000" font-family="sans-serif" font-size="14" lengthAdjust="spacing" textLength="83" x="1248.5" y="1425.9785">:Repositories</text><rect fill="#E3E3E3" height="31.6094" rx="2.5" ry="2.5" style="stroke:#181818;stroke-width:0.5;" width="137" x="1348.5" y="50"/><text fill="#000000" font-family="sans-serif" font-size="14" lengthAdjust="spacing" textLength="123" x="1355.5" y="71.5332">:ApplicationSession</text><rect fill="#E3E3E3" height="31.6094" rx="2.5" ry="2.5" style="stroke:#181818;stroke-width:0.5;" width="137" x="1348.5" y="1386.8359"/><text fill="#000000" font-family="sans-serif" font-size="14" lengthAdjust="spacing" textLength="123" x="1355.5" y="1408.3691">:ApplicationSession</text><rect fill="#E3E3E3" height="49.2188" rx="2.5" ry="2.5" style="stroke:#181818;stroke-width:0.5;" width="137" x="1495.5" y="32.3906"/><text fill="#000000" font-family="sans-serif" font-size="14" lengthAdjust="spacing" textLength="74" x="1527" y="53.9238">appSession</text><text fill="#000000" font-family="sans-serif" font-size="14" lengthAdjust="spacing" textLength="123" x="1502.5" y="71.5332">:ApplicationSession</text><rect fill="#E3E3E3" height="49.2188" rx="2.5" ry="2.5" style="stroke:#181818;stroke-width:0.5;" width="137" x="1495.5" y="1386.8359"/><text fill="#000000" font-family="sans-serif" font-size="14" lengthAdjust="spacing" textLength="74" x="1527" y="1408.3691">appSession</text><text fill="#000000" font-family="sans-serif" font-size="14" lengthAdjust="spacing" textLength="123" x="1502.5" y="1425.9785">:ApplicationSession</text><rect fill="#E3E3E3" height="49.2188" rx="2.5" ry="2.5" style="stroke:#181818;stroke-width:0.5;" width="109" x="1642.5" y="32.3906"/><text fill="#000000" font-family="sans-serif" font-size="14" lengthAdjust="spacing" textLength="95" x="1649.5" y="53.9238">currentSession</text><text fill="#000000" font-family="sans-serif" font-size="14" lengthAdjust="spacing" textLength="83" x="1655.5" y="71.5332">:UserSession</text><rect fill="#E3E3E3" height="49.2188" rx="2.5" ry="2.5" style="stroke:#181818;stroke-width:0.5;" width="109" x="1642.5" y="1386.8359"/><text fill="#000000" font-family="sans-serif" font-size="14" lengthAdjust="spacing" textLength="95" x="1649.5" y="1408.3691">currentSession</text><text fill="#000000" font-family="sans-serif" font-size="14" lengthAdjust="spacing" textLength="83" x="1655.5" y="1425.9785">:UserSession</text><rect fill="#E3E3E3" height="49.2188" rx="2.5" ry="2.5" style="stroke:#181818;stroke-width:0.5;" width="163" x="1761.5" y="32.3906"/><text fill="#000000" font-family="sans-serif" font-size="14" lengthAdjust="spacing" textLength="149" x="1768.5" y="53.9238">organizationRepository:</text><text fill="#000000" font-family="sans-serif" font-size="14" lengthAdjust="spacing" textLength="148" x="1769" y="71.5332">OrganizationRepository</text><rect fill="#E3E3E3" height="49.2188" rx="2.5" ry="2.5" style="stroke:#181818;stroke-width:0.5;" width="163" x="1761.5" y="1386.8359"/><text fill="#000000" font-family="sans-serif" font-size="14" lengthAdjust="spacing" textLength="149" x="1768.5" y="1408.3691">organizationRepository:</text><text fill="#000000" font-family="sans-serif" font-size="14" lengthAdjust="spacing" textLength="148" x="1769" y="1425.9785">OrganizationRepository</text><rect fill="#E3E3E3" height="49.2188" rx="2.5" ry="2.5" style="stroke:#181818;stroke-width:0.5;" width="98" x="2015" y="32.3906"/><text fill="#000000" font-family="sans-serif" font-size="14" lengthAdjust="spacing" textLength="77" x="2025.5" y="53.9238">organization</text><text fill="#000000" font-family="sans-serif" font-size="14" lengthAdjust="spacing" textLength="84" x="2022" y="71.5332">:Organization</text><rect fill="#E3E3E3" height="49.2188" rx="2.5" ry="2.5" style="stroke:#181818;stroke-width:0.5;" width="98" x="2015" y="1386.8359"/><text fill="#000000" font-family="sans-serif" font-size="14" lengthAdjust="spacing" textLength="77" x="2025.5" y="1408.3691">organization</text><text fill="#000000" font-family="sans-serif" font-size="14" lengthAdjust="spacing" textLength="84" x="2022" y="1425.9785">:Organization</text><rect fill="#E3E3E3" height="31.6094" rx="2.5" ry="2.5" style="stroke:#181818;stroke-width:0.5;" width="71" x="2123" y="1386.8359"/><text fill="#000000" font-family="sans-serif" font-size="14" lengthAdjust="spacing" textLength="57" x="2130" y="1408.3691">CheckUp</text><rect fill="#FFFFFF" height="1286.2266" style="stroke:#181818;stroke-width:1.0;" width="10" x="49" y="92.6094"/><rect fill="#FFFFFF" height="779.6953" style="stroke:#181818;stroke-width:1.0;" width="10" x="300" y="114.9609"/><rect fill="#FFFFFF" height="46.7031" style="stroke:#181818;stroke-width:1.0;" width="10" x="300" y="925.0078"/><rect fill="#FFFFFF" height="367.7734" style="stroke:#181818;stroke-width:1.0;" width="10" x="300" y="1002.0625"/><rect fill="#FFFFFF" height="660.0313" style="stroke:#181818;stroke-width:1.0;" width="10" x="639" y="187.9219"/><rect fill="#FFFFFF" height="498.625" style="stroke:#181818;stroke-width:1.0;" width="10" x="644" y="251.2734"/><rect fill="#FFFFFF" height="307.0703" style="stroke:#181818;stroke-width:1.0;" width="10" x="639" y="1032.4141"/><rect fill="#FFFFFF" height="246.3672" style="stroke:#181818;stroke-width:1.0;" width="10" x="978" y="1062.7656"/><rect fill="#FFFFFF" height="128.0547" style="stroke:#181818;stroke-width:1.0;" width="10" x="983" y="1143.7266"/><rect fill="#FFFFFF" height="41.3516" style="stroke:#181818;stroke-width:1.0;" width="10" x="988" y="1187.0781"/><rect fill="#FFFFFF" height="30.3516" style="stroke:#181818;stroke-width:1.0;" width="10" x="1178" y="468.7344"/><rect fill="#FFFFFF" height="30.3516" style="stroke:#181818;stroke-width:1.0;" width="10" x="1285" y="529.4375"/><rect fill="#FFFFFF" height="30.3516" style="stroke:#181818;stroke-width:1.0;" width="10" x="1412" y="286.625"/><rect fill="#FFFFFF" height="30.3516" style="stroke:#181818;stroke-width:1.0;" width="10" x="1559" y="347.3281"/><rect fill="#FFFFFF" height="30.3516" style="stroke:#181818;stroke-width:1.0;" width="10" x="1692" y="408.0313"/><rect fill="#FFFFFF" height="123.4063" style="stroke:#181818;stroke-width:1.0;" width="10" x="1838" y="590.1406"/><rect fill="#FFFFFF" height="30.3516" style="stroke:#181818;stroke-width:1.0;" width="10" x="2059" y="645.8438"/><rect fill="#FFFFFF" height="30.3516" style="stroke:#181818;stroke-width:1.0;" width="10" x="2059" y="787.25"/><polygon fill="#181818" points="288,110.9609,298,114.9609,288,118.9609,292,114.9609" style="stroke:#181818;stroke-width:1.0;"/><line style="stroke:#181818;stroke-width:1.0;" x1="59" x2="294" y1="114.9609" y2="114.9609"/><text fill="#000000" font-family="sans-serif" font-size="13" font-weight="bold" lengthAdjust="spacing" textLength="7" x="66" y="110.1045">1</text><text fill="#000000" font-family="sans-serif" font-size="13" lengthAdjust="spacing" textLength="185" x="77" y="110.1045">begins vehicle check-up registry</text><polygon fill="#181818" points="516.5,141.3125,526.5,145.3125,516.5,149.3125,520.5,145.3125" style="stroke:#181818;stroke-width:1.0;"/><line style="stroke:#181818;stroke-width:1.0;" x1="310" x2="522.5" y1="145.3125" y2="145.3125"/><text fill="#000000" font-family="sans-serif" font-size="13" font-weight="bold" lengthAdjust="spacing" textLength="7" x="317" y="140.4561">2</text><text fill="#000000" font-family="sans-serif" font-size="13" lengthAdjust="spacing" textLength="36" x="328" y="140.4561">create</text><rect fill="#E3E3E3" height="31.6094" rx="2.5" ry="2.5" style="stroke:#181818;stroke-width:0.5;" width="231" x="528.5" y="122.9609"/><text fill="#000000" font-family="sans-serif" font-size="14" lengthAdjust="spacing" textLength="217" x="535.5" y="144.4941">RegisterVehicleCheckupController</text><polygon fill="#181818" points="627,183.9219,637,187.9219,627,191.9219,631,187.9219" style="stroke:#181818;stroke-width:1.0;"/><line style="stroke:#181818;stroke-width:1.0;" x1="310" x2="633" y1="187.9219" y2="187.9219"/><text fill="#000000" font-family="sans-serif" font-size="13" font-weight="bold" lengthAdjust="spacing" textLength="7" x="317" y="183.0654">3</text><text fill="#000000" font-family="sans-serif" font-size="13" lengthAdjust="spacing" textLength="69" x="328" y="183.0654">getVehicle()</text><line style="stroke:#181818;stroke-width:1.0;" x1="649" x2="696" y1="238.2734" y2="238.2734"/><line style="stroke:#181818;stroke-width:1.0;" x1="696" x2="696" y1="238.2734" y2="251.2734"/><line style="stroke:#181818;stroke-width:1.0;" x1="655" x2="696" y1="251.2734" y2="251.2734"/><polygon fill="#181818" points="665,247.2734,655,251.2734,665,255.2734,661,251.2734" style="stroke:#181818;stroke-width:1.0;"/><text fill="#000000" font-family="sans-serif" font-size="13" font-weight="bold" lengthAdjust="spacing" textLength="7" x="661" y="233.417">4</text><text fill="#000000" font-family="sans-serif" font-size="13" lengthAdjust="spacing" textLength="157" x="672" y="233.417">getEmployeeOrganization()</text><polygon fill="#181818" points="1400,282.625,1410,286.625,1400,290.625,1404,286.625" style="stroke:#181818;stroke-width:1.0;"/><line style="stroke:#181818;stroke-width:1.0;" x1="654" x2="1406" y1="286.625" y2="286.625"/><text fill="#000000" font-family="sans-serif" font-size="13" font-weight="bold" lengthAdjust="spacing" textLength="7" x="661" y="281.7686">5</text><text fill="#000000" font-family="sans-serif" font-size="13" lengthAdjust="spacing" textLength="75" x="672" y="281.7686">getInstance()</text><polygon fill="#181818" points="665,312.9766,655,316.9766,665,320.9766,661,316.9766" style="stroke:#181818;stroke-width:1.0;"/><line style="stroke:#181818;stroke-width:1.0;" x1="659" x2="1416" y1="316.9766" y2="316.9766"/><text fill="#000000" font-family="sans-serif" font-size="13" font-weight="bold" lengthAdjust="spacing" textLength="7" x="671" y="312.1201">6</text><text fill="#000000" font-family="sans-serif" font-size="13" lengthAdjust="spacing" textLength="68" x="682" y="312.1201">appSession</text><polygon fill="#181818" points="1547,343.3281,1557,347.3281,1547,351.3281,1551,347.3281" style="stroke:#181818;stroke-width:1.0;"/><line style="stroke:#181818;stroke-width:1.0;" x1="654" x2="1553" y1="347.3281" y2="347.3281"/><text fill="#000000" font-family="sans-serif" font-size="13" font-weight="bold" lengthAdjust="spacing" textLength="7" x="661" y="342.4717">7</text><text fill="#000000" font-family="sans-serif" font-size="13" lengthAdjust="spacing" textLength="115" x="672" y="342.4717">getCurrentSession()</text><polygon fill="#181818" points="665,373.6797,655,377.6797,665,381.6797,661,377.6797" style="stroke:#181818;stroke-width:1.0;"/><line style="stroke:#181818;stroke-width:1.0;stroke-dasharray:2.0,2.0;" x1="659" x2="1563" y1="377.6797" y2="377.6797"/><text fill="#000000" font-family="sans-serif" font-size="13" font-weight="bold" lengthAdjust="spacing" textLength="7" x="671" y="372.8232">8</text><text fill="#000000" font-family="sans-serif" font-size="13" lengthAdjust="spacing" textLength="87" x="682" y="372.8232">currentSession</text><polygon fill="#181818" points="1680,404.0313,1690,408.0313,1680,412.0313,1684,408.0313" style="stroke:#181818;stroke-width:1.0;"/><line style="stroke:#181818;stroke-width:1.0;" x1="654" x2="1686" y1="408.0313" y2="408.0313"/><text fill="#000000" font-family="sans-serif" font-size="13" font-weight="bold" lengthAdjust="spacing" textLength="7" x="661" y="403.1748">9</text><text fill="#000000" font-family="sans-serif" font-size="13" lengthAdjust="spacing" textLength="133" x="672" y="403.1748">email = getUserEmail()</text><polygon fill="#181818" points="665,434.3828,655,438.3828,665,442.3828,661,438.3828" style="stroke:#181818;stroke-width:1.0;"/><line style="stroke:#181818;stroke-width:1.0;stroke-dasharray:2.0,2.0;" x1="659" x2="1696" y1="438.3828" y2="438.3828"/><text fill="#000000" font-family="sans-serif" font-size="13" font-weight="bold" lengthAdjust="spacing" textLength="14" x="671" y="433.5264">10</text><text fill="#000000" font-family="sans-serif" font-size="13" lengthAdjust="spacing" textLength="31" x="689" y="433.5264">email</text><polygon fill="#181818" points="1166,464.7344,1176,468.7344,1166,472.7344,1170,468.7344" style="stroke:#181818;stroke-width:1.0;"/><line style="stroke:#181818;stroke-width:1.0;" x1="654" x2="1172" y1="468.7344" y2="468.7344"/><text fill="#000000" font-family="sans-serif" font-size="13" font-weight="bold" lengthAdjust="spacing" textLength="14" x="661" y="463.8779">11</text><text fill="#000000" font-family="sans-serif" font-size="13" lengthAdjust="spacing" textLength="75" x="679" y="463.8779">getInstance()</text><polygon fill="#181818" points="665,495.0859,655,499.0859,665,503.0859,661,499.0859" style="stroke:#181818;stroke-width:1.0;"/><line style="stroke:#181818;stroke-width:1.0;stroke-dasharray:2.0,2.0;" x1="659" x2="1182" y1="499.0859" y2="499.0859"/><text fill="#000000" font-family="sans-serif" font-size="13" font-weight="bold" lengthAdjust="spacing" textLength="14" x="671" y="494.2295">12</text><text fill="#000000" font-family="sans-serif" font-size="13" lengthAdjust="spacing" textLength="67" x="689" y="494.2295">repositories</text><polygon fill="#181818" points="1273,525.4375,1283,529.4375,1273,533.4375,1277,529.4375" style="stroke:#181818;stroke-width:1.0;"/><line style="stroke:#181818;stroke-width:1.0;" x1="654" x2="1279" y1="529.4375" y2="529.4375"/><text fill="#000000" font-family="sans-serif" font-size="13" font-weight="bold" lengthAdjust="spacing" textLength="14" x="661" y="524.5811">13</text><text fill="#000000" font-family="sans-serif" font-size="13" lengthAdjust="spacing" textLength="192" x="679" y="524.5811">getOrganizationRepository(email)</text><polygon fill="#181818" points="665,555.7891,655,559.7891,665,563.7891,661,559.7891" style="stroke:#181818;stroke-width:1.0;"/><line style="stroke:#181818;stroke-width:1.0;stroke-dasharray:2.0,2.0;" x1="659" x2="1289" y1="559.7891" y2="559.7891"/><text fill="#000000" font-family="sans-serif" font-size="13" font-weight="bold" lengthAdjust="spacing" textLength="14" x="671" y="554.9326">14</text><text fill="#000000" font-family="sans-serif" font-size="13" lengthAdjust="spacing" textLength="132" x="689" y="554.9326">organizationRepository</text><polygon fill="#181818" points="1826,586.1406,1836,590.1406,1826,594.1406,1830,590.1406" style="stroke:#181818;stroke-width:1.0;"/><line style="stroke:#181818;stroke-width:1.0;" x1="654" x2="1832" y1="590.1406" y2="590.1406"/><text fill="#000000" font-family="sans-serif" font-size="13" font-weight="bold" lengthAdjust="spacing" textLength="14" x="661" y="585.2842">15</text><text fill="#000000" font-family="sans-serif" font-size="13" lengthAdjust="spacing" textLength="237" x="679" y="585.2842">getOrganizationByEmployeeEmail(email)</text><path d="M1751.5,605.1406 L1824.5,605.1406 L1824.5,613.4922 L1814.5,623.4922 L1751.5,623.4922 L1751.5,605.1406 " fill="#EEEEEE" style="stroke:#000000;stroke-width:1.5;"/><rect fill="none" height="79.0547" style="stroke:#000000;stroke-width:1.5;" width="371.5" x="1751.5" y="605.1406"/><text fill="#000000" font-family="sans-serif" font-size="13" font-weight="bold" lengthAdjust="spacing" textLength="28" x="1766.5" y="619.6357">loop</text><text fill="#000000" font-family="sans-serif" font-size="11" font-weight="bold" lengthAdjust="spacing" textLength="124" x="1839.5" y="618.5596">[for each organization]</text><polygon fill="#181818" points="2047,641.8438,2057,645.8438,2047,649.8438,2051,645.8438" style="stroke:#181818;stroke-width:1.0;"/><line style="stroke:#181818;stroke-width:1.0;" x1="1848" x2="2053" y1="645.8438" y2="645.8438"/><text fill="#000000" font-family="sans-serif" font-size="13" font-weight="bold" lengthAdjust="spacing" textLength="14" x="1855" y="640.9873">16</text><text fill="#000000" font-family="sans-serif" font-size="13" lengthAdjust="spacing" textLength="174" x="1873" y="640.9873">anyEmployeeHasEmail(email)</text><polygon fill="#181818" points="1859,672.1953,1849,676.1953,1859,680.1953,1855,676.1953" style="stroke:#181818;stroke-width:1.0;"/><line style="stroke:#181818;stroke-width:1.0;stroke-dasharray:2.0,2.0;" x1="1853" x2="2063" y1="676.1953" y2="676.1953"/><text fill="#000000" font-family="sans-serif" font-size="13" font-weight="bold" lengthAdjust="spacing" textLength="14" x="1865" y="671.3389">17</text><text fill="#000000" font-family="sans-serif" font-size="13" lengthAdjust="spacing" textLength="53" x="1883" y="671.3389">true/false</text><polygon fill="#181818" points="665,709.5469,655,713.5469,665,717.5469,661,713.5469" style="stroke:#181818;stroke-width:1.0;"/><line style="stroke:#181818;stroke-width:1.0;stroke-dasharray:2.0,2.0;" x1="659" x2="1842" y1="713.5469" y2="713.5469"/><text fill="#000000" font-family="sans-serif" font-size="13" font-weight="bold" lengthAdjust="spacing" textLength="14" x="671" y="708.6904">18</text><text fill="#000000" font-family="sans-serif" font-size="13" lengthAdjust="spacing" textLength="70" x="689" y="708.6904">organization</text><line style="stroke:#181818;stroke-width:1.0;stroke-dasharray:2.0,2.0;" x1="654" x2="696" y1="748.8984" y2="748.8984"/><line style="stroke:#181818;stroke-width:1.0;stroke-dasharray:2.0,2.0;" x1="696" x2="696" y1="748.8984" y2="761.8984"/><line style="stroke:#181818;stroke-width:1.0;stroke-dasharray:2.0,2.0;" x1="649" x2="696" y1="761.8984" y2="761.8984"/><polygon fill="#181818" points="659,757.8984,649,761.8984,659,765.8984,655,761.8984" style="stroke:#181818;stroke-width:1.0;"/><text fill="#000000" font-family="sans-serif" font-size="13" font-weight="bold" lengthAdjust="spacing" textLength="14" x="661" y="744.042">19</text><text fill="#000000" font-family="sans-serif" font-size="13" lengthAdjust="spacing" textLength="70" x="679" y="744.042">organization</text><polygon fill="#181818" points="2047,783.25,2057,787.25,2047,791.25,2051,787.25" style="stroke:#181818;stroke-width:1.0;"/><line style="stroke:#181818;stroke-width:1.0;" x1="649" x2="2053" y1="787.25" y2="787.25"/><text fill="#000000" font-family="sans-serif" font-size="13" font-weight="bold" lengthAdjust="spacing" textLength="14" x="656" y="782.3936">20</text><text fill="#000000" font-family="sans-serif" font-size="13" lengthAdjust="spacing" textLength="97" x="674" y="782.3936">getVehiclesList()</text><polygon fill="#181818" points="660,813.6016,650,817.6016,660,821.6016,656,817.6016" style="stroke:#181818;stroke-width:1.0;"/><line style="stroke:#181818;stroke-width:1.0;stroke-dasharray:2.0,2.0;" x1="654" x2="2063" y1="817.6016" y2="817.6016"/><text fill="#000000" font-family="sans-serif" font-size="13" font-weight="bold" lengthAdjust="spacing" textLength="14" x="666" y="812.7451">21</text><text fill="#000000" font-family="sans-serif" font-size="13" lengthAdjust="spacing" textLength="67" x="684" y="812.7451">vehiclesList</text><polygon fill="#181818" points="321,843.9531,311,847.9531,321,851.9531,317,847.9531" style="stroke:#181818;stroke-width:1.0;"/><line style="stroke:#181818;stroke-width:1.0;stroke-dasharray:2.0,2.0;" x1="315" x2="643" y1="847.9531" y2="847.9531"/><text fill="#000000" font-family="sans-serif" font-size="13" font-weight="bold" lengthAdjust="spacing" textLength="14" x="327" y="843.0967">22</text><text fill="#000000" font-family="sans-serif" font-size="13" lengthAdjust="spacing" textLength="67" x="345" y="843.0967">vehiclesList</text><polygon fill="#181818" points="70,890.6563,60,894.6563,70,898.6563,66,894.6563" style="stroke:#181818;stroke-width:1.0;"/><line style="stroke:#181818;stroke-width:1.0;stroke-dasharray:2.0,2.0;" x1="64" x2="304" y1="894.6563" y2="894.6563"/><text fill="#000000" font-family="sans-serif" font-size="13" font-weight="bold" lengthAdjust="spacing" textLength="14" x="76" y="881.624">23</text><text fill="#000000" font-family="sans-serif" font-size="13" lengthAdjust="spacing" textLength="101" x="94" y="873.4482">shows vehicle list</text><text fill="#000000" font-family="sans-serif" font-size="13" lengthAdjust="spacing" textLength="115" x="98" y="889.7998">to register check-up</text><polygon fill="#181818" points="288,921.0078,298,925.0078,288,929.0078,292,925.0078" style="stroke:#181818;stroke-width:1.0;"/><line style="stroke:#181818;stroke-width:1.0;" x1="59" x2="294" y1="925.0078" y2="925.0078"/><text fill="#000000" font-family="sans-serif" font-size="13" font-weight="bold" lengthAdjust="spacing" textLength="14" x="66" y="920.1514">24</text><text fill="#000000" font-family="sans-serif" font-size="13" lengthAdjust="spacing" textLength="204" x="84" y="920.1514">choose vehicle to register check-up</text><polygon fill="#181818" points="70,967.7109,60,971.7109,70,975.7109,66,971.7109" style="stroke:#181818;stroke-width:1.0;"/><line style="stroke:#181818;stroke-width:1.0;stroke-dasharray:2.0,2.0;" x1="64" x2="304" y1="971.7109" y2="971.7109"/><text fill="#000000" font-family="sans-serif" font-size="13" font-weight="bold" lengthAdjust="spacing" textLength="14" x="76" y="958.6787">25</text><text fill="#000000" font-family="sans-serif" font-size="13" lengthAdjust="spacing" textLength="116" x="94" y="950.5029">requests data (date,</text><text fill="#000000" font-family="sans-serif" font-size="13" lengthAdjust="spacing" textLength="66" x="94" y="966.8545">current km)</text><polygon fill="#181818" points="288,998.0625,298,1002.0625,288,1006.0625,292,1002.0625" style="stroke:#181818;stroke-width:1.0;"/><line style="stroke:#181818;stroke-width:1.0;" x1="59" x2="294" y1="1002.0625" y2="1002.0625"/><text fill="#000000" font-family="sans-serif" font-size="13" font-weight="bold" lengthAdjust="spacing" textLength="14" x="66" y="997.2061">26</text><text fill="#000000" font-family="sans-serif" font-size="13" lengthAdjust="spacing" textLength="125" x="84" y="997.2061">inputs requested data</text><polygon fill="#181818" points="627,1028.4141,637,1032.4141,627,1036.4141,631,1032.4141" style="stroke:#181818;stroke-width:1.0;"/><line style="stroke:#181818;stroke-width:1.0;" x1="310" x2="633" y1="1032.4141" y2="1032.4141"/><text fill="#000000" font-family="sans-serif" font-size="13" font-weight="bold" lengthAdjust="spacing" textLength="14" x="317" y="1027.5576">27</text><text fill="#000000" font-family="sans-serif" font-size="13" lengthAdjust="spacing" textLength="292" x="335" y="1027.5576">RegisterVehicleCheckup(vehicle, date, current km)</text><polygon fill="#181818" points="966,1058.7656,976,1062.7656,966,1066.7656,970,1062.7656" style="stroke:#181818;stroke-width:1.0;"/><line style="stroke:#181818;stroke-width:1.0;" x1="649" x2="972" y1="1062.7656" y2="1062.7656"/><text fill="#000000" font-family="sans-serif" font-size="13" font-weight="bold" lengthAdjust="spacing" textLength="14" x="656" y="1057.9092">28</text><text fill="#000000" font-family="sans-serif" font-size="13" lengthAdjust="spacing" textLength="292" x="674" y="1057.9092">RegisterVehicleCheckup(vehicle, date, current km)</text><polygon fill="#181818" points="2111,1089.1172,2121,1093.1172,2111,1097.1172,2115,1093.1172" style="stroke:#181818;stroke-width:1.0;"/><line style="stroke:#181818;stroke-width:1.0;" x1="988" x2="2117" y1="1093.1172" y2="1093.1172"/><text fill="#000000" font-family="sans-serif" font-size="13" font-weight="bold" lengthAdjust="spacing" textLength="14" x="995" y="1088.2607">29</text><text fill="#000000" font-family="sans-serif" font-size="13" lengthAdjust="spacing" textLength="38" x="1013" y="1088.2607">Create</text><rect fill="#E3E3E3" height="31.6094" rx="2.5" ry="2.5" style="stroke:#181818;stroke-width:0.5;" width="71" x="2123" y="1070.7656"/><text fill="#000000" font-family="sans-serif" font-size="14" lengthAdjust="spacing" textLength="57" x="2130" y="1092.2988">CheckUp</text><line style="stroke:#181818;stroke-width:1.0;" x1="988" x2="1035" y1="1130.7266" y2="1130.7266"/><line style="stroke:#181818;stroke-width:1.0;" x1="1035" x2="1035" y1="1130.7266" y2="1143.7266"/><line style="stroke:#181818;stroke-width:1.0;" x1="994" x2="1035" y1="1143.7266" y2="1143.7266"/><polygon fill="#181818" points="1004,1139.7266,994,1143.7266,1004,1147.7266,1000,1143.7266" style="stroke:#181818;stroke-width:1.0;"/><text fill="#000000" font-family="sans-serif" font-size="13" font-weight="bold" lengthAdjust="spacing" textLength="14" x="1000" y="1125.8701">30</text><text fill="#000000" font-family="sans-serif" font-size="13" lengthAdjust="spacing" textLength="133" x="1018" y="1125.8701">addCheckUp(checkUp)</text><line style="stroke:#181818;stroke-width:1.0;" x1="993" x2="1040" y1="1174.0781" y2="1174.0781"/><line style="stroke:#181818;stroke-width:1.0;" x1="1040" x2="1040" y1="1174.0781" y2="1187.0781"/><line style="stroke:#181818;stroke-width:1.0;" x1="999" x2="1040" y1="1187.0781" y2="1187.0781"/><polygon fill="#181818" points="1009,1183.0781,999,1187.0781,1009,1191.0781,1005,1187.0781" style="stroke:#181818;stroke-width:1.0;"/><text fill="#000000" font-family="sans-serif" font-size="13" font-weight="bold" lengthAdjust="spacing" textLength="14" x="1005" y="1169.2217">31</text><text fill="#000000" font-family="sans-serif" font-size="13" lengthAdjust="spacing" textLength="153" x="1023" y="1169.2217">validateCheckup(checkUp)</text><line style="stroke:#181818;stroke-width:1.0;stroke-dasharray:2.0,2.0;" x1="998" x2="1040" y1="1227.4297" y2="1227.4297"/><line style="stroke:#181818;stroke-width:1.0;stroke-dasharray:2.0,2.0;" x1="1040" x2="1040" y1="1227.4297" y2="1240.4297"/><line style="stroke:#181818;stroke-width:1.0;stroke-dasharray:2.0,2.0;" x1="993" x2="1040" y1="1240.4297" y2="1240.4297"/><polygon fill="#181818" points="1003,1236.4297,993,1240.4297,1003,1244.4297,999,1240.4297" style="stroke:#181818;stroke-width:1.0;"/><text fill="#000000" font-family="sans-serif" font-size="13" font-weight="bold" lengthAdjust="spacing" textLength="14" x="1005" y="1222.5732">32</text><text fill="#000000" font-family="sans-serif" font-size="13" lengthAdjust="spacing" textLength="4" x="1023" y="1222.5732"> </text><line style="stroke:#181818;stroke-width:1.0;stroke-dasharray:2.0,2.0;" x1="993" x2="1035" y1="1270.7813" y2="1270.7813"/><line style="stroke:#181818;stroke-width:1.0;stroke-dasharray:2.0,2.0;" x1="1035" x2="1035" y1="1270.7813" y2="1283.7813"/><line style="stroke:#181818;stroke-width:1.0;stroke-dasharray:2.0,2.0;" x1="988" x2="1035" y1="1283.7813" y2="1283.7813"/><polygon fill="#181818" points="998,1279.7813,988,1283.7813,998,1287.7813,994,1283.7813" style="stroke:#181818;stroke-width:1.0;"/><text fill="#000000" font-family="sans-serif" font-size="13" font-weight="bold" lengthAdjust="spacing" textLength="14" x="1000" y="1265.9248">33</text><text fill="#000000" font-family="sans-serif" font-size="13" lengthAdjust="spacing" textLength="4" x="1018" y="1265.9248"> </text><polygon fill="#181818" points="660,1305.1328,650,1309.1328,660,1313.1328,656,1309.1328" style="stroke:#181818;stroke-width:1.0;"/><line style="stroke:#181818;stroke-width:1.0;stroke-dasharray:2.0,2.0;" x1="654" x2="982" y1="1309.1328" y2="1309.1328"/><text fill="#000000" font-family="sans-serif" font-size="13" font-weight="bold" lengthAdjust="spacing" textLength="14" x="666" y="1304.2764">34</text><text fill="#000000" font-family="sans-serif" font-size="13" lengthAdjust="spacing" textLength="53" x="684" y="1304.2764">CheckUp</text><polygon fill="#181818" points="321,1335.4844,311,1339.4844,321,1343.4844,317,1339.4844" style="stroke:#181818;stroke-width:1.0;"/><line style="stroke:#181818;stroke-width:1.0;stroke-dasharray:2.0,2.0;" x1="315" x2="643" y1="1339.4844" y2="1339.4844"/><text fill="#000000" font-family="sans-serif" font-size="13" font-weight="bold" lengthAdjust="spacing" textLength="14" x="327" y="1334.6279">35</text><text fill="#000000" font-family="sans-serif" font-size="13" lengthAdjust="spacing" textLength="53" x="345" y="1334.6279">CheckUp</text><polygon fill="#181818" points="70,1365.8359,60,1369.8359,70,1373.8359,66,1369.8359" style="stroke:#181818;stroke-width:1.0;"/><line style="stroke:#181818;stroke-width:1.0;stroke-dasharray:2.0,2.0;" x1="64" x2="304" y1="1369.8359" y2="1369.8359"/><text fill="#000000" font-family="sans-serif" font-size="13" font-weight="bold" lengthAdjust="spacing" textLength="14" x="76" y="1364.9795">36</text><text fill="#000000" font-family="sans-serif" font-size="13" lengthAdjust="spacing" textLength="158" x="94" y="1364.9795">displays operation success</text><!--SRC=[hLTDJnin4BtxLuoua5P4lKSgKfe2HGA14iWfKcMyGzPYOszjBpGLFxwszoFhnBiR97p8nthcpNlsU3ohNxZ8gQ8Rs4WXMQha1i6e0ebkPdBANkWQ5sQR8IXaXefrrZRGAKta6nThUAQPHa9eOQGeDa-e23bDUOBmBALvady9PKOgEBdC40tSKc5nrGbG3PUtn88PpdXEXO6JEQwvDgYMc7AMuIn5zbBaZzVU-F7w6EEP54R9BAiYp1xcDw5RPJx7N6fkUMsztN8UjLg9IVMhj0gD9Wq8H-qDTgWBxjRBhaZeebeU5lm0uFvc-h0NP9hd6MVKS2aMgBNzyfQ_f_VteINDyyh08dTu7JYnGYaKPkVug56rFHONYyNqBdIIQaq5_-VHTv8dAt4NdV0uyQbkN4kbxL9YpAy8SUd4Nwb1bpu4gd5v2-DpcoCmWIUR64B3Qxbnm5nYZ8lSPh5B61kpSMgGR6wHKsWD2pIsUDEVjnPGuPy2jT6GK4DXfF0PxPenF8C4DLCyTmJF0BXubcf3CrY9SCOWIuNTZInyd1IAbh-OrEOBQHCuPGeTCv_0P9_QkN_-zQibLzfrcLY3DPegXqTXY4RzOGmttj_V3vvvo03wOfDdSelOtgkzE4V4QcExnFRGrqBRgiCm0XT0-fC07SDDremdi3iYKOS4Gz1-eZNFMN24XjXwt2wsdcp3DZoRGumxWMk-vKcU06uep-2xe-uE-uNxEyIwgWATnClv5dSVP8Xo7shDEb9IFvGTiP8SzOWOjlIq2_UGhAD3rXfTrVUYuaLov1TpGAU_EJhtnyssrCGB-92kCaIlahY00sq_jdNTABFl684T5qYdv4pAtBOW2go0D53SxUD6F8uNDx-oHO-AXlmlgWVv7-fmbnWC3HThtBcWbeRhrxwLhLSVJclxNE0kCnG9-UY2xEw1O767M7nW6ykiEZ9EAqRyacboT7xLlXNrZUqA-gwiw8RL-rEUfzSM51dO0jAfqdSldL2z-gf-vTArApgLRxls9xCujXynikf_K3KT4Ob0kqueqbEnL4gD3MWl6aJRgpsc9TMzpif-ujbALFSUl6mYHoha6g5gNr0AYrX1O-AnoL7SuWrK_4LZLAt56NZMq4lwSEVgP5n-Je33ICjzMKiloM4_vhvpd5MTOyJEiQ99KbcFMFcz7xSdLWdnIZFkoDUAFexZSsL9EbFWCpp6rgFQwafmNtqEeA87kKx46kmeh5Z9yaUbFjK9rtb6jnfaZkLh0-Y2CTiR7XV0vVb_]--></g></svg>