<?xml version="1.0" encoding="UTF-8" standalone="no"?><svg xmlns="http://www.w3.org/2000/svg" xmlns:xlink="http://www.w3.org/1999/xlink" contentStyleType="text/css" height="908px" preserveAspectRatio="none" style="width:971px;height:908px;background:#FFFFFF;" version="1.1" viewBox="0 0 971 908" width="971px" zoomAndPan="magnify"><defs/><g><!--class GreenSpace--><g id="elem_GreenSpace"><rect codeLine="10" fill="#F1F1F1" height="88.4375" id="GreenSpace" rx="2.5" ry="2.5" style="stroke:#181818;stroke-width:0.5;" width="86" x="386" y="7"/><text fill="#000000" font-family="sans-serif" font-size="14" lengthAdjust="spacing" textLength="80" x="389" y="26.5332">GreenSpace</text><line style="stroke:#181818;stroke-width:0.5;" x1="387" x2="471" y1="34.6094" y2="34.6094"/><text fill="#000000" font-family="sans-serif" font-size="14" lengthAdjust="spacing" textLength="29" x="392" y="53.1426">local</text><text fill="#000000" font-family="sans-serif" font-size="14" lengthAdjust="spacing" textLength="51" x="392" y="70.752">address</text><text fill="#000000" font-family="sans-serif" font-size="14" lengthAdjust="spacing" textLength="29" x="392" y="88.3613">area</text></g><!--class Organization--><g id="elem_Organization"><rect codeLine="16" fill="#F1F1F1" height="123.6563" id="Organization" rx="2.5" ry="2.5" style="stroke:#181818;stroke-width:0.5;" width="101" x="269.5" y="173"/><text fill="#000000" font-family="sans-serif" font-size="14" lengthAdjust="spacing" textLength="80" x="280" y="192.5332">Organization</text><line style="stroke:#181818;stroke-width:0.5;" x1="270.5" x2="369.5" y1="200.6094" y2="200.6094"/><text fill="#000000" font-family="sans-serif" font-size="14" lengthAdjust="spacing" textLength="35" x="275.5" y="219.1426">name</text><text fill="#000000" font-family="sans-serif" font-size="14" lengthAdjust="spacing" textLength="68" x="275.5" y="236.752">vatNumber</text><text fill="#000000" font-family="sans-serif" font-size="14" lengthAdjust="spacing" textLength="47" x="275.5" y="254.3613">website</text><text fill="#000000" font-family="sans-serif" font-size="14" lengthAdjust="spacing" textLength="89" x="275.5" y="271.9707">phoneNumber</text><text fill="#000000" font-family="sans-serif" font-size="14" lengthAdjust="spacing" textLength="33" x="275.5" y="289.5801">email</text></g><!--class Vehicle--><g id="elem_Vehicle"><rect codeLine="24" fill="#F1F1F1" height="158.875" id="Vehicle" rx="2.5" ry="2.5" style="stroke:#181818;stroke-width:0.5;" width="132" x="7" y="594"/><text fill="#000000" font-family="sans-serif" font-size="14" lengthAdjust="spacing" textLength="46" x="50" y="613.5332">Vehicle</text><line style="stroke:#181818;stroke-width:0.5;" x1="8" x2="138" y1="621.6094" y2="621.6094"/><text fill="#000000" font-family="sans-serif" font-size="14" lengthAdjust="spacing" textLength="83" x="13" y="640.1426">plate number</text><text fill="#000000" font-family="sans-serif" font-size="14" lengthAdjust="spacing" textLength="37" x="13" y="657.752">brand</text><text fill="#000000" font-family="sans-serif" font-size="14" lengthAdjust="spacing" textLength="27" x="13" y="675.3613">type</text><text fill="#000000" font-family="sans-serif" font-size="14" lengthAdjust="spacing" textLength="38" x="13" y="692.9707">model</text><text fill="#000000" font-family="sans-serif" font-size="14" lengthAdjust="spacing" textLength="67" x="13" y="710.5801">current km</text><text fill="#000000" font-family="sans-serif" font-size="14" lengthAdjust="spacing" textLength="120" x="13" y="728.1895">checkup frequency</text><text fill="#000000" font-family="sans-serif" font-size="14" lengthAdjust="spacing" textLength="117" x="13" y="745.7988">km at last checkup</text></g><!--class Checkup--><g id="elem_Checkup"><rect codeLine="34" fill="#F1F1F1" height="70.8281" id="Checkup" rx="2.5" ry="2.5" style="stroke:#181818;stroke-width:0.5;" width="143" x="248.5" y="638"/><text fill="#000000" font-family="sans-serif" font-size="14" lengthAdjust="spacing" textLength="56" x="292" y="657.5332">Checkup</text><line style="stroke:#181818;stroke-width:0.5;" x1="249.5" x2="390.5" y1="665.6094" y2="665.6094"/><text fill="#000000" font-family="sans-serif" font-size="14" lengthAdjust="spacing" textLength="115" x="254.5" y="684.1426">current vehicle km</text><text fill="#000000" font-family="sans-serif" font-size="14" lengthAdjust="spacing" textLength="131" x="254.5" y="701.752">vehicle plate number</text></g><!--class FleetManager--><g id="elem_FleetManager"><rect codeLine="39" fill="#F1F1F1" height="88.4375" id="FleetManager" rx="2.5" ry="2.5" style="stroke:#181818;stroke-width:0.5;" width="94" x="273" y="401.5"/><text fill="#000000" font-family="sans-serif" font-size="14" lengthAdjust="spacing" textLength="88" x="276" y="421.0332">FleetManager</text><line style="stroke:#181818;stroke-width:0.5;" x1="274" x2="366" y1="429.1094" y2="429.1094"/><text fill="#000000" font-family="sans-serif" font-size="14" lengthAdjust="spacing" textLength="35" x="279" y="447.6426">name</text><text fill="#000000" font-family="sans-serif" font-size="14" lengthAdjust="spacing" textLength="33" x="279" y="465.252">email</text><text fill="#000000" font-family="sans-serif" font-size="14" lengthAdjust="spacing" textLength="40" x="279" y="482.8613">phone</text></g><!--class HumanResourcesManager--><g id="elem_HumanResourcesManager"><rect codeLine="45" fill="#F1F1F1" height="88.4375" id="HumanResourcesManager" rx="2.5" ry="2.5" style="stroke:#181818;stroke-width:0.5;" width="174" x="682" y="191"/><text fill="#000000" font-family="sans-serif" font-size="14" lengthAdjust="spacing" textLength="168" x="685" y="210.5332">HumanResourcesManager</text><line style="stroke:#181818;stroke-width:0.5;" x1="683" x2="855" y1="218.6094" y2="218.6094"/><text fill="#000000" font-family="sans-serif" font-size="14" lengthAdjust="spacing" textLength="35" x="688" y="237.1426">name</text><text fill="#000000" font-family="sans-serif" font-size="14" lengthAdjust="spacing" textLength="33" x="688" y="254.752">email</text><text fill="#000000" font-family="sans-serif" font-size="14" lengthAdjust="spacing" textLength="40" x="688" y="272.3613">phone</text></g><!--class GreenSpaceManager--><g id="elem_GreenSpaceManager"><rect codeLine="51" fill="#F1F1F1" height="88.4375" id="GreenSpaceManager" rx="2.5" ry="2.5" style="stroke:#181818;stroke-width:0.5;" width="142" x="441" y="191"/><text fill="#000000" font-family="sans-serif" font-size="14" lengthAdjust="spacing" textLength="136" x="444" y="210.5332">GreenSpaceManager</text><line style="stroke:#181818;stroke-width:0.5;" x1="442" x2="582" y1="218.6094" y2="218.6094"/><text fill="#000000" font-family="sans-serif" font-size="14" lengthAdjust="spacing" textLength="35" x="447" y="237.1426">name</text><text fill="#000000" font-family="sans-serif" font-size="14" lengthAdjust="spacing" textLength="33" x="447" y="254.752">email</text><text fill="#000000" font-family="sans-serif" font-size="14" lengthAdjust="spacing" textLength="40" x="447" y="272.3613">phone</text></g><!--class GreenSpaceUser--><g id="elem_GreenSpaceUser"><rect codeLine="57" fill="#F1F1F1" height="70.8281" id="GreenSpaceUser" rx="2.5" ry="2.5" style="stroke:#181818;stroke-width:0.5;" width="115" x="193.5" y="15.5"/><text fill="#000000" font-family="sans-serif" font-size="14" lengthAdjust="spacing" textLength="109" x="196.5" y="35.0332">GreenSpaceUser</text><line style="stroke:#181818;stroke-width:0.5;" x1="194.5" x2="307.5" y1="43.1094" y2="43.1094"/><text fill="#000000" font-family="sans-serif" font-size="14" lengthAdjust="spacing" textLength="35" x="199.5" y="61.6426">name</text><text fill="#000000" font-family="sans-serif" font-size="14" lengthAdjust="spacing" textLength="33" x="199.5" y="79.252">email</text></g><!--class Collaborator--><g id="elem_Collaborator"><rect codeLine="62" fill="#F1F1F1" height="141.2656" id="Collaborator" rx="2.5" ry="2.5" style="stroke:#181818;stroke-width:0.5;" width="107" x="598.5" y="375"/><text fill="#000000" font-family="sans-serif" font-size="14" lengthAdjust="spacing" textLength="78" x="613" y="394.5332">Collaborator</text><line style="stroke:#181818;stroke-width:0.5;" x1="599.5" x2="704.5" y1="402.6094" y2="402.6094"/><text fill="#000000" font-family="sans-serif" font-size="14" lengthAdjust="spacing" textLength="35" x="604.5" y="421.1426">name</text><text fill="#000000" font-family="sans-serif" font-size="14" lengthAdjust="spacing" textLength="56" x="604.5" y="438.752">birthdate</text><text fill="#000000" font-family="sans-serif" font-size="14" lengthAdjust="spacing" textLength="95" x="604.5" y="456.3613">admission date</text><text fill="#000000" font-family="sans-serif" font-size="14" lengthAdjust="spacing" textLength="51" x="604.5" y="473.9707">address</text><text fill="#000000" font-family="sans-serif" font-size="14" lengthAdjust="spacing" textLength="33" x="604.5" y="491.5801">email</text><text fill="#000000" font-family="sans-serif" font-size="14" lengthAdjust="spacing" textLength="40" x="604.5" y="509.1895">phone</text></g><!--class ID--><g id="elem_ID"><rect codeLine="71" fill="#F1F1F1" height="70.8281" id="ID" rx="2.5" ry="2.5" style="stroke:#181818;stroke-width:0.5;" width="60" x="622" y="638"/><text fill="#000000" font-family="sans-serif" font-size="14" lengthAdjust="spacing" textLength="13" x="645.5" y="657.5332">ID</text><line style="stroke:#181818;stroke-width:0.5;" x1="623" x2="681" y1="665.6094" y2="665.6094"/><text fill="#000000" font-family="sans-serif" font-size="14" lengthAdjust="spacing" textLength="27" x="628" y="684.1426">type</text><text fill="#000000" font-family="sans-serif" font-size="14" lengthAdjust="spacing" textLength="48" x="628" y="701.752">number</text></g><!--class Job--><g id="elem_Job"><rect codeLine="76" fill="#F1F1F1" height="53.2188" id="Job" rx="2.5" ry="2.5" style="stroke:#181818;stroke-width:0.5;" width="47" x="823.5" y="647"/><text fill="#000000" font-family="sans-serif" font-size="14" lengthAdjust="spacing" textLength="22" x="836" y="666.5332">Job</text><line style="stroke:#181818;stroke-width:0.5;" x1="824.5" x2="869.5" y1="674.6094" y2="674.6094"/><text fill="#000000" font-family="sans-serif" font-size="14" lengthAdjust="spacing" textLength="35" x="829.5" y="693.1426">name</text></g><!--class Skill--><g id="elem_Skill"><rect codeLine="80" fill="#F1F1F1" height="53.2188" id="Skill" rx="2.5" ry="2.5" style="stroke:#181818;stroke-width:0.5;" width="47" x="728.5" y="840"/><text fill="#000000" font-family="sans-serif" font-size="14" lengthAdjust="spacing" textLength="25" x="739.5" y="859.5332">Skill</text><line style="stroke:#181818;stroke-width:0.5;" x1="729.5" x2="774.5" y1="867.6094" y2="867.6094"/><text fill="#000000" font-family="sans-serif" font-size="14" lengthAdjust="spacing" textLength="35" x="734.5" y="886.1426">name</text></g><!--class Team--><g id="elem_Team"><rect codeLine="84" fill="#F1F1F1" height="53.2188" id="Team" rx="2.5" ry="2.5" style="stroke:#181818;stroke-width:0.5;" width="160" x="427" y="647"/><text fill="#000000" font-family="sans-serif" font-size="14" lengthAdjust="spacing" textLength="36" x="489" y="666.5332">Team</text><line style="stroke:#181818;stroke-width:0.5;" x1="428" x2="586" y1="674.6094" y2="674.6094"/><text fill="#000000" font-family="sans-serif" font-size="14" lengthAdjust="spacing" textLength="148" x="433" y="693.1426">numberOfCollaborators</text></g><!--class Task--><g id="elem_Task"><rect codeLine="88" fill="#F1F1F1" height="70.8281" id="Task" rx="2.5" ry="2.5" style="stroke:#181818;stroke-width:0.5;" width="81" x="464.5" y="831"/><text fill="#000000" font-family="sans-serif" font-size="14" lengthAdjust="spacing" textLength="31" x="489.5" y="850.5332">Task</text><line style="stroke:#181818;stroke-width:0.5;" x1="465.5" x2="544.5" y1="858.6094" y2="858.6094"/><text fill="#000000" font-family="sans-serif" font-size="14" lengthAdjust="spacing" textLength="35" x="470.5" y="877.1426">name</text><text fill="#000000" font-family="sans-serif" font-size="14" lengthAdjust="spacing" textLength="69" x="470.5" y="894.752">description</text></g><!--link Organization to Collaborator--><g id="link_Organization_Collaborator"><path codeLine="93" d="M359.26,297.07 C372.51,314.26 388.45,331.84 406,345 C464.6,388.95 545.3,416.69 598.05,431.4 " fill="none" id="Organization-Collaborator" style="stroke:#181818;stroke-width:1.0;"/><polygon fill="#000000" points="415.3578,338.6272,408.9154,331.6311,406.0335,336.754,415.3578,338.6272" style="stroke:#000000;stroke-width:1.0;"/><text fill="#000000" font-family="sans-serif" font-size="13" lengthAdjust="spacing" textLength="21" x="420" y="341.4951">has</text><text fill="#000000" font-family="sans-serif" font-size="13" lengthAdjust="spacing" textLength="7" x="356.1713" y="318.267">1</text><text fill="#000000" font-family="sans-serif" font-size="13" lengthAdjust="spacing" textLength="5" x="585.4645" y="425.9312">*</text></g><!--link Organization to FleetManager--><g id="link_Organization_FleetManager"><path codeLine="94" d="M320,297.15 C320,330.55 320,371.12 320,401.23 " fill="none" id="Organization-FleetManager" style="stroke:#181818;stroke-width:1.0;"/><polygon fill="#000000" points="325,341.1758,327.9389,332.1307,322.0611,332.1307,325,341.1758" style="stroke:#000000;stroke-width:1.0;"/><text fill="#000000" font-family="sans-serif" font-size="13" lengthAdjust="spacing" textLength="21" x="334" y="341.4951">has</text><text fill="#000000" font-family="sans-serif" font-size="13" lengthAdjust="spacing" textLength="7" x="312.6172" y="318.3558">1</text><text fill="#000000" font-family="sans-serif" font-size="13" lengthAdjust="spacing" textLength="7" x="312.4641" y="390.7147">1</text></g><!--link Organization to HumanResourcesManager--><g id="link_Organization_HumanResourcesManager"><path codeLine="95" d="M370.62,200.99 C433.56,163.08 544.15,110.81 638,141 C669.18,151.03 699.22,171.52 722.65,190.83 " fill="none" id="Organization-HumanResourcesManager" style="stroke:#181818;stroke-width:1.0;"/><polygon fill="#000000" points="611.9979,134.0315,602.8718,131.3548,603.0414,137.2302,611.9979,134.0315" style="stroke:#000000;stroke-width:1.0;"/><text fill="#000000" font-family="sans-serif" font-size="13" lengthAdjust="spacing" textLength="21" x="616" y="139.4951">has</text><text fill="#000000" font-family="sans-serif" font-size="13" lengthAdjust="spacing" textLength="7" x="378.5689" y="192.366">1</text><text fill="#000000" font-family="sans-serif" font-size="13" lengthAdjust="spacing" textLength="7" x="707.7052" y="180.0037">1</text></g><!--link Organization to GreenSpaceManager--><g id="link_Organization_GreenSpaceManager"><path codeLine="96" d="M370.7,235 C392.14,235 417.49,235 440.77,235 " fill="none" id="Organization-GreenSpaceManager" style="stroke:#181818;stroke-width:1.0;"/><polygon fill="#000000" points="397.75,223.1758,388.7049,220.2369,388.7049,226.1147,397.75,223.1758" style="stroke:#000000;stroke-width:1.0;"/><text fill="#000000" font-family="sans-serif" font-size="13" lengthAdjust="spacing" textLength="21" x="401.75" y="228.4951">has</text><text fill="#000000" font-family="sans-serif" font-size="13" lengthAdjust="spacing" textLength="7" x="378.6606" y="231.3712">1</text><text fill="#000000" font-family="sans-serif" font-size="13" lengthAdjust="spacing" textLength="7" x="426.0635" y="231.6657">1</text></g><!--link GreenSpace to Organization--><g id="link_GreenSpace_Organization"><path codeLine="97" d="M403.17,95.13 C389.26,118.36 371.86,147.41 356.58,172.93 " fill="none" id="GreenSpace-Organization" style="stroke:#181818;stroke-width:1.0;"/><polygon fill="#000000" points="392.5688,129.8861,385.4004,136.1363,390.4432,139.1561,392.5688,129.8861" style="stroke:#000000;stroke-width:1.0;"/><text fill="#000000" font-family="sans-serif" font-size="13" lengthAdjust="spacing" textLength="30" x="399" y="139.4951">owns</text><text fill="#000000" font-family="sans-serif" font-size="13" lengthAdjust="spacing" textLength="5" x="393.6549" y="116.9265">*</text><text fill="#000000" font-family="sans-serif" font-size="13" lengthAdjust="spacing" textLength="7" x="353.6116" y="161.9277">1</text></g><!--link GreenSpaceManager to GreenSpace--><g id="link_GreenSpaceManager_GreenSpace"><path codeLine="98" d="M492.33,190.86 C479.14,161.95 461.85,124.04 448.67,95.13 " fill="none" id="GreenSpaceManager-GreenSpace" style="stroke:#181818;stroke-width:1.0;"/><polygon fill="#000000" points="473.9252,129.6266,475.0046,139.0757,480.3525,136.6366,473.9252,129.6266" style="stroke:#000000;stroke-width:1.0;"/><text fill="#000000" font-family="sans-serif" font-size="13" lengthAdjust="spacing" textLength="53" x="485" y="139.4951">manages</text><text fill="#000000" font-family="sans-serif" font-size="13" lengthAdjust="spacing" textLength="7" x="481.6373" y="180.0385">1</text><text fill="#000000" font-family="sans-serif" font-size="13" lengthAdjust="spacing" textLength="7" x="444.2471" y="116.9265">1</text></g><!--link GreenSpaceManager to FleetManager--><g id="link_GreenSpaceManager_FleetManager"><path codeLine="99" d="M492.5,279.2 C481.75,300.34 467.1,325.4 450,345 C426.08,372.41 393.58,397.29 367.06,415.31 " fill="none" id="GreenSpaceManager-FleetManager" style="stroke:#181818;stroke-width:1.0;"/><polygon fill="#000000" points="464.6115,339.8525,472.9025,335.193,468.5802,331.2096,464.6115,339.8525" style="stroke:#000000;stroke-width:1.0;"/><text fill="#000000" font-family="sans-serif" font-size="13" lengthAdjust="spacing" textLength="49" x="477" y="341.4951">employs</text><text fill="#000000" font-family="sans-serif" font-size="13" lengthAdjust="spacing" textLength="7" x="481.8344" y="301.0076">1</text><text fill="#000000" font-family="sans-serif" font-size="13" lengthAdjust="spacing" textLength="7" x="375.118" y="406.7117">1</text></g><!--link GreenSpaceManager to HumanResourcesManager--><g id="link_GreenSpaceManager_HumanResourcesManager"><path codeLine="100" d="M583.25,235 C613.7,235 649.55,235 681.58,235 " fill="none" id="GreenSpaceManager-HumanResourcesManager" style="stroke:#181818;stroke-width:1.0;"/><polygon fill="#000000" points="610.5,223.1758,601.4549,220.2369,601.4549,226.1147,610.5,223.1758" style="stroke:#000000;stroke-width:1.0;"/><text fill="#000000" font-family="sans-serif" font-size="13" lengthAdjust="spacing" textLength="49" x="614.5" y="228.4951">employs</text><text fill="#000000" font-family="sans-serif" font-size="13" lengthAdjust="spacing" textLength="7" x="590.9586" y="231.6657">1</text><text fill="#000000" font-family="sans-serif" font-size="13" lengthAdjust="spacing" textLength="7" x="667.0507" y="231.8291">1</text></g><!--link GreenSpaceUser to GreenSpace--><g id="link_GreenSpaceUser_GreenSpace"><path codeLine="101" d="M308.79,51 C333.87,51 362.72,51 385.88,51 " fill="none" id="GreenSpaceUser-GreenSpace" style="stroke:#181818;stroke-width:1.0;"/><polygon fill="#000000" points="335.75,39.1758,326.7049,36.2369,326.7049,42.1147,335.75,39.1758" style="stroke:#000000;stroke-width:1.0;"/><text fill="#000000" font-family="sans-serif" font-size="13" lengthAdjust="spacing" textLength="28" x="339.75" y="44.4951">uses</text><text fill="#000000" font-family="sans-serif" font-size="13" lengthAdjust="spacing" textLength="5" x="316.5147" y="47.5036">*</text><text fill="#000000" font-family="sans-serif" font-size="13" lengthAdjust="spacing" textLength="7" x="370.8672" y="47.1127">1</text></g><!--link Organization to Vehicle--><g id="link_Organization_Vehicle"><path codeLine="102" d="M269.37,293.59 C249.47,317.78 227.31,346.81 210,375 C166.65,445.63 128.25,532.27 103.22,593.79 " fill="none" id="Organization-Vehicle" style="stroke:#181818;stroke-width:1.0;"/><polygon fill="#000000" points="212.5788,450.0504,219.5302,443.5598,214.3874,440.7134,212.5788,450.0504" style="stroke:#000000;stroke-width:1.0;"/><text fill="#000000" font-family="sans-serif" font-size="13" lengthAdjust="spacing" textLength="30" x="224" y="450.9951">owns</text><text fill="#000000" font-family="sans-serif" font-size="13" lengthAdjust="spacing" textLength="7" x="254.4197" y="298.5666">1</text><text fill="#000000" font-family="sans-serif" font-size="13" lengthAdjust="spacing" textLength="5" x="100.7754" y="583.2213">*</text></g><!--link Vehicle to Checkup--><g id="link_Vehicle_Checkup"><path codeLine="103" d="M139.19,673.5 C172.92,673.5 213.97,673.5 248.42,673.5 " fill="none" id="Vehicle-Checkup" style="stroke:#181818;stroke-width:1.0;"/><polygon fill="#000000" points="166.25,661.6758,157.2049,658.7369,157.2049,664.6147,166.25,661.6758" style="stroke:#000000;stroke-width:1.0;"/><text fill="#000000" font-family="sans-serif" font-size="13" lengthAdjust="spacing" textLength="60" x="170.25" y="666.9951">undergoes</text><text fill="#000000" font-family="sans-serif" font-size="13" lengthAdjust="spacing" textLength="7" x="146.8123" y="670.1462">1</text><text fill="#000000" font-family="sans-serif" font-size="13" lengthAdjust="spacing" textLength="5" x="235.3175" y="670.1487">*</text></g><!--link HumanResourcesManager to Collaborator--><g id="link_HumanResourcesManager_Collaborator"><path codeLine="104" d="M744.76,279.2 C729.3,306.75 708.9,343.09 691.18,374.68 " fill="none" id="HumanResourcesManager-Collaborator" style="stroke:#181818;stroke-width:1.0;"/><polygon fill="#000000" points="719.5531,340.5361,726.5425,334.0864,721.4166,331.2099,719.5531,340.5361" style="stroke:#000000;stroke-width:1.0;"/><text fill="#000000" font-family="sans-serif" font-size="13" lengthAdjust="spacing" textLength="53" x="731" y="341.4951">manages</text><text fill="#000000" font-family="sans-serif" font-size="13" lengthAdjust="spacing" textLength="7" x="733.3389" y="301.0076">1</text><text fill="#000000" font-family="sans-serif" font-size="13" lengthAdjust="spacing" textLength="5" x="689.9626" y="364.0512">*</text></g><!--link Collaborator to Vehicle--><g id="link_Collaborator_Vehicle"><path codeLine="105" d="M598.35,473.53 C544.19,499.86 457.55,539.43 379,564 C314.95,584.04 294.48,572.22 231,594 C199.86,604.69 167.01,620.24 139.38,634.69 " fill="none" id="Collaborator-Vehicle" style="stroke:#181818;stroke-width:1.0;"/><polygon fill="#000000" points="425.2824,556.8323,434.7903,556.6086,432.843,551.0627,425.2824,556.8323" style="stroke:#000000;stroke-width:1.0;"/><text fill="#000000" font-family="sans-serif" font-size="13" lengthAdjust="spacing" textLength="28" x="439" y="560.4951">uses</text><text fill="#000000" font-family="sans-serif" font-size="13" lengthAdjust="spacing" textLength="7" x="583.6705" y="473.7224">1</text><text fill="#000000" font-family="sans-serif" font-size="13" lengthAdjust="spacing" textLength="20" x="146.8987" y="627.6007">0..*</text></g><!--link HumanResourcesManager to Skill--><g id="link_HumanResourcesManager_Skill"><path codeLine="106" d="M825.3,279.05 C852.85,303.74 883.2,337.3 898,375 C920.9,433.33 899.32,453.35 898,516 C895.78,621.4 934.89,658.58 888,753 C863.81,801.71 807.78,836.96 775.7,853.99 " fill="none" id="HumanResourcesManager-Skill" style="stroke:#181818;stroke-width:1.0;"/><polygon fill="#000000" points="903.5702,560.1573,907.2757,551.3983,901.4196,550.8931,903.5702,560.1573" style="stroke:#000000;stroke-width:1.0;"/><text fill="#000000" font-family="sans-serif" font-size="13" lengthAdjust="spacing" textLength="50" x="913" y="560.4951">registers</text><text fill="#000000" font-family="sans-serif" font-size="13" lengthAdjust="spacing" textLength="7" x="826.715" y="300.8337">1</text><text fill="#000000" font-family="sans-serif" font-size="13" lengthAdjust="spacing" textLength="5" x="783.3963" y="845.4798">*</text></g><!--link HumanResourcesManager to Job--><g id="link_HumanResourcesManager_Job"><path codeLine="107" d="M781.39,279.29 C785.43,294.32 789.72,311.33 793,327 C817.83,445.55 836.75,589.15 843.9,646.76 " fill="none" id="HumanResourcesManager-Job" style="stroke:#181818;stroke-width:1.0;"/><polygon fill="#000000" points="830.8385,450.605,832.2189,441.1951,826.4243,442.1808,830.8385,450.605" style="stroke:#000000;stroke-width:1.0;"/><text fill="#000000" font-family="sans-serif" font-size="13" lengthAdjust="spacing" textLength="50" x="839" y="450.9951">registers</text><text fill="#000000" font-family="sans-serif" font-size="13" lengthAdjust="spacing" textLength="7" x="775.7513" y="300.7854">1</text><text fill="#000000" font-family="sans-serif" font-size="13" lengthAdjust="spacing" textLength="5" x="837.605" y="636.2368">*</text></g><!--link Collaborator to Skill--><g id="link_Collaborator_Skill"><path codeLine="108" d="M685.31,516.08 C689.3,525.99 693.01,536.15 696,546 C728.33,652.42 744.11,784.8 749.63,839.74 " fill="none" id="Collaborator-Skill" style="stroke:#181818;stroke-width:1.0;"/><polygon fill="#000000" points="743.9746,678.5799,745.0941,669.1354,739.329,670.2811,743.9746,678.5799" style="stroke:#000000;stroke-width:1.0;"/><text fill="#000000" font-family="sans-serif" font-size="13" lengthAdjust="spacing" textLength="21" x="752" y="678.9951">has</text><text fill="#000000" font-family="sans-serif" font-size="13" lengthAdjust="spacing" textLength="7" x="681.3842" y="537.6831">1</text><text fill="#000000" font-family="sans-serif" font-size="13" lengthAdjust="spacing" textLength="5" x="743.5038" y="829.2122">*</text></g><!--link Collaborator to Job--><g id="link_Collaborator_Job"><path codeLine="109" d="M705.61,496.4 C733.9,523.95 768.39,559.49 796,594 C809.4,610.75 822.54,631.1 832.13,646.88 " fill="none" id="Collaborator-Job" style="stroke:#181818;stroke-width:1.0;"/><polygon fill="#000000" points="778.2177,559.0028,774.6463,550.1883,770.1473,553.9709,778.2177,559.0028" style="stroke:#000000;stroke-width:1.0;"/><text fill="#000000" font-family="sans-serif" font-size="13" lengthAdjust="spacing" textLength="21" x="784" y="560.4951">has</text><text fill="#000000" font-family="sans-serif" font-size="13" lengthAdjust="spacing" textLength="7" x="713.6411" y="499.934">1</text><text fill="#000000" font-family="sans-serif" font-size="13" lengthAdjust="spacing" textLength="7" x="820.6523" y="635.9527">1</text></g><!--link Collaborator to ID--><g id="link_Collaborator_ID"><path codeLine="110" d="M652,516.15 C652,556.49 652,605.51 652,637.78 " fill="none" id="Collaborator-ID" style="stroke:#181818;stroke-width:1.0;"/><polygon fill="#000000" points="657,560.1758,659.9389,551.1307,654.0611,551.1307,657,560.1758" style="stroke:#000000;stroke-width:1.0;"/><text fill="#000000" font-family="sans-serif" font-size="13" lengthAdjust="spacing" textLength="21" x="666" y="560.4951">has</text><text fill="#000000" font-family="sans-serif" font-size="13" lengthAdjust="spacing" textLength="7" x="644.6391" y="537.7603">1</text><text fill="#000000" font-family="sans-serif" font-size="13" lengthAdjust="spacing" textLength="7" x="644.3547" y="627.2625">1</text></g><!--link FleetManager to Vehicle--><g id="link_FleetManager_Vehicle"><path codeLine="111" d="M272.96,489.54 C235.17,524.12 181.63,573.11 139.46,611.69 " fill="none" id="FleetManager-Vehicle" style="stroke:#181818;stroke-width:1.0;"/><polygon fill="#000000" points="205.3111,558.551,213.9683,554.6134,210.0004,550.2769,205.3111,558.551" style="stroke:#000000;stroke-width:1.0;"/><text fill="#000000" font-family="sans-serif" font-size="13" lengthAdjust="spacing" textLength="56" x="218" y="560.4951">maintains</text><text fill="#000000" font-family="sans-serif" font-size="13" lengthAdjust="spacing" textLength="7" x="257.9052" y="492.7721">1</text><text fill="#000000" font-family="sans-serif" font-size="13" lengthAdjust="spacing" textLength="5" x="147.0025" y="601.5757">*</text></g><!--link FleetManager to Checkup--><g id="link_FleetManager_Checkup"><path codeLine="112" d="M320,489.54 C320,532.57 320,597.92 320,637.76 " fill="none" id="FleetManager-Checkup" style="stroke:#181818;stroke-width:1.0;"/><polygon fill="#000000" points="325,560.1758,327.9389,551.1307,322.0611,551.1307,325,560.1758" style="stroke:#000000;stroke-width:1.0;"/><text fill="#000000" font-family="sans-serif" font-size="13" lengthAdjust="spacing" textLength="36" x="334" y="560.4951">orders</text><text fill="#000000" font-family="sans-serif" font-size="13" lengthAdjust="spacing" textLength="7" x="312.4422" y="511.3221">1</text><text fill="#000000" font-family="sans-serif" font-size="13" lengthAdjust="spacing" textLength="5" x="314.5391" y="627.2388">*</text></g><!--link Team to Task--><g id="link_Team_Task"><path codeLine="113" d="M505.04,700.17 C503.31,725.73 501.19,766.06 502,801 C502.22,810.64 502.64,821.08 503.08,830.7 " fill="none" id="Team-Task" style="stroke:#181818;stroke-width:1.0;"/><polygon fill="#000000" points="506.9249,797.1752,509.9993,788.1753,504.1221,788.087,506.9249,797.1752" style="stroke:#000000;stroke-width:1.0;"/><text fill="#000000" font-family="sans-serif" font-size="13" lengthAdjust="spacing" textLength="61" x="516" y="797.4951">carries out</text><text fill="#000000" font-family="sans-serif" font-size="13" lengthAdjust="spacing" textLength="7" x="496.7774" y="721.6979">1</text><text fill="#000000" font-family="sans-serif" font-size="13" lengthAdjust="spacing" textLength="7" x="495.0807" y="820.1677">1</text></g><!--link Team to Skill--><g id="link_Team_Skill"><path codeLine="114" d="M524.55,700.04 C544.59,727.72 579.61,771.84 618,801 C652.75,827.39 700.01,847.05 728.13,857.36 " fill="none" id="Team-Skill" style="stroke:#181818;stroke-width:1.0;"/><polygon fill="#000000" points="626.9563,795.2331,621.5963,787.3769,618.0022,792.0278,626.9563,795.2331" style="stroke:#000000;stroke-width:1.0;"/><text fill="#000000" font-family="sans-serif" font-size="13" lengthAdjust="spacing" textLength="93" x="632" y="797.4951">requires a set of</text><text fill="#000000" font-family="sans-serif" font-size="13" lengthAdjust="spacing" textLength="7" x="520.7991" y="721.5378">1</text><text fill="#000000" font-family="sans-serif" font-size="13" lengthAdjust="spacing" textLength="5" x="715.3838" y="849.8397">*</text></g><!--link Collaborator to Team--><g id="link_Collaborator_Team"><path codeLine="115" d="M607.31,516.15 C578.85,560.51 543.66,615.37 523.42,646.91 " fill="none" id="Collaborator-Team" style="stroke:#181818;stroke-width:1.0;"/><polygon fill="#000000" points="585.3001,559.3842,592.6579,553.3581,587.7107,550.1842,585.3001,559.3842" style="stroke:#000000;stroke-width:1.0;"/><text fill="#000000" font-family="sans-serif" font-size="13" lengthAdjust="spacing" textLength="25" x="597" y="560.4951">form</text><text fill="#000000" font-family="sans-serif" font-size="13" lengthAdjust="spacing" textLength="5" x="597.4435" y="537.7603">*</text><text fill="#000000" font-family="sans-serif" font-size="13" lengthAdjust="spacing" textLength="7" x="519.5693" y="635.99">1</text></g><!--SRC=[dLLDZzCm4BtdLrWzhiHgzze34W81YmGhKU0-SQQ95NzanyvMtHN_7STEQgTDMw1IAzlptfiFZwUs5Re30iMKqOOtP1GoHpqMzc3fWBTGuyRj9J92xa3NCWVO1Ygp4xfcMv0MYyp49LZxpZaIPU_mWHkz4I_8xegY4HKoBeXxgR1Mw1fJsQ887FQ94FN6-yRNWlcFD1naM45L4LeRruHG_9uuZrI35Y_WXD4iqZGe38jdSDzwLIA5tGvBAroqT8tHcDbGWP19z1SsmWSvwdKI73ATq2M1hiBAxRieg4o5CLJU4w5sh5Lnso1l-uvj2Pzwr7mVJbl5m37loqs0vFpzo7YToJsF8OsoqtOMsq7YeqHqNq7xAwJZeiHK3qL8fC-z0lqThUc9e_rNThgx_sV-jETegJX6IYWDWJCdq5AGQoeOhnWg9QmTkY8xIbrqDfo73wFkuMwFg_l5bBdhm_cc5L8kMdwWVnUlcTZZDa_4PaYmxN5U5LfEeXiwV03EEdvrls9lsEfcDQ_CcZLWsTj5hF-TzSSLx79RN26TTiDvGj_511B7WyrE3-XJdIKV7g-2-GB5Jokzc3ogJfhzDMVdgh343cqyPBGGPs_nNDayOPmxX_IdEPJTSXmENaXNIBK9Qil1vMcVzaSgsCmGI9vmTtkRuabnN_0KlSGtiFR_6RMm3kclICE3cbCMOyhaOoyjekudlSiO_ymdoAmXCcSfUpyhjFFVI-XfRFlBeofc4PvzvZCyxZNZG2HyEKtlZa6p2Zxrmeyh1ioYOsPxainD4XuqrcnhI7dK7m00]--></g></svg>