<?xml version="1.0" encoding="UTF-8" standalone="no"?><svg xmlns="http://www.w3.org/2000/svg" xmlns:xlink="http://www.w3.org/1999/xlink" contentStyleType="text/css" height="1240px" preserveAspectRatio="none" style="width:1085px;height:1240px;background:#FFFFFF;" version="1.1" viewBox="0 0 1085 1240" width="1085px" zoomAndPan="magnify"><defs/><g><!--class GreenSpace--><g id="elem_GreenSpace"><rect codeLine="10" fill="#F1F1F1" height="88.4375" id="GreenSpace" rx="2.5" ry="2.5" style="stroke:#181818;stroke-width:0.5;" width="86" x="500.6308" y="173"/><text fill="#000000" font-family="sans-serif" font-size="14" lengthAdjust="spacing" textLength="80" x="503.6308" y="192.5332">GreenSpace</text><line style="stroke:#181818;stroke-width:0.5;" x1="501.6308" x2="585.6308" y1="200.6094" y2="200.6094"/><text fill="#000000" font-family="sans-serif" font-size="14" lengthAdjust="spacing" textLength="29" x="506.6308" y="219.1426">local</text><text fill="#000000" font-family="sans-serif" font-size="14" lengthAdjust="spacing" textLength="51" x="506.6308" y="236.752">address</text><text fill="#000000" font-family="sans-serif" font-size="14" lengthAdjust="spacing" textLength="29" x="506.6308" y="254.3613">area</text></g><!--class Organization--><g id="elem_Organization"><rect codeLine="16" fill="#F1F1F1" height="123.6563" id="Organization" rx="2.5" ry="2.5" style="stroke:#181818;stroke-width:0.5;" width="101" x="97.1308" y="339"/><text fill="#000000" font-family="sans-serif" font-size="14" lengthAdjust="spacing" textLength="80" x="107.6308" y="358.5332">Organization</text><line style="stroke:#181818;stroke-width:0.5;" x1="98.1308" x2="197.1308" y1="366.6094" y2="366.6094"/><text fill="#000000" font-family="sans-serif" font-size="14" lengthAdjust="spacing" textLength="35" x="103.1308" y="385.1426">name</text><text fill="#000000" font-family="sans-serif" font-size="14" lengthAdjust="spacing" textLength="68" x="103.1308" y="402.752">vatNumber</text><text fill="#000000" font-family="sans-serif" font-size="14" lengthAdjust="spacing" textLength="47" x="103.1308" y="420.3613">website</text><text fill="#000000" font-family="sans-serif" font-size="14" lengthAdjust="spacing" textLength="89" x="103.1308" y="437.9707">phoneNumber</text><text fill="#000000" font-family="sans-serif" font-size="14" lengthAdjust="spacing" textLength="33" x="103.1308" y="455.5801">email</text></g><!--class Vehicle--><g id="elem_Vehicle"><rect codeLine="24" fill="#F1F1F1" height="158.875" id="Vehicle" rx="2.5" ry="2.5" style="stroke:#181818;stroke-width:0.5;" width="132" x="162.6308" y="760"/><text fill="#000000" font-family="sans-serif" font-size="14" lengthAdjust="spacing" textLength="46" x="205.6308" y="779.5332">Vehicle</text><line style="stroke:#181818;stroke-width:0.5;" x1="163.6308" x2="293.6308" y1="787.6094" y2="787.6094"/><text fill="#000000" font-family="sans-serif" font-size="14" lengthAdjust="spacing" textLength="83" x="168.6308" y="806.1426">plate number</text><text fill="#000000" font-family="sans-serif" font-size="14" lengthAdjust="spacing" textLength="37" x="168.6308" y="823.752">brand</text><text fill="#000000" font-family="sans-serif" font-size="14" lengthAdjust="spacing" textLength="27" x="168.6308" y="841.3613">type</text><text fill="#000000" font-family="sans-serif" font-size="14" lengthAdjust="spacing" textLength="38" x="168.6308" y="858.9707">model</text><text fill="#000000" font-family="sans-serif" font-size="14" lengthAdjust="spacing" textLength="67" x="168.6308" y="876.5801">current km</text><text fill="#000000" font-family="sans-serif" font-size="14" lengthAdjust="spacing" textLength="120" x="168.6308" y="894.1895">checkup frequency</text><text fill="#000000" font-family="sans-serif" font-size="14" lengthAdjust="spacing" textLength="117" x="168.6308" y="911.7988">km at last checkup</text></g><!--class Checkup--><g id="elem_Checkup"><rect codeLine="34" fill="#F1F1F1" height="70.8281" id="Checkup" rx="2.5" ry="2.5" style="stroke:#181818;stroke-width:0.5;" width="143" x="132.1308" y="1163"/><text fill="#000000" font-family="sans-serif" font-size="14" lengthAdjust="spacing" textLength="56" x="175.6308" y="1182.5332">Checkup</text><line style="stroke:#181818;stroke-width:0.5;" x1="133.1308" x2="274.1308" y1="1190.6094" y2="1190.6094"/><text fill="#000000" font-family="sans-serif" font-size="14" lengthAdjust="spacing" textLength="115" x="138.1308" y="1209.1426">current vehicle km</text><text fill="#000000" font-family="sans-serif" font-size="14" lengthAdjust="spacing" textLength="131" x="138.1308" y="1226.752">vehicle plate number</text></g><!--class FleetManager--><g id="elem_FleetManager"><rect codeLine="39" fill="#F1F1F1" height="88.4375" id="FleetManager" rx="2.5" ry="2.5" style="stroke:#181818;stroke-width:0.5;" width="94" x="80.6308" y="997"/><text fill="#000000" font-family="sans-serif" font-size="14" lengthAdjust="spacing" textLength="88" x="83.6308" y="1016.5332">FleetManager</text><line style="stroke:#181818;stroke-width:0.5;" x1="81.6308" x2="173.6308" y1="1024.6094" y2="1024.6094"/><text fill="#000000" font-family="sans-serif" font-size="14" lengthAdjust="spacing" textLength="35" x="86.6308" y="1043.1426">name</text><text fill="#000000" font-family="sans-serif" font-size="14" lengthAdjust="spacing" textLength="33" x="86.6308" y="1060.752">email</text><text fill="#000000" font-family="sans-serif" font-size="14" lengthAdjust="spacing" textLength="40" x="86.6308" y="1078.3613">phone</text></g><!--class HumanResourcesManager--><g id="elem_HumanResourcesManager"><rect codeLine="45" fill="#F1F1F1" height="88.4375" id="HumanResourcesManager" rx="2.5" ry="2.5" style="stroke:#181818;stroke-width:0.5;" width="174" x="268.6308" y="357"/><text fill="#000000" font-family="sans-serif" font-size="14" lengthAdjust="spacing" textLength="168" x="271.6308" y="376.5332">HumanResourcesManager</text><line style="stroke:#181818;stroke-width:0.5;" x1="269.6308" x2="441.6308" y1="384.6094" y2="384.6094"/><text fill="#000000" font-family="sans-serif" font-size="14" lengthAdjust="spacing" textLength="35" x="274.6308" y="403.1426">name</text><text fill="#000000" font-family="sans-serif" font-size="14" lengthAdjust="spacing" textLength="33" x="274.6308" y="420.752">email</text><text fill="#000000" font-family="sans-serif" font-size="14" lengthAdjust="spacing" textLength="40" x="274.6308" y="438.3613">phone</text></g><!--class GreenSpaceManager--><g id="elem_GreenSpaceManager"><rect codeLine="51" fill="#F1F1F1" height="88.4375" id="GreenSpaceManager" rx="2.5" ry="2.5" style="stroke:#181818;stroke-width:0.5;" width="142" x="140.6308" y="173"/><text fill="#000000" font-family="sans-serif" font-size="14" lengthAdjust="spacing" textLength="136" x="143.6308" y="192.5332">GreenSpaceManager</text><line style="stroke:#181818;stroke-width:0.5;" x1="141.6308" x2="281.6308" y1="200.6094" y2="200.6094"/><text fill="#000000" font-family="sans-serif" font-size="14" lengthAdjust="spacing" textLength="35" x="146.6308" y="219.1426">name</text><text fill="#000000" font-family="sans-serif" font-size="14" lengthAdjust="spacing" textLength="33" x="146.6308" y="236.752">email</text><text fill="#000000" font-family="sans-serif" font-size="14" lengthAdjust="spacing" textLength="40" x="146.6308" y="254.3613">phone</text></g><!--class GreenSpaceUser--><g id="elem_GreenSpaceUser"><rect codeLine="57" fill="#F1F1F1" height="70.8281" id="GreenSpaceUser" rx="2.5" ry="2.5" style="stroke:#181818;stroke-width:0.5;" width="115" x="669.1308" y="181.5"/><text fill="#000000" font-family="sans-serif" font-size="14" lengthAdjust="spacing" textLength="109" x="672.1308" y="201.0332">GreenSpaceUser</text><line style="stroke:#181818;stroke-width:0.5;" x1="670.1308" x2="783.1308" y1="209.1094" y2="209.1094"/><text fill="#000000" font-family="sans-serif" font-size="14" lengthAdjust="spacing" textLength="35" x="675.1308" y="227.6426">name</text><text fill="#000000" font-family="sans-serif" font-size="14" lengthAdjust="spacing" textLength="33" x="675.1308" y="245.252">email</text></g><!--class Collaborator--><g id="elem_Collaborator"><rect codeLine="62" fill="#F1F1F1" height="141.2656" id="Collaborator" rx="2.5" ry="2.5" style="stroke:#181818;stroke-width:0.5;" width="107" x="302.1308" y="541"/><text fill="#000000" font-family="sans-serif" font-size="14" lengthAdjust="spacing" textLength="78" x="316.6308" y="560.5332">Collaborator</text><line style="stroke:#181818;stroke-width:0.5;" x1="303.1308" x2="408.1308" y1="568.6094" y2="568.6094"/><text fill="#000000" font-family="sans-serif" font-size="14" lengthAdjust="spacing" textLength="35" x="308.1308" y="587.1426">name</text><text fill="#000000" font-family="sans-serif" font-size="14" lengthAdjust="spacing" textLength="56" x="308.1308" y="604.752">birthdate</text><text fill="#000000" font-family="sans-serif" font-size="14" lengthAdjust="spacing" textLength="95" x="308.1308" y="622.3613">admission date</text><text fill="#000000" font-family="sans-serif" font-size="14" lengthAdjust="spacing" textLength="51" x="308.1308" y="639.9707">address</text><text fill="#000000" font-family="sans-serif" font-size="14" lengthAdjust="spacing" textLength="33" x="308.1308" y="657.5801">email</text><text fill="#000000" font-family="sans-serif" font-size="14" lengthAdjust="spacing" textLength="40" x="308.1308" y="675.1895">phone</text></g><!--class ID--><g id="elem_ID"><rect codeLine="71" fill="#F1F1F1" height="70.8281" id="ID" rx="2.5" ry="2.5" style="stroke:#181818;stroke-width:0.5;" width="60" x="329.6308" y="804"/><text fill="#000000" font-family="sans-serif" font-size="14" lengthAdjust="spacing" textLength="13" x="353.1308" y="823.5332">ID</text><line style="stroke:#181818;stroke-width:0.5;" x1="330.6308" x2="388.6308" y1="831.6094" y2="831.6094"/><text fill="#000000" font-family="sans-serif" font-size="14" lengthAdjust="spacing" textLength="27" x="335.6308" y="850.1426">type</text><text fill="#000000" font-family="sans-serif" font-size="14" lengthAdjust="spacing" textLength="48" x="335.6308" y="867.752">number</text></g><!--class Job--><g id="elem_Job"><rect codeLine="76" fill="#F1F1F1" height="53.2188" id="Job" rx="2.5" ry="2.5" style="stroke:#181818;stroke-width:0.5;" width="47" x="480.1308" y="585"/><text fill="#000000" font-family="sans-serif" font-size="14" lengthAdjust="spacing" textLength="22" x="492.6308" y="604.5332">Job</text><line style="stroke:#181818;stroke-width:0.5;" x1="481.1308" x2="526.1308" y1="612.6094" y2="612.6094"/><text fill="#000000" font-family="sans-serif" font-size="14" lengthAdjust="spacing" textLength="35" x="486.1308" y="631.1426">name</text></g><!--class Skill--><g id="elem_Skill"><rect codeLine="80" fill="#F1F1F1" height="53.2188" id="Skill" rx="2.5" ry="2.5" style="stroke:#181818;stroke-width:0.5;" width="47" x="633.1308" y="1014.5"/><text fill="#000000" font-family="sans-serif" font-size="14" lengthAdjust="spacing" textLength="25" x="644.1308" y="1034.0332">Skill</text><line style="stroke:#181818;stroke-width:0.5;" x1="634.1308" x2="679.1308" y1="1042.1094" y2="1042.1094"/><text fill="#000000" font-family="sans-serif" font-size="14" lengthAdjust="spacing" textLength="35" x="639.1308" y="1060.6426">name</text></g><!--class Team--><g id="elem_Team"><rect codeLine="84" fill="#F1F1F1" height="53.2188" id="Team" rx="2.5" ry="2.5" style="stroke:#181818;stroke-width:0.5;" width="160" x="424.6308" y="813"/><text fill="#000000" font-family="sans-serif" font-size="14" lengthAdjust="spacing" textLength="36" x="486.6308" y="832.5332">Team</text><line style="stroke:#181818;stroke-width:0.5;" x1="425.6308" x2="583.6308" y1="840.6094" y2="840.6094"/><text fill="#000000" font-family="sans-serif" font-size="14" lengthAdjust="spacing" textLength="148" x="430.6308" y="859.1426">numberOfCollaborators</text></g><!--class Task--><g id="elem_Task"><rect codeLine="88" fill="#F1F1F1" height="70.8281" id="Task" rx="2.5" ry="2.5" style="stroke:#181818;stroke-width:0.5;" width="81" x="372.1308" y="1005.5"/><text fill="#000000" font-family="sans-serif" font-size="14" lengthAdjust="spacing" textLength="31" x="397.1308" y="1025.0332">Task</text><line style="stroke:#181818;stroke-width:0.5;" x1="373.1308" x2="452.1308" y1="1033.1094" y2="1033.1094"/><text fill="#000000" font-family="sans-serif" font-size="14" lengthAdjust="spacing" textLength="35" x="378.1308" y="1051.6426">name</text><text fill="#000000" font-family="sans-serif" font-size="14" lengthAdjust="spacing" textLength="69" x="378.1308" y="1069.252">description</text></g><!--class Pipe--><g id="elem_Pipe"><rect codeLine="93" fill="#F1F1F1" height="53.2188" id="Pipe" rx="2.5" ry="2.5" style="stroke:#181818;stroke-width:0.5;" width="38" x="891.6308" y="190.5"/><text fill="#000000" font-family="sans-serif" font-size="14" lengthAdjust="spacing" textLength="28" x="896.6308" y="210.0332">Pipe</text><line style="stroke:#181818;stroke-width:0.5;" x1="892.6308" x2="928.6308" y1="218.1094" y2="218.1094"/><text fill="#000000" font-family="sans-serif" font-size="14" lengthAdjust="spacing" textLength="26" x="897.6308" y="236.6426">cost</text></g><!--class IrrigationNetwork--><g id="elem_IrrigationNetwork"><rect codeLine="97" fill="#F1F1F1" height="88.4375" id="IrrigationNetwork" rx="2.5" ry="2.5" style="stroke:#181818;stroke-width:0.5;" width="115" x="934.1308" y="357"/><text fill="#000000" font-family="sans-serif" font-size="14" lengthAdjust="spacing" textLength="105" x="939.1308" y="376.5332">IrrigationNetwork</text><line style="stroke:#181818;stroke-width:0.5;" x1="935.1308" x2="1048.1308" y1="384.6094" y2="384.6094"/><text fill="#000000" font-family="sans-serif" font-size="14" lengthAdjust="spacing" textLength="56" x="940.1308" y="403.1426">totalCost</text><text fill="#000000" font-family="sans-serif" font-size="14" lengthAdjust="spacing" textLength="98" x="940.1308" y="420.752">numberOfPipes</text><text fill="#000000" font-family="sans-serif" font-size="14" lengthAdjust="spacing" textLength="103" x="940.1308" y="438.3613">numberOfNodes</text></g><!--class SoftwareQualityAssessmentTeamManager--><g id="elem_SoftwareQualityAssessmentTeamManager"><rect codeLine="103" fill="#F1F1F1" height="88.4375" id="SoftwareQualityAssessmentTeamManager" rx="2.5" ry="2.5" style="stroke:#181818;stroke-width:0.5;" width="273" x="75.1308" y="7"/><text fill="#000000" font-family="sans-serif" font-size="14" lengthAdjust="spacing" textLength="267" x="78.1308" y="26.5332">SoftwareQualityAssessmentTeamManager</text><line style="stroke:#181818;stroke-width:0.5;" x1="76.1308" x2="347.1308" y1="34.6094" y2="34.6094"/><text fill="#000000" font-family="sans-serif" font-size="14" lengthAdjust="spacing" textLength="35" x="81.1308" y="53.1426">name</text><text fill="#000000" font-family="sans-serif" font-size="14" lengthAdjust="spacing" textLength="33" x="81.1308" y="70.752">email</text><text fill="#000000" font-family="sans-serif" font-size="14" lengthAdjust="spacing" textLength="40" x="81.1308" y="88.3613">phone</text></g><!--class Algorithm--><g id="elem_Algorithm"><rect codeLine="109" fill="#F1F1F1" height="53.2188" id="Algorithm" rx="2.5" ry="2.5" style="stroke:#181818;stroke-width:0.5;" width="103" x="965.1308" y="190.5"/><text fill="#000000" font-family="sans-serif" font-size="14" lengthAdjust="spacing" textLength="59" x="987.1308" y="210.0332">Algorithm</text><line style="stroke:#181818;stroke-width:0.5;" x1="966.1308" x2="1067.1308" y1="218.1094" y2="218.1094"/><text fill="#000000" font-family="sans-serif" font-size="14" lengthAdjust="spacing" textLength="91" x="971.1308" y="236.6426">executionTime</text></g><!--class EquipmentSurvey--><g id="elem_EquipmentSurvey"><rect codeLine="113" fill="#F1F1F1" height="70.8281" id="EquipmentSurvey" rx="2.5" ry="2.5" style="stroke:#181818;stroke-width:0.5;" width="117" x="636.1308" y="365.5"/><text fill="#000000" font-family="sans-serif" font-size="14" lengthAdjust="spacing" textLength="111" x="639.1308" y="385.0332">EquipmentSurvey</text><line style="stroke:#181818;stroke-width:0.5;" x1="637.1308" x2="752.1308" y1="393.1094" y2="393.1094"/><text fill="#000000" font-family="sans-serif" font-size="14" lengthAdjust="spacing" textLength="66" x="642.1308" y="411.6426">equipment</text><text fill="#000000" font-family="sans-serif" font-size="14" lengthAdjust="spacing" textLength="39" x="642.1308" y="429.252">usage</text></g><!--class InfoSurvey--><g id="elem_InfoSurvey"><rect codeLine="118" fill="#F1F1F1" height="88.4375" id="InfoSurvey" rx="2.5" ry="2.5" style="stroke:#181818;stroke-width:0.5;" width="123" x="478.1308" y="357"/><text fill="#000000" font-family="sans-serif" font-size="14" lengthAdjust="spacing" textLength="67" x="506.1308" y="376.5332">InfoSurvey</text><line style="stroke:#181818;stroke-width:0.5;" x1="479.1308" x2="600.1308" y1="384.6094" y2="384.6094"/><text fill="#000000" font-family="sans-serif" font-size="14" lengthAdjust="spacing" textLength="66" x="484.1308" y="403.1426">ageRange</text><text fill="#000000" font-family="sans-serif" font-size="14" lengthAdjust="spacing" textLength="111" x="484.1308" y="420.752">wouldReccomend</text><text fill="#000000" font-family="sans-serif" font-size="14" lengthAdjust="spacing" textLength="92" x="484.1308" y="438.3613">visitFrequency</text></g><!--class UserPortal--><g id="elem_UserPortal"><rect codeLine="124" fill="#F1F1F1" height="70.8281" id="UserPortal" rx="2.5" ry="2.5" style="stroke:#181818;stroke-width:0.5;" width="92" x="788.6308" y="365.5"/><text fill="#000000" font-family="sans-serif" font-size="14" lengthAdjust="spacing" textLength="66" x="801.6308" y="385.0332">UserPortal</text><line style="stroke:#181818;stroke-width:0.5;" x1="789.6308" x2="879.6308" y1="393.1094" y2="393.1094"/><text fill="#000000" font-family="sans-serif" font-size="14" lengthAdjust="spacing" textLength="51" x="794.6308" y="411.6426">address</text><text fill="#000000" font-family="sans-serif" font-size="14" lengthAdjust="spacing" textLength="80" x="794.6308" y="429.252">hostMachine</text></g><!--link Organization to Collaborator--><g id="link_Organization_Collaborator"><path codeLine="129" d="M198.3508,451.96 C211.8008,465.26 226.2908,479.65 239.6308,493 C260.0908,513.48 282.4608,536.09 302.0508,555.96 " fill="none" id="Organization-Collaborator" style="stroke:#181818;stroke-width:1.0;"/><polygon fill="#000000" points="264.1613,505.7164,259.8558,497.2362,255.6935,501.3865,264.1613,505.7164" style="stroke:#000000;stroke-width:1.0;"/><text fill="#000000" font-family="sans-serif" font-size="13" lengthAdjust="spacing" textLength="21" x="269.6308" y="507.4951">has</text><text fill="#000000" font-family="sans-serif" font-size="13" lengthAdjust="spacing" textLength="7" x="205.9755" y="455.5453">1</text><text fill="#000000" font-family="sans-serif" font-size="13" lengthAdjust="spacing" textLength="5" x="289.1646" y="544.5258">*</text></g><!--link Organization to FleetManager--><g id="link_Organization_FleetManager"><path codeLine="130" d="M145.7108,463.17 C141.6908,591.52 132.4508,886.16 128.9808,996.89 " fill="none" id="Organization-FleetManager" style="stroke:#181818;stroke-width:1.0;"/><polygon fill="#000000" points="143.4742,726.1733,146.6951,717.2248,140.8201,717.0406,143.4742,726.1733" style="stroke:#000000;stroke-width:1.0;"/><text fill="#000000" font-family="sans-serif" font-size="13" lengthAdjust="spacing" textLength="21" x="152.6308" y="726.4951">has</text><text fill="#000000" font-family="sans-serif" font-size="13" lengthAdjust="spacing" textLength="7" x="138.1519" y="483.9373">1</text><text fill="#000000" font-family="sans-serif" font-size="13" lengthAdjust="spacing" textLength="7" x="121.6382" y="986.0732">1</text></g><!--link Organization to HumanResourcesManager--><g id="link_Organization_HumanResourcesManager"><path codeLine="131" d="M198.2508,401 C219.4108,401 244.6208,401 268.6008,401 " fill="none" id="Organization-HumanResourcesManager" style="stroke:#181818;stroke-width:1.0;"/><polygon fill="#000000" points="225.3808,389.1758,216.3358,386.2369,216.3358,392.1147,225.3808,389.1758" style="stroke:#000000;stroke-width:1.0;"/><text fill="#000000" font-family="sans-serif" font-size="13" lengthAdjust="spacing" textLength="21" x="229.3808" y="394.4951">has</text><text fill="#000000" font-family="sans-serif" font-size="13" lengthAdjust="spacing" textLength="7" x="206.1997" y="397.3712">1</text><text fill="#000000" font-family="sans-serif" font-size="13" lengthAdjust="spacing" textLength="7" x="253.538" y="397.7788">1</text></g><!--link GreenSpaceManager to Organization--><g id="link_GreenSpaceManager_Organization"><path codeLine="132" d="M140.3608,240.94 C117.1508,252.18 93.9508,268.33 80.6308,291 C67.7508,312.93 79.7908,337.05 97.0408,357.01 " fill="none" id="GreenSpaceManager-Organization" style="stroke:#181818;stroke-width:1.0;"/><polygon fill="#000000" points="87.3792,295.4914,81.463,302.9379,86.9698,304.9932,87.3792,295.4914" style="stroke:#000000;stroke-width:1.0;"/><text fill="#000000" font-family="sans-serif" font-size="13" lengthAdjust="spacing" textLength="21" x="94.6308" y="305.4951">has</text><text fill="#000000" font-family="sans-serif" font-size="13" lengthAdjust="spacing" textLength="7" x="125.6502" y="240.0745">1</text><text fill="#000000" font-family="sans-serif" font-size="13" lengthAdjust="spacing" textLength="7" x="82.0964" y="365.2701">1</text></g><!--link SoftwareQualityAssessmentTeamManager to Organization--><g id="link_SoftwareQualityAssessmentTeamManager_Organization"><path codeLine="133" d="M152.6408,95.04 C128.3808,115.86 102.3408,142.87 86.6308,173 C58.4108,227.12 46.1008,251.89 67.6308,309 C74.0108,325.93 85.1408,341.75 97.0908,355.3 " fill="none" id="SoftwareQualityAssessmentTeamManager-Organization" style="stroke:#181818;stroke-width:1.0;"/><polygon fill="#000000" points="92.6745,212.2859,87.9123,220.5183,93.6607,221.7452,92.6745,212.2859" style="stroke:#000000;stroke-width:1.0;"/><text fill="#000000" font-family="sans-serif" font-size="13" lengthAdjust="spacing" textLength="21" x="100.6308" y="222.4951">has</text><text fill="#000000" font-family="sans-serif" font-size="13" lengthAdjust="spacing" textLength="7" x="135.6815" y="116.8221">1</text><text fill="#000000" font-family="sans-serif" font-size="13" lengthAdjust="spacing" textLength="7" x="82.1537" y="344.959">1</text></g><!--link GreenSpace to Organization--><g id="link_GreenSpace_Organization"><path codeLine="134" d="M535.1308,261.05 C529.4408,278.62 520.0508,297.48 504.6308,309 C413.5708,377.04 358.3108,302.58 250.6308,339 C232.6208,345.09 214.3208,354.62 198.2508,364.35 " fill="none" id="GreenSpace-Organization" style="stroke:#181818;stroke-width:1.0;"/><polygon fill="#000000" points="531.4112,298.71,521.9019,298.5519,523.6251,304.1715,531.4112,298.71" style="stroke:#000000;stroke-width:1.0;"/><text fill="#000000" font-family="sans-serif" font-size="13" lengthAdjust="spacing" textLength="30" x="535.6308" y="305.4951">owns</text><text fill="#000000" font-family="sans-serif" font-size="13" lengthAdjust="spacing" textLength="5" x="528.3777" y="282.8337">*</text><text fill="#000000" font-family="sans-serif" font-size="13" lengthAdjust="spacing" textLength="7" x="206.1997" y="355.3382">1</text></g><!--link GreenSpaceManager to GreenSpace--><g id="link_GreenSpaceManager_GreenSpace"><path codeLine="135" d="M282.8508,217 C348.9708,217 445.2508,217 500.4408,217 " fill="none" id="GreenSpaceManager-GreenSpace" style="stroke:#181818;stroke-width:1.0;"/><polygon fill="#000000" points="367.6308,205.1758,358.5858,202.2369,358.5858,208.1147,367.6308,205.1758" style="stroke:#000000;stroke-width:1.0;"/><text fill="#000000" font-family="sans-serif" font-size="13" lengthAdjust="spacing" textLength="53" x="371.6308" y="210.4951">manages</text><text fill="#000000" font-family="sans-serif" font-size="13" lengthAdjust="spacing" textLength="7" x="290.5563" y="213.6657">1</text><text fill="#000000" font-family="sans-serif" font-size="13" lengthAdjust="spacing" textLength="7" x="485.7078" y="213.163">1</text></g><!--link GreenSpaceManager to FleetManager--><g id="link_GreenSpaceManager_FleetManager"><path codeLine="136" d="M140.6008,255.93 C137.2408,257.66 133.9008,259.35 130.6308,261 C102.9308,274.94 89.7308,269.24 67.6308,291 C29.1108,328.93 13.6308,345.94 13.6308,400 C13.6308,400 13.6308,400 13.6308,840.5 C13.6308,900.54 53.0308,958.93 85.5008,996.87 " fill="none" id="GreenSpaceManager-FleetManager" style="stroke:#181818;stroke-width:1.0;"/><polygon fill="#000000" points="18.26,616.662,21.8617,607.8598,16,607.4239,18.26,616.662" style="stroke:#000000;stroke-width:1.0;"/><text fill="#000000" font-family="sans-serif" font-size="13" lengthAdjust="spacing" textLength="49" x="27.6308" y="616.9951">employs</text><text fill="#000000" font-family="sans-serif" font-size="13" lengthAdjust="spacing" textLength="7" x="125.4491" y="274.5534">1</text><text fill="#000000" font-family="sans-serif" font-size="13" lengthAdjust="spacing" textLength="7" x="71.2286" y="986.0501">1</text></g><!--link GreenSpaceManager to HumanResourcesManager--><g id="link_GreenSpaceManager_HumanResourcesManager"><path codeLine="137" d="M163.8008,261.35 C152.7408,276.53 146.7508,293.62 156.6308,309 C158.4008,311.75 215.8808,337.89 268.6108,361.45 " fill="none" id="GreenSpaceManager-HumanResourcesManager" style="stroke:#181818;stroke-width:1.0;"/><polygon fill="#000000" points="165.2467,303.6291,160.7354,295.2566,156.6757,299.5073,165.2467,303.6291" style="stroke:#000000;stroke-width:1.0;"/><text fill="#000000" font-family="sans-serif" font-size="13" lengthAdjust="spacing" textLength="49" x="170.6308" y="305.4951">employs</text><text fill="#000000" font-family="sans-serif" font-size="13" lengthAdjust="spacing" textLength="7" x="148.9409" y="282.8546">1</text><text fill="#000000" font-family="sans-serif" font-size="13" lengthAdjust="spacing" textLength="7" x="253.5489" y="354.7064">1</text></g><!--link SoftwareQualityAssessmentTeamManager to GreenSpaceManager--><g id="link_SoftwareQualityAssessmentTeamManager_GreenSpaceManager"><path codeLine="138" d="M211.6308,95.09 C211.6308,119.1 211.6308,148.9 211.6308,172.91 " fill="none" id="SoftwareQualityAssessmentTeamManager-GreenSpaceManager" style="stroke:#181818;stroke-width:1.0;"/><polygon fill="#000000" points="216.6308,129.1758,213.6919,138.2209,219.5698,138.2209,216.6308,129.1758" style="stroke:#000000;stroke-width:1.0;"/><text fill="#000000" font-family="sans-serif" font-size="13" lengthAdjust="spacing" textLength="49" x="225.6308" y="139.4951">employs</text><text fill="#000000" font-family="sans-serif" font-size="13" lengthAdjust="spacing" textLength="7" x="204.073" y="116.8801">1</text><text fill="#000000" font-family="sans-serif" font-size="13" lengthAdjust="spacing" textLength="7" x="204.073" y="162.0964">1</text></g><!--link GreenSpace to GreenSpaceUser--><g id="link_GreenSpace_GreenSpaceUser"><path codeLine="139" d="M587.0008,217 C611.5208,217 642.4908,217 669.0308,217 " fill="none" id="GreenSpace-GreenSpaceUser" style="stroke:#181818;stroke-width:1.0;"/><polygon fill="#000000" points="606.3808,205.1758,615.4259,208.1147,615.4259,202.2369,606.3808,205.1758" style="stroke:#000000;stroke-width:1.0;"/><text fill="#000000" font-family="sans-serif" font-size="13" lengthAdjust="spacing" textLength="28" x="620.3808" y="210.4951">uses</text><text fill="#000000" font-family="sans-serif" font-size="13" lengthAdjust="spacing" textLength="7" x="594.7637" y="213.163">1</text><text fill="#000000" font-family="sans-serif" font-size="13" lengthAdjust="spacing" textLength="5" x="655.9549" y="213.4553">*</text></g><!--link Organization to Vehicle--><g id="link_Organization_Vehicle"><path codeLine="140" d="M158.9808,463.15 C173.3708,540.7 198.2008,674.53 214.0008,759.67 " fill="none" id="Organization-Vehicle" style="stroke:#181818;stroke-width:1.0;"/><polygon fill="#000000" points="205.543,616.5919,206.7825,607.1624,201.0033,608.2348,205.543,616.5919" style="stroke:#000000;stroke-width:1.0;"/><text fill="#000000" font-family="sans-serif" font-size="13" lengthAdjust="spacing" textLength="30" x="213.6308" y="616.9951">owns</text><text fill="#000000" font-family="sans-serif" font-size="13" lengthAdjust="spacing" textLength="7" x="152.8394" y="484.3558">1</text><text fill="#000000" font-family="sans-serif" font-size="13" lengthAdjust="spacing" textLength="5" x="207.4217" y="749.0903">*</text></g><!--link Vehicle to Checkup--><g id="link_Vehicle_Checkup"><path codeLine="141" d="M238.3208,919.13 C243.4008,978.61 245.6508,1061.91 229.6308,1133 C227.4008,1142.89 223.8308,1153.24 220.0508,1162.67 " fill="none" id="Vehicle-Checkup" style="stroke:#181818;stroke-width:1.0;"/><polygon fill="#000000" points="247.2568,1046.1618,250.8641,1037.3619,245.0028,1036.9222,247.2568,1046.1618" style="stroke:#000000;stroke-width:1.0;"/><text fill="#000000" font-family="sans-serif" font-size="13" lengthAdjust="spacing" textLength="60" x="256.6308" y="1046.4951">undergoes</text><text fill="#000000" font-family="sans-serif" font-size="13" lengthAdjust="spacing" textLength="7" x="231.8721" y="940.4509">1</text><text fill="#000000" font-family="sans-serif" font-size="13" lengthAdjust="spacing" textLength="5" x="217.6173" y="1152.1322">*</text></g><!--link HumanResourcesManager to Collaborator--><g id="link_HumanResourcesManager_Collaborator"><path codeLine="142" d="M355.6308,445.2 C355.6308,472.75 355.6308,509.09 355.6308,540.68 " fill="none" id="HumanResourcesManager-Collaborator" style="stroke:#181818;stroke-width:1.0;"/><polygon fill="#000000" points="360.6308,507.1758,363.5698,498.1307,357.6919,498.1307,360.6308,507.1758" style="stroke:#000000;stroke-width:1.0;"/><text fill="#000000" font-family="sans-serif" font-size="13" lengthAdjust="spacing" textLength="53" x="369.6308" y="507.4951">manages</text><text fill="#000000" font-family="sans-serif" font-size="13" lengthAdjust="spacing" textLength="7" x="348.073" y="467.0076">1</text><text fill="#000000" font-family="sans-serif" font-size="13" lengthAdjust="spacing" textLength="5" x="350.373" y="530.0512">*</text></g><!--link Collaborator to Vehicle--><g id="link_Collaborator_Vehicle"><path codeLine="143" d="M316.4908,682.15 C302.7108,706.66 287.1408,734.38 272.9708,759.6 " fill="none" id="Collaborator-Vehicle" style="stroke:#181818;stroke-width:1.0;"/><polygon fill="#000000" points="299.1815,725.5348,306.1746,719.089,301.0503,716.2096,299.1815,725.5348" style="stroke:#000000;stroke-width:1.0;"/><text fill="#000000" font-family="sans-serif" font-size="13" lengthAdjust="spacing" textLength="28" x="310.6308" y="726.4951">uses</text><text fill="#000000" font-family="sans-serif" font-size="13" lengthAdjust="spacing" textLength="7" x="305.0936" y="703.7603">1</text><text fill="#000000" font-family="sans-serif" font-size="13" lengthAdjust="spacing" textLength="20" x="256.1366" y="749.0138">0..*</text></g><!--link HumanResourcesManager to Skill--><g id="link_HumanResourcesManager_Skill"><path codeLine="144" d="M429.2008,445.08 C439.7208,451.14 450.4308,457.26 460.6308,463 C484.8908,476.66 494.9408,474.36 515.6308,493 C622.7008,589.47 656.8108,622.39 699.6308,760 C727.0408,848.07 714.9208,879.87 684.6308,967 C679.1008,982.9 672.3608,1000.52 666.8808,1014.47 " fill="none" id="HumanResourcesManager-Skill" style="stroke:#181818;stroke-width:1.0;"/><polygon fill="#000000" points="696.5569,725.7899,695.7847,716.3107,690.3605,718.575,696.5569,725.7899" style="stroke:#000000;stroke-width:1.0;"/><text fill="#000000" font-family="sans-serif" font-size="13" lengthAdjust="spacing" textLength="50" x="703.6308" y="726.4951">registers</text><text fill="#000000" font-family="sans-serif" font-size="13" lengthAdjust="spacing" textLength="7" x="433.3683" y="466.8685">1</text><text fill="#000000" font-family="sans-serif" font-size="13" lengthAdjust="spacing" textLength="5" x="663.7699" y="1003.5646">*</text></g><!--link HumanResourcesManager to Job--><g id="link_HumanResourcesManager_Job"><path codeLine="145" d="M394.0808,445.4 C406.5308,460.14 420.1008,476.95 431.6308,493 C453.4008,523.32 475.3708,560.32 489.2208,584.6 " fill="none" id="HumanResourcesManager-Job" style="stroke:#181818;stroke-width:1.0;"/><polygon fill="#000000" points="450.4522,506.3037,447.7747,497.1779,442.922,500.4946,450.4522,506.3037" style="stroke:#000000;stroke-width:1.0;"/><text fill="#000000" font-family="sans-serif" font-size="13" lengthAdjust="spacing" textLength="50" x="456.6308" y="507.4951">registers</text><text fill="#000000" font-family="sans-serif" font-size="13" lengthAdjust="spacing" textLength="7" x="392.4326" y="466.9123">1</text><text fill="#000000" font-family="sans-serif" font-size="13" lengthAdjust="spacing" textLength="5" x="480.3104" y="574.0398">*</text></g><!--link Collaborator to Skill--><g id="link_Collaborator_Skill"><path codeLine="146" d="M409.3608,648.37 C426.2608,659.39 445.0908,671.4 462.6308,682 C523.2508,718.65 560.0808,702.62 601.6308,760 C658.7208,838.85 660.5708,961.62 658.3508,1014.43 " fill="none" id="Collaborator-Skill" style="stroke:#181818;stroke-width:1.0;"/><polygon fill="#000000" points="663.4429,843.8101,660.7859,834.6782,655.9258,837.984,663.4429,843.8101" style="stroke:#000000;stroke-width:1.0;"/><text fill="#000000" font-family="sans-serif" font-size="13" lengthAdjust="spacing" textLength="21" x="669.6308" y="844.9951">has</text><text fill="#000000" font-family="sans-serif" font-size="13" lengthAdjust="spacing" textLength="7" x="417.0511" y="649.7503">1</text><text fill="#000000" font-family="sans-serif" font-size="13" lengthAdjust="spacing" textLength="5" x="653.1607" y="1003.5149">*</text></g><!--link Collaborator to Job--><g id="link_Collaborator_Job"><path codeLine="147" d="M409.4808,611.5 C433.6108,611.5 460.8408,611.5 479.7908,611.5 " fill="none" id="Collaborator-Job" style="stroke:#181818;stroke-width:1.0;"/><polygon fill="#000000" points="436.6308,599.6758,427.5858,596.7369,427.5858,602.6147,436.6308,599.6758" style="stroke:#000000;stroke-width:1.0;"/><text fill="#000000" font-family="sans-serif" font-size="13" lengthAdjust="spacing" textLength="21" x="440.6308" y="604.9951">has</text><text fill="#000000" font-family="sans-serif" font-size="13" lengthAdjust="spacing" textLength="7" x="417.1873" y="607.9259">1</text><text fill="#000000" font-family="sans-serif" font-size="13" lengthAdjust="spacing" textLength="7" x="465.1015" y="606.7638">1</text></g><!--link Collaborator to ID--><g id="link_Collaborator_ID"><path codeLine="148" d="M356.8608,682.15 C357.5808,722.49 358.4408,771.51 359.0208,803.78 " fill="none" id="Collaborator-ID" style="stroke:#181818;stroke-width:1.0;"/><polygon fill="#000000" points="362.7196,726.175,365.4975,717.0792,359.6206,717.1835,362.7196,726.175" style="stroke:#000000;stroke-width:1.0;"/><text fill="#000000" font-family="sans-serif" font-size="13" lengthAdjust="spacing" textLength="21" x="371.6308" y="726.4951">has</text><text fill="#000000" font-family="sans-serif" font-size="13" lengthAdjust="spacing" textLength="7" x="349.6268" y="703.7603">1</text><text fill="#000000" font-family="sans-serif" font-size="13" lengthAdjust="spacing" textLength="7" x="351.2631" y="793.2625">1</text></g><!--link Vehicle to FleetManager--><g id="link_Vehicle_FleetManager"><path codeLine="149" d="M180.4208,919.16 C174.8808,929.09 169.4808,939.2 164.6308,949 C157.0708,964.29 149.7608,981.51 143.6808,996.84 " fill="none" id="Vehicle-FleetManager" style="stroke:#181818;stroke-width:1.0;"/><polygon fill="#000000" points="171.7686,953.6558,165.2446,960.5759,170.5581,963.089,171.7686,953.6558" style="stroke:#000000;stroke-width:1.0;"/><text fill="#000000" font-family="sans-serif" font-size="13" lengthAdjust="spacing" textLength="56" x="178.6308" y="963.4951">maintains</text><text fill="#000000" font-family="sans-serif" font-size="13" lengthAdjust="spacing" textLength="5" x="170.9045" y="940.4836">*</text><text fill="#000000" font-family="sans-serif" font-size="13" lengthAdjust="spacing" textLength="7" x="138.681" y="986.0153">1</text></g><!--link FleetManager to Checkup--><g id="link_FleetManager_Checkup"><path codeLine="150" d="M148.8008,1085.32 C160.7508,1109.76 175.4708,1139.89 186.6608,1162.77 " fill="none" id="FleetManager-Checkup" style="stroke:#181818;stroke-width:1.0;"/><polygon fill="#000000" points="177.8267,1128.6678,176.4947,1119.251,171.214,1121.8323,177.8267,1128.6678" style="stroke:#000000;stroke-width:1.0;"/><text fill="#000000" font-family="sans-serif" font-size="13" lengthAdjust="spacing" textLength="36" x="184.6308" y="1129.4951">orders</text><text fill="#000000" font-family="sans-serif" font-size="13" lengthAdjust="spacing" textLength="7" x="144.5066" y="1106.82">1</text><text fill="#000000" font-family="sans-serif" font-size="13" lengthAdjust="spacing" textLength="5" x="178.0711" y="1152.2507">*</text></g><!--link Team to Task--><g id="link_Team_Task"><path codeLine="151" d="M470.8508,866.29 C447.9108,886.08 419.4808,915.6 406.6308,949 C399.8108,966.73 400.7008,987.84 403.5708,1005.25 " fill="none" id="Team-Task" style="stroke:#181818;stroke-width:1.0;"/><polygon fill="#000000" points="409.452,962.6761,416.0388,955.8157,410.7484,953.2543,409.452,962.6761" style="stroke:#000000;stroke-width:1.0;"/><text fill="#000000" font-family="sans-serif" font-size="13" lengthAdjust="spacing" textLength="61" x="420.6308" y="963.4951">carries out</text><text fill="#000000" font-family="sans-serif" font-size="13" lengthAdjust="spacing" textLength="7" x="455.2298" y="887.8457">1</text><text fill="#000000" font-family="sans-serif" font-size="13" lengthAdjust="spacing" textLength="7" x="394.2551" y="994.727">1</text></g><!--link Team to Skill--><g id="link_Team_Skill"><path codeLine="152" d="M501.9008,866.19 C500.3408,893.6 501.8908,937.11 522.6308,967 C549.1408,1005.2 602.2808,1025.33 633.0808,1034.22 " fill="none" id="Team-Skill" style="stroke:#181818;stroke-width:1.0;"/><polygon fill="#000000" points="530.7077,962.117,527.4582,953.1788,522.825,956.7958,530.7077,962.117" style="stroke:#000000;stroke-width:1.0;"/><text fill="#000000" font-family="sans-serif" font-size="13" lengthAdjust="spacing" textLength="93" x="536.6308" y="963.4951">requires a set of</text><text fill="#000000" font-family="sans-serif" font-size="13" lengthAdjust="spacing" textLength="7" x="493.4602" y="887.7225">1</text><text fill="#000000" font-family="sans-serif" font-size="13" lengthAdjust="spacing" textLength="5" x="620.103" y="1027.2091">*</text></g><!--link Collaborator to Team--><g id="link_Collaborator_Team"><path codeLine="153" d="M401.5508,682.15 C430.7908,726.51 466.9608,781.37 487.7608,812.91 " fill="none" id="Collaborator-Team" style="stroke:#181818;stroke-width:1.0;"/><polygon fill="#000000" points="438.383,725.3502,435.8579,716.1809,430.9506,719.4163,438.383,725.3502" style="stroke:#000000;stroke-width:1.0;"/><text fill="#000000" font-family="sans-serif" font-size="13" lengthAdjust="spacing" textLength="25" x="444.6308" y="726.4951">form</text><text fill="#000000" font-family="sans-serif" font-size="13" lengthAdjust="spacing" textLength="5" x="401.0285" y="703.7603">*</text><text fill="#000000" font-family="sans-serif" font-size="13" lengthAdjust="spacing" textLength="7" x="475.7957" y="801.99">1</text></g><!--link Pipe to IrrigationNetwork--><g id="link_Pipe_IrrigationNetwork"><path codeLine="154" d="M922.0608,243.69 C935.1508,273.09 956.7808,321.7 972.4508,356.92 " fill="none" id="Pipe-IrrigationNetwork" style="stroke:#181818;stroke-width:1.0;"/><polygon fill="#000000" points="958.6637,304.7439,957.6712,295.2852,952.3012,297.675,958.6637,304.7439" style="stroke:#000000;stroke-width:1.0;"/><text fill="#000000" font-family="sans-serif" font-size="13" lengthAdjust="spacing" textLength="25" x="965.6308" y="305.4951">form</text><text fill="#000000" font-family="sans-serif" font-size="13" lengthAdjust="spacing" textLength="5" x="919.1259" y="265.2225">*</text><text fill="#000000" font-family="sans-serif" font-size="13" lengthAdjust="spacing" textLength="7" x="961.8362" y="346.108">1</text></g><!--link Algorithm to IrrigationNetwork--><g id="link_Algorithm_IrrigationNetwork"><path codeLine="155" d="M1013.1008,243.69 C1009.0608,273.09 1002.3908,321.7 997.5508,356.92 " fill="none" id="Algorithm-IrrigationNetwork" style="stroke:#181818;stroke-width:1.0;"/><polygon fill="#000000" points="1010.9506,305.1293,1015.0928,296.5682,1009.2696,295.7685,1010.9506,305.1293" style="stroke:#000000;stroke-width:1.0;"/><text fill="#000000" font-family="sans-serif" font-size="13" lengthAdjust="spacing" textLength="57" x="1020.6308" y="305.4951">generates</text><text fill="#000000" font-family="sans-serif" font-size="13" lengthAdjust="spacing" textLength="7" x="1004.4752" y="265.2225">1</text><text fill="#000000" font-family="sans-serif" font-size="13" lengthAdjust="spacing" textLength="5" x="993.0959" y="346.108">*</text></g><!--link SoftwareQualityAssessmentTeamManager to Algorithm--><g id="link_SoftwareQualityAssessmentTeamManager_Algorithm"><path codeLine="156" d="M348.4408,58.73 C499.1608,69.72 746.7008,98.43 946.6308,173 C958.3908,177.39 970.3408,183.84 980.9508,190.42 " fill="none" id="SoftwareQualityAssessmentTeamManager-Algorithm" style="stroke:#181818;stroke-width:1.0;"/><polygon fill="#000000" points="861.5259,135.1949,853.2697,130.474,852.0716,136.2285,861.5259,135.1949" style="stroke:#000000;stroke-width:1.0;"/><text fill="#000000" font-family="sans-serif" font-size="13" lengthAdjust="spacing" textLength="29" x="865.6308" y="139.4951">tests</text><text fill="#000000" font-family="sans-serif" font-size="13" lengthAdjust="spacing" textLength="7" x="356.1141" y="56.208">1</text><text fill="#000000" font-family="sans-serif" font-size="13" lengthAdjust="spacing" textLength="7" x="964.4007" y="179.5024">1</text></g><!--link GreenSpaceUser to InfoSurvey--><g id="link_GreenSpaceUser_InfoSurvey"><path codeLine="157" d="M683.1908,252.57 C668.9608,264.38 653.3108,277.92 639.6308,291 C617.9208,311.77 595.1708,336.32 576.8608,356.86 " fill="none" id="GreenSpaceUser-InfoSurvey" style="stroke:#181818;stroke-width:1.0;"/><polygon fill="#000000" points="641.0612,303.6769,649.5766,299.4415,645.4608,295.2451,641.0612,303.6769" style="stroke:#000000;stroke-width:1.0;"/><text fill="#000000" font-family="sans-serif" font-size="13" lengthAdjust="spacing" textLength="48" x="653.6308" y="305.4951">answers</text><text fill="#000000" font-family="sans-serif" font-size="13" lengthAdjust="spacing" textLength="5" x="670.0078" y="273.8726">*</text><text fill="#000000" font-family="sans-serif" font-size="13" lengthAdjust="spacing" textLength="7" x="575.2366" y="346.0385">1</text></g><!--link GreenSpaceUser to EquipmentSurvey--><g id="link_GreenSpaceUser_EquipmentSurvey"><path codeLine="158" d="M720.5408,252.66 C714.8408,285.05 706.3908,333.12 700.7008,365.47 " fill="none" id="GreenSpaceUser-EquipmentSurvey" style="stroke:#181818;stroke-width:1.0;"/><polygon fill="#000000" points="717.7648,305.1002,722.226,296.7009,716.437,295.6828,717.7648,305.1002" style="stroke:#000000;stroke-width:1.0;"/><text fill="#000000" font-family="sans-serif" font-size="13" lengthAdjust="spacing" textLength="48" x="727.6308" y="305.4951">answers</text><text fill="#000000" font-family="sans-serif" font-size="13" lengthAdjust="spacing" textLength="5" x="714.0644" y="273.7042">*</text><text fill="#000000" font-family="sans-serif" font-size="13" lengthAdjust="spacing" textLength="7" x="694.1908" y="354.7171">1</text></g><!--link GreenSpaceUser to UserPortal--><g id="link_GreenSpaceUser_UserPortal"><path codeLine="159" d="M757.0508,252.75 C766.5208,264.47 776.5808,277.9 784.6308,291 C799.1208,314.6 812.0508,343.09 821.1308,365.03 " fill="none" id="GreenSpaceUser-UserPortal" style="stroke:#181818;stroke-width:1.0;"/><polygon fill="#000000" points="802.1092,304.5183,800.1783,295.2058,795.0733,298.1193,802.1092,304.5183" style="stroke:#000000;stroke-width:1.0;"/><text fill="#000000" font-family="sans-serif" font-size="13" lengthAdjust="spacing" textLength="28" x="808.6308" y="305.4951">uses</text><text fill="#000000" font-family="sans-serif" font-size="13" lengthAdjust="spacing" textLength="5" x="756.8496" y="273.8096">*</text><text fill="#000000" font-family="sans-serif" font-size="13" lengthAdjust="spacing" textLength="7" x="811.1027" y="354.7396">1</text></g><!--link GreenSpaceManager to InfoSurvey--><g id="link_GreenSpaceManager_InfoSurvey"><path codeLine="160" d="M225.1008,261.01 C232.7608,278.57 244.2008,297.43 260.6308,309 C333.7808,360.48 377.2708,304.12 459.6308,339 C470.4108,343.56 481.0208,349.92 490.8208,356.81 " fill="none" id="GreenSpaceManager-InfoSurvey" style="stroke:#181818;stroke-width:1.0;"/><polygon fill="#000000" points="270.3345,301.8716,262.8223,296.0391,260.8288,301.5686,270.3345,301.8716" style="stroke:#000000;stroke-width:1.0;"/><text fill="#000000" font-family="sans-serif" font-size="13" lengthAdjust="spacing" textLength="85" x="274.6308" y="305.4951">checks results</text><text fill="#000000" font-family="sans-serif" font-size="13" lengthAdjust="spacing" textLength="7" x="219.6898" y="282.7874">1</text><text fill="#000000" font-family="sans-serif" font-size="13" lengthAdjust="spacing" textLength="7" x="475.4839" y="345.9805">1</text></g><!--link GreenSpaceManager to EquipmentSurvey--><g id="link_GreenSpaceManager_EquipmentSurvey"><path codeLine="161" d="M282.9608,250.82 C308.8708,263.05 338.2508,277.31 364.6308,291 C379.1108,298.52 381.1608,303.82 396.6308,309 C491.0308,340.64 527.1308,299.74 618.6308,339 C633.4008,345.34 647.6708,355.37 659.7908,365.49 " fill="none" id="GreenSpaceManager-EquipmentSurvey" style="stroke:#181818;stroke-width:1.0;"/><polygon fill="#000000" points="406.4143,301.6314,398.6166,296.1865,396.9054,301.8098,406.4143,301.6314" style="stroke:#000000;stroke-width:1.0;"/><text fill="#000000" font-family="sans-serif" font-size="13" lengthAdjust="spacing" textLength="85" x="410.6308" y="305.4951">checks results</text><text fill="#000000" font-family="sans-serif" font-size="13" lengthAdjust="spacing" textLength="7" x="290.6777" y="250.9734">1</text><text fill="#000000" font-family="sans-serif" font-size="13" lengthAdjust="spacing" textLength="7" x="645.4823" y="354.7409">1</text></g><!--SRC=[dLR9Rjim4BthAuWS0wHehpuK2BeNQDh6RUzZQYmHfaY5IrmtwBztH4eYPSbnqW099F6zDmjdYTq9rOA1XZLQQLuRtI1pncDXnvCM-0ugNBk3H6QGEr2Lp06sXbBlXQhO5gJ58ZlY4gozTiw8ZNVuYMkr5d-GlIoAMfJ8k32SfC9pWwxMfIsAm64V3A9QasryA1ZzICr1XYSeIuFMncU3KFmTE5zD1Khy0IUqOf6ceC7mS0_knZSRDE5jZnihN3nfQwqmEyC6X4oYlx0Mv6Ilrqfmo5H2RmoeCZovGni56rrYT9LxOr0vjclYQuryvrksDNZdKV53-Bfh63X6jjm0ICRVz8o7YTnzxr8lExnEV1ibtaj4zmKKNQ4vJaeCTKn28dtq3QXRjDeRZlQvx7Ht_y_yQK_HKdAqbB3H1foUGJV2kBg4_egXR8IrNLLadr8LdNJdqzjUTxpRu-n-rflSzFXzlHDIBfxyGEgBXqpiwpOFn6P8iBlZk4gqt8Ysg_04_2RQeJwvjYxptnXHXNQuGRVNPf1pse5yqq5pDpePE_boGvMSERJMMxUdbllkGGftkBQMCjXGHNOnFVUghsMbZN3ra0pyZTnthluGURhUtNdHTZRMtjpZOG0FNyERjsGvYrfjzGHDfxSqjA93U-rbUOkSqwZhE_TUq31uFpRbADJLu3TjA5U3K5OqDQNl2_1QnA0ci-VYrGMxOXUN5zCQNR4QB7kzYAM_aquzWrrkqDCatqRUl3NFSvvqxMTaBdFJ1DPxrQ7dxgGG9_Wc73z2eGsa5jE8JIlruPonK_ayotvcafRqmgZhCdGbSUiMWlSMJvK2iVe5DUPqM5XP4SOjGaAgH5FfeBOSSPxBUVccMvWS118HNhvuaVn9VZzYALg9mt95_rnKmZeqJo9ratTAMVGfauy5EaVHZApxj4VHKy28eQKmG2QbDYdsb0IQVyhHxp9-Sa5TNvWo1XFMH6OrB8CLuq0ZdRAglJi6JH99yv4c5GDcqJ6zdOLpcOGxZHNRQjCGAgoIx7I-GKPe6k2P1qlu2XMIsL0BJsgJBEnaPCL8mPtgdDxRDFbN39JTnroU9XnlbwUnihqm5lbZmsNYLlWVpz8LMI_TEURSlncz-0S0]--></g></svg>