<?xml version="1.0" encoding="UTF-8" standalone="no"?><svg xmlns="http://www.w3.org/2000/svg" xmlns:xlink="http://www.w3.org/1999/xlink" contentStyleType="text/css" height="1240px" preserveAspectRatio="none" style="width:1169px;height:1240px;background:#FFFFFF;" version="1.1" viewBox="0 0 1169 1240" width="1169px" zoomAndPan="magnify"><defs/><g><!--class GreenSpace--><g id="elem_GreenSpace"><rect codeLine="10" fill="#F1F1F1" height="88.4375" id="GreenSpace" rx="2.5" ry="2.5" style="stroke:#181818;stroke-width:0.5;" width="86" x="493.7272" y="173"/><text fill="#000000" font-family="sans-serif" font-size="14" lengthAdjust="spacing" textLength="80" x="496.7272" y="192.5332">GreenSpace</text><line style="stroke:#181818;stroke-width:0.5;" x1="494.7272" x2="578.7272" y1="200.6094" y2="200.6094"/><text fill="#000000" font-family="sans-serif" font-size="14" lengthAdjust="spacing" textLength="29" x="499.7272" y="219.1426">local</text><text fill="#000000" font-family="sans-serif" font-size="14" lengthAdjust="spacing" textLength="51" x="499.7272" y="236.752">address</text><text fill="#000000" font-family="sans-serif" font-size="14" lengthAdjust="spacing" textLength="29" x="499.7272" y="254.3613">area</text></g><!--class Organization--><g id="elem_Organization"><rect codeLine="16" fill="#F1F1F1" height="123.6563" id="Organization" rx="2.5" ry="2.5" style="stroke:#181818;stroke-width:0.5;" width="101" x="122.2272" y="339"/><text fill="#000000" font-family="sans-serif" font-size="14" lengthAdjust="spacing" textLength="80" x="132.7272" y="358.5332">Organization</text><line style="stroke:#181818;stroke-width:0.5;" x1="123.2272" x2="222.2272" y1="366.6094" y2="366.6094"/><text fill="#000000" font-family="sans-serif" font-size="14" lengthAdjust="spacing" textLength="35" x="128.2272" y="385.1426">name</text><text fill="#000000" font-family="sans-serif" font-size="14" lengthAdjust="spacing" textLength="68" x="128.2272" y="402.752">vatNumber</text><text fill="#000000" font-family="sans-serif" font-size="14" lengthAdjust="spacing" textLength="47" x="128.2272" y="420.3613">website</text><text fill="#000000" font-family="sans-serif" font-size="14" lengthAdjust="spacing" textLength="89" x="128.2272" y="437.9707">phoneNumber</text><text fill="#000000" font-family="sans-serif" font-size="14" lengthAdjust="spacing" textLength="33" x="128.2272" y="455.5801">email</text></g><!--class Vehicle--><g id="elem_Vehicle"><rect codeLine="24" fill="#F1F1F1" height="158.875" id="Vehicle" rx="2.5" ry="2.5" style="stroke:#181818;stroke-width:0.5;" width="132" x="171.7272" y="760"/><text fill="#000000" font-family="sans-serif" font-size="14" lengthAdjust="spacing" textLength="46" x="214.7272" y="779.5332">Vehicle</text><line style="stroke:#181818;stroke-width:0.5;" x1="172.7272" x2="302.7272" y1="787.6094" y2="787.6094"/><text fill="#000000" font-family="sans-serif" font-size="14" lengthAdjust="spacing" textLength="83" x="177.7272" y="806.1426">plate number</text><text fill="#000000" font-family="sans-serif" font-size="14" lengthAdjust="spacing" textLength="37" x="177.7272" y="823.752">brand</text><text fill="#000000" font-family="sans-serif" font-size="14" lengthAdjust="spacing" textLength="27" x="177.7272" y="841.3613">type</text><text fill="#000000" font-family="sans-serif" font-size="14" lengthAdjust="spacing" textLength="38" x="177.7272" y="858.9707">model</text><text fill="#000000" font-family="sans-serif" font-size="14" lengthAdjust="spacing" textLength="67" x="177.7272" y="876.5801">current km</text><text fill="#000000" font-family="sans-serif" font-size="14" lengthAdjust="spacing" textLength="120" x="177.7272" y="894.1895">checkup frequency</text><text fill="#000000" font-family="sans-serif" font-size="14" lengthAdjust="spacing" textLength="117" x="177.7272" y="911.7988">km at last checkup</text></g><!--class Checkup--><g id="elem_Checkup"><rect codeLine="34" fill="#F1F1F1" height="70.8281" id="Checkup" rx="2.5" ry="2.5" style="stroke:#181818;stroke-width:0.5;" width="143" x="141.2272" y="1163"/><text fill="#000000" font-family="sans-serif" font-size="14" lengthAdjust="spacing" textLength="56" x="184.7272" y="1182.5332">Checkup</text><line style="stroke:#181818;stroke-width:0.5;" x1="142.2272" x2="283.2272" y1="1190.6094" y2="1190.6094"/><text fill="#000000" font-family="sans-serif" font-size="14" lengthAdjust="spacing" textLength="115" x="147.2272" y="1209.1426">current vehicle km</text><text fill="#000000" font-family="sans-serif" font-size="14" lengthAdjust="spacing" textLength="131" x="147.2272" y="1226.752">vehicle plate number</text></g><!--class FleetManager--><g id="elem_FleetManager"><rect codeLine="39" fill="#F1F1F1" height="88.4375" id="FleetManager" rx="2.5" ry="2.5" style="stroke:#181818;stroke-width:0.5;" width="94" x="89.7272" y="997"/><text fill="#000000" font-family="sans-serif" font-size="14" lengthAdjust="spacing" textLength="88" x="92.7272" y="1016.5332">FleetManager</text><line style="stroke:#181818;stroke-width:0.5;" x1="90.7272" x2="182.7272" y1="1024.6094" y2="1024.6094"/><text fill="#000000" font-family="sans-serif" font-size="14" lengthAdjust="spacing" textLength="35" x="95.7272" y="1043.1426">name</text><text fill="#000000" font-family="sans-serif" font-size="14" lengthAdjust="spacing" textLength="33" x="95.7272" y="1060.752">email</text><text fill="#000000" font-family="sans-serif" font-size="14" lengthAdjust="spacing" textLength="40" x="95.7272" y="1078.3613">phone</text></g><!--class HumanResourcesManager--><g id="elem_HumanResourcesManager"><rect codeLine="45" fill="#F1F1F1" height="88.4375" id="HumanResourcesManager" rx="2.5" ry="2.5" style="stroke:#181818;stroke-width:0.5;" width="174" x="293.7272" y="357"/><text fill="#000000" font-family="sans-serif" font-size="14" lengthAdjust="spacing" textLength="168" x="296.7272" y="376.5332">HumanResourcesManager</text><line style="stroke:#181818;stroke-width:0.5;" x1="294.7272" x2="466.7272" y1="384.6094" y2="384.6094"/><text fill="#000000" font-family="sans-serif" font-size="14" lengthAdjust="spacing" textLength="35" x="299.7272" y="403.1426">name</text><text fill="#000000" font-family="sans-serif" font-size="14" lengthAdjust="spacing" textLength="33" x="299.7272" y="420.752">email</text><text fill="#000000" font-family="sans-serif" font-size="14" lengthAdjust="spacing" textLength="40" x="299.7272" y="438.3613">phone</text></g><!--class GreenSpaceManager--><g id="elem_GreenSpaceManager"><rect codeLine="51" fill="#F1F1F1" height="88.4375" id="GreenSpaceManager" rx="2.5" ry="2.5" style="stroke:#181818;stroke-width:0.5;" width="142" x="128.7272" y="173"/><text fill="#000000" font-family="sans-serif" font-size="14" lengthAdjust="spacing" textLength="136" x="131.7272" y="192.5332">GreenSpaceManager</text><line style="stroke:#181818;stroke-width:0.5;" x1="129.7272" x2="269.7272" y1="200.6094" y2="200.6094"/><text fill="#000000" font-family="sans-serif" font-size="14" lengthAdjust="spacing" textLength="35" x="134.7272" y="219.1426">name</text><text fill="#000000" font-family="sans-serif" font-size="14" lengthAdjust="spacing" textLength="33" x="134.7272" y="236.752">email</text><text fill="#000000" font-family="sans-serif" font-size="14" lengthAdjust="spacing" textLength="40" x="134.7272" y="254.3613">phone</text></g><!--class GreenSpaceUser--><g id="elem_GreenSpaceUser"><rect codeLine="57" fill="#F1F1F1" height="70.8281" id="GreenSpaceUser" rx="2.5" ry="2.5" style="stroke:#181818;stroke-width:0.5;" width="115" x="714.2272" y="181.5"/><text fill="#000000" font-family="sans-serif" font-size="14" lengthAdjust="spacing" textLength="109" x="717.2272" y="201.0332">GreenSpaceUser</text><line style="stroke:#181818;stroke-width:0.5;" x1="715.2272" x2="828.2272" y1="209.1094" y2="209.1094"/><text fill="#000000" font-family="sans-serif" font-size="14" lengthAdjust="spacing" textLength="35" x="720.2272" y="227.6426">name</text><text fill="#000000" font-family="sans-serif" font-size="14" lengthAdjust="spacing" textLength="33" x="720.2272" y="245.252">email</text></g><!--class Collaborator--><g id="elem_Collaborator"><rect codeLine="62" fill="#F1F1F1" height="141.2656" id="Collaborator" rx="2.5" ry="2.5" style="stroke:#181818;stroke-width:0.5;" width="107" x="315.2272" y="541"/><text fill="#000000" font-family="sans-serif" font-size="14" lengthAdjust="spacing" textLength="78" x="329.7272" y="560.5332">Collaborator</text><line style="stroke:#181818;stroke-width:0.5;" x1="316.2272" x2="421.2272" y1="568.6094" y2="568.6094"/><text fill="#000000" font-family="sans-serif" font-size="14" lengthAdjust="spacing" textLength="35" x="321.2272" y="587.1426">name</text><text fill="#000000" font-family="sans-serif" font-size="14" lengthAdjust="spacing" textLength="56" x="321.2272" y="604.752">birthdate</text><text fill="#000000" font-family="sans-serif" font-size="14" lengthAdjust="spacing" textLength="95" x="321.2272" y="622.3613">admission date</text><text fill="#000000" font-family="sans-serif" font-size="14" lengthAdjust="spacing" textLength="51" x="321.2272" y="639.9707">address</text><text fill="#000000" font-family="sans-serif" font-size="14" lengthAdjust="spacing" textLength="33" x="321.2272" y="657.5801">email</text><text fill="#000000" font-family="sans-serif" font-size="14" lengthAdjust="spacing" textLength="40" x="321.2272" y="675.1895">phone</text></g><!--class ID--><g id="elem_ID"><rect codeLine="71" fill="#F1F1F1" height="70.8281" id="ID" rx="2.5" ry="2.5" style="stroke:#181818;stroke-width:0.5;" width="60" x="338.7272" y="804"/><text fill="#000000" font-family="sans-serif" font-size="14" lengthAdjust="spacing" textLength="13" x="362.2272" y="823.5332">ID</text><line style="stroke:#181818;stroke-width:0.5;" x1="339.7272" x2="397.7272" y1="831.6094" y2="831.6094"/><text fill="#000000" font-family="sans-serif" font-size="14" lengthAdjust="spacing" textLength="27" x="344.7272" y="850.1426">type</text><text fill="#000000" font-family="sans-serif" font-size="14" lengthAdjust="spacing" textLength="48" x="344.7272" y="867.752">number</text></g><!--class Job--><g id="elem_Job"><rect codeLine="76" fill="#F1F1F1" height="53.2188" id="Job" rx="2.5" ry="2.5" style="stroke:#181818;stroke-width:0.5;" width="47" x="493.2272" y="585"/><text fill="#000000" font-family="sans-serif" font-size="14" lengthAdjust="spacing" textLength="22" x="505.7272" y="604.5332">Job</text><line style="stroke:#181818;stroke-width:0.5;" x1="494.2272" x2="539.2272" y1="612.6094" y2="612.6094"/><text fill="#000000" font-family="sans-serif" font-size="14" lengthAdjust="spacing" textLength="35" x="499.2272" y="631.1426">name</text></g><!--class Skill--><g id="elem_Skill"><rect codeLine="80" fill="#F1F1F1" height="53.2188" id="Skill" rx="2.5" ry="2.5" style="stroke:#181818;stroke-width:0.5;" width="47" x="642.2272" y="1014.5"/><text fill="#000000" font-family="sans-serif" font-size="14" lengthAdjust="spacing" textLength="25" x="653.2272" y="1034.0332">Skill</text><line style="stroke:#181818;stroke-width:0.5;" x1="643.2272" x2="688.2272" y1="1042.1094" y2="1042.1094"/><text fill="#000000" font-family="sans-serif" font-size="14" lengthAdjust="spacing" textLength="35" x="648.2272" y="1060.6426">name</text></g><!--class Team--><g id="elem_Team"><rect codeLine="84" fill="#F1F1F1" height="53.2188" id="Team" rx="2.5" ry="2.5" style="stroke:#181818;stroke-width:0.5;" width="160" x="433.7272" y="813"/><text fill="#000000" font-family="sans-serif" font-size="14" lengthAdjust="spacing" textLength="36" x="495.7272" y="832.5332">Team</text><line style="stroke:#181818;stroke-width:0.5;" x1="434.7272" x2="592.7272" y1="840.6094" y2="840.6094"/><text fill="#000000" font-family="sans-serif" font-size="14" lengthAdjust="spacing" textLength="148" x="439.7272" y="859.1426">numberOfCollaborators</text></g><!--class Task--><g id="elem_Task"><rect codeLine="88" fill="#F1F1F1" height="70.8281" id="Task" rx="2.5" ry="2.5" style="stroke:#181818;stroke-width:0.5;" width="81" x="381.2272" y="1005.5"/><text fill="#000000" font-family="sans-serif" font-size="14" lengthAdjust="spacing" textLength="31" x="406.2272" y="1025.0332">Task</text><line style="stroke:#181818;stroke-width:0.5;" x1="382.2272" x2="461.2272" y1="1033.1094" y2="1033.1094"/><text fill="#000000" font-family="sans-serif" font-size="14" lengthAdjust="spacing" textLength="35" x="387.2272" y="1051.6426">name</text><text fill="#000000" font-family="sans-serif" font-size="14" lengthAdjust="spacing" textLength="69" x="387.2272" y="1069.252">description</text></g><!--class Pipe--><g id="elem_Pipe"><rect codeLine="93" fill="#F1F1F1" height="53.2188" id="Pipe" rx="2.5" ry="2.5" style="stroke:#181818;stroke-width:0.5;" width="38" x="983.7272" y="190.5"/><text fill="#000000" font-family="sans-serif" font-size="14" lengthAdjust="spacing" textLength="28" x="988.7272" y="210.0332">Pipe</text><line style="stroke:#181818;stroke-width:0.5;" x1="984.7272" x2="1020.7272" y1="218.1094" y2="218.1094"/><text fill="#000000" font-family="sans-serif" font-size="14" lengthAdjust="spacing" textLength="26" x="989.7272" y="236.6426">cost</text></g><!--class IrrigationNetwork--><g id="elem_IrrigationNetwork"><rect codeLine="97" fill="#F1F1F1" height="88.4375" id="IrrigationNetwork" rx="2.5" ry="2.5" style="stroke:#181818;stroke-width:0.5;" width="115" x="1008.2272" y="357"/><text fill="#000000" font-family="sans-serif" font-size="14" lengthAdjust="spacing" textLength="105" x="1013.2272" y="376.5332">IrrigationNetwork</text><line style="stroke:#181818;stroke-width:0.5;" x1="1009.2272" x2="1122.2272" y1="384.6094" y2="384.6094"/><text fill="#000000" font-family="sans-serif" font-size="14" lengthAdjust="spacing" textLength="56" x="1014.2272" y="403.1426">totalCost</text><text fill="#000000" font-family="sans-serif" font-size="14" lengthAdjust="spacing" textLength="98" x="1014.2272" y="420.752">numberOfPipes</text><text fill="#000000" font-family="sans-serif" font-size="14" lengthAdjust="spacing" textLength="103" x="1014.2272" y="438.3613">numberOfNodes</text></g><!--class SoftwareQualityAssessmentTeamManager--><g id="elem_SoftwareQualityAssessmentTeamManager"><rect codeLine="103" fill="#F1F1F1" height="88.4375" id="SoftwareQualityAssessmentTeamManager" rx="2.5" ry="2.5" style="stroke:#181818;stroke-width:0.5;" width="273" x="63.2272" y="7"/><text fill="#000000" font-family="sans-serif" font-size="14" lengthAdjust="spacing" textLength="267" x="66.2272" y="26.5332">SoftwareQualityAssessmentTeamManager</text><line style="stroke:#181818;stroke-width:0.5;" x1="64.2272" x2="335.2272" y1="34.6094" y2="34.6094"/><text fill="#000000" font-family="sans-serif" font-size="14" lengthAdjust="spacing" textLength="35" x="69.2272" y="53.1426">name</text><text fill="#000000" font-family="sans-serif" font-size="14" lengthAdjust="spacing" textLength="33" x="69.2272" y="70.752">email</text><text fill="#000000" font-family="sans-serif" font-size="14" lengthAdjust="spacing" textLength="40" x="69.2272" y="88.3613">phone</text></g><!--class Algorithm--><g id="elem_Algorithm"><rect codeLine="109" fill="#F1F1F1" height="53.2188" id="Algorithm" rx="2.5" ry="2.5" style="stroke:#181818;stroke-width:0.5;" width="103" x="1057.2272" y="190.5"/><text fill="#000000" font-family="sans-serif" font-size="14" lengthAdjust="spacing" textLength="59" x="1079.2272" y="210.0332">Algorithm</text><line style="stroke:#181818;stroke-width:0.5;" x1="1058.2272" x2="1159.2272" y1="218.1094" y2="218.1094"/><text fill="#000000" font-family="sans-serif" font-size="14" lengthAdjust="spacing" textLength="91" x="1063.2272" y="236.6426">executionTime</text></g><!--class EquipmentSurvey--><g id="elem_EquipmentSurvey"><rect codeLine="113" fill="#F1F1F1" height="70.8281" id="EquipmentSurvey" rx="2.5" ry="2.5" style="stroke:#181818;stroke-width:0.5;" width="117" x="706.2272" y="365.5"/><text fill="#000000" font-family="sans-serif" font-size="14" lengthAdjust="spacing" textLength="111" x="709.2272" y="385.0332">EquipmentSurvey</text><line style="stroke:#181818;stroke-width:0.5;" x1="707.2272" x2="822.2272" y1="393.1094" y2="393.1094"/><text fill="#000000" font-family="sans-serif" font-size="14" lengthAdjust="spacing" textLength="66" x="712.2272" y="411.6426">equipment</text><text fill="#000000" font-family="sans-serif" font-size="14" lengthAdjust="spacing" textLength="39" x="712.2272" y="429.252">usage</text></g><!--class InfoSurvey--><g id="elem_InfoSurvey"><rect codeLine="118" fill="#F1F1F1" height="88.4375" id="InfoSurvey" rx="2.5" ry="2.5" style="stroke:#181818;stroke-width:0.5;" width="123" x="504.2272" y="357"/><text fill="#000000" font-family="sans-serif" font-size="14" lengthAdjust="spacing" textLength="67" x="532.2272" y="376.5332">InfoSurvey</text><line style="stroke:#181818;stroke-width:0.5;" x1="505.2272" x2="626.2272" y1="384.6094" y2="384.6094"/><text fill="#000000" font-family="sans-serif" font-size="14" lengthAdjust="spacing" textLength="66" x="510.2272" y="403.1426">ageRange</text><text fill="#000000" font-family="sans-serif" font-size="14" lengthAdjust="spacing" textLength="111" x="510.2272" y="420.752">wouldReccomend</text><text fill="#000000" font-family="sans-serif" font-size="14" lengthAdjust="spacing" textLength="92" x="510.2272" y="438.3613">visitFrequency</text></g><!--class UserPortal--><g id="elem_UserPortal"><rect codeLine="124" fill="#F1F1F1" height="70.8281" id="UserPortal" rx="2.5" ry="2.5" style="stroke:#181818;stroke-width:0.5;" width="92" x="880.7272" y="365.5"/><text fill="#000000" font-family="sans-serif" font-size="14" lengthAdjust="spacing" textLength="66" x="893.7272" y="385.0332">UserPortal</text><line style="stroke:#181818;stroke-width:0.5;" x1="881.7272" x2="971.7272" y1="393.1094" y2="393.1094"/><text fill="#000000" font-family="sans-serif" font-size="14" lengthAdjust="spacing" textLength="51" x="886.7272" y="411.6426">address</text><text fill="#000000" font-family="sans-serif" font-size="14" lengthAdjust="spacing" textLength="80" x="886.7272" y="429.252">hostMachine</text></g><!--link Organization to Collaborator--><g id="link_Organization_Collaborator"><path codeLine="129" d="M223.4572,455.97 C251.5872,485.89 286.5472,523.08 315.1272,553.48 " fill="none" id="Organization-Collaborator" style="stroke:#181818;stroke-width:1.0;"/><polygon fill="#000000" points="279.1519,505.8187,275.0977,497.2156,270.8152,501.2416,279.1519,505.8187" style="stroke:#000000;stroke-width:1.0;"/><text fill="#000000" font-family="sans-serif" font-size="13" lengthAdjust="spacing" textLength="21" x="284.7272" y="507.4951">has</text><text fill="#000000" font-family="sans-serif" font-size="13" lengthAdjust="spacing" textLength="7" x="231.0833" y="460.1192">1</text><text fill="#000000" font-family="sans-serif" font-size="13" lengthAdjust="spacing" textLength="5" x="302.2381" y="541.6971">*</text></g><!--link Organization to FleetManager--><g id="link_Organization_FleetManager"><path codeLine="130" d="M169.2772,463.17 C162.0372,591.52 145.4072,886.16 139.1572,996.89 " fill="none" id="Organization-FleetManager" style="stroke:#181818;stroke-width:1.0;"/><polygon fill="#000000" points="160.4454,726.1678,163.8893,717.3027,158.0208,716.9715,160.4454,726.1678" style="stroke:#000000;stroke-width:1.0;"/><text fill="#000000" font-family="sans-serif" font-size="13" lengthAdjust="spacing" textLength="21" x="169.7272" y="726.4951">has</text><text fill="#000000" font-family="sans-serif" font-size="13" lengthAdjust="spacing" textLength="7" x="161.5604" y="483.9373">1</text><text fill="#000000" font-family="sans-serif" font-size="13" lengthAdjust="spacing" textLength="7" x="131.9866" y="986.0732">1</text></g><!--link Organization to HumanResourcesManager--><g id="link_Organization_HumanResourcesManager"><path codeLine="131" d="M223.3472,401 C244.5072,401 269.7172,401 293.6972,401 " fill="none" id="Organization-HumanResourcesManager" style="stroke:#181818;stroke-width:1.0;"/><polygon fill="#000000" points="250.4772,389.1758,241.4321,386.2369,241.4321,392.1147,250.4772,389.1758" style="stroke:#000000;stroke-width:1.0;"/><text fill="#000000" font-family="sans-serif" font-size="13" lengthAdjust="spacing" textLength="21" x="254.4772" y="394.4951">has</text><text fill="#000000" font-family="sans-serif" font-size="13" lengthAdjust="spacing" textLength="7" x="231.296" y="397.3712">1</text><text fill="#000000" font-family="sans-serif" font-size="13" lengthAdjust="spacing" textLength="7" x="278.6343" y="397.7788">1</text></g><!--link GreenSpaceManager to Organization--><g id="link_GreenSpaceManager_Organization"><path codeLine="132" d="M128.4572,240.94 C105.2472,252.18 82.0472,268.33 68.7272,291 C49.1872,324.26 86.6872,355.38 121.9872,375.78 " fill="none" id="GreenSpaceManager-Organization" style="stroke:#181818;stroke-width:1.0;"/><polygon fill="#000000" points="73.9668,295.1815,70.5977,304.0754,76.4688,304.3571,73.9668,295.1815" style="stroke:#000000;stroke-width:1.0;"/><text fill="#000000" font-family="sans-serif" font-size="13" lengthAdjust="spacing" textLength="21" x="82.7272" y="305.4951">has</text><text fill="#000000" font-family="sans-serif" font-size="13" lengthAdjust="spacing" textLength="7" x="113.7465" y="240.0745">1</text><text fill="#000000" font-family="sans-serif" font-size="13" lengthAdjust="spacing" textLength="7" x="107.3597" y="386.9024">1</text></g><!--link SoftwareQualityAssessmentTeamManager to Organization--><g id="link_SoftwareQualityAssessmentTeamManager_Organization"><path codeLine="133" d="M140.7372,95.04 C116.4772,115.86 90.4372,142.87 74.7272,173 C50.1672,220.1 59.9672,238.05 55.7272,291 C55.0872,298.97 52.2172,301.81 55.7272,309 C69.6372,337.43 97.1872,359.55 122.0572,374.86 " fill="none" id="SoftwareQualityAssessmentTeamManager-Organization" style="stroke:#181818;stroke-width:1.0;"/><polygon fill="#000000" points="80.0602,212.1869,76.5253,221.0161,82.3901,221.4076,80.0602,212.1869" style="stroke:#000000;stroke-width:1.0;"/><text fill="#000000" font-family="sans-serif" font-size="13" lengthAdjust="spacing" textLength="21" x="88.7272" y="222.4951">has</text><text fill="#000000" font-family="sans-serif" font-size="13" lengthAdjust="spacing" textLength="7" x="123.7778" y="116.8221">1</text><text fill="#000000" font-family="sans-serif" font-size="13" lengthAdjust="spacing" textLength="7" x="107.1009" y="367.3919">1</text></g><!--link GreenSpace to Organization--><g id="link_GreenSpace_Organization"><path codeLine="134" d="M525.7072,261.01 C519.0272,278.58 508.6172,297.44 492.7272,309 C413.9972,366.27 367.6472,306.9 275.7272,339 C257.7772,345.27 239.4972,354.85 223.4172,364.58 " fill="none" id="GreenSpace-Organization" style="stroke:#181818;stroke-width:1.0;"/><polygon fill="#000000" points="519.4572,298.5552,509.9479,298.7066,511.853,304.2672,519.4572,298.5552" style="stroke:#000000;stroke-width:1.0;"/><text fill="#000000" font-family="sans-serif" font-size="13" lengthAdjust="spacing" textLength="30" x="523.7272" y="305.4951">owns</text><text fill="#000000" font-family="sans-serif" font-size="13" lengthAdjust="spacing" textLength="5" x="518.5524" y="282.7874">*</text><text fill="#000000" font-family="sans-serif" font-size="13" lengthAdjust="spacing" textLength="7" x="231.3763" y="355.602">1</text></g><!--link GreenSpaceManager to GreenSpace--><g id="link_GreenSpaceManager_GreenSpace"><path codeLine="135" d="M270.7872,217 C338.1772,217 437.2672,217 493.5172,217 " fill="none" id="GreenSpaceManager-GreenSpace" style="stroke:#181818;stroke-width:1.0;"/><polygon fill="#000000" points="358.2272,205.1758,349.1821,202.2369,349.1821,208.1147,358.2272,205.1758" style="stroke:#000000;stroke-width:1.0;"/><text fill="#000000" font-family="sans-serif" font-size="13" lengthAdjust="spacing" textLength="53" x="362.2272" y="210.4951">manages</text><text fill="#000000" font-family="sans-serif" font-size="13" lengthAdjust="spacing" textLength="7" x="278.9422" y="213.6154">1</text><text fill="#000000" font-family="sans-serif" font-size="13" lengthAdjust="spacing" textLength="7" x="478.7808" y="213.163">1</text></g><!--link GreenSpaceManager to FleetManager--><g id="link_GreenSpaceManager_FleetManager"><path codeLine="136" d="M128.6972,255.93 C125.3372,257.66 121.9972,259.35 118.7272,261 C91.0272,274.94 76.7972,268.25 55.7272,291 C20.4472,329.09 13.7272,348.08 13.7272,400 C13.7272,400 13.7272,400 13.7272,840.5 C13.7272,901.33 55.6772,959.15 90.5772,996.73 " fill="none" id="GreenSpaceManager-FleetManager" style="stroke:#181818;stroke-width:1.0;"/><polygon fill="#000000" points="18.4702,616.6692,21.8701,607.7871,16,607.485,18.4702,616.6692" style="stroke:#000000;stroke-width:1.0;"/><text fill="#000000" font-family="sans-serif" font-size="13" lengthAdjust="spacing" textLength="49" x="27.7272" y="616.9951">employs</text><text fill="#000000" font-family="sans-serif" font-size="13" lengthAdjust="spacing" textLength="7" x="113.5454" y="274.5534">1</text><text fill="#000000" font-family="sans-serif" font-size="13" lengthAdjust="spacing" textLength="7" x="75.9745" y="986.2147">1</text></g><!--link GreenSpaceManager to HumanResourcesManager--><g id="link_GreenSpaceManager_HumanResourcesManager"><path codeLine="137" d="M151.5072,261.16 C139.9172,276.64 133.6872,293.98 144.7272,309 C171.2072,345.02 198.8472,323.38 240.7272,339 C257.9972,345.44 276.1972,352.88 293.5672,360.3 " fill="none" id="GreenSpaceManager-HumanResourcesManager" style="stroke:#181818;stroke-width:1.0;"/><polygon fill="#000000" points="153.8274,303.0372,148.0919,295.4507,144.7281,300.2709,153.8274,303.0372" style="stroke:#000000;stroke-width:1.0;"/><text fill="#000000" font-family="sans-serif" font-size="13" lengthAdjust="spacing" textLength="49" x="158.7272" y="305.4951">employs</text><text fill="#000000" font-family="sans-serif" font-size="13" lengthAdjust="spacing" textLength="7" x="136.2643" y="282.9613">1</text><text fill="#000000" font-family="sans-serif" font-size="13" lengthAdjust="spacing" textLength="7" x="278.7761" y="353.6063">1</text></g><!--link SoftwareQualityAssessmentTeamManager to GreenSpaceManager--><g id="link_SoftwareQualityAssessmentTeamManager_GreenSpaceManager"><path codeLine="138" d="M199.7272,95.09 C199.7272,119.1 199.7272,148.9 199.7272,172.91 " fill="none" id="SoftwareQualityAssessmentTeamManager-GreenSpaceManager" style="stroke:#181818;stroke-width:1.0;"/><polygon fill="#000000" points="204.7272,129.1758,201.7882,138.2209,207.6661,138.2209,204.7272,129.1758" style="stroke:#000000;stroke-width:1.0;"/><text fill="#000000" font-family="sans-serif" font-size="13" lengthAdjust="spacing" textLength="49" x="213.7272" y="139.4951">employs</text><text fill="#000000" font-family="sans-serif" font-size="13" lengthAdjust="spacing" textLength="7" x="192.1694" y="116.8801">1</text><text fill="#000000" font-family="sans-serif" font-size="13" lengthAdjust="spacing" textLength="7" x="192.1694" y="162.0964">1</text></g><!--link GreenSpace to GreenSpaceUser--><g id="link_GreenSpace_GreenSpaceUser"><path codeLine="139" d="M579.8272,217 C617.4572,217 672.3872,217 713.8472,217 " fill="none" id="GreenSpace-GreenSpaceUser" style="stroke:#181818;stroke-width:1.0;"/><polygon fill="#000000" points="625.4772,205.1758,634.5223,208.1147,634.5223,202.2369,625.4772,205.1758" style="stroke:#000000;stroke-width:1.0;"/><text fill="#000000" font-family="sans-serif" font-size="13" lengthAdjust="spacing" textLength="28" x="639.4772" y="210.4951">uses</text><text fill="#000000" font-family="sans-serif" font-size="13" lengthAdjust="spacing" textLength="7" x="587.8365" y="213.1127">1</text><text fill="#000000" font-family="sans-serif" font-size="13" lengthAdjust="spacing" textLength="5" x="701.111" y="213.5036">*</text></g><!--link Organization to Vehicle--><g id="link_Organization_Vehicle"><path codeLine="140" d="M181.8372,463.15 C193.3772,540.7 213.3072,674.53 225.9872,759.67 " fill="none" id="Organization-Vehicle" style="stroke:#181818;stroke-width:1.0;"/><polygon fill="#000000" points="220.4635,616.6213,222.0383,607.242,216.2246,608.1076,220.4635,616.6213" style="stroke:#000000;stroke-width:1.0;"/><text fill="#000000" font-family="sans-serif" font-size="13" lengthAdjust="spacing" textLength="30" x="228.7272" y="616.9951">owns</text><text fill="#000000" font-family="sans-serif" font-size="13" lengthAdjust="spacing" textLength="7" x="175.4508" y="484.3558">1</text><text fill="#000000" font-family="sans-serif" font-size="13" lengthAdjust="spacing" textLength="5" x="219.6744" y="749.0903">*</text></g><!--link Vehicle to Checkup--><g id="link_Vehicle_Checkup"><path codeLine="141" d="M247.4172,919.13 C252.4972,978.61 254.7472,1061.91 238.7272,1133 C236.4972,1142.89 232.9272,1153.24 229.1472,1162.67 " fill="none" id="Vehicle-Checkup" style="stroke:#181818;stroke-width:1.0;"/><polygon fill="#000000" points="256.3531,1046.1618,259.9605,1037.3619,254.0991,1036.9222,256.3531,1046.1618" style="stroke:#000000;stroke-width:1.0;"/><text fill="#000000" font-family="sans-serif" font-size="13" lengthAdjust="spacing" textLength="60" x="265.7272" y="1046.4951">undergoes</text><text fill="#000000" font-family="sans-serif" font-size="13" lengthAdjust="spacing" textLength="7" x="240.9685" y="940.4509">1</text><text fill="#000000" font-family="sans-serif" font-size="13" lengthAdjust="spacing" textLength="5" x="226.7137" y="1152.1322">*</text></g><!--link HumanResourcesManager to Collaborator--><g id="link_HumanResourcesManager_Collaborator"><path codeLine="142" d="M378.2372,445.2 C376.6572,472.75 374.5672,509.09 372.7472,540.68 " fill="none" id="HumanResourcesManager-Collaborator" style="stroke:#181818;stroke-width:1.0;"/><polygon fill="#000000" points="380.4401,507.1675,383.8935,498.3061,378.0253,497.9687,380.4401,507.1675" style="stroke:#000000;stroke-width:1.0;"/><text fill="#000000" font-family="sans-serif" font-size="13" lengthAdjust="spacing" textLength="53" x="389.7272" y="507.4951">manages</text><text fill="#000000" font-family="sans-serif" font-size="13" lengthAdjust="spacing" textLength="7" x="370.2825" y="467.0076">1</text><text fill="#000000" font-family="sans-serif" font-size="13" lengthAdjust="spacing" textLength="5" x="367.9039" y="530.0512">*</text></g><!--link Collaborator to Vehicle--><g id="link_Collaborator_Vehicle"><path codeLine="143" d="M328.3572,682.15 C314.1472,706.66 298.0772,734.38 283.4572,759.6 " fill="none" id="Collaborator-Vehicle" style="stroke:#181818;stroke-width:1.0;"/><polygon fill="#000000" points="310.2195,725.5014,317.2985,719.1502,312.2134,716.2022,310.2195,725.5014" style="stroke:#000000;stroke-width:1.0;"/><text fill="#000000" font-family="sans-serif" font-size="13" lengthAdjust="spacing" textLength="28" x="321.7272" y="726.4951">uses</text><text fill="#000000" font-family="sans-serif" font-size="13" lengthAdjust="spacing" textLength="7" x="316.8331" y="703.7603">1</text><text fill="#000000" font-family="sans-serif" font-size="13" lengthAdjust="spacing" textLength="20" x="266.751" y="749.0138">0..*</text></g><!--link HumanResourcesManager to Skill--><g id="link_HumanResourcesManager_Skill"><path codeLine="144" d="M455.4772,445.18 C492.9472,466.99 531.1572,489.57 534.7272,493 C636.7472,590.9 667.6372,624.4 707.7272,760 C733.8772,848.46 722.4972,879.69 692.7272,967 C687.3172,982.86 680.8172,1000.48 675.5472,1014.44 " fill="none" id="HumanResourcesManager-Skill" style="stroke:#181818;stroke-width:1.0;"/><polygon fill="#000000" points="703.5301,725.8394,703.0098,716.3431,697.5274,718.4625,703.5301,725.8394" style="stroke:#000000;stroke-width:1.0;"/><text fill="#000000" font-family="sans-serif" font-size="13" lengthAdjust="spacing" textLength="50" x="710.7272" y="726.4951">registers</text><text fill="#000000" font-family="sans-serif" font-size="13" lengthAdjust="spacing" textLength="7" x="459.8326" y="466.9845">1</text><text fill="#000000" font-family="sans-serif" font-size="13" lengthAdjust="spacing" textLength="5" x="672.3314" y="1003.5273">*</text></g><!--link HumanResourcesManager to Job--><g id="link_HumanResourcesManager_Job"><path codeLine="145" d="M416.8372,445.4 C428.4872,460.14 441.1172,476.95 451.7272,493 C471.7772,523.34 491.5272,560.34 503.8972,584.61 " fill="none" id="HumanResourcesManager-Job" style="stroke:#181818;stroke-width:1.0;"/><polygon fill="#000000" points="469.3783,506.415,467.0741,497.1878,462.0906,500.3045,469.3783,506.415" style="stroke:#000000;stroke-width:1.0;"/><text fill="#000000" font-family="sans-serif" font-size="13" lengthAdjust="spacing" textLength="50" x="475.7272" y="507.4951">registers</text><text fill="#000000" font-family="sans-serif" font-size="13" lengthAdjust="spacing" textLength="7" x="414.8306" y="466.9123">1</text><text fill="#000000" font-family="sans-serif" font-size="13" lengthAdjust="spacing" textLength="5" x="495.3521" y="574.0522">*</text></g><!--link Collaborator to Skill--><g id="link_Collaborator_Skill"><path codeLine="146" d="M422.2472,648.09 C439.2172,659.15 458.1472,671.26 475.7272,682 C535.1872,718.33 571.2272,703.3 611.7272,760 C668.2772,839.16 669.8272,961.77 667.4972,1014.48 " fill="none" id="Collaborator-Skill" style="stroke:#181818;stroke-width:1.0;"/><polygon fill="#000000" points="671.5084,843.8308,668.9194,834.6795,664.0348,837.9491,671.5084,843.8308" style="stroke:#000000;stroke-width:1.0;"/><text fill="#000000" font-family="sans-serif" font-size="13" lengthAdjust="spacing" textLength="21" x="677.7272" y="844.9951">has</text><text fill="#000000" font-family="sans-serif" font-size="13" lengthAdjust="spacing" textLength="7" x="430.2656" y="649.6116">1</text><text fill="#000000" font-family="sans-serif" font-size="13" lengthAdjust="spacing" textLength="5" x="662.3192" y="1003.5771">*</text></g><!--link Collaborator to Job--><g id="link_Collaborator_Job"><path codeLine="147" d="M422.5772,611.5 C446.7072,611.5 473.9372,611.5 492.8872,611.5 " fill="none" id="Collaborator-Job" style="stroke:#181818;stroke-width:1.0;"/><polygon fill="#000000" points="449.7272,599.6758,440.6821,596.7369,440.6821,602.6147,449.7272,599.6758" style="stroke:#000000;stroke-width:1.0;"/><text fill="#000000" font-family="sans-serif" font-size="13" lengthAdjust="spacing" textLength="21" x="453.7272" y="604.9951">has</text><text fill="#000000" font-family="sans-serif" font-size="13" lengthAdjust="spacing" textLength="7" x="430.2836" y="607.9259">1</text><text fill="#000000" font-family="sans-serif" font-size="13" lengthAdjust="spacing" textLength="7" x="478.1978" y="606.7638">1</text></g><!--link Collaborator to ID--><g id="link_Collaborator_ID"><path codeLine="148" d="M368.7272,682.15 C368.7272,722.49 368.7272,771.51 368.7272,803.78 " fill="none" id="Collaborator-ID" style="stroke:#181818;stroke-width:1.0;"/><polygon fill="#000000" points="373.7272,726.1758,376.6661,717.1307,370.7882,717.1307,373.7272,726.1758" style="stroke:#000000;stroke-width:1.0;"/><text fill="#000000" font-family="sans-serif" font-size="13" lengthAdjust="spacing" textLength="21" x="382.7272" y="726.4951">has</text><text fill="#000000" font-family="sans-serif" font-size="13" lengthAdjust="spacing" textLength="7" x="361.3662" y="703.7603">1</text><text fill="#000000" font-family="sans-serif" font-size="13" lengthAdjust="spacing" textLength="7" x="361.0819" y="793.2625">1</text></g><!--link Vehicle to FleetManager--><g id="link_Vehicle_FleetManager"><path codeLine="149" d="M189.5172,919.16 C183.9772,929.09 178.5772,939.2 173.7272,949 C166.1672,964.29 158.8572,981.51 152.7772,996.84 " fill="none" id="Vehicle-FleetManager" style="stroke:#181818;stroke-width:1.0;"/><polygon fill="#000000" points="180.8649,953.6558,174.3409,960.5759,179.6544,963.089,180.8649,953.6558" style="stroke:#000000;stroke-width:1.0;"/><text fill="#000000" font-family="sans-serif" font-size="13" lengthAdjust="spacing" textLength="56" x="187.7272" y="963.4951">maintains</text><text fill="#000000" font-family="sans-serif" font-size="13" lengthAdjust="spacing" textLength="5" x="180.0008" y="940.4836">*</text><text fill="#000000" font-family="sans-serif" font-size="13" lengthAdjust="spacing" textLength="7" x="147.7773" y="986.0153">1</text></g><!--link FleetManager to Checkup--><g id="link_FleetManager_Checkup"><path codeLine="150" d="M157.8972,1085.32 C169.8472,1109.76 184.5672,1139.89 195.7572,1162.77 " fill="none" id="FleetManager-Checkup" style="stroke:#181818;stroke-width:1.0;"/><polygon fill="#000000" points="186.923,1128.6678,185.591,1119.251,180.3103,1121.8323,186.923,1128.6678" style="stroke:#000000;stroke-width:1.0;"/><text fill="#000000" font-family="sans-serif" font-size="13" lengthAdjust="spacing" textLength="36" x="193.7272" y="1129.4951">orders</text><text fill="#000000" font-family="sans-serif" font-size="13" lengthAdjust="spacing" textLength="7" x="153.6029" y="1106.82">1</text><text fill="#000000" font-family="sans-serif" font-size="13" lengthAdjust="spacing" textLength="5" x="187.1674" y="1152.2507">*</text></g><!--link Team to Task--><g id="link_Team_Task"><path codeLine="151" d="M479.9472,866.29 C457.0072,886.08 428.5772,915.6 415.7272,949 C408.9072,966.73 409.7972,987.84 412.6672,1005.25 " fill="none" id="Team-Task" style="stroke:#181818;stroke-width:1.0;"/><polygon fill="#000000" points="418.5483,962.6761,425.1351,955.8157,419.8447,953.2543,418.5483,962.6761" style="stroke:#000000;stroke-width:1.0;"/><text fill="#000000" font-family="sans-serif" font-size="13" lengthAdjust="spacing" textLength="61" x="429.7272" y="963.4951">carries out</text><text fill="#000000" font-family="sans-serif" font-size="13" lengthAdjust="spacing" textLength="7" x="464.3262" y="887.8457">1</text><text fill="#000000" font-family="sans-serif" font-size="13" lengthAdjust="spacing" textLength="7" x="403.3514" y="994.727">1</text></g><!--link Team to Skill--><g id="link_Team_Skill"><path codeLine="152" d="M510.9972,866.19 C509.4372,893.6 510.9872,937.11 531.7272,967 C558.2372,1005.2 611.3772,1025.33 642.1772,1034.22 " fill="none" id="Team-Skill" style="stroke:#181818;stroke-width:1.0;"/><polygon fill="#000000" points="539.804,962.117,536.5545,953.1788,531.9214,956.7958,539.804,962.117" style="stroke:#000000;stroke-width:1.0;"/><text fill="#000000" font-family="sans-serif" font-size="13" lengthAdjust="spacing" textLength="93" x="545.7272" y="963.4951">requires a set of</text><text fill="#000000" font-family="sans-serif" font-size="13" lengthAdjust="spacing" textLength="7" x="502.5565" y="887.7225">1</text><text fill="#000000" font-family="sans-serif" font-size="13" lengthAdjust="spacing" textLength="5" x="629.1994" y="1027.2091">*</text></g><!--link Collaborator to Team--><g id="link_Collaborator_Team"><path codeLine="153" d="M413.4172,682.15 C441.8772,726.51 477.0672,781.37 497.3072,812.91 " fill="none" id="Collaborator-Team" style="stroke:#181818;stroke-width:1.0;"/><polygon fill="#000000" points="449.4271,725.3842,447.0165,716.1842,442.0693,719.3581,449.4271,725.3842" style="stroke:#000000;stroke-width:1.0;"/><text fill="#000000" font-family="sans-serif" font-size="13" lengthAdjust="spacing" textLength="25" x="455.7272" y="726.4951">form</text><text fill="#000000" font-family="sans-serif" font-size="13" lengthAdjust="spacing" textLength="5" x="412.768" y="703.7603">*</text><text fill="#000000" font-family="sans-serif" font-size="13" lengthAdjust="spacing" textLength="7" x="485.4517" y="801.99">1</text></g><!--link Pipe to IrrigationNetwork--><g id="link_Pipe_IrrigationNetwork"><path codeLine="154" d="M1011.6172,243.69 C1021.7972,273.09 1038.6272,321.7 1050.8172,356.92 " fill="none" id="Pipe-IrrigationNetwork" style="stroke:#181818;stroke-width:1.0;"/><polygon fill="#000000" points="1040.3629,304.9006,1040.181,295.3918,1034.6266,297.3147,1040.3629,304.9006" style="stroke:#000000;stroke-width:1.0;"/><text fill="#000000" font-family="sans-serif" font-size="13" lengthAdjust="spacing" textLength="25" x="1047.7272" y="305.4951">form</text><text fill="#000000" font-family="sans-serif" font-size="13" lengthAdjust="spacing" textLength="5" x="1008.0949" y="265.2225">*</text><text fill="#000000" font-family="sans-serif" font-size="13" lengthAdjust="spacing" textLength="7" x="1040.8831" y="346.108">1</text></g><!--link Algorithm to IrrigationNetwork--><g id="link_Algorithm_IrrigationNetwork"><path codeLine="155" d="M1102.6572,243.69 C1095.7172,273.09 1084.2272,321.7 1075.9072,356.92 " fill="none" id="Algorithm-IrrigationNetwork" style="stroke:#181818;stroke-width:1.0;"/><polygon fill="#000000" points="1094.5776,305.0418,1099.5174,296.9148,1093.797,295.5634,1094.5776,305.0418" style="stroke:#000000;stroke-width:1.0;"/><text fill="#000000" font-family="sans-serif" font-size="13" lengthAdjust="spacing" textLength="57" x="1104.7272" y="305.4951">generates</text><text fill="#000000" font-family="sans-serif" font-size="13" lengthAdjust="spacing" textLength="7" x="1093.4441" y="265.2225">1</text><text fill="#000000" font-family="sans-serif" font-size="13" lengthAdjust="spacing" textLength="5" x="1072.1312" y="346.108">*</text></g><!--link SoftwareQualityAssessmentTeamManager to Algorithm--><g id="link_SoftwareQualityAssessmentTeamManager_Algorithm"><path codeLine="156" d="M336.2872,54.51 C506.0472,61.47 802.3772,86.31 1039.7272,173 C1051.5272,177.31 1063.4572,183.82 1074.0072,190.48 " fill="none" id="SoftwareQualityAssessmentTeamManager-Algorithm" style="stroke:#181818;stroke-width:1.0;"/><polygon fill="#000000" points="939.6443,135.0821,931.2818,130.5523,930.2164,136.3328,939.6443,135.0821" style="stroke:#000000;stroke-width:1.0;"/><text fill="#000000" font-family="sans-serif" font-size="13" lengthAdjust="spacing" textLength="29" x="943.7272" y="139.4951">tests</text><text fill="#000000" font-family="sans-serif" font-size="13" lengthAdjust="spacing" textLength="7" x="344.3844" y="51.7431">1</text><text fill="#000000" font-family="sans-serif" font-size="13" lengthAdjust="spacing" textLength="7" x="1057.691" y="179.5771">1</text></g><!--link GreenSpaceUser to InfoSurvey--><g id="link_GreenSpaceUser_InfoSurvey"><path codeLine="157" d="M739.3672,252.74 C722.6472,270.15 701.6272,291.26 681.7272,309 C663.3872,325.35 642.4872,342.24 623.5272,356.95 " fill="none" id="GreenSpaceUser-InfoSurvey" style="stroke:#181818;stroke-width:1.0;"/><polygon fill="#000000" points="700.01,303.5198,708.7,299.6553,704.7689,295.2855,700.01,303.5198" style="stroke:#000000;stroke-width:1.0;"/><text fill="#000000" font-family="sans-serif" font-size="13" lengthAdjust="spacing" textLength="48" x="712.7272" y="305.4951">answers</text><text fill="#000000" font-family="sans-serif" font-size="13" lengthAdjust="spacing" textLength="5" x="728.3756" y="273.7979">*</text><text fill="#000000" font-family="sans-serif" font-size="13" lengthAdjust="spacing" textLength="7" x="625.1812" y="346.1428">1</text></g><!--link GreenSpaceUser to EquipmentSurvey--><g id="link_GreenSpaceUser_EquipmentSurvey"><path codeLine="158" d="M779.1972,252.74 C781.4472,264.79 783.6172,278.43 784.7272,291 C786.9472,316.11 781.6572,344.06 775.9572,365.37 " fill="none" id="GreenSpaceUser-EquipmentSurvey" style="stroke:#181818;stroke-width:1.0;"/><polygon fill="#000000" points="789.5834,305.1737,792.7812,296.2169,786.9058,296.0479,789.5834,305.1737" style="stroke:#000000;stroke-width:1.0;"/><text fill="#000000" font-family="sans-serif" font-size="13" lengthAdjust="spacing" textLength="48" x="798.7272" y="305.4951">answers</text><text fill="#000000" font-family="sans-serif" font-size="13" lengthAdjust="spacing" textLength="5" x="775.0514" y="273.7979">*</text><text fill="#000000" font-family="sans-serif" font-size="13" lengthAdjust="spacing" textLength="7" x="770.4307" y="354.598">1</text></g><!--link GreenSpaceUser to UserPortal--><g id="link_GreenSpaceUser_UserPortal"><path codeLine="159" d="M816.1772,252.62 C829.6172,264.11 843.9272,277.45 855.7272,291 C875.7472,313.99 894.3972,343.05 907.5572,365.38 " fill="none" id="GreenSpaceUser-UserPortal" style="stroke:#181818;stroke-width:1.0;"/><polygon fill="#000000" points="876.8752,304.0604,873.4636,295.1827,868.8971,298.8835,876.8752,304.0604" style="stroke:#000000;stroke-width:1.0;"/><text fill="#000000" font-family="sans-serif" font-size="13" lengthAdjust="spacing" textLength="28" x="882.7272" y="305.4951">uses</text><text fill="#000000" font-family="sans-serif" font-size="13" lengthAdjust="spacing" textLength="5" x="818.6495" y="273.9315">*</text><text fill="#000000" font-family="sans-serif" font-size="13" lengthAdjust="spacing" textLength="7" x="896.2357" y="354.6099">1</text></g><!--link GreenSpaceManager to InfoSurvey--><g id="link_GreenSpaceManager_InfoSurvey"><path codeLine="160" d="M213.0672,261.19 C220.7072,278.79 232.1572,297.63 248.7272,309 C335.8972,368.85 386.7672,299.2 484.7272,339 C495.8172,343.51 506.7272,349.92 516.7772,356.92 " fill="none" id="GreenSpaceManager-InfoSurvey" style="stroke:#181818;stroke-width:1.0;"/><polygon fill="#000000" points="258.4959,301.6789,250.7527,296.1568,248.9857,301.7627,258.4959,301.6789" style="stroke:#000000;stroke-width:1.0;"/><text fill="#000000" font-family="sans-serif" font-size="13" lengthAdjust="spacing" textLength="85" x="262.7272" y="305.4951">checks results</text><text fill="#000000" font-family="sans-serif" font-size="13" lengthAdjust="spacing" textLength="7" x="207.6354" y="282.9961">1</text><text fill="#000000" font-family="sans-serif" font-size="13" lengthAdjust="spacing" textLength="7" x="501.4179" y="346.108">1</text></g><!--link GreenSpaceManager to EquipmentSurvey--><g id="link_GreenSpaceManager_EquipmentSurvey"><path codeLine="161" d="M271.0572,250.82 C296.9672,263.05 326.3472,277.31 352.7272,291 C367.2072,298.52 369.2072,303.97 384.7272,309 C495.3772,344.89 533.3472,305.45 644.7272,339 C665.8772,345.37 687.7572,355.35 706.9572,365.41 " fill="none" id="GreenSpaceManager-EquipmentSurvey" style="stroke:#181818;stroke-width:1.0;"/><polygon fill="#000000" points="394.5629,301.447,386.5622,296.305,385.0678,301.9897,394.5629,301.447" style="stroke:#000000;stroke-width:1.0;"/><text fill="#000000" font-family="sans-serif" font-size="13" lengthAdjust="spacing" textLength="85" x="398.7272" y="305.4951">checks results</text><text fill="#000000" font-family="sans-serif" font-size="13" lengthAdjust="spacing" textLength="7" x="278.774" y="250.9734">1</text><text fill="#000000" font-family="sans-serif" font-size="13" lengthAdjust="spacing" textLength="7" x="691.3411" y="356.8121">1</text></g><!--link GreenSpace to IrrigationNetwork--><g id="link_GreenSpace_IrrigationNetwork"><path codeLine="162" d="M560.6772,261.44 C572.9072,279.31 589.4972,298.3 609.7272,309 C759.8672,388.44 833.0272,275.89 990.7272,339 C1001.4772,343.3 1011.8872,349.72 1021.3472,356.79 " fill="none" id="GreenSpace-IrrigationNetwork" style="stroke:#181818;stroke-width:1.0;"/><polygon fill="#000000" points="619.6234,301.1892,611.3617,296.478,610.1704,302.2338,619.6234,301.1892" style="stroke:#000000;stroke-width:1.0;"/><text fill="#000000" font-family="sans-serif" font-size="13" lengthAdjust="spacing" textLength="49" x="623.7272" y="305.4951">contains</text><text fill="#000000" font-family="sans-serif" font-size="13" lengthAdjust="spacing" textLength="7" x="556.8086" y="282.9584">1</text><text fill="#000000" font-family="sans-serif" font-size="13" lengthAdjust="spacing" textLength="7" x="1007.0155" y="346.2839">1</text></g><!--SRC=[dLR9Rjim4BthAuWS0wHehpuK2BgcGDCsRdiVKsE9C4MgNEAwGV-z8r8IALkAamPmG8dllLauCvJT2TM2WOOrMcbU6zqWSyPZOSUT5lWEAboxWqHca3jGbSm1jePIxuMgs1QanIBRuXAilNREY8rtUCErMei_o5uMHIrAP5mOJb9XtQ2hTMcB8d3O1uEercGR7mf6Vr9pa645PMdGshWs2CNVWVF5LA347t12AnPf2XeCYtjmjxxPe0bFUznOuU9EMsk5sHus86GI_Ocr82TxlLQ2GwOIUcD0bM7b3cqKR7I9qLNkZK7bsAw9ZpNodM_Prk0lZueVmjjTmy0nikK6G3B-fcSyJEJkUvTwsU5nujieyLuYki-Ww0ZDSL9Yg6CI4kcZRq3TeTNUSBJFPQUp-t_c3xj4IydHKi966t3w1BeHnjKbz4SCPIEixQeYUvMgQD6TcxUzxdYsnzdzf3UvwV7zUYUadDtvZjGN3vdObsqUYCsGO7V7SPLekH5jL-49-5MqGtroRLtclp6Y2krmYswlpI3dj0FvfeFcRdGoTlBcbYevSsYjjsvFBVVDWnJkS6qjPR2XYknYUkvHNyjA6-7g8Hdu6xdlNFqkydIz- -L5szbOUtEFXm4yl0rFtfBbB6grrHCqxTxHq8eExRMNvHroJgEkxznxGSFW_TYKer1NWr-reLmDGbdHr9I-py1h4OEQp9wBLnViYbrSNanhTCLgiEprB9R-Jphr37Q-GPT9lesyqzOyptdIiP-HkSnD4rZlLOS-TIU5EC4tOViH2jr0QZQDsBHI7yuPMyhdMVOpapId5qPTbw4hYLit4xotk5GAnEelg36dmuML5M6yHKX8bMWg7TJc8yvpULg-wHGc6u54X9SlNYH_aj-FM8fMuh1SqST59Qn3yoHIDtcdb5cVClbOeASecf5rd_OekWIC6BeK1iYar2R5df90yqyv-itZ9mVKzOKfOp3XciYiXijWnJZGIAUiQk-EGPD4qdoaISM0MNHCRq_2kKp2dSQARRLf21Mkacptz0OPeMc0PnxCuIjKI6P3BJofJRAmav4L8mMtr3czjsdohnWeku-vN2OStovFOsNtmbZaZmsNYLlX6y_I4LaltJdcgN-Fq3l6rTAXqQVtK8N5Fm00]--></g></svg>