<?xml version="1.0" encoding="UTF-8" standalone="no"?><svg xmlns="http://www.w3.org/2000/svg" xmlns:xlink="http://www.w3.org/1999/xlink" contentStyleType="text/css" height="1213px" preserveAspectRatio="none" style="width:1775px;height:1213px;background:#FFFFFF;" version="1.1" viewBox="0 0 1775 1213" width="1775px" zoomAndPan="magnify"><defs/><g><rect fill="#FFFFFF" height="1020.5625" style="stroke:#181818;stroke-width:1.0;" width="10" x="91" y="92.6094"/><rect fill="#FFFFFF" height="30.3516" style="stroke:#181818;stroke-width:1.0;" width="10" x="410" y="114.9609"/><rect fill="#FFFFFF" height="332.125" style="stroke:#181818;stroke-width:1.0;" width="10" x="410" y="175.6641"/><rect fill="#FFFFFF" height="30.3516" style="stroke:#181818;stroke-width:1.0;" width="10" x="410" y="538.1406"/><rect fill="#FFFFFF" height="514.3281" style="stroke:#181818;stroke-width:1.0;" width="10" x="410" y="598.8438"/><rect fill="#FFFFFF" height="212.4609" style="stroke:#181818;stroke-width:1.0;" width="10" x="810" y="248.625"/><rect fill="#FFFFFF" height="420.9219" style="stroke:#181818;stroke-width:1.0;" width="10" x="810" y="661.8984"/><rect fill="#FFFFFF" height="30.3516" style="stroke:#181818;stroke-width:1.0;" width="10" x="974" y="278.9766"/><rect fill="#FFFFFF" height="30.3516" style="stroke:#181818;stroke-width:1.0;" width="10" x="1081" y="339.6797"/><rect fill="#FFFFFF" height="30.3516" style="stroke:#181818;stroke-width:1.0;" width="10" x="1081" y="692.25"/><rect fill="#FFFFFF" height="30.3516" style="stroke:#181818;stroke-width:1.0;" width="10" x="1192" y="400.3828"/><rect fill="#FFFFFF" height="266.8125" style="stroke:#181818;stroke-width:1.0;" width="10" x="1335" y="785.6563"/><rect fill="#FFFFFF" height="128.0547" style="stroke:#181818;stroke-width:1.0;" width="10" x="1340" y="887.0625"/><rect fill="#FFFFFF" height="41.3516" style="stroke:#181818;stroke-width:1.0;" width="10" x="1345" y="930.4141"/><line style="stroke:#181818;stroke-width:0.5;stroke-dasharray:5.0,5.0;" x1="96" x2="96" y1="82.6094" y2="1131.1719"/><line style="stroke:#181818;stroke-width:0.5;stroke-dasharray:5.0,5.0;" x1="414.5" x2="414.5" y1="82.6094" y2="1131.1719"/><line style="stroke:#181818;stroke-width:0.5;stroke-dasharray:5.0,5.0;" x1="814.5" x2="814.5" y1="214.9688" y2="1131.1719"/><line style="stroke:#181818;stroke-width:0.5;stroke-dasharray:5.0,5.0;" x1="978.5" x2="978.5" y1="82.6094" y2="1131.1719"/><line style="stroke:#181818;stroke-width:0.5;stroke-dasharray:5.0,5.0;" x1="1085.5" x2="1085.5" y1="82.6094" y2="1131.1719"/><line style="stroke:#181818;stroke-width:0.5;stroke-dasharray:5.0,5.0;" x1="1196.5" x2="1196.5" y1="82.6094" y2="1131.1719"/><line style="stroke:#181818;stroke-width:0.5;stroke-dasharray:5.0,5.0;" x1="1339.5" x2="1339.5" y1="82.6094" y2="1131.1719"/><line style="stroke:#181818;stroke-width:0.5;stroke-dasharray:5.0,5.0;" x1="1723" x2="1723" y1="835.1836" y2="1131.1719"/><text fill="#000000" font-family="sans-serif" font-size="14" lengthAdjust="spacing" textLength="176" x="5" y="79.5332">Human Resources Manager</text><ellipse cx="96" cy="13.5" fill="#E3E3E3" rx="8" ry="8" style="stroke:#181818;stroke-width:0.5;"/><path d="M96,21.5 L96,48.5 M83,29.5 L109,29.5 M96,48.5 L83,63.5 M96,48.5 L109,63.5 " fill="none" style="stroke:#181818;stroke-width:0.5;"/><text fill="#000000" font-family="sans-serif" font-size="14" lengthAdjust="spacing" textLength="176" x="5" y="1144.7051">Human Resources Manager</text><ellipse cx="96" cy="1156.2813" fill="#E3E3E3" rx="8" ry="8" style="stroke:#181818;stroke-width:0.5;"/><path d="M96,1164.2813 L96,1191.2813 M83,1172.2813 L109,1172.2813 M96,1191.2813 L83,1206.2813 M96,1191.2813 L109,1206.2813 " fill="none" style="stroke:#181818;stroke-width:0.5;"/><rect fill="#E3E3E3" height="31.6094" rx="2.5" ry="2.5" style="stroke:#181818;stroke-width:0.5;" width="161" x="334.5" y="50"/><text fill="#000000" font-family="sans-serif" font-size="14" lengthAdjust="spacing" textLength="147" x="341.5" y="71.5332">:RegisterCollaboratorUI</text><rect fill="#E3E3E3" height="31.6094" rx="2.5" ry="2.5" style="stroke:#181818;stroke-width:0.5;" width="161" x="334.5" y="1130.1719"/><text fill="#000000" font-family="sans-serif" font-size="14" lengthAdjust="spacing" textLength="147" x="341.5" y="1151.7051">:RegisterCollaboratorUI</text><rect fill="#E3E3E3" height="31.6094" rx="2.5" ry="2.5" style="stroke:#181818;stroke-width:0.5;" width="211" x="709.5" y="1130.1719"/><text fill="#000000" font-family="sans-serif" font-size="14" lengthAdjust="spacing" textLength="197" x="716.5" y="1151.7051">:RegisterCollaboratorController</text><rect fill="#E3E3E3" height="31.6094" rx="2.5" ry="2.5" style="stroke:#181818;stroke-width:0.5;" width="97" x="930.5" y="50"/><text fill="#000000" font-family="sans-serif" font-size="14" lengthAdjust="spacing" textLength="83" x="937.5" y="71.5332">:Repositories</text><rect fill="#E3E3E3" height="31.6094" rx="2.5" ry="2.5" style="stroke:#181818;stroke-width:0.5;" width="97" x="930.5" y="1130.1719"/><text fill="#000000" font-family="sans-serif" font-size="14" lengthAdjust="spacing" textLength="83" x="937.5" y="1151.7051">:Repositories</text><rect fill="#E3E3E3" height="49.2188" rx="2.5" ry="2.5" style="stroke:#181818;stroke-width:0.5;" width="97" x="1037.5" y="32.3906"/><text fill="#000000" font-family="sans-serif" font-size="14" lengthAdjust="spacing" textLength="74" x="1049" y="53.9238">repositories</text><text fill="#000000" font-family="sans-serif" font-size="14" lengthAdjust="spacing" textLength="83" x="1044.5" y="71.5332">:Repositories</text><rect fill="#E3E3E3" height="49.2188" rx="2.5" ry="2.5" style="stroke:#181818;stroke-width:0.5;" width="97" x="1037.5" y="1130.1719"/><text fill="#000000" font-family="sans-serif" font-size="14" lengthAdjust="spacing" textLength="74" x="1049" y="1151.7051">repositories</text><text fill="#000000" font-family="sans-serif" font-size="14" lengthAdjust="spacing" textLength="83" x="1044.5" y="1169.3145">:Repositories</text><rect fill="#E3E3E3" height="49.2188" rx="2.5" ry="2.5" style="stroke:#181818;stroke-width:0.5;" width="105" x="1144.5" y="32.3906"/><text fill="#000000" font-family="sans-serif" font-size="14" lengthAdjust="spacing" textLength="91" x="1151.5" y="53.9238">jobRepository:</text><text fill="#000000" font-family="sans-serif" font-size="14" lengthAdjust="spacing" textLength="90" x="1152" y="71.5332">JobRepository</text><rect fill="#E3E3E3" height="49.2188" rx="2.5" ry="2.5" style="stroke:#181818;stroke-width:0.5;" width="105" x="1144.5" y="1130.1719"/><text fill="#000000" font-family="sans-serif" font-size="14" lengthAdjust="spacing" textLength="91" x="1151.5" y="1151.7051">jobRepository:</text><text fill="#000000" font-family="sans-serif" font-size="14" lengthAdjust="spacing" textLength="90" x="1152" y="1169.3145">JobRepository</text><rect fill="#E3E3E3" height="49.2188" rx="2.5" ry="2.5" style="stroke:#181818;stroke-width:0.5;" width="161" x="1259.5" y="32.3906"/><text fill="#000000" font-family="sans-serif" font-size="14" lengthAdjust="spacing" textLength="147" x="1266.5" y="53.9238">collaboratorRepository:</text><text fill="#000000" font-family="sans-serif" font-size="14" lengthAdjust="spacing" textLength="146" x="1267" y="71.5332">CollaboratorRepository</text><rect fill="#E3E3E3" height="49.2188" rx="2.5" ry="2.5" style="stroke:#181818;stroke-width:0.5;" width="161" x="1259.5" y="1130.1719"/><text fill="#000000" font-family="sans-serif" font-size="14" lengthAdjust="spacing" textLength="147" x="1266.5" y="1151.7051">collaboratorRepository:</text><text fill="#000000" font-family="sans-serif" font-size="14" lengthAdjust="spacing" textLength="146" x="1267" y="1169.3145">CollaboratorRepository</text><rect fill="#E3E3E3" height="49.2188" rx="2.5" ry="2.5" style="stroke:#181818;stroke-width:0.5;" width="92" x="1677" y="1130.1719"/><text fill="#000000" font-family="sans-serif" font-size="14" lengthAdjust="spacing" textLength="75" x="1685.5" y="1151.7051">collaborator</text><text fill="#000000" font-family="sans-serif" font-size="14" lengthAdjust="spacing" textLength="78" x="1684" y="1169.3145">Collaborator</text><rect fill="#FFFFFF" height="1020.5625" style="stroke:#181818;stroke-width:1.0;" width="10" x="91" y="92.6094"/><rect fill="#FFFFFF" height="30.3516" style="stroke:#181818;stroke-width:1.0;" width="10" x="410" y="114.9609"/><rect fill="#FFFFFF" height="332.125" style="stroke:#181818;stroke-width:1.0;" width="10" x="410" y="175.6641"/><rect fill="#FFFFFF" height="30.3516" style="stroke:#181818;stroke-width:1.0;" width="10" x="410" y="538.1406"/><rect fill="#FFFFFF" height="514.3281" style="stroke:#181818;stroke-width:1.0;" width="10" x="410" y="598.8438"/><rect fill="#FFFFFF" height="212.4609" style="stroke:#181818;stroke-width:1.0;" width="10" x="810" y="248.625"/><rect fill="#FFFFFF" height="420.9219" style="stroke:#181818;stroke-width:1.0;" width="10" x="810" y="661.8984"/><rect fill="#FFFFFF" height="30.3516" style="stroke:#181818;stroke-width:1.0;" width="10" x="974" y="278.9766"/><rect fill="#FFFFFF" height="30.3516" style="stroke:#181818;stroke-width:1.0;" width="10" x="1081" y="339.6797"/><rect fill="#FFFFFF" height="30.3516" style="stroke:#181818;stroke-width:1.0;" width="10" x="1081" y="692.25"/><rect fill="#FFFFFF" height="30.3516" style="stroke:#181818;stroke-width:1.0;" width="10" x="1192" y="400.3828"/><rect fill="#FFFFFF" height="266.8125" style="stroke:#181818;stroke-width:1.0;" width="10" x="1335" y="785.6563"/><rect fill="#FFFFFF" height="128.0547" style="stroke:#181818;stroke-width:1.0;" width="10" x="1340" y="887.0625"/><rect fill="#FFFFFF" height="41.3516" style="stroke:#181818;stroke-width:1.0;" width="10" x="1345" y="930.4141"/><polygon fill="#181818" points="398,110.9609,408,114.9609,398,118.9609,402,114.9609" style="stroke:#181818;stroke-width:1.0;"/><line style="stroke:#181818;stroke-width:1.0;" x1="101" x2="404" y1="114.9609" y2="114.9609"/><text fill="#000000" font-family="sans-serif" font-size="13" font-weight="bold" lengthAdjust="spacing" textLength="7" x="108" y="110.1045">1</text><text fill="#000000" font-family="sans-serif" font-size="13" lengthAdjust="spacing" textLength="199" x="119" y="110.1045">asks to register a new collaborator</text><polygon fill="#181818" points="112,141.3125,102,145.3125,112,149.3125,108,145.3125" style="stroke:#181818;stroke-width:1.0;"/><line style="stroke:#181818;stroke-width:1.0;stroke-dasharray:2.0,2.0;" x1="106" x2="414" y1="145.3125" y2="145.3125"/><text fill="#000000" font-family="sans-serif" font-size="13" font-weight="bold" lengthAdjust="spacing" textLength="7" x="118" y="140.4561">2</text><text fill="#000000" font-family="sans-serif" font-size="13" lengthAdjust="spacing" textLength="129" x="129" y="140.4561">requests required data</text><polygon fill="#181818" points="398,171.6641,408,175.6641,398,179.6641,402,175.6641" style="stroke:#181818;stroke-width:1.0;"/><line style="stroke:#181818;stroke-width:1.0;" x1="101" x2="404" y1="175.6641" y2="175.6641"/><text fill="#000000" font-family="sans-serif" font-size="13" font-weight="bold" lengthAdjust="spacing" textLength="7" x="108" y="170.8076">3</text><text fill="#000000" font-family="sans-serif" font-size="13" lengthAdjust="spacing" textLength="122" x="119" y="170.8076">types requested data</text><polygon fill="#181818" points="697.5,202.0156,707.5,206.0156,697.5,210.0156,701.5,206.0156" style="stroke:#181818;stroke-width:1.0;"/><line style="stroke:#181818;stroke-width:1.0;" x1="420" x2="703.5" y1="206.0156" y2="206.0156"/><text fill="#000000" font-family="sans-serif" font-size="13" font-weight="bold" lengthAdjust="spacing" textLength="7" x="427" y="201.1592">4</text><text fill="#000000" font-family="sans-serif" font-size="13" lengthAdjust="spacing" textLength="44" x="438" y="201.1592">create()</text><rect fill="#E3E3E3" height="31.6094" rx="2.5" ry="2.5" style="stroke:#181818;stroke-width:0.5;" width="211" x="709.5" y="183.6641"/><text fill="#000000" font-family="sans-serif" font-size="14" lengthAdjust="spacing" textLength="197" x="716.5" y="205.1973">:RegisterCollaboratorController</text><polygon fill="#181818" points="798,244.625,808,248.625,798,252.625,802,248.625" style="stroke:#181818;stroke-width:1.0;"/><line style="stroke:#181818;stroke-width:1.0;" x1="420" x2="804" y1="248.625" y2="248.625"/><text fill="#000000" font-family="sans-serif" font-size="13" font-weight="bold" lengthAdjust="spacing" textLength="7" x="427" y="243.7686">5</text><text fill="#000000" font-family="sans-serif" font-size="13" lengthAdjust="spacing" textLength="67" x="438" y="243.7686">getJobList()</text><polygon fill="#181818" points="962,274.9766,972,278.9766,962,282.9766,966,278.9766" style="stroke:#181818;stroke-width:1.0;"/><line style="stroke:#181818;stroke-width:1.0;" x1="820" x2="968" y1="278.9766" y2="278.9766"/><text fill="#000000" font-family="sans-serif" font-size="13" font-weight="bold" lengthAdjust="spacing" textLength="7" x="827" y="274.1201">6</text><text fill="#000000" font-family="sans-serif" font-size="13" lengthAdjust="spacing" textLength="75" x="838" y="274.1201">getInstance()</text><polygon fill="#181818" points="831,305.3281,821,309.3281,831,313.3281,827,309.3281" style="stroke:#181818;stroke-width:1.0;"/><line style="stroke:#181818;stroke-width:1.0;stroke-dasharray:2.0,2.0;" x1="825" x2="978" y1="309.3281" y2="309.3281"/><text fill="#000000" font-family="sans-serif" font-size="13" font-weight="bold" lengthAdjust="spacing" textLength="7" x="837" y="304.4717">7</text><text fill="#000000" font-family="sans-serif" font-size="13" lengthAdjust="spacing" textLength="67" x="848" y="304.4717">repositories</text><polygon fill="#181818" points="1069,335.6797,1079,339.6797,1069,343.6797,1073,339.6797" style="stroke:#181818;stroke-width:1.0;"/><line style="stroke:#181818;stroke-width:1.0;" x1="820" x2="1075" y1="339.6797" y2="339.6797"/><text fill="#000000" font-family="sans-serif" font-size="13" font-weight="bold" lengthAdjust="spacing" textLength="7" x="827" y="334.8232">8</text><text fill="#000000" font-family="sans-serif" font-size="13" lengthAdjust="spacing" textLength="108" x="838" y="334.8232">getJobRepository()</text><polygon fill="#181818" points="831,366.0313,821,370.0313,831,374.0313,827,370.0313" style="stroke:#181818;stroke-width:1.0;"/><line style="stroke:#181818;stroke-width:1.0;stroke-dasharray:2.0,2.0;" x1="825" x2="1085" y1="370.0313" y2="370.0313"/><text fill="#000000" font-family="sans-serif" font-size="13" font-weight="bold" lengthAdjust="spacing" textLength="7" x="837" y="365.1748">9</text><text fill="#000000" font-family="sans-serif" font-size="13" lengthAdjust="spacing" textLength="79" x="848" y="365.1748">jobRepository</text><polygon fill="#181818" points="1180,396.3828,1190,400.3828,1180,404.3828,1184,400.3828" style="stroke:#181818;stroke-width:1.0;"/><line style="stroke:#181818;stroke-width:1.0;" x1="820" x2="1186" y1="400.3828" y2="400.3828"/><text fill="#000000" font-family="sans-serif" font-size="13" font-weight="bold" lengthAdjust="spacing" textLength="14" x="827" y="395.5264">10</text><text fill="#000000" font-family="sans-serif" font-size="13" lengthAdjust="spacing" textLength="67" x="845" y="395.5264">getJobList()</text><polygon fill="#181818" points="831,426.7344,821,430.7344,831,434.7344,827,430.7344" style="stroke:#181818;stroke-width:1.0;"/><line style="stroke:#181818;stroke-width:1.0;stroke-dasharray:2.0,2.0;" x1="825" x2="1196" y1="430.7344" y2="430.7344"/><text fill="#000000" font-family="sans-serif" font-size="13" font-weight="bold" lengthAdjust="spacing" textLength="14" x="837" y="425.8779">11</text><text fill="#000000" font-family="sans-serif" font-size="13" lengthAdjust="spacing" textLength="38" x="855" y="425.8779">jobList</text><polygon fill="#181818" points="431,457.0859,421,461.0859,431,465.0859,427,461.0859" style="stroke:#181818;stroke-width:1.0;"/><line style="stroke:#181818;stroke-width:1.0;stroke-dasharray:2.0,2.0;" x1="425" x2="814" y1="461.0859" y2="461.0859"/><text fill="#000000" font-family="sans-serif" font-size="13" font-weight="bold" lengthAdjust="spacing" textLength="14" x="437" y="456.2295">12</text><text fill="#000000" font-family="sans-serif" font-size="13" lengthAdjust="spacing" textLength="38" x="455" y="456.2295">jobList</text><polygon fill="#181818" points="112,503.7891,102,507.7891,112,511.7891,108,507.7891" style="stroke:#181818;stroke-width:1.0;"/><line style="stroke:#181818;stroke-width:1.0;stroke-dasharray:2.0,2.0;" x1="106" x2="414" y1="507.7891" y2="507.7891"/><text fill="#000000" font-family="sans-serif" font-size="13" font-weight="bold" lengthAdjust="spacing" textLength="14" x="118" y="494.7568">13</text><text fill="#000000" font-family="sans-serif" font-size="13" lengthAdjust="spacing" textLength="222" x="136" y="486.5811">shows a list of jobs and asks to select</text><text fill="#000000" font-family="sans-serif" font-size="13" lengthAdjust="spacing" textLength="99" x="136" y="502.9326">a collaborator job</text><polygon fill="#181818" points="398,534.1406,408,538.1406,398,542.1406,402,538.1406" style="stroke:#181818;stroke-width:1.0;"/><line style="stroke:#181818;stroke-width:1.0;" x1="101" x2="404" y1="538.1406" y2="538.1406"/><text fill="#000000" font-family="sans-serif" font-size="13" font-weight="bold" lengthAdjust="spacing" textLength="14" x="108" y="533.2842">14</text><text fill="#000000" font-family="sans-serif" font-size="13" lengthAdjust="spacing" textLength="74" x="126" y="533.2842">selects a job</text><polygon fill="#181818" points="112,564.4922,102,568.4922,112,572.4922,108,568.4922" style="stroke:#181818;stroke-width:1.0;"/><line style="stroke:#181818;stroke-width:1.0;stroke-dasharray:2.0,2.0;" x1="106" x2="414" y1="568.4922" y2="568.4922"/><text fill="#000000" font-family="sans-serif" font-size="13" font-weight="bold" lengthAdjust="spacing" textLength="14" x="118" y="563.6357">15</text><text fill="#000000" font-family="sans-serif" font-size="13" lengthAdjust="spacing" textLength="267" x="136" y="563.6357">show all information and requests confirmation</text><polygon fill="#181818" points="398,594.8438,408,598.8438,398,602.8438,402,598.8438" style="stroke:#181818;stroke-width:1.0;"/><line style="stroke:#181818;stroke-width:1.0;" x1="101" x2="404" y1="598.8438" y2="598.8438"/><text fill="#000000" font-family="sans-serif" font-size="13" font-weight="bold" lengthAdjust="spacing" textLength="14" x="108" y="593.9873">16</text><text fill="#000000" font-family="sans-serif" font-size="13" lengthAdjust="spacing" textLength="71" x="126" y="593.9873">confirm data</text><polygon fill="#181818" points="798,657.8984,808,661.8984,798,665.8984,802,661.8984" style="stroke:#181818;stroke-width:1.0;"/><line style="stroke:#181818;stroke-width:1.0;" x1="420" x2="804" y1="661.8984" y2="661.8984"/><text fill="#000000" font-family="sans-serif" font-size="13" font-weight="bold" lengthAdjust="spacing" textLength="14" x="427" y="640.6904">17</text><text fill="#000000" font-family="sans-serif" font-size="13" lengthAdjust="spacing" textLength="353" x="445" y="624.3389">createCollaborator(name, birthDate, admissionDate, address,</text><text fill="#000000" font-family="sans-serif" font-size="13" lengthAdjust="spacing" textLength="290" x="445" y="640.6904">phoneNumber, email, identificationDocumentType,</text><text fill="#000000" font-family="sans-serif" font-size="13" lengthAdjust="spacing" textLength="146" x="445" y="657.042">identificationNumber, job)</text><polygon fill="#181818" points="1069,688.25,1079,692.25,1069,696.25,1073,692.25" style="stroke:#181818;stroke-width:1.0;"/><line style="stroke:#181818;stroke-width:1.0;" x1="820" x2="1075" y1="692.25" y2="692.25"/><text fill="#000000" font-family="sans-serif" font-size="13" font-weight="bold" lengthAdjust="spacing" textLength="14" x="827" y="687.3936">18</text><text fill="#000000" font-family="sans-serif" font-size="13" lengthAdjust="spacing" textLength="157" x="845" y="687.3936">getCollaboratorRepository()</text><polygon fill="#181818" points="831,718.6016,821,722.6016,831,726.6016,827,722.6016" style="stroke:#181818;stroke-width:1.0;"/><line style="stroke:#181818;stroke-width:1.0;stroke-dasharray:2.0,2.0;" x1="825" x2="1085" y1="722.6016" y2="722.6016"/><text fill="#000000" font-family="sans-serif" font-size="13" font-weight="bold" lengthAdjust="spacing" textLength="14" x="837" y="717.7451">19</text><text fill="#000000" font-family="sans-serif" font-size="13" lengthAdjust="spacing" textLength="129" x="855" y="717.7451">collaboratorRepository</text><polygon fill="#181818" points="1323,781.6563,1333,785.6563,1323,789.6563,1327,785.6563" style="stroke:#181818;stroke-width:1.0;"/><line style="stroke:#181818;stroke-width:1.0;" x1="820" x2="1329" y1="785.6563" y2="785.6563"/><text fill="#000000" font-family="sans-serif" font-size="13" font-weight="bold" lengthAdjust="spacing" textLength="14" x="827" y="764.4482">20</text><text fill="#000000" font-family="sans-serif" font-size="13" lengthAdjust="spacing" textLength="353" x="845" y="748.0967">createCollaborator(name, birthDate, admissionDate, address,</text><text fill="#000000" font-family="sans-serif" font-size="13" lengthAdjust="spacing" textLength="290" x="845" y="764.4482">phoneNumber, email, identificationDocumentType,</text><text fill="#000000" font-family="sans-serif" font-size="13" lengthAdjust="spacing" textLength="146" x="845" y="780.7998">identificationNumber, job)</text><polygon fill="#181818" points="1665,844.7109,1675,848.7109,1665,852.7109,1669,848.7109" style="stroke:#181818;stroke-width:1.0;"/><line style="stroke:#181818;stroke-width:1.0;" x1="1345" x2="1671" y1="848.7109" y2="848.7109"/><text fill="#000000" font-family="sans-serif" font-size="13" font-weight="bold" lengthAdjust="spacing" textLength="14" x="1352" y="827.5029">21</text><text fill="#000000" font-family="sans-serif" font-size="13" lengthAdjust="spacing" textLength="284" x="1370" y="811.1514">create(name, birthDate, admissionDate, address,</text><text fill="#000000" font-family="sans-serif" font-size="13" lengthAdjust="spacing" textLength="290" x="1370" y="827.5029">phoneNumber, email, identificationDocumentType,</text><text fill="#000000" font-family="sans-serif" font-size="13" lengthAdjust="spacing" textLength="146" x="1370" y="843.8545">identificationNumber, job)</text><rect fill="#E3E3E3" height="49.2188" rx="2.5" ry="2.5" style="stroke:#181818;stroke-width:0.5;" width="92" x="1677" y="796.4922"/><text fill="#000000" font-family="sans-serif" font-size="14" lengthAdjust="spacing" textLength="75" x="1685.5" y="818.0254">collaborator</text><text fill="#000000" font-family="sans-serif" font-size="14" lengthAdjust="spacing" textLength="78" x="1684" y="835.6348">Collaborator</text><line style="stroke:#181818;stroke-width:1.0;" x1="1345" x2="1392" y1="874.0625" y2="874.0625"/><line style="stroke:#181818;stroke-width:1.0;" x1="1392" x2="1392" y1="874.0625" y2="887.0625"/><line style="stroke:#181818;stroke-width:1.0;" x1="1351" x2="1392" y1="887.0625" y2="887.0625"/><polygon fill="#181818" points="1361,883.0625,1351,887.0625,1361,891.0625,1357,887.0625" style="stroke:#181818;stroke-width:1.0;"/><text fill="#000000" font-family="sans-serif" font-size="13" font-weight="bold" lengthAdjust="spacing" textLength="14" x="1357" y="869.2061">22</text><text fill="#000000" font-family="sans-serif" font-size="13" lengthAdjust="spacing" textLength="165" x="1375" y="869.2061">addCollaborator(collaborator)</text><line style="stroke:#181818;stroke-width:1.0;" x1="1350" x2="1397" y1="917.4141" y2="917.4141"/><line style="stroke:#181818;stroke-width:1.0;" x1="1397" x2="1397" y1="917.4141" y2="930.4141"/><line style="stroke:#181818;stroke-width:1.0;" x1="1356" x2="1397" y1="930.4141" y2="930.4141"/><polygon fill="#181818" points="1366,926.4141,1356,930.4141,1366,934.4141,1362,930.4141" style="stroke:#181818;stroke-width:1.0;"/><text fill="#000000" font-family="sans-serif" font-size="13" font-weight="bold" lengthAdjust="spacing" textLength="14" x="1362" y="912.5576">23</text><text fill="#000000" font-family="sans-serif" font-size="13" lengthAdjust="spacing" textLength="187" x="1380" y="912.5576">validateCollaborator(collaborator)</text><line style="stroke:#181818;stroke-width:1.0;stroke-dasharray:2.0,2.0;" x1="1355" x2="1397" y1="970.7656" y2="970.7656"/><line style="stroke:#181818;stroke-width:1.0;stroke-dasharray:2.0,2.0;" x1="1397" x2="1397" y1="970.7656" y2="983.7656"/><line style="stroke:#181818;stroke-width:1.0;stroke-dasharray:2.0,2.0;" x1="1350" x2="1397" y1="983.7656" y2="983.7656"/><polygon fill="#181818" points="1360,979.7656,1350,983.7656,1360,987.7656,1356,983.7656" style="stroke:#181818;stroke-width:1.0;"/><text fill="#000000" font-family="sans-serif" font-size="13" font-weight="bold" lengthAdjust="spacing" textLength="14" x="1362" y="965.9092">24</text><text fill="#000000" font-family="sans-serif" font-size="13" lengthAdjust="spacing" textLength="4" x="1380" y="965.9092"> </text><line style="stroke:#181818;stroke-width:1.0;stroke-dasharray:2.0,2.0;" x1="1350" x2="1392" y1="1014.1172" y2="1014.1172"/><line style="stroke:#181818;stroke-width:1.0;stroke-dasharray:2.0,2.0;" x1="1392" x2="1392" y1="1014.1172" y2="1027.1172"/><line style="stroke:#181818;stroke-width:1.0;stroke-dasharray:2.0,2.0;" x1="1345" x2="1392" y1="1027.1172" y2="1027.1172"/><polygon fill="#181818" points="1355,1023.1172,1345,1027.1172,1355,1031.1172,1351,1027.1172" style="stroke:#181818;stroke-width:1.0;"/><text fill="#000000" font-family="sans-serif" font-size="13" font-weight="bold" lengthAdjust="spacing" textLength="14" x="1357" y="1009.2607">25</text><text fill="#000000" font-family="sans-serif" font-size="13" lengthAdjust="spacing" textLength="4" x="1375" y="1009.2607"> </text><polygon fill="#181818" points="831,1048.4688,821,1052.4688,831,1056.4688,827,1052.4688" style="stroke:#181818;stroke-width:1.0;"/><line style="stroke:#181818;stroke-width:1.0;stroke-dasharray:2.0,2.0;" x1="825" x2="1339" y1="1052.4688" y2="1052.4688"/><text fill="#000000" font-family="sans-serif" font-size="13" font-weight="bold" lengthAdjust="spacing" textLength="14" x="837" y="1047.6123">26</text><text fill="#000000" font-family="sans-serif" font-size="13" lengthAdjust="spacing" textLength="67" x="855" y="1047.6123">collaborator</text><polygon fill="#181818" points="431,1078.8203,421,1082.8203,431,1086.8203,427,1082.8203" style="stroke:#181818;stroke-width:1.0;"/><line style="stroke:#181818;stroke-width:1.0;stroke-dasharray:2.0,2.0;" x1="425" x2="814" y1="1082.8203" y2="1082.8203"/><text fill="#000000" font-family="sans-serif" font-size="13" font-weight="bold" lengthAdjust="spacing" textLength="14" x="437" y="1077.9639">27</text><text fill="#000000" font-family="sans-serif" font-size="13" lengthAdjust="spacing" textLength="67" x="455" y="1077.9639">collaborator</text><polygon fill="#181818" points="107,1109.1719,97,1113.1719,107,1117.1719,103,1113.1719" style="stroke:#181818;stroke-width:1.0;"/><line style="stroke:#181818;stroke-width:1.0;stroke-dasharray:2.0,2.0;" x1="101" x2="414" y1="1113.1719" y2="1113.1719"/><text fill="#000000" font-family="sans-serif" font-size="13" font-weight="bold" lengthAdjust="spacing" textLength="14" x="113" y="1108.3154">28</text><text fill="#000000" font-family="sans-serif" font-size="13" lengthAdjust="spacing" textLength="158" x="131" y="1108.3154">displays operation success</text><!--SRC=[rLTDRzim3BthLmYzh0sIFv13WI8zB4Cx3FsuvSB8JABMbZn9RfT_FrgERQbMlBOekisdo28V7qK-qR6FKfLWeE25LbhiZ2wGErCXizrE2U8HjdZhzZboWyA1skQXWTr1ff-bsl8Dv1OPWyffLHLhD8nzsSaC-KPhjzQ_60Yd3J_vMXMW-0rQNHc1bb-3eWZcX8Fb5vVNZ72T5B84vVZ9_0QtqZeq2vtdiDO62ED-wOtlbw-mNMZb3AqF0HPtDrS3hr9RIQOIhRVfNknlPPqjvHExcC1ZfOO0FwukxcAF1xtkKUShzIrSUv_eJUmiWdGYb4LoeyapkNKSDmORGB2wUF897FeICNvuQC5dvrG9FYUNHykTfYvfgi21Atpc8e9f7JiuAcBtidu8QaQ813mdf9yLMcVz3samunauYCmpF8eKSdFx4csBby8PvNFkssOo8I1XaAnEpuuPaSaM7HNpYiw0p98nV1D6M_NZtGacqNuDwb9Paf_05x0HTAft1zRraueoEoHHdtpVqWFtuCnV5QvDh9P5TpwzvrWwNab9_Xwi9nm9R8nn6h6b614RgsN4CjPkacuCFEkxvQ617wFy1_Y6UzlfARm0QzXwlU38s-xqioNXvWJ1zQP6ewNAEd5Rp6a8h1H4kgxjs8WaGoas27MGrYcflG4j3ddEfTfeKu2JrAqrhUw645fjv667lOB5mRw_20RMlQPRrOSNugc20gTyBOtRNTBUb4DMI6ifVBlC35exNQbofnL-znDnoh40cKyvZKNbv4OAJ_XIYwgW5tTqIv53lDbwqccTiJTS8xtQqhFW0sJdpp4vPzujm3JNVwm2wKizVHB3J9DsBtEVJBfPytVoV2Vli6P4B2fOs2kVTf0XeIV8PVQoZJw9rL5QOrhvRuCsjsRuvVSH0Vj1zmRmv2KPVcLcqfOvx2tN9PfcjDXAq3yJonXBpP9WMNyC_mO0]--></g></svg>