<?xml version="1.0" encoding="UTF-8" standalone="no"?><svg xmlns="http://www.w3.org/2000/svg" xmlns:xlink="http://www.w3.org/1999/xlink" contentStyleType="text/css" height="1170px" preserveAspectRatio="none" style="width:1880px;height:1170px;background:#FFFFFF;" version="1.1" viewBox="0 0 1880 1170" width="1880px" zoomAndPan="magnify"><defs/><g><rect fill="#FFFFFF" height="977.9531" style="stroke:#181818;stroke-width:1.0;" width="10" x="91" y="92.6094"/><rect fill="#FFFFFF" height="30.3516" style="stroke:#181818;stroke-width:1.0;" width="10" x="410" y="114.9609"/><rect fill="#FFFFFF" height="289.5156" style="stroke:#181818;stroke-width:1.0;" width="10" x="410" y="175.6641"/><rect fill="#FFFFFF" height="30.3516" style="stroke:#181818;stroke-width:1.0;" width="10" x="410" y="495.5313"/><rect fill="#FFFFFF" height="514.3281" style="stroke:#181818;stroke-width:1.0;" width="10" x="410" y="556.2344"/><rect fill="#FFFFFF" height="212.4609" style="stroke:#181818;stroke-width:1.0;" width="10" x="810" y="206.0156"/><rect fill="#FFFFFF" height="420.9219" style="stroke:#181818;stroke-width:1.0;" width="10" x="810" y="619.2891"/><rect fill="#FFFFFF" height="30.3516" style="stroke:#181818;stroke-width:1.0;" width="10" x="974" y="236.3672"/><rect fill="#FFFFFF" height="30.3516" style="stroke:#181818;stroke-width:1.0;" width="10" x="1081" y="297.0703"/><rect fill="#FFFFFF" height="30.3516" style="stroke:#181818;stroke-width:1.0;" width="10" x="1081" y="649.6406"/><rect fill="#FFFFFF" height="30.3516" style="stroke:#181818;stroke-width:1.0;" width="10" x="1192" y="357.7734"/><rect fill="#FFFFFF" height="266.8125" style="stroke:#181818;stroke-width:1.0;" width="10" x="1440" y="743.0469"/><rect fill="#FFFFFF" height="128.0547" style="stroke:#181818;stroke-width:1.0;" width="10" x="1445" y="844.4531"/><rect fill="#FFFFFF" height="41.3516" style="stroke:#181818;stroke-width:1.0;" width="10" x="1450" y="887.8047"/><line style="stroke:#181818;stroke-width:0.5;stroke-dasharray:5.0,5.0;" x1="96" x2="96" y1="82.6094" y2="1088.5625"/><line style="stroke:#181818;stroke-width:0.5;stroke-dasharray:5.0,5.0;" x1="414.5" x2="414.5" y1="82.6094" y2="1088.5625"/><line style="stroke:#181818;stroke-width:0.5;stroke-dasharray:5.0,5.0;" x1="814.5" x2="814.5" y1="82.6094" y2="1088.5625"/><line style="stroke:#181818;stroke-width:0.5;stroke-dasharray:5.0,5.0;" x1="978.5" x2="978.5" y1="82.6094" y2="1088.5625"/><line style="stroke:#181818;stroke-width:0.5;stroke-dasharray:5.0,5.0;" x1="1085.5" x2="1085.5" y1="82.6094" y2="1088.5625"/><line style="stroke:#181818;stroke-width:0.5;stroke-dasharray:5.0,5.0;" x1="1196.5" x2="1196.5" y1="82.6094" y2="1088.5625"/><line style="stroke:#181818;stroke-width:0.5;stroke-dasharray:5.0,5.0;" x1="1306.5" x2="1306.5" y1="82.6094" y2="1088.5625"/><line style="stroke:#181818;stroke-width:0.5;stroke-dasharray:5.0,5.0;" x1="1444.5" x2="1444.5" y1="82.6094" y2="1088.5625"/><line style="stroke:#181818;stroke-width:0.5;stroke-dasharray:5.0,5.0;" x1="1828" x2="1828" y1="792.5742" y2="1088.5625"/><text fill="#000000" font-family="sans-serif" font-size="14" lengthAdjust="spacing" textLength="176" x="5" y="79.5332">Human Resources Manager</text><ellipse cx="96" cy="13.5" fill="#E3E3E3" rx="8" ry="8" style="stroke:#181818;stroke-width:0.5;"/><path d="M96,21.5 L96,48.5 M83,29.5 L109,29.5 M96,48.5 L83,63.5 M96,48.5 L109,63.5 " fill="none" style="stroke:#181818;stroke-width:0.5;"/><text fill="#000000" font-family="sans-serif" font-size="14" lengthAdjust="spacing" textLength="176" x="5" y="1102.0957">Human Resources Manager</text><ellipse cx="96" cy="1113.6719" fill="#E3E3E3" rx="8" ry="8" style="stroke:#181818;stroke-width:0.5;"/><path d="M96,1121.6719 L96,1148.6719 M83,1129.6719 L109,1129.6719 M96,1148.6719 L83,1163.6719 M96,1148.6719 L109,1163.6719 " fill="none" style="stroke:#181818;stroke-width:0.5;"/><rect fill="#E3E3E3" height="31.6094" rx="2.5" ry="2.5" style="stroke:#181818;stroke-width:0.5;" width="161" x="334.5" y="50"/><text fill="#000000" font-family="sans-serif" font-size="14" lengthAdjust="spacing" textLength="147" x="341.5" y="71.5332">:RegisterCollaboratorUI</text><rect fill="#E3E3E3" height="31.6094" rx="2.5" ry="2.5" style="stroke:#181818;stroke-width:0.5;" width="161" x="334.5" y="1087.5625"/><text fill="#000000" font-family="sans-serif" font-size="14" lengthAdjust="spacing" textLength="147" x="341.5" y="1109.0957">:RegisterCollaboratorUI</text><rect fill="#E3E3E3" height="31.6094" rx="2.5" ry="2.5" style="stroke:#181818;stroke-width:0.5;" width="211" x="709.5" y="50"/><text fill="#000000" font-family="sans-serif" font-size="14" lengthAdjust="spacing" textLength="197" x="716.5" y="71.5332">:RegisterCollaboratorController</text><rect fill="#E3E3E3" height="31.6094" rx="2.5" ry="2.5" style="stroke:#181818;stroke-width:0.5;" width="211" x="709.5" y="1087.5625"/><text fill="#000000" font-family="sans-serif" font-size="14" lengthAdjust="spacing" textLength="197" x="716.5" y="1109.0957">:RegisterCollaboratorController</text><rect fill="#E3E3E3" height="31.6094" rx="2.5" ry="2.5" style="stroke:#181818;stroke-width:0.5;" width="97" x="930.5" y="50"/><text fill="#000000" font-family="sans-serif" font-size="14" lengthAdjust="spacing" textLength="83" x="937.5" y="71.5332">:Repositories</text><rect fill="#E3E3E3" height="31.6094" rx="2.5" ry="2.5" style="stroke:#181818;stroke-width:0.5;" width="97" x="930.5" y="1087.5625"/><text fill="#000000" font-family="sans-serif" font-size="14" lengthAdjust="spacing" textLength="83" x="937.5" y="1109.0957">:Repositories</text><rect fill="#E3E3E3" height="49.2188" rx="2.5" ry="2.5" style="stroke:#181818;stroke-width:0.5;" width="97" x="1037.5" y="32.3906"/><text fill="#000000" font-family="sans-serif" font-size="14" lengthAdjust="spacing" textLength="74" x="1049" y="53.9238">repositories</text><text fill="#000000" font-family="sans-serif" font-size="14" lengthAdjust="spacing" textLength="83" x="1044.5" y="71.5332">:Repositories</text><rect fill="#E3E3E3" height="49.2188" rx="2.5" ry="2.5" style="stroke:#181818;stroke-width:0.5;" width="97" x="1037.5" y="1087.5625"/><text fill="#000000" font-family="sans-serif" font-size="14" lengthAdjust="spacing" textLength="74" x="1049" y="1109.0957">repositories</text><text fill="#000000" font-family="sans-serif" font-size="14" lengthAdjust="spacing" textLength="83" x="1044.5" y="1126.7051">:Repositories</text><rect fill="#E3E3E3" height="49.2188" rx="2.5" ry="2.5" style="stroke:#181818;stroke-width:0.5;" width="105" x="1144.5" y="32.3906"/><text fill="#000000" font-family="sans-serif" font-size="14" lengthAdjust="spacing" textLength="91" x="1151.5" y="53.9238">jobRepository:</text><text fill="#000000" font-family="sans-serif" font-size="14" lengthAdjust="spacing" textLength="90" x="1152" y="71.5332">JobRepository</text><rect fill="#E3E3E3" height="49.2188" rx="2.5" ry="2.5" style="stroke:#181818;stroke-width:0.5;" width="105" x="1144.5" y="1087.5625"/><text fill="#000000" font-family="sans-serif" font-size="14" lengthAdjust="spacing" textLength="91" x="1151.5" y="1109.0957">jobRepository:</text><text fill="#000000" font-family="sans-serif" font-size="14" lengthAdjust="spacing" textLength="90" x="1152" y="1126.7051">JobRepository</text><rect fill="#E3E3E3" height="49.2188" rx="2.5" ry="2.5" style="stroke:#181818;stroke-width:0.5;" width="95" x="1259.5" y="32.3906"/><text fill="#000000" font-family="sans-serif" font-size="14" lengthAdjust="spacing" textLength="81" x="1266.5" y="53.9238">organization:</text><text fill="#000000" font-family="sans-serif" font-size="14" lengthAdjust="spacing" textLength="80" x="1267" y="71.5332">Organization</text><rect fill="#E3E3E3" height="49.2188" rx="2.5" ry="2.5" style="stroke:#181818;stroke-width:0.5;" width="95" x="1259.5" y="1087.5625"/><text fill="#000000" font-family="sans-serif" font-size="14" lengthAdjust="spacing" textLength="81" x="1266.5" y="1109.0957">organization:</text><text fill="#000000" font-family="sans-serif" font-size="14" lengthAdjust="spacing" textLength="80" x="1267" y="1126.7051">Organization</text><rect fill="#E3E3E3" height="49.2188" rx="2.5" ry="2.5" style="stroke:#181818;stroke-width:0.5;" width="161" x="1364.5" y="32.3906"/><text fill="#000000" font-family="sans-serif" font-size="14" lengthAdjust="spacing" textLength="147" x="1371.5" y="53.9238">collaboratorRepository:</text><text fill="#000000" font-family="sans-serif" font-size="14" lengthAdjust="spacing" textLength="146" x="1372" y="71.5332">CollaboratorRepository</text><rect fill="#E3E3E3" height="49.2188" rx="2.5" ry="2.5" style="stroke:#181818;stroke-width:0.5;" width="161" x="1364.5" y="1087.5625"/><text fill="#000000" font-family="sans-serif" font-size="14" lengthAdjust="spacing" textLength="147" x="1371.5" y="1109.0957">collaboratorRepository:</text><text fill="#000000" font-family="sans-serif" font-size="14" lengthAdjust="spacing" textLength="146" x="1372" y="1126.7051">CollaboratorRepository</text><rect fill="#E3E3E3" height="49.2188" rx="2.5" ry="2.5" style="stroke:#181818;stroke-width:0.5;" width="92" x="1782" y="1087.5625"/><text fill="#000000" font-family="sans-serif" font-size="14" lengthAdjust="spacing" textLength="75" x="1790.5" y="1109.0957">collaborator</text><text fill="#000000" font-family="sans-serif" font-size="14" lengthAdjust="spacing" textLength="78" x="1789" y="1126.7051">Collaborator</text><rect fill="#FFFFFF" height="977.9531" style="stroke:#181818;stroke-width:1.0;" width="10" x="91" y="92.6094"/><rect fill="#FFFFFF" height="30.3516" style="stroke:#181818;stroke-width:1.0;" width="10" x="410" y="114.9609"/><rect fill="#FFFFFF" height="289.5156" style="stroke:#181818;stroke-width:1.0;" width="10" x="410" y="175.6641"/><rect fill="#FFFFFF" height="30.3516" style="stroke:#181818;stroke-width:1.0;" width="10" x="410" y="495.5313"/><rect fill="#FFFFFF" height="514.3281" style="stroke:#181818;stroke-width:1.0;" width="10" x="410" y="556.2344"/><rect fill="#FFFFFF" height="212.4609" style="stroke:#181818;stroke-width:1.0;" width="10" x="810" y="206.0156"/><rect fill="#FFFFFF" height="420.9219" style="stroke:#181818;stroke-width:1.0;" width="10" x="810" y="619.2891"/><rect fill="#FFFFFF" height="30.3516" style="stroke:#181818;stroke-width:1.0;" width="10" x="974" y="236.3672"/><rect fill="#FFFFFF" height="30.3516" style="stroke:#181818;stroke-width:1.0;" width="10" x="1081" y="297.0703"/><rect fill="#FFFFFF" height="30.3516" style="stroke:#181818;stroke-width:1.0;" width="10" x="1081" y="649.6406"/><rect fill="#FFFFFF" height="30.3516" style="stroke:#181818;stroke-width:1.0;" width="10" x="1192" y="357.7734"/><rect fill="#FFFFFF" height="266.8125" style="stroke:#181818;stroke-width:1.0;" width="10" x="1440" y="743.0469"/><rect fill="#FFFFFF" height="128.0547" style="stroke:#181818;stroke-width:1.0;" width="10" x="1445" y="844.4531"/><rect fill="#FFFFFF" height="41.3516" style="stroke:#181818;stroke-width:1.0;" width="10" x="1450" y="887.8047"/><polygon fill="#181818" points="398,110.9609,408,114.9609,398,118.9609,402,114.9609" style="stroke:#181818;stroke-width:1.0;"/><line style="stroke:#181818;stroke-width:1.0;" x1="101" x2="404" y1="114.9609" y2="114.9609"/><text fill="#000000" font-family="sans-serif" font-size="13" font-weight="bold" lengthAdjust="spacing" textLength="7" x="108" y="110.1045">1</text><text fill="#000000" font-family="sans-serif" font-size="13" lengthAdjust="spacing" textLength="199" x="119" y="110.1045">asks to register a new collaborator</text><polygon fill="#181818" points="112,141.3125,102,145.3125,112,149.3125,108,145.3125" style="stroke:#181818;stroke-width:1.0;"/><line style="stroke:#181818;stroke-width:1.0;stroke-dasharray:2.0,2.0;" x1="106" x2="414" y1="145.3125" y2="145.3125"/><text fill="#000000" font-family="sans-serif" font-size="13" font-weight="bold" lengthAdjust="spacing" textLength="7" x="118" y="140.4561">2</text><text fill="#000000" font-family="sans-serif" font-size="13" lengthAdjust="spacing" textLength="129" x="129" y="140.4561">requests required data</text><polygon fill="#181818" points="398,171.6641,408,175.6641,398,179.6641,402,175.6641" style="stroke:#181818;stroke-width:1.0;"/><line style="stroke:#181818;stroke-width:1.0;" x1="101" x2="404" y1="175.6641" y2="175.6641"/><text fill="#000000" font-family="sans-serif" font-size="13" font-weight="bold" lengthAdjust="spacing" textLength="7" x="108" y="170.8076">3</text><text fill="#000000" font-family="sans-serif" font-size="13" lengthAdjust="spacing" textLength="122" x="119" y="170.8076">types requested data</text><polygon fill="#181818" points="798,202.0156,808,206.0156,798,210.0156,802,206.0156" style="stroke:#181818;stroke-width:1.0;"/><line style="stroke:#181818;stroke-width:1.0;" x1="420" x2="804" y1="206.0156" y2="206.0156"/><text fill="#000000" font-family="sans-serif" font-size="13" font-weight="bold" lengthAdjust="spacing" textLength="7" x="427" y="201.1592">4</text><text fill="#000000" font-family="sans-serif" font-size="13" lengthAdjust="spacing" textLength="67" x="438" y="201.1592">getJobList()</text><polygon fill="#181818" points="962,232.3672,972,236.3672,962,240.3672,966,236.3672" style="stroke:#181818;stroke-width:1.0;"/><line style="stroke:#181818;stroke-width:1.0;" x1="820" x2="968" y1="236.3672" y2="236.3672"/><text fill="#000000" font-family="sans-serif" font-size="13" font-weight="bold" lengthAdjust="spacing" textLength="7" x="827" y="231.5107">5</text><text fill="#000000" font-family="sans-serif" font-size="13" lengthAdjust="spacing" textLength="75" x="838" y="231.5107">getInstance()</text><polygon fill="#181818" points="831,262.7188,821,266.7188,831,270.7188,827,266.7188" style="stroke:#181818;stroke-width:1.0;"/><line style="stroke:#181818;stroke-width:1.0;stroke-dasharray:2.0,2.0;" x1="825" x2="978" y1="266.7188" y2="266.7188"/><text fill="#000000" font-family="sans-serif" font-size="13" font-weight="bold" lengthAdjust="spacing" textLength="7" x="837" y="261.8623">6</text><text fill="#000000" font-family="sans-serif" font-size="13" lengthAdjust="spacing" textLength="67" x="848" y="261.8623">repositories</text><polygon fill="#181818" points="1069,293.0703,1079,297.0703,1069,301.0703,1073,297.0703" style="stroke:#181818;stroke-width:1.0;"/><line style="stroke:#181818;stroke-width:1.0;" x1="820" x2="1075" y1="297.0703" y2="297.0703"/><text fill="#000000" font-family="sans-serif" font-size="13" font-weight="bold" lengthAdjust="spacing" textLength="7" x="827" y="292.2139">7</text><text fill="#000000" font-family="sans-serif" font-size="13" lengthAdjust="spacing" textLength="108" x="838" y="292.2139">getJobRepository()</text><polygon fill="#181818" points="831,323.4219,821,327.4219,831,331.4219,827,327.4219" style="stroke:#181818;stroke-width:1.0;"/><line style="stroke:#181818;stroke-width:1.0;stroke-dasharray:2.0,2.0;" x1="825" x2="1085" y1="327.4219" y2="327.4219"/><text fill="#000000" font-family="sans-serif" font-size="13" font-weight="bold" lengthAdjust="spacing" textLength="7" x="837" y="322.5654">8</text><text fill="#000000" font-family="sans-serif" font-size="13" lengthAdjust="spacing" textLength="79" x="848" y="322.5654">jobRepository</text><polygon fill="#181818" points="1180,353.7734,1190,357.7734,1180,361.7734,1184,357.7734" style="stroke:#181818;stroke-width:1.0;"/><line style="stroke:#181818;stroke-width:1.0;" x1="820" x2="1186" y1="357.7734" y2="357.7734"/><text fill="#000000" font-family="sans-serif" font-size="13" font-weight="bold" lengthAdjust="spacing" textLength="7" x="827" y="352.917">9</text><text fill="#000000" font-family="sans-serif" font-size="13" lengthAdjust="spacing" textLength="67" x="838" y="352.917">getJobList()</text><polygon fill="#181818" points="831,384.125,821,388.125,831,392.125,827,388.125" style="stroke:#181818;stroke-width:1.0;"/><line style="stroke:#181818;stroke-width:1.0;stroke-dasharray:2.0,2.0;" x1="825" x2="1196" y1="388.125" y2="388.125"/><text fill="#000000" font-family="sans-serif" font-size="13" font-weight="bold" lengthAdjust="spacing" textLength="14" x="837" y="383.2686">10</text><text fill="#000000" font-family="sans-serif" font-size="13" lengthAdjust="spacing" textLength="38" x="855" y="383.2686">jobList</text><polygon fill="#181818" points="431,414.4766,421,418.4766,431,422.4766,427,418.4766" style="stroke:#181818;stroke-width:1.0;"/><line style="stroke:#181818;stroke-width:1.0;stroke-dasharray:2.0,2.0;" x1="425" x2="814" y1="418.4766" y2="418.4766"/><text fill="#000000" font-family="sans-serif" font-size="13" font-weight="bold" lengthAdjust="spacing" textLength="14" x="437" y="413.6201">11</text><text fill="#000000" font-family="sans-serif" font-size="13" lengthAdjust="spacing" textLength="38" x="455" y="413.6201">jobList</text><polygon fill="#181818" points="112,461.1797,102,465.1797,112,469.1797,108,465.1797" style="stroke:#181818;stroke-width:1.0;"/><line style="stroke:#181818;stroke-width:1.0;stroke-dasharray:2.0,2.0;" x1="106" x2="414" y1="465.1797" y2="465.1797"/><text fill="#000000" font-family="sans-serif" font-size="13" font-weight="bold" lengthAdjust="spacing" textLength="14" x="118" y="452.1475">12</text><text fill="#000000" font-family="sans-serif" font-size="13" lengthAdjust="spacing" textLength="222" x="136" y="443.9717">shows a list of jobs and asks to select</text><text fill="#000000" font-family="sans-serif" font-size="13" lengthAdjust="spacing" textLength="99" x="136" y="460.3232">a collaborator job</text><polygon fill="#181818" points="398,491.5313,408,495.5313,398,499.5313,402,495.5313" style="stroke:#181818;stroke-width:1.0;"/><line style="stroke:#181818;stroke-width:1.0;" x1="101" x2="404" y1="495.5313" y2="495.5313"/><text fill="#000000" font-family="sans-serif" font-size="13" font-weight="bold" lengthAdjust="spacing" textLength="14" x="108" y="490.6748">13</text><text fill="#000000" font-family="sans-serif" font-size="13" lengthAdjust="spacing" textLength="74" x="126" y="490.6748">selects a job</text><polygon fill="#181818" points="112,521.8828,102,525.8828,112,529.8828,108,525.8828" style="stroke:#181818;stroke-width:1.0;"/><line style="stroke:#181818;stroke-width:1.0;stroke-dasharray:2.0,2.0;" x1="106" x2="414" y1="525.8828" y2="525.8828"/><text fill="#000000" font-family="sans-serif" font-size="13" font-weight="bold" lengthAdjust="spacing" textLength="14" x="118" y="521.0264">14</text><text fill="#000000" font-family="sans-serif" font-size="13" lengthAdjust="spacing" textLength="267" x="136" y="521.0264">show all information and requests confirmation</text><polygon fill="#181818" points="398,552.2344,408,556.2344,398,560.2344,402,556.2344" style="stroke:#181818;stroke-width:1.0;"/><line style="stroke:#181818;stroke-width:1.0;" x1="101" x2="404" y1="556.2344" y2="556.2344"/><text fill="#000000" font-family="sans-serif" font-size="13" font-weight="bold" lengthAdjust="spacing" textLength="14" x="108" y="551.3779">15</text><text fill="#000000" font-family="sans-serif" font-size="13" lengthAdjust="spacing" textLength="71" x="126" y="551.3779">confirm data</text><polygon fill="#181818" points="798,615.2891,808,619.2891,798,623.2891,802,619.2891" style="stroke:#181818;stroke-width:1.0;"/><line style="stroke:#181818;stroke-width:1.0;" x1="420" x2="804" y1="619.2891" y2="619.2891"/><text fill="#000000" font-family="sans-serif" font-size="13" font-weight="bold" lengthAdjust="spacing" textLength="14" x="427" y="598.0811">16</text><text fill="#000000" font-family="sans-serif" font-size="13" lengthAdjust="spacing" textLength="353" x="445" y="581.7295">createCollaborator(name, birthDate, admissionDate, address,</text><text fill="#000000" font-family="sans-serif" font-size="13" lengthAdjust="spacing" textLength="290" x="445" y="598.0811">phoneNumber, email, identificationDocumentType,</text><text fill="#000000" font-family="sans-serif" font-size="13" lengthAdjust="spacing" textLength="146" x="445" y="614.4326">identificationNumber, job)</text><polygon fill="#181818" points="1069,645.6406,1079,649.6406,1069,653.6406,1073,649.6406" style="stroke:#181818;stroke-width:1.0;"/><line style="stroke:#181818;stroke-width:1.0;" x1="820" x2="1075" y1="649.6406" y2="649.6406"/><text fill="#000000" font-family="sans-serif" font-size="13" font-weight="bold" lengthAdjust="spacing" textLength="14" x="827" y="644.7842">17</text><text fill="#000000" font-family="sans-serif" font-size="13" lengthAdjust="spacing" textLength="157" x="845" y="644.7842">getCollaboratorRepository()</text><polygon fill="#181818" points="831,675.9922,821,679.9922,831,683.9922,827,679.9922" style="stroke:#181818;stroke-width:1.0;"/><line style="stroke:#181818;stroke-width:1.0;stroke-dasharray:2.0,2.0;" x1="825" x2="1085" y1="679.9922" y2="679.9922"/><text fill="#000000" font-family="sans-serif" font-size="13" font-weight="bold" lengthAdjust="spacing" textLength="14" x="837" y="675.1357">18</text><text fill="#000000" font-family="sans-serif" font-size="13" lengthAdjust="spacing" textLength="129" x="855" y="675.1357">collaboratorRepository</text><polygon fill="#181818" points="1428,739.0469,1438,743.0469,1428,747.0469,1432,743.0469" style="stroke:#181818;stroke-width:1.0;"/><line style="stroke:#181818;stroke-width:1.0;" x1="820" x2="1434" y1="743.0469" y2="743.0469"/><text fill="#000000" font-family="sans-serif" font-size="13" font-weight="bold" lengthAdjust="spacing" textLength="14" x="827" y="721.8389">19</text><text fill="#000000" font-family="sans-serif" font-size="13" lengthAdjust="spacing" textLength="353" x="845" y="705.4873">createCollaborator(name, birthDate, admissionDate, address,</text><text fill="#000000" font-family="sans-serif" font-size="13" lengthAdjust="spacing" textLength="290" x="845" y="721.8389">phoneNumber, email, identificationDocumentType,</text><text fill="#000000" font-family="sans-serif" font-size="13" lengthAdjust="spacing" textLength="146" x="845" y="738.1904">identificationNumber, job)</text><polygon fill="#181818" points="1770,802.1016,1780,806.1016,1770,810.1016,1774,806.1016" style="stroke:#181818;stroke-width:1.0;"/><line style="stroke:#181818;stroke-width:1.0;" x1="1450" x2="1776" y1="806.1016" y2="806.1016"/><text fill="#000000" font-family="sans-serif" font-size="13" font-weight="bold" lengthAdjust="spacing" textLength="14" x="1457" y="784.8936">20</text><text fill="#000000" font-family="sans-serif" font-size="13" lengthAdjust="spacing" textLength="284" x="1475" y="768.542">create(name, birthDate, admissionDate, address,</text><text fill="#000000" font-family="sans-serif" font-size="13" lengthAdjust="spacing" textLength="290" x="1475" y="784.8936">phoneNumber, email, identificationDocumentType,</text><text fill="#000000" font-family="sans-serif" font-size="13" lengthAdjust="spacing" textLength="146" x="1475" y="801.2451">identificationNumber, job)</text><rect fill="#E3E3E3" height="49.2188" rx="2.5" ry="2.5" style="stroke:#181818;stroke-width:0.5;" width="92" x="1782" y="753.8828"/><text fill="#000000" font-family="sans-serif" font-size="14" lengthAdjust="spacing" textLength="75" x="1790.5" y="775.416">collaborator</text><text fill="#000000" font-family="sans-serif" font-size="14" lengthAdjust="spacing" textLength="78" x="1789" y="793.0254">Collaborator</text><line style="stroke:#181818;stroke-width:1.0;" x1="1450" x2="1497" y1="831.4531" y2="831.4531"/><line style="stroke:#181818;stroke-width:1.0;" x1="1497" x2="1497" y1="831.4531" y2="844.4531"/><line style="stroke:#181818;stroke-width:1.0;" x1="1456" x2="1497" y1="844.4531" y2="844.4531"/><polygon fill="#181818" points="1466,840.4531,1456,844.4531,1466,848.4531,1462,844.4531" style="stroke:#181818;stroke-width:1.0;"/><text fill="#000000" font-family="sans-serif" font-size="13" font-weight="bold" lengthAdjust="spacing" textLength="14" x="1462" y="826.5967">21</text><text fill="#000000" font-family="sans-serif" font-size="13" lengthAdjust="spacing" textLength="165" x="1480" y="826.5967">addCollaborator(collaborator)</text><line style="stroke:#181818;stroke-width:1.0;" x1="1455" x2="1502" y1="874.8047" y2="874.8047"/><line style="stroke:#181818;stroke-width:1.0;" x1="1502" x2="1502" y1="874.8047" y2="887.8047"/><line style="stroke:#181818;stroke-width:1.0;" x1="1461" x2="1502" y1="887.8047" y2="887.8047"/><polygon fill="#181818" points="1471,883.8047,1461,887.8047,1471,891.8047,1467,887.8047" style="stroke:#181818;stroke-width:1.0;"/><text fill="#000000" font-family="sans-serif" font-size="13" font-weight="bold" lengthAdjust="spacing" textLength="14" x="1467" y="869.9482">22</text><text fill="#000000" font-family="sans-serif" font-size="13" lengthAdjust="spacing" textLength="187" x="1485" y="869.9482">validateCollaborator(collaborator)</text><line style="stroke:#181818;stroke-width:1.0;stroke-dasharray:2.0,2.0;" x1="1460" x2="1502" y1="928.1563" y2="928.1563"/><line style="stroke:#181818;stroke-width:1.0;stroke-dasharray:2.0,2.0;" x1="1502" x2="1502" y1="928.1563" y2="941.1563"/><line style="stroke:#181818;stroke-width:1.0;stroke-dasharray:2.0,2.0;" x1="1455" x2="1502" y1="941.1563" y2="941.1563"/><polygon fill="#181818" points="1465,937.1563,1455,941.1563,1465,945.1563,1461,941.1563" style="stroke:#181818;stroke-width:1.0;"/><text fill="#000000" font-family="sans-serif" font-size="13" font-weight="bold" lengthAdjust="spacing" textLength="14" x="1467" y="923.2998">23</text><text fill="#000000" font-family="sans-serif" font-size="13" lengthAdjust="spacing" textLength="4" x="1485" y="923.2998"> </text><line style="stroke:#181818;stroke-width:1.0;stroke-dasharray:2.0,2.0;" x1="1455" x2="1497" y1="971.5078" y2="971.5078"/><line style="stroke:#181818;stroke-width:1.0;stroke-dasharray:2.0,2.0;" x1="1497" x2="1497" y1="971.5078" y2="984.5078"/><line style="stroke:#181818;stroke-width:1.0;stroke-dasharray:2.0,2.0;" x1="1450" x2="1497" y1="984.5078" y2="984.5078"/><polygon fill="#181818" points="1460,980.5078,1450,984.5078,1460,988.5078,1456,984.5078" style="stroke:#181818;stroke-width:1.0;"/><text fill="#000000" font-family="sans-serif" font-size="13" font-weight="bold" lengthAdjust="spacing" textLength="14" x="1462" y="966.6514">24</text><text fill="#000000" font-family="sans-serif" font-size="13" lengthAdjust="spacing" textLength="4" x="1480" y="966.6514"> </text><polygon fill="#181818" points="831,1005.8594,821,1009.8594,831,1013.8594,827,1009.8594" style="stroke:#181818;stroke-width:1.0;"/><line style="stroke:#181818;stroke-width:1.0;stroke-dasharray:2.0,2.0;" x1="825" x2="1444" y1="1009.8594" y2="1009.8594"/><text fill="#000000" font-family="sans-serif" font-size="13" font-weight="bold" lengthAdjust="spacing" textLength="14" x="837" y="1005.0029">25</text><text fill="#000000" font-family="sans-serif" font-size="13" lengthAdjust="spacing" textLength="67" x="855" y="1005.0029">collaborator</text><polygon fill="#181818" points="431,1036.2109,421,1040.2109,431,1044.2109,427,1040.2109" style="stroke:#181818;stroke-width:1.0;"/><line style="stroke:#181818;stroke-width:1.0;stroke-dasharray:2.0,2.0;" x1="425" x2="814" y1="1040.2109" y2="1040.2109"/><text fill="#000000" font-family="sans-serif" font-size="13" font-weight="bold" lengthAdjust="spacing" textLength="14" x="437" y="1035.3545">26</text><text fill="#000000" font-family="sans-serif" font-size="13" lengthAdjust="spacing" textLength="67" x="455" y="1035.3545">collaborator</text><polygon fill="#181818" points="107,1066.5625,97,1070.5625,107,1074.5625,103,1070.5625" style="stroke:#181818;stroke-width:1.0;"/><line style="stroke:#181818;stroke-width:1.0;stroke-dasharray:2.0,2.0;" x1="101" x2="414" y1="1070.5625" y2="1070.5625"/><text fill="#000000" font-family="sans-serif" font-size="13" font-weight="bold" lengthAdjust="spacing" textLength="14" x="113" y="1065.7061">27</text><text fill="#000000" font-family="sans-serif" font-size="13" lengthAdjust="spacing" textLength="158" x="131" y="1065.7061">displays operation success</text><!--SRC=[rLTDKzim4BthL-nmAJ397yY16IOSIWVQ3X-tN3Rs9X7OaYl9qFJNTot7iOI52mn3MvyYQz_JM-q-oR7tKbLei8HIAvrjZ2u9dAb9sFrCXTazhkdQRGi2Gvb3jIx20Bl1N3zAjOOL5fQ4mDffLPTBCa9ysiYSOAMrM-gV0ZEd3HnyhajKS4LMroOZ2vUeU0Lp06ZXzEnICA-JcQnGEJYONT5QMaTchei2bzeWSzoU- -3RynV4phLoXiUx1UOtLnS3LAMjv519riViNsolPPCjvnD3J81Og271zulJcnXnfvSzwsoXleHZZudUn61jrgZaBtHIAyP-2uOU6hw8aLcm4T7wy-H4kqF9gUTvOx81XMZABX_GaI-kWDt30vYUS0rXnf1x2qvpVxNr0mH5Zv15D1rmJyVbtxzi7gQQCYCJpvZfHqtMMVz36ieXHuTHU4xFCeNQtBOYs_6bU4RrdFY6OverEQxm1QTtU9I6-ywCffh7mvacqPCjwxcoxCcCdj16rAc67aGtJsgLwIw9PbFxFX_0W-ryqN9TOerNzllJ8yVIyVPAwlTalU38TMEAquoTn4ZOM2qZbR6Xat9ZucdVBNSj_PZaFz2tshicJl45NCFMwxt4QBlHZvOzMJ05w5N3naELxtrhgU2ROQ4micmJ9qRS5hgiPMWMwK19Mmra0HO5IBNIflJ7dvUrDt-crKhkPiGBLEpYUuyFedjFSxGXdWhFkaE59KrWAOtRdF7S130lfRMyV3VC3LaxMQXgenLzzTVa1AX4MKo0xqhbv4fcNl2PpkgINzpm0SI0UB93ycuTYLSS8xtRqiVyEzZExsFo2dcp0TDQ_x4Af0_rz4uCCqt6FStz-BZB-I_b-KRTOSrOM5Imi5S-R2D3GGzOoFnf6tsGgcTbZNdblrsqFJN3ZxhtMB2_w5v1dZmamm_8NDggmAq5NP5fhnPRP_ntnGeXKdT9C6o-Sty3]--></g></svg>