<?xml version="1.0" encoding="UTF-8" standalone="no"?><svg xmlns="http://www.w3.org/2000/svg" xmlns:xlink="http://www.w3.org/1999/xlink" contentStyleType="text/css" height="1345px" preserveAspectRatio="none" style="width:3291px;height:1345px;background:#FFFFFF;" version="1.1" viewBox="0 0 3291 1345" width="3291px" zoomAndPan="magnify"><defs/><g><rect fill="#FFFFFF" height="1153.2656" style="stroke:#181818;stroke-width:1.0;" width="10" x="91" y="92.6094"/><rect fill="#FFFFFF" height="72.9609" style="stroke:#181818;stroke-width:1.0;" width="10" x="861" y="114.9609"/><rect fill="#FFFFFF" height="273.1641" style="stroke:#181818;stroke-width:1.0;" width="10" x="861" y="218.2734"/><rect fill="#FFFFFF" height="30.3516" style="stroke:#181818;stroke-width:1.0;" width="10" x="861" y="521.7891"/><rect fill="#FFFFFF" height="663.3828" style="stroke:#181818;stroke-width:1.0;" width="10" x="861" y="582.4922"/><rect fill="#FFFFFF" height="212.4609" style="stroke:#181818;stroke-width:1.0;" width="10" x="1652" y="248.625"/><rect fill="#FFFFFF" height="642.0313" style="stroke:#181818;stroke-width:1.0;" width="10" x="1652" y="612.8438"/><rect fill="#FFFFFF" height="30.3516" style="stroke:#181818;stroke-width:1.0;" width="10" x="1816" y="278.9766"/><rect fill="#FFFFFF" height="30.3516" style="stroke:#181818;stroke-width:1.0;" width="10" x="1816" y="686.5469"/><rect fill="#FFFFFF" height="30.3516" style="stroke:#181818;stroke-width:1.0;" width="10" x="1816" y="1033.4141"/><rect fill="#FFFFFF" height="30.3516" style="stroke:#181818;stroke-width:1.0;" width="10" x="1923" y="339.6797"/><rect fill="#FFFFFF" height="30.3516" style="stroke:#181818;stroke-width:1.0;" width="10" x="1923" y="747.25"/><rect fill="#FFFFFF" height="30.3516" style="stroke:#181818;stroke-width:1.0;" width="10" x="1923" y="1094.1172"/><rect fill="#FFFFFF" height="30.3516" style="stroke:#181818;stroke-width:1.0;" width="10" x="2034" y="807.9531"/><rect fill="#FFFFFF" height="134.4063" style="stroke:#181818;stroke-width:1.0;" width="10" x="2443" y="868.6563"/><rect fill="#FFFFFF" height="30.3516" style="stroke:#181818;stroke-width:1.0;" width="10" x="2672" y="1154.8203"/><rect fill="#FFFFFF" height="30.3516" style="stroke:#181818;stroke-width:1.0;" width="10" x="3234" y="899.0078"/><line style="stroke:#181818;stroke-width:0.5;stroke-dasharray:5.0,5.0;" x1="96" x2="96" y1="82.6094" y2="1263.875"/><line style="stroke:#181818;stroke-width:0.5;stroke-dasharray:5.0,5.0;" x1="865.5" x2="865.5" y1="82.6094" y2="1263.875"/><line style="stroke:#181818;stroke-width:0.5;stroke-dasharray:5.0,5.0;" x1="1656.5" x2="1656.5" y1="154.2656" y2="1263.875"/><line style="stroke:#181818;stroke-width:0.5;stroke-dasharray:5.0,5.0;" x1="1820.5" x2="1820.5" y1="82.6094" y2="1263.875"/><line style="stroke:#181818;stroke-width:0.5;stroke-dasharray:5.0,5.0;" x1="1927.5" x2="1927.5" y1="82.6094" y2="1263.875"/><line style="stroke:#181818;stroke-width:0.5;stroke-dasharray:5.0,5.0;" x1="2038.5" x2="2038.5" y1="82.6094" y2="1263.875"/><line style="stroke:#181818;stroke-width:0.5;stroke-dasharray:5.0,5.0;" x1="2447.5" x2="2447.5" y1="82.6094" y2="1263.875"/><line style="stroke:#181818;stroke-width:0.5;stroke-dasharray:5.0,5.0;" x1="2676.5" x2="2676.5" y1="82.6094" y2="1263.875"/><line style="stroke:#181818;stroke-width:0.5;stroke-dasharray:5.0,5.0;" x1="3239" x2="3239" y1="82.6094" y2="1263.875"/><text fill="#000000" font-family="sans-serif" font-size="14" lengthAdjust="spacing" textLength="176" x="5" y="79.5332">Human Resources Manager</text><ellipse cx="96" cy="13.5" fill="#E3E3E3" rx="8" ry="8" style="stroke:#181818;stroke-width:0.5;"/><path d="M96,21.5 L96,48.5 M83,29.5 L109,29.5 M96,48.5 L83,63.5 M96,48.5 L109,63.5 " fill="none" style="stroke:#181818;stroke-width:0.5;"/><text fill="#000000" font-family="sans-serif" font-size="14" lengthAdjust="spacing" textLength="176" x="5" y="1277.4082">Human Resources Manager</text><ellipse cx="96" cy="1288.9844" fill="#E3E3E3" rx="8" ry="8" style="stroke:#181818;stroke-width:0.5;"/><path d="M96,1296.9844 L96,1323.9844 M83,1304.9844 L109,1304.9844 M96,1323.9844 L83,1338.9844 M96,1323.9844 L109,1338.9844 " fill="none" style="stroke:#181818;stroke-width:0.5;"/><rect fill="#E3E3E3" height="31.6094" rx="2.5" ry="2.5" style="stroke:#181818;stroke-width:0.5;" width="161" x="785.5" y="50"/><text fill="#000000" font-family="sans-serif" font-size="14" lengthAdjust="spacing" textLength="147" x="792.5" y="71.5332">:RegisterCollaboratorUI</text><rect fill="#E3E3E3" height="31.6094" rx="2.5" ry="2.5" style="stroke:#181818;stroke-width:0.5;" width="161" x="785.5" y="1262.875"/><text fill="#000000" font-family="sans-serif" font-size="14" lengthAdjust="spacing" textLength="147" x="792.5" y="1284.4082">:RegisterCollaboratorUI</text><rect fill="#E3E3E3" height="31.6094" rx="2.5" ry="2.5" style="stroke:#181818;stroke-width:0.5;" width="211" x="1551.5" y="1262.875"/><text fill="#000000" font-family="sans-serif" font-size="14" lengthAdjust="spacing" textLength="197" x="1558.5" y="1284.4082">:RegisterCollaboratorController</text><rect fill="#E3E3E3" height="31.6094" rx="2.5" ry="2.5" style="stroke:#181818;stroke-width:0.5;" width="97" x="1772.5" y="50"/><text fill="#000000" font-family="sans-serif" font-size="14" lengthAdjust="spacing" textLength="83" x="1779.5" y="71.5332">:Repositories</text><rect fill="#E3E3E3" height="31.6094" rx="2.5" ry="2.5" style="stroke:#181818;stroke-width:0.5;" width="97" x="1772.5" y="1262.875"/><text fill="#000000" font-family="sans-serif" font-size="14" lengthAdjust="spacing" textLength="83" x="1779.5" y="1284.4082">:Repositories</text><rect fill="#E3E3E3" height="49.2188" rx="2.5" ry="2.5" style="stroke:#181818;stroke-width:0.5;" width="97" x="1879.5" y="32.3906"/><text fill="#000000" font-family="sans-serif" font-size="14" lengthAdjust="spacing" textLength="74" x="1891" y="53.9238">repositories</text><text fill="#000000" font-family="sans-serif" font-size="14" lengthAdjust="spacing" textLength="83" x="1886.5" y="71.5332">:Repositories</text><rect fill="#E3E3E3" height="49.2188" rx="2.5" ry="2.5" style="stroke:#181818;stroke-width:0.5;" width="97" x="1879.5" y="1262.875"/><text fill="#000000" font-family="sans-serif" font-size="14" lengthAdjust="spacing" textLength="74" x="1891" y="1284.4082">repositories</text><text fill="#000000" font-family="sans-serif" font-size="14" lengthAdjust="spacing" textLength="83" x="1886.5" y="1302.0176">:Repositories</text><rect fill="#E3E3E3" height="49.2188" rx="2.5" ry="2.5" style="stroke:#181818;stroke-width:0.5;" width="105" x="1986.5" y="32.3906"/><text fill="#000000" font-family="sans-serif" font-size="14" lengthAdjust="spacing" textLength="91" x="1993.5" y="53.9238">jobRepository:</text><text fill="#000000" font-family="sans-serif" font-size="14" lengthAdjust="spacing" textLength="90" x="1994" y="71.5332">JobRepository</text><rect fill="#E3E3E3" height="49.2188" rx="2.5" ry="2.5" style="stroke:#181818;stroke-width:0.5;" width="105" x="1986.5" y="1262.875"/><text fill="#000000" font-family="sans-serif" font-size="14" lengthAdjust="spacing" textLength="91" x="1993.5" y="1284.4082">jobRepository:</text><text fill="#000000" font-family="sans-serif" font-size="14" lengthAdjust="spacing" textLength="90" x="1994" y="1302.0176">JobRepository</text><rect fill="#E3E3E3" height="49.2188" rx="2.5" ry="2.5" style="stroke:#181818;stroke-width:0.5;" width="95" x="2400.5" y="32.3906"/><text fill="#000000" font-family="sans-serif" font-size="14" lengthAdjust="spacing" textLength="81" x="2407.5" y="53.9238">organization:</text><text fill="#000000" font-family="sans-serif" font-size="14" lengthAdjust="spacing" textLength="80" x="2408" y="71.5332">Organization</text><rect fill="#E3E3E3" height="49.2188" rx="2.5" ry="2.5" style="stroke:#181818;stroke-width:0.5;" width="95" x="2400.5" y="1262.875"/><text fill="#000000" font-family="sans-serif" font-size="14" lengthAdjust="spacing" textLength="81" x="2407.5" y="1284.4082">organization:</text><text fill="#000000" font-family="sans-serif" font-size="14" lengthAdjust="spacing" textLength="80" x="2408" y="1302.0176">Organization</text><rect fill="#E3E3E3" height="49.2188" rx="2.5" ry="2.5" style="stroke:#181818;stroke-width:0.5;" width="161" x="2596.5" y="32.3906"/><text fill="#000000" font-family="sans-serif" font-size="14" lengthAdjust="spacing" textLength="147" x="2603.5" y="53.9238">collaboratorRepository:</text><text fill="#000000" font-family="sans-serif" font-size="14" lengthAdjust="spacing" textLength="146" x="2604" y="71.5332">CollaboratorRepository</text><rect fill="#E3E3E3" height="49.2188" rx="2.5" ry="2.5" style="stroke:#181818;stroke-width:0.5;" width="161" x="2596.5" y="1262.875"/><text fill="#000000" font-family="sans-serif" font-size="14" lengthAdjust="spacing" textLength="147" x="2603.5" y="1284.4082">collaboratorRepository:</text><text fill="#000000" font-family="sans-serif" font-size="14" lengthAdjust="spacing" textLength="146" x="2604" y="1302.0176">CollaboratorRepository</text><rect fill="#E3E3E3" height="49.2188" rx="2.5" ry="2.5" style="stroke:#181818;stroke-width:0.5;" width="92" x="3193" y="32.3906"/><text fill="#000000" font-family="sans-serif" font-size="14" lengthAdjust="spacing" textLength="75" x="3201.5" y="53.9238">collaborator</text><text fill="#000000" font-family="sans-serif" font-size="14" lengthAdjust="spacing" textLength="78" x="3200" y="71.5332">Collaborator</text><rect fill="#E3E3E3" height="49.2188" rx="2.5" ry="2.5" style="stroke:#181818;stroke-width:0.5;" width="92" x="3193" y="1262.875"/><text fill="#000000" font-family="sans-serif" font-size="14" lengthAdjust="spacing" textLength="75" x="3201.5" y="1284.4082">collaborator</text><text fill="#000000" font-family="sans-serif" font-size="14" lengthAdjust="spacing" textLength="78" x="3200" y="1302.0176">Collaborator</text><rect fill="#FFFFFF" height="1153.2656" style="stroke:#181818;stroke-width:1.0;" width="10" x="91" y="92.6094"/><rect fill="#FFFFFF" height="72.9609" style="stroke:#181818;stroke-width:1.0;" width="10" x="861" y="114.9609"/><rect fill="#FFFFFF" height="273.1641" style="stroke:#181818;stroke-width:1.0;" width="10" x="861" y="218.2734"/><rect fill="#FFFFFF" height="30.3516" style="stroke:#181818;stroke-width:1.0;" width="10" x="861" y="521.7891"/><rect fill="#FFFFFF" height="663.3828" style="stroke:#181818;stroke-width:1.0;" width="10" x="861" y="582.4922"/><rect fill="#FFFFFF" height="212.4609" style="stroke:#181818;stroke-width:1.0;" width="10" x="1652" y="248.625"/><rect fill="#FFFFFF" height="642.0313" style="stroke:#181818;stroke-width:1.0;" width="10" x="1652" y="612.8438"/><rect fill="#FFFFFF" height="30.3516" style="stroke:#181818;stroke-width:1.0;" width="10" x="1816" y="278.9766"/><rect fill="#FFFFFF" height="30.3516" style="stroke:#181818;stroke-width:1.0;" width="10" x="1816" y="686.5469"/><rect fill="#FFFFFF" height="30.3516" style="stroke:#181818;stroke-width:1.0;" width="10" x="1816" y="1033.4141"/><rect fill="#FFFFFF" height="30.3516" style="stroke:#181818;stroke-width:1.0;" width="10" x="1923" y="339.6797"/><rect fill="#FFFFFF" height="30.3516" style="stroke:#181818;stroke-width:1.0;" width="10" x="1923" y="747.25"/><rect fill="#FFFFFF" height="30.3516" style="stroke:#181818;stroke-width:1.0;" width="10" x="1923" y="1094.1172"/><rect fill="#FFFFFF" height="30.3516" style="stroke:#181818;stroke-width:1.0;" width="10" x="2034" y="807.9531"/><rect fill="#FFFFFF" height="134.4063" style="stroke:#181818;stroke-width:1.0;" width="10" x="2443" y="868.6563"/><rect fill="#FFFFFF" height="30.3516" style="stroke:#181818;stroke-width:1.0;" width="10" x="2672" y="1154.8203"/><rect fill="#FFFFFF" height="30.3516" style="stroke:#181818;stroke-width:1.0;" width="10" x="3234" y="899.0078"/><polygon fill="#181818" points="849,110.9609,859,114.9609,849,118.9609,853,114.9609" style="stroke:#181818;stroke-width:1.0;"/><line style="stroke:#181818;stroke-width:1.0;" x1="101" x2="855" y1="114.9609" y2="114.9609"/><text fill="#000000" font-family="sans-serif" font-size="13" font-weight="bold" lengthAdjust="spacing" textLength="7" x="108" y="110.1045">1</text><text fill="#000000" font-family="sans-serif" font-size="13" lengthAdjust="spacing" textLength="199" x="119" y="110.1045">asks to register a new collaborator</text><polygon fill="#181818" points="1539.5,141.3125,1549.5,145.3125,1539.5,149.3125,1543.5,145.3125" style="stroke:#181818;stroke-width:1.0;"/><line style="stroke:#181818;stroke-width:1.0;" x1="871" x2="1545.5" y1="145.3125" y2="145.3125"/><text fill="#000000" font-family="sans-serif" font-size="13" font-weight="bold" lengthAdjust="spacing" textLength="7" x="878" y="140.4561">2</text><text fill="#000000" font-family="sans-serif" font-size="13" lengthAdjust="spacing" textLength="36" x="889" y="140.4561">create</text><rect fill="#E3E3E3" height="31.6094" rx="2.5" ry="2.5" style="stroke:#181818;stroke-width:0.5;" width="211" x="1551.5" y="122.9609"/><text fill="#000000" font-family="sans-serif" font-size="14" lengthAdjust="spacing" textLength="197" x="1558.5" y="144.4941">:RegisterCollaboratorController</text><polygon fill="#181818" points="112,183.9219,102,187.9219,112,191.9219,108,187.9219" style="stroke:#181818;stroke-width:1.0;"/><line style="stroke:#181818;stroke-width:1.0;stroke-dasharray:2.0,2.0;" x1="106" x2="865" y1="187.9219" y2="187.9219"/><text fill="#000000" font-family="sans-serif" font-size="13" font-weight="bold" lengthAdjust="spacing" textLength="7" x="118" y="183.0654">3</text><text fill="#000000" font-family="sans-serif" font-size="13" lengthAdjust="spacing" textLength="725" x="129" y="183.0654">requests data(name,birthdate,admission date,address,phone number,email,identification document type,identification number)</text><polygon fill="#181818" points="849,214.2734,859,218.2734,849,222.2734,853,218.2734" style="stroke:#181818;stroke-width:1.0;"/><line style="stroke:#181818;stroke-width:1.0;" x1="101" x2="855" y1="218.2734" y2="218.2734"/><text fill="#000000" font-family="sans-serif" font-size="13" font-weight="bold" lengthAdjust="spacing" textLength="7" x="108" y="213.417">4</text><text fill="#000000" font-family="sans-serif" font-size="13" lengthAdjust="spacing" textLength="122" x="119" y="213.417">types requested data</text><polygon fill="#181818" points="1640,244.625,1650,248.625,1640,252.625,1644,248.625" style="stroke:#181818;stroke-width:1.0;"/><line style="stroke:#181818;stroke-width:1.0;" x1="871" x2="1646" y1="248.625" y2="248.625"/><text fill="#000000" font-family="sans-serif" font-size="13" font-weight="bold" lengthAdjust="spacing" textLength="7" x="878" y="243.7686">5</text><text fill="#000000" font-family="sans-serif" font-size="13" lengthAdjust="spacing" textLength="67" x="889" y="243.7686">getListJob()</text><polygon fill="#181818" points="1804,274.9766,1814,278.9766,1804,282.9766,1808,278.9766" style="stroke:#181818;stroke-width:1.0;"/><line style="stroke:#181818;stroke-width:1.0;" x1="1662" x2="1810" y1="278.9766" y2="278.9766"/><text fill="#000000" font-family="sans-serif" font-size="13" font-weight="bold" lengthAdjust="spacing" textLength="7" x="1669" y="274.1201">6</text><text fill="#000000" font-family="sans-serif" font-size="13" lengthAdjust="spacing" textLength="75" x="1680" y="274.1201">getInstance()</text><polygon fill="#181818" points="1673,305.3281,1663,309.3281,1673,313.3281,1669,309.3281" style="stroke:#181818;stroke-width:1.0;"/><line style="stroke:#181818;stroke-width:1.0;stroke-dasharray:2.0,2.0;" x1="1667" x2="1820" y1="309.3281" y2="309.3281"/><text fill="#000000" font-family="sans-serif" font-size="13" font-weight="bold" lengthAdjust="spacing" textLength="7" x="1679" y="304.4717">7</text><text fill="#000000" font-family="sans-serif" font-size="13" lengthAdjust="spacing" textLength="67" x="1690" y="304.4717">repositories</text><polygon fill="#181818" points="1911,335.6797,1921,339.6797,1911,343.6797,1915,339.6797" style="stroke:#181818;stroke-width:1.0;"/><line style="stroke:#181818;stroke-width:1.0;" x1="1662" x2="1917" y1="339.6797" y2="339.6797"/><text fill="#000000" font-family="sans-serif" font-size="13" font-weight="bold" lengthAdjust="spacing" textLength="7" x="1669" y="334.8232">8</text><text fill="#000000" font-family="sans-serif" font-size="13" lengthAdjust="spacing" textLength="108" x="1680" y="334.8232">getJobRepository()</text><polygon fill="#181818" points="1673,366.0313,1663,370.0313,1673,374.0313,1669,370.0313" style="stroke:#181818;stroke-width:1.0;"/><line style="stroke:#181818;stroke-width:1.0;stroke-dasharray:2.0,2.0;" x1="1667" x2="1927" y1="370.0313" y2="370.0313"/><text fill="#000000" font-family="sans-serif" font-size="13" font-weight="bold" lengthAdjust="spacing" textLength="7" x="1679" y="365.1748">9</text><text fill="#000000" font-family="sans-serif" font-size="13" lengthAdjust="spacing" textLength="79" x="1690" y="365.1748">jobRepository</text><polygon fill="#181818" points="2027,396.3828,2037,400.3828,2027,404.3828,2031,400.3828" style="stroke:#181818;stroke-width:1.0;"/><line style="stroke:#181818;stroke-width:1.0;" x1="1662" x2="2033" y1="400.3828" y2="400.3828"/><text fill="#000000" font-family="sans-serif" font-size="13" font-weight="bold" lengthAdjust="spacing" textLength="14" x="1669" y="395.5264">10</text><text fill="#000000" font-family="sans-serif" font-size="13" lengthAdjust="spacing" textLength="67" x="1687" y="395.5264">getJobList()</text><polygon fill="#181818" points="1673,426.7344,1663,430.7344,1673,434.7344,1669,430.7344" style="stroke:#181818;stroke-width:1.0;"/><line style="stroke:#181818;stroke-width:1.0;stroke-dasharray:2.0,2.0;" x1="1667" x2="2038" y1="430.7344" y2="430.7344"/><text fill="#000000" font-family="sans-serif" font-size="13" font-weight="bold" lengthAdjust="spacing" textLength="14" x="1679" y="425.8779">11</text><text fill="#000000" font-family="sans-serif" font-size="13" lengthAdjust="spacing" textLength="38" x="1697" y="425.8779">jobList</text><polygon fill="#181818" points="882,457.0859,872,461.0859,882,465.0859,878,461.0859" style="stroke:#181818;stroke-width:1.0;"/><line style="stroke:#181818;stroke-width:1.0;stroke-dasharray:2.0,2.0;" x1="876" x2="1656" y1="461.0859" y2="461.0859"/><text fill="#000000" font-family="sans-serif" font-size="13" font-weight="bold" lengthAdjust="spacing" textLength="14" x="888" y="456.2295">12</text><text fill="#000000" font-family="sans-serif" font-size="13" lengthAdjust="spacing" textLength="37" x="906" y="456.2295">listJob</text><polygon fill="#181818" points="112,487.4375,102,491.4375,112,495.4375,108,491.4375" style="stroke:#181818;stroke-width:1.0;"/><line style="stroke:#181818;stroke-width:1.0;stroke-dasharray:2.0,2.0;" x1="106" x2="865" y1="491.4375" y2="491.4375"/><text fill="#000000" font-family="sans-serif" font-size="13" font-weight="bold" lengthAdjust="spacing" textLength="14" x="118" y="486.5811">13</text><text fill="#000000" font-family="sans-serif" font-size="13" lengthAdjust="spacing" textLength="294" x="136" y="486.5811">shows a list of jobs and ask to choose one of them</text><polygon fill="#181818" points="849,517.7891,859,521.7891,849,525.7891,853,521.7891" style="stroke:#181818;stroke-width:1.0;"/><line style="stroke:#181818;stroke-width:1.0;" x1="101" x2="855" y1="521.7891" y2="521.7891"/><text fill="#000000" font-family="sans-serif" font-size="13" font-weight="bold" lengthAdjust="spacing" textLength="14" x="108" y="516.9326">14</text><text fill="#000000" font-family="sans-serif" font-size="13" lengthAdjust="spacing" textLength="74" x="126" y="516.9326">selects a job</text><polygon fill="#181818" points="112,548.1406,102,552.1406,112,556.1406,108,552.1406" style="stroke:#181818;stroke-width:1.0;"/><line style="stroke:#181818;stroke-width:1.0;stroke-dasharray:2.0,2.0;" x1="106" x2="865" y1="552.1406" y2="552.1406"/><text fill="#000000" font-family="sans-serif" font-size="13" font-weight="bold" lengthAdjust="spacing" textLength="14" x="118" y="547.2842">15</text><text fill="#000000" font-family="sans-serif" font-size="13" lengthAdjust="spacing" textLength="266" x="136" y="547.2842">show all information and appeal authentication</text><polygon fill="#181818" points="849,578.4922,859,582.4922,849,586.4922,853,582.4922" style="stroke:#181818;stroke-width:1.0;"/><line style="stroke:#181818;stroke-width:1.0;" x1="101" x2="855" y1="582.4922" y2="582.4922"/><text fill="#000000" font-family="sans-serif" font-size="13" font-weight="bold" lengthAdjust="spacing" textLength="14" x="108" y="577.6357">16</text><text fill="#000000" font-family="sans-serif" font-size="13" lengthAdjust="spacing" textLength="138" x="126" y="577.6357">authenticate information</text><polygon fill="#181818" points="1640,608.8438,1650,612.8438,1640,616.8438,1644,612.8438" style="stroke:#181818;stroke-width:1.0;"/><line style="stroke:#181818;stroke-width:1.0;" x1="871" x2="1646" y1="612.8438" y2="612.8438"/><text fill="#000000" font-family="sans-serif" font-size="13" font-weight="bold" lengthAdjust="spacing" textLength="14" x="878" y="607.9873">17</text><text fill="#000000" font-family="sans-serif" font-size="13" lengthAdjust="spacing" textLength="744" x="896" y="607.9873">createCollaborator(name,birthDate,admissionDate,address,phoneNumber,email,identificationDocumentType,identificationNumber)</text><line style="stroke:#181818;stroke-width:1.0;" x1="1662" x2="1704" y1="643.1953" y2="643.1953"/><line style="stroke:#181818;stroke-width:1.0;" x1="1704" x2="1704" y1="643.1953" y2="656.1953"/><line style="stroke:#181818;stroke-width:1.0;" x1="1663" x2="1704" y1="656.1953" y2="656.1953"/><polygon fill="#181818" points="1673,652.1953,1663,656.1953,1673,660.1953,1669,656.1953" style="stroke:#181818;stroke-width:1.0;"/><text fill="#000000" font-family="sans-serif" font-size="13" font-weight="bold" lengthAdjust="spacing" textLength="14" x="1669" y="638.3389">18</text><text fill="#000000" font-family="sans-serif" font-size="13" lengthAdjust="spacing" textLength="63" x="1687" y="638.3389">getJob(job)</text><polygon fill="#181818" points="1804,682.5469,1814,686.5469,1804,690.5469,1808,686.5469" style="stroke:#181818;stroke-width:1.0;"/><line style="stroke:#181818;stroke-width:1.0;" x1="1662" x2="1810" y1="686.5469" y2="686.5469"/><text fill="#000000" font-family="sans-serif" font-size="13" font-weight="bold" lengthAdjust="spacing" textLength="14" x="1669" y="681.6904">19</text><text fill="#000000" font-family="sans-serif" font-size="13" lengthAdjust="spacing" textLength="75" x="1687" y="681.6904">getInstance()</text><polygon fill="#181818" points="1673,712.8984,1663,716.8984,1673,720.8984,1669,716.8984" style="stroke:#181818;stroke-width:1.0;"/><line style="stroke:#181818;stroke-width:1.0;stroke-dasharray:2.0,2.0;" x1="1667" x2="1820" y1="716.8984" y2="716.8984"/><text fill="#000000" font-family="sans-serif" font-size="13" font-weight="bold" lengthAdjust="spacing" textLength="14" x="1679" y="712.042">20</text><text fill="#000000" font-family="sans-serif" font-size="13" lengthAdjust="spacing" textLength="67" x="1697" y="712.042">repositories</text><polygon fill="#181818" points="1911,743.25,1921,747.25,1911,751.25,1915,747.25" style="stroke:#181818;stroke-width:1.0;"/><line style="stroke:#181818;stroke-width:1.0;" x1="1662" x2="1917" y1="747.25" y2="747.25"/><text fill="#000000" font-family="sans-serif" font-size="13" font-weight="bold" lengthAdjust="spacing" textLength="14" x="1669" y="742.3936">21</text><text fill="#000000" font-family="sans-serif" font-size="13" lengthAdjust="spacing" textLength="108" x="1687" y="742.3936">getJobRepository()</text><polygon fill="#181818" points="1673,773.6016,1663,777.6016,1673,781.6016,1669,777.6016" style="stroke:#181818;stroke-width:1.0;"/><line style="stroke:#181818;stroke-width:1.0;stroke-dasharray:2.0,2.0;" x1="1667" x2="1927" y1="777.6016" y2="777.6016"/><text fill="#000000" font-family="sans-serif" font-size="13" font-weight="bold" lengthAdjust="spacing" textLength="14" x="1679" y="772.7451">22</text><text fill="#000000" font-family="sans-serif" font-size="13" lengthAdjust="spacing" textLength="79" x="1697" y="772.7451">jobRepository</text><polygon fill="#181818" points="2022,803.9531,2032,807.9531,2022,811.9531,2026,807.9531" style="stroke:#181818;stroke-width:1.0;"/><line style="stroke:#181818;stroke-width:1.0;" x1="1662" x2="2028" y1="807.9531" y2="807.9531"/><text fill="#000000" font-family="sans-serif" font-size="13" font-weight="bold" lengthAdjust="spacing" textLength="14" x="1669" y="803.0967">23</text><text fill="#000000" font-family="sans-serif" font-size="13" lengthAdjust="spacing" textLength="63" x="1687" y="803.0967">getJob(job)</text><polygon fill="#181818" points="1673,834.3047,1663,838.3047,1673,842.3047,1669,838.3047" style="stroke:#181818;stroke-width:1.0;"/><line style="stroke:#181818;stroke-width:1.0;stroke-dasharray:2.0,2.0;" x1="1667" x2="2038" y1="838.3047" y2="838.3047"/><text fill="#000000" font-family="sans-serif" font-size="13" font-weight="bold" lengthAdjust="spacing" textLength="14" x="1679" y="833.4482">24</text><text fill="#000000" font-family="sans-serif" font-size="13" lengthAdjust="spacing" textLength="17" x="1697" y="833.4482">job</text><polygon fill="#181818" points="2431,864.6563,2441,868.6563,2431,872.6563,2435,868.6563" style="stroke:#181818;stroke-width:1.0;"/><line style="stroke:#181818;stroke-width:1.0;" x1="1662" x2="2437" y1="868.6563" y2="868.6563"/><text fill="#000000" font-family="sans-serif" font-size="13" font-weight="bold" lengthAdjust="spacing" textLength="14" x="1669" y="863.7998">25</text><text fill="#000000" font-family="sans-serif" font-size="13" lengthAdjust="spacing" textLength="744" x="1687" y="863.7998">createCollaborator(name,birthDate,admissionDate,address,phoneNumber,email,identificationDocumentType,identificationNumber)</text><polygon fill="#181818" points="3222,895.0078,3232,899.0078,3222,903.0078,3226,899.0078" style="stroke:#181818;stroke-width:1.0;"/><line style="stroke:#181818;stroke-width:1.0;" x1="2453" x2="3228" y1="899.0078" y2="899.0078"/><text fill="#000000" font-family="sans-serif" font-size="13" font-weight="bold" lengthAdjust="spacing" textLength="14" x="2460" y="894.1514">26</text><text fill="#000000" font-family="sans-serif" font-size="13" lengthAdjust="spacing" textLength="744" x="2478" y="894.1514">createCollaborator(name,birthDate,admissionDate,address,phoneNumber,email,identificationDocumentType,identificationNumber)</text><polygon fill="#181818" points="2464,925.3594,2454,929.3594,2464,933.3594,2460,929.3594" style="stroke:#181818;stroke-width:1.0;"/><line style="stroke:#181818;stroke-width:1.0;stroke-dasharray:2.0,2.0;" x1="2458" x2="3238" y1="929.3594" y2="929.3594"/><text fill="#000000" font-family="sans-serif" font-size="13" font-weight="bold" lengthAdjust="spacing" textLength="14" x="2470" y="924.5029">27</text><text fill="#000000" font-family="sans-serif" font-size="13" lengthAdjust="spacing" textLength="165" x="2488" y="924.5029">addCollaborator(collaborator)</text><line style="stroke:#181818;stroke-width:1.0;stroke-dasharray:2.0,2.0;" x1="2453" x2="2495" y1="959.7109" y2="959.7109"/><line style="stroke:#181818;stroke-width:1.0;stroke-dasharray:2.0,2.0;" x1="2495" x2="2495" y1="959.7109" y2="972.7109"/><line style="stroke:#181818;stroke-width:1.0;stroke-dasharray:2.0,2.0;" x1="2454" x2="2495" y1="972.7109" y2="972.7109"/><polygon fill="#181818" points="2464,968.7109,2454,972.7109,2464,976.7109,2460,972.7109" style="stroke:#181818;stroke-width:1.0;"/><text fill="#000000" font-family="sans-serif" font-size="13" font-weight="bold" lengthAdjust="spacing" textLength="14" x="2460" y="954.8545">28</text><text fill="#000000" font-family="sans-serif" font-size="13" lengthAdjust="spacing" textLength="187" x="2478" y="954.8545">validateCollaborator(collaborator)</text><polygon fill="#181818" points="1673,999.0625,1663,1003.0625,1673,1007.0625,1669,1003.0625" style="stroke:#181818;stroke-width:1.0;"/><line style="stroke:#181818;stroke-width:1.0;stroke-dasharray:2.0,2.0;" x1="1667" x2="2447" y1="1003.0625" y2="1003.0625"/><text fill="#000000" font-family="sans-serif" font-size="13" font-weight="bold" lengthAdjust="spacing" textLength="14" x="1679" y="998.2061">29</text><text fill="#000000" font-family="sans-serif" font-size="13" lengthAdjust="spacing" textLength="67" x="1697" y="998.2061">collaborator</text><polygon fill="#181818" points="1804,1029.4141,1814,1033.4141,1804,1037.4141,1808,1033.4141" style="stroke:#181818;stroke-width:1.0;"/><line style="stroke:#181818;stroke-width:1.0;" x1="1662" x2="1810" y1="1033.4141" y2="1033.4141"/><text fill="#000000" font-family="sans-serif" font-size="13" font-weight="bold" lengthAdjust="spacing" textLength="14" x="1669" y="1028.5576">30</text><text fill="#000000" font-family="sans-serif" font-size="13" lengthAdjust="spacing" textLength="75" x="1687" y="1028.5576">getInstance()</text><polygon fill="#181818" points="1673,1059.7656,1663,1063.7656,1673,1067.7656,1669,1063.7656" style="stroke:#181818;stroke-width:1.0;"/><line style="stroke:#181818;stroke-width:1.0;stroke-dasharray:2.0,2.0;" x1="1667" x2="1820" y1="1063.7656" y2="1063.7656"/><text fill="#000000" font-family="sans-serif" font-size="13" font-weight="bold" lengthAdjust="spacing" textLength="14" x="1679" y="1058.9092">31</text><text fill="#000000" font-family="sans-serif" font-size="13" lengthAdjust="spacing" textLength="67" x="1697" y="1058.9092">repositories</text><polygon fill="#181818" points="1911,1090.1172,1921,1094.1172,1911,1098.1172,1915,1094.1172" style="stroke:#181818;stroke-width:1.0;"/><line style="stroke:#181818;stroke-width:1.0;" x1="1662" x2="1917" y1="1094.1172" y2="1094.1172"/><text fill="#000000" font-family="sans-serif" font-size="13" font-weight="bold" lengthAdjust="spacing" textLength="14" x="1669" y="1089.2607">32</text><text fill="#000000" font-family="sans-serif" font-size="13" lengthAdjust="spacing" textLength="188" x="1687" y="1089.2607">getCollaboratorRepository(email)</text><polygon fill="#181818" points="1673,1120.4688,1663,1124.4688,1673,1128.4688,1669,1124.4688" style="stroke:#181818;stroke-width:1.0;"/><line style="stroke:#181818;stroke-width:1.0;stroke-dasharray:2.0,2.0;" x1="1667" x2="1927" y1="1124.4688" y2="1124.4688"/><text fill="#000000" font-family="sans-serif" font-size="13" font-weight="bold" lengthAdjust="spacing" textLength="14" x="1679" y="1119.6123">33</text><text fill="#000000" font-family="sans-serif" font-size="13" lengthAdjust="spacing" textLength="129" x="1697" y="1119.6123">collaboratorRepository</text><polygon fill="#181818" points="2660,1150.8203,2670,1154.8203,2660,1158.8203,2664,1154.8203" style="stroke:#181818;stroke-width:1.0;"/><line style="stroke:#181818;stroke-width:1.0;" x1="1662" x2="2666" y1="1154.8203" y2="1154.8203"/><text fill="#000000" font-family="sans-serif" font-size="13" font-weight="bold" lengthAdjust="spacing" textLength="14" x="1669" y="1149.9639">34</text><text fill="#000000" font-family="sans-serif" font-size="13" lengthAdjust="spacing" textLength="116" x="1687" y="1149.9639">getCollaboratorList()</text><polygon fill="#181818" points="1673,1181.1719,1663,1185.1719,1673,1189.1719,1669,1185.1719" style="stroke:#181818;stroke-width:1.0;"/><line style="stroke:#181818;stroke-width:1.0;stroke-dasharray:2.0,2.0;" x1="1667" x2="2676" y1="1185.1719" y2="1185.1719"/><text fill="#000000" font-family="sans-serif" font-size="13" font-weight="bold" lengthAdjust="spacing" textLength="14" x="1679" y="1180.3154">35</text><text fill="#000000" font-family="sans-serif" font-size="13" lengthAdjust="spacing" textLength="88" x="1697" y="1180.3154">collaboratorList</text><polygon fill="#181818" points="882,1211.5234,872,1215.5234,882,1219.5234,878,1215.5234" style="stroke:#181818;stroke-width:1.0;"/><line style="stroke:#181818;stroke-width:1.0;stroke-dasharray:2.0,2.0;" x1="876" x2="1651" y1="1215.5234" y2="1215.5234"/><text fill="#000000" font-family="sans-serif" font-size="13" font-weight="bold" lengthAdjust="spacing" textLength="14" x="888" y="1210.667">36</text><text fill="#000000" font-family="sans-serif" font-size="13" lengthAdjust="spacing" textLength="88" x="906" y="1210.667">collaboratorList</text><polygon fill="#181818" points="107,1241.875,97,1245.875,107,1249.875,103,1245.875" style="stroke:#181818;stroke-width:1.0;"/><line style="stroke:#181818;stroke-width:1.0;stroke-dasharray:2.0,2.0;" x1="101" x2="865" y1="1245.875" y2="1245.875"/><text fill="#000000" font-family="sans-serif" font-size="13" font-weight="bold" lengthAdjust="spacing" textLength="14" x="113" y="1241.0186">37</text><text fill="#000000" font-family="sans-serif" font-size="13" lengthAdjust="spacing" textLength="312" x="131" y="1241.0186">displays operation success and register a collaborator</text><!--SRC=[rLV1Kjim4BtxAtQua33X1pWmqmc7qW7QeN3ZeiYRM61BhYH3wTTt9Jk952kEWSwqpIcITf_UQhNFA_CaPCqqgw1IKl52gmh1wWOpircf6NzYA_nkNqi4ZTmokIf30rEmNBq8kO8bAmrc6MkiaasrG9rbnuN84PPAsONwcJ5kbOQZpqt59DoYKOtcQE2QITf17m4pyEdYEYDSAxYecRHmT7QBAs4iwhagIxPGcX76_QKtlhySOJjNqceQTnlCxswlUbwrCe9C1Hflivbu_IvSj1HFxA83ZmVP1_XszUakzdXKYotgsOFy4ewzJpGJEokzObByObOeIRvVWw5t3ITYJnuSHBJ_FBdGdb1oQJzk3DQ3o5pQnJEpw9ERGVUZ0PoUKmxXZ5oU35X5zwlD7p2G-08yWbaxRk0e_Tan13_2EYL8Xtn6M3yQDDP0pYo3YSObQfGSPv2ZuLhKxhHc048kbQvO2GyoNh782oauhKJJUQDP-uyhOwTPIE2OQtJC_2NRPNRkfqzEY5jhbcLfyZlS9v9LE5i8RGiQuepbbJ26640tp3KQCwiB9H7QmfjXnKGvezgJLYmf1klD5MygcW7xMkFkOkiuZJdb61rsk1Icp-6PDMdCFUlOUY_Czc08PuNsYl9FbJ2PfjtzmKPBxkVT2IPHjotgfJIaMnntO2FeLD7thDqljSjf5uHBtLOBUkx1UOxQRXsOqvCsaaWbXiBn4fJaxy6sX2Db6cASHbnJZ8XjkBfqJgPf7h77wVOQFBP-GrnYiTn3Qdqzo_PExRlP_JiLwOWfr8iXGN8ee9QE7GrbxaJBQHOlb388hlXerHPOPGFb4vQDmPA-fmxxiMENB9CU6s1bkPOjNxkUJLqZIHLzV0jNrsrLPoDO11uOegO9RUjrhMAXrWTITH59rKLFgMxs2zL5frDtVPcwwLJg3QAmrHQdAtJIq-Hj_8Y6l4z7FgWbxz6JzsdAI5tfQGiS4fTH0dDOPFOdTQnUZ96aG-n7IT9vrAlzzH9AdbNKJVRCmbLVNW7tVpEUURABtEGbMFKPZnD41ADemfPqElI56jurFiNUhi-i5FdkGSPR7uRiH3haCS0tplfRMgp_giCQRB5y9EddpyJVoZ_HRwMVP8SRh_qVkFGRRpUMhXKRLIQ3GfQqsnFWeJvkzARRXYwnGSyyV4lbmjGbUpMWQcnVRc0QpabrVDyKF3dZvsQMQfw2eNlC_WO0]--></g></svg>