<?xml version="1.0" encoding="UTF-8" standalone="no"?><svg xmlns="http://www.w3.org/2000/svg" xmlns:xlink="http://www.w3.org/1999/xlink" contentStyleType="text/css" height="827px" preserveAspectRatio="none" style="width:1245px;height:827px;background:#FFFFFF;" version="1.1" viewBox="0 0 1245 827" width="1245px" zoomAndPan="magnify"><defs/><g><!--class ListTasksBetweenDatesUI--><g id="elem_ListTasksBetweenDatesUI"><rect codeLine="11" fill="#F1F1F1" height="48" id="ListTasksBetweenDatesUI" rx="2.5" ry="2.5" style="stroke:#181818;stroke-width:0.5;" width="195" x="7" y="42"/><ellipse cx="22" cy="58" fill="#ADD1B2" rx="11" ry="11" style="stroke:#181818;stroke-width:1.0;"/><path d="M24.7656,53.875 Q24.9219,53.6563 25.1094,53.5469 Q25.2969,53.4375 25.5156,53.4375 Q25.8906,53.4375 26.125,53.7031 Q26.3594,53.9531 26.3594,54.5625 L26.3594,56.0156 Q26.3594,56.625 26.125,56.8906 Q25.8906,57.1563 25.5156,57.1563 Q25.1719,57.1563 24.9688,56.9531 Q24.7656,56.7656 24.6563,56.25 Q24.6094,55.8906 24.4219,55.7031 Q24.0938,55.3281 23.4844,55.1094 Q22.875,54.8906 22.25,54.8906 Q21.4844,54.8906 20.8438,55.2188 Q20.2188,55.5469 19.7188,56.2969 Q19.2344,57.0469 19.2344,58.0781 L19.2344,59.1719 Q19.2344,60.4063 20.125,61.2344 Q21.0156,62.0469 22.6094,62.0469 Q23.5469,62.0469 24.2031,61.7969 Q24.5938,61.6406 25.0156,61.2031 Q25.2813,60.9375 25.4219,60.8594 Q25.5781,60.7813 25.7813,60.7813 Q26.1094,60.7813 26.3594,61.0469 Q26.625,61.2969 26.625,61.6406 Q26.625,61.9844 26.2813,62.3906 Q25.7813,62.9688 24.9844,63.2969 Q23.9063,63.75 22.6094,63.75 Q21.0938,63.75 19.8906,63.125 Q18.9063,62.625 18.2188,61.5625 Q17.5313,60.4844 17.5313,59.2031 L17.5313,58.0469 Q17.5313,56.7188 18.1406,55.5781 Q18.7656,54.4219 19.8594,53.8125 Q20.9531,53.1875 22.1875,53.1875 Q22.9219,53.1875 23.5625,53.3594 Q24.2188,53.5156 24.7656,53.875 Z " fill="#000000"/><text fill="#000000" font-family="sans-serif" font-size="14" lengthAdjust="spacing" textLength="163" x="36" y="63.7285">ListTasksBetweenDatesUI</text><line style="stroke:#181818;stroke-width:0.5;" x1="8" x2="201" y1="74" y2="74"/><line style="stroke:#181818;stroke-width:0.5;" x1="8" x2="201" y1="82" y2="82"/></g><!--class ListTasksBetweenDatesController--><g id="elem_ListTasksBetweenDatesController"><rect codeLine="15" fill="#F1F1F1" height="100.8281" id="ListTasksBetweenDatesController" rx="2.5" ry="2.5" style="stroke:#181818;stroke-width:0.5;" width="390" x="276.5" y="15.5"/><ellipse cx="360.75" cy="31.5" fill="#ADD1B2" rx="11" ry="11" style="stroke:#181818;stroke-width:1.0;"/><path d="M363.5156,27.375 Q363.6719,27.1563 363.8594,27.0469 Q364.0469,26.9375 364.2656,26.9375 Q364.6406,26.9375 364.875,27.2031 Q365.1094,27.4531 365.1094,28.0625 L365.1094,29.5156 Q365.1094,30.125 364.875,30.3906 Q364.6406,30.6563 364.2656,30.6563 Q363.9219,30.6563 363.7188,30.4531 Q363.5156,30.2656 363.4063,29.75 Q363.3594,29.3906 363.1719,29.2031 Q362.8438,28.8281 362.2344,28.6094 Q361.625,28.3906 361,28.3906 Q360.2344,28.3906 359.5938,28.7188 Q358.9688,29.0469 358.4688,29.7969 Q357.9844,30.5469 357.9844,31.5781 L357.9844,32.6719 Q357.9844,33.9063 358.875,34.7344 Q359.7656,35.5469 361.3594,35.5469 Q362.2969,35.5469 362.9531,35.2969 Q363.3438,35.1406 363.7656,34.7031 Q364.0313,34.4375 364.1719,34.3594 Q364.3281,34.2813 364.5313,34.2813 Q364.8594,34.2813 365.1094,34.5469 Q365.375,34.7969 365.375,35.1406 Q365.375,35.4844 365.0313,35.8906 Q364.5313,36.4688 363.7344,36.7969 Q362.6563,37.25 361.3594,37.25 Q359.8438,37.25 358.6406,36.625 Q357.6563,36.125 356.9688,35.0625 Q356.2813,33.9844 356.2813,32.7031 L356.2813,31.5469 Q356.2813,30.2188 356.8906,29.0781 Q357.5156,27.9219 358.6094,27.3125 Q359.7031,26.6875 360.9375,26.6875 Q361.6719,26.6875 362.3125,26.8594 Q362.9688,27.0156 363.5156,27.375 Z " fill="#000000"/><text fill="#000000" font-family="sans-serif" font-size="14" lengthAdjust="spacing" textLength="213" x="381.25" y="37.2285">ListTasksBetweenDatesController</text><line style="stroke:#181818;stroke-width:0.5;" x1="277.5" x2="665.5" y1="47.5" y2="47.5"/><text fill="#000000" font-family="sans-serif" font-size="14" lengthAdjust="spacing" textLength="242" x="282.5" y="66.0332">-AgendaRepository agendaRepository</text><line style="stroke:#181818;stroke-width:0.5;" x1="277.5" x2="665.5" y1="73.1094" y2="73.1094"/><text fill="#000000" font-family="sans-serif" font-size="14" lengthAdjust="spacing" textLength="347" x="282.5" y="91.6426">+ListTasksBetweenDatesController(agendaRepository)</text><text fill="#000000" font-family="sans-serif" font-size="14" lengthAdjust="spacing" textLength="378" x="282.5" y="109.252">+getPlannedAndPostponedTasksBelongingToCurrentUser()</text></g><!--class Repositories--><g id="elem_Repositories"><rect codeLine="23" fill="#F1F1F1" height="118.4375" id="Repositories" rx="2.5" ry="2.5" style="stroke:#181818;stroke-width:0.5;" width="287" x="855" y="7"/><ellipse cx="954.75" cy="23" fill="#ADD1B2" rx="11" ry="11" style="stroke:#181818;stroke-width:1.0;"/><path d="M957.5156,18.875 Q957.6719,18.6563 957.8594,18.5469 Q958.0469,18.4375 958.2656,18.4375 Q958.6406,18.4375 958.875,18.7031 Q959.1094,18.9531 959.1094,19.5625 L959.1094,21.0156 Q959.1094,21.625 958.875,21.8906 Q958.6406,22.1563 958.2656,22.1563 Q957.9219,22.1563 957.7188,21.9531 Q957.5156,21.7656 957.4063,21.25 Q957.3594,20.8906 957.1719,20.7031 Q956.8438,20.3281 956.2344,20.1094 Q955.625,19.8906 955,19.8906 Q954.2344,19.8906 953.5938,20.2188 Q952.9688,20.5469 952.4688,21.2969 Q951.9844,22.0469 951.9844,23.0781 L951.9844,24.1719 Q951.9844,25.4063 952.875,26.2344 Q953.7656,27.0469 955.3594,27.0469 Q956.2969,27.0469 956.9531,26.7969 Q957.3438,26.6406 957.7656,26.2031 Q958.0313,25.9375 958.1719,25.8594 Q958.3281,25.7813 958.5313,25.7813 Q958.8594,25.7813 959.1094,26.0469 Q959.375,26.2969 959.375,26.6406 Q959.375,26.9844 959.0313,27.3906 Q958.5313,27.9688 957.7344,28.2969 Q956.6563,28.75 955.3594,28.75 Q953.8438,28.75 952.6406,28.125 Q951.6563,27.625 950.9688,26.5625 Q950.2813,25.4844 950.2813,24.2031 L950.2813,23.0469 Q950.2813,21.7188 950.8906,20.5781 Q951.5156,19.4219 952.6094,18.8125 Q953.7031,18.1875 954.9375,18.1875 Q955.6719,18.1875 956.3125,18.3594 Q956.9688,18.5156 957.5156,18.875 Z " fill="#000000"/><text fill="#000000" font-family="sans-serif" font-size="14" lengthAdjust="spacing" textLength="79" x="975.25" y="28.7285">Repositories</text><line style="stroke:#181818;stroke-width:0.5;" x1="856" x2="1141" y1="39" y2="39"/><line style="stroke:#181818;stroke-width:0.5;" x1="856" x2="1141" y1="47" y2="47"/><text fill="#000000" font-family="sans-serif" font-size="14" lengthAdjust="spacing" textLength="181" x="861" y="65.5332">-Repositories(): Repositories</text><text fill="#000000" font-family="sans-serif" font-size="14" lengthAdjust="spacing" textLength="182" x="861" y="83.1426">+getInstance() : Repositories</text><text fill="#000000" font-family="sans-serif" font-size="14" lengthAdjust="spacing" textLength="246" x="861" y="100.752">+getAgendaRepository() : Repositories</text><text fill="#000000" font-family="sans-serif" font-size="14" lengthAdjust="spacing" textLength="275" x="861" y="118.3613">+getCollaboratorRepository() : Repositories</text></g><!--class AgendaRepository--><g id="elem_AgendaRepository"><rect codeLine="31" fill="#F1F1F1" height="100.8281" id="AgendaRepository" rx="2.5" ry="2.5" style="stroke:#181818;stroke-width:0.5;" width="415" x="525" y="265"/><ellipse cx="669.75" cy="281" fill="#ADD1B2" rx="11" ry="11" style="stroke:#181818;stroke-width:1.0;"/><path d="M672.5156,276.875 Q672.6719,276.6563 672.8594,276.5469 Q673.0469,276.4375 673.2656,276.4375 Q673.6406,276.4375 673.875,276.7031 Q674.1094,276.9531 674.1094,277.5625 L674.1094,279.0156 Q674.1094,279.625 673.875,279.8906 Q673.6406,280.1563 673.2656,280.1563 Q672.9219,280.1563 672.7188,279.9531 Q672.5156,279.7656 672.4063,279.25 Q672.3594,278.8906 672.1719,278.7031 Q671.8438,278.3281 671.2344,278.1094 Q670.625,277.8906 670,277.8906 Q669.2344,277.8906 668.5938,278.2188 Q667.9688,278.5469 667.4688,279.2969 Q666.9844,280.0469 666.9844,281.0781 L666.9844,282.1719 Q666.9844,283.4063 667.875,284.2344 Q668.7656,285.0469 670.3594,285.0469 Q671.2969,285.0469 671.9531,284.7969 Q672.3438,284.6406 672.7656,284.2031 Q673.0313,283.9375 673.1719,283.8594 Q673.3281,283.7813 673.5313,283.7813 Q673.8594,283.7813 674.1094,284.0469 Q674.375,284.2969 674.375,284.6406 Q674.375,284.9844 674.0313,285.3906 Q673.5313,285.9688 672.7344,286.2969 Q671.6563,286.75 670.3594,286.75 Q668.8438,286.75 667.6406,286.125 Q666.6563,285.625 665.9688,284.5625 Q665.2813,283.4844 665.2813,282.2031 L665.2813,281.0469 Q665.2813,279.7188 665.8906,278.5781 Q666.5156,277.4219 667.6094,276.8125 Q668.7031,276.1875 669.9375,276.1875 Q670.6719,276.1875 671.3125,276.3594 Q671.9688,276.5156 672.5156,276.875 Z " fill="#000000"/><text fill="#000000" font-family="sans-serif" font-size="14" lengthAdjust="spacing" textLength="117" x="690.25" y="286.7285">AgendaRepository</text><line style="stroke:#181818;stroke-width:0.5;" x1="526" x2="939" y1="297" y2="297"/><line style="stroke:#181818;stroke-width:0.5;" x1="526" x2="939" y1="305" y2="305"/><text fill="#000000" font-family="sans-serif" font-size="14" lengthAdjust="spacing" textLength="378" x="531" y="323.5332">+getPlannedAndPostponedTasksBelongingToCurrentUser()</text><text fill="#000000" font-family="sans-serif" font-size="14" lengthAdjust="spacing" textLength="403" x="531" y="341.1426">+getCurrentUserTasksBetweenTwoDates(firstDate,secondDate)</text><text fill="#000000" font-family="sans-serif" font-size="14" lengthAdjust="spacing" textLength="150" x="531" y="358.752">+sortTasks(taskEntries)</text></g><!--class CollaboratorRepository--><g id="elem_CollaboratorRepository"><rect codeLine="37" fill="#F1F1F1" height="65.6094" id="CollaboratorRepository" rx="2.5" ry="2.5" style="stroke:#181818;stroke-width:0.5;" width="205" x="975" y="282.5"/><ellipse cx="1002.15" cy="298.5" fill="#ADD1B2" rx="11" ry="11" style="stroke:#181818;stroke-width:1.0;"/><path d="M1004.9156,294.375 Q1005.0719,294.1563 1005.2594,294.0469 Q1005.4469,293.9375 1005.6656,293.9375 Q1006.0406,293.9375 1006.275,294.2031 Q1006.5094,294.4531 1006.5094,295.0625 L1006.5094,296.5156 Q1006.5094,297.125 1006.275,297.3906 Q1006.0406,297.6563 1005.6656,297.6563 Q1005.3219,297.6563 1005.1188,297.4531 Q1004.9156,297.2656 1004.8063,296.75 Q1004.7594,296.3906 1004.5719,296.2031 Q1004.2438,295.8281 1003.6344,295.6094 Q1003.025,295.3906 1002.4,295.3906 Q1001.6344,295.3906 1000.9938,295.7188 Q1000.3688,296.0469 999.8688,296.7969 Q999.3844,297.5469 999.3844,298.5781 L999.3844,299.6719 Q999.3844,300.9063 1000.275,301.7344 Q1001.1656,302.5469 1002.7594,302.5469 Q1003.6969,302.5469 1004.3531,302.2969 Q1004.7438,302.1406 1005.1656,301.7031 Q1005.4313,301.4375 1005.5719,301.3594 Q1005.7281,301.2813 1005.9313,301.2813 Q1006.2594,301.2813 1006.5094,301.5469 Q1006.775,301.7969 1006.775,302.1406 Q1006.775,302.4844 1006.4313,302.8906 Q1005.9313,303.4688 1005.1344,303.7969 Q1004.0563,304.25 1002.7594,304.25 Q1001.2438,304.25 1000.0406,303.625 Q999.0563,303.125 998.3688,302.0625 Q997.6813,300.9844 997.6813,299.7031 L997.6813,298.5469 Q997.6813,297.2188 998.2906,296.0781 Q998.9156,294.9219 1000.0094,294.3125 Q1001.1031,293.6875 1002.3375,293.6875 Q1003.0719,293.6875 1003.7125,293.8594 Q1004.3688,294.0156 1004.9156,294.375 Z " fill="#000000"/><text fill="#000000" font-family="sans-serif" font-size="14" lengthAdjust="spacing" textLength="146" x="1018.85" y="304.2285">CollaboratorRepository</text><line style="stroke:#181818;stroke-width:0.5;" x1="976" x2="1179" y1="314.5" y2="314.5"/><line style="stroke:#181818;stroke-width:0.5;" x1="976" x2="1179" y1="322.5" y2="322.5"/><text fill="#000000" font-family="sans-serif" font-size="14" lengthAdjust="spacing" textLength="193" x="981" y="341.0332">+getCurrentUserCollaborator()</text></g><!--class TaskEntry--><g id="elem_TaskEntry"><rect codeLine="42" fill="#F1F1F1" height="153.6563" id="TaskEntry" rx="2.5" ry="2.5" style="stroke:#181818;stroke-width:0.5;" width="128" x="668.5" y="667"/><ellipse cx="697.9" cy="683" fill="#ADD1B2" rx="11" ry="11" style="stroke:#181818;stroke-width:1.0;"/><path d="M700.6656,678.875 Q700.8219,678.6563 701.0094,678.5469 Q701.1969,678.4375 701.4156,678.4375 Q701.7906,678.4375 702.025,678.7031 Q702.2594,678.9531 702.2594,679.5625 L702.2594,681.0156 Q702.2594,681.625 702.025,681.8906 Q701.7906,682.1563 701.4156,682.1563 Q701.0719,682.1563 700.8688,681.9531 Q700.6656,681.7656 700.5563,681.25 Q700.5094,680.8906 700.3219,680.7031 Q699.9938,680.3281 699.3844,680.1094 Q698.775,679.8906 698.15,679.8906 Q697.3844,679.8906 696.7438,680.2188 Q696.1188,680.5469 695.6188,681.2969 Q695.1344,682.0469 695.1344,683.0781 L695.1344,684.1719 Q695.1344,685.4063 696.025,686.2344 Q696.9156,687.0469 698.5094,687.0469 Q699.4469,687.0469 700.1031,686.7969 Q700.4938,686.6406 700.9156,686.2031 Q701.1813,685.9375 701.3219,685.8594 Q701.4781,685.7813 701.6813,685.7813 Q702.0094,685.7813 702.2594,686.0469 Q702.525,686.2969 702.525,686.6406 Q702.525,686.9844 702.1813,687.3906 Q701.6813,687.9688 700.8844,688.2969 Q699.8063,688.75 698.5094,688.75 Q696.9938,688.75 695.7906,688.125 Q694.8063,687.625 694.1188,686.5625 Q693.4313,685.4844 693.4313,684.2031 L693.4313,683.0469 Q693.4313,681.7188 694.0406,680.5781 Q694.6656,679.4219 695.7594,678.8125 Q696.8531,678.1875 698.0875,678.1875 Q698.8219,678.1875 699.4625,678.3594 Q700.1188,678.5156 700.6656,678.875 Z " fill="#000000"/><text fill="#000000" font-family="sans-serif" font-size="14" lengthAdjust="spacing" textLength="64" x="715.1" y="688.7285">TaskEntry</text><line style="stroke:#181818;stroke-width:0.5;" x1="669.5" x2="795.5" y1="699" y2="699"/><text fill="#000000" font-family="sans-serif" font-size="14" lengthAdjust="spacing" textLength="27" x="674.5" y="717.5332">-title</text><text fill="#000000" font-family="sans-serif" font-size="14" lengthAdjust="spacing" textLength="74" x="674.5" y="735.1426">-description</text><text fill="#000000" font-family="sans-serif" font-size="14" lengthAdjust="spacing" textLength="90" x="674.5" y="752.752">-urgencyLevel</text><text fill="#000000" font-family="sans-serif" font-size="14" lengthAdjust="spacing" textLength="116" x="674.5" y="770.3613">-expectedDuration</text><text fill="#000000" font-family="sans-serif" font-size="14" lengthAdjust="spacing" textLength="36" x="674.5" y="787.9707">-state</text><text fill="#000000" font-family="sans-serif" font-size="14" lengthAdjust="spacing" textLength="82" x="674.5" y="805.5801">-greenSpace</text><line style="stroke:#181818;stroke-width:0.5;" x1="669.5" x2="795.5" y1="812.6563" y2="812.6563"/></g><!--class TaskEntryMapper--><g id="elem_TaskEntryMapper"><rect codeLine="52" fill="#F1F1F1" height="65.6094" id="TaskEntryMapper" rx="2.5" ry="2.5" style="stroke:#181818;stroke-width:0.5;" width="230" x="188.5" y="282.5"/><ellipse cx="243.25" cy="298.5" fill="#ADD1B2" rx="11" ry="11" style="stroke:#181818;stroke-width:1.0;"/><path d="M246.0156,294.375 Q246.1719,294.1563 246.3594,294.0469 Q246.5469,293.9375 246.7656,293.9375 Q247.1406,293.9375 247.375,294.2031 Q247.6094,294.4531 247.6094,295.0625 L247.6094,296.5156 Q247.6094,297.125 247.375,297.3906 Q247.1406,297.6563 246.7656,297.6563 Q246.4219,297.6563 246.2188,297.4531 Q246.0156,297.2656 245.9063,296.75 Q245.8594,296.3906 245.6719,296.2031 Q245.3438,295.8281 244.7344,295.6094 Q244.125,295.3906 243.5,295.3906 Q242.7344,295.3906 242.0938,295.7188 Q241.4688,296.0469 240.9688,296.7969 Q240.4844,297.5469 240.4844,298.5781 L240.4844,299.6719 Q240.4844,300.9063 241.375,301.7344 Q242.2656,302.5469 243.8594,302.5469 Q244.7969,302.5469 245.4531,302.2969 Q245.8438,302.1406 246.2656,301.7031 Q246.5313,301.4375 246.6719,301.3594 Q246.8281,301.2813 247.0313,301.2813 Q247.3594,301.2813 247.6094,301.5469 Q247.875,301.7969 247.875,302.1406 Q247.875,302.4844 247.5313,302.8906 Q247.0313,303.4688 246.2344,303.7969 Q245.1563,304.25 243.8594,304.25 Q242.3438,304.25 241.1406,303.625 Q240.1563,303.125 239.4688,302.0625 Q238.7813,300.9844 238.7813,299.7031 L238.7813,298.5469 Q238.7813,297.2188 239.3906,296.0781 Q240.0156,294.9219 241.1094,294.3125 Q242.2031,293.6875 243.4375,293.6875 Q244.1719,293.6875 244.8125,293.8594 Q245.4688,294.0156 246.0156,294.375 Z " fill="#000000"/><text fill="#000000" font-family="sans-serif" font-size="14" lengthAdjust="spacing" textLength="112" x="263.75" y="304.2285">TaskEntryMapper</text><line style="stroke:#181818;stroke-width:0.5;" x1="189.5" x2="417.5" y1="314.5" y2="314.5"/><line style="stroke:#181818;stroke-width:0.5;" x1="189.5" x2="417.5" y1="322.5" y2="322.5"/><text fill="#000000" font-family="sans-serif" font-size="14" lengthAdjust="spacing" textLength="218" x="194.5" y="341.0332">+TaskEntryDto  toDTO(TaskEntry)</text></g><!--class TaskEntryDto--><g id="elem_TaskEntryDto"><rect codeLine="55" fill="#F1F1F1" height="65.6094" id="TaskEntryDto" rx="2.5" ry="2.5" style="stroke:#181818;stroke-width:0.5;" width="118" x="76.5" y="540"/><ellipse cx="91.5" cy="556" fill="#ADD1B2" rx="11" ry="11" style="stroke:#181818;stroke-width:1.0;"/><path d="M94.2656,551.875 Q94.4219,551.6563 94.6094,551.5469 Q94.7969,551.4375 95.0156,551.4375 Q95.3906,551.4375 95.625,551.7031 Q95.8594,551.9531 95.8594,552.5625 L95.8594,554.0156 Q95.8594,554.625 95.625,554.8906 Q95.3906,555.1563 95.0156,555.1563 Q94.6719,555.1563 94.4688,554.9531 Q94.2656,554.7656 94.1563,554.25 Q94.1094,553.8906 93.9219,553.7031 Q93.5938,553.3281 92.9844,553.1094 Q92.375,552.8906 91.75,552.8906 Q90.9844,552.8906 90.3438,553.2188 Q89.7188,553.5469 89.2188,554.2969 Q88.7344,555.0469 88.7344,556.0781 L88.7344,557.1719 Q88.7344,558.4063 89.625,559.2344 Q90.5156,560.0469 92.1094,560.0469 Q93.0469,560.0469 93.7031,559.7969 Q94.0938,559.6406 94.5156,559.2031 Q94.7813,558.9375 94.9219,558.8594 Q95.0781,558.7813 95.2813,558.7813 Q95.6094,558.7813 95.8594,559.0469 Q96.125,559.2969 96.125,559.6406 Q96.125,559.9844 95.7813,560.3906 Q95.2813,560.9688 94.4844,561.2969 Q93.4063,561.75 92.1094,561.75 Q90.5938,561.75 89.3906,561.125 Q88.4063,560.625 87.7188,559.5625 Q87.0313,558.4844 87.0313,557.2031 L87.0313,556.0469 Q87.0313,554.7188 87.6406,553.5781 Q88.2656,552.4219 89.3594,551.8125 Q90.4531,551.1875 91.6875,551.1875 Q92.4219,551.1875 93.0625,551.3594 Q93.7188,551.5156 94.2656,551.875 Z " fill="#000000"/><text fill="#000000" font-family="sans-serif" font-size="14" lengthAdjust="spacing" textLength="86" x="105.5" y="561.7285">TaskEntryDto</text><line style="stroke:#181818;stroke-width:0.5;" x1="77.5" x2="193.5" y1="572" y2="572"/><text fill="#000000" font-family="sans-serif" font-size="14" lengthAdjust="spacing" textLength="72" x="82.5" y="590.5332">+TaskEntry</text><line style="stroke:#181818;stroke-width:0.5;" x1="77.5" x2="193.5" y1="597.6094" y2="597.6094"/></g><!--link ListTasksBetweenDatesUI to ListTasksBetweenDatesController--><g id="link_ListTasksBetweenDatesUI_ListTasksBetweenDatesController"><path codeLine="60" d="M202.08,66 C216.61,66 226.83,66 226.83,66 C226.83,66 247.06,66 271.06,66 " fill="none" id="ListTasksBetweenDatesUI-to-ListTasksBetweenDatesController" style="stroke:#181818;stroke-width:1.0;stroke-dasharray:7.0,7.0;"/><polygon fill="#181818" points="276.24,66,267.24,62,271.24,66,267.24,70,276.24,66" style="stroke:#181818;stroke-width:1.0;"/></g><!--link ListTasksBetweenDatesController to Repositories--><g id="link_ListTasksBetweenDatesController_Repositories"><path codeLine="61" d="M666.61,66 C727.06,66 792.68,66 849.48,66 " fill="none" id="ListTasksBetweenDatesController-to-Repositories" style="stroke:#181818;stroke-width:1.0;stroke-dasharray:7.0,7.0;"/><polygon fill="#181818" points="854.6,66,845.6,62,849.6,66,845.6,70,854.6,66" style="stroke:#181818;stroke-width:1.0;"/><text fill="#000000" font-family="sans-serif" font-size="13" lengthAdjust="spacing" textLength="67" x="727.25" y="59.4951">repositories</text></g><!--link ListTasksBetweenDatesController to TaskEntryMapper--><g id="link_ListTasksBetweenDatesController_TaskEntryMapper"><path codeLine="62" d="M437.7,116.79 C405.28,164.55 357.1,235.54 328.15,278.19 " fill="none" id="ListTasksBetweenDatesController-to-TaskEntryMapper" style="stroke:#181818;stroke-width:1.0;stroke-dasharray:7.0,7.0;"/><polygon fill="#181818" points="325.23,282.48,333.596,277.283,328.0396,278.344,326.9785,272.7876,325.23,282.48" style="stroke:#181818;stroke-width:1.0;"/><text fill="#000000" font-family="sans-serif" font-size="13" lengthAdjust="spacing" textLength="43" x="390.5" y="200.4951">Mapper</text></g><!--link TaskEntryMapper to TaskEntryDto--><g id="link_TaskEntryMapper_TaskEntryDto"><path codeLine="63" d="M282.39,348.6 C251.08,396.22 192.5,485.32 159.56,535.4 " fill="none" id="TaskEntryMapper-to-TaskEntryDto" style="stroke:#181818;stroke-width:1.0;stroke-dasharray:7.0,7.0;"/><polygon fill="#181818" points="156.65,539.83,164.9369,534.5076,159.397,535.6522,158.2524,530.1124,156.65,539.83" style="stroke:#181818;stroke-width:1.0;"/><text fill="#000000" font-family="sans-serif" font-size="13" lengthAdjust="spacing" textLength="79" x="220.5" y="458.4951">TaskEntryDto</text></g><!--link TaskEntryMapper to TaskEntry--><g id="link_TaskEntryMapper_TaskEntry"><path codeLine="64" d="M317.77,348.7 C353.77,429.97 445.5,637 445.5,637 C445.5,637 578.78,686.22 663.69,717.58 " fill="none" id="TaskEntryMapper-to-TaskEntry" style="stroke:#181818;stroke-width:1.0;stroke-dasharray:7.0,7.0;"/><polygon fill="#181818" points="668.45,719.34,661.3906,712.4723,663.759,717.6095,658.6218,719.9779,668.45,719.34" style="stroke:#181818;stroke-width:1.0;"/></g><!--link ListTasksBetweenDatesUI to TaskEntryDto--><g id="link_ListTasksBetweenDatesUI_TaskEntryDto"><path codeLine="65" d="M97.16,90.29 C85.62,126.96 64.5,194 64.5,194 C64.5,194 64.5,194 64.5,454 C64.5,454 92.51,500.54 113.34,535.17 " fill="none" id="ListTasksBetweenDatesUI-to-TaskEntryDto" style="stroke:#181818;stroke-width:1.0;stroke-dasharray:7.0,7.0;"/><polygon fill="#181818" points="116.1,539.76,114.8995,529.9846,113.5275,535.4725,108.0396,534.1005,116.1,539.76" style="stroke:#181818;stroke-width:1.0;"/></g><!--link ListTasksBetweenDatesController to TaskEntryDto--><g id="link_ListTasksBetweenDatesController_TaskEntryDto"><path codeLine="66" d="M340.15,116.65 C245.91,152.27 135.5,194 135.5,194 C135.5,194 135.5,194 135.5,454 C135.5,454 135.5,500.17 135.5,534.75 " fill="none" id="ListTasksBetweenDatesController-to-TaskEntryDto" style="stroke:#181818;stroke-width:1.0;stroke-dasharray:7.0,7.0;"/><polygon fill="#181818" points="135.5,539.76,139.5,530.76,135.5,534.76,131.5,530.76,135.5,539.76" style="stroke:#181818;stroke-width:1.0;"/></g><!--link Repositories to AgendaRepository--><g id="link_Repositories_AgendaRepository"><path codeLine="67" d="M959.06,125.1 C933.71,162.44 905.5,204 905.5,204 C905.5,204 859.17,233.59 814.46,262.15 " fill="none" id="Repositories-to-AgendaRepository" style="stroke:#181818;stroke-width:1.0;"/><polygon fill="#181818" points="810.14,264.91,819.8795,263.4464,814.3565,262.2228,815.5801,256.6999,810.14,264.91" style="stroke:#181818;stroke-width:1.0;"/><text fill="#000000" font-family="sans-serif" font-size="13" lengthAdjust="spacing" textLength="7" x="813.5659" y="254.2027">1</text></g><!--link Repositories to CollaboratorRepository--><g id="link_Repositories_CollaboratorRepository"><path codeLine="68" d="M1017.02,125.03 C1032.05,172.12 1052.8,237.1 1065.67,277.42 " fill="none" id="Repositories-to-CollaboratorRepository" style="stroke:#181818;stroke-width:1.0;"/><polygon fill="#181818" points="1067.2,282.22,1068.255,272.4278,1065.6704,277.4597,1060.6385,274.8751,1067.2,282.22" style="stroke:#181818;stroke-width:1.0;"/><text fill="#000000" font-family="sans-serif" font-size="13" lengthAdjust="spacing" textLength="7" x="1057.4831" y="271.6612">1</text></g><!--link Repositories to Repositories--><g id="link_Repositories_Repositories"><path codeLine="69" d="M1142.07,51.11 C1162.94,53.47 1177,58.44 1177,66 C1177,72.91 1165.25,77.65 1147.29,80.22 " fill="none" id="Repositories-to-Repositories" style="stroke:#181818;stroke-width:1.0;"/><polygon fill="#181818" points="1142.07,80.89,1151.5097,83.6993,1147.0285,80.247,1150.4808,75.7658,1142.07,80.89" style="stroke:#181818;stroke-width:1.0;"/><text fill="#000000" font-family="sans-serif" font-size="13" lengthAdjust="spacing" textLength="49" x="1183" y="71.4951">instance</text></g><!--link Repositories to TaskEntry--><g id="link_Repositories_TaskEntry"><path codeLine="70" d="M1106.03,125.11 C1167.91,158.55 1233.5,194 1233.5,194 C1233.5,194 1233.5,194 1233.5,574 C1233.5,574 938.93,673.37 801.54,719.71 " fill="none" id="Repositories-to-TaskEntry" style="stroke:#181818;stroke-width:1.0;"/><polygon fill="#181818" points="796.72,721.34,806.5264,722.2533,801.4577,719.7417,803.9692,714.673,796.72,721.34" style="stroke:#181818;stroke-width:1.0;"/><text fill="#000000" font-family="sans-serif" font-size="13" lengthAdjust="spacing" textLength="7" x="1111.7087" y="146.7789">1</text><text fill="#000000" font-family="sans-serif" font-size="13" lengthAdjust="spacing" textLength="5" x="804.4345" y="715.3303">*</text></g><!--link AgendaRepository to TaskEntry--><g id="link_AgendaRepository_TaskEntry"><path codeLine="72" d="M732.5,366.26 C732.5,438.76 732.5,574.26 732.5,661.46 " fill="none" id="AgendaRepository-to-TaskEntry" style="stroke:#181818;stroke-width:1.0;"/><polygon fill="#181818" points="732.5,666.61,736.5,657.61,732.5,661.61,728.5,657.61,732.5,666.61" style="stroke:#181818;stroke-width:1.0;"/><text fill="#000000" font-family="sans-serif" font-size="13" lengthAdjust="spacing" textLength="49" x="733.5" y="506.4951">contains</text><text fill="#000000" font-family="sans-serif" font-size="13" lengthAdjust="spacing" textLength="5" x="727.2695" y="656.2653">*</text></g><!--link CollaboratorRepository to TaskEntry--><g id="link_CollaboratorRepository_TaskEntry"><path codeLine="73" d="M1051.57,348.56 C998.09,414.67 874.15,567.89 797.43,662.73 " fill="none" id="CollaboratorRepository-to-TaskEntry" style="stroke:#181818;stroke-width:1.0;"/><polygon fill="#181818" points="794.27,666.63,803.0399,662.1479,797.4143,662.7424,796.8198,657.1169,794.27,666.63" style="stroke:#181818;stroke-width:1.0;"/><text fill="#000000" font-family="sans-serif" font-size="13" lengthAdjust="spacing" textLength="45" x="935.5" y="506.4951">assigns</text><text fill="#000000" font-family="sans-serif" font-size="13" lengthAdjust="spacing" textLength="5" x="794.9192" y="656.0214">*</text></g><!--link ListTasksBetweenDatesController to TaskEntry--><g id="link_ListTasksBetweenDatesController_TaskEntry"><path codeLine="75" d="M471.5,116.83 C471.5,152.41 471.5,194 471.5,194 C471.5,194 471.5,194 471.5,574 C471.5,574 586.41,648.41 663.74,698.48 " fill="none" id="ListTasksBetweenDatesController-to-TaskEntry" style="stroke:#181818;stroke-width:1.0;stroke-dasharray:7.0,7.0;"/><polygon fill="#181818" points="668.32,701.44,662.9322,693.1955,664.1206,698.7261,658.59,699.9145,668.32,701.44" style="stroke:#181818;stroke-width:1.0;"/><text fill="#000000" font-family="sans-serif" font-size="13" lengthAdjust="spacing" textLength="59" x="472.5" y="410.4951">TaskEntry</text></g><!--link ListTasksBetweenDatesController to AgendaRepository--><g id="link_ListTasksBetweenDatesController_AgendaRepository"><path codeLine="76" d="M523.17,116.85 C563.77,156.02 613.5,204 613.5,204 C613.5,204 644.74,233.01 675.21,261.3 " fill="none" id="ListTasksBetweenDatesController-to-AgendaRepository" style="stroke:#181818;stroke-width:1.0;stroke-dasharray:7.0,7.0;"/><polygon fill="#181818" points="678.92,264.75,675.0345,255.7,675.2515,261.3527,669.5988,261.5696,678.92,264.75" style="stroke:#181818;stroke-width:1.0;"/><text fill="#000000" font-family="sans-serif" font-size="13" lengthAdjust="spacing" textLength="106" x="614.5" y="200.4951">AgendaRepository</text><text fill="#000000" font-family="sans-serif" font-size="13" lengthAdjust="spacing" textLength="7" x="663.8931" y="254.0202">1</text></g><!--link ListTasksBetweenDatesController to CollaboratorRepository--><g id="link_ListTasksBetweenDatesController_CollaboratorRepository"><path codeLine="77" d="M593.2,116.58 C737.15,175.23 957.5,265 957.5,265 C957.5,265 974.13,271.86 995,280.47 " fill="none" id="ListTasksBetweenDatesController-to-CollaboratorRepository" style="stroke:#181818;stroke-width:1.0;stroke-dasharray:7.0,7.0;"/><polygon fill="#181818" points="999.81,282.45,993.0109,275.3245,995.1866,280.5463,989.9649,282.722,999.81,282.45" style="stroke:#181818;stroke-width:1.0;"/><text fill="#000000" font-family="sans-serif" font-size="13" lengthAdjust="spacing" textLength="131" x="808.5" y="200.4951">CollaboratorRepository</text><text fill="#000000" font-family="sans-serif" font-size="13" lengthAdjust="spacing" textLength="7" x="976.0646" y="271.5551">1</text></g><!--SRC=[fLHDZzem4BtxLrXS2Dq5jLSEI1JsWBHLLuNz0Tva21R6ZkoXD4Nyzqv2Dd6-0AaSa3tptlDyPkZsKYV2YWC_66t2dJK7u6YFm2fF8iAzY66DgG9k8KIXO-K3t4v4vYHrpBT2ET-Zf0PC4-29KMbsOSCEfx5ecCSAbN1kZcZbnn5X5Hgzbd-1VsLig62B70stCjuXZsGMZZIQiPp3NwN3ZN1xzntm1A2N0i6zhyximcv25aQZDKg1FRFnF0OTYL-G62VHs9IBXe5n-ZtTKmgQj576AxWnu9iIMaCqrz6RSPWOEXTgokYOghanYwEreF7TaTg8CNxvJA8KbU3uETSSrup1Q5gxLy-kjAC6XX2CU1-aMO1kw1Mxe5p5Xx62FBSOLGDQvJt_HqsgE2gptvFDoUHj2RRIEioEpmveeABi-4btD80vAK3wVw46KiHKxqiHSNUEVjpUwpuuo4KA5RufnDChCMyQIgHLAgyHkD3A91_fqdYqLB4mVONVe2eh_4bezY5Q7kcf6fxwYvvcRAaEQrfYy88fO_aXaYIR-gVIigJreXLRRdu6fMrKriA7-QoymJthnoSpVczRs1q_dqmcTbOV_2bzZRmHUq1XraoSDAu7rdJKqPJjj7QxWxzLYfhC_Q0RX5e5nkFnZ0- -3LfBrGFhdkG6k5LbMNmowhXCBzVzCl3oPgtrRc6cd1OG1QcoditgeD3ioPWOZ3_GvhmN5PjxhNk8trrJaccL-N6rdbIdFOv_]--></g></svg>