<?xml version="1.0" encoding="UTF-8" standalone="no"?><svg xmlns="http://www.w3.org/2000/svg" xmlns:xlink="http://www.w3.org/1999/xlink" contentStyleType="text/css" height="1608px" preserveAspectRatio="none" style="width:2174px;height:1608px;background:#FFFFFF;" version="1.1" viewBox="0 0 2174 1608" width="2174px" zoomAndPan="magnify"><defs/><g><rect fill="#FFFFFF" height="1415.4688" style="stroke:#181818;stroke-width:1.0;" width="10" x="42" y="92.6094"/><rect fill="#FFFFFF" height="725.3828" style="stroke:#181818;stroke-width:1.0;" width="10" x="463" y="114.9609"/><rect fill="#FFFFFF" height="30.3516" style="stroke:#181818;stroke-width:1.0;" width="10" x="463" y="870.6953"/><rect fill="#FFFFFF" height="242.8125" style="stroke:#181818;stroke-width:1.0;" width="10" x="463" y="931.3984"/><rect fill="#FFFFFF" height="30.3516" style="stroke:#181818;stroke-width:1.0;" width="10" x="463" y="1204.5625"/><rect fill="#FFFFFF" height="242.8125" style="stroke:#181818;stroke-width:1.0;" width="10" x="463" y="1265.2656"/><rect fill="#FFFFFF" height="634.3281" style="stroke:#181818;stroke-width:1.0;" width="10" x="868" y="175.6641"/><rect fill="#FFFFFF" height="182.1094" style="stroke:#181818;stroke-width:1.0;" width="10" x="868" y="961.75"/><rect fill="#FFFFFF" height="182.1094" style="stroke:#181818;stroke-width:1.0;" width="10" x="868" y="1295.6172"/><rect fill="#FFFFFF" height="30.3516" style="stroke:#181818;stroke-width:1.0;" width="10" x="1040" y="206.0156"/><rect fill="#FFFFFF" height="30.3516" style="stroke:#181818;stroke-width:1.0;" width="10" x="1145" y="266.7188"/><rect fill="#FFFFFF" height="30.3516" style="stroke:#181818;stroke-width:1.0;" width="10" x="1145" y="1022.4531"/><rect fill="#FFFFFF" height="30.3516" style="stroke:#181818;stroke-width:1.0;" width="10" x="1145" y="1356.3203"/><rect fill="#FFFFFF" height="330.8125" style="stroke:#181818;stroke-width:1.0;" width="10" x="1268.5" y="448.8281"/><rect fill="#FFFFFF" height="35.3516" style="stroke:#181818;stroke-width:1.0;" width="10" x="1273.5" y="646.5859"/><rect fill="#FFFFFF" height="30.3516" style="stroke:#181818;stroke-width:1.0;" width="10" x="1512.5" y="327.4219"/><rect fill="#FFFFFF" height="30.3516" style="stroke:#181818;stroke-width:1.0;" width="10" x="1512.5" y="388.125"/><rect fill="#FFFFFF" height="30" style="stroke:#181818;stroke-width:1.0;" width="10" x="1512.5" y="578.2344"/><rect fill="#FFFFFF" height="30.3516" style="stroke:#181818;stroke-width:1.0;" width="10" x="1512.5" y="1417.0234"/><rect fill="#FFFFFF" height="30.3516" style="stroke:#181818;stroke-width:1.0;" width="10" x="1672" y="1083.1563"/><rect fill="#FFFFFF" height="30" style="stroke:#181818;stroke-width:1.0;" width="10" x="1833" y="712.2891"/><rect fill="none" height="256.1094" style="stroke:#000000;stroke-width:1.5;" width="969.5" x="1198.5" y="494.1797"/><line style="stroke:#181818;stroke-width:0.5;stroke-dasharray:5.0,5.0;" x1="47" x2="47" y1="82.6094" y2="1526.0781"/><line style="stroke:#181818;stroke-width:0.5;stroke-dasharray:5.0,5.0;" x1="467.5" x2="467.5" y1="82.6094" y2="1526.0781"/><line style="stroke:#181818;stroke-width:0.5;stroke-dasharray:5.0,5.0;" x1="872.5" x2="872.5" y1="82.6094" y2="1526.0781"/><line style="stroke:#181818;stroke-width:0.5;stroke-dasharray:5.0,5.0;" x1="1044.5" x2="1044.5" y1="82.6094" y2="1526.0781"/><line style="stroke:#181818;stroke-width:0.5;stroke-dasharray:5.0,5.0;" x1="1149.5" x2="1149.5" y1="82.6094" y2="1526.0781"/><line style="stroke:#181818;stroke-width:0.5;stroke-dasharray:5.0,5.0;" x1="1273.5" x2="1273.5" y1="82.6094" y2="1526.0781"/><line style="stroke:#181818;stroke-width:0.5;stroke-dasharray:5.0,5.0;" x1="1517" x2="1517" y1="82.6094" y2="1526.0781"/><line style="stroke:#181818;stroke-width:0.5;stroke-dasharray:5.0,5.0;" x1="1677" x2="1677" y1="82.6094" y2="1526.0781"/><line style="stroke:#181818;stroke-width:0.5;stroke-dasharray:5.0,5.0;" x1="1838" x2="1838" y1="82.6094" y2="1526.0781"/><line style="stroke:#181818;stroke-width:0.5;stroke-dasharray:5.0,5.0;" x1="1958" x2="1958" y1="82.6094" y2="1526.0781"/><line style="stroke:#181818;stroke-width:0.5;stroke-dasharray:5.0,5.0;" x1="2083" x2="2083" y1="82.6094" y2="1526.0781"/><text fill="#000000" font-family="sans-serif" font-size="14" lengthAdjust="spacing" textLength="78" x="5" y="79.5332">Collaborator</text><ellipse cx="47" cy="13.5" fill="#E3E3E3" rx="8" ry="8" style="stroke:#181818;stroke-width:0.5;"/><path d="M47,21.5 L47,48.5 M34,29.5 L60,29.5 M47,48.5 L34,63.5 M47,48.5 L60,63.5 " fill="none" style="stroke:#181818;stroke-width:0.5;"/><text fill="#000000" font-family="sans-serif" font-size="14" lengthAdjust="spacing" textLength="78" x="5" y="1539.6113">Collaborator</text><ellipse cx="47" cy="1551.1875" fill="#E3E3E3" rx="8" ry="8" style="stroke:#181818;stroke-width:0.5;"/><path d="M47,1559.1875 L47,1586.1875 M34,1567.1875 L60,1567.1875 M47,1586.1875 L34,1601.1875 M47,1586.1875 L60,1601.1875 " fill="none" style="stroke:#181818;stroke-width:0.5;"/><rect fill="#E3E3E3" height="31.6094" rx="2.5" ry="2.5" style="stroke:#181818;stroke-width:0.5;" width="181" x="377.5" y="50"/><text fill="#000000" font-family="sans-serif" font-size="14" lengthAdjust="spacing" textLength="167" x="384.5" y="71.5332">:ListTasksBetweenDatesUI</text><rect fill="#E3E3E3" height="31.6094" rx="2.5" ry="2.5" style="stroke:#181818;stroke-width:0.5;" width="181" x="377.5" y="1525.0781"/><text fill="#000000" font-family="sans-serif" font-size="14" lengthAdjust="spacing" textLength="167" x="384.5" y="1546.6113">:ListTasksBetweenDatesUI</text><rect fill="#E3E3E3" height="31.6094" rx="2.5" ry="2.5" style="stroke:#181818;stroke-width:0.5;" width="231" x="757.5" y="50"/><text fill="#000000" font-family="sans-serif" font-size="14" lengthAdjust="spacing" textLength="217" x="764.5" y="71.5332">:ListTasksBetweenDatesController</text><rect fill="#E3E3E3" height="31.6094" rx="2.5" ry="2.5" style="stroke:#181818;stroke-width:0.5;" width="231" x="757.5" y="1525.0781"/><text fill="#000000" font-family="sans-serif" font-size="14" lengthAdjust="spacing" textLength="217" x="764.5" y="1546.6113">:ListTasksBetweenDatesController</text><rect fill="#E3E3E3" height="31.6094" rx="2.5" ry="2.5" style="stroke:#181818;stroke-width:0.5;" width="93" x="998.5" y="50"/><text fill="#000000" font-family="sans-serif" font-size="14" lengthAdjust="spacing" textLength="79" x="1005.5" y="71.5332">Repositories</text><rect fill="#E3E3E3" height="31.6094" rx="2.5" ry="2.5" style="stroke:#181818;stroke-width:0.5;" width="93" x="998.5" y="1525.0781"/><text fill="#000000" font-family="sans-serif" font-size="14" lengthAdjust="spacing" textLength="79" x="1005.5" y="1546.6113">Repositories</text><rect fill="#E3E3E3" height="49.2188" rx="2.5" ry="2.5" style="stroke:#181818;stroke-width:0.5;" width="97" x="1101.5" y="32.3906"/><text fill="#000000" font-family="sans-serif" font-size="14" lengthAdjust="spacing" textLength="74" x="1113" y="53.9238">repositories</text><text fill="#000000" font-family="sans-serif" font-size="14" lengthAdjust="spacing" textLength="83" x="1108.5" y="71.5332">:Repositories</text><rect fill="#E3E3E3" height="49.2188" rx="2.5" ry="2.5" style="stroke:#181818;stroke-width:0.5;" width="97" x="1101.5" y="1525.0781"/><text fill="#000000" font-family="sans-serif" font-size="14" lengthAdjust="spacing" textLength="74" x="1113" y="1546.6113">repositories</text><text fill="#000000" font-family="sans-serif" font-size="14" lengthAdjust="spacing" textLength="83" x="1108.5" y="1564.2207">:Repositories</text><rect fill="#E3E3E3" height="31.6094" rx="2.5" ry="2.5" style="stroke:#181818;stroke-width:0.5;" width="130" x="1208.5" y="50"/><text fill="#000000" font-family="sans-serif" font-size="14" lengthAdjust="spacing" textLength="116" x="1215.5" y="71.5332">:TaskEntryMapper</text><rect fill="#E3E3E3" height="31.6094" rx="2.5" ry="2.5" style="stroke:#181818;stroke-width:0.5;" width="130" x="1208.5" y="1525.0781"/><text fill="#000000" font-family="sans-serif" font-size="14" lengthAdjust="spacing" textLength="116" x="1215.5" y="1546.6113">:TaskEntryMapper</text><rect fill="#E3E3E3" height="31.6094" rx="2.5" ry="2.5" style="stroke:#181818;stroke-width:0.5;" width="135" x="1450" y="50"/><text fill="#000000" font-family="sans-serif" font-size="14" lengthAdjust="spacing" textLength="121" x="1457" y="71.5332">:AgendaRepository</text><rect fill="#E3E3E3" height="31.6094" rx="2.5" ry="2.5" style="stroke:#181818;stroke-width:0.5;" width="135" x="1450" y="1525.0781"/><text fill="#000000" font-family="sans-serif" font-size="14" lengthAdjust="spacing" textLength="121" x="1457" y="1546.6113">:AgendaRepository</text><rect fill="#E3E3E3" height="31.6094" rx="2.5" ry="2.5" style="stroke:#181818;stroke-width:0.5;" width="164" x="1595" y="50"/><text fill="#000000" font-family="sans-serif" font-size="14" lengthAdjust="spacing" textLength="150" x="1602" y="71.5332">:CollaboratorRepository</text><rect fill="#E3E3E3" height="31.6094" rx="2.5" ry="2.5" style="stroke:#181818;stroke-width:0.5;" width="164" x="1595" y="1525.0781"/><text fill="#000000" font-family="sans-serif" font-size="14" lengthAdjust="spacing" textLength="150" x="1602" y="1546.6113">:CollaboratorRepository</text><rect fill="#E3E3E3" height="49.2188" rx="2.5" ry="2.5" style="stroke:#181818;stroke-width:0.5;" width="138" x="1769" y="32.3906"/><text fill="#000000" font-family="sans-serif" font-size="14" lengthAdjust="spacing" textLength="111" x="1782.5" y="53.9238">taskEntryDTOList</text><text fill="#000000" font-family="sans-serif" font-size="14" lengthAdjust="spacing" textLength="120" x="1780" y="71.5332">:TaskEntryDTOList</text><rect fill="#E3E3E3" height="49.2188" rx="2.5" ry="2.5" style="stroke:#181818;stroke-width:0.5;" width="138" x="1769" y="1525.0781"/><text fill="#000000" font-family="sans-serif" font-size="14" lengthAdjust="spacing" textLength="111" x="1782.5" y="1546.6113">taskEntryDTOList</text><text fill="#000000" font-family="sans-serif" font-size="14" lengthAdjust="spacing" textLength="120" x="1780" y="1564.2207">:TaskEntryDTOList</text><rect fill="#E3E3E3" height="49.2188" rx="2.5" ry="2.5" style="stroke:#181818;stroke-width:0.5;" width="82" x="1917" y="32.3906"/><text fill="#000000" font-family="sans-serif" font-size="14" lengthAdjust="spacing" textLength="59" x="1928.5" y="53.9238">taskEntry</text><text fill="#000000" font-family="sans-serif" font-size="14" lengthAdjust="spacing" textLength="68" x="1924" y="71.5332">:TaskEntry</text><rect fill="#E3E3E3" height="49.2188" rx="2.5" ry="2.5" style="stroke:#181818;stroke-width:0.5;" width="82" x="1917" y="1525.0781"/><text fill="#000000" font-family="sans-serif" font-size="14" lengthAdjust="spacing" textLength="59" x="1928.5" y="1546.6113">taskEntry</text><text fill="#000000" font-family="sans-serif" font-size="14" lengthAdjust="spacing" textLength="68" x="1924" y="1564.2207">:TaskEntry</text><rect fill="#E3E3E3" height="31.6094" rx="2.5" ry="2.5" style="stroke:#181818;stroke-width:0.5;" width="149" x="2009" y="50"/><text fill="#000000" font-family="sans-serif" font-size="14" lengthAdjust="spacing" textLength="135" x="2016" y="71.5332">objDto: TaskEntryDto</text><rect fill="#E3E3E3" height="31.6094" rx="2.5" ry="2.5" style="stroke:#181818;stroke-width:0.5;" width="149" x="2009" y="1525.0781"/><text fill="#000000" font-family="sans-serif" font-size="14" lengthAdjust="spacing" textLength="135" x="2016" y="1546.6113">objDto: TaskEntryDto</text><rect fill="#FFFFFF" height="1415.4688" style="stroke:#181818;stroke-width:1.0;" width="10" x="42" y="92.6094"/><rect fill="#FFFFFF" height="725.3828" style="stroke:#181818;stroke-width:1.0;" width="10" x="463" y="114.9609"/><rect fill="#FFFFFF" height="30.3516" style="stroke:#181818;stroke-width:1.0;" width="10" x="463" y="870.6953"/><rect fill="#FFFFFF" height="242.8125" style="stroke:#181818;stroke-width:1.0;" width="10" x="463" y="931.3984"/><rect fill="#FFFFFF" height="30.3516" style="stroke:#181818;stroke-width:1.0;" width="10" x="463" y="1204.5625"/><rect fill="#FFFFFF" height="242.8125" style="stroke:#181818;stroke-width:1.0;" width="10" x="463" y="1265.2656"/><rect fill="#FFFFFF" height="634.3281" style="stroke:#181818;stroke-width:1.0;" width="10" x="868" y="175.6641"/><rect fill="#FFFFFF" height="182.1094" style="stroke:#181818;stroke-width:1.0;" width="10" x="868" y="961.75"/><rect fill="#FFFFFF" height="182.1094" style="stroke:#181818;stroke-width:1.0;" width="10" x="868" y="1295.6172"/><rect fill="#FFFFFF" height="30.3516" style="stroke:#181818;stroke-width:1.0;" width="10" x="1040" y="206.0156"/><rect fill="#FFFFFF" height="30.3516" style="stroke:#181818;stroke-width:1.0;" width="10" x="1145" y="266.7188"/><rect fill="#FFFFFF" height="30.3516" style="stroke:#181818;stroke-width:1.0;" width="10" x="1145" y="1022.4531"/><rect fill="#FFFFFF" height="30.3516" style="stroke:#181818;stroke-width:1.0;" width="10" x="1145" y="1356.3203"/><rect fill="#FFFFFF" height="330.8125" style="stroke:#181818;stroke-width:1.0;" width="10" x="1268.5" y="448.8281"/><rect fill="#FFFFFF" height="35.3516" style="stroke:#181818;stroke-width:1.0;" width="10" x="1273.5" y="646.5859"/><rect fill="#FFFFFF" height="30.3516" style="stroke:#181818;stroke-width:1.0;" width="10" x="1512.5" y="327.4219"/><rect fill="#FFFFFF" height="30.3516" style="stroke:#181818;stroke-width:1.0;" width="10" x="1512.5" y="388.125"/><rect fill="#FFFFFF" height="30" style="stroke:#181818;stroke-width:1.0;" width="10" x="1512.5" y="578.2344"/><rect fill="#FFFFFF" height="30.3516" style="stroke:#181818;stroke-width:1.0;" width="10" x="1512.5" y="1417.0234"/><rect fill="#FFFFFF" height="30.3516" style="stroke:#181818;stroke-width:1.0;" width="10" x="1672" y="1083.1563"/><rect fill="#FFFFFF" height="30" style="stroke:#181818;stroke-width:1.0;" width="10" x="1833" y="712.2891"/><polygon fill="#181818" points="451,110.9609,461,114.9609,451,118.9609,455,114.9609" style="stroke:#181818;stroke-width:1.0;"/><line style="stroke:#181818;stroke-width:1.0;" x1="52" x2="457" y1="114.9609" y2="114.9609"/><text fill="#000000" font-family="sans-serif" font-size="13" font-weight="bold" lengthAdjust="spacing" textLength="7" x="59" y="110.1045">1</text><text fill="#000000" font-family="sans-serif" font-size="13" lengthAdjust="spacing" textLength="381" x="70" y="110.1045">asks to consult tasks assigned to current user between two dates</text><polygon fill="#181818" points="861,141.3125,871,145.3125,861,149.3125,865,145.3125" style="stroke:#181818;stroke-width:1.0;"/><line style="stroke:#181818;stroke-width:1.0;" x1="473" x2="867" y1="145.3125" y2="145.3125"/><text fill="#000000" font-family="sans-serif" font-size="13" font-weight="bold" lengthAdjust="spacing" textLength="7" x="480" y="140.4561">2</text><text fill="#000000" font-family="sans-serif" font-size="13" lengthAdjust="spacing" textLength="36" x="491" y="140.4561">create</text><polygon fill="#181818" points="856,171.6641,866,175.6641,856,179.6641,860,175.6641" style="stroke:#181818;stroke-width:1.0;"/><line style="stroke:#181818;stroke-width:1.0;" x1="473" x2="862" y1="175.6641" y2="175.6641"/><text fill="#000000" font-family="sans-serif" font-size="13" font-weight="bold" lengthAdjust="spacing" textLength="7" x="480" y="170.8076">3</text><text fill="#000000" font-family="sans-serif" font-size="13" lengthAdjust="spacing" textLength="333" x="491" y="170.8076">getPlannedAndPostponedTasksBelongingToCurrentUser()</text><polygon fill="#181818" points="1028,202.0156,1038,206.0156,1028,210.0156,1032,206.0156" style="stroke:#181818;stroke-width:1.0;"/><line style="stroke:#181818;stroke-width:1.0;" x1="878" x2="1034" y1="206.0156" y2="206.0156"/><text fill="#000000" font-family="sans-serif" font-size="13" font-weight="bold" lengthAdjust="spacing" textLength="7" x="885" y="201.1592">4</text><text fill="#000000" font-family="sans-serif" font-size="13" lengthAdjust="spacing" textLength="75" x="896" y="201.1592">getInstance()</text><polygon fill="#181818" points="889,232.3672,879,236.3672,889,240.3672,885,236.3672" style="stroke:#181818;stroke-width:1.0;"/><line style="stroke:#181818;stroke-width:1.0;stroke-dasharray:2.0,2.0;" x1="883" x2="1044" y1="236.3672" y2="236.3672"/><text fill="#000000" font-family="sans-serif" font-size="13" font-weight="bold" lengthAdjust="spacing" textLength="7" x="895" y="231.5107">5</text><text fill="#000000" font-family="sans-serif" font-size="13" lengthAdjust="spacing" textLength="67" x="906" y="231.5107">repositories</text><polygon fill="#181818" points="1133,262.7188,1143,266.7188,1133,270.7188,1137,266.7188" style="stroke:#181818;stroke-width:1.0;"/><line style="stroke:#181818;stroke-width:1.0;" x1="878" x2="1139" y1="266.7188" y2="266.7188"/><text fill="#000000" font-family="sans-serif" font-size="13" font-weight="bold" lengthAdjust="spacing" textLength="7" x="885" y="261.8623">6</text><text fill="#000000" font-family="sans-serif" font-size="13" lengthAdjust="spacing" textLength="132" x="896" y="261.8623">getAgendaRepository()</text><polygon fill="#181818" points="889,293.0703,879,297.0703,889,301.0703,885,297.0703" style="stroke:#181818;stroke-width:1.0;"/><line style="stroke:#181818;stroke-width:1.0;stroke-dasharray:2.0,2.0;" x1="883" x2="1149" y1="297.0703" y2="297.0703"/><text fill="#000000" font-family="sans-serif" font-size="13" font-weight="bold" lengthAdjust="spacing" textLength="7" x="895" y="292.2139">7</text><text fill="#000000" font-family="sans-serif" font-size="13" lengthAdjust="spacing" textLength="106" x="906" y="292.2139">AgendaRepository</text><polygon fill="#181818" points="1500.5,323.4219,1510.5,327.4219,1500.5,331.4219,1504.5,327.4219" style="stroke:#181818;stroke-width:1.0;"/><line style="stroke:#181818;stroke-width:1.0;" x1="878" x2="1506.5" y1="327.4219" y2="327.4219"/><text fill="#000000" font-family="sans-serif" font-size="13" font-weight="bold" lengthAdjust="spacing" textLength="7" x="885" y="322.5654">8</text><text fill="#000000" font-family="sans-serif" font-size="13" lengthAdjust="spacing" textLength="333" x="896" y="322.5654">getPlannedAndPostponedTasksBelongingToCurrentUser()</text><polygon fill="#181818" points="889,353.7734,879,357.7734,889,361.7734,885,357.7734" style="stroke:#181818;stroke-width:1.0;"/><line style="stroke:#181818;stroke-width:1.0;stroke-dasharray:2.0,2.0;" x1="883" x2="1516.5" y1="357.7734" y2="357.7734"/><text fill="#000000" font-family="sans-serif" font-size="13" font-weight="bold" lengthAdjust="spacing" textLength="7" x="895" y="352.917">9</text><text fill="#000000" font-family="sans-serif" font-size="13" lengthAdjust="spacing" textLength="80" x="906" y="352.917">TaskEntryList</text><polygon fill="#181818" points="1500.5,384.125,1510.5,388.125,1500.5,392.125,1504.5,388.125" style="stroke:#181818;stroke-width:1.0;"/><line style="stroke:#181818;stroke-width:1.0;" x1="878" x2="1506.5" y1="388.125" y2="388.125"/><text fill="#000000" font-family="sans-serif" font-size="13" font-weight="bold" lengthAdjust="spacing" textLength="14" x="885" y="383.2686">10</text><text fill="#000000" font-family="sans-serif" font-size="13" lengthAdjust="spacing" textLength="131" x="903" y="383.2686">sortTasks(taskEntries)</text><polygon fill="#181818" points="889,414.4766,879,418.4766,889,422.4766,885,418.4766" style="stroke:#181818;stroke-width:1.0;"/><line style="stroke:#181818;stroke-width:1.0;stroke-dasharray:2.0,2.0;" x1="883" x2="1516.5" y1="418.4766" y2="418.4766"/><text fill="#000000" font-family="sans-serif" font-size="13" font-weight="bold" lengthAdjust="spacing" textLength="14" x="895" y="413.6201">11</text><text fill="#000000" font-family="sans-serif" font-size="13" lengthAdjust="spacing" textLength="118" x="913" y="413.6201">TaskEntryListSorted</text><polygon fill="#181818" points="1256.5,444.8281,1266.5,448.8281,1256.5,452.8281,1260.5,448.8281" style="stroke:#181818;stroke-width:1.0;"/><line style="stroke:#181818;stroke-width:1.0;" x1="878" x2="1262.5" y1="448.8281" y2="448.8281"/><text fill="#000000" font-family="sans-serif" font-size="13" font-weight="bold" lengthAdjust="spacing" textLength="14" x="885" y="443.9717">12</text><text fill="#000000" font-family="sans-serif" font-size="13" lengthAdjust="spacing" textLength="149" x="903" y="443.9717">ToDTOList(TaskEntryList)</text><polygon fill="#181818" points="1826,475.1797,1836,479.1797,1826,483.1797,1830,479.1797" style="stroke:#181818;stroke-width:1.0;"/><line style="stroke:#181818;stroke-width:1.0;" x1="1278.5" x2="1832" y1="479.1797" y2="479.1797"/><text fill="#000000" font-family="sans-serif" font-size="13" font-weight="bold" lengthAdjust="spacing" textLength="14" x="1285.5" y="474.3232">13</text><text fill="#000000" font-family="sans-serif" font-size="13" lengthAdjust="spacing" textLength="46" x="1303.5" y="474.3232">Create()</text><path d="M1198.5,494.1797 L1271.5,494.1797 L1271.5,502.5313 L1261.5,512.5313 L1198.5,512.5313 L1198.5,494.1797 " fill="#EEEEEE" style="stroke:#000000;stroke-width:1.5;"/><rect fill="none" height="256.1094" style="stroke:#000000;stroke-width:1.5;" width="969.5" x="1198.5" y="494.1797"/><text fill="#000000" font-family="sans-serif" font-size="13" font-weight="bold" lengthAdjust="spacing" textLength="28" x="1213.5" y="508.6748">loop</text><text fill="#000000" font-family="sans-serif" font-size="11" font-weight="bold" lengthAdjust="spacing" textLength="134" x="1286.5" y="507.5986">[for each task in the list]</text><line style="stroke:#181818;stroke-width:1.0;" x1="1278.5" x2="1320.5" y1="534.8828" y2="534.8828"/><line style="stroke:#181818;stroke-width:1.0;" x1="1320.5" x2="1320.5" y1="534.8828" y2="547.8828"/><line style="stroke:#181818;stroke-width:1.0;" x1="1279.5" x2="1320.5" y1="547.8828" y2="547.8828"/><polygon fill="#181818" points="1289.5,543.8828,1279.5,547.8828,1289.5,551.8828,1285.5,547.8828" style="stroke:#181818;stroke-width:1.0;"/><text fill="#000000" font-family="sans-serif" font-size="13" font-weight="bold" lengthAdjust="spacing" textLength="14" x="1285.5" y="530.0264">14</text><text fill="#000000" font-family="sans-serif" font-size="13" lengthAdjust="spacing" textLength="202" x="1303.5" y="530.0264">TaskEntryDTO = toDTO(taskEntry)</text><polygon fill="#181818" points="1500.5,574.2344,1510.5,578.2344,1500.5,582.2344,1504.5,578.2344" style="stroke:#181818;stroke-width:1.0;"/><line style="stroke:#181818;stroke-width:1.0;" x1="1278.5" x2="1506.5" y1="578.2344" y2="578.2344"/><text fill="#000000" font-family="sans-serif" font-size="13" font-weight="bold" lengthAdjust="spacing" textLength="14" x="1285.5" y="573.3779">15</text><text fill="#000000" font-family="sans-serif" font-size="13" lengthAdjust="spacing" textLength="101" x="1303.5" y="573.3779">taskEntry = get(i)</text><line style="stroke:#181818;stroke-width:1.0;" x1="1278.5" x2="1325.5" y1="633.5859" y2="633.5859"/><line style="stroke:#181818;stroke-width:1.0;" x1="1325.5" x2="1325.5" y1="633.5859" y2="646.5859"/><line style="stroke:#181818;stroke-width:1.0;" x1="1284.5" x2="1325.5" y1="646.5859" y2="646.5859"/><polygon fill="#181818" points="1294.5,642.5859,1284.5,646.5859,1294.5,650.5859,1290.5,646.5859" style="stroke:#181818;stroke-width:1.0;"/><text fill="#000000" font-family="sans-serif" font-size="13" font-weight="bold" lengthAdjust="spacing" textLength="14" x="1290.5" y="628.7295">16</text><text fill="#000000" font-family="sans-serif" font-size="13" lengthAdjust="spacing" textLength="202" x="1308.5" y="628.7295">TaskEntryDTO = toDTO(taskEntry)</text><polygon fill="#181818" points="2071.5,677.9375,2081.5,681.9375,2071.5,685.9375,2075.5,681.9375" style="stroke:#181818;stroke-width:1.0;"/><line style="stroke:#181818;stroke-width:1.0;" x1="1278.5" x2="2077.5" y1="681.9375" y2="681.9375"/><text fill="#000000" font-family="sans-serif" font-size="13" font-weight="bold" lengthAdjust="spacing" textLength="14" x="1285.5" y="677.0811">17</text><text fill="#000000" font-family="sans-serif" font-size="13" lengthAdjust="spacing" textLength="56" x="1303.5" y="677.0811">create(...)</text><polygon fill="#181818" points="1821,708.2891,1831,712.2891,1821,716.2891,1825,712.2891" style="stroke:#181818;stroke-width:1.0;"/><line style="stroke:#181818;stroke-width:1.0;" x1="1278.5" x2="1827" y1="712.2891" y2="712.2891"/><text fill="#000000" font-family="sans-serif" font-size="13" font-weight="bold" lengthAdjust="spacing" textLength="14" x="1285.5" y="707.4326">18</text><text fill="#000000" font-family="sans-serif" font-size="13" lengthAdjust="spacing" textLength="105" x="1303.5" y="707.4326">add(taskEntryDto)</text><polygon fill="#181818" points="889,775.6406,879,779.6406,889,783.6406,885,779.6406" style="stroke:#181818;stroke-width:1.0;"/><line style="stroke:#181818;stroke-width:1.0;" x1="883" x2="1272.5" y1="779.6406" y2="779.6406"/><text fill="#000000" font-family="sans-serif" font-size="13" font-weight="bold" lengthAdjust="spacing" textLength="14" x="895" y="774.7842">19</text><text fill="#000000" font-family="sans-serif" font-size="13" lengthAdjust="spacing" textLength="100" x="913" y="774.7842">TaskEntryDtoList</text><polygon fill="#181818" points="484,805.9922,474,809.9922,484,813.9922,480,809.9922" style="stroke:#181818;stroke-width:1.0;"/><line style="stroke:#181818;stroke-width:1.0;stroke-dasharray:2.0,2.0;" x1="478" x2="872" y1="809.9922" y2="809.9922"/><text fill="#000000" font-family="sans-serif" font-size="13" font-weight="bold" lengthAdjust="spacing" textLength="14" x="490" y="805.1357">20</text><text fill="#000000" font-family="sans-serif" font-size="13" lengthAdjust="spacing" textLength="85" x="508" y="805.1357">TaskEntryDTO</text><polygon fill="#181818" points="63,836.3438,53,840.3438,63,844.3438,59,840.3438" style="stroke:#181818;stroke-width:1.0;"/><line style="stroke:#181818;stroke-width:1.0;stroke-dasharray:2.0,2.0;" x1="57" x2="467" y1="840.3438" y2="840.3438"/><text fill="#000000" font-family="sans-serif" font-size="13" font-weight="bold" lengthAdjust="spacing" textLength="14" x="69" y="835.4873">21</text><text fill="#000000" font-family="sans-serif" font-size="13" lengthAdjust="spacing" textLength="119" x="87" y="835.4873">shows a list of tasks</text><polygon fill="#181818" points="451,866.6953,461,870.6953,451,874.6953,455,870.6953" style="stroke:#181818;stroke-width:1.0;"/><line style="stroke:#181818;stroke-width:1.0;" x1="52" x2="457" y1="870.6953" y2="870.6953"/><text fill="#000000" font-family="sans-serif" font-size="13" font-weight="bold" lengthAdjust="spacing" textLength="14" x="59" y="865.8389">22</text><text fill="#000000" font-family="sans-serif" font-size="13" lengthAdjust="spacing" textLength="150" x="77" y="865.8389">asks to show current user</text><polygon fill="#181818" points="63,897.0469,53,901.0469,63,905.0469,59,901.0469" style="stroke:#181818;stroke-width:1.0;"/><line style="stroke:#181818;stroke-width:1.0;stroke-dasharray:2.0,2.0;" x1="57" x2="467" y1="901.0469" y2="901.0469"/><text fill="#000000" font-family="sans-serif" font-size="13" font-weight="bold" lengthAdjust="spacing" textLength="14" x="69" y="896.1904">23</text><text fill="#000000" font-family="sans-serif" font-size="13" lengthAdjust="spacing" textLength="201" x="87" y="896.1904">request data(firstData,secondData)</text><polygon fill="#181818" points="451,927.3984,461,931.3984,451,935.3984,455,931.3984" style="stroke:#181818;stroke-width:1.0;"/><line style="stroke:#181818;stroke-width:1.0;" x1="52" x2="457" y1="931.3984" y2="931.3984"/><text fill="#000000" font-family="sans-serif" font-size="13" font-weight="bold" lengthAdjust="spacing" textLength="14" x="59" y="926.542">24</text><text fill="#000000" font-family="sans-serif" font-size="13" lengthAdjust="spacing" textLength="78" x="77" y="926.542">confirms data</text><polygon fill="#181818" points="856,957.75,866,961.75,856,965.75,860,961.75" style="stroke:#181818;stroke-width:1.0;"/><line style="stroke:#181818;stroke-width:1.0;" x1="473" x2="862" y1="961.75" y2="961.75"/><text fill="#000000" font-family="sans-serif" font-size="13" font-weight="bold" lengthAdjust="spacing" textLength="14" x="480" y="956.8936">25</text><text fill="#000000" font-family="sans-serif" font-size="13" lengthAdjust="spacing" textLength="164" x="498" y="956.8936">getCurrentUserCollaborator()</text><polygon fill="#181818" points="1033,988.1016,1043,992.1016,1033,996.1016,1037,992.1016" style="stroke:#181818;stroke-width:1.0;"/><line style="stroke:#181818;stroke-width:1.0;" x1="878" x2="1039" y1="992.1016" y2="992.1016"/><text fill="#000000" font-family="sans-serif" font-size="13" font-weight="bold" lengthAdjust="spacing" textLength="14" x="885" y="987.2451">26</text><text fill="#000000" font-family="sans-serif" font-size="13" lengthAdjust="spacing" textLength="75" x="903" y="987.2451">getInstance()</text><polygon fill="#181818" points="1133,1018.4531,1143,1022.4531,1133,1026.4531,1137,1022.4531" style="stroke:#181818;stroke-width:1.0;"/><line style="stroke:#181818;stroke-width:1.0;" x1="878" x2="1139" y1="1022.4531" y2="1022.4531"/><text fill="#000000" font-family="sans-serif" font-size="13" font-weight="bold" lengthAdjust="spacing" textLength="14" x="885" y="1017.5967">27</text><text fill="#000000" font-family="sans-serif" font-size="13" lengthAdjust="spacing" textLength="157" x="903" y="1017.5967">getCollaboratorRepository()</text><polygon fill="#181818" points="889,1048.8047,879,1052.8047,889,1056.8047,885,1052.8047" style="stroke:#181818;stroke-width:1.0;"/><line style="stroke:#181818;stroke-width:1.0;stroke-dasharray:2.0,2.0;" x1="883" x2="1149" y1="1052.8047" y2="1052.8047"/><text fill="#000000" font-family="sans-serif" font-size="13" font-weight="bold" lengthAdjust="spacing" textLength="14" x="895" y="1047.9482">28</text><text fill="#000000" font-family="sans-serif" font-size="13" lengthAdjust="spacing" textLength="131" x="913" y="1047.9482">CollaboratorRepository</text><polygon fill="#181818" points="1660,1079.1563,1670,1083.1563,1660,1087.1563,1664,1083.1563" style="stroke:#181818;stroke-width:1.0;"/><line style="stroke:#181818;stroke-width:1.0;" x1="878" x2="1666" y1="1083.1563" y2="1083.1563"/><text fill="#000000" font-family="sans-serif" font-size="13" font-weight="bold" lengthAdjust="spacing" textLength="14" x="885" y="1078.2998">29</text><text fill="#000000" font-family="sans-serif" font-size="13" lengthAdjust="spacing" textLength="164" x="903" y="1078.2998">getCurrentUserCollaborator()</text><polygon fill="#181818" points="889,1109.5078,879,1113.5078,889,1117.5078,885,1113.5078" style="stroke:#181818;stroke-width:1.0;"/><line style="stroke:#181818;stroke-width:1.0;stroke-dasharray:2.0,2.0;" x1="883" x2="1676" y1="1113.5078" y2="1113.5078"/><text fill="#000000" font-family="sans-serif" font-size="13" font-weight="bold" lengthAdjust="spacing" textLength="14" x="895" y="1108.6514">30</text><text fill="#000000" font-family="sans-serif" font-size="13" lengthAdjust="spacing" textLength="69" x="913" y="1108.6514">Collaborator</text><polygon fill="#181818" points="484,1139.8594,474,1143.8594,484,1147.8594,480,1143.8594" style="stroke:#181818;stroke-width:1.0;"/><line style="stroke:#181818;stroke-width:1.0;stroke-dasharray:2.0,2.0;" x1="478" x2="872" y1="1143.8594" y2="1143.8594"/><text fill="#000000" font-family="sans-serif" font-size="13" font-weight="bold" lengthAdjust="spacing" textLength="14" x="490" y="1139.0029">31</text><text fill="#000000" font-family="sans-serif" font-size="13" lengthAdjust="spacing" textLength="69" x="508" y="1139.0029">Collaborator</text><polygon fill="#181818" points="63,1170.2109,53,1174.2109,63,1178.2109,59,1174.2109" style="stroke:#181818;stroke-width:1.0;"/><line style="stroke:#181818;stroke-width:1.0;stroke-dasharray:2.0,2.0;" x1="57" x2="467" y1="1174.2109" y2="1174.2109"/><text fill="#000000" font-family="sans-serif" font-size="13" font-weight="bold" lengthAdjust="spacing" textLength="14" x="69" y="1169.3545">32</text><text fill="#000000" font-family="sans-serif" font-size="13" lengthAdjust="spacing" textLength="69" x="87" y="1169.3545">Collaborator</text><polygon fill="#181818" points="451,1200.5625,461,1204.5625,451,1208.5625,455,1204.5625" style="stroke:#181818;stroke-width:1.0;"/><line style="stroke:#181818;stroke-width:1.0;" x1="52" x2="457" y1="1204.5625" y2="1204.5625"/><text fill="#000000" font-family="sans-serif" font-size="13" font-weight="bold" lengthAdjust="spacing" textLength="14" x="59" y="1199.7061">33</text><text fill="#000000" font-family="sans-serif" font-size="13" lengthAdjust="spacing" textLength="257" x="77" y="1199.7061">asks to show tasks assigned to current user</text><polygon fill="#181818" points="63,1230.9141,53,1234.9141,63,1238.9141,59,1234.9141" style="stroke:#181818;stroke-width:1.0;"/><line style="stroke:#181818;stroke-width:1.0;stroke-dasharray:2.0,2.0;" x1="57" x2="467" y1="1234.9141" y2="1234.9141"/><text fill="#000000" font-family="sans-serif" font-size="13" font-weight="bold" lengthAdjust="spacing" textLength="14" x="69" y="1230.0576">34</text><text fill="#000000" font-family="sans-serif" font-size="13" lengthAdjust="spacing" textLength="205" x="87" y="1230.0576">request data (firstDate,secondDate)</text><polygon fill="#181818" points="451,1261.2656,461,1265.2656,451,1269.2656,455,1265.2656" style="stroke:#181818;stroke-width:1.0;"/><line style="stroke:#181818;stroke-width:1.0;" x1="52" x2="457" y1="1265.2656" y2="1265.2656"/><text fill="#000000" font-family="sans-serif" font-size="13" font-weight="bold" lengthAdjust="spacing" textLength="14" x="59" y="1260.4092">35</text><text fill="#000000" font-family="sans-serif" font-size="13" lengthAdjust="spacing" textLength="78" x="77" y="1260.4092">confirms data</text><polygon fill="#181818" points="856,1291.6172,866,1295.6172,856,1299.6172,860,1295.6172" style="stroke:#181818;stroke-width:1.0;"/><line style="stroke:#181818;stroke-width:1.0;" x1="473" x2="862" y1="1295.6172" y2="1295.6172"/><text fill="#000000" font-family="sans-serif" font-size="13" font-weight="bold" lengthAdjust="spacing" textLength="14" x="480" y="1290.7607">36</text><text fill="#000000" font-family="sans-serif" font-size="13" lengthAdjust="spacing" textLength="358" x="498" y="1290.7607">getCurrentUserTasksBetweenTwoDates(firstDate,secondDate)</text><polygon fill="#181818" points="1033,1321.9688,1043,1325.9688,1033,1329.9688,1037,1325.9688" style="stroke:#181818;stroke-width:1.0;"/><line style="stroke:#181818;stroke-width:1.0;" x1="878" x2="1039" y1="1325.9688" y2="1325.9688"/><text fill="#000000" font-family="sans-serif" font-size="13" font-weight="bold" lengthAdjust="spacing" textLength="14" x="885" y="1321.1123">37</text><text fill="#000000" font-family="sans-serif" font-size="13" lengthAdjust="spacing" textLength="75" x="903" y="1321.1123">getInstance()</text><polygon fill="#181818" points="1133,1352.3203,1143,1356.3203,1133,1360.3203,1137,1356.3203" style="stroke:#181818;stroke-width:1.0;"/><line style="stroke:#181818;stroke-width:1.0;" x1="878" x2="1139" y1="1356.3203" y2="1356.3203"/><text fill="#000000" font-family="sans-serif" font-size="13" font-weight="bold" lengthAdjust="spacing" textLength="14" x="885" y="1351.4639">38</text><text fill="#000000" font-family="sans-serif" font-size="13" lengthAdjust="spacing" textLength="132" x="903" y="1351.4639">getAgendaRepository()</text><polygon fill="#181818" points="889,1382.6719,879,1386.6719,889,1390.6719,885,1386.6719" style="stroke:#181818;stroke-width:1.0;"/><line style="stroke:#181818;stroke-width:1.0;stroke-dasharray:2.0,2.0;" x1="883" x2="1149" y1="1386.6719" y2="1386.6719"/><text fill="#000000" font-family="sans-serif" font-size="13" font-weight="bold" lengthAdjust="spacing" textLength="14" x="895" y="1381.8154">39</text><text fill="#000000" font-family="sans-serif" font-size="13" lengthAdjust="spacing" textLength="106" x="913" y="1381.8154">AgendaRepository</text><polygon fill="#181818" points="1500.5,1413.0234,1510.5,1417.0234,1500.5,1421.0234,1504.5,1417.0234" style="stroke:#181818;stroke-width:1.0;"/><line style="stroke:#181818;stroke-width:1.0;" x1="878" x2="1506.5" y1="1417.0234" y2="1417.0234"/><text fill="#000000" font-family="sans-serif" font-size="13" font-weight="bold" lengthAdjust="spacing" textLength="14" x="885" y="1412.167">40</text><text fill="#000000" font-family="sans-serif" font-size="13" lengthAdjust="spacing" textLength="358" x="903" y="1412.167">getCurrentUserTasksBetweenTwoDates(firstDate,secondDate)</text><polygon fill="#181818" points="889,1443.375,879,1447.375,889,1451.375,885,1447.375" style="stroke:#181818;stroke-width:1.0;"/><line style="stroke:#181818;stroke-width:1.0;stroke-dasharray:2.0,2.0;" x1="883" x2="1516.5" y1="1447.375" y2="1447.375"/><text fill="#000000" font-family="sans-serif" font-size="13" font-weight="bold" lengthAdjust="spacing" textLength="14" x="895" y="1442.5186">41</text><text fill="#000000" font-family="sans-serif" font-size="13" lengthAdjust="spacing" textLength="59" x="913" y="1442.5186">TaskEntry</text><polygon fill="#181818" points="484,1473.7266,474,1477.7266,484,1481.7266,480,1477.7266" style="stroke:#181818;stroke-width:1.0;"/><line style="stroke:#181818;stroke-width:1.0;stroke-dasharray:2.0,2.0;" x1="478" x2="872" y1="1477.7266" y2="1477.7266"/><text fill="#000000" font-family="sans-serif" font-size="13" font-weight="bold" lengthAdjust="spacing" textLength="14" x="490" y="1472.8701">42</text><text fill="#000000" font-family="sans-serif" font-size="13" lengthAdjust="spacing" textLength="59" x="508" y="1472.8701">TaskEntry</text><polygon fill="#181818" points="58,1504.0781,48,1508.0781,58,1512.0781,54,1508.0781" style="stroke:#181818;stroke-width:1.0;"/><line style="stroke:#181818;stroke-width:1.0;stroke-dasharray:2.0,2.0;" x1="52" x2="467" y1="1508.0781" y2="1508.0781"/><text fill="#000000" font-family="sans-serif" font-size="13" font-weight="bold" lengthAdjust="spacing" textLength="14" x="64" y="1503.2217">43</text><text fill="#000000" font-family="sans-serif" font-size="13" lengthAdjust="spacing" textLength="158" x="82" y="1503.2217">displays operation success</text><!--SRC=[hLTVRvim47_tfpZrPKHQ-m4YRLAMJ5MqLerQ-jON1vo4bTZCDiloxNSs2S5W0zdAImZS_Uvtv_k7UizuGINTmrvmaUoas3FGicH4rMyAchpJBNlHnvo1P8ccV9it1TIEfkAGyIriQAuO8RJKWfVxDPE4VDfbAOED47ej_X2QQ27XPYxodAw5fFZl1gY2sUAH89ZEagoWNCFDz25JEgRgNNrZ-i0ONr3DrElIIhyknmZF1TSI3R7An3n-Vd3LdbaXL8OKCgQiIFtW-98P7z4BLqCsDDxuj0EmUfZ5BMg6rdSaSdoaHN6YyZXRjQHcMyPJUh5VkVbytn9hngqbx7_bwkipbqNyP4Bsnk72x_JCWk4z2QYYsxMAbOrdBpzSMR7-kT1Y2XTeBQpelSKrIP3znXEofqu0Bxo1swzuhZ05SuoW1II2gpBNeEq3gbIsvIorRqef6Heg5PEmhauSz450QexT0jOcC5NWT24wsZ1fW5OIoV2r_zsMwLLEELgRyNGbb2u4tf_oAnTyYyaHYtd5uXL9H9CQg3Piqwr-R2wBZbOyMLOPNNA5jPMm1fm3wKjFHz9SFlJRYs_D37PqKpRUpjaJa-uLzNR-Xbom1TBXR74Q9Dje8Q9Tj3CpB9t_F4WtYx0IEwoDZGRfEjjD5OKOTu5Sng24h3fPTAuuFAX9n_OuXcFPlg1HbWRL-_YVwMDBCwZYr4KY1pyGLTC6sxOC3i8Xp1JcjaQZhlUv40ME50b8R6SR16JO0NOCydRiMxZuq-nByHDymOw2ltMuZvCG9_Hz2hKOAc9wHLbNt0dMG2m_akQOkDxRm5RDBxgxkvlq4Hmw7vgc5pxOuoSapCbq_XvJljVO0qBcJTQvywMlw8mVdgGz3vncd8b7tUtaPbAWffbOKznyn05daqqx49jgLf7sEI-9RxuPNMUKaQQ6tvvalqg6fd3GqMYJIQLnqw6V5SDXcPhRYSTuPyAYCEhkbONnZylcFCGqRxJ8vfuHQfVTsNVLyEkcKNVW-DUToDSftN41GyCdi4ZrTKN_L3kJzWEUt1WLM3UuVdvzpJ_08E1q7rApBFhZvDPO43zOPzxy7mFJB1u85bx_LXdO0fR4pymjJAWharqgaqr6yHsirFubODckdN0TDp-NueEmNqmZY8-fzO-f-NzUDg-g_a0NwDr0hsi3mTNqumxZkarmO24SepkmnGJcAndgAE5KQZU2D5D5JeyA17vJKvrXHgaoIPXIGqPQHTnwQxz8_m80]--></g></svg>