<?xml version="1.0" encoding="UTF-8" standalone="no"?><svg xmlns="http://www.w3.org/2000/svg" xmlns:xlink="http://www.w3.org/1999/xlink" contentStyleType="text/css" height="1118px" preserveAspectRatio="none" style="width:1240px;height:1118px;background:#FFFFFF;" version="1.1" viewBox="0 0 1240 1118" width="1240px" zoomAndPan="magnify"><defs/><g><!--class TaskEntry--><g id="elem_TaskEntry"><rect codeLine="9" fill="#F1F1F1" height="153.6563" id="TaskEntry" rx="2.5" ry="2.5" style="stroke:#181818;stroke-width:0.5;" width="128" x="7" y="312"/><ellipse cx="36.4" cy="328" fill="#ADD1B2" rx="11" ry="11" style="stroke:#181818;stroke-width:1.0;"/><path d="M39.1656,323.875 Q39.3219,323.6563 39.5094,323.5469 Q39.6969,323.4375 39.9156,323.4375 Q40.2906,323.4375 40.525,323.7031 Q40.7594,323.9531 40.7594,324.5625 L40.7594,326.0156 Q40.7594,326.625 40.525,326.8906 Q40.2906,327.1563 39.9156,327.1563 Q39.5719,327.1563 39.3688,326.9531 Q39.1656,326.7656 39.0563,326.25 Q39.0094,325.8906 38.8219,325.7031 Q38.4938,325.3281 37.8844,325.1094 Q37.275,324.8906 36.65,324.8906 Q35.8844,324.8906 35.2438,325.2188 Q34.6188,325.5469 34.1188,326.2969 Q33.6344,327.0469 33.6344,328.0781 L33.6344,329.1719 Q33.6344,330.4063 34.525,331.2344 Q35.4156,332.0469 37.0094,332.0469 Q37.9469,332.0469 38.6031,331.7969 Q38.9938,331.6406 39.4156,331.2031 Q39.6813,330.9375 39.8219,330.8594 Q39.9781,330.7813 40.1813,330.7813 Q40.5094,330.7813 40.7594,331.0469 Q41.025,331.2969 41.025,331.6406 Q41.025,331.9844 40.6813,332.3906 Q40.1813,332.9688 39.3844,333.2969 Q38.3063,333.75 37.0094,333.75 Q35.4938,333.75 34.2906,333.125 Q33.3063,332.625 32.6188,331.5625 Q31.9313,330.4844 31.9313,329.2031 L31.9313,328.0469 Q31.9313,326.7188 32.5406,325.5781 Q33.1656,324.4219 34.2594,323.8125 Q35.3531,323.1875 36.5875,323.1875 Q37.3219,323.1875 37.9625,323.3594 Q38.6188,323.5156 39.1656,323.875 Z " fill="#000000"/><text fill="#000000" font-family="sans-serif" font-size="14" lengthAdjust="spacing" textLength="64" x="53.6" y="333.7285">TaskEntry</text><line style="stroke:#181818;stroke-width:0.5;" x1="8" x2="134" y1="344" y2="344"/><text fill="#000000" font-family="sans-serif" font-size="14" lengthAdjust="spacing" textLength="27" x="13" y="362.5332">-title</text><text fill="#000000" font-family="sans-serif" font-size="14" lengthAdjust="spacing" textLength="74" x="13" y="380.1426">-description</text><text fill="#000000" font-family="sans-serif" font-size="14" lengthAdjust="spacing" textLength="90" x="13" y="397.752">-urgencyLevel</text><text fill="#000000" font-family="sans-serif" font-size="14" lengthAdjust="spacing" textLength="116" x="13" y="415.3613">-expectedDuration</text><text fill="#000000" font-family="sans-serif" font-size="14" lengthAdjust="spacing" textLength="36" x="13" y="432.9707">-state</text><text fill="#000000" font-family="sans-serif" font-size="14" lengthAdjust="spacing" textLength="82" x="13" y="450.5801">-greenSpace</text><line style="stroke:#181818;stroke-width:0.5;" x1="8" x2="134" y1="457.6563" y2="457.6563"/></g><!--class AssignTaskToAgendaController--><g id="elem_AssignTaskToAgendaController"><rect codeLine="21" fill="#F1F1F1" height="118.4375" id="AssignTaskToAgendaController" rx="2.5" ry="2.5" style="stroke:#181818;stroke-width:0.5;" width="471" x="254.5" y="116"/><ellipse cx="385.25" cy="132" fill="#ADD1B2" rx="11" ry="11" style="stroke:#181818;stroke-width:1.0;"/><path d="M388.0156,127.875 Q388.1719,127.6563 388.3594,127.5469 Q388.5469,127.4375 388.7656,127.4375 Q389.1406,127.4375 389.375,127.7031 Q389.6094,127.9531 389.6094,128.5625 L389.6094,130.0156 Q389.6094,130.625 389.375,130.8906 Q389.1406,131.1563 388.7656,131.1563 Q388.4219,131.1563 388.2188,130.9531 Q388.0156,130.7656 387.9063,130.25 Q387.8594,129.8906 387.6719,129.7031 Q387.3438,129.3281 386.7344,129.1094 Q386.125,128.8906 385.5,128.8906 Q384.7344,128.8906 384.0938,129.2188 Q383.4688,129.5469 382.9688,130.2969 Q382.4844,131.0469 382.4844,132.0781 L382.4844,133.1719 Q382.4844,134.4063 383.375,135.2344 Q384.2656,136.0469 385.8594,136.0469 Q386.7969,136.0469 387.4531,135.7969 Q387.8438,135.6406 388.2656,135.2031 Q388.5313,134.9375 388.6719,134.8594 Q388.8281,134.7813 389.0313,134.7813 Q389.3594,134.7813 389.6094,135.0469 Q389.875,135.2969 389.875,135.6406 Q389.875,135.9844 389.5313,136.3906 Q389.0313,136.9688 388.2344,137.2969 Q387.1563,137.75 385.8594,137.75 Q384.3438,137.75 383.1406,137.125 Q382.1563,136.625 381.4688,135.5625 Q380.7813,134.4844 380.7813,133.2031 L380.7813,132.0469 Q380.7813,130.7188 381.3906,129.5781 Q382.0156,128.4219 383.1094,127.8125 Q384.2031,127.1875 385.4375,127.1875 Q386.1719,127.1875 386.8125,127.3594 Q387.4688,127.5156 388.0156,127.875 Z " fill="#000000"/><text fill="#000000" font-family="sans-serif" font-size="14" lengthAdjust="spacing" textLength="201" x="405.75" y="137.7285">AssignTaskToAgendaController</text><line style="stroke:#181818;stroke-width:0.5;" x1="255.5" x2="724.5" y1="148" y2="148"/><text fill="#000000" font-family="sans-serif" font-size="14" lengthAdjust="spacing" textLength="262" x="260.5" y="166.5332">-ToDoListRepository : toDoListRepository</text><line style="stroke:#181818;stroke-width:0.5;" x1="255.5" x2="724.5" y1="173.6094" y2="173.6094"/><text fill="#000000" font-family="sans-serif" font-size="14" lengthAdjust="spacing" textLength="459" x="260.5" y="192.1426">+AssignTaskToAgendaController(toDoListRepository,agendaRepository)</text><text fill="#000000" font-family="sans-serif" font-size="14" lengthAdjust="spacing" textLength="382" x="260.5" y="209.752">+createTask(taskTitle, taskDuration, duration, urgency level)</text><text fill="#000000" font-family="sans-serif" font-size="14" lengthAdjust="spacing" textLength="130" x="260.5" y="227.3613">+add(task,date,time)</text></g><!--class ToDoListRepository--><g id="elem_ToDoListRepository"><rect codeLine="28" fill="#F1F1F1" height="100.8281" id="ToDoListRepository" rx="2.5" ry="2.5" style="stroke:#181818;stroke-width:0.5;" width="249" x="25.5" y="544"/><ellipse cx="83.25" cy="560" fill="#ADD1B2" rx="11" ry="11" style="stroke:#181818;stroke-width:1.0;"/><path d="M86.0156,555.875 Q86.1719,555.6563 86.3594,555.5469 Q86.5469,555.4375 86.7656,555.4375 Q87.1406,555.4375 87.375,555.7031 Q87.6094,555.9531 87.6094,556.5625 L87.6094,558.0156 Q87.6094,558.625 87.375,558.8906 Q87.1406,559.1563 86.7656,559.1563 Q86.4219,559.1563 86.2188,558.9531 Q86.0156,558.7656 85.9063,558.25 Q85.8594,557.8906 85.6719,557.7031 Q85.3438,557.3281 84.7344,557.1094 Q84.125,556.8906 83.5,556.8906 Q82.7344,556.8906 82.0938,557.2188 Q81.4688,557.5469 80.9688,558.2969 Q80.4844,559.0469 80.4844,560.0781 L80.4844,561.1719 Q80.4844,562.4063 81.375,563.2344 Q82.2656,564.0469 83.8594,564.0469 Q84.7969,564.0469 85.4531,563.7969 Q85.8438,563.6406 86.2656,563.2031 Q86.5313,562.9375 86.6719,562.8594 Q86.8281,562.7813 87.0313,562.7813 Q87.3594,562.7813 87.6094,563.0469 Q87.875,563.2969 87.875,563.6406 Q87.875,563.9844 87.5313,564.3906 Q87.0313,564.9688 86.2344,565.2969 Q85.1563,565.75 83.8594,565.75 Q82.3438,565.75 81.1406,565.125 Q80.1563,564.625 79.4688,563.5625 Q78.7813,562.4844 78.7813,561.2031 L78.7813,560.0469 Q78.7813,558.7188 79.3906,557.5781 Q80.0156,556.4219 81.1094,555.8125 Q82.2031,555.1875 83.4375,555.1875 Q84.1719,555.1875 84.8125,555.3594 Q85.4688,555.5156 86.0156,555.875 Z " fill="#000000"/><text fill="#000000" font-family="sans-serif" font-size="14" lengthAdjust="spacing" textLength="125" x="103.75" y="565.7285">ToDoListRepository</text><line style="stroke:#181818;stroke-width:0.5;" x1="26.5" x2="273.5" y1="576" y2="576"/><text fill="#000000" font-family="sans-serif" font-size="14" lengthAdjust="spacing" textLength="48" x="31.5" y="594.5332">-entries</text><line style="stroke:#181818;stroke-width:0.5;" x1="26.5" x2="273.5" y1="601.6094" y2="601.6094"/><text fill="#000000" font-family="sans-serif" font-size="14" lengthAdjust="spacing" textLength="237" x="31.5" y="620.1426">+addTaskEntry(taskEntry: TaskEntry)</text><text fill="#000000" font-family="sans-serif" font-size="14" lengthAdjust="spacing" textLength="233" x="31.5" y="637.752">+getTaskEntry(taskEntry: TaskEntry)</text></g><!--class AgendaRepository--><g id="elem_AgendaRepository"><rect codeLine="33" fill="#F1F1F1" height="65.6094" id="AgendaRepository" rx="2.5" ry="2.5" style="stroke:#181818;stroke-width:0.5;" width="149" x="352.5" y="356"/><ellipse cx="367.5" cy="372" fill="#ADD1B2" rx="11" ry="11" style="stroke:#181818;stroke-width:1.0;"/><path d="M370.2656,367.875 Q370.4219,367.6563 370.6094,367.5469 Q370.7969,367.4375 371.0156,367.4375 Q371.3906,367.4375 371.625,367.7031 Q371.8594,367.9531 371.8594,368.5625 L371.8594,370.0156 Q371.8594,370.625 371.625,370.8906 Q371.3906,371.1563 371.0156,371.1563 Q370.6719,371.1563 370.4688,370.9531 Q370.2656,370.7656 370.1563,370.25 Q370.1094,369.8906 369.9219,369.7031 Q369.5938,369.3281 368.9844,369.1094 Q368.375,368.8906 367.75,368.8906 Q366.9844,368.8906 366.3438,369.2188 Q365.7188,369.5469 365.2188,370.2969 Q364.7344,371.0469 364.7344,372.0781 L364.7344,373.1719 Q364.7344,374.4063 365.625,375.2344 Q366.5156,376.0469 368.1094,376.0469 Q369.0469,376.0469 369.7031,375.7969 Q370.0938,375.6406 370.5156,375.2031 Q370.7813,374.9375 370.9219,374.8594 Q371.0781,374.7813 371.2813,374.7813 Q371.6094,374.7813 371.8594,375.0469 Q372.125,375.2969 372.125,375.6406 Q372.125,375.9844 371.7813,376.3906 Q371.2813,376.9688 370.4844,377.2969 Q369.4063,377.75 368.1094,377.75 Q366.5938,377.75 365.3906,377.125 Q364.4063,376.625 363.7188,375.5625 Q363.0313,374.4844 363.0313,373.2031 L363.0313,372.0469 Q363.0313,370.7188 363.6406,369.5781 Q364.2656,368.4219 365.3594,367.8125 Q366.4531,367.1875 367.6875,367.1875 Q368.4219,367.1875 369.0625,367.3594 Q369.7188,367.5156 370.2656,367.875 Z " fill="#000000"/><text fill="#000000" font-family="sans-serif" font-size="14" lengthAdjust="spacing" textLength="117" x="381.5" y="377.7285">AgendaRepository</text><line style="stroke:#181818;stroke-width:0.5;" x1="353.5" x2="500.5" y1="388" y2="388"/><line style="stroke:#181818;stroke-width:0.5;" x1="353.5" x2="500.5" y1="396" y2="396"/><text fill="#000000" font-family="sans-serif" font-size="14" lengthAdjust="spacing" textLength="130" x="358.5" y="414.5332">+add(task,date,time)</text></g><!--class AssignTaskToAgendaUI--><g id="elem_AssignTaskToAgendaUI"><rect codeLine="37" fill="#F1F1F1" height="48" id="AssignTaskToAgendaUI" rx="2.5" ry="2.5" style="stroke:#181818;stroke-width:0.5;" width="183" x="398.5" y="7"/><ellipse cx="413.5" cy="23" fill="#ADD1B2" rx="11" ry="11" style="stroke:#181818;stroke-width:1.0;"/><path d="M416.2656,18.875 Q416.4219,18.6563 416.6094,18.5469 Q416.7969,18.4375 417.0156,18.4375 Q417.3906,18.4375 417.625,18.7031 Q417.8594,18.9531 417.8594,19.5625 L417.8594,21.0156 Q417.8594,21.625 417.625,21.8906 Q417.3906,22.1563 417.0156,22.1563 Q416.6719,22.1563 416.4688,21.9531 Q416.2656,21.7656 416.1563,21.25 Q416.1094,20.8906 415.9219,20.7031 Q415.5938,20.3281 414.9844,20.1094 Q414.375,19.8906 413.75,19.8906 Q412.9844,19.8906 412.3438,20.2188 Q411.7188,20.5469 411.2188,21.2969 Q410.7344,22.0469 410.7344,23.0781 L410.7344,24.1719 Q410.7344,25.4063 411.625,26.2344 Q412.5156,27.0469 414.1094,27.0469 Q415.0469,27.0469 415.7031,26.7969 Q416.0938,26.6406 416.5156,26.2031 Q416.7813,25.9375 416.9219,25.8594 Q417.0781,25.7813 417.2813,25.7813 Q417.6094,25.7813 417.8594,26.0469 Q418.125,26.2969 418.125,26.6406 Q418.125,26.9844 417.7813,27.3906 Q417.2813,27.9688 416.4844,28.2969 Q415.4063,28.75 414.1094,28.75 Q412.5938,28.75 411.3906,28.125 Q410.4063,27.625 409.7188,26.5625 Q409.0313,25.4844 409.0313,24.2031 L409.0313,23.0469 Q409.0313,21.7188 409.6406,20.5781 Q410.2656,19.4219 411.3594,18.8125 Q412.4531,18.1875 413.6875,18.1875 Q414.4219,18.1875 415.0625,18.3594 Q415.7188,18.5156 416.2656,18.875 Z " fill="#000000"/><text fill="#000000" font-family="sans-serif" font-size="14" lengthAdjust="spacing" textLength="151" x="427.5" y="28.7285">AssignTaskToAgendaUI</text><line style="stroke:#181818;stroke-width:0.5;" x1="399.5" x2="580.5" y1="39" y2="39"/><line style="stroke:#181818;stroke-width:0.5;" x1="399.5" x2="580.5" y1="47" y2="47"/></g><!--class Repositories--><g id="elem_Repositories"><rect codeLine="40" fill="#F1F1F1" height="100.8281" id="Repositories" rx="2.5" ry="2.5" style="stroke:#181818;stroke-width:0.5;" width="175" x="748.5" y="1011"/><ellipse cx="792.3" cy="1027" fill="#ADD1B2" rx="11" ry="11" style="stroke:#181818;stroke-width:1.0;"/><path d="M795.0656,1022.875 Q795.2219,1022.6563 795.4094,1022.5469 Q795.5969,1022.4375 795.8156,1022.4375 Q796.1906,1022.4375 796.425,1022.7031 Q796.6594,1022.9531 796.6594,1023.5625 L796.6594,1025.0156 Q796.6594,1025.625 796.425,1025.8906 Q796.1906,1026.1563 795.8156,1026.1563 Q795.4719,1026.1563 795.2688,1025.9531 Q795.0656,1025.7656 794.9563,1025.25 Q794.9094,1024.8906 794.7219,1024.7031 Q794.3938,1024.3281 793.7844,1024.1094 Q793.175,1023.8906 792.55,1023.8906 Q791.7844,1023.8906 791.1438,1024.2188 Q790.5188,1024.5469 790.0188,1025.2969 Q789.5344,1026.0469 789.5344,1027.0781 L789.5344,1028.1719 Q789.5344,1029.4063 790.425,1030.2344 Q791.3156,1031.0469 792.9094,1031.0469 Q793.8469,1031.0469 794.5031,1030.7969 Q794.8938,1030.6406 795.3156,1030.2031 Q795.5813,1029.9375 795.7219,1029.8594 Q795.8781,1029.7813 796.0813,1029.7813 Q796.4094,1029.7813 796.6594,1030.0469 Q796.925,1030.2969 796.925,1030.6406 Q796.925,1030.9844 796.5813,1031.3906 Q796.0813,1031.9688 795.2844,1032.2969 Q794.2063,1032.75 792.9094,1032.75 Q791.3938,1032.75 790.1906,1032.125 Q789.2063,1031.625 788.5188,1030.5625 Q787.8313,1029.4844 787.8313,1028.2031 L787.8313,1027.0469 Q787.8313,1025.7188 788.4406,1024.5781 Q789.0656,1023.4219 790.1594,1022.8125 Q791.2531,1022.1875 792.4875,1022.1875 Q793.2219,1022.1875 793.8625,1022.3594 Q794.5188,1022.5156 795.0656,1022.875 Z " fill="#000000"/><text fill="#000000" font-family="sans-serif" font-size="14" lengthAdjust="spacing" textLength="79" x="812.7" y="1032.7285">Repositories</text><line style="stroke:#181818;stroke-width:0.5;" x1="749.5" x2="922.5" y1="1043" y2="1043"/><line style="stroke:#181818;stroke-width:0.5;" x1="749.5" x2="922.5" y1="1051" y2="1051"/><text fill="#000000" font-family="sans-serif" font-size="14" lengthAdjust="spacing" textLength="91" x="754.5" y="1069.5332">+getInstance()</text><text fill="#000000" font-family="sans-serif" font-size="14" lengthAdjust="spacing" textLength="163" x="754.5" y="1087.1426">+getToDoListRepository()</text><text fill="#000000" font-family="sans-serif" font-size="14" lengthAdjust="spacing" textLength="155" x="754.5" y="1104.752">+getAgendaRepository()</text></g><!--class GreenSpaceController--><g id="elem_GreenSpaceController"><rect codeLine="46" fill="#F1F1F1" height="65.6094" id="GreenSpaceController" rx="2.5" ry="2.5" style="stroke:#181818;stroke-width:0.5;" width="174" x="749" y="867"/><ellipse cx="764" cy="883" fill="#ADD1B2" rx="11" ry="11" style="stroke:#181818;stroke-width:1.0;"/><path d="M766.7656,878.875 Q766.9219,878.6563 767.1094,878.5469 Q767.2969,878.4375 767.5156,878.4375 Q767.8906,878.4375 768.125,878.7031 Q768.3594,878.9531 768.3594,879.5625 L768.3594,881.0156 Q768.3594,881.625 768.125,881.8906 Q767.8906,882.1563 767.5156,882.1563 Q767.1719,882.1563 766.9688,881.9531 Q766.7656,881.7656 766.6563,881.25 Q766.6094,880.8906 766.4219,880.7031 Q766.0938,880.3281 765.4844,880.1094 Q764.875,879.8906 764.25,879.8906 Q763.4844,879.8906 762.8438,880.2188 Q762.2188,880.5469 761.7188,881.2969 Q761.2344,882.0469 761.2344,883.0781 L761.2344,884.1719 Q761.2344,885.4063 762.125,886.2344 Q763.0156,887.0469 764.6094,887.0469 Q765.5469,887.0469 766.2031,886.7969 Q766.5938,886.6406 767.0156,886.2031 Q767.2813,885.9375 767.4219,885.8594 Q767.5781,885.7813 767.7813,885.7813 Q768.1094,885.7813 768.3594,886.0469 Q768.625,886.2969 768.625,886.6406 Q768.625,886.9844 768.2813,887.3906 Q767.7813,887.9688 766.9844,888.2969 Q765.9063,888.75 764.6094,888.75 Q763.0938,888.75 761.8906,888.125 Q760.9063,887.625 760.2188,886.5625 Q759.5313,885.4844 759.5313,884.2031 L759.5313,883.0469 Q759.5313,881.7188 760.1406,880.5781 Q760.7656,879.4219 761.8594,878.8125 Q762.9531,878.1875 764.1875,878.1875 Q764.9219,878.1875 765.5625,878.3594 Q766.2188,878.5156 766.7656,878.875 Z " fill="#000000"/><text fill="#000000" font-family="sans-serif" font-size="14" lengthAdjust="spacing" textLength="142" x="778" y="888.7285">GreenSpaceController</text><line style="stroke:#181818;stroke-width:0.5;" x1="750" x2="922" y1="899" y2="899"/><line style="stroke:#181818;stroke-width:0.5;" x1="750" x2="922" y1="907" y2="907"/><text fill="#000000" font-family="sans-serif" font-size="14" lengthAdjust="spacing" textLength="125" x="755" y="925.5332">+getGreenSpaces()</text></g><!--class Mapper--><g id="elem_Mapper"><rect codeLine="50" fill="#F1F1F1" height="83.2188" id="Mapper" rx="2.5" ry="2.5" style="stroke:#181818;stroke-width:0.5;" width="171" x="697.5" y="553"/><ellipse cx="754.75" cy="569" fill="#ADD1B2" rx="11" ry="11" style="stroke:#181818;stroke-width:1.0;"/><path d="M757.5156,564.875 Q757.6719,564.6563 757.8594,564.5469 Q758.0469,564.4375 758.2656,564.4375 Q758.6406,564.4375 758.875,564.7031 Q759.1094,564.9531 759.1094,565.5625 L759.1094,567.0156 Q759.1094,567.625 758.875,567.8906 Q758.6406,568.1563 758.2656,568.1563 Q757.9219,568.1563 757.7188,567.9531 Q757.5156,567.7656 757.4063,567.25 Q757.3594,566.8906 757.1719,566.7031 Q756.8438,566.3281 756.2344,566.1094 Q755.625,565.8906 755,565.8906 Q754.2344,565.8906 753.5938,566.2188 Q752.9688,566.5469 752.4688,567.2969 Q751.9844,568.0469 751.9844,569.0781 L751.9844,570.1719 Q751.9844,571.4063 752.875,572.2344 Q753.7656,573.0469 755.3594,573.0469 Q756.2969,573.0469 756.9531,572.7969 Q757.3438,572.6406 757.7656,572.2031 Q758.0313,571.9375 758.1719,571.8594 Q758.3281,571.7813 758.5313,571.7813 Q758.8594,571.7813 759.1094,572.0469 Q759.375,572.2969 759.375,572.6406 Q759.375,572.9844 759.0313,573.3906 Q758.5313,573.9688 757.7344,574.2969 Q756.6563,574.75 755.3594,574.75 Q753.8438,574.75 752.6406,574.125 Q751.6563,573.625 750.9688,572.5625 Q750.2813,571.4844 750.2813,570.2031 L750.2813,569.0469 Q750.2813,567.7188 750.8906,566.5781 Q751.5156,565.4219 752.6094,564.8125 Q753.7031,564.1875 754.9375,564.1875 Q755.6719,564.1875 756.3125,564.3594 Q756.9688,564.5156 757.5156,564.875 Z " fill="#000000"/><text fill="#000000" font-family="sans-serif" font-size="14" lengthAdjust="spacing" textLength="48" x="775.25" y="574.7285">Mapper</text><line style="stroke:#181818;stroke-width:0.5;" x1="698.5" x2="867.5" y1="585" y2="585"/><line style="stroke:#181818;stroke-width:0.5;" x1="698.5" x2="867.5" y1="593" y2="593"/><text fill="#000000" font-family="sans-serif" font-size="14" lengthAdjust="spacing" textLength="144" x="703.5" y="611.5332">+toDTO(greenSpaces)</text><text fill="#000000" font-family="sans-serif" font-size="14" lengthAdjust="spacing" textLength="159" x="703.5" y="629.1426">+toDomain(taskEntryDto)</text></g><!--class GreenSpaceDTO--><g id="elem_GreenSpaceDTO"><rect codeLine="55" fill="#F1F1F1" height="65.6094" id="GreenSpaceDTO" rx="2.5" ry="2.5" style="stroke:#181818;stroke-width:0.5;" width="147" x="846.5" y="723"/><ellipse cx="863.75" cy="739" fill="#ADD1B2" rx="11" ry="11" style="stroke:#181818;stroke-width:1.0;"/><path d="M866.5156,734.875 Q866.6719,734.6563 866.8594,734.5469 Q867.0469,734.4375 867.2656,734.4375 Q867.6406,734.4375 867.875,734.7031 Q868.1094,734.9531 868.1094,735.5625 L868.1094,737.0156 Q868.1094,737.625 867.875,737.8906 Q867.6406,738.1563 867.2656,738.1563 Q866.9219,738.1563 866.7188,737.9531 Q866.5156,737.7656 866.4063,737.25 Q866.3594,736.8906 866.1719,736.7031 Q865.8438,736.3281 865.2344,736.1094 Q864.625,735.8906 864,735.8906 Q863.2344,735.8906 862.5938,736.2188 Q861.9688,736.5469 861.4688,737.2969 Q860.9844,738.0469 860.9844,739.0781 L860.9844,740.1719 Q860.9844,741.4063 861.875,742.2344 Q862.7656,743.0469 864.3594,743.0469 Q865.2969,743.0469 865.9531,742.7969 Q866.3438,742.6406 866.7656,742.2031 Q867.0313,741.9375 867.1719,741.8594 Q867.3281,741.7813 867.5313,741.7813 Q867.8594,741.7813 868.1094,742.0469 Q868.375,742.2969 868.375,742.6406 Q868.375,742.9844 868.0313,743.3906 Q867.5313,743.9688 866.7344,744.2969 Q865.6563,744.75 864.3594,744.75 Q862.8438,744.75 861.6406,744.125 Q860.6563,743.625 859.9688,742.5625 Q859.2813,741.4844 859.2813,740.2031 L859.2813,739.0469 Q859.2813,737.7188 859.8906,736.5781 Q860.5156,735.4219 861.6094,734.8125 Q862.7031,734.1875 863.9375,734.1875 Q864.6719,734.1875 865.3125,734.3594 Q865.9688,734.5156 866.5156,734.875 Z " fill="#000000"/><text fill="#000000" font-family="sans-serif" font-size="14" lengthAdjust="spacing" textLength="110" x="878.25" y="744.7285">GreenSpaceDTO</text><line style="stroke:#181818;stroke-width:0.5;" x1="847.5" x2="992.5" y1="755" y2="755"/><line style="stroke:#181818;stroke-width:0.5;" x1="847.5" x2="992.5" y1="763" y2="763"/><text fill="#000000" font-family="sans-serif" font-size="14" lengthAdjust="spacing" textLength="135" x="852.5" y="781.5332">+create(greenSpace)</text></g><!--class TaskEntryDTO--><g id="elem_TaskEntryDTO"><rect codeLine="59" fill="#F1F1F1" height="65.6094" id="TaskEntryDTO" rx="2.5" ry="2.5" style="stroke:#181818;stroke-width:0.5;" width="505" x="608.5" y="356"/><ellipse cx="809.75" cy="372" fill="#ADD1B2" rx="11" ry="11" style="stroke:#181818;stroke-width:1.0;"/><path d="M812.5156,367.875 Q812.6719,367.6563 812.8594,367.5469 Q813.0469,367.4375 813.2656,367.4375 Q813.6406,367.4375 813.875,367.7031 Q814.1094,367.9531 814.1094,368.5625 L814.1094,370.0156 Q814.1094,370.625 813.875,370.8906 Q813.6406,371.1563 813.2656,371.1563 Q812.9219,371.1563 812.7188,370.9531 Q812.5156,370.7656 812.4063,370.25 Q812.3594,369.8906 812.1719,369.7031 Q811.8438,369.3281 811.2344,369.1094 Q810.625,368.8906 810,368.8906 Q809.2344,368.8906 808.5938,369.2188 Q807.9688,369.5469 807.4688,370.2969 Q806.9844,371.0469 806.9844,372.0781 L806.9844,373.1719 Q806.9844,374.4063 807.875,375.2344 Q808.7656,376.0469 810.3594,376.0469 Q811.2969,376.0469 811.9531,375.7969 Q812.3438,375.6406 812.7656,375.2031 Q813.0313,374.9375 813.1719,374.8594 Q813.3281,374.7813 813.5313,374.7813 Q813.8594,374.7813 814.1094,375.0469 Q814.375,375.2969 814.375,375.6406 Q814.375,375.9844 814.0313,376.3906 Q813.5313,376.9688 812.7344,377.2969 Q811.6563,377.75 810.3594,377.75 Q808.8438,377.75 807.6406,377.125 Q806.6563,376.625 805.9688,375.5625 Q805.2813,374.4844 805.2813,373.2031 L805.2813,372.0469 Q805.2813,370.7188 805.8906,369.5781 Q806.5156,368.4219 807.6094,367.8125 Q808.7031,367.1875 809.9375,367.1875 Q810.6719,367.1875 811.3125,367.3594 Q811.9688,367.5156 812.5156,367.875 Z " fill="#000000"/><text fill="#000000" font-family="sans-serif" font-size="14" lengthAdjust="spacing" textLength="94" x="830.25" y="377.7285">TaskEntryDTO</text><line style="stroke:#181818;stroke-width:0.5;" x1="609.5" x2="1112.5" y1="388" y2="388"/><line style="stroke:#181818;stroke-width:0.5;" x1="609.5" x2="1112.5" y1="396" y2="396"/><text fill="#000000" font-family="sans-serif" font-size="14" lengthAdjust="spacing" textLength="493" x="614.5" y="414.5332">+create(title, description, urgencyLevel, expectedDuration, state, greenSpace)</text></g><!--link AssignTaskToAgendaController to ToDoListRepository--><g id="link_AssignTaskToAgendaController_ToDoListRepository"><path codeLine="67" d="M375.99,234.07 C303.42,271.04 223,312 223,312 C223,312 183,514 183,514 C183,514 178.43,525 172.7,538.82 " fill="none" id="AssignTaskToAgendaController-to-ToDoListRepository" style="stroke:#181818;stroke-width:1.0;stroke-dasharray:7.0,7.0;"/><polygon fill="#181818" points="170.71,543.6,177.8638,536.8308,172.6331,538.9846,170.4792,533.7538,170.71,543.6" style="stroke:#181818;stroke-width:1.0;"/><text fill="#000000" font-family="sans-serif" font-size="13" lengthAdjust="spacing" textLength="110" x="224" y="394.4951">toDoListRepository</text></g><!--link AssignTaskToAgendaController to AgendaRepository--><g id="link_AssignTaskToAgendaController_AgendaRepository"><path codeLine="68" d="M445.68,234.21 C433.22,250.57 423,264 423,264 C423,264 423,282 423,282 C423,282 424.44,320.17 425.59,350.7 " fill="none" id="AssignTaskToAgendaController-to-AgendaRepository" style="stroke:#181818;stroke-width:1.0;stroke-dasharray:7.0,7.0;"/><polygon fill="#181818" points="425.79,355.91,429.4532,346.7677,425.6044,350.9134,421.4587,347.0647,425.79,355.91" style="stroke:#181818;stroke-width:1.0;"/><text fill="#000000" font-family="sans-serif" font-size="13" lengthAdjust="spacing" textLength="104" x="424" y="278.4951">agendaRepository</text></g><!--link AssignTaskToAgendaController to TaskEntry--><g id="link_AssignTaskToAgendaController_TaskEntry"><path codeLine="70" d="M266.9,234.08 C203.83,250.51 152,264 152,264 C152,264 139.11,283.74 123.61,307.47 " fill="none" id="AssignTaskToAgendaController-to-TaskEntry" style="stroke:#181818;stroke-width:1.0;stroke-dasharray:7.0,7.0;"/><polygon fill="#181818" points="120.68,311.94,128.9457,306.5849,123.4105,307.7514,122.2439,302.2161,120.68,311.94" style="stroke:#181818;stroke-width:1.0;"/><text fill="#000000" font-family="sans-serif" font-size="13" lengthAdjust="spacing" textLength="25" x="153" y="278.4951">task</text></g><!--link TaskEntry to ToDoListRepository--><g id="link_TaskEntry_ToDoListRepository"><path codeLine="71" d="M97.99,466.06 C107.1,491.73 115,514 115,514 C115,514 119.84,525 125.93,538.82 " fill="none" id="TaskEntry-to-ToDoListRepository" style="stroke:#181818;stroke-width:1.0;stroke-dasharray:7.0,7.0;"/><polygon fill="#181818" points="128.03,543.6,128.0615,533.7512,126.0139,539.0245,120.7406,536.9769,128.03,543.6" style="stroke:#181818;stroke-width:1.0;"/><polygon fill="#000000" points="121.7924,509.8435,121.2935,500.346,115.8063,502.4531,121.7924,509.8435" style="stroke:#000000;stroke-width:1.0;"/><text fill="#000000" font-family="sans-serif" font-size="13" lengthAdjust="spacing" textLength="49" x="129" y="510.4951">exists in</text></g><!--link AssignTaskToAgendaUI to AssignTaskToAgendaController--><g id="link_AssignTaskToAgendaUI_AssignTaskToAgendaController"><path codeLine="72" d="M490,55.13 C490,70.35 490,91.05 490,110.92 " fill="none" id="AssignTaskToAgendaUI-to-AssignTaskToAgendaController" style="stroke:#181818;stroke-width:1.0;stroke-dasharray:7.0,7.0;"/><polygon fill="#181818" points="490,115.94,494,106.94,490,110.94,486,106.94,490,115.94" style="stroke:#181818;stroke-width:1.0;"/></g><!--link AssignTaskToAgendaController to Repositories--><g id="link_AssignTaskToAgendaController_Repositories"><path codeLine="75" d="M518.44,234.21 C526.44,250.57 533,264 533,264 C533,264 555,388 555,388 C555,388 555,388 555,901 C555,901 662.27,961.89 744.25,1008.42 " fill="none" id="AssignTaskToAgendaController-to-Repositories" style="stroke:#181818;stroke-width:1.0;stroke-dasharray:7.0,7.0;"/><polygon fill="#181818" points="748.63,1010.91,742.7863,1002.9821,744.2844,1008.437,738.8295,1009.9351,748.63,1010.91" style="stroke:#181818;stroke-width:1.0;"/><text fill="#000000" font-family="sans-serif" font-size="13" lengthAdjust="spacing" textLength="67" x="556" y="689.4951">repositories</text></g><!--link GreenSpaceController to Repositories--><g id="link_GreenSpaceController_Repositories"><path codeLine="77" d="M836,933.28 C836,954.1 836,981.71 836,1005.88 " fill="none" id="GreenSpaceController-to-Repositories" style="stroke:#181818;stroke-width:1.0;stroke-dasharray:7.0,7.0;"/><polygon fill="#181818" points="836,1010.99,840,1001.99,836,1005.99,832,1001.99,836,1010.99" style="stroke:#181818;stroke-width:1.0;"/><text fill="#000000" font-family="sans-serif" font-size="13" lengthAdjust="spacing" textLength="67" x="837" y="977.4951">repositories</text></g><!--link Mapper to Repositories--><g id="link_Mapper_Repositories"><path codeLine="79" d="M762.77,636.23 C730.75,700.7 672,819 672,819 C672,819 672,837 672,837 C672,837 731,933 731,933 C731,933 762.97,971.82 791.63,1006.62 " fill="none" id="Mapper-to-Repositories" style="stroke:#181818;stroke-width:1.0;stroke-dasharray:7.0,7.0;"/><polygon fill="#181818" points="795.1,1010.84,792.491,1001.343,791.9315,1006.9721,786.3024,1006.4126,795.1,1010.84" style="stroke:#181818;stroke-width:1.0;"/><text fill="#000000" font-family="sans-serif" font-size="13" lengthAdjust="spacing" textLength="67" x="673" y="833.4951">repositories</text></g><!--link GreenSpaceDTO to Repositories--><g id="link_GreenSpaceDTO_Repositories"><path codeLine="80" d="M959.34,789.09 C977.88,804.22 996,819 996,819 C996,819 996,837 996,837 C996,837 941,933 941,933 C941,933 913,981 913,981 C913,981 901.78,992.58 887.91,1006.91 " fill="none" id="GreenSpaceDTO-to-Repositories" style="stroke:#181818;stroke-width:1.0;stroke-dasharray:7.0,7.0;"/><polygon fill="#181818" points="884.33,1010.6,893.4715,1006.9348,887.8152,1007.0148,887.7352,1001.3585,884.33,1010.6" style="stroke:#181818;stroke-width:1.0;"/><text fill="#000000" font-family="sans-serif" font-size="13" lengthAdjust="spacing" textLength="67" x="979" y="905.4951">repositories</text></g><!--link TaskEntryDTO to Repositories--><g id="link_TaskEntryDTO_Repositories"><path codeLine="81" d="M908.68,422.02 C994.01,479.33 1164,593.5 1164,593.5 C1164,593.5 1164,593.5 1164,901 C1164,901 1025.49,968.36 928.49,1015.53 " fill="none" id="TaskEntryDTO-to-Repositories" style="stroke:#181818;stroke-width:1.0;stroke-dasharray:7.0,7.0;"/><polygon fill="#181818" points="923.9,1017.76,933.7428,1017.4136,928.3948,1015.5699,930.2385,1010.2219,923.9,1017.76" style="stroke:#181818;stroke-width:1.0;"/><text fill="#000000" font-family="sans-serif" font-size="13" lengthAdjust="spacing" textLength="67" x="1165" y="761.4951">repositories</text></g><!--link GreenSpaceController to GreenSpaceDTO--><g id="link_GreenSpaceController_GreenSpaceDTO"><path codeLine="83" d="M860.33,866.91 C871.79,851.78 883,837 883,837 C883,837 893.26,814.82 902.97,793.81 " fill="none" id="GreenSpaceController-to-GreenSpaceDTO" style="stroke:#181818;stroke-width:1.0;stroke-dasharray:7.0,7.0;"/><polygon fill="#181818" points="905.16,789.08,897.745,795.5621,903.0565,793.616,905.0026,798.9276,905.16,789.08" style="stroke:#181818;stroke-width:1.0;"/><text fill="#000000" font-family="sans-serif" font-size="13" lengthAdjust="spacing" textLength="95" x="892" y="833.4951">greenSpaceDTO</text></g><!--link GreenSpaceDTO to GreenSpaceController--><g id="link_GreenSpaceDTO_GreenSpaceController"><path codeLine="84" d="M846.49,783.65 C800.14,800.46 749,819 749,819 C749,819 749,837 749,837 C749,837 766.93,849.78 786.51,863.73 " fill="none" id="GreenSpaceDTO-to-GreenSpaceController" style="stroke:#181818;stroke-width:1.0;stroke-dasharray:7.0,7.0;"/><polygon fill="#181818" points="790.97,866.91,785.9601,858.4306,786.8975,864.0092,781.3188,864.9466,790.97,866.91" style="stroke:#181818;stroke-width:1.0;"/><text fill="#000000" font-family="sans-serif" font-size="13" lengthAdjust="spacing" textLength="124" x="750" y="833.4951">greenSpaceController</text></g><!--link Mapper to GreenSpaceDTO--><g id="link_Mapper_GreenSpaceDTO"><path codeLine="86" d="M781.46,636.18 C780.73,655.74 780,675 780,675 C780,675 780,693 780,693 C780,693 810.32,706.43 842.74,720.79 " fill="none" id="Mapper-to-GreenSpaceDTO" style="stroke:#181818;stroke-width:1.0;stroke-dasharray:7.0,7.0;"/><polygon fill="#181818" points="847.54,722.91,840.936,715.6033,842.9698,720.882,837.6911,722.9157,847.54,722.91" style="stroke:#181818;stroke-width:1.0;"/><text fill="#000000" font-family="sans-serif" font-size="13" lengthAdjust="spacing" textLength="95" x="781" y="689.4951">greenSpaceDTO</text></g><!--link GreenSpaceDTO to Mapper--><g id="link_GreenSpaceDTO_Mapper"><path codeLine="87" d="M904.36,722.92 C893.51,700.67 881,675 881,675 C881,675 859.79,657.79 837.1,639.38 " fill="none" id="GreenSpaceDTO-to-Mapper" style="stroke:#181818;stroke-width:1.0;stroke-dasharray:7.0,7.0;"/><polygon fill="#181818" points="833.15,636.18,837.6321,644.9499,837.0376,639.3243,842.6631,638.7298,833.15,636.18" style="stroke:#181818;stroke-width:1.0;"/><text fill="#000000" font-family="sans-serif" font-size="13" lengthAdjust="spacing" textLength="43" x="891" y="689.4951">mapper</text></g><!--link Mapper to TaskEntryDTO--><g id="link_Mapper_TaskEntryDTO"><path codeLine="89" d="M805,552.82 C815.58,533.26 826,514 826,514 C826,514 840.22,463.62 850.53,427.09 " fill="none" id="Mapper-to-TaskEntryDTO" style="stroke:#181818;stroke-width:1.0;stroke-dasharray:7.0,7.0;"/><polygon fill="#181818" points="851.9,422.26,845.6081,429.8371,850.5434,427.0724,853.308,432.0077,851.9,422.26" style="stroke:#181818;stroke-width:1.0;"/><text fill="#000000" font-family="sans-serif" font-size="13" lengthAdjust="spacing" textLength="85" x="833" y="510.4951">TaskEntryDTO</text></g><!--link TaskEntryDTO to Mapper--><g id="link_TaskEntryDTO_Mapper"><path codeLine="90" d="M834.36,422.09 C808.46,453.29 773,496 773,496 C773,496 773,514 773,514 C773,514 775.02,530.09 777.25,547.79 " fill="none" id="TaskEntryDTO-to-Mapper" style="stroke:#181818;stroke-width:1.0;stroke-dasharray:7.0,7.0;"/><polygon fill="#181818" points="777.88,552.82,780.7195,543.3893,777.2528,547.8595,772.7827,544.3928,777.88,552.82" style="stroke:#181818;stroke-width:1.0;"/><text fill="#000000" font-family="sans-serif" font-size="13" lengthAdjust="spacing" textLength="43" x="774" y="510.4951">mapper</text></g><!--link AssignTaskToAgendaController to TaskEntryDTO--><g id="link_AssignTaskToAgendaController_TaskEntryDTO"><path codeLine="92" d="M591.87,234.21 C658.77,272.44 744.03,321.16 800.45,353.4 " fill="none" id="AssignTaskToAgendaController-to-TaskEntryDTO" style="stroke:#181818;stroke-width:1.0;stroke-dasharray:7.0,7.0;"/><polygon fill="#181818" points="804.8,355.89,798.976,347.9477,800.4605,353.4062,795.002,354.8908,804.8,355.89" style="stroke:#181818;stroke-width:1.0;"/><text fill="#000000" font-family="sans-serif" font-size="13" lengthAdjust="spacing" textLength="85" x="677" y="278.4951">TaskEntryDTO</text></g><!--link TaskEntryDTO to AssignTaskToAgendaController--><g id="link_TaskEntryDTO_AssignTaskToAgendaController"><path codeLine="93" d="M837.59,355.74 C810.92,319 771,264 771,264 C771,264 730.56,251.34 680.36,235.61 " fill="none" id="TaskEntryDTO-to-AssignTaskToAgendaController" style="stroke:#181818;stroke-width:1.0;stroke-dasharray:7.0,7.0;"/><polygon fill="#181818" points="675.47,234.08,682.8561,240.595,680.2399,235.5795,685.2553,232.9632,675.47,234.08" style="stroke:#181818;stroke-width:1.0;"/><text fill="#000000" font-family="sans-serif" font-size="13" lengthAdjust="spacing" textLength="181" x="786" y="278.4951">AssignTaskToAgendaController</text></g><!--SRC=[fLFRZjCm47ttLupwigt8hdZEmqeLHQZI8YHQFi0airchYHtPKzY0zjzntCPsBZH1-CcUovapupDtvYHapJMle59IPIzQLGYapyY2f-RPYHTueAP4q9WHbqKP1vWNdgkVGXRmp4iJUqeXaPeQeLPbqpxOtOHJQL8ioifARioMI8llPy9zfkH1_49upvZpmEh8pUcZ9Dsiu3U3wxadGPQMV-PeCYrg4ae6uraNABFc2NzW6QpuMjksCD-TDU_76-8KOHOQKHxiG92nDyOyeQqnef0jhQFQsWev_w0iFrMMg3kEzt1KE_Ka37t5MXb1IZUG0esCBleTtC9SZxCIxcA2ONF5oJJQ7bgSDRLWxPGIQAzTkmda_dOT49JjX3e8dkSkDyajKaAYmatRVlSR8ow-PRI41Pe0ut_EuRbR2jxOrIkGvWBV_EW7RQziwJd6uz5-szky4E3XBFck6KThBwqYP8RhcEge_yvhdKDwwvZ79o-diLmST0WmlSJFlAxZK2k7uvTrKAVP18Ugk91XYZjIqnGiGW2yY2P2x7sunvf8eOk-ektped9Rby1msn9mMvR0e5fxRYq1F3myBjwfMQ2na2pGSAUM4Eg6q_AmTnOCV-MBhzPYG4XuP5FQT9ctAY-PLAnfMrD7JyQcb3YVTP7XR5nFOxFHiRh-WtY_Q1g9oxudA4q2nMdnjAF6_xNEDJM5obrwMBtMqzvpF9OHq79fBe6_YPRULkCV]--></g></svg>