<?xml version="1.0" encoding="UTF-8" standalone="no"?><svg xmlns="http://www.w3.org/2000/svg" xmlns:xlink="http://www.w3.org/1999/xlink" contentStyleType="text/css" height="473px" preserveAspectRatio="none" style="width:365px;height:473px;background:#FFFFFF;" version="1.1" viewBox="0 0 365 473" width="365px" zoomAndPan="magnify"><defs/><g><text fill="#000000" font-family="sans-serif" font-size="14" font-weight="bold" lengthAdjust="spacing" textLength="337" x="10" y="29.5332">System Sequence Diagram (SSD) - Main Solution</text><rect fill="#FFFFFF" height="215.8125" style="stroke:#181818;stroke-width:1.0;" width="10" x="36" y="148.8281"/><rect fill="#FFFFFF" height="46.7031" style="stroke:#181818;stroke-width:1.0;" width="10" x="311" y="171.1797"/><rect fill="#FFFFFF" height="30.3516" style="stroke:#181818;stroke-width:1.0;" width="10" x="311" y="248.2344"/><rect fill="#FFFFFF" height="46.7031" style="stroke:#181818;stroke-width:1.0;" width="10" x="311" y="308.9375"/><line style="stroke:#181818;stroke-width:0.5;stroke-dasharray:5.0,5.0;" x1="41" x2="41" y1="138.8281" y2="373.6406"/><line style="stroke:#181818;stroke-width:0.5;stroke-dasharray:5.0,5.0;" x1="316" x2="316" y1="138.8281" y2="373.6406"/><text fill="#000000" font-family="sans-serif" font-size="14" lengthAdjust="spacing" textLength="32" x="22" y="118.1426">Fleet</text><text fill="#000000" font-family="sans-serif" font-size="14" lengthAdjust="spacing" textLength="56" x="10" y="135.752">Manager</text><ellipse cx="41" cy="52.1094" fill="#E3E3E3" rx="8" ry="8" style="stroke:#181818;stroke-width:0.5;"/><path d="M41,60.1094 L41,87.1094 M28,68.1094 L54,68.1094 M41,87.1094 L28,102.1094 M41,87.1094 L54,102.1094 " fill="none" style="stroke:#181818;stroke-width:0.5;"/><text fill="#000000" font-family="sans-serif" font-size="14" lengthAdjust="spacing" textLength="32" x="22" y="387.1738">Fleet</text><text fill="#000000" font-family="sans-serif" font-size="14" lengthAdjust="spacing" textLength="56" x="10" y="404.7832">Manager</text><ellipse cx="41" cy="416.3594" fill="#E3E3E3" rx="8" ry="8" style="stroke:#181818;stroke-width:0.5;"/><path d="M41,424.3594 L41,451.3594 M28,432.3594 L54,432.3594 M41,451.3594 L28,466.3594 M41,451.3594 L54,466.3594 " fill="none" style="stroke:#181818;stroke-width:0.5;"/><rect fill="#E3E3E3" height="31.6094" rx="2.5" ry="2.5" style="stroke:#181818;stroke-width:0.5;" width="64" x="284" y="106.2188"/><text fill="#000000" font-family="sans-serif" font-size="14" lengthAdjust="spacing" textLength="50" x="291" y="127.752">:System</text><rect fill="#E3E3E3" height="31.6094" rx="2.5" ry="2.5" style="stroke:#181818;stroke-width:0.5;" width="64" x="284" y="372.6406"/><text fill="#000000" font-family="sans-serif" font-size="14" lengthAdjust="spacing" textLength="50" x="291" y="394.1738">:System</text><rect fill="#FFFFFF" height="215.8125" style="stroke:#181818;stroke-width:1.0;" width="10" x="36" y="148.8281"/><rect fill="#FFFFFF" height="46.7031" style="stroke:#181818;stroke-width:1.0;" width="10" x="311" y="171.1797"/><rect fill="#FFFFFF" height="30.3516" style="stroke:#181818;stroke-width:1.0;" width="10" x="311" y="248.2344"/><rect fill="#FFFFFF" height="46.7031" style="stroke:#181818;stroke-width:1.0;" width="10" x="311" y="308.9375"/><polygon fill="#181818" points="299,167.1797,309,171.1797,299,175.1797,303,171.1797" style="stroke:#181818;stroke-width:1.0;"/><line style="stroke:#181818;stroke-width:1.0;" x1="46" x2="305" y1="171.1797" y2="171.1797"/><text fill="#000000" font-family="sans-serif" font-size="13" font-weight="bold" lengthAdjust="spacing" textLength="7" x="53" y="166.3232">1</text><text fill="#000000" font-family="sans-serif" font-size="13" lengthAdjust="spacing" textLength="185" x="64" y="166.3232">begins vehicle check-up registry</text><polygon fill="#181818" points="57,213.8828,47,217.8828,57,221.8828,53,217.8828" style="stroke:#181818;stroke-width:1.0;"/><line style="stroke:#181818;stroke-width:1.0;stroke-dasharray:2.0,2.0;" x1="51" x2="315" y1="217.8828" y2="217.8828"/><text fill="#000000" font-family="sans-serif" font-size="13" font-weight="bold" lengthAdjust="spacing" textLength="7" x="63" y="204.8506">2</text><text fill="#000000" font-family="sans-serif" font-size="13" lengthAdjust="spacing" textLength="225" x="74" y="196.6748">requests data (i.e.  plate number, date,</text><text fill="#000000" font-family="sans-serif" font-size="13" lengthAdjust="spacing" textLength="66" x="74" y="213.0264">current km)</text><polygon fill="#181818" points="299,244.2344,309,248.2344,299,252.2344,303,248.2344" style="stroke:#181818;stroke-width:1.0;"/><line style="stroke:#181818;stroke-width:1.0;" x1="46" x2="305" y1="248.2344" y2="248.2344"/><text fill="#000000" font-family="sans-serif" font-size="13" font-weight="bold" lengthAdjust="spacing" textLength="7" x="53" y="243.3779">3</text><text fill="#000000" font-family="sans-serif" font-size="13" lengthAdjust="spacing" textLength="125" x="64" y="243.3779">inputs requested data</text><polygon fill="#181818" points="57,274.5859,47,278.5859,57,282.5859,53,278.5859" style="stroke:#181818;stroke-width:1.0;"/><line style="stroke:#181818;stroke-width:1.0;stroke-dasharray:2.0,2.0;" x1="51" x2="315" y1="278.5859" y2="278.5859"/><text fill="#000000" font-family="sans-serif" font-size="13" font-weight="bold" lengthAdjust="spacing" textLength="7" x="63" y="273.7295">4</text><text fill="#000000" font-family="sans-serif" font-size="13" lengthAdjust="spacing" textLength="230" x="74" y="273.7295">displays data and requests confirmation</text><polygon fill="#181818" points="299,304.9375,309,308.9375,299,312.9375,303,308.9375" style="stroke:#181818;stroke-width:1.0;"/><line style="stroke:#181818;stroke-width:1.0;" x1="46" x2="305" y1="308.9375" y2="308.9375"/><text fill="#000000" font-family="sans-serif" font-size="13" font-weight="bold" lengthAdjust="spacing" textLength="7" x="53" y="304.0811">5</text><text fill="#000000" font-family="sans-serif" font-size="13" lengthAdjust="spacing" textLength="109" x="64" y="304.0811">inputs confirmation</text><polygon fill="#181818" points="57,351.6406,47,355.6406,57,359.6406,53,355.6406" style="stroke:#181818;stroke-width:1.0;"/><line style="stroke:#181818;stroke-width:1.0;stroke-dasharray:2.0,2.0;" x1="51" x2="315" y1="355.6406" y2="355.6406"/><text fill="#000000" font-family="sans-serif" font-size="13" font-weight="bold" lengthAdjust="spacing" textLength="7" x="63" y="342.6084">6</text><text fill="#000000" font-family="sans-serif" font-size="13" lengthAdjust="spacing" textLength="211" x="74" y="334.4326">processes input, registers check-up,</text><text fill="#000000" font-family="sans-serif" font-size="13" lengthAdjust="spacing" textLength="183" x="74" y="350.7842">and displays operation success</text><!--SRC=[dP6_Si8m3CRtF8ME2Uw01s3eHBinPMKHZaXyYMNNakdbxUly8VIkT2YUx9FqVR_FajPom8WEd6TlckWTWSP4XIoLWAR5cahjEu98Hf7hxcU3D5ZvByirNB4JAWgrcblBNfGSbFIPY0t1qM8zjA_ByhY17PpGCfI-Isez5mKczPpSXMA-6_KHLXyTaPxvX9pzumfGuDs5plT4HRPMQsn0LbWT9g-nOxgE6lQ6Ie-H0lAvls3tTYSym8Lgom8tQgp9vAOXq-vIo6bhAnhxSN8Hl3l0V6QPNLPSr0zvDkSM5QXG4TPsJtk0q0q2KypjKA7jcKsAaNACrcr6pOgUMZqbppj8sMCsesfqUmMtifBX-XaNkNe4C9wlDZeSz_GYu2-DV-A5w0s9a4o2star56NPLlx90Ni9uWF5qGyacM7u3_Pl]--></g></svg>