<?xml version="1.0" encoding="UTF-8" standalone="no"?><svg xmlns="http://www.w3.org/2000/svg" xmlns:xlink="http://www.w3.org/1999/xlink" contentStyleType="text/css" height="659px" preserveAspectRatio="none" style="width:1105px;height:659px;background:#FFFFFF;" version="1.1" viewBox="0 0 1105 659" width="1105px" zoomAndPan="magnify"><defs/><g><!--class GenerateMaintenanceReportUI--><g id="elem_GenerateMaintenanceReportUI"><rect codeLine="11" fill="#F1F1F1" height="48" id="GenerateMaintenanceReportUI" rx="2.5" ry="2.5" style="stroke:#181818;stroke-width:0.5;" width="228" x="7" y="33.5"/><ellipse cx="22" cy="49.5" fill="#ADD1B2" rx="11" ry="11" style="stroke:#181818;stroke-width:1.0;"/><path d="M24.7656,45.375 Q24.9219,45.1563 25.1094,45.0469 Q25.2969,44.9375 25.5156,44.9375 Q25.8906,44.9375 26.125,45.2031 Q26.3594,45.4531 26.3594,46.0625 L26.3594,47.5156 Q26.3594,48.125 26.125,48.3906 Q25.8906,48.6563 25.5156,48.6563 Q25.1719,48.6563 24.9688,48.4531 Q24.7656,48.2656 24.6563,47.75 Q24.6094,47.3906 24.4219,47.2031 Q24.0938,46.8281 23.4844,46.6094 Q22.875,46.3906 22.25,46.3906 Q21.4844,46.3906 20.8438,46.7188 Q20.2188,47.0469 19.7188,47.7969 Q19.2344,48.5469 19.2344,49.5781 L19.2344,50.6719 Q19.2344,51.9063 20.125,52.7344 Q21.0156,53.5469 22.6094,53.5469 Q23.5469,53.5469 24.2031,53.2969 Q24.5938,53.1406 25.0156,52.7031 Q25.2813,52.4375 25.4219,52.3594 Q25.5781,52.2813 25.7813,52.2813 Q26.1094,52.2813 26.3594,52.5469 Q26.625,52.7969 26.625,53.1406 Q26.625,53.4844 26.2813,53.8906 Q25.7813,54.4688 24.9844,54.7969 Q23.9063,55.25 22.6094,55.25 Q21.0938,55.25 19.8906,54.625 Q18.9063,54.125 18.2188,53.0625 Q17.5313,51.9844 17.5313,50.7031 L17.5313,49.5469 Q17.5313,48.2188 18.1406,47.0781 Q18.7656,45.9219 19.8594,45.3125 Q20.9531,44.6875 22.1875,44.6875 Q22.9219,44.6875 23.5625,44.8594 Q24.2188,45.0156 24.7656,45.375 Z " fill="#000000"/><text fill="#000000" font-family="sans-serif" font-size="14" lengthAdjust="spacing" textLength="196" x="36" y="55.2285">GenerateMaintenanceReportUI</text><line style="stroke:#181818;stroke-width:0.5;" x1="8" x2="234" y1="65.5" y2="65.5"/><line style="stroke:#181818;stroke-width:0.5;" x1="8" x2="234" y1="73.5" y2="73.5"/></g><!--class GenerateMaintenanceReportController--><g id="elem_GenerateMaintenanceReportController"><rect codeLine="15" fill="#F1F1F1" height="83.2188" id="GenerateMaintenanceReportController" rx="2.5" ry="2.5" style="stroke:#181818;stroke-width:0.5;" width="373" x="270.5" y="16"/><ellipse cx="329.75" cy="32" fill="#ADD1B2" rx="11" ry="11" style="stroke:#181818;stroke-width:1.0;"/><path d="M332.5156,27.875 Q332.6719,27.6563 332.8594,27.5469 Q333.0469,27.4375 333.2656,27.4375 Q333.6406,27.4375 333.875,27.7031 Q334.1094,27.9531 334.1094,28.5625 L334.1094,30.0156 Q334.1094,30.625 333.875,30.8906 Q333.6406,31.1563 333.2656,31.1563 Q332.9219,31.1563 332.7188,30.9531 Q332.5156,30.7656 332.4063,30.25 Q332.3594,29.8906 332.1719,29.7031 Q331.8438,29.3281 331.2344,29.1094 Q330.625,28.8906 330,28.8906 Q329.2344,28.8906 328.5938,29.2188 Q327.9688,29.5469 327.4688,30.2969 Q326.9844,31.0469 326.9844,32.0781 L326.9844,33.1719 Q326.9844,34.4063 327.875,35.2344 Q328.7656,36.0469 330.3594,36.0469 Q331.2969,36.0469 331.9531,35.7969 Q332.3438,35.6406 332.7656,35.2031 Q333.0313,34.9375 333.1719,34.8594 Q333.3281,34.7813 333.5313,34.7813 Q333.8594,34.7813 334.1094,35.0469 Q334.375,35.2969 334.375,35.6406 Q334.375,35.9844 334.0313,36.3906 Q333.5313,36.9688 332.7344,37.2969 Q331.6563,37.75 330.3594,37.75 Q328.8438,37.75 327.6406,37.125 Q326.6563,36.625 325.9688,35.5625 Q325.2813,34.4844 325.2813,33.2031 L325.2813,32.0469 Q325.2813,30.7188 325.8906,29.5781 Q326.5156,28.4219 327.6094,27.8125 Q328.7031,27.1875 329.9375,27.1875 Q330.6719,27.1875 331.3125,27.3594 Q331.9688,27.5156 332.5156,27.875 Z " fill="#000000"/><text fill="#000000" font-family="sans-serif" font-size="14" lengthAdjust="spacing" textLength="246" x="350.25" y="37.7285">GenerateMaintenanceReportController</text><line style="stroke:#181818;stroke-width:0.5;" x1="271.5" x2="642.5" y1="48" y2="48"/><line style="stroke:#181818;stroke-width:0.5;" x1="271.5" x2="642.5" y1="56" y2="56"/><text fill="#000000" font-family="sans-serif" font-size="14" lengthAdjust="spacing" textLength="361" x="276.5" y="74.5332">+CreateMaintenanceReportController(VehicleRepository)</text><text fill="#000000" font-family="sans-serif" font-size="14" lengthAdjust="spacing" textLength="199" x="276.5" y="92.1426">+generateMaintenanceReport()</text></g><!--class Repositories--><g id="elem_Repositories"><rect codeLine="20" fill="#F1F1F1" height="100.8281" id="Repositories" rx="2.5" ry="2.5" style="stroke:#181818;stroke-width:0.5;" width="255" x="747.5" y="7"/><ellipse cx="831.25" cy="23" fill="#ADD1B2" rx="11" ry="11" style="stroke:#181818;stroke-width:1.0;"/><path d="M834.0156,18.875 Q834.1719,18.6563 834.3594,18.5469 Q834.5469,18.4375 834.7656,18.4375 Q835.1406,18.4375 835.375,18.7031 Q835.6094,18.9531 835.6094,19.5625 L835.6094,21.0156 Q835.6094,21.625 835.375,21.8906 Q835.1406,22.1563 834.7656,22.1563 Q834.4219,22.1563 834.2188,21.9531 Q834.0156,21.7656 833.9063,21.25 Q833.8594,20.8906 833.6719,20.7031 Q833.3438,20.3281 832.7344,20.1094 Q832.125,19.8906 831.5,19.8906 Q830.7344,19.8906 830.0938,20.2188 Q829.4688,20.5469 828.9688,21.2969 Q828.4844,22.0469 828.4844,23.0781 L828.4844,24.1719 Q828.4844,25.4063 829.375,26.2344 Q830.2656,27.0469 831.8594,27.0469 Q832.7969,27.0469 833.4531,26.7969 Q833.8438,26.6406 834.2656,26.2031 Q834.5313,25.9375 834.6719,25.8594 Q834.8281,25.7813 835.0313,25.7813 Q835.3594,25.7813 835.6094,26.0469 Q835.875,26.2969 835.875,26.6406 Q835.875,26.9844 835.5313,27.3906 Q835.0313,27.9688 834.2344,28.2969 Q833.1563,28.75 831.8594,28.75 Q830.3438,28.75 829.1406,28.125 Q828.1563,27.625 827.4688,26.5625 Q826.7813,25.4844 826.7813,24.2031 L826.7813,23.0469 Q826.7813,21.7188 827.3906,20.5781 Q828.0156,19.4219 829.1094,18.8125 Q830.2031,18.1875 831.4375,18.1875 Q832.1719,18.1875 832.8125,18.3594 Q833.4688,18.5156 834.0156,18.875 Z " fill="#000000"/><text fill="#000000" font-family="sans-serif" font-size="14" lengthAdjust="spacing" textLength="79" x="851.75" y="28.7285">Repositories</text><line style="stroke:#181818;stroke-width:0.5;" x1="748.5" x2="1001.5" y1="39" y2="39"/><line style="stroke:#181818;stroke-width:0.5;" x1="748.5" x2="1001.5" y1="47" y2="47"/><text fill="#000000" font-family="sans-serif" font-size="14" lengthAdjust="spacing" textLength="181" x="753.5" y="65.5332">-Repositories(): Repositories</text><text fill="#000000" font-family="sans-serif" font-size="14" lengthAdjust="spacing" textLength="182" x="753.5" y="83.1426">+getInstance() : Repositories</text><text fill="#000000" font-family="sans-serif" font-size="14" lengthAdjust="spacing" textLength="243" x="753.5" y="100.752">+getVehicleRepository() : Repositories</text></g><!--class VehicleRepository--><g id="elem_VehicleRepository"><rect codeLine="27" fill="#F1F1F1" height="65.6094" id="VehicleRepository" rx="2.5" ry="2.5" style="stroke:#181818;stroke-width:0.5;" width="146" x="613" y="248"/><ellipse cx="628" cy="264" fill="#ADD1B2" rx="11" ry="11" style="stroke:#181818;stroke-width:1.0;"/><path d="M630.7656,259.875 Q630.9219,259.6563 631.1094,259.5469 Q631.2969,259.4375 631.5156,259.4375 Q631.8906,259.4375 632.125,259.7031 Q632.3594,259.9531 632.3594,260.5625 L632.3594,262.0156 Q632.3594,262.625 632.125,262.8906 Q631.8906,263.1563 631.5156,263.1563 Q631.1719,263.1563 630.9688,262.9531 Q630.7656,262.7656 630.6563,262.25 Q630.6094,261.8906 630.4219,261.7031 Q630.0938,261.3281 629.4844,261.1094 Q628.875,260.8906 628.25,260.8906 Q627.4844,260.8906 626.8438,261.2188 Q626.2188,261.5469 625.7188,262.2969 Q625.2344,263.0469 625.2344,264.0781 L625.2344,265.1719 Q625.2344,266.4063 626.125,267.2344 Q627.0156,268.0469 628.6094,268.0469 Q629.5469,268.0469 630.2031,267.7969 Q630.5938,267.6406 631.0156,267.2031 Q631.2813,266.9375 631.4219,266.8594 Q631.5781,266.7813 631.7813,266.7813 Q632.1094,266.7813 632.3594,267.0469 Q632.625,267.2969 632.625,267.6406 Q632.625,267.9844 632.2813,268.3906 Q631.7813,268.9688 630.9844,269.2969 Q629.9063,269.75 628.6094,269.75 Q627.0938,269.75 625.8906,269.125 Q624.9063,268.625 624.2188,267.5625 Q623.5313,266.4844 623.5313,265.2031 L623.5313,264.0469 Q623.5313,262.7188 624.1406,261.5781 Q624.7656,260.4219 625.8594,259.8125 Q626.9531,259.1875 628.1875,259.1875 Q628.9219,259.1875 629.5625,259.3594 Q630.2188,259.5156 630.7656,259.875 Z " fill="#000000"/><text fill="#000000" font-family="sans-serif" font-size="14" lengthAdjust="spacing" textLength="114" x="642" y="269.7285">VehicleRepository</text><line style="stroke:#181818;stroke-width:0.5;" x1="614" x2="758" y1="280" y2="280"/><line style="stroke:#181818;stroke-width:0.5;" x1="614" x2="758" y1="288" y2="288"/><text fill="#000000" font-family="sans-serif" font-size="14" lengthAdjust="spacing" textLength="66" x="619" y="306.5332">+register()</text></g><!--class Vehicle--><g id="elem_Vehicle"><rect codeLine="32" fill="#F1F1F1" height="136.0469" id="Vehicle" rx="2.5" ry="2.5" style="stroke:#181818;stroke-width:0.5;" width="116" x="628" y="516"/><ellipse cx="660.1" cy="532" fill="#ADD1B2" rx="11" ry="11" style="stroke:#181818;stroke-width:1.0;"/><path d="M662.8656,527.875 Q663.0219,527.6563 663.2094,527.5469 Q663.3969,527.4375 663.6156,527.4375 Q663.9906,527.4375 664.225,527.7031 Q664.4594,527.9531 664.4594,528.5625 L664.4594,530.0156 Q664.4594,530.625 664.225,530.8906 Q663.9906,531.1563 663.6156,531.1563 Q663.2719,531.1563 663.0688,530.9531 Q662.8656,530.7656 662.7563,530.25 Q662.7094,529.8906 662.5219,529.7031 Q662.1938,529.3281 661.5844,529.1094 Q660.975,528.8906 660.35,528.8906 Q659.5844,528.8906 658.9438,529.2188 Q658.3188,529.5469 657.8188,530.2969 Q657.3344,531.0469 657.3344,532.0781 L657.3344,533.1719 Q657.3344,534.4063 658.225,535.2344 Q659.1156,536.0469 660.7094,536.0469 Q661.6469,536.0469 662.3031,535.7969 Q662.6938,535.6406 663.1156,535.2031 Q663.3813,534.9375 663.5219,534.8594 Q663.6781,534.7813 663.8813,534.7813 Q664.2094,534.7813 664.4594,535.0469 Q664.725,535.2969 664.725,535.6406 Q664.725,535.9844 664.3813,536.3906 Q663.8813,536.9688 663.0844,537.2969 Q662.0063,537.75 660.7094,537.75 Q659.1938,537.75 657.9906,537.125 Q657.0063,536.625 656.3188,535.5625 Q655.6313,534.4844 655.6313,533.2031 L655.6313,532.0469 Q655.6313,530.7188 656.2406,529.5781 Q656.8656,528.4219 657.9594,527.8125 Q659.0531,527.1875 660.2875,527.1875 Q661.0219,527.1875 661.6625,527.3594 Q662.3188,527.5156 662.8656,527.875 Z " fill="#000000"/><text fill="#000000" font-family="sans-serif" font-size="14" lengthAdjust="spacing" textLength="46" x="677.9" y="537.7285">Vehicle</text><line style="stroke:#181818;stroke-width:0.5;" x1="629" x2="743" y1="548" y2="548"/><text fill="#000000" font-family="sans-serif" font-size="14" lengthAdjust="spacing" textLength="85" x="634" y="566.5332">-plate : String</text><text fill="#000000" font-family="sans-serif" font-size="14" lengthAdjust="spacing" textLength="91" x="634" y="584.1426">-brand : String</text><text fill="#000000" font-family="sans-serif" font-size="14" lengthAdjust="spacing" textLength="92" x="634" y="601.752">-model : String</text><text fill="#000000" font-family="sans-serif" font-size="14" lengthAdjust="spacing" textLength="104" x="634" y="619.3613">-currentKms : int</text><line style="stroke:#181818;stroke-width:0.5;" x1="629" x2="743" y1="626.4375" y2="626.4375"/><text fill="#000000" font-family="sans-serif" font-size="14" lengthAdjust="spacing" textLength="64" x="634" y="644.9707">+Vehicle()</text></g><!--class FM--><g id="elem_FM"><rect codeLine="40" fill="#F1F1F1" height="48" id="FM" rx="2.5" ry="2.5" style="stroke:#181818;stroke-width:0.5;" width="52" x="779" y="560"/><ellipse cx="794" cy="576" fill="#ADD1B2" rx="11" ry="11" style="stroke:#181818;stroke-width:1.0;"/><path d="M796.7656,571.875 Q796.9219,571.6563 797.1094,571.5469 Q797.2969,571.4375 797.5156,571.4375 Q797.8906,571.4375 798.125,571.7031 Q798.3594,571.9531 798.3594,572.5625 L798.3594,574.0156 Q798.3594,574.625 798.125,574.8906 Q797.8906,575.1563 797.5156,575.1563 Q797.1719,575.1563 796.9688,574.9531 Q796.7656,574.7656 796.6563,574.25 Q796.6094,573.8906 796.4219,573.7031 Q796.0938,573.3281 795.4844,573.1094 Q794.875,572.8906 794.25,572.8906 Q793.4844,572.8906 792.8438,573.2188 Q792.2188,573.5469 791.7188,574.2969 Q791.2344,575.0469 791.2344,576.0781 L791.2344,577.1719 Q791.2344,578.4063 792.125,579.2344 Q793.0156,580.0469 794.6094,580.0469 Q795.5469,580.0469 796.2031,579.7969 Q796.5938,579.6406 797.0156,579.2031 Q797.2813,578.9375 797.4219,578.8594 Q797.5781,578.7813 797.7813,578.7813 Q798.1094,578.7813 798.3594,579.0469 Q798.625,579.2969 798.625,579.6406 Q798.625,579.9844 798.2813,580.3906 Q797.7813,580.9688 796.9844,581.2969 Q795.9063,581.75 794.6094,581.75 Q793.0938,581.75 791.8906,581.125 Q790.9063,580.625 790.2188,579.5625 Q789.5313,578.4844 789.5313,577.2031 L789.5313,576.0469 Q789.5313,574.7188 790.1406,573.5781 Q790.7656,572.4219 791.8594,571.8125 Q792.9531,571.1875 794.1875,571.1875 Q794.9219,571.1875 795.5625,571.3594 Q796.2188,571.5156 796.7656,571.875 Z " fill="#000000"/><text fill="#000000" font-family="sans-serif" font-size="14" lengthAdjust="spacing" textLength="20" x="808" y="581.7285">FM</text><line style="stroke:#181818;stroke-width:0.5;" x1="780" x2="830" y1="592" y2="592"/><line style="stroke:#181818;stroke-width:0.5;" x1="780" x2="830" y1="600" y2="600"/></g><!--link GenerateMaintenanceReportUI to GenerateMaintenanceReportController--><g id="link_GenerateMaintenanceReportUI_GenerateMaintenanceReportController"><path codeLine="42" d="M235.34,57.5 C240.07,57.5 251.49,57.5 265.27,57.5 " fill="none" id="GenerateMaintenanceReportUI-to-GenerateMaintenanceReportController" style="stroke:#181818;stroke-width:1.0;stroke-dasharray:7.0,7.0;"/><polygon fill="#181818" points="270.44,57.5,261.44,53.5,265.44,57.5,261.44,61.5,270.44,57.5" style="stroke:#181818;stroke-width:1.0;"/></g><!--link GenerateMaintenanceReportController to Repositories--><g id="link_GenerateMaintenanceReportController_Repositories"><path codeLine="43" d="M643.69,57.5 C676.93,57.5 710.94,57.5 742.29,57.5 " fill="none" id="GenerateMaintenanceReportController-to-Repositories" style="stroke:#181818;stroke-width:1.0;stroke-dasharray:7.0,7.0;"/><polygon fill="#181818" points="747.3,57.5,738.3,53.5,742.3,57.5,738.3,61.5,747.3,57.5" style="stroke:#181818;stroke-width:1.0;"/><text fill="#000000" font-family="sans-serif" font-size="13" lengthAdjust="spacing" textLength="67" x="662" y="50.9951">repositories</text></g><!--link Repositories to VehicleRepository--><g id="link_Repositories_VehicleRepository"><path codeLine="44" d="M832.58,108.21 C797.41,149.44 748.23,207.07 716.74,243.97 " fill="none" id="Repositories-to-VehicleRepository" style="stroke:#181818;stroke-width:1.0;"/><polygon fill="#181818" points="713.37,247.92,722.2549,243.6706,716.6157,244.1167,716.1696,238.4774,713.37,247.92" style="stroke:#181818;stroke-width:1.0;"/><text fill="#000000" font-family="sans-serif" font-size="13" lengthAdjust="spacing" textLength="7" x="711.2932" y="237.0189">1</text></g><!--link Repositories to Repositories--><g id="link_Repositories_Repositories"><path codeLine="45" d="M1002.73,43.65 C1023.36,45.66 1037.5,50.27 1037.5,57.5 C1037.5,64.11 1025.68,68.53 1007.9,70.77 " fill="none" id="Repositories-to-Repositories" style="stroke:#181818;stroke-width:1.0;"/><polygon fill="#181818" points="1002.73,71.35,1012.1195,74.3228,1007.6989,70.7931,1011.2285,66.3725,1002.73,71.35" style="stroke:#181818;stroke-width:1.0;"/><text fill="#000000" font-family="sans-serif" font-size="13" lengthAdjust="spacing" textLength="49" x="1043.5" y="62.9951">instance</text></g><!--link Repositories to Vehicle--><g id="link_Repositories_Vehicle"><path codeLine="46" d="M871.65,108.07 C869.46,140.54 867,177 867,177 C867,177 867,177 867,455 C867,455 761,516 761,516 C761,516 755.86,520.59 748.27,527.38 " fill="none" id="Repositories-to-Vehicle" style="stroke:#181818;stroke-width:1.0;"/><polygon fill="#181818" points="744.36,530.87,753.7377,527.8603,748.0899,527.5402,748.4101,521.8924,744.36,530.87" style="stroke:#181818;stroke-width:1.0;"/><text fill="#000000" font-family="sans-serif" font-size="13" lengthAdjust="spacing" textLength="7" x="863.7295" y="129.4706">1</text><text fill="#000000" font-family="sans-serif" font-size="13" lengthAdjust="spacing" textLength="5" x="752.1577" y="520.5524">*</text></g><!--link VehicleRepository to Vehicle--><g id="link_VehicleRepository_Vehicle"><path codeLine="48" d="M686,314.21 C686,360.75 686,448.06 686,510.55 " fill="none" id="VehicleRepository-to-Vehicle" style="stroke:#181818;stroke-width:1.0;"/><polygon fill="#181818" points="686,515.76,690,506.76,686,510.76,682,506.76,686,515.76" style="stroke:#181818;stroke-width:1.0;"/><text fill="#000000" font-family="sans-serif" font-size="13" lengthAdjust="spacing" textLength="5" x="680.7266" y="504.933">*</text></g><!--reverse link Vehicle to FM--><g id="link_Vehicle_FM"><path codeLine="49" d="M749.44,584 C757.88,584 765.33,584 765.33,584 C765.33,584 771.39,584 778.76,584 " fill="none" id="Vehicle-backto-FM" style="stroke:#181818;stroke-width:1.0;"/><polygon fill="#181818" points="744.11,584,753.11,588,749.11,584,753.11,580,744.11,584" style="stroke:#181818;stroke-width:1.0;"/><text fill="#000000" font-family="sans-serif" font-size="13" lengthAdjust="spacing" textLength="5" x="751.8757" y="580.4896">*</text><text fill="#000000" font-family="sans-serif" font-size="13" lengthAdjust="spacing" textLength="7" x="764.1391" y="579.4902">1</text></g><!--link GenerateMaintenanceReportController to Vehicle--><g id="link_GenerateMaintenanceReportController_Vehicle"><path codeLine="50" d="M473.86,99.28 C488.04,133.56 506,177 506,177 C506,177 506,177 506,455 C506,455 571.28,501.42 623.21,538.35 " fill="none" id="GenerateMaintenanceReportController-to-Vehicle" style="stroke:#181818;stroke-width:1.0;stroke-dasharray:7.0,7.0;"/><polygon fill="#181818" points="627.56,541.44,622.5501,532.9606,623.4875,538.5392,617.9088,539.4766,627.56,541.44" style="stroke:#181818;stroke-width:1.0;"/><text fill="#000000" font-family="sans-serif" font-size="13" lengthAdjust="spacing" textLength="43" x="507" y="358.4951">Vehicle</text></g><!--link GenerateMaintenanceReportController to VehicleRepository--><g id="link_GenerateMaintenanceReportController_VehicleRepository"><path codeLine="51" d="M499,99.13 C541.91,140.63 607.88,204.44 648.91,244.13 " fill="none" id="GenerateMaintenanceReportController-to-VehicleRepository" style="stroke:#181818;stroke-width:1.0;stroke-dasharray:7.0,7.0;"/><polygon fill="#181818" points="652.8,247.89,649.1348,238.7485,649.2148,244.4048,643.5585,244.4848,652.8,247.89" style="stroke:#181818;stroke-width:1.0;"/><text fill="#000000" font-family="sans-serif" font-size="13" lengthAdjust="spacing" textLength="105" x="590" y="183.4951">VehicleRepository</text><text fill="#000000" font-family="sans-serif" font-size="13" lengthAdjust="spacing" textLength="7" x="638.2306" y="236.9827">1</text></g><!--SRC=[bL7BRi8m4BpxArQza3HAr5uvHAgGg535fQYzcsH9B1mxiXTLAUBVwmJ8WnHASylipEnwPcAtGfNSy08AhNII6rqWaDaXwoObJxOymnLL4i5WGbnbia-mEK_rbr0PRBYq_OaK2gag4Kejg_g7JNuPQaEQzLI9vDQ-41cntX4k4grMuXlXYR69n0q1QJ0YombIKPyZj6AiqS0hAZISSCc58bHS9VYEfVF_MEpPWVr9csb5Hak9Piy089WPl4tpFZ4NYMnmAqYRog-5JffTs-4vnk5yIQiJQA7P2U40zFpfuB-X190XBPIbsjNpuHfbTDoOsuKo8f_k2LpdcR3a7kiprbv-vZUai9JkgSvxvKfJsJ421wyDL-aOBdIASWmdEsDGqLjXtSobTXu4frLkVxj-lgmBlT4tH37SKpIxXmHH59busDRKvT8BSZ0Bmp26X-U7SQWNl96dEBKwvDLMZULZQydOkB1BodnvLCeB_DudkozkYtR7_LT_9OFEgSD-0000]--></g></svg>