<?xml version="1.0" encoding="UTF-8" standalone="no"?><svg xmlns="http://www.w3.org/2000/svg" xmlns:xlink="http://www.w3.org/1999/xlink" contentStyleType="text/css" height="396px" preserveAspectRatio="none" style="width:682px;height:396px;background:#FFFFFF;" version="1.1" viewBox="0 0 682 396" width="682px" zoomAndPan="magnify"><defs/><g><text fill="#000000" font-family="sans-serif" font-size="14" font-weight="bold" lengthAdjust="spacing" textLength="337" x="171.75" y="29.5332">System Sequence Diagram (SSD) - Main Solution</text><rect fill="#FFFFFF" height="46.7031" style="stroke:#181818;stroke-width:1.0;" width="10" x="132" y="171.1797"/><rect fill="#FFFFFF" height="30.3516" style="stroke:#181818;stroke-width:1.0;" width="10" x="132" y="248.2344"/><rect fill="#FFFFFF" height="138.7578" style="stroke:#181818;stroke-width:1.0;" width="10" x="649" y="148.8281"/><line style="stroke:#181818;stroke-width:0.5;stroke-dasharray:5.0,5.0;" x1="50" x2="50" y1="138.8281" y2="296.5859"/><line style="stroke:#181818;stroke-width:0.5;stroke-dasharray:5.0,5.0;" x1="137" x2="137" y1="138.8281" y2="296.5859"/><line style="stroke:#181818;stroke-width:0.5;stroke-dasharray:5.0,5.0;" x1="653.5" x2="653.5" y1="138.8281" y2="296.5859"/><text fill="#000000" font-family="sans-serif" font-size="14" lengthAdjust="spacing" textLength="84" x="5" y="118.1426">Green Space</text><text fill="#000000" font-family="sans-serif" font-size="14" lengthAdjust="spacing" textLength="56" x="19" y="135.752">Manager</text><ellipse cx="50" cy="52.1094" fill="#E3E3E3" rx="8" ry="8" style="stroke:#181818;stroke-width:0.5;"/><path d="M50,60.1094 L50,87.1094 M37,68.1094 L63,68.1094 M50,87.1094 L37,102.1094 M50,87.1094 L63,102.1094 " fill="none" style="stroke:#181818;stroke-width:0.5;"/><text fill="#000000" font-family="sans-serif" font-size="14" lengthAdjust="spacing" textLength="84" x="5" y="310.1191">Green Space</text><text fill="#000000" font-family="sans-serif" font-size="14" lengthAdjust="spacing" textLength="56" x="19" y="327.7285">Manager</text><ellipse cx="50" cy="339.3047" fill="#E3E3E3" rx="8" ry="8" style="stroke:#181818;stroke-width:0.5;"/><path d="M50,347.3047 L50,374.3047 M37,355.3047 L63,355.3047 M50,374.3047 L37,389.3047 M50,374.3047 L63,389.3047 " fill="none" style="stroke:#181818;stroke-width:0.5;"/><rect fill="#E3E3E3" height="31.6094" rx="2.5" ry="2.5" style="stroke:#181818;stroke-width:0.5;" width="64" x="105" y="106.2188"/><text fill="#000000" font-family="sans-serif" font-size="14" lengthAdjust="spacing" textLength="50" x="112" y="127.752">:System</text><rect fill="#E3E3E3" height="31.6094" rx="2.5" ry="2.5" style="stroke:#181818;stroke-width:0.5;" width="64" x="105" y="295.5859"/><text fill="#000000" font-family="sans-serif" font-size="14" lengthAdjust="spacing" textLength="50" x="112" y="317.1191">:System</text><rect fill="#E3E3E3" height="31.6094" rx="2.5" ry="2.5" style="stroke:#181818;stroke-width:0.5;" width="45" x="631.5" y="106.2188"/><text fill="#000000" font-family="sans-serif" font-size="14" lengthAdjust="spacing" textLength="31" x="638.5" y="127.752">GSM</text><rect fill="#E3E3E3" height="31.6094" rx="2.5" ry="2.5" style="stroke:#181818;stroke-width:0.5;" width="45" x="631.5" y="295.5859"/><text fill="#000000" font-family="sans-serif" font-size="14" lengthAdjust="spacing" textLength="31" x="638.5" y="317.1191">GSM</text><rect fill="#FFFFFF" height="46.7031" style="stroke:#181818;stroke-width:1.0;" width="10" x="132" y="171.1797"/><rect fill="#FFFFFF" height="30.3516" style="stroke:#181818;stroke-width:1.0;" width="10" x="132" y="248.2344"/><rect fill="#FFFFFF" height="138.7578" style="stroke:#181818;stroke-width:1.0;" width="10" x="649" y="148.8281"/><polygon fill="#181818" points="153,167.1797,143,171.1797,153,175.1797,149,171.1797" style="stroke:#181818;stroke-width:1.0;"/><line style="stroke:#181818;stroke-width:1.0;" x1="147" x2="648" y1="171.1797" y2="171.1797"/><text fill="#000000" font-family="sans-serif" font-size="13" font-weight="bold" lengthAdjust="spacing" textLength="7" x="159" y="166.3232">1</text><text fill="#000000" font-family="sans-serif" font-size="13" lengthAdjust="spacing" textLength="203" x="170" y="166.3232">asks to register a new green space</text><polygon fill="#181818" points="637,213.8828,647,217.8828,637,221.8828,641,217.8828" style="stroke:#181818;stroke-width:1.0;"/><line style="stroke:#181818;stroke-width:1.0;stroke-dasharray:2.0,2.0;" x1="137" x2="643" y1="217.8828" y2="217.8828"/><text fill="#000000" font-family="sans-serif" font-size="13" font-weight="bold" lengthAdjust="spacing" textLength="7" x="144" y="204.8506">2</text><text fill="#000000" font-family="sans-serif" font-size="13" lengthAdjust="spacing" textLength="472" x="155" y="196.6748">request details of the green space(garden, medium-sized park or large-sized park)</text><text fill="#000000" font-family="sans-serif" font-size="13" lengthAdjust="spacing" textLength="105" x="159" y="213.0264">and respctive area</text><polygon fill="#181818" points="153,244.2344,143,248.2344,153,252.2344,149,248.2344" style="stroke:#181818;stroke-width:1.0;"/><line style="stroke:#181818;stroke-width:1.0;" x1="147" x2="648" y1="248.2344" y2="248.2344"/><text fill="#000000" font-family="sans-serif" font-size="13" font-weight="bold" lengthAdjust="spacing" textLength="7" x="159" y="243.3779">3</text><text fill="#000000" font-family="sans-serif" font-size="13" lengthAdjust="spacing" textLength="164" x="170" y="243.3779">provides green space details</text><polygon fill="#181818" points="637,274.5859,647,278.5859,637,282.5859,641,278.5859" style="stroke:#181818;stroke-width:1.0;"/><line style="stroke:#181818;stroke-width:1.0;stroke-dasharray:2.0,2.0;" x1="137" x2="643" y1="278.5859" y2="278.5859"/><text fill="#000000" font-family="sans-serif" font-size="13" font-weight="bold" lengthAdjust="spacing" textLength="7" x="144" y="273.7295">4</text><text fill="#000000" font-family="sans-serif" font-size="13" lengthAdjust="spacing" textLength="464" x="155" y="273.7295">registers green spaces and their respective areas, displaying operation success.</text><!--SRC=[TPAnSi8m38RtF8ME2UwW3y3GYJicfgmiQYoCBecTIWeSVVegWT2qHptfxD-V_b-srfmw56oXpIbNPyajWKbFXJvFEgngZ5JQhI4GgWnJREO2FMF8LquHJjWe5OMnkRIygL4B9Ntsb2g27MCSvCkotArW0mVa16LkUkESYW9xowblFqYyhYmBBFP2v18tGCTqmEGkP06eyAWBxszSSOV9OB6zDnm5zt84yGMDO5yUYW9yUG6RzydSriMrWcKF5jct110INI6EhNLeFLvxWYOoFDO3j77cWDuwoFEgGI13RXJo2UnCS-0oeWHAQsWfSDzkbBye-9Yb1a_Te4IQxQsE2J05vsetc2108Hpx1tffws_4JlA50-dSmsHlol5VlXVnxdFwHTFHeSTa6NtIZr5TGs3j6hmD7oHt93YyDsXV-JrzUmxoTPvl]--></g></svg>