<?xml version="1.0" encoding="UTF-8" standalone="no"?><svg xmlns="http://www.w3.org/2000/svg" xmlns:xlink="http://www.w3.org/1999/xlink" contentStyleType="text/css" height="603px" preserveAspectRatio="none" style="width:1252px;height:603px;background:#FFFFFF;" version="1.1" viewBox="0 0 1252 603" width="1252px" zoomAndPan="magnify"><defs/><g><!--class GreenSpace--><g id="elem_GreenSpace"><rect codeLine="10" fill="#F1F1F1" height="88.4375" id="GreenSpace" rx="2.5" ry="2.5" style="stroke:#181818;stroke-width:0.5;" width="86" x="1159.5" y="96.57"/><text fill="#000000" font-family="sans-serif" font-size="14" lengthAdjust="spacing" textLength="80" x="1162.5" y="116.1032">GreenSpace</text><line style="stroke:#181818;stroke-width:0.5;" x1="1160.5" x2="1244.5" y1="124.1794" y2="124.1794"/><text fill="#000000" font-family="sans-serif" font-size="14" lengthAdjust="spacing" textLength="29" x="1165.5" y="142.7126">local</text><text fill="#000000" font-family="sans-serif" font-size="14" lengthAdjust="spacing" textLength="51" x="1165.5" y="160.322">address</text><text fill="#000000" font-family="sans-serif" font-size="14" lengthAdjust="spacing" textLength="29" x="1165.5" y="177.9313">area</text></g><!--class Organization--><g id="elem_Organization"><rect codeLine="16" fill="#F1F1F1" height="123.6563" id="Organization" rx="2.5" ry="2.5" style="stroke:#181818;stroke-width:0.5;" width="101" x="7" y="78.57"/><text fill="#000000" font-family="sans-serif" font-size="14" lengthAdjust="spacing" textLength="80" x="17.5" y="98.1032">Organization</text><line style="stroke:#181818;stroke-width:0.5;" x1="8" x2="107" y1="106.1794" y2="106.1794"/><text fill="#000000" font-family="sans-serif" font-size="14" lengthAdjust="spacing" textLength="35" x="13" y="124.7126">name</text><text fill="#000000" font-family="sans-serif" font-size="14" lengthAdjust="spacing" textLength="68" x="13" y="142.322">vatNumber</text><text fill="#000000" font-family="sans-serif" font-size="14" lengthAdjust="spacing" textLength="47" x="13" y="159.9313">website</text><text fill="#000000" font-family="sans-serif" font-size="14" lengthAdjust="spacing" textLength="89" x="13" y="177.5407">phoneNumber</text><text fill="#000000" font-family="sans-serif" font-size="14" lengthAdjust="spacing" textLength="33" x="13" y="195.1501">email</text></g><!--class Vehicle--><g id="elem_Vehicle"><rect codeLine="24" fill="#F1F1F1" height="158.875" id="Vehicle" rx="2.5" ry="2.5" style="stroke:#181818;stroke-width:0.5;" width="132" x="130.5" y="289.07"/><text fill="#000000" font-family="sans-serif" font-size="14" lengthAdjust="spacing" textLength="46" x="173.5" y="308.6032">Vehicle</text><line style="stroke:#181818;stroke-width:0.5;" x1="131.5" x2="261.5" y1="316.6794" y2="316.6794"/><text fill="#000000" font-family="sans-serif" font-size="14" lengthAdjust="spacing" textLength="83" x="136.5" y="335.2126">plate number</text><text fill="#000000" font-family="sans-serif" font-size="14" lengthAdjust="spacing" textLength="37" x="136.5" y="352.822">brand</text><text fill="#000000" font-family="sans-serif" font-size="14" lengthAdjust="spacing" textLength="27" x="136.5" y="370.4313">type</text><text fill="#000000" font-family="sans-serif" font-size="14" lengthAdjust="spacing" textLength="38" x="136.5" y="388.0407">model</text><text fill="#000000" font-family="sans-serif" font-size="14" lengthAdjust="spacing" textLength="67" x="136.5" y="405.6501">current km</text><text fill="#000000" font-family="sans-serif" font-size="14" lengthAdjust="spacing" textLength="120" x="136.5" y="423.2595">checkup frequency</text><text fill="#000000" font-family="sans-serif" font-size="14" lengthAdjust="spacing" textLength="117" x="136.5" y="440.8688">km at last checkup</text></g><!--class Checkup--><g id="elem_Checkup"><rect codeLine="34" fill="#F1F1F1" height="70.8281" id="Checkup" rx="2.5" ry="2.5" style="stroke:#181818;stroke-width:0.5;" width="143" x="372" y="333.07"/><text fill="#000000" font-family="sans-serif" font-size="14" lengthAdjust="spacing" textLength="56" x="415.5" y="352.6032">Checkup</text><line style="stroke:#181818;stroke-width:0.5;" x1="373" x2="514" y1="360.6794" y2="360.6794"/><text fill="#000000" font-family="sans-serif" font-size="14" lengthAdjust="spacing" textLength="115" x="378" y="379.2126">current vehicle km</text><text fill="#000000" font-family="sans-serif" font-size="14" lengthAdjust="spacing" textLength="131" x="378" y="396.822">vehicle plate number</text></g><!--class FleetManager--><g id="elem_FleetManager"><rect codeLine="39" fill="#F1F1F1" height="88.4375" id="FleetManager" rx="2.5" ry="2.5" style="stroke:#181818;stroke-width:0.5;" width="94" x="419.5" y="96.57"/><text fill="#000000" font-family="sans-serif" font-size="14" lengthAdjust="spacing" textLength="88" x="422.5" y="116.1032">FleetManager</text><line style="stroke:#181818;stroke-width:0.5;" x1="420.5" x2="512.5" y1="124.1794" y2="124.1794"/><text fill="#000000" font-family="sans-serif" font-size="14" lengthAdjust="spacing" textLength="35" x="425.5" y="142.7126">name</text><text fill="#000000" font-family="sans-serif" font-size="14" lengthAdjust="spacing" textLength="33" x="425.5" y="160.322">email</text><text fill="#000000" font-family="sans-serif" font-size="14" lengthAdjust="spacing" textLength="40" x="425.5" y="177.9313">phone</text></g><!--class HumanResourcesManager--><g id="elem_HumanResourcesManager"><rect codeLine="45" fill="#F1F1F1" height="88.4375" id="HumanResourcesManager" rx="2.5" ry="2.5" style="stroke:#181818;stroke-width:0.5;" width="174" x="548.5" y="96.57"/><text fill="#000000" font-family="sans-serif" font-size="14" lengthAdjust="spacing" textLength="168" x="551.5" y="116.1032">HumanResourcesManager</text><line style="stroke:#181818;stroke-width:0.5;" x1="549.5" x2="721.5" y1="124.1794" y2="124.1794"/><text fill="#000000" font-family="sans-serif" font-size="14" lengthAdjust="spacing" textLength="35" x="554.5" y="142.7126">name</text><text fill="#000000" font-family="sans-serif" font-size="14" lengthAdjust="spacing" textLength="33" x="554.5" y="160.322">email</text><text fill="#000000" font-family="sans-serif" font-size="14" lengthAdjust="spacing" textLength="40" x="554.5" y="177.9313">phone</text></g><!--class GreenSpaceManager--><g id="elem_GreenSpaceManager"><rect codeLine="51" fill="#F1F1F1" height="88.4375" id="GreenSpaceManager" rx="2.5" ry="2.5" style="stroke:#181818;stroke-width:0.5;" width="142" x="178.5" y="96.57"/><text fill="#000000" font-family="sans-serif" font-size="14" lengthAdjust="spacing" textLength="136" x="181.5" y="116.1032">GreenSpaceManager</text><line style="stroke:#181818;stroke-width:0.5;" x1="179.5" x2="319.5" y1="124.1794" y2="124.1794"/><text fill="#000000" font-family="sans-serif" font-size="14" lengthAdjust="spacing" textLength="35" x="184.5" y="142.7126">name</text><text fill="#000000" font-family="sans-serif" font-size="14" lengthAdjust="spacing" textLength="33" x="184.5" y="160.322">email</text><text fill="#000000" font-family="sans-serif" font-size="14" lengthAdjust="spacing" textLength="40" x="184.5" y="177.9313">phone</text></g><!--class GreenSpaceUser--><g id="elem_GreenSpaceUser"><rect codeLine="57" fill="#F1F1F1" height="70.8281" id="GreenSpaceUser" rx="2.5" ry="2.5" style="stroke:#181818;stroke-width:0.5;" width="115" x="967" y="105.07"/><text fill="#000000" font-family="sans-serif" font-size="14" lengthAdjust="spacing" textLength="109" x="970" y="124.6032">GreenSpaceUser</text><line style="stroke:#181818;stroke-width:0.5;" x1="968" x2="1081" y1="132.6794" y2="132.6794"/><text fill="#000000" font-family="sans-serif" font-size="14" lengthAdjust="spacing" textLength="35" x="973" y="151.2126">name</text><text fill="#000000" font-family="sans-serif" font-size="14" lengthAdjust="spacing" textLength="33" x="973" y="168.822">email</text></g><!--class Collaborator--><g id="elem_Collaborator"><rect codeLine="62" fill="#F1F1F1" height="141.2656" id="Collaborator" rx="2.5" ry="2.5" style="stroke:#181818;stroke-width:0.5;" width="107" x="825" y="70.07"/><text fill="#000000" font-family="sans-serif" font-size="14" lengthAdjust="spacing" textLength="78" x="839.5" y="89.6032">Collaborator</text><line style="stroke:#181818;stroke-width:0.5;" x1="826" x2="931" y1="97.6794" y2="97.6794"/><text fill="#000000" font-family="sans-serif" font-size="14" lengthAdjust="spacing" textLength="35" x="831" y="116.2126">name</text><text fill="#000000" font-family="sans-serif" font-size="14" lengthAdjust="spacing" textLength="56" x="831" y="133.822">birthdate</text><text fill="#000000" font-family="sans-serif" font-size="14" lengthAdjust="spacing" textLength="95" x="831" y="151.4313">admission date</text><text fill="#000000" font-family="sans-serif" font-size="14" lengthAdjust="spacing" textLength="51" x="831" y="169.0407">address</text><text fill="#000000" font-family="sans-serif" font-size="14" lengthAdjust="spacing" textLength="33" x="831" y="186.6501">email</text><text fill="#000000" font-family="sans-serif" font-size="14" lengthAdjust="spacing" textLength="40" x="831" y="204.2595">phone</text></g><!--class ID--><g id="elem_ID"><rect codeLine="71" fill="#F1F1F1" height="70.8281" id="ID" rx="2.5" ry="2.5" style="stroke:#181818;stroke-width:0.5;" width="60" x="1156.5" y="333.07"/><text fill="#000000" font-family="sans-serif" font-size="14" lengthAdjust="spacing" textLength="13" x="1180" y="352.6032">ID</text><line style="stroke:#181818;stroke-width:0.5;" x1="1157.5" x2="1215.5" y1="360.6794" y2="360.6794"/><text fill="#000000" font-family="sans-serif" font-size="14" lengthAdjust="spacing" textLength="27" x="1162.5" y="379.2126">type</text><text fill="#000000" font-family="sans-serif" font-size="14" lengthAdjust="spacing" textLength="48" x="1162.5" y="396.822">number</text></g><!--class Job--><g id="elem_Job"><rect codeLine="76" fill="#F1F1F1" height="53.2188" id="Job" rx="2.5" ry="2.5" style="stroke:#181818;stroke-width:0.5;" width="47" x="730" y="342.07"/><text fill="#000000" font-family="sans-serif" font-size="14" lengthAdjust="spacing" textLength="22" x="742.5" y="361.6032">Job</text><line style="stroke:#181818;stroke-width:0.5;" x1="731" x2="776" y1="369.6794" y2="369.6794"/><text fill="#000000" font-family="sans-serif" font-size="14" lengthAdjust="spacing" textLength="35" x="736" y="388.2126">name</text></g><!--class Skill--><g id="elem_Skill"><rect codeLine="80" fill="#F1F1F1" height="53.2188" id="Skill" rx="2.5" ry="2.5" style="stroke:#181818;stroke-width:0.5;" width="47" x="867" y="535.07"/><text fill="#000000" font-family="sans-serif" font-size="14" lengthAdjust="spacing" textLength="25" x="878" y="554.6032">Skill</text><line style="stroke:#181818;stroke-width:0.5;" x1="868" x2="913" y1="562.6794" y2="562.6794"/><text fill="#000000" font-family="sans-serif" font-size="14" lengthAdjust="spacing" textLength="35" x="873" y="581.2126">name</text></g><!--class Team--><g id="elem_Team"><rect codeLine="84" fill="#F1F1F1" height="53.2188" id="Team" rx="2.5" ry="2.5" style="stroke:#181818;stroke-width:0.5;" width="160" x="961.5" y="342.07"/><text fill="#000000" font-family="sans-serif" font-size="14" lengthAdjust="spacing" textLength="36" x="1023.5" y="361.6032">Team</text><line style="stroke:#181818;stroke-width:0.5;" x1="962.5" x2="1120.5" y1="369.6794" y2="369.6794"/><text fill="#000000" font-family="sans-serif" font-size="14" lengthAdjust="spacing" textLength="148" x="967.5" y="388.2126">numberOfCollaborators</text></g><!--class Task--><g id="elem_Task"><rect codeLine="88" fill="#F1F1F1" height="70.8281" id="Task" rx="2.5" ry="2.5" style="stroke:#181818;stroke-width:0.5;" width="81" x="1056" y="526.07"/><text fill="#000000" font-family="sans-serif" font-size="14" lengthAdjust="spacing" textLength="31" x="1081" y="545.6032">Task</text><line style="stroke:#181818;stroke-width:0.5;" x1="1057" x2="1136" y1="553.6794" y2="553.6794"/><text fill="#000000" font-family="sans-serif" font-size="14" lengthAdjust="spacing" textLength="35" x="1062" y="572.2126">name</text><text fill="#000000" font-family="sans-serif" font-size="14" lengthAdjust="spacing" textLength="69" x="1062" y="589.822">description</text></g><!--link Organization to Collaborator--><g id="link_Organization_Collaborator"><path codeLine="93" d="M108.25,97.86 C124.04,86.85 142.15,76.35 160.5,70.07 C275.48,30.75 589.21,8.31 706.5,40.07 C749.4,51.68 792.57,76.96 824.93,99.26 " fill="none" id="Organization-Collaborator" style="stroke:#181818;stroke-width:1.0;"/><polygon fill="#000000" points="680.5,31.2555,671.4607,28.299,671.4492,34.1768,680.5,31.2555" style="stroke:#000000;stroke-width:1.0;"/><text fill="#000000" font-family="sans-serif" font-size="13" lengthAdjust="spacing" textLength="21" x="684.5" y="36.5651">has</text><text fill="#000000" font-family="sans-serif" font-size="13" lengthAdjust="spacing" textLength="7" x="115.8789" y="88.2729">1</text><text fill="#000000" font-family="sans-serif" font-size="13" lengthAdjust="spacing" textLength="5" x="812.0452" y="89.8269">*</text></g><!--link Organization to FleetManager--><g id="link_Organization_FleetManager"><path codeLine="94" d="M108.05,80.02 C125.09,63.91 145.43,48.63 167.5,40.07 C255.31,6 360.1,63.08 419.41,104.2 " fill="none" id="Organization-FleetManager" style="stroke:#181818;stroke-width:1.0;"/><polygon fill="#000000" points="177.485,31.6329,168.6946,28.0025,168.2395,33.8627,177.485,31.6329" style="stroke:#000000;stroke-width:1.0;"/><text fill="#000000" font-family="sans-serif" font-size="13" lengthAdjust="spacing" textLength="21" x="181.5" y="36.5651">has</text><text fill="#000000" font-family="sans-serif" font-size="13" lengthAdjust="spacing" textLength="7" x="115.6508" y="67.9242">1</text><text fill="#000000" font-family="sans-serif" font-size="13" lengthAdjust="spacing" textLength="7" x="404.3472" y="94.6168">1</text></g><!--link Organization to HumanResourcesManager--><g id="link_Organization_HumanResourcesManager"><path codeLine="95" d="M108.1,98.37 C123.95,87.3 142.14,76.64 160.5,70.07 C305.42,18.24 351.73,46.74 505.5,40.07 C521.48,39.38 526.82,33.7 541.5,40.07 C568.24,51.67 590.84,75.04 607.18,96.33 " fill="none" id="Organization-HumanResourcesManager" style="stroke:#181818;stroke-width:1.0;"/><polygon fill="#000000" points="515.5,31.2253,506.4429,28.3234,506.467,34.2012,515.5,31.2253" style="stroke:#000000;stroke-width:1.0;"/><text fill="#000000" font-family="sans-serif" font-size="13" lengthAdjust="spacing" textLength="21" x="519.5" y="36.5651">has</text><text fill="#000000" font-family="sans-serif" font-size="13" lengthAdjust="spacing" textLength="7" x="116.0459" y="106.8931">1</text><text fill="#000000" font-family="sans-serif" font-size="13" lengthAdjust="spacing" textLength="7" x="595.3076" y="85.8193">1</text></g><!--link Organization to GreenSpaceManager--><g id="link_Organization_GreenSpaceManager"><path codeLine="96" d="M108.2,140.57 C129.64,140.57 154.99,140.57 178.27,140.57 " fill="none" id="Organization-GreenSpaceManager" style="stroke:#181818;stroke-width:1.0;"/><polygon fill="#000000" points="135.25,128.7458,126.2049,125.8069,126.2049,131.6847,135.25,128.7458" style="stroke:#000000;stroke-width:1.0;"/><text fill="#000000" font-family="sans-serif" font-size="13" lengthAdjust="spacing" textLength="21" x="139.25" y="134.0651">has</text><text fill="#000000" font-family="sans-serif" font-size="13" lengthAdjust="spacing" textLength="7" x="116.1606" y="136.9412">1</text><text fill="#000000" font-family="sans-serif" font-size="13" lengthAdjust="spacing" textLength="7" x="163.5635" y="137.2357">1</text></g><!--link Organization to GreenSpace--><g id="link_Organization_GreenSpace"><path codeLine="97" d="M108.15,102.42 C124.37,91.16 142.75,79.37 160.5,70.07 C193.58,52.74 202.27,46.85 239,40.07 C258.67,36.44 264,39.7 284,40.07 C465.31,43.4 927.28,13.28 1099.5,70.07 C1120.9,77.13 1141.92,90.09 1159.32,102.99 " fill="none" id="Organization-GreenSpace" style="stroke:#181818;stroke-width:1.0;"/><polygon fill="#000000" points="249,31.2485,239.9565,28.3047,239.9533,34.1825,249,31.2485" style="stroke:#000000;stroke-width:1.0;"/><text fill="#000000" font-family="sans-serif" font-size="13" lengthAdjust="spacing" textLength="30" x="253" y="36.5651">owns</text><text fill="#000000" font-family="sans-serif" font-size="13" lengthAdjust="spacing" textLength="7" x="116.1033" y="111.5379">1</text><text fill="#000000" font-family="sans-serif" font-size="13" lengthAdjust="spacing" textLength="5" x="1146.4688" y="92.6437">*</text></g><!--link GreenSpaceManager to GreenSpace--><g id="link_GreenSpaceManager_GreenSpace"><path codeLine="98" d="M270.94,96.55 C283.84,75.32 302.45,51.94 326.5,40.07 C353.6,26.69 364.28,39.43 394.5,40.07 C551.27,43.4 950.72,20.54 1099.5,70.07 C1120.88,77.19 1141.89,90.16 1159.3,103.05 " fill="none" id="GreenSpaceManager-GreenSpace" style="stroke:#181818;stroke-width:1.0;"/><polygon fill="#000000" points="336.4999,31.2824,327.4765,28.2773,327.4335,34.155,336.4999,31.2824" style="stroke:#000000;stroke-width:1.0;"/><text fill="#000000" font-family="sans-serif" font-size="13" lengthAdjust="spacing" textLength="53" x="340.5" y="36.5651">manages</text><text fill="#000000" font-family="sans-serif" font-size="13" lengthAdjust="spacing" textLength="7" x="266.7992" y="85.7476">1</text><text fill="#000000" font-family="sans-serif" font-size="13" lengthAdjust="spacing" textLength="7" x="1144.5653" y="111.6488">1</text></g><!--link GreenSpaceManager to FleetManager--><g id="link_GreenSpaceManager_FleetManager"><path codeLine="99" d="M320.55,140.57 C352.94,140.57 390.4,140.57 419.26,140.57 " fill="none" id="GreenSpaceManager-FleetManager" style="stroke:#181818;stroke-width:1.0;"/><polygon fill="#000000" points="348,128.7458,338.9549,125.8069,338.9549,131.6847,348,128.7458" style="stroke:#000000;stroke-width:1.0;"/><text fill="#000000" font-family="sans-serif" font-size="13" lengthAdjust="spacing" textLength="49" x="352" y="134.0651">employs</text><text fill="#000000" font-family="sans-serif" font-size="13" lengthAdjust="spacing" textLength="7" x="328.7039" y="137.1854">1</text><text fill="#000000" font-family="sans-serif" font-size="13" lengthAdjust="spacing" textLength="7" x="404.4904" y="136.8335">1</text></g><!--link GreenSpaceManager to HumanResourcesManager--><g id="link_GreenSpaceManager_HumanResourcesManager"><path codeLine="100" d="M300.62,96.36 C348.29,60.65 421.84,19.46 488.5,40.07 C524.83,51.3 560.18,74.94 587.11,96.47 " fill="none" id="GreenSpaceManager-HumanResourcesManager" style="stroke:#181818;stroke-width:1.0;"/><polygon fill="#000000" points="434.5,31.2477,425.456,28.3053,425.4538,34.1832,434.5,31.2477" style="stroke:#000000;stroke-width:1.0;"/><text fill="#000000" font-family="sans-serif" font-size="13" lengthAdjust="spacing" textLength="49" x="438.5" y="36.5651">employs</text><text fill="#000000" font-family="sans-serif" font-size="13" lengthAdjust="spacing" textLength="7" x="300.9118" y="85.8539">1</text><text fill="#000000" font-family="sans-serif" font-size="13" lengthAdjust="spacing" textLength="7" x="571.84" y="85.6548">1</text></g><!--link GreenSpaceUser to GreenSpace--><g id="link_GreenSpaceUser_GreenSpace"><path codeLine="101" d="M1082.29,140.57 C1107.37,140.57 1136.22,140.57 1159.38,140.57 " fill="none" id="GreenSpaceUser-GreenSpace" style="stroke:#181818;stroke-width:1.0;"/><polygon fill="#000000" points="1109.25,128.7458,1100.2049,125.8069,1100.2049,131.6847,1109.25,128.7458" style="stroke:#000000;stroke-width:1.0;"/><text fill="#000000" font-family="sans-serif" font-size="13" lengthAdjust="spacing" textLength="28" x="1113.25" y="134.0651">uses</text><text fill="#000000" font-family="sans-serif" font-size="13" lengthAdjust="spacing" textLength="5" x="1090.0147" y="137.0736">*</text><text fill="#000000" font-family="sans-serif" font-size="13" lengthAdjust="spacing" textLength="7" x="1144.3672" y="136.6827">1</text></g><!--link Organization to Vehicle--><g id="link_Organization_Vehicle"><path codeLine="102" d="M95.12,202.73 C111.44,229.27 130.75,260.67 148.12,288.92 " fill="none" id="Organization-Vehicle" style="stroke:#181818;stroke-width:1.0;"/><polygon fill="#000000" points="135.1191,254.505,132.8846,245.2606,127.8777,248.3395,135.1191,254.505" style="stroke:#000000;stroke-width:1.0;"/><text fill="#000000" font-family="sans-serif" font-size="13" lengthAdjust="spacing" textLength="30" x="141.5" y="255.5651">owns</text><text fill="#000000" font-family="sans-serif" font-size="13" lengthAdjust="spacing" textLength="7" x="91.8519" y="223.9369">1</text><text fill="#000000" font-family="sans-serif" font-size="13" lengthAdjust="spacing" textLength="5" x="138.2705" y="278.0837">*</text></g><!--link Vehicle to Checkup--><g id="link_Vehicle_Checkup"><path codeLine="103" d="M262.69,368.57 C296.42,368.57 337.47,368.57 371.92,368.57 " fill="none" id="Vehicle-Checkup" style="stroke:#181818;stroke-width:1.0;"/><polygon fill="#000000" points="289.75,356.7458,280.7049,353.8069,280.7049,359.6847,289.75,356.7458" style="stroke:#000000;stroke-width:1.0;"/><text fill="#000000" font-family="sans-serif" font-size="13" lengthAdjust="spacing" textLength="60" x="293.75" y="362.0651">undergoes</text><text fill="#000000" font-family="sans-serif" font-size="13" lengthAdjust="spacing" textLength="7" x="270.3123" y="365.2162">1</text><text fill="#000000" font-family="sans-serif" font-size="13" lengthAdjust="spacing" textLength="5" x="358.8175" y="365.2187">*</text></g><!--link HumanResourcesManager to Collaborator--><g id="link_HumanResourcesManager_Collaborator"><path codeLine="104" d="M722.54,140.57 C756.72,140.57 794.87,140.57 824.88,140.57 " fill="none" id="HumanResourcesManager-Collaborator" style="stroke:#181818;stroke-width:1.0;"/><polygon fill="#000000" points="749.75,128.7458,740.7049,125.8069,740.7049,131.6847,749.75,128.7458" style="stroke:#000000;stroke-width:1.0;"/><text fill="#000000" font-family="sans-serif" font-size="13" lengthAdjust="spacing" textLength="53" x="753.75" y="134.0651">manages</text><text fill="#000000" font-family="sans-serif" font-size="13" lengthAdjust="spacing" textLength="7" x="730.6037" y="137.3488">1</text><text fill="#000000" font-family="sans-serif" font-size="13" lengthAdjust="spacing" textLength="5" x="811.9881" y="136.9462">*</text></g><!--link Collaborator to Vehicle--><g id="link_Collaborator_Vehicle"><path codeLine="105" d="M824.79,189.89 C793.46,215.1 751.86,243.8 709.5,259.07 C560.54,312.76 506.99,246.42 354.5,289.07 C322.94,297.9 290.16,313.06 262.69,327.72 " fill="none" id="Collaborator-Vehicle" style="stroke:#181818;stroke-width:1.0;"/><polygon fill="#000000" points="744.6439,251.4365,754.1286,252.1368,752.7288,246.4281,744.6439,251.4365" style="stroke:#000000;stroke-width:1.0;"/><text fill="#000000" font-family="sans-serif" font-size="13" lengthAdjust="spacing" textLength="28" x="758.5" y="255.5651">uses</text><text fill="#000000" font-family="sans-serif" font-size="13" lengthAdjust="spacing" textLength="7" x="810.1024" y="192.9433">1</text><text fill="#000000" font-family="sans-serif" font-size="13" lengthAdjust="spacing" textLength="20" x="270.5471" y="337.852">0..*</text></g><!--link HumanResourcesManager to Skill--><g id="link_HumanResourcesManager_Skill"><path codeLine="106" d="M623.5,184.71 C608.43,248.77 590.91,369.88 647.5,448.07 C701.34,522.45 816.74,549.02 866.67,557.28 " fill="none" id="HumanResourcesManager-Skill" style="stroke:#181818;stroke-width:1.0;"/><polygon fill="#000000" points="655.2328,372.9329,652.7502,363.752,647.828,366.9647,655.2328,372.9329" style="stroke:#000000;stroke-width:1.0;"/><text fill="#000000" font-family="sans-serif" font-size="13" lengthAdjust="spacing" textLength="50" x="661.5" y="374.0651">registers</text><text fill="#000000" font-family="sans-serif" font-size="13" lengthAdjust="spacing" textLength="7" x="614.0297" y="206.5081">1</text><text fill="#000000" font-family="sans-serif" font-size="13" lengthAdjust="spacing" textLength="5" x="853.9356" y="551.1844">*</text></g><!--link HumanResourcesManager to Job--><g id="link_HumanResourcesManager_Job"><path codeLine="107" d="M629.81,184.67 C628.58,207.71 630.08,236 640.5,259.07 C659.41,300.96 702.6,334.83 729.77,353.01 " fill="none" id="HumanResourcesManager-Job" style="stroke:#181818;stroke-width:1.0;"/><polygon fill="#000000" points="648.0528,254.545,645.9617,245.2671,640.9077,248.2682,648.0528,254.545" style="stroke:#000000;stroke-width:1.0;"/><text fill="#000000" font-family="sans-serif" font-size="13" lengthAdjust="spacing" textLength="50" x="654.5" y="255.5651">registers</text><text fill="#000000" font-family="sans-serif" font-size="13" lengthAdjust="spacing" textLength="7" x="629.461" y="206.4617">1</text><text fill="#000000" font-family="sans-serif" font-size="13" lengthAdjust="spacing" textLength="5" x="717.0649" y="343.6039">*</text></g><!--link Collaborator to Skill--><g id="link_Collaborator_Skill"><path codeLine="108" d="M880.5,211.23 C883.21,306.17 887.95,471.63 889.77,534.94 " fill="none" id="Collaborator-Skill" style="stroke:#181818;stroke-width:1.0;"/><polygon fill="#000000" points="891.6431,373.7437,894.3219,364.6182,888.4465,364.7865,891.6431,373.7437" style="stroke:#000000;stroke-width:1.0;"/><text fill="#000000" font-family="sans-serif" font-size="13" lengthAdjust="spacing" textLength="21" x="900.5" y="374.0651">has</text><text fill="#000000" font-family="sans-serif" font-size="13" lengthAdjust="spacing" textLength="7" x="873.3453" y="232.8414">1</text><text fill="#000000" font-family="sans-serif" font-size="13" lengthAdjust="spacing" textLength="5" x="883.9827" y="524.0102">*</text></g><!--link Collaborator to Job--><g id="link_Collaborator_Job"><path codeLine="109" d="M839.98,211.22 C815.44,255.58 785.1,310.44 767.66,341.98 " fill="none" id="Collaborator-Job" style="stroke:#181818;stroke-width:1.0;"/><polygon fill="#000000" points="822.0801,254.6212,829.0295,248.1284,823.886,245.2836,822.0801,254.6212" style="stroke:#000000;stroke-width:1.0;"/><text fill="#000000" font-family="sans-serif" font-size="13" lengthAdjust="spacing" textLength="21" x="833.5" y="255.5651">has</text><text fill="#000000" font-family="sans-serif" font-size="13" lengthAdjust="spacing" textLength="7" x="828.6467" y="232.8303">1</text><text fill="#000000" font-family="sans-serif" font-size="13" lengthAdjust="spacing" textLength="7" x="763.2584" y="331.06">1</text></g><!--link Collaborator to ID--><g id="link_Collaborator_ID"><path codeLine="110" d="M932.12,198.07 C937.76,202.76 943.59,207.18 949.5,211.07 C1025.75,261.26 1070.3,229.54 1139.5,289.07 C1153.23,300.88 1164.05,317.74 1171.83,332.81 " fill="none" id="Collaborator-ID" style="stroke:#181818;stroke-width:1.0;"/><polygon fill="#000000" points="1098.8586,252.6957,1092.4138,245.7018,1089.5337,250.8257,1098.8586,252.6957" style="stroke:#000000;stroke-width:1.0;"/><text fill="#000000" font-family="sans-serif" font-size="13" lengthAdjust="spacing" textLength="21" x="1103.5" y="255.5651">has</text><text fill="#000000" font-family="sans-serif" font-size="13" lengthAdjust="spacing" textLength="7" x="940.1525" y="202.5321">1</text><text fill="#000000" font-family="sans-serif" font-size="13" lengthAdjust="spacing" textLength="7" x="1161.4799" y="322.2851">1</text></g><!--link FleetManager to Vehicle--><g id="link_FleetManager_Vehicle"><path codeLine="111" d="M419.47,180.94 C376.11,217.23 311.3,271.48 262.71,312.15 " fill="none" id="FleetManager-Vehicle" style="stroke:#181818;stroke-width:1.0;"/><polygon fill="#000000" points="340.6658,253.455,349.4882,249.9031,345.7156,245.3958,340.6658,253.455" style="stroke:#000000;stroke-width:1.0;"/><text fill="#000000" font-family="sans-serif" font-size="13" lengthAdjust="spacing" textLength="56" x="353.5" y="255.5651">maintains</text><text fill="#000000" font-family="sans-serif" font-size="13" lengthAdjust="spacing" textLength="7" x="404.4168" y="183.5872">1</text><text fill="#000000" font-family="sans-serif" font-size="13" lengthAdjust="spacing" textLength="5" x="270.6546" y="302.2241">*</text></g><!--link FleetManager to Checkup--><g id="link_FleetManager_Checkup"><path codeLine="112" d="M462.12,184.61 C457.74,227.64 451.09,292.99 447.04,332.83 " fill="none" id="FleetManager-Checkup" style="stroke:#181818;stroke-width:1.0;"/><polygon fill="#000000" points="459.9939,255.2201,463.8333,246.5189,457.9856,245.924,459.9939,255.2201" style="stroke:#000000;stroke-width:1.0;"/><text fill="#000000" font-family="sans-serif" font-size="13" lengthAdjust="spacing" textLength="36" x="469.5" y="255.5651">orders</text><text fill="#000000" font-family="sans-serif" font-size="13" lengthAdjust="spacing" textLength="7" x="453.8641" y="206.3921">1</text><text fill="#000000" font-family="sans-serif" font-size="13" lengthAdjust="spacing" textLength="5" x="442.2318" y="322.3088">*</text></g><!--link Team to Task--><g id="link_Team_Task"><path codeLine="113" d="M1048.92,395.33 C1058.62,429.03 1075.67,488.22 1086.5,525.86 " fill="none" id="Team-Task" style="stroke:#181818;stroke-width:1.0;"/><polygon fill="#000000" points="1082.8833,492.0506,1083.2051,482.5455,1077.5567,484.1717,1082.8833,492.0506" style="stroke:#000000;stroke-width:1.0;"/><text fill="#000000" font-family="sans-serif" font-size="13" lengthAdjust="spacing" textLength="61" x="1090.5" y="492.5651">carries out</text><text fill="#000000" font-family="sans-serif" font-size="13" lengthAdjust="spacing" textLength="7" x="1042.8265" y="416.8787">1</text><text fill="#000000" font-family="sans-serif" font-size="13" lengthAdjust="spacing" textLength="7" x="1077.0109" y="515.3443">1</text></g><!--link Team to Skill--><g id="link_Team_Skill"><path codeLine="114" d="M1021.14,395.33 C992.24,431.88 939.64,498.42 910.78,534.91 " fill="none" id="Team-Skill" style="stroke:#181818;stroke-width:1.0;"/><polygon fill="#000000" points="953.3989,491.1679,961.3142,485.8955,956.7034,482.2499,953.3989,491.1679" style="stroke:#000000;stroke-width:1.0;"/><text fill="#000000" font-family="sans-serif" font-size="13" lengthAdjust="spacing" textLength="93" x="965.5" y="492.5651">requires a set of</text><text fill="#000000" font-family="sans-serif" font-size="13" lengthAdjust="spacing" textLength="7" x="1008.6224" y="416.8787">1</text><text fill="#000000" font-family="sans-serif" font-size="13" lengthAdjust="spacing" textLength="5" x="909.8916" y="524.4053">*</text></g><!--link Collaborator to Team--><g id="link_Collaborator_Team"><path codeLine="115" d="M928.74,211.22 C960.73,255.58 1000.29,310.44 1023.04,341.98 " fill="none" id="Collaborator-Team" style="stroke:#181818;stroke-width:1.0;"/><polygon fill="#000000" points="967.4246,254.3012,964.5176,245.2458,959.7502,248.6839,967.4246,254.3012" style="stroke:#000000;stroke-width:1.0;"/><text fill="#000000" font-family="sans-serif" font-size="13" lengthAdjust="spacing" textLength="25" x="973.5" y="255.5651">form</text><text fill="#000000" font-family="sans-serif" font-size="13" lengthAdjust="spacing" textLength="5" x="928.6632" y="232.8303">*</text><text fill="#000000" font-family="sans-serif" font-size="13" lengthAdjust="spacing" textLength="7" x="1010.6873" y="331.06">1</text></g><!--SRC=[dLNRZjCm47tFLrXzhCHgzxKFI0W4B1AiH87tYJrDhFYI7JjRTIl-7SUvEMtQ0fLQsPvppbmydhfAcXe8DDFMM5wIrSWyDPYvqL83hw30hJyeP8JSWobK2d0b2BkNfc0xK0wpnCGLEFVEUv9vu_6HMxELhyZkiwoK0XcNn8DKN6lqfHKkooA7VI94ims-yPYny56MWueh48BGkMvD2DdlWVD41HZv2bvQmpgQ0OrnyGB-MwDpfBZRO-waxonrQGqcDjGWrIJw2qiPWkprQWKUcPdGEO4HSUKFTIUehS0kLDuGeV6iqjssH5urDTiHFZTe-26ULfg1Py6N7m2Jy_SzupYJU-b3wcM7xIosKUAZGlHVmOGhfDEYTAcEHPX8dniDvZiwsn17zw_iwUx-d_dJNQ9DnR5AGMu9l3s3vf9yAQ2_OX1QEjTsHN8qTT75S1u_zBhZtPvMzulDKzVZ-RQIIYrQVc1u5yT4x6cN9k8I9BZgD2-1ZfEismvlWREENpsis1ksMg_cbTcm4XnxkuWDlxF-k85TReiRfFDkk4POfuI0j7lJGiz5bXm4l8xcMvIJf57NoXvkaIvblyIExTicin1Yu_1Azlsy6JCVvazokzrG249681KsgYq7Tx4bfZBD314V2FTtTrCeKyXNd7HUkhRVXB-9GZgFz5UazWtDAOin9V9T-ooY7WQzwvZmiWV8h1SIPrFsOJmO7xxNqCEa3lT6eiiYllJ4PtpF6yQ1I8PosiQVWcOLV6vac50Cc4FFxEuicVKat6fisCwI3gW_]--></g></svg>